<svg width="40" height="27" viewBox="0 0 40 27" fill="none" xmlns="http://www.w3.org/2000/svg">
<rect y="1.35352" width="40" height="26" rx="2.51813" fill="#F4F5FF"/>
<mask id="mask0_1261_8652" style="mask-type:alpha" maskUnits="userSpaceOnUse" x="0" y="1" width="40" height="27">
<rect y="1.35352" width="40" height="26" rx="2.51813" fill="#F4F5FF"/>
</mask>
<g mask="url(#mask0_1261_8652)">
<path d="M17.3116 20.3943V16.6094L15.5886 18.4735L17.3116 20.3943Z" fill="#306FC8"/>
<path d="M10.0911 17.084V17.936L12.5546 17.9308V18.9068H10.0911V19.8414H12.8529L14.1387 18.4575L12.9043 17.084H10.0911Z" fill="#306FC8"/>
<path d="M20.5571 9.91231C20.7011 9.82969 20.7885 9.66445 20.7885 9.46307C20.7885 9.26169 20.6959 9.1171 20.5571 9.03965C20.4233 8.9622 20.2228 8.95703 20.0222 8.95703H18.6335V10.0104H20.0068C20.2228 10.0104 20.4028 10.0001 20.5571 9.91231Z" fill="#306FC8"/>
<path d="M2.06763 10.6559H3.60542L2.83395 8.77637L2.06763 10.6559Z" fill="#306FC8"/>
<path d="M19.9038 17.084H18.438V18.2716H19.8935C20.3204 18.2716 20.5878 18.0651 20.5878 17.6571C20.5827 17.2492 20.3049 17.084 19.9038 17.084Z" fill="#306FC8"/>
<path d="M2.35554 12.5713H3.32245L3.75961 13.6298H7.5398V12.8243L7.87924 13.6298H9.83363L10.1731 12.814V13.6298H19.5644V11.9052H19.7495C19.8833 11.9052 19.9193 11.9207 19.9193 12.1324V13.6298H24.7744V13.2219C25.1601 13.4336 25.767 13.6298 26.5796 13.6298H28.6214L29.0637 12.5713H30.0306L30.4678 13.6298H34.392V12.6281L34.9937 13.6298H38.1464V7.04102H35.0297V7.81556L34.5823 7.04102H31.3781V7.81556L30.9872 7.04102H26.6567C25.9264 7.04102 25.2835 7.13912 24.7744 7.41796V7.04102H21.7914V7.41796C21.4416 7.13396 21.0045 7.04102 20.5107 7.04102H9.5919L8.85129 8.73986L8.11068 7.04102H4.67509V7.81556L4.28421 7.04102H1.35264L0 10.165V13.6298H1.91838L2.35554 12.5713ZM24.9852 8.52298C25.3452 8.14604 25.9213 7.97047 26.6979 7.97047H27.7728V8.98255H26.7185C26.3019 8.98255 26.0704 9.04451 25.8493 9.26655C25.6538 9.46277 25.5201 9.83971 25.5201 10.3354C25.5201 10.8415 25.6178 11.1978 25.839 11.4456C26.0036 11.6315 26.3173 11.6883 26.6207 11.6883H27.1248L28.7088 7.97047H30.3855L32.2936 12.4422V7.97047H34.0114L35.9863 11.2597V7.97047H37.1435V12.7004H35.5389L33.4148 9.15811V12.7004H31.1261L30.6941 11.6418H28.354L27.9219 12.7004H26.6156C26.0653 12.7004 25.371 12.5713 24.9801 12.1737C24.5841 11.7709 24.3835 11.2287 24.3835 10.3716C24.3835 9.66931 24.5069 9.02902 24.9852 8.52298ZM22.6811 7.97047H23.8332V12.7004H22.6811V7.97047ZM17.5123 7.97047H20.1044C20.6753 7.97047 21.097 7.99113 21.4571 8.19767C21.8171 8.40938 22.0382 8.7192 22.0382 9.24589C22.0382 9.99462 21.5342 10.3819 21.2359 10.5007C21.4828 10.5936 21.6936 10.764 21.7914 10.9034C21.9508 11.1306 21.9765 11.3475 21.9765 11.7606V12.7004H20.845V12.1014C20.845 11.8226 20.8707 11.4095 20.6599 11.1874C20.5004 11.017 20.2536 10.9809 19.8421 10.9809H18.6335V12.7004H17.5071V7.97047H17.5123ZM12.9761 7.97047H16.7305V8.95673H14.0973V9.80873H16.6637V10.7795H14.0973V11.7141L16.7305 11.709V12.6952H12.9761V7.97047ZM1.23435 12.7004H0.0102862L2.02124 7.97047H3.6979L5.60599 12.4422V7.97047H7.44722L8.91301 11.1771L10.2656 7.97047H12.1377V12.7004H10.9857V8.99804L9.35532 12.7004H8.36784L6.73233 8.99287V12.7004H4.4385L4.00648 11.6418H1.66637L1.23435 12.7004Z" fill="#306FC8"/>
<path d="M29.5215 8.77637L28.7551 10.6559H30.2878L29.5215 8.77637Z" fill="#306FC8"/>
<path d="M37.5088 17.193C37.3905 17.2704 37.3391 17.384 37.3391 17.5338C37.3391 17.7093 37.442 17.8333 37.586 17.8849C37.6991 17.9262 37.8277 17.9365 38.018 17.9365L38.6197 17.952C39.2421 17.9675 39.6535 18.0708 39.9055 18.3341C39.9415 18.3703 39.9724 18.4064 39.9981 18.4426V17.1104H37.9563C37.7557 17.1104 37.6168 17.1207 37.5088 17.193Z" fill="#306FC8"/>
<path d="M38.4809 20.8222H36.3105V19.8101H38.4706C38.6815 19.8101 38.8306 19.7791 38.9232 19.6965C39.0004 19.6242 39.0569 19.5209 39.0569 19.3867C39.0569 19.2473 39.0004 19.1388 38.9181 19.0717C38.8358 18.9994 38.7175 18.9684 38.5272 18.9684C37.478 18.9374 36.1562 19.0046 36.1562 17.5019C36.1562 16.8255 36.5831 16.0974 37.766 16.0974H40.0033V15.168H37.9203C37.298 15.168 36.83 15.3126 36.5111 15.5449V15.168H33.4407C32.9521 15.168 32.3657 15.2867 32.0932 15.5449V15.168H26.5952V15.5449C26.158 15.2351 25.4225 15.168 25.0728 15.168H21.4469V15.5449C21.1023 15.2093 20.3412 15.168 19.8731 15.168H15.8101L14.8792 16.18L14.0151 15.168H7.95654V21.7568H13.9071L14.8586 20.7292L15.7638 21.7516L19.4257 21.7568V20.2025H19.7908C20.2743 20.2025 20.8503 20.1922 21.3492 19.9753V21.7568H24.3836V20.0321H24.5328C24.7179 20.0321 24.7334 20.0476 24.7334 20.2232V21.7568H33.9138C34.4898 21.7568 35.1122 21.607 35.4516 21.3385V21.7568H38.3626C38.9644 21.7568 39.561 21.669 40.0135 21.4521V20.2283C39.7204 20.6311 39.2061 20.8222 38.4809 20.8222ZM19.832 19.2421H18.4331V20.8222H16.2421L14.8637 19.2679L13.4237 20.8273H8.96459V16.0974H13.4905L14.8689 17.6517L16.3038 16.0974H19.904C20.7886 16.0974 21.7915 16.3556 21.7915 17.662C21.7864 18.9684 20.8143 19.2421 19.832 19.2421ZM26.6003 19.0304C26.7598 19.2576 26.7855 19.4745 26.7906 19.8875V20.8222H25.6591V20.2232C25.6591 19.9443 25.6848 19.5313 25.474 19.3092C25.3094 19.1388 25.0677 19.1027 24.6562 19.1027H23.4476V20.8222H22.3212V16.0923H24.9134C25.4843 16.0923 25.9009 16.1129 26.266 16.3246C26.626 16.5363 26.8472 16.8462 26.8472 17.3728C26.8472 18.1216 26.3432 18.5088 26.05 18.6276C26.2969 18.7206 26.5077 18.891 26.6003 19.0304ZM31.224 17.0837H28.5958V17.9357H31.1674V18.9116H28.5958V19.8462H31.2291V20.8273H27.4746V16.0974H31.2291V17.0837H31.224ZM34.0835 20.8222H31.8926V19.8101H34.0733C34.2841 19.8101 34.4333 19.7791 34.5258 19.6965C34.603 19.6242 34.6596 19.5209 34.6596 19.3867C34.6596 19.2473 34.603 19.1388 34.5207 19.0717C34.4384 18.9994 34.3201 18.9684 34.1298 18.9684C33.0806 18.9374 31.7589 19.0046 31.7589 17.5019C31.7589 16.8203 32.1857 16.0974 33.3686 16.0974H35.6213V17.1095H33.5589C33.3532 17.1095 33.2195 17.1147 33.1063 17.187C32.9881 17.2644 32.9418 17.378 32.9418 17.5278C32.9418 17.7033 33.0446 17.8272 33.1886 17.8789C33.3069 17.9202 33.4304 17.9305 33.6207 17.9305L34.2224 17.946C34.8447 17.9615 35.2562 18.0648 35.5082 18.3281C35.7293 18.5656 35.8476 18.8393 35.8476 19.3299C35.8528 20.3419 35.2253 20.8222 34.0835 20.8222Z" fill="#306FC8"/>
<path d="M25.3708 17.1614C25.2371 17.0891 25.0313 17.084 24.8359 17.084H23.4473V18.1374H24.8205C25.0365 18.1374 25.2216 18.1322 25.3708 18.0444C25.5148 17.9618 25.6022 17.7966 25.6022 17.5952C25.5971 17.3886 25.5097 17.2441 25.3708 17.1614Z" fill="#306FC8"/>
</g>
</svg>
