<svg width="40" height="27" viewBox="0 0 40 27" fill="none" xmlns="http://www.w3.org/2000/svg">
<rect y="0.949219" width="40" height="26" rx="2.51813" fill="#F4F5FF"/>
<mask id="mask0_1261_10544" style="mask-type:alpha" maskUnits="userSpaceOnUse" x="0" y="0" width="40" height="27">
<rect y="0.949219" width="40" height="26" rx="2.51813" fill="#F4F5FF"/>
</mask>
<g mask="url(#mask0_1261_10544)">
<path d="M17.3116 19.99V16.2051L15.5887 18.0692L17.3116 19.99Z" fill="#306FC8"/>
<path d="M10.091 16.6797V17.5317L12.5546 17.5265V18.5025H10.091V19.4371H12.8529L14.1386 18.0532L12.9043 16.6797H10.091Z" fill="#306FC8"/>
<path d="M20.5571 9.50801C20.7011 9.42539 20.7886 9.26015 20.7886 9.05877C20.7886 8.85739 20.696 8.71281 20.5571 8.63535C20.4234 8.5579 20.2228 8.55273 20.0222 8.55273H18.6336V9.60612H20.0068C20.2228 9.60612 20.4028 9.59579 20.5571 9.50801Z" fill="#306FC8"/>
<path d="M2.06757 10.2507H3.60536L2.83389 8.37109L2.06757 10.2507Z" fill="#306FC8"/>
<path d="M19.9037 16.6797H18.4379V17.8673H19.8934C20.3202 17.8673 20.5877 17.6608 20.5877 17.2529C20.5825 16.8449 20.3048 16.6797 19.9037 16.6797Z" fill="#306FC8"/>
<path d="M2.35554 12.167H3.32245L3.75961 13.2255H7.5398V12.42L7.87924 13.2255H9.83363L10.1731 12.4097V13.2255H19.5644V11.5009H19.7495C19.8833 11.5009 19.9193 11.5164 19.9193 11.7281V13.2255H24.7744V12.8176C25.1601 13.0293 25.767 13.2255 26.5796 13.2255H28.6214L29.0637 12.167H30.0306L30.4678 13.2255H34.392V12.2238L34.9937 13.2255H38.1464V6.63672H35.0297V7.41127L34.5823 6.63672H31.3781V7.41127L30.9872 6.63672H26.6567C25.9264 6.63672 25.2835 6.73483 24.7744 7.01367V6.63672H21.7914V7.01367C21.4416 6.72966 21.0045 6.63672 20.5107 6.63672H9.5919L8.85129 8.33556L8.11068 6.63672H4.67509V7.41127L4.28421 6.63672H1.35264L0 9.76073V13.2255H1.91838L2.35554 12.167ZM24.9852 8.11869C25.3452 7.74174 25.9213 7.56618 26.6979 7.56618H27.7728V8.57825H26.7185C26.3019 8.57825 26.0704 8.64021 25.8493 8.86225C25.6538 9.05847 25.5201 9.43542 25.5201 9.93113C25.5201 10.4372 25.6178 10.7935 25.839 11.0413C26.0036 11.2272 26.3173 11.284 26.6207 11.284H27.1248L28.7088 7.56618H30.3855L32.2936 12.0379V7.56618H34.0114L35.9863 10.8554V7.56618H37.1435V12.2961H35.5389L33.4148 8.75381V12.2961H31.1261L30.6941 11.2375H28.354L27.9219 12.2961H26.6156C26.0653 12.2961 25.371 12.167 24.9801 11.7694C24.5841 11.3666 24.3835 10.8244 24.3835 9.96727C24.3835 9.26502 24.5069 8.62472 24.9852 8.11869ZM22.6811 7.56618H23.8332V12.2961H22.6811V7.56618ZM17.5123 7.56618H20.1044C20.6753 7.56618 21.097 7.58683 21.4571 7.79338C21.8171 8.00509 22.0382 8.3149 22.0382 8.8416C22.0382 9.59033 21.5342 9.9776 21.2359 10.0964C21.4828 10.1893 21.6936 10.3597 21.7914 10.4991C21.9508 10.7263 21.9765 10.9432 21.9765 11.3563V12.2961H20.845V11.6971C20.845 11.4183 20.8707 11.0052 20.6599 10.7831C20.5004 10.6127 20.2536 10.5766 19.8421 10.5766H18.6335V12.2961H17.5071V7.56618H17.5123ZM12.9761 7.56618H16.7305V8.55243H14.0973V9.40443H16.6637V10.3752H14.0973V11.3098L16.7305 11.3047V12.2909H12.9761V7.56618ZM1.23435 12.2961H0.0102862L2.02124 7.56618H3.6979L5.60599 12.0379V7.56618H7.44722L8.91301 10.7728L10.2656 7.56618H12.1377V12.2961H10.9857V8.59374L9.35532 12.2961H8.36784L6.73233 8.58858V12.2961H4.4385L4.00648 11.2375H1.66637L1.23435 12.2961Z" fill="#306FC8"/>
<path d="M29.5214 8.37109L28.7551 10.2507H30.2877L29.5214 8.37109Z" fill="#306FC8"/>
<path d="M37.5088 16.7877C37.3905 16.8652 37.3391 16.9788 37.3391 17.1285C37.3391 17.3041 37.4419 17.428 37.5859 17.4796C37.6991 17.5209 37.8276 17.5313 38.0179 17.5313L38.6197 17.5468C39.242 17.5622 39.6535 17.6655 39.9055 17.9289C39.9415 17.965 39.9723 18.0012 39.998 18.0373V16.7051H37.9562C37.7556 16.7051 37.6168 16.7154 37.5088 16.7877Z" fill="#306FC8"/>
<path d="M38.481 20.4179H36.3106V19.4058H38.4707C38.6816 19.4058 38.8308 19.3748 38.9233 19.2922C39.0005 19.2199 39.0571 19.1166 39.0571 18.9824C39.0571 18.843 39.0005 18.7345 38.9182 18.6674C38.8359 18.5951 38.7176 18.5641 38.5273 18.5641C37.4781 18.5331 36.1563 18.6003 36.1563 17.0976C36.1563 16.4212 36.5832 15.6931 37.7661 15.6931H40.0034V14.7637H37.9204C37.2981 14.7637 36.8301 14.9083 36.5112 15.1406V14.7637H33.4408C32.9522 14.7637 32.3659 14.8824 32.0933 15.1406V14.7637H26.5953V15.1406C26.1581 14.8308 25.4227 14.7637 25.0729 14.7637H21.447V15.1406C21.1025 14.805 20.3413 14.7637 19.8733 14.7637H15.8102L14.8793 15.7757L14.0152 14.7637H7.95667V21.3525H13.9072L14.8587 20.3249L15.7639 21.3473L19.4258 21.3525V19.7982H19.791C20.2744 19.7982 20.8504 19.7879 21.3493 19.571V21.3525H24.3838V19.6278H24.5329C24.7181 19.6278 24.7335 19.6433 24.7335 19.8189V21.3525H33.9139C34.49 21.3525 35.1123 21.2027 35.4517 20.9342V21.3525H38.3627C38.9645 21.3525 39.5611 21.2647 40.0137 21.0478V19.824C39.7205 20.2268 39.2062 20.4179 38.481 20.4179ZM19.8321 18.8378H18.4332V20.4179H16.2422L14.8639 18.8636L13.4238 20.423H8.96471V15.6931H13.4907L14.869 17.2474L16.3039 15.6931H19.9041C20.7887 15.6931 21.7916 15.9513 21.7916 17.2577C21.7865 18.5641 20.8144 18.8378 19.8321 18.8378ZM26.6004 18.6261C26.7599 18.8533 26.7856 19.0702 26.7907 19.4832V20.4179H25.6592V19.8189C25.6592 19.54 25.685 19.127 25.4741 18.9049C25.3095 18.7345 25.0678 18.6984 24.6563 18.6984H23.4477V20.4179H22.3214V15.688H24.9135C25.4844 15.688 25.901 15.7086 26.2661 15.9203C26.6262 16.132 26.8473 16.4419 26.8473 16.9686C26.8473 17.7173 26.3433 18.1046 26.0501 18.2233C26.297 18.3163 26.5079 18.4867 26.6004 18.6261ZM31.2241 16.6794H28.596V17.5314H31.1675V18.5073H28.596V19.4419H31.2292V20.423H27.4748V15.6931H31.2292V16.6794H31.2241ZM34.0837 20.4179H31.8927V19.4058H34.0734C34.2842 19.4058 34.4334 19.3748 34.526 19.2922C34.6031 19.2199 34.6597 19.1166 34.6597 18.9824C34.6597 18.843 34.6031 18.7345 34.5208 18.6674C34.4385 18.5951 34.3202 18.5641 34.1299 18.5641C33.0808 18.5331 31.759 18.6003 31.759 17.0976C31.759 16.416 32.1859 15.6931 33.3688 15.6931H35.6215V16.7052H33.5591C33.3533 16.7052 33.2196 16.7104 33.1065 16.7827C32.9882 16.8601 32.9419 16.9737 32.9419 17.1235C32.9419 17.299 33.0448 17.423 33.1888 17.4746C33.3071 17.5159 33.4305 17.5262 33.6208 17.5262L34.2225 17.5417C34.8448 17.5572 35.2563 17.6605 35.5083 17.9238C35.7295 18.1614 35.8477 18.435 35.8477 18.9256C35.8529 19.9376 35.2254 20.4179 34.0837 20.4179Z" fill="#306FC8"/>
<path d="M25.3708 16.7571C25.2371 16.6849 25.0313 16.6797 24.8359 16.6797H23.4473V17.7331H24.8205C25.0365 17.7331 25.2216 17.7279 25.3708 17.6401C25.5148 17.5575 25.6022 17.3923 25.6022 17.1909C25.5971 16.9843 25.5097 16.8398 25.3708 16.7571Z" fill="#306FC8"/>
</g>
</svg>
