<svg width="40" height="27" viewBox="0 0 40 27" fill="none" xmlns="http://www.w3.org/2000/svg">
<rect y="0.925781" width="40" height="26" rx="2.51813" fill="#F4F5FF"/>
<mask id="mask0_1261_9615" style="mask-type:alpha" maskUnits="userSpaceOnUse" x="0" y="0" width="40" height="27">
<rect y="0.925781" width="40" height="26" rx="2.51813" fill="#F4F5FF"/>
</mask>
<g mask="url(#mask0_1261_9615)">
<path d="M17.3116 19.9666V16.1816L15.5886 18.0457L17.3116 19.9666Z" fill="#306FC8"/>
<path d="M10.0911 16.6562V17.5083L12.5546 17.5031V18.479H10.0911V19.4136H12.8529L14.1387 18.0298L12.9043 16.6562H10.0911Z" fill="#306FC8"/>
<path d="M20.5571 9.48457C20.7011 9.40195 20.7885 9.23672 20.7885 9.03533C20.7885 8.83395 20.6959 8.68937 20.5571 8.61192C20.4233 8.53446 20.2228 8.5293 20.0222 8.5293H18.6335V9.58268H20.0068C20.2228 9.58268 20.4028 9.57235 20.5571 9.48457Z" fill="#306FC8"/>
<path d="M2.06763 10.2272H3.60542L2.83395 8.34766L2.06763 10.2272Z" fill="#306FC8"/>
<path d="M19.9037 16.6562H18.4379V17.8439H19.8934C20.3202 17.8439 20.5877 17.6373 20.5877 17.2294C20.5825 16.8215 20.3048 16.6562 19.9037 16.6562Z" fill="#306FC8"/>
<path d="M2.35554 12.1435H3.32245L3.75961 13.2021H7.5398V12.3966L7.87924 13.2021H9.83363L10.1731 12.3862V13.2021H19.5644V11.4774H19.7495C19.8833 11.4774 19.9193 11.4929 19.9193 11.7046V13.2021H24.7744V12.7942C25.1601 13.0059 25.767 13.2021 26.5796 13.2021H28.6214L29.0637 12.1435H30.0306L30.4678 13.2021H34.392V12.2003L34.9937 13.2021H38.1464V6.61328H35.0297V7.38783L34.5823 6.61328H31.3781V7.38783L30.9872 6.61328H26.6567C25.9264 6.61328 25.2835 6.71139 24.7744 6.99023V6.61328H21.7914V6.99023C21.4416 6.70623 21.0045 6.61328 20.5107 6.61328H9.5919L8.85129 8.31212L8.11068 6.61328H4.67509V7.38783L4.28421 6.61328H1.35264L0 9.73729V13.2021H1.91838L2.35554 12.1435ZM24.9852 8.09525C25.3452 7.7183 25.9213 7.54274 26.6979 7.54274H27.7728V8.55481H26.7185C26.3019 8.55481 26.0704 8.61678 25.8493 8.83881C25.6538 9.03503 25.5201 9.41198 25.5201 9.90769C25.5201 10.4137 25.6178 10.77 25.839 11.0179C26.0036 11.2038 26.3173 11.2606 26.6207 11.2606H27.1248L28.7088 7.54274H30.3855L32.2936 12.0145V7.54274H34.0114L35.9863 10.832V7.54274H37.1435V12.2726H35.5389L33.4148 8.73038V12.2726H31.1261L30.6941 11.2141H28.354L27.9219 12.2726H26.6156C26.0653 12.2726 25.371 12.1435 24.9801 11.7459C24.5841 11.3432 24.3835 10.801 24.3835 9.94383C24.3835 9.24158 24.5069 8.60129 24.9852 8.09525ZM22.6811 7.54274H23.8332V12.2726H22.6811V7.54274ZM17.5123 7.54274H20.1044C20.6753 7.54274 21.097 7.56339 21.4571 7.76994C21.8171 7.98165 22.0382 8.29147 22.0382 8.81816C22.0382 9.56689 21.5342 9.95416 21.2359 10.0729C21.4828 10.1659 21.6936 10.3363 21.7914 10.4757C21.9508 10.7029 21.9765 10.9198 21.9765 11.3329V12.2726H20.845V11.6737C20.845 11.3948 20.8707 10.9817 20.6599 10.7597C20.5004 10.5893 20.2536 10.5531 19.8421 10.5531H18.6335V12.2726H17.5071V7.54274H17.5123ZM12.9761 7.54274H16.7305V8.52899H14.0973V9.381H16.6637V10.3518H14.0973V11.2864L16.7305 11.2812V12.2675H12.9761V7.54274ZM1.23435 12.2726H0.0102862L2.02124 7.54274H3.6979L5.60599 12.0145V7.54274H7.44722L8.91301 10.7494L10.2656 7.54274H12.1377V12.2726H10.9857V8.5703L9.35532 12.2726H8.36784L6.73233 8.56514V12.2726H4.4385L4.00648 11.2141H1.66637L1.23435 12.2726Z" fill="#306FC8"/>
<path d="M29.5215 8.34766L28.7551 10.2272H30.2878L29.5215 8.34766Z" fill="#306FC8"/>
<path d="M37.5088 16.7643C37.3905 16.8417 37.3391 16.9553 37.3391 17.1051C37.3391 17.2806 37.442 17.4046 37.586 17.4562C37.6991 17.4975 37.8277 17.5078 38.018 17.5078L38.6197 17.5233C39.2421 17.5388 39.6535 17.6421 39.9055 17.9054C39.9415 17.9416 39.9724 17.9777 39.9981 18.0139V16.6816H37.9563C37.7557 16.6816 37.6168 16.692 37.5088 16.7643Z" fill="#306FC8"/>
<path d="M38.481 20.3944H36.3106V19.3824H38.4707C38.6816 19.3824 38.8308 19.3514 38.9233 19.2688C39.0005 19.1965 39.0571 19.0932 39.0571 18.9589C39.0571 18.8195 39.0005 18.7111 38.9182 18.644C38.8359 18.5717 38.7176 18.5407 38.5273 18.5407C37.4781 18.5097 36.1563 18.5768 36.1563 17.0742C36.1563 16.3978 36.5832 15.6697 37.7661 15.6697H40.0034V14.7402H37.9204C37.2981 14.7402 36.8301 14.8848 36.5112 15.1172V14.7402H33.4408C32.9522 14.7402 32.3659 14.859 32.0933 15.1172V14.7402H26.5953V15.1172C26.1581 14.8074 25.4227 14.7402 25.0729 14.7402H21.447V15.1172C21.1025 14.7815 20.3413 14.7402 19.8733 14.7402H15.8102L14.8793 15.7523L14.0152 14.7402H7.95667V21.329H13.9072L14.8587 20.3015L15.7639 21.3239L19.4258 21.329V19.7748H19.791C20.2744 19.7748 20.8504 19.7645 21.3493 19.5476V21.329H24.3838V19.6044H24.5329C24.7181 19.6044 24.7335 19.6199 24.7335 19.7954V21.329H33.9139C34.49 21.329 35.1123 21.1793 35.4517 20.9108V21.329H38.3627C38.9645 21.329 39.5611 21.2413 40.0137 21.0244V19.8006C39.7205 20.2034 39.2062 20.3944 38.481 20.3944ZM19.8321 18.8144H18.4332V20.3944H16.2422L14.8639 18.8402L13.4238 20.3996H8.96471V15.6697H13.4907L14.869 17.2239L16.3039 15.6697H19.9041C20.7887 15.6697 21.7916 15.9279 21.7916 17.2343C21.7865 18.5407 20.8144 18.8144 19.8321 18.8144ZM26.6004 18.6026C26.7599 18.8298 26.7856 19.0467 26.7907 19.4598V20.3944H25.6592V19.7954C25.6592 19.5166 25.685 19.1035 25.4741 18.8815C25.3095 18.7111 25.0678 18.6749 24.6563 18.6749H23.4477V20.3944H22.3214V15.6645H24.9135C25.4844 15.6645 25.901 15.6852 26.2661 15.8969C26.6262 16.1086 26.8473 16.4184 26.8473 16.9451C26.8473 17.6938 26.3433 18.0811 26.0501 18.1999C26.297 18.2928 26.5079 18.4632 26.6004 18.6026ZM31.2241 16.6559H28.596V17.508H31.1675V18.4839H28.596V19.4185H31.2292V20.3996H27.4748V15.6697H31.2292V16.6559H31.2241ZM34.0837 20.3944H31.8927V19.3824H34.0734C34.2842 19.3824 34.4334 19.3514 34.526 19.2688C34.6031 19.1965 34.6597 19.0932 34.6597 18.9589C34.6597 18.8195 34.6031 18.7111 34.5208 18.644C34.4385 18.5717 34.3202 18.5407 34.1299 18.5407C33.0808 18.5097 31.759 18.5768 31.759 17.0742C31.759 16.3926 32.1859 15.6697 33.3688 15.6697H35.6215V16.6818H33.5591C33.3533 16.6818 33.2196 16.6869 33.1065 16.7592C32.9882 16.8367 32.9419 16.9503 32.9419 17.1C32.9419 17.2756 33.0448 17.3995 33.1888 17.4511C33.3071 17.4925 33.4305 17.5028 33.6208 17.5028L34.2225 17.5183C34.8448 17.5338 35.2563 17.637 35.5083 17.9004C35.7295 18.1379 35.8477 18.4116 35.8477 18.9021C35.8529 19.9142 35.2254 20.3944 34.0837 20.3944Z" fill="#306FC8"/>
<path d="M25.3708 16.7337C25.2371 16.6614 25.0313 16.6562 24.8359 16.6562H23.4473V17.7096H24.8205C25.0365 17.7096 25.2216 17.7045 25.3708 17.6167C25.5148 17.5341 25.6022 17.3688 25.6022 17.1675C25.5971 16.9609 25.5097 16.8163 25.3708 16.7337Z" fill="#306FC8"/>
</g>
</svg>
