<svg width="40" height="27" viewBox="0 0 40 27" fill="none" xmlns="http://www.w3.org/2000/svg">
<rect y="0.925781" width="40" height="26" rx="2.51813" fill="#F4F5FF"/>
<path d="M6.17756 11.4648H4.80017V16.3505H6.17026C6.89879 16.3505 7.42487 16.176 7.88663 15.7865C8.43537 15.3253 8.75992 14.6301 8.75992 13.911C8.76007 12.4694 7.69931 11.4648 6.17756 11.4648ZM7.27373 15.1351C6.97885 15.4055 6.59599 15.5234 5.9897 15.5234H5.73792V12.2927H5.9897C6.59599 12.2927 6.96387 12.4028 7.27373 12.6878C7.59828 12.9812 7.79343 13.436 7.79343 13.9039C7.79343 14.3731 7.59828 14.8417 7.27373 15.1351Z" fill="#173C6A"/>
<path d="M10.1304 11.4648H9.19202V16.3505H10.1304V11.4648Z" fill="#173C6A"/>
<path d="M12.4246 13.3404C11.8616 13.1288 11.6963 12.9892 11.6963 12.7253C11.6963 12.4175 11.9908 12.1838 12.3952 12.1838C12.6764 12.1838 12.9074 12.301 13.1519 12.5794L13.6428 11.9265C13.2394 11.568 12.7566 11.3848 12.2293 11.3848C11.3781 11.3848 10.7289 11.9851 10.7289 12.7847C10.7289 13.4578 11.0311 13.8024 11.9124 14.1244C12.2798 14.256 12.4667 14.3436 12.5611 14.4026C12.7486 14.5269 12.8425 14.7031 12.8425 14.9081C12.8425 15.304 12.5326 15.5973 12.1139 15.5973C11.6664 15.5973 11.3059 15.3699 11.0899 14.9457L10.4838 15.5386C10.9161 16.1831 11.4353 16.4687 12.1493 16.4687C13.1244 16.4687 13.8084 15.8103 13.8084 14.8645C13.8083 14.0882 13.4921 13.7368 12.4246 13.3404Z" fill="#173C6A"/>
<path d="M14.1041 13.9123C14.1041 15.3484 15.2145 16.4619 16.6433 16.4619C17.0473 16.4619 17.3932 16.3812 17.8198 16.1772V15.0554C17.4446 15.4368 17.1124 15.5905 16.687 15.5905C15.742 15.5905 15.0713 14.8946 15.0713 13.9052C15.0713 12.9673 15.7633 12.2272 16.6435 12.2272C17.091 12.2272 17.4298 12.3894 17.8199 12.7769V11.6556C17.408 11.4433 17.0694 11.3555 16.6656 11.3555C15.2437 11.3557 14.1041 12.4919 14.1041 13.9123Z" fill="#173C6A"/>
<path d="M25.2598 14.7465L23.9769 11.4648H22.9518L24.9934 16.4759H25.4983L27.5764 11.4648H26.5592L25.2598 14.7465Z" fill="#173C6A"/>
<path d="M28.0006 16.3505H30.6617V15.5235H28.9382V14.2048H30.5982V13.3771H28.9382V12.2927H30.6617V11.4648H28.0006V16.3505Z" fill="#173C6A"/>
<path d="M34.3771 12.9072C34.3771 11.9925 33.7567 11.4648 32.6746 11.4648H31.2833V16.3505H32.2205V14.3879H32.3429L33.6416 16.3506H34.7956L33.2813 14.2922C33.9879 14.1463 34.3771 13.6553 34.3771 12.9072ZM32.4947 13.7142H32.2206V12.2344H32.5095C33.0939 12.2344 33.4116 12.4831 33.4116 12.9586C33.4116 13.4498 33.094 13.7142 32.4947 13.7142Z" fill="#173C6A"/>
<path d="M20.6854 16.5243C22.0988 16.5243 23.2445 15.3607 23.2445 13.9252C23.2445 12.4898 22.0988 11.3262 20.6854 11.3262C19.2721 11.3262 18.1263 12.4898 18.1263 13.9252C18.1263 15.3607 19.2721 16.5243 20.6854 16.5243Z" fill="url(#paint0_linear_1261_9633)"/>
<path opacity="0.65" d="M20.6854 16.5243C22.0988 16.5243 23.2445 15.3607 23.2445 13.9252C23.2445 12.4898 22.0988 11.3262 20.6854 11.3262C19.2721 11.3262 18.1263 12.4898 18.1263 13.9252C18.1263 15.3607 19.2721 16.5243 20.6854 16.5243Z" fill="url(#paint1_linear_1261_9633)"/>
<path d="M34.9762 11.6481C34.9762 11.5624 34.9181 11.5156 34.8161 11.5156H34.6803V11.945H34.7812V11.7784L34.8995 11.945H35.0227L34.8836 11.768C34.9434 11.7518 34.9762 11.7077 34.9762 11.6481ZM34.7983 11.7068H34.7813V11.5945H34.7994C34.8493 11.5945 34.8753 11.6128 34.8753 11.6498C34.8753 11.6876 34.8489 11.7068 34.7983 11.7068Z" fill="#173C6A"/>
<path d="M34.8364 11.3555C34.6311 11.3555 34.4681 11.5218 34.4681 11.7298C34.4681 11.9377 34.6329 12.1043 34.8364 12.1043C35.0364 12.1043 35.2003 11.9358 35.2003 11.7298C35.2003 11.5246 35.0363 11.3555 34.8364 11.3555ZM34.8348 12.0373C34.6732 12.0373 34.5411 11.9008 34.5411 11.7303C34.5411 11.5594 34.6715 11.4229 34.8348 11.4229C34.9956 11.4229 35.1267 11.5625 35.1267 11.7303C35.1267 11.8993 34.9958 12.0373 34.8348 12.0373Z" fill="#173C6A"/>
<defs>
<linearGradient id="paint0_linear_1261_9633" x1="21.9953" y1="16.0082" x2="20.1841" y2="13.2161" gradientUnits="userSpaceOnUse">
<stop stop-color="#F89F21"/>
<stop offset="0.2502" stop-color="#F79A23"/>
<stop offset="0.5331" stop-color="#F78E22"/>
<stop offset="0.6196" stop-color="#F68721"/>
<stop offset="0.7232" stop-color="#F48220"/>
<stop offset="1" stop-color="#F27623"/>
</linearGradient>
<linearGradient id="paint1_linear_1261_9633" x1="21.7154" y1="15.9699" x2="19.0615" y2="10.8625" gradientUnits="userSpaceOnUse">
<stop stop-color="#F68721" stop-opacity="0"/>
<stop offset="0.3587" stop-color="#E27027" stop-opacity="0.2704"/>
<stop offset="0.703" stop-color="#D4612C" stop-opacity="0.5299"/>
<stop offset="0.9816" stop-color="#D15D2D" stop-opacity="0.74"/>
</linearGradient>
</defs>
</svg>
