<svg width="41" height="27" viewBox="0 0 41 27" fill="none" xmlns="http://www.w3.org/2000/svg">
<rect x="0.5" y="1.35352" width="40" height="26" rx="2.51813" fill="#F4F5FF"/>
<path d="M6.67768 11.8945H5.30029V16.7802H6.67038C7.39891 16.7802 7.92499 16.6057 8.38675 16.2162C8.9355 15.755 9.26004 15.0598 9.26004 14.3407C9.26019 12.8991 8.19943 11.8945 6.67768 11.8945ZM7.77386 15.5648C7.47897 15.8351 7.09611 15.9531 6.48982 15.9531H6.23804V12.7224H6.48982C7.09611 12.7224 7.46399 12.8325 7.77386 13.1175C8.0984 13.4109 8.29356 13.8657 8.29356 14.3336C8.29356 14.8028 8.0984 15.2714 7.77386 15.5648Z" fill="#173C6A"/>
<path d="M10.6303 11.8945H9.69189V16.7802H10.6303V11.8945Z" fill="#173C6A"/>
<path d="M12.9248 13.7691C12.3617 13.5575 12.1964 13.4179 12.1964 13.154C12.1964 12.8462 12.491 12.6125 12.8953 12.6125C13.1765 12.6125 13.4075 12.7297 13.652 13.0081L14.143 12.3552C13.7395 11.9967 13.2568 11.8135 12.7294 11.8135C11.8782 11.8135 11.229 12.4138 11.229 13.2134C11.229 13.8865 11.5312 14.2311 12.4125 14.5532C12.7799 14.6847 12.9669 14.7724 13.0612 14.8313C13.2487 14.9557 13.3426 15.1318 13.3426 15.3368C13.3426 15.7327 13.0327 16.026 12.6141 16.026C12.1665 16.026 11.806 15.7987 11.59 15.3744L10.9839 15.9673C11.4162 16.6118 11.9354 16.8974 12.6494 16.8974C13.6245 16.8974 14.3085 16.239 14.3085 15.2932C14.3084 14.517 13.9922 14.1655 12.9248 13.7691Z" fill="#173C6A"/>
<path d="M14.604 14.3401C14.604 15.7761 15.7144 16.8896 17.1432 16.8896C17.5472 16.8896 17.8931 16.809 18.3197 16.605V15.4832C17.9445 15.8645 17.6122 16.0182 17.1869 16.0182C16.2419 16.0182 15.5712 15.3223 15.5712 14.333C15.5712 13.395 16.2631 12.6549 17.1433 12.6549C17.5909 12.6549 17.9296 12.8171 18.3198 13.2047V12.0833C17.9079 11.8711 17.5693 11.7832 17.1655 11.7832C15.7436 11.7834 14.604 12.9196 14.604 14.3401Z" fill="#173C6A"/>
<path d="M25.7596 15.1762L24.4768 11.8945H23.4517L25.4933 16.9056H25.9981L28.0763 11.8945H27.0591L25.7596 15.1762Z" fill="#173C6A"/>
<path d="M28.5005 16.7802H31.1616V15.9532H29.4381V14.6344H31.0981V13.8068H29.4381V12.7224H31.1616V11.8945H28.5005V16.7802Z" fill="#173C6A"/>
<path d="M34.8772 13.3369C34.8772 12.4222 34.2569 11.8945 33.1747 11.8945H31.7834V16.7802H32.7207V14.8176H32.8431L34.1418 16.7803H35.2957L33.7814 14.7219C34.488 14.576 34.8772 14.085 34.8772 13.3369ZM32.9948 14.1438H32.7207V12.6641H33.0096C33.594 12.6641 33.9117 12.9128 33.9117 13.3883C33.9117 13.8795 33.5941 14.1438 32.9948 14.1438Z" fill="#173C6A"/>
<path d="M21.1855 16.953C22.5989 16.953 23.7446 15.7894 23.7446 14.3539C23.7446 12.9185 22.5989 11.7549 21.1855 11.7549C19.7722 11.7549 18.6265 12.9185 18.6265 14.3539C18.6265 15.7894 19.7722 16.953 21.1855 16.953Z" fill="url(#paint0_linear_1261_8670)"/>
<path opacity="0.65" d="M21.1855 16.953C22.5989 16.953 23.7446 15.7894 23.7446 14.3539C23.7446 12.9185 22.5989 11.7549 21.1855 11.7549C19.7722 11.7549 18.6265 12.9185 18.6265 14.3539C18.6265 15.7894 19.7722 16.953 21.1855 16.953Z" fill="url(#paint1_linear_1261_8670)"/>
<path d="M35.4763 12.0778C35.4763 11.9921 35.4182 11.9453 35.3162 11.9453H35.1804V12.3747H35.2813V12.2081L35.3996 12.3747H35.5228L35.3837 12.1977C35.4435 12.1814 35.4763 12.1374 35.4763 12.0778ZM35.2984 12.1365H35.2814V12.0242H35.2995C35.3494 12.0242 35.3754 12.0425 35.3754 12.0795C35.3754 12.1173 35.3491 12.1365 35.2984 12.1365Z" fill="#173C6A"/>
<path d="M35.3365 11.7852C35.1312 11.7852 34.9683 11.9515 34.9683 12.1595C34.9683 12.3674 35.1331 12.534 35.3365 12.534C35.5365 12.534 35.7004 12.3655 35.7004 12.1595C35.7004 11.9543 35.5364 11.7852 35.3365 11.7852ZM35.3349 12.467C35.1733 12.467 35.0412 12.3305 35.0412 12.16C35.0412 11.9891 35.1716 11.8526 35.3349 11.8526C35.4957 11.8526 35.6268 11.9922 35.6268 12.16C35.6268 12.329 35.4959 12.467 35.3349 12.467Z" fill="#173C6A"/>
<defs>
<linearGradient id="paint0_linear_1261_8670" x1="22.4954" y1="16.4369" x2="20.6843" y2="13.6448" gradientUnits="userSpaceOnUse">
<stop stop-color="#F89F21"/>
<stop offset="0.2502" stop-color="#F79A23"/>
<stop offset="0.5331" stop-color="#F78E22"/>
<stop offset="0.6196" stop-color="#F68721"/>
<stop offset="0.7232" stop-color="#F48220"/>
<stop offset="1" stop-color="#F27623"/>
</linearGradient>
<linearGradient id="paint1_linear_1261_8670" x1="22.2155" y1="16.3986" x2="19.5617" y2="11.2912" gradientUnits="userSpaceOnUse">
<stop stop-color="#F68721" stop-opacity="0"/>
<stop offset="0.3587" stop-color="#E27027" stop-opacity="0.2704"/>
<stop offset="0.703" stop-color="#D4612C" stop-opacity="0.5299"/>
<stop offset="0.9816" stop-color="#D15D2D" stop-opacity="0.74"/>
</linearGradient>
</defs>
</svg>
