<svg width="40" height="27" viewBox="0 0 40 27" fill="none" xmlns="http://www.w3.org/2000/svg">
<rect y="1.35352" width="40" height="26" rx="2.51813" fill="#F4F5FF"/>
<path d="M6.17768 11.8945H4.80029V16.7802H6.17038C6.89891 16.7802 7.42499 16.6057 7.88675 16.2162C8.4355 15.755 8.76004 15.0598 8.76004 14.3407C8.76019 12.8991 7.69943 11.8945 6.17768 11.8945ZM7.27386 15.5648C6.97897 15.8351 6.59611 15.9531 5.98982 15.9531H5.73804V12.7224H5.98982C6.59611 12.7224 6.96399 12.8325 7.27386 13.1175C7.5984 13.4109 7.79356 13.8657 7.79356 14.3336C7.79356 14.8028 7.5984 15.2714 7.27386 15.5648Z" fill="#173C6A"/>
<path d="M10.1303 11.8945H9.19189V16.7802H10.1303V11.8945Z" fill="#173C6A"/>
<path d="M12.4248 13.7691C11.8617 13.5575 11.6964 13.4179 11.6964 13.154C11.6964 12.8462 11.991 12.6125 12.3953 12.6125C12.6765 12.6125 12.9075 12.7297 13.152 13.0081L13.643 12.3552C13.2395 11.9967 12.7568 11.8135 12.2294 11.8135C11.3782 11.8135 10.729 12.4138 10.729 13.2134C10.729 13.8865 11.0312 14.2311 11.9125 14.5532C12.2799 14.6847 12.4669 14.7724 12.5612 14.8313C12.7487 14.9557 12.8426 15.1318 12.8426 15.3368C12.8426 15.7327 12.5327 16.026 12.1141 16.026C11.6665 16.026 11.306 15.7987 11.09 15.3744L10.4839 15.9673C10.9162 16.6118 11.4354 16.8974 12.1494 16.8974C13.1245 16.8974 13.8085 16.239 13.8085 15.2932C13.8084 14.517 13.4922 14.1655 12.4248 13.7691Z" fill="#173C6A"/>
<path d="M14.104 14.3401C14.104 15.7761 15.2144 16.8896 16.6432 16.8896C17.0472 16.8896 17.3931 16.809 17.8197 16.605V15.4832C17.4445 15.8645 17.1122 16.0182 16.6869 16.0182C15.7419 16.0182 15.0712 15.3223 15.0712 14.333C15.0712 13.395 15.7631 12.6549 16.6433 12.6549C17.0909 12.6549 17.4296 12.8171 17.8198 13.2047V12.0833C17.4079 11.8711 17.0693 11.7832 16.6655 11.7832C15.2436 11.7834 14.104 12.9196 14.104 14.3401Z" fill="#173C6A"/>
<path d="M25.2596 15.1762L23.9768 11.8945H22.9517L24.9933 16.9056H25.4981L27.5763 11.8945H26.5591L25.2596 15.1762Z" fill="#173C6A"/>
<path d="M28.0005 16.7802H30.6616V15.9532H28.9381V14.6344H30.5981V13.8068H28.9381V12.7224H30.6616V11.8945H28.0005V16.7802Z" fill="#173C6A"/>
<path d="M34.3772 13.3369C34.3772 12.4222 33.7569 11.8945 32.6747 11.8945H31.2834V16.7802H32.2207V14.8176H32.3431L33.6418 16.7803H34.7957L33.2814 14.7219C33.988 14.576 34.3772 14.085 34.3772 13.3369ZM32.4948 14.1438H32.2207V12.6641H32.5096C33.094 12.6641 33.4117 12.9128 33.4117 13.3883C33.4117 13.8795 33.0941 14.1438 32.4948 14.1438Z" fill="#173C6A"/>
<path d="M20.6855 16.953C22.0989 16.953 23.2446 15.7894 23.2446 14.3539C23.2446 12.9185 22.0989 11.7549 20.6855 11.7549C19.2722 11.7549 18.1265 12.9185 18.1265 14.3539C18.1265 15.7894 19.2722 16.953 20.6855 16.953Z" fill="url(#paint0_linear_1261_8670)"/>
<path opacity="0.65" d="M20.6855 16.953C22.0989 16.953 23.2446 15.7894 23.2446 14.3539C23.2446 12.9185 22.0989 11.7549 20.6855 11.7549C19.2722 11.7549 18.1265 12.9185 18.1265 14.3539C18.1265 15.7894 19.2722 16.953 20.6855 16.953Z" fill="url(#paint1_linear_1261_8670)"/>
<path d="M34.9763 12.0778C34.9763 11.9921 34.9182 11.9453 34.8162 11.9453H34.6804V12.3747H34.7813V12.2081L34.8996 12.3747H35.0228L34.8837 12.1977C34.9435 12.1814 34.9763 12.1374 34.9763 12.0778ZM34.7984 12.1365H34.7814V12.0242H34.7995C34.8494 12.0242 34.8754 12.0425 34.8754 12.0795C34.8754 12.1173 34.8491 12.1365 34.7984 12.1365Z" fill="#173C6A"/>
<path d="M34.8365 11.7852C34.6312 11.7852 34.4683 11.9515 34.4683 12.1595C34.4683 12.3674 34.6331 12.534 34.8365 12.534C35.0365 12.534 35.2004 12.3655 35.2004 12.1595C35.2004 11.9543 35.0364 11.7852 34.8365 11.7852ZM34.8349 12.467C34.6733 12.467 34.5412 12.3305 34.5412 12.16C34.5412 11.9891 34.6716 11.8526 34.8349 11.8526C34.9957 11.8526 35.1268 11.9922 35.1268 12.16C35.1268 12.329 34.9959 12.467 34.8349 12.467Z" fill="#173C6A"/>
<defs>
<linearGradient id="paint0_linear_1261_8670" x1="21.9954" y1="16.4369" x2="20.1843" y2="13.6448" gradientUnits="userSpaceOnUse">
<stop stop-color="#F89F21"/>
<stop offset="0.2502" stop-color="#F79A23"/>
<stop offset="0.5331" stop-color="#F78E22"/>
<stop offset="0.6196" stop-color="#F68721"/>
<stop offset="0.7232" stop-color="#F48220"/>
<stop offset="1" stop-color="#F27623"/>
</linearGradient>
<linearGradient id="paint1_linear_1261_8670" x1="21.7155" y1="16.3986" x2="19.0617" y2="11.2912" gradientUnits="userSpaceOnUse">
<stop stop-color="#F68721" stop-opacity="0"/>
<stop offset="0.3587" stop-color="#E27027" stop-opacity="0.2704"/>
<stop offset="0.703" stop-color="#D4612C" stop-opacity="0.5299"/>
<stop offset="0.9816" stop-color="#D15D2D" stop-opacity="0.74"/>
</linearGradient>
</defs>
</svg>
