<svg width="21" height="21" viewBox="0 0 21 21" fill="none" xmlns="http://www.w3.org/2000/svg">
<g clip-path="url(#clip0_1261_7883)">
<path fill-rule="evenodd" clip-rule="evenodd" d="M14.5312 6.80976C13.4987 5.82501 12.1207 5.28854 10.6951 5.31059C8.08621 5.31059 5.87053 7.07063 5.08052 9.44063C4.66163 10.6826 4.66163 12.0275 5.08051 13.2694H5.08418C5.87786 15.6358 8.08988 17.3959 10.6987 17.3959C12.0454 17.3959 13.2016 17.0514 14.0976 16.443V16.4405C15.1522 15.7424 15.8724 14.6437 16.0965 13.4018H10.6951V9.55093H20.1274C20.245 10.2197 20.3001 10.9031 20.3001 11.5829C20.3001 14.6244 19.2131 17.1959 17.3218 18.9376L17.3238 18.9391C15.6666 20.4677 13.3921 21.3532 10.6951 21.3532C6.91406 21.3532 3.4564 19.222 1.75881 15.8452C0.340484 13.0196 0.340488 9.69054 1.75882 6.8649C3.45641 3.48442 6.91405 1.35321 10.6951 1.35321C13.179 1.32382 15.5784 2.25713 17.3862 3.95472L14.5312 6.80976Z" fill="white"/>
</g>
<defs>
<clipPath id="clip0_1261_7883">
<rect width="20" height="20" fill="white" transform="translate(0.494873 0.926758)"/>
</clipPath>
</defs>
</svg>
