<svg width="21" height="22" viewBox="0 0 21 22" fill="none" xmlns="http://www.w3.org/2000/svg">
<g clip-path="url(#clip0_1261_8844)">
<path d="M20.995 11.4258C20.995 5.62679 16.294 0.925781 10.495 0.925781C4.696 0.925781 -0.00500488 5.62679 -0.00500488 11.4258C-0.00500488 16.6666 3.83467 21.0105 8.85437 21.7982V14.4609H6.18835V11.4258H8.85437V9.1125C8.85437 6.48094 10.422 5.02734 12.8204 5.02734C13.9688 5.02734 15.1708 5.23242 15.1708 5.23242V7.81641H13.8468C12.5425 7.81641 12.1356 8.62585 12.1356 9.45703V11.4258H15.0477L14.5822 14.4609H12.1356V21.7982C17.1553 21.0105 20.995 16.6666 20.995 11.4258Z" fill="white"/>
</g>
<defs>
<clipPath id="clip0_1261_8844">
<rect width="21" height="21" fill="white" transform="translate(-0.00500488 0.5)"/>
</clipPath>
</defs>
</svg>
