<svg width="22" height="22" viewBox="0 0 22 22" fill="none" xmlns="http://www.w3.org/2000/svg">
<g clip-path="url(#clip0_1261_7881)">
<path d="M21.4949 11.8535C21.4949 6.05452 16.7939 1.35352 10.9949 1.35352C5.19588 1.35352 0.494873 6.05452 0.494873 11.8535C0.494873 17.0943 4.33455 21.4383 9.35425 22.226V14.8887H6.68823V11.8535H9.35425V9.54024C9.35425 6.90867 10.9219 5.45508 13.3203 5.45508C14.4687 5.45508 15.6707 5.66016 15.6707 5.66016V8.24414H14.3467C13.0424 8.24414 12.6355 9.05358 12.6355 9.88477V11.8535H15.5476L15.0821 14.8887H12.6355V22.226C17.6552 21.4383 21.4949 17.0943 21.4949 11.8535Z" fill="white"/>
</g>
<defs>
<clipPath id="clip0_1261_7881">
<rect width="21" height="21" fill="white" transform="translate(0.494873 0.926758)"/>
</clipPath>
</defs>
</svg>
