<svg width="21" height="21" viewBox="0 0 21 21" fill="none" xmlns="http://www.w3.org/2000/svg">
<g clip-path="url(#clip0_1261_8846)">
<path fill-rule="evenodd" clip-rule="evenodd" d="M14.5313 6.383C13.4988 5.39825 12.1209 4.86178 10.6952 4.88383C8.08634 4.88383 5.87065 6.64387 5.08064 9.01388C4.66175 10.2558 4.66175 11.6007 5.08064 12.8427H5.0843C5.87798 15.209 8.09 16.9691 10.6989 16.9691C12.0455 16.9691 13.2017 16.6246 14.0977 16.0162V16.0138C15.1523 15.3156 15.8725 14.217 16.0966 12.975H10.6952V9.12418H20.1275C20.2451 9.79292 20.3002 10.4764 20.3002 11.1561C20.3002 14.1977 19.2132 16.7692 17.3219 18.5108L17.3239 18.5124C15.6667 20.0409 13.3922 20.9265 10.6952 20.9265C6.91418 20.9265 3.45652 18.7953 1.75893 15.4185C0.340607 12.5928 0.34061 9.26379 1.75894 6.43815C3.45653 3.05766 6.91418 0.926455 10.6952 0.926455C13.1791 0.89706 15.5785 1.83037 17.3863 3.52796L14.5313 6.383Z" fill="white"/>
</g>
<defs>
<clipPath id="clip0_1261_8846">
<rect width="20" height="20" fill="white" transform="translate(0.494995 0.5)"/>
</clipPath>
</defs>
</svg>
