<svg width="20" height="21" viewBox="0 0 20 21" fill="none" xmlns="http://www.w3.org/2000/svg">
<g clip-path="url(#clip0_1261_9775)">
<path fill-rule="evenodd" clip-rule="evenodd" d="M14.0263 6.36347C12.9938 5.37872 11.6159 4.84225 10.1902 4.8643C7.58133 4.8643 5.36565 6.62434 4.57563 8.99434C4.15675 10.2363 4.15675 11.5812 4.57563 12.8232H4.5793C5.37298 15.1895 7.585 16.9496 10.1939 16.9496C11.5405 16.9496 12.6967 16.6051 13.5927 15.9967V15.9942C14.6473 15.2961 15.3675 14.1974 15.5916 12.9555H10.1902V9.10464H19.6225C19.7401 9.77339 19.7952 10.4568 19.7952 11.1366C19.7952 14.1781 18.7082 16.7496 16.8169 18.4913L16.8189 18.4928C15.1617 20.0214 12.8872 20.9069 10.1902 20.9069C6.40917 20.9069 2.95152 18.7758 1.25393 15.3989C-0.164398 12.5733 -0.164395 9.24425 1.25394 6.41861C2.95153 3.03813 6.40917 0.906924 10.1902 0.906924C12.6741 0.877528 15.0735 1.81084 16.8813 3.50843L14.0263 6.36347Z" fill="white"/>
</g>
<defs>
<clipPath id="clip0_1261_9775">
<rect width="20" height="20" fill="white" transform="translate(-0.0100098 0.480469)"/>
</clipPath>
</defs>
</svg>
