<svg width="21" height="22" viewBox="0 0 21 22" fill="none" xmlns="http://www.w3.org/2000/svg">
<g clip-path="url(#clip0_1261_9773)">
<path d="M20.99 11.4062C20.99 5.60726 16.289 0.90625 10.49 0.90625C4.691 0.90625 -0.0100098 5.60726 -0.0100098 11.4062C-0.0100098 16.647 3.82967 20.991 8.84937 21.7787V14.4414H6.18335V11.4062H8.84937V9.09297C8.84937 6.46141 10.417 5.00781 12.8154 5.00781C13.9638 5.00781 15.1658 5.21289 15.1658 5.21289V7.79688H13.8418C12.5375 7.79688 12.1306 8.60632 12.1306 9.4375V11.4062H15.0427L14.5772 14.4414H12.1306V21.7787C17.1503 20.991 20.99 16.647 20.99 11.4062Z" fill="white"/>
</g>
<defs>
<clipPath id="clip0_1261_9773">
<rect width="21" height="21" fill="white" transform="translate(-0.0100098 0.480469)"/>
</clipPath>
</defs>
</svg>
