<svg width="41" height="27" viewBox="0 0 41 27" fill="none" xmlns="http://www.w3.org/2000/svg">
<rect x="0.5" y="1.35352" width="40" height="26" rx="2.51813" fill="#F4F5FF"/>
<path fill-rule="evenodd" clip-rule="evenodd" d="M30.8842 19.1976C30.8842 21.0094 29.4384 22.4785 27.6538 22.4785H10.116V9.50988C10.116 7.69763 11.562 6.22853 13.3466 6.22853L30.8842 6.22852V19.1976H30.8842Z" fill="white"/>
<path fill-rule="evenodd" clip-rule="evenodd" d="M25.1667 14.6384H25.1782H25.2004H25.2227H25.245H25.2672H25.2895H25.3118H25.3341H25.3563H25.3786H25.4009H25.4231H25.4454H25.4677H25.49H25.5122H25.5345H25.5568H25.579H25.6013H25.6236H25.6458H25.6681H25.6904H25.7127H25.7349H25.7572H25.7795H25.8017H25.824H25.8463H25.8686H25.8908H25.9131H25.9354H25.9576H25.9799H26.0022H26.0244H26.0467H26.069H26.0913H26.1135H26.1358H26.1581H26.1803H26.2026H26.2249H26.2471H26.2694H26.2917H26.3139H26.3362H26.3585H26.3808H26.403H26.4253H26.4476H26.4699H26.4921H26.5107L26.5144 14.6385C26.5213 14.6387 26.5288 14.639 26.5367 14.6394C26.5438 14.6398 26.5513 14.6403 26.5589 14.6409C26.5663 14.6415 26.5737 14.6421 26.5812 14.6428C26.5887 14.6435 26.5962 14.6443 26.6035 14.6451C26.6111 14.6459 26.6186 14.6469 26.6257 14.6478C26.6337 14.6489 26.6412 14.6501 26.648 14.6512C26.6529 14.6521 26.6574 14.6529 26.6615 14.6538L26.6703 14.6558C26.6777 14.6576 26.6852 14.6595 26.6925 14.6616C26.7 14.6637 26.7074 14.6659 26.7148 14.6683C26.7223 14.6707 26.7297 14.6733 26.7371 14.676C26.7446 14.6788 26.752 14.6817 26.7594 14.6847C26.7669 14.6879 26.7743 14.6911 26.7816 14.6945C26.7891 14.698 26.7966 14.7017 26.8039 14.7055C26.8114 14.7093 26.8188 14.7134 26.8262 14.7176C26.8337 14.7219 26.8411 14.7264 26.8485 14.731C26.856 14.7358 26.8634 14.7407 26.8707 14.7458C26.8782 14.751 26.8857 14.7564 26.893 14.762C26.9005 14.7678 26.908 14.7738 26.9153 14.7799C26.9228 14.7863 26.9303 14.793 26.9375 14.7998C26.9451 14.8069 26.9526 14.8141 26.9598 14.8216C26.9675 14.8295 26.9749 14.8377 26.9821 14.846C26.9897 14.8549 26.9972 14.864 27.0043 14.8733C27.0121 14.8834 27.0195 14.8937 27.0266 14.9044C27.0344 14.916 27.0418 14.9279 27.0489 14.9401C27.0568 14.9539 27.0642 14.9682 27.0711 14.9827C27.0793 15 27.0868 15.0178 27.0934 15.0362C27.1023 15.0608 27.1098 15.0863 27.1157 15.1126C27.1259 15.1583 27.1314 15.2064 27.1314 15.2566C27.1314 15.3071 27.1259 15.3554 27.1157 15.4012C27.1098 15.4276 27.1023 15.4532 27.0934 15.4778C27.0868 15.4962 27.0793 15.514 27.0711 15.5314C27.0642 15.546 27.0568 15.5602 27.0489 15.574C27.0418 15.5863 27.0344 15.5982 27.0266 15.6098C27.0195 15.6204 27.0121 15.6308 27.0043 15.6409C26.9972 15.6502 26.9897 15.6593 26.9821 15.6682C26.9749 15.6765 26.9674 15.6847 26.9598 15.6925C26.9526 15.7 26.9451 15.7073 26.9375 15.7144C26.9303 15.7212 26.9228 15.7277 26.9153 15.7341C26.908 15.7403 26.9005 15.7462 26.893 15.752C26.8857 15.7576 26.8782 15.763 26.8707 15.7682C26.8634 15.7733 26.856 15.7782 26.8485 15.7829C26.8411 15.7875 26.8337 15.792 26.8262 15.7963C26.8188 15.8004 26.8114 15.8044 26.8039 15.8083C26.7966 15.8121 26.7891 15.8157 26.7816 15.8191C26.7743 15.8225 26.7669 15.8258 26.7594 15.8289C26.752 15.8319 26.7446 15.8348 26.7371 15.8375C26.7297 15.8402 26.7223 15.8427 26.7148 15.8451C26.7074 15.8475 26.7 15.8496 26.6925 15.8517C26.6852 15.8537 26.6777 15.8556 26.6703 15.8574L26.6615 15.8594C26.6574 15.8603 26.6529 15.8612 26.648 15.8621C26.6412 15.8633 26.6337 15.8645 26.6257 15.8656C26.6186 15.8666 26.6111 15.8675 26.6035 15.8684C26.5962 15.8692 26.5887 15.87 26.5812 15.8706C26.5737 15.8713 26.5663 15.8719 26.5589 15.8725C26.5513 15.873 26.5438 15.8735 26.5367 15.8739C26.5288 15.8743 26.5213 15.8746 26.5144 15.8748L26.5025 15.8749H26.4921H26.4699H26.4476H26.4253H26.403H26.3808H26.3585H26.3362H26.3139H26.2917H26.2694H26.2471H26.2249H26.2026H26.1803H26.1581H26.1358H26.1135H26.0913H26.069H26.0467H26.0244H26.0022H25.9799H25.9576H25.9354H25.9131H25.8908H25.8686H25.8463H25.824H25.8017H25.7795H25.7572H25.7349H25.7127H25.6904H25.6681H25.6458H25.6236H25.6013H25.579H25.5568H25.5345H25.5122H25.49H25.4677H25.4454H25.4231H25.4009H25.3786H25.3563H25.3341H25.3118H25.2895H25.2672H25.245H25.2227H25.2004H25.1782H25.1667V14.6384ZM26.9599 13.239C26.9688 13.2805 26.9736 13.3244 26.9736 13.3707C26.9736 13.417 26.9688 13.4609 26.9599 13.5024C26.9541 13.529 26.9466 13.5546 26.9376 13.5792C26.931 13.5971 26.9236 13.6144 26.9153 13.6312C26.9084 13.6452 26.901 13.6589 26.8931 13.672C26.886 13.6837 26.8786 13.695 26.8708 13.706C26.8637 13.716 26.8562 13.7257 26.8485 13.7352C26.8413 13.7439 26.8339 13.7525 26.8263 13.7607C26.819 13.7685 26.8116 13.776 26.804 13.7833C26.7967 13.7902 26.7893 13.797 26.7817 13.8035C26.7744 13.8097 26.767 13.8157 26.7595 13.8216C26.7522 13.8272 26.7447 13.8326 26.7372 13.8378C26.7299 13.8429 26.7224 13.8478 26.7149 13.8525C26.7076 13.8571 26.7002 13.8615 26.6926 13.8657C26.6853 13.8698 26.6779 13.8738 26.6704 13.8776C26.663 13.8813 26.6556 13.8848 26.6481 13.8882C26.6407 13.8915 26.6333 13.8947 26.6258 13.8977C26.6185 13.9006 26.611 13.9034 26.6036 13.9061C26.5962 13.9087 26.5888 13.9111 26.5813 13.9134C26.5739 13.9157 26.5665 13.9178 26.559 13.9198C26.5517 13.9218 26.5442 13.9236 26.5368 13.9252C26.5294 13.9269 26.5219 13.9283 26.5145 13.9297L26.5091 13.9307C26.5047 13.9314 26.499 13.9323 26.4922 13.9332C26.4856 13.934 26.4781 13.9349 26.4699 13.9357C26.4629 13.9364 26.4554 13.9371 26.4477 13.9378C26.4404 13.9384 26.4329 13.939 26.4254 13.9395C26.4179 13.9399 26.4104 13.9403 26.4031 13.9406C26.3954 13.941 26.3879 13.9412 26.3809 13.9412L26.3773 13.9412H26.3586H26.3363H26.3141H26.2918H26.2695H26.2472H26.225H26.2027H26.1804H26.1582H26.1359H26.1136H26.0914H26.0691H26.0468H26.0246H26.0023H25.98H25.9577H25.9355H25.9132H25.8909H25.8687H25.8464H25.8241H25.8019H25.7796H25.7573H25.735H25.7128H25.6905H25.6682H25.646H25.6237H25.6014H25.5792H25.5569H25.5346H25.5124H25.4901H25.4678H25.4455H25.4233H25.401H25.3787H25.3565H25.3342H25.3119H25.2897H25.2674H25.2451H25.2228H25.2006H25.1783H25.1667V12.8002H25.1783H25.2006H25.2228H25.2451H25.2674H25.2897H25.3119H25.3342H25.3565H25.3787H25.401H25.4233H25.4455H25.4678H25.4901H25.5124H25.5346H25.5569H25.5792H25.6014H25.6237H25.646H25.6682H25.6905H25.7128H25.735H25.7573H25.7796H25.8019H25.8241H25.8464H25.8687H25.8909H25.9132H25.9355H25.9577H25.98H26.0023H26.0246H26.0468H26.0691H26.0914H26.1136H26.1359H26.1582H26.1804H26.2027H26.225H26.2472H26.2695H26.2918H26.3141H26.3363H26.3586H26.3809H26.3902L26.4031 12.8006C26.4104 12.8009 26.4179 12.8014 26.4254 12.8019C26.4329 12.8023 26.4404 12.8029 26.4477 12.8035C26.4554 12.8041 26.4629 12.8049 26.4699 12.8056C26.4781 12.8064 26.4856 12.8072 26.4922 12.8079C26.499 12.8087 26.5047 12.8095 26.5091 12.8101L26.5145 12.8111C26.5219 12.8125 26.5294 12.814 26.5368 12.8156C26.5442 12.8173 26.5517 12.8191 26.559 12.8211C26.5665 12.8231 26.5739 12.8252 26.5813 12.8275C26.5888 12.8298 26.5962 12.8323 26.6036 12.8349C26.611 12.8376 26.6185 12.8404 26.6258 12.8434C26.6333 12.8464 26.6407 12.8496 26.6481 12.8529C26.6556 12.8563 26.663 12.8598 26.6704 12.8635C26.6779 12.8674 26.6853 12.8713 26.6926 12.8754C26.7002 12.8797 26.7076 12.8841 26.7149 12.8887C26.7224 12.8934 26.7299 12.8983 26.7372 12.9033C26.7447 12.9086 26.7522 12.914 26.7595 12.9197C26.767 12.9255 26.7744 12.9315 26.7817 12.9377C26.7893 12.9443 26.7967 12.951 26.804 12.9579C26.8116 12.9652 26.819 12.9727 26.8263 12.9805C26.8339 12.9888 26.8413 12.9973 26.8485 13.0061C26.8562 13.0155 26.8637 13.0252 26.8708 13.0352C26.8786 13.0462 26.886 13.0575 26.8931 13.0692C26.901 13.0824 26.9084 13.096 26.9153 13.1101C26.9236 13.1268 26.931 13.1442 26.9376 13.1621C26.9466 13.1867 26.9541 13.2123 26.9599 13.239ZM29.7217 7.32227H29.7308L29.7308 19.0411C29.7308 19.1111 29.7276 19.1803 29.7217 19.2488C29.7165 19.309 29.709 19.3686 29.6994 19.4275C29.693 19.467 29.6855 19.5062 29.6772 19.545C29.6704 19.5766 29.6629 19.608 29.6549 19.6391C29.6479 19.666 29.6405 19.6926 29.6326 19.7191C29.6255 19.743 29.6182 19.7668 29.6103 19.7904C29.6032 19.8118 29.5957 19.833 29.5881 19.8542C29.5809 19.8738 29.5734 19.8934 29.5658 19.9128C29.5586 19.931 29.5512 19.9492 29.5435 19.9672C29.5363 19.9842 29.5288 20.0012 29.5212 20.0181C29.514 20.0341 29.5066 20.0501 29.499 20.0659C29.4917 20.0811 29.4843 20.0962 29.4767 20.1112C29.4694 20.1256 29.462 20.1399 29.4544 20.1541C29.4472 20.1678 29.4397 20.1813 29.4321 20.1948C29.4249 20.2079 29.4174 20.2209 29.4099 20.2338C29.4026 20.2463 29.3951 20.2588 29.3876 20.2712C29.3803 20.2833 29.3729 20.2954 29.3653 20.3073C29.358 20.3189 29.3505 20.3303 29.343 20.3417C29.3357 20.3528 29.3283 20.3638 29.3208 20.3748C29.3134 20.3856 29.306 20.3963 29.2985 20.407C29.2911 20.4174 29.2837 20.4277 29.2762 20.438C29.2689 20.448 29.2614 20.4579 29.2539 20.4678C29.2466 20.4775 29.2392 20.4872 29.2317 20.4968C29.2243 20.5062 29.2169 20.5156 29.2094 20.5249C29.2021 20.534 29.1946 20.543 29.1871 20.552C29.1797 20.5609 29.1724 20.5698 29.1649 20.5786C29.1575 20.5871 29.15 20.5956 29.1426 20.6041C29.1352 20.6124 29.1278 20.6207 29.1203 20.629C29.1129 20.6371 29.1055 20.6452 29.098 20.6532C29.0907 20.6611 29.0832 20.6689 29.0758 20.6766C29.0684 20.6844 29.061 20.6921 29.0535 20.6997C29.0461 20.7072 29.0387 20.7145 29.0312 20.7218C29.0238 20.7291 29.0164 20.7364 29.0089 20.7436C29.0016 20.7507 28.9941 20.7577 28.9867 20.7647C28.9793 20.7716 28.9718 20.7785 28.9644 20.7853C28.957 20.792 28.9496 20.7987 28.9421 20.8053C28.9347 20.8119 28.9273 20.8184 28.9198 20.8249C28.9124 20.8313 28.905 20.8377 28.8976 20.844C28.8902 20.8502 28.8827 20.8563 28.8753 20.8625C28.8679 20.8686 28.8605 20.8747 28.853 20.8807C28.8457 20.8866 28.8382 20.8924 28.8307 20.8982C28.8233 20.904 28.816 20.9098 28.8085 20.9156C28.8011 20.9212 28.7936 20.9267 28.7862 20.9322C28.7788 20.9378 28.7714 20.9433 28.7639 20.9488C28.7565 20.9541 28.7491 20.9593 28.7416 20.9646C28.7342 20.9699 28.7268 20.9751 28.7194 20.9803C28.712 20.9854 28.7045 20.9904 28.6971 20.9954C28.6897 21.0004 28.6823 21.0054 28.6748 21.0103C28.6674 21.0152 28.66 21.0199 28.6526 21.0247C28.6452 21.0294 28.6377 21.0342 28.6303 21.0388C28.6229 21.0434 28.6155 21.048 28.608 21.0525L28.5857 21.0659C28.5783 21.0703 28.5709 21.0747 28.5635 21.079C28.5561 21.0833 28.5486 21.0875 28.5412 21.0917C28.5338 21.0958 28.5264 21.1 28.5189 21.1041C28.5115 21.1082 28.5041 21.1121 28.4966 21.1161C28.4892 21.1201 28.4818 21.1241 28.4744 21.128C28.467 21.1319 28.4595 21.1355 28.4521 21.1393C28.4447 21.1431 28.4373 21.1468 28.4298 21.1505C28.4224 21.1542 28.415 21.1577 28.4075 21.1613L28.3853 21.1719L28.363 21.1821C28.3556 21.1855 28.3482 21.1887 28.3407 21.192C28.3333 21.1953 28.3259 21.1986 28.3184 21.2018C28.3111 21.205 28.3036 21.208 28.2962 21.2111C28.2887 21.2141 28.2814 21.2173 28.2739 21.2203C28.2665 21.2233 28.2591 21.2261 28.2516 21.229C28.2442 21.2319 28.2368 21.2348 28.2294 21.2376L28.2071 21.246C28.1997 21.2487 28.1922 21.2513 28.1848 21.2539C28.1774 21.2566 28.17 21.2593 28.1625 21.2619C28.1551 21.2644 28.1477 21.2668 28.1402 21.2692L28.118 21.2766C28.1106 21.2789 28.1031 21.2812 28.0957 21.2835L28.0734 21.2903C28.066 21.2925 28.0586 21.2947 28.0512 21.2969C28.0438 21.299 28.0363 21.301 28.0289 21.303C28.0215 21.3051 28.0141 21.3072 28.0066 21.3091L27.9843 21.3148L27.9621 21.3204L27.9398 21.3257C27.9324 21.3275 27.925 21.329 27.9175 21.3307C27.9101 21.3323 27.9027 21.334 27.8952 21.3356L27.873 21.3401L27.8507 21.3444C27.8433 21.3459 27.8359 21.3474 27.8284 21.3487C27.821 21.35 27.8136 21.3512 27.8061 21.3525L27.7839 21.3562L27.7616 21.3596L27.7393 21.3628C27.7319 21.3638 27.7245 21.365 27.717 21.3659C27.7096 21.3669 27.7022 21.3676 27.6948 21.3685C27.6874 21.3694 27.6799 21.3703 27.6725 21.3711C27.6651 21.3719 27.6577 21.3727 27.6502 21.3735C27.6428 21.3742 27.6354 21.3748 27.6279 21.3755C27.6205 21.3761 27.6131 21.3769 27.6057 21.3775C27.5983 21.3781 27.5908 21.3785 27.5834 21.3791L27.5611 21.3805C27.5537 21.3809 27.5463 21.3815 27.5389 21.3819C27.5315 21.3822 27.524 21.3824 27.5166 21.3827L27.4943 21.3836L27.472 21.3842C27.4646 21.3843 27.4572 21.3843 27.4498 21.3845L27.4275 21.3847L27.4229 21.3848H27.4052H27.3829H27.3607H27.3384H27.3161H27.2938H27.2716H27.2493H27.227H27.2047H27.1825H27.1602H27.1379H27.1157H27.0934H27.0711H27.0488H27.0265H27.0043H26.982H26.9597H26.9375H26.9152H26.8929H26.8706H26.8484H26.8261H26.8038H26.7815H26.7593H26.737H26.7147H26.6924H26.6702H26.6479H26.6256H26.6033H26.5811H26.5588H26.5365H26.5143H26.492H26.4697H26.4474H26.4252H26.4029H26.3806H26.3583H26.3361H26.3138H26.2915H26.2692H26.247H26.2247H26.2024H26.1801H26.1579H26.1356H26.1133H26.0911H26.0688H26.0465H26.0242H26.002H25.9797H25.9574H25.9351H25.9128H25.8906H25.8683H25.846H25.8238H25.8015H25.7792H25.7569H25.7347H25.7124H25.6901H25.6678H25.6456H25.6233H25.601H25.5787H25.5565H25.5342H25.5119H25.4896H25.4674H25.4451H25.4228H25.4006H25.3783H25.356H25.3337H25.3115H25.2892H25.2669H25.2446H25.2224H25.2001H25.1778H25.1555H25.1333H25.111H25.0887H25.0664H25.0442H25.0219H24.9996H24.9774H24.9551H24.9328H24.9105H24.8883H24.866H24.8437H24.8214H24.7992H24.7769H24.7546H24.7323H24.7101H24.6878H24.6655H24.6432H24.621H24.5987H24.5764H24.5541H24.5319H24.5096H24.4873H24.465H24.4428H24.4205H24.3982H24.3759H24.3537H24.3314H24.3091H24.2869H24.2646H24.2423H24.22H24.1978H24.1755H24.1532H24.1309H24.1087H24.0864H24.0383V16.6066H24.0864H24.1087H24.1309H24.1532H24.1755H24.1978H24.22H24.2423H24.2646H24.2869H24.3091H24.3314H24.3537H24.3759H24.3982H24.4205H24.4428H24.465H24.4873H24.5096H24.5319H24.5541H24.5764H24.5987H24.621H24.6432H24.6655H24.6878H24.7101H24.7323H24.7546H24.7769H24.7992H24.8214H24.8437H24.866H24.8883H24.9105H24.9328H24.9551H24.9774H24.9996H25.0219H25.0442H25.0664H25.0887H25.111H25.1333H25.1555H25.1778H25.2001H25.2224H25.2446H25.2669H25.2892H25.3115H25.3337H25.356H25.3783H25.4006H25.4228H25.4451H25.4674H25.4896H25.5119H25.5342H25.5565H25.5787H25.601H25.6233H25.6456H25.6678H25.6901H25.7124H25.7347H25.7569H25.7792H25.8015H25.8238H25.846H25.8683H25.8906H25.9128H25.9351H25.9574H25.9797H26.002H26.0242H26.0465H26.0688H26.0911H26.1133H26.1356H26.1579H26.1801H26.2024H26.2247H26.247H26.2692H26.2915H26.3138H26.3361H26.3583H26.3806H26.4029H26.4252H26.4474H26.4697H26.492H26.5143H26.5365H26.5588H26.5811H26.6033H26.6256H26.6479H26.6702H26.6924H26.7147H26.737H26.7593H26.7815H26.8038H26.8261H26.8484H26.8706H26.8929H26.9152H26.9375H26.9597H26.982H27.0043H27.0265H27.0488H27.0711H27.0934H27.1157H27.1379H27.1602H27.1825H27.2047H27.227H27.2493H27.2716H27.2938H27.3161H27.3384H27.3607H27.3829H27.4052H27.4275H27.4498H27.472H27.4943H27.5166H27.5389H27.5611H27.5834H27.6057H27.6175L27.6279 16.6065L27.6502 16.6064L27.6725 16.6059C27.6799 16.6057 27.6874 16.6056 27.6948 16.6053C27.7022 16.6051 27.7096 16.6047 27.717 16.6044L27.7393 16.6033L27.7616 16.602L27.7839 16.6004L27.8061 16.5986L27.8284 16.5966C27.8358 16.5958 27.8433 16.5951 27.8507 16.5944C27.8581 16.5936 27.8655 16.5927 27.873 16.5918L27.8952 16.589C27.9027 16.5881 27.9101 16.5871 27.9175 16.5861C27.925 16.585 27.9324 16.5839 27.9398 16.5827C27.9472 16.5816 27.9547 16.5805 27.9621 16.5792L27.9843 16.5754L28.0066 16.5714C28.014 16.57 28.0215 16.5686 28.0289 16.5671C28.0363 16.5656 28.0437 16.564 28.0512 16.5624L28.0734 16.5575C28.0809 16.5558 28.0883 16.5542 28.0957 16.5524C28.1032 16.5506 28.1106 16.5487 28.118 16.5468C28.1254 16.545 28.1329 16.5431 28.1402 16.5411C28.1477 16.5391 28.1551 16.5371 28.1625 16.535C28.17 16.5329 28.1774 16.5308 28.1848 16.5286C28.1922 16.5264 28.1997 16.5241 28.2071 16.5219L28.2294 16.5148C28.2368 16.5123 28.2442 16.5098 28.2516 16.5073C28.2591 16.5048 28.2665 16.5022 28.2739 16.4996C28.2814 16.4969 28.2888 16.4942 28.2962 16.4915C28.3037 16.4887 28.311 16.4858 28.3184 16.4829C28.3259 16.48 28.3333 16.477 28.3407 16.474C28.3482 16.4709 28.3556 16.4679 28.363 16.4647C28.3705 16.4615 28.3779 16.4583 28.3853 16.455C28.3927 16.4516 28.4002 16.4482 28.4075 16.4448C28.415 16.4413 28.4224 16.4378 28.4298 16.4342C28.4373 16.4306 28.4447 16.4269 28.4521 16.4232C28.4596 16.4194 28.467 16.4155 28.4744 16.4116C28.4818 16.4077 28.4893 16.4036 28.4966 16.3995C28.5041 16.3954 28.5116 16.3912 28.5189 16.3869C28.5264 16.3826 28.5338 16.3782 28.5412 16.3738C28.5487 16.3693 28.5561 16.3648 28.5635 16.3601C28.571 16.3554 28.5784 16.3506 28.5857 16.3457C28.5932 16.3408 28.6006 16.3357 28.608 16.3307C28.6155 16.3255 28.6229 16.3203 28.6303 16.315C28.6378 16.3095 28.6452 16.3041 28.6526 16.2985C28.6601 16.2928 28.6675 16.2871 28.6748 16.2813C28.6823 16.2753 28.6898 16.2693 28.6971 16.2632C28.7046 16.257 28.712 16.2507 28.7194 16.2443C28.7269 16.2377 28.7343 16.2311 28.7416 16.2243C28.7492 16.2174 28.7566 16.2104 28.7639 16.2033C28.7715 16.196 28.7789 16.1886 28.7862 16.1811C28.7938 16.1733 28.8012 16.1655 28.8085 16.1575C28.816 16.1493 28.8235 16.141 28.8307 16.1325C28.8383 16.1238 28.8458 16.1149 28.853 16.1059C28.8606 16.0966 28.868 16.0871 28.8753 16.0775C28.8829 16.0675 28.8904 16.0574 28.8976 16.0471C28.9052 16.0361 28.9126 16.025 28.9198 16.0138C28.9275 16.0019 28.9349 15.9899 28.9421 15.9777C28.9498 15.9646 28.9573 15.9513 28.9644 15.9378C28.9721 15.9232 28.9796 15.9084 28.9867 15.8933C28.9945 15.8765 29.002 15.8594 29.0089 15.8421C29.0169 15.8222 29.0244 15.8021 29.0312 15.7816C29.0396 15.7563 29.047 15.7305 29.0535 15.7043C29.063 15.6659 29.0704 15.6266 29.0758 15.5863C29.0822 15.5374 29.0856 15.4871 29.0856 15.4354C29.0856 15.3851 29.0823 15.3363 29.0758 15.2888C29.0704 15.2498 29.063 15.2118 29.0535 15.1748C29.047 15.1496 29.0396 15.1249 29.0312 15.1006C29.0244 15.0807 29.017 15.0611 29.0089 15.0419C29.002 15.0252 28.9945 15.0088 28.9867 14.9926C28.9796 14.9781 28.9722 14.9637 28.9644 14.9496C28.9572 14.9366 28.9498 14.9237 28.9421 14.9111C28.935 14.8993 28.9275 14.8877 28.9198 14.8763C28.9126 14.8655 28.9052 14.8548 28.8976 14.8442C28.8904 14.8343 28.8829 14.8245 28.8753 14.8149C28.868 14.8056 28.8606 14.7965 28.853 14.7874C28.8457 14.7788 28.8383 14.7702 28.8307 14.7617C28.8235 14.7536 28.816 14.7455 28.8085 14.7376C28.8012 14.73 28.7937 14.7224 28.7862 14.715C28.7789 14.7077 28.7714 14.7006 28.7639 14.6935C28.7566 14.6867 28.7492 14.6799 28.7416 14.6733C28.7343 14.6668 28.7269 14.6603 28.7194 14.654C28.712 14.6478 28.7046 14.6417 28.6971 14.6357C28.6898 14.6298 28.6823 14.6239 28.6748 14.6182C28.6675 14.6126 28.6601 14.607 28.6526 14.6016C28.6452 14.5962 28.6378 14.5909 28.6303 14.5857C28.6229 14.5805 28.6155 14.5755 28.608 14.5704C28.6006 14.5655 28.5932 14.5607 28.5857 14.5559C28.5784 14.5512 28.571 14.5466 28.5635 14.542C28.5561 14.5375 28.5487 14.5331 28.5412 14.5287C28.5338 14.5244 28.5264 14.5202 28.5189 14.516C28.5116 14.5119 28.5041 14.5078 28.4966 14.5038C28.4893 14.4999 28.4818 14.496 28.4744 14.4921C28.467 14.4883 28.4596 14.4846 28.4521 14.4809C28.4447 14.4772 28.4373 14.4736 28.4298 14.4701C28.4224 14.4666 28.415 14.4632 28.4075 14.4598C28.4002 14.4565 28.3927 14.4532 28.3853 14.4499C28.3779 14.4467 28.3705 14.4436 28.363 14.4405C28.3556 14.4374 28.3482 14.4343 28.3407 14.4313C28.3333 14.4284 28.3259 14.4255 28.3184 14.4226C28.3111 14.4198 28.3036 14.4171 28.2962 14.4144C28.2888 14.4117 28.2814 14.409 28.2739 14.4064C28.2665 14.4038 28.2591 14.4013 28.2516 14.3988C28.2442 14.3963 28.2368 14.3939 28.2294 14.3915C28.222 14.3891 28.2145 14.3868 28.2071 14.3846L28.1848 14.3779C28.1774 14.3758 28.17 14.3736 28.1625 14.3716C28.1551 14.3695 28.1477 14.3675 28.1402 14.3656C28.1329 14.3636 28.1254 14.3618 28.118 14.3599C28.1106 14.358 28.1032 14.3562 28.0957 14.3544C28.0883 14.3527 28.0809 14.351 28.0734 14.3493C28.066 14.3476 28.0586 14.346 28.0512 14.3445C28.0437 14.3429 28.0363 14.3413 28.0289 14.3398L28.0066 14.3355L27.9843 14.3315C27.9769 14.3302 27.9695 14.3288 27.9621 14.3276L27.9398 14.3241C27.9324 14.3229 27.925 14.3218 27.9175 14.3208L27.8952 14.3177L27.873 14.3149L27.8507 14.3123L27.8284 14.3099L27.8061 14.3078L27.7839 14.3059L27.7633 14.3043L27.7633 14.2772L27.7839 14.274L27.8061 14.2702C27.8136 14.2689 27.821 14.2676 27.8284 14.2663L27.8507 14.2619C27.8582 14.2604 27.8656 14.2589 27.873 14.2573L27.8952 14.2523C27.9027 14.2506 27.9101 14.2489 27.9175 14.2471C27.925 14.2453 27.9324 14.2434 27.9398 14.2414C27.9473 14.2395 27.9547 14.2375 27.9621 14.2355C27.9695 14.2334 27.977 14.2313 27.9843 14.2291C27.9918 14.227 27.9992 14.2248 28.0066 14.2225C28.0141 14.2202 28.0215 14.2179 28.0289 14.2155C28.0364 14.213 28.0438 14.2105 28.0512 14.208C28.0586 14.2054 28.066 14.2028 28.0734 14.2001C28.0809 14.1974 28.0883 14.1947 28.0957 14.1919C28.1032 14.189 28.1106 14.1861 28.118 14.1832C28.1255 14.1802 28.1329 14.1771 28.1402 14.174C28.1477 14.1709 28.1552 14.1677 28.1625 14.1644C28.17 14.1611 28.1774 14.1578 28.1848 14.1543C28.1923 14.1509 28.1997 14.1473 28.2071 14.1437C28.2146 14.14 28.222 14.1363 28.2294 14.1325C28.2368 14.1287 28.2443 14.1248 28.2516 14.1208C28.2591 14.1168 28.2666 14.1127 28.2739 14.1086C28.2814 14.1043 28.2888 14.1 28.2962 14.0957C28.3037 14.0912 28.3111 14.0867 28.3184 14.0821C28.326 14.0775 28.3334 14.0727 28.3407 14.0679C28.3482 14.063 28.3556 14.058 28.363 14.053C28.3705 14.0478 28.3779 14.0426 28.3853 14.0373C28.3928 14.0319 28.4002 14.0264 28.4075 14.0208C28.4151 14.0151 28.4225 14.0093 28.4298 14.0034C28.4373 13.9974 28.4448 13.9913 28.4521 13.9851C28.4596 13.9788 28.467 13.9723 28.4744 13.9658C28.4819 13.959 28.4893 13.9522 28.4966 13.9452C28.5042 13.9381 28.5116 13.9309 28.5189 13.9236C28.5265 13.916 28.5339 13.9083 28.5412 13.9006C28.5488 13.8925 28.5562 13.8843 28.5635 13.876C28.5711 13.8674 28.5785 13.8586 28.5857 13.8498C28.5933 13.8406 28.6008 13.8312 28.608 13.8217C28.6156 13.8117 28.6231 13.8016 28.6303 13.7914C28.6379 13.7805 28.6454 13.7695 28.6526 13.7584C28.6602 13.7466 28.6677 13.7346 28.6748 13.7225C28.6826 13.7093 28.69 13.696 28.6971 13.6826C28.7049 13.6678 28.7123 13.6528 28.7194 13.6377C28.7273 13.6207 28.7347 13.6034 28.7416 13.586C28.7497 13.5657 28.7572 13.5451 28.7639 13.5242C28.7724 13.498 28.7798 13.4713 28.7862 13.4443C28.7965 13.4005 28.8039 13.3558 28.8085 13.3103C28.8121 13.2744 28.814 13.238 28.814 13.2013C28.814 13.1625 28.8121 13.1247 28.8085 13.0878C28.8039 13.0407 28.7964 12.9952 28.7862 12.9512C28.7798 12.9238 28.7724 12.8969 28.7639 12.8707C28.7571 12.8498 28.7497 12.8293 28.7416 12.8091C28.7347 12.7918 28.7273 12.7748 28.7194 12.758C28.7123 12.7431 28.7049 12.7284 28.6971 12.714C28.69 12.7008 28.6825 12.6878 28.6748 12.6749C28.6676 12.663 28.6602 12.6513 28.6526 12.6397C28.6454 12.6289 28.6379 12.6183 28.6303 12.6078C28.6231 12.5978 28.6156 12.588 28.608 12.5784C28.6007 12.5691 28.5934 12.56 28.5857 12.551C28.5785 12.5425 28.571 12.5341 28.5635 12.5258C28.5562 12.5178 28.5487 12.51 28.5412 12.5022C28.5339 12.4947 28.5265 12.4873 28.5189 12.48C28.5116 12.4729 28.5042 12.4659 28.4966 12.4591C28.4893 12.4524 28.4819 12.4458 28.4744 12.4393C28.467 12.433 28.4596 12.4268 28.4521 12.4207C28.4448 12.4147 28.4373 12.4088 28.4298 12.403C28.4225 12.3974 28.4151 12.3918 28.4075 12.3863C28.4002 12.3809 28.3928 12.3756 28.3853 12.3704C28.3779 12.3653 28.3705 12.3603 28.363 12.3553C28.3556 12.3504 28.3482 12.3456 28.3407 12.3409C28.3334 12.3363 28.3259 12.3317 28.3184 12.3272C28.3111 12.3228 28.3037 12.3184 28.2962 12.3141C28.2888 12.3099 28.2814 12.3058 28.2739 12.3017C28.2665 12.2977 28.2591 12.2937 28.2516 12.2898C28.2443 12.286 28.2368 12.2822 28.2294 12.2784C28.222 12.2748 28.2146 12.2711 28.2071 12.2676C28.1997 12.2641 28.1923 12.2606 28.1848 12.2572C28.1774 12.2539 28.17 12.2506 28.1625 12.2474C28.1552 12.2442 28.1477 12.2411 28.1402 12.238C28.1329 12.235 28.1254 12.232 28.118 12.229C28.1106 12.2261 28.1032 12.2232 28.0957 12.2204C28.0883 12.2176 28.0809 12.2149 28.0734 12.2122C28.066 12.2096 28.0586 12.207 28.0512 12.2045C28.0438 12.202 28.0363 12.1995 28.0289 12.1971C28.0215 12.1947 28.0141 12.1923 28.0066 12.19C27.9992 12.1877 27.9918 12.1854 27.9843 12.1832C27.977 12.1811 27.9695 12.179 27.9621 12.1769C27.9547 12.1749 27.9473 12.1729 27.9398 12.1709L27.9175 12.1652C27.9101 12.1633 27.9027 12.1615 27.8952 12.1597C27.8878 12.158 27.8804 12.1563 27.873 12.1546L27.8507 12.1498C27.8433 12.1483 27.8359 12.1467 27.8284 12.1452C27.821 12.1438 27.8136 12.1424 27.8061 12.141L27.7839 12.1371C27.7765 12.1358 27.7691 12.1345 27.7616 12.1333L27.7393 12.1299L27.717 12.1267L27.6948 12.1237L27.6725 12.121L27.6502 12.1186L27.6279 12.1163L27.6057 12.1143L27.5834 12.1126L27.5611 12.1109L27.5389 12.1096L27.53 12.1091L27.5166 12.1083L27.4943 12.107L27.472 12.1057L27.4498 12.1045L27.4275 12.1034L27.4052 12.1025L27.3829 12.1016L27.3607 12.1009L27.3384 12.1004L27.3161 12.1001L27.3038 12.1001H27.2938H27.2716H27.2493H27.227H27.2047H27.1825H27.1602H27.1379H27.1157H27.0934H27.0711H27.0488H27.0265H27.0043H26.982H26.9597H26.9375H26.9152H26.8929H26.8706H26.8484H26.8261H26.8038H26.7815H26.7593H26.737H26.7147H26.6924H26.6702H26.6479H26.6256H26.6033H26.5811H26.5588H26.5365H26.5143H26.492H26.4697H26.4474H26.4252H26.4029H26.3806H26.3583H26.3361H26.3138H26.2915H26.2692H26.247H26.2247H26.2024H26.1801H26.1579H26.1356H26.1133H26.0911H26.0688H26.0465H26.0242H26.002H25.9797H25.9574H25.9351H25.9128H25.8906H25.8683H25.846H25.8238H25.8015H25.7792H25.7569H25.7347H25.7124H25.6901H25.6678H25.6456H25.6233H25.601H25.5787H25.5565H25.5342H25.5119H25.4896H25.4674H25.4451H25.4228H25.4006H25.3783H25.356H25.3337H25.3115H25.2892H25.2669H25.2446H25.2224H25.2001H25.1778H25.1555H25.1333H25.111H25.0887H25.0664H25.0442H25.0219H24.9996H24.9774H24.9551H24.9328H24.9105H24.8883H24.866H24.8437H24.8214H24.7992H24.7769H24.7546H24.7323H24.7101H24.6878H24.6655H24.6432H24.621H24.5987H24.5764H24.5541H24.5319H24.5096H24.4873H24.465H24.4428H24.4205H24.3982H24.3759H24.3537H24.3314H24.3091H24.2869H24.2646H24.2423H24.22H24.1978H24.1755H24.1532H24.1309H24.1087H24.0864H24.0383V9.66621C24.0383 9.50248 24.0549 9.34269 24.0864 9.18842C24.0931 9.15539 24.1006 9.12263 24.1087 9.09014C24.1156 9.06233 24.123 9.03473 24.1309 9.00734C24.138 8.98287 24.1454 8.95857 24.1532 8.93444C24.1603 8.91239 24.1677 8.89045 24.1755 8.86871C24.1827 8.84853 24.19 8.82847 24.1978 8.80856C24.205 8.78996 24.2124 8.77145 24.22 8.7531C24.2273 8.73577 24.2347 8.71852 24.2423 8.7014C24.2495 8.68515 24.257 8.669 24.2646 8.65295C24.2718 8.63764 24.2793 8.62243 24.2869 8.6073C24.2941 8.59275 24.3016 8.57831 24.3091 8.56393C24.3164 8.55008 24.3238 8.53631 24.3314 8.52263C24.3387 8.50935 24.3461 8.49619 24.3537 8.48308C24.361 8.47037 24.3684 8.45772 24.3759 8.44517C24.3833 8.433 24.3907 8.42093 24.3982 8.40891C24.4055 8.39727 24.413 8.38574 24.4205 8.37424C24.4278 8.36299 24.4352 8.35178 24.4428 8.34066C24.4501 8.32977 24.4575 8.31888 24.465 8.30811C24.4724 8.29769 24.4798 8.2874 24.4873 8.2771C24.4946 8.26698 24.5021 8.25693 24.5096 8.24693C24.517 8.23709 24.5243 8.22721 24.5319 8.2175C24.5392 8.20805 24.5467 8.19875 24.5541 8.18941C24.5615 8.1802 24.5689 8.17107 24.5764 8.162C24.5838 8.15304 24.5912 8.14407 24.5987 8.13523C24.606 8.1266 24.6135 8.11813 24.621 8.10961C24.6284 8.10118 24.6357 8.09272 24.6432 8.0844C24.6506 8.07624 24.658 8.06816 24.6655 8.0601C24.6729 8.05215 24.6803 8.04425 24.6878 8.0364C24.6952 8.02865 24.7026 8.02091 24.7101 8.01326C24.7174 8.00574 24.7249 7.99834 24.7323 7.99093C24.7397 7.98356 24.7471 7.97612 24.7546 7.96886C24.7619 7.96175 24.7694 7.95482 24.7769 7.9478C24.7843 7.94083 24.7917 7.93384 24.7992 7.92696C24.8065 7.92019 24.814 7.91355 24.8214 7.90689C24.8288 7.90028 24.8362 7.89366 24.8437 7.88713C24.8511 7.8807 24.8585 7.87436 24.866 7.86803C24.8734 7.86174 24.8808 7.85548 24.8883 7.8493C24.8956 7.84316 24.9031 7.83711 24.9105 7.83109L24.9328 7.8133L24.9551 7.79597C24.9625 7.79029 24.9699 7.78465 24.9774 7.77906C24.9847 7.77353 24.9922 7.76802 24.9996 7.76256L25.0219 7.74649C25.0293 7.74122 25.0367 7.73599 25.0442 7.73082L25.0664 7.7155L25.0887 7.70059C25.0961 7.6957 25.1035 7.69082 25.111 7.68602L25.1333 7.67189C25.1407 7.66722 25.1481 7.66255 25.1555 7.65798C25.1629 7.65344 25.1704 7.64903 25.1778 7.64459C25.1852 7.64014 25.1926 7.63566 25.2001 7.63131C25.2074 7.62702 25.2149 7.62288 25.2224 7.61866C25.2298 7.61444 25.2372 7.61015 25.2446 7.60602C25.252 7.60195 25.2595 7.59801 25.2669 7.59402C25.2743 7.59003 25.2817 7.58601 25.2892 7.5821C25.2966 7.57821 25.304 7.57445 25.3115 7.57066C25.3189 7.56689 25.3263 7.5631 25.3337 7.55941L25.356 7.54848C25.3634 7.5449 25.3708 7.54141 25.3783 7.5379C25.3857 7.53442 25.3931 7.53087 25.4006 7.52746C25.4079 7.52409 25.4154 7.52086 25.4228 7.51756C25.4303 7.51426 25.4376 7.5109 25.4451 7.50768C25.4525 7.50449 25.46 7.50145 25.4674 7.49834C25.4748 7.49525 25.4822 7.49212 25.4896 7.4891L25.5119 7.48019L25.5342 7.47159C25.5416 7.46874 25.549 7.46585 25.5565 7.46309C25.5639 7.46036 25.5713 7.45779 25.5787 7.45512C25.5862 7.45246 25.5936 7.44974 25.601 7.44716C25.6084 7.44459 25.6159 7.44217 25.6233 7.43967L25.6456 7.43234C25.653 7.42994 25.6604 7.42753 25.6678 7.4252C25.6752 7.42289 25.6827 7.42072 25.6901 7.41849C25.6975 7.41624 25.7049 7.41391 25.7124 7.41176C25.7198 7.40962 25.7272 7.40763 25.7347 7.40557C25.7421 7.40351 25.7495 7.40143 25.7569 7.39944L25.7792 7.39359C25.7866 7.3917 25.794 7.3899 25.8015 7.38808C25.8089 7.38626 25.8163 7.38431 25.8238 7.38256C25.8311 7.38084 25.8386 7.37926 25.846 7.3776L25.8683 7.37266L25.8906 7.368C25.898 7.3665 25.9054 7.36509 25.9128 7.36366C25.9203 7.36222 25.9277 7.36068 25.9351 7.35931C25.9425 7.35795 25.95 7.35678 25.9574 7.35551L25.9797 7.35176C25.9871 7.35056 25.9945 7.34932 26.002 7.3482C26.0094 7.34707 26.0168 7.34608 26.0242 7.34503C26.0317 7.34398 26.039 7.34283 26.0465 7.34186C26.0539 7.34088 26.0613 7.34002 26.0688 7.33912L26.0911 7.33653C26.0985 7.33571 26.1059 7.33479 26.1133 7.33404C26.1207 7.33329 26.1282 7.33271 26.1356 7.33203L26.1579 7.33003L26.1801 7.32832C26.1875 7.32778 26.195 7.32735 26.2024 7.32688C26.2098 7.32643 26.2172 7.32585 26.2247 7.32545C26.2321 7.32506 26.2396 7.32483 26.247 7.32452L26.2692 7.32367C26.2767 7.32343 26.2841 7.32311 26.2915 7.32294C26.2989 7.32277 26.3064 7.32275 26.3138 7.32264C26.3212 7.32253 26.3286 7.3224 26.3361 7.32236L26.3417 7.32228H26.3583H26.3806H26.4029H26.4252H26.4474H26.4697H26.492H26.5143H26.5365H26.5588H26.5811H26.6033H26.6256H26.6479H26.6702H26.6924H26.7147H26.737H26.7593H26.7815H26.8038H26.8261H26.8484H26.8706H26.8929H26.9152H26.9375H26.9597H26.982H27.0043H27.0265H27.0488H27.0711H27.0934H27.1157H27.1379H27.1602H27.1825H27.2047H27.227H27.2493H27.2716H27.2938H27.3161H27.3384H27.3607H27.3829H27.4052H27.4275H27.4498H27.472H27.4943H27.5166H27.5389H27.5611H27.5834H27.6057H27.6279H27.6502H27.6725H27.6948H27.717H27.7393H27.7616H27.7839H27.8061H27.8284H27.8507H27.873H27.8952H27.9175H27.9398H27.9621H27.9843H28.0066H28.0289H28.0512H28.0734H28.0957H28.118H28.1402H28.1625H28.1848H28.2071H28.2294H28.2516H28.2739H28.2962H28.3184H28.3407H28.363H28.3853H28.4075H28.4298H28.4521H28.4744H28.4966H28.5189H28.5412H28.5635H28.5857H28.608H28.6303H28.6526H28.6748H28.6971H28.7194H28.7416H28.7639H28.7862H28.8085H28.8307H28.853H28.8753H28.8976H28.9198H28.9421H28.9644H28.9867H29.0089H29.0312H29.0535H29.0758H29.098H29.1203H29.1426H29.1649H29.1871H29.2094H29.2317H29.2539H29.2762H29.2985H29.3208H29.343H29.3653H29.3876H29.4099H29.4321H29.4544H29.4767H29.499H29.5212H29.5435H29.5658H29.5881H29.6103H29.6326H29.6549H29.6772H29.6994H29.7217V7.32227Z" fill="url(#paint0_linear_1261_8695)"/>
<path fill-rule="evenodd" clip-rule="evenodd" d="M11.3173 15.4778C11.3014 15.4701 11.2854 15.4623 11.2695 15.4545V9.6662C11.2695 9.50293 11.286 9.34355 11.3173 9.1897C11.324 9.15666 11.3315 9.12392 11.3395 9.09141C11.3464 9.06357 11.3539 9.03595 11.3618 9.00852C11.3688 8.98407 11.3762 8.95981 11.384 8.9357C11.3911 8.91363 11.3985 8.89165 11.4062 8.86987C11.4134 8.84971 11.4208 8.82967 11.4285 8.80978C11.4356 8.79118 11.4431 8.77263 11.4507 8.75426C11.4579 8.73693 11.4653 8.71972 11.4729 8.70262C11.4802 8.68637 11.4876 8.67024 11.4952 8.65419C11.5024 8.63886 11.5099 8.62363 11.5174 8.60848C11.5247 8.59393 11.5321 8.57949 11.5396 8.56513C11.5469 8.55128 11.5543 8.53751 11.5619 8.52383C11.5692 8.51057 11.5766 8.49739 11.5841 8.4843C11.5914 8.47159 11.5988 8.45892 11.6063 8.44635C11.6136 8.4342 11.6211 8.42215 11.6286 8.41015C11.6359 8.39852 11.6433 8.38697 11.6508 8.37548C11.6581 8.36423 11.6655 8.35302 11.673 8.3419C11.6804 8.33099 11.6877 8.32009 11.6953 8.30931C11.7026 8.29891 11.71 8.28863 11.7175 8.27834C11.7249 8.26822 11.7323 8.25817 11.7398 8.24817C11.7471 8.23835 11.7545 8.22845 11.762 8.21874C11.7693 8.2093 11.7768 8.20002 11.7842 8.1907C11.7916 8.1815 11.799 8.17233 11.8065 8.16324C11.8138 8.15429 11.8212 8.14537 11.8287 8.13654C11.836 8.12789 11.8435 8.1194 11.8509 8.11087C11.8583 8.10241 11.8657 8.09398 11.8732 8.08565C11.8805 8.0775 11.8879 8.06945 11.8954 8.06141C11.9027 8.05344 11.9101 8.04555 11.9176 8.03769C11.925 8.02995 11.9324 8.0222 11.9399 8.01455C11.9472 8.00703 11.9547 7.99963 11.9621 7.99222C11.9695 7.98485 11.9768 7.97743 11.9843 7.97017C11.9917 7.96307 11.9991 7.95613 12.0066 7.94912C12.014 7.94212 12.0213 7.93511 12.0288 7.92823C12.0361 7.92148 12.0436 7.91486 12.051 7.90821C12.0584 7.90159 12.0658 7.89495 12.0733 7.88843C12.0806 7.88199 12.0881 7.87568 12.0955 7.86934C12.1029 7.86306 12.1103 7.85678 12.1177 7.85059C12.1251 7.84448 12.1325 7.83842 12.14 7.83238C12.1474 7.8264 12.1547 7.82048 12.1622 7.81459C12.1696 7.80876 12.177 7.803 12.1844 7.79727C12.1918 7.79158 12.1992 7.78592 12.2067 7.78033L12.2289 7.76387C12.2363 7.75845 12.2437 7.75307 12.2511 7.74775C12.2585 7.74248 12.2659 7.73727 12.2734 7.73209C12.2808 7.72694 12.2882 7.72182 12.2956 7.71676C12.303 7.71175 12.3104 7.70682 12.3178 7.70189C12.3252 7.69699 12.3326 7.69206 12.3401 7.68724C12.3474 7.68248 12.3549 7.67783 12.3623 7.67314C12.3697 7.66848 12.3771 7.66375 12.3845 7.65918C12.3919 7.65466 12.3993 7.65027 12.4068 7.64583C12.4142 7.64138 12.4215 7.63686 12.429 7.63249C12.4364 7.6282 12.4438 7.62409 12.4512 7.61988C12.4587 7.61566 12.466 7.61138 12.4735 7.60724C12.4809 7.60315 12.4883 7.59921 12.4957 7.59522C12.5031 7.59123 12.5105 7.58721 12.5179 7.5833C12.5253 7.57941 12.5327 7.57561 12.5402 7.5718L12.5624 7.56059C12.5698 7.5569 12.5772 7.5532 12.5847 7.5496C12.592 7.54602 12.5995 7.54255 12.6069 7.53905C12.6143 7.53554 12.6217 7.53196 12.6291 7.52855C12.6365 7.52515 12.6439 7.52197 12.6514 7.51867C12.6588 7.51537 12.6661 7.51201 12.6736 7.50879C12.681 7.5056 12.6884 7.50252 12.6958 7.49941L12.7181 7.49019L12.7403 7.48122L12.7625 7.47264C12.77 7.46979 12.7773 7.46684 12.7848 7.46407C12.7921 7.46133 12.7996 7.45878 12.807 7.45612C12.8144 7.45346 12.8218 7.45076 12.8292 7.44817L12.8515 7.44061L12.8737 7.43328C12.8811 7.43088 12.8885 7.42843 12.8959 7.4261C12.9033 7.42379 12.9108 7.4216 12.9182 7.41937C12.9256 7.41712 12.933 7.41483 12.9404 7.41266C12.9478 7.4105 12.9552 7.40849 12.9626 7.40641L12.9849 7.40028C12.9923 7.39829 12.9997 7.39627 13.0071 7.39436C13.0145 7.39244 13.0219 7.3907 13.0293 7.38886C13.0367 7.38703 13.0441 7.38511 13.0516 7.38335C13.059 7.38161 13.0664 7.37998 13.0738 7.37831L13.096 7.3734C13.1035 7.37178 13.1108 7.37015 13.1183 7.36863C13.1257 7.36713 13.1331 7.36575 13.1405 7.3643C13.1479 7.36286 13.1553 7.36136 13.1627 7.35999C13.1702 7.35862 13.1776 7.35738 13.185 7.35609L13.2072 7.35234C13.2146 7.35114 13.222 7.34985 13.2294 7.3487C13.2368 7.34756 13.2443 7.3466 13.2517 7.34553C13.2591 7.34448 13.2665 7.34336 13.2739 7.34237L13.2961 7.33953L13.3184 7.33697C13.3258 7.33612 13.3332 7.33515 13.3406 7.33438C13.348 7.33361 13.3554 7.33305 13.3628 7.33235L13.3851 7.33037C13.3925 7.32973 13.3999 7.32911 13.4073 7.32857C13.4147 7.32802 13.4221 7.32759 13.4296 7.32712C13.437 7.32665 13.4444 7.32611 13.4518 7.3257C13.4592 7.32528 13.4666 7.325 13.474 7.32467L13.4963 7.3238C13.5037 7.32354 13.5111 7.32315 13.5185 7.32296C13.5259 7.32277 13.5333 7.32279 13.5407 7.32268C13.5481 7.32257 13.5555 7.32243 13.563 7.3224L13.5728 7.32227H13.5852H13.6074H13.6297H13.6519H13.6741H13.6964H13.7186H13.7408H13.7631H13.7853H13.8075H13.8298H13.852H13.8742H13.8965H13.9187H13.941H13.9632H13.9854H14.0077H14.0299H14.0521H14.0744H14.0966H14.1188H14.1411H14.1633H14.1855H14.2078H14.23H14.2522H14.2745H14.2967H14.3189H14.3412H14.3634H14.3856H14.4079H14.4301H14.4523H14.4746H14.4968H14.519H14.5413H14.5635H14.5857H14.608H14.6302H14.6524H14.6747H14.6969H14.7191H14.7414H14.7636H14.7859H14.8081H14.8303H14.8526H14.8748H14.897H14.9193H14.9415H14.9637H14.986H15.0082H15.0304H15.0527H15.0749H15.0971H15.1194H15.1416H15.1638H15.1861H15.2083H15.2305H15.2528H15.275H15.2973H15.3195H15.3417H15.364H15.3862H15.4084H15.4307H15.4529H15.4751H15.4973H15.5196H15.5418H15.564H15.5863H15.6085H15.6308H15.653H15.6752H15.6975H15.7197H15.7419H15.7642H15.7864H15.8086H15.8309H15.8531H15.8753H15.8976H15.9198H15.942H15.9643H15.9865H16.0087H16.031H16.0532H16.0754H16.0977H16.1199H16.1422H16.1644H16.1866H16.2089H16.2311H16.2533H16.2756H16.2978H16.32H16.3423H16.3645H16.3867H16.409H16.4312H16.4534H16.4757H16.4979H16.5201H16.5424H16.5646H16.5868H16.6091H16.6313H16.6535H16.6758H16.698H16.7202H16.7425H16.7647H16.7869H16.8092H16.8314H16.8536H16.8759H16.8981H16.9203H16.9426H16.9615V19.0411C16.9615 19.143 16.955 19.2434 16.9426 19.3419C16.9366 19.3894 16.9291 19.4363 16.9203 19.4828C16.9137 19.5182 16.9063 19.5533 16.8981 19.588C16.8912 19.6173 16.8838 19.6464 16.8759 19.6753C16.8689 19.7006 16.8614 19.7258 16.8536 19.7507C16.8466 19.7734 16.8391 19.7958 16.8314 19.8181C16.8243 19.8388 16.8169 19.8593 16.8092 19.8797C16.802 19.8987 16.7946 19.9176 16.7869 19.9364C16.7797 19.9541 16.7723 19.9717 16.7647 19.9891C16.7575 20.0057 16.7501 20.0222 16.7425 20.0385C16.7352 20.0542 16.7278 20.0697 16.7202 20.0851C16.713 20.0999 16.7056 20.1146 16.698 20.1293C16.6907 20.1433 16.6833 20.1573 16.6758 20.1713C16.6685 20.1847 16.6611 20.1981 16.6535 20.2114C16.6463 20.2242 16.6388 20.237 16.6313 20.2497C16.624 20.2619 16.6166 20.2741 16.6091 20.2862C16.6018 20.298 16.5943 20.3098 16.5868 20.3214C16.5795 20.3329 16.5721 20.3443 16.5646 20.3555C16.5573 20.3665 16.5499 20.3773 16.5424 20.3881C16.5351 20.3987 16.5276 20.4091 16.5201 20.4196C16.5128 20.4298 16.5054 20.44 16.4979 20.4502C16.4906 20.4601 16.4832 20.4699 16.4757 20.4797C16.4683 20.4892 16.4609 20.4987 16.4534 20.5081C16.4461 20.5174 16.4387 20.5267 16.4312 20.5359C16.4239 20.5449 16.4164 20.5538 16.409 20.5626C16.4016 20.5714 16.3942 20.58 16.3867 20.5887C16.3793 20.5972 16.372 20.6057 16.3645 20.6141C16.3572 20.6223 16.3497 20.6304 16.3423 20.6385C16.3349 20.6466 16.3275 20.6546 16.32 20.6625C16.3127 20.6703 16.3052 20.678 16.2978 20.6857C16.2904 20.6933 16.283 20.7008 16.2756 20.7083C16.2682 20.7157 16.2608 20.7231 16.2533 20.7304C16.246 20.7376 16.2385 20.7447 16.2311 20.7517C16.2237 20.7588 16.2163 20.7658 16.2089 20.7728C16.2015 20.7796 16.1941 20.7862 16.1866 20.793C16.1792 20.7996 16.1719 20.8064 16.1644 20.813C16.1571 20.8194 16.1496 20.8257 16.1422 20.8321C16.1348 20.8384 16.1274 20.8449 16.1199 20.8511C16.1126 20.8573 16.1051 20.8633 16.0977 20.8693C16.0903 20.8754 16.0829 20.8814 16.0754 20.8874C16.0681 20.8932 16.0606 20.8989 16.0532 20.9047C16.0458 20.9104 16.0385 20.9162 16.031 20.9219C16.0236 20.9274 16.0162 20.9328 16.0087 20.9383C16.0013 20.9438 15.994 20.9493 15.9865 20.9547C15.9792 20.96 15.9717 20.9651 15.9643 20.9703C15.9569 20.9756 15.9495 20.9808 15.942 20.9859C15.9347 20.991 15.9272 20.9959 15.9198 21.0008C15.9124 21.0058 15.905 21.0108 15.8976 21.0157C15.8902 21.0205 15.8827 21.0251 15.8753 21.0298C15.8679 21.0345 15.8606 21.0392 15.8531 21.0439C15.8457 21.0484 15.8383 21.0528 15.8309 21.0573C15.8235 21.0618 15.8161 21.0663 15.8086 21.0707C15.8013 21.075 15.7938 21.0792 15.7864 21.0835C15.779 21.0877 15.7716 21.0919 15.7642 21.0961C15.7568 21.1002 15.7494 21.1043 15.7419 21.1083L15.7197 21.1203C15.7123 21.1242 15.7049 21.1281 15.6975 21.1319C15.6901 21.1357 15.6827 21.1394 15.6752 21.1432C15.6678 21.1469 15.6605 21.1507 15.653 21.1543C15.6456 21.1579 15.6382 21.1614 15.6308 21.1649C15.6233 21.1684 15.616 21.172 15.6085 21.1755C15.6012 21.1789 15.5937 21.1821 15.5863 21.1855L15.564 21.1954L15.5418 21.2049C15.5344 21.2081 15.527 21.2111 15.5196 21.2142C15.5122 21.2172 15.5048 21.2203 15.4973 21.2233C15.49 21.2263 15.4825 21.229 15.4751 21.2319C15.4677 21.2347 15.4603 21.2377 15.4529 21.2405C15.4455 21.2432 15.4381 21.2459 15.4307 21.2486L15.4084 21.2565L15.3862 21.2643C15.3788 21.2668 15.3714 21.2692 15.364 21.2716C15.3565 21.274 15.3492 21.2766 15.3417 21.2789C15.3343 21.2813 15.3269 21.2834 15.3195 21.2857L15.2973 21.2924L15.275 21.2989C15.2676 21.301 15.2602 21.3029 15.2528 21.305C15.2454 21.307 15.238 21.3091 15.2305 21.3111C15.2232 21.313 15.2157 21.3147 15.2083 21.3166C15.2009 21.3184 15.1935 21.3203 15.1861 21.3221L15.1638 21.3273L15.1416 21.3322C15.1342 21.3338 15.1268 21.3356 15.1194 21.3371C15.112 21.3387 15.1045 21.34 15.0971 21.3414C15.0897 21.3429 15.0823 21.3444 15.0749 21.3458L15.0527 21.3498C15.0453 21.3512 15.0379 21.3523 15.0304 21.3536C15.023 21.3548 15.0156 21.3562 15.0082 21.3573C15.0008 21.3585 14.9934 21.3595 14.986 21.3606L14.9637 21.3637C14.9563 21.3647 14.9489 21.3658 14.9415 21.3667C14.9341 21.3676 14.9267 21.3684 14.9193 21.3693C14.9118 21.3702 14.9045 21.3711 14.897 21.3719C14.8896 21.3727 14.8822 21.3733 14.8748 21.3741L14.8526 21.3761C14.8451 21.3767 14.8378 21.3775 14.8303 21.378C14.8229 21.3786 14.8155 21.379 14.8081 21.3795L14.7859 21.3809L14.7636 21.3821C14.7562 21.3825 14.7488 21.3827 14.7414 21.383C14.734 21.3832 14.7266 21.3836 14.7191 21.3838C14.7118 21.384 14.7043 21.3841 14.6969 21.3843L14.6747 21.3845C14.6678 21.3846 14.661 21.3848 14.6541 21.3848H14.6524H14.6302H14.608H14.5857H14.5635H14.5413H14.519H14.4968H14.4746H14.4523H14.4301H14.4079H14.3856H14.3634H14.3412H14.3189H14.2967H14.2745H14.2522H14.23H14.2078H14.1855H14.1633H14.1411H14.1188H14.0966H14.0744H14.0521H14.0299H14.0077H13.9854H13.9632H13.941H13.9187H13.8965H13.8742H13.852H13.8298H13.8075H13.7853H13.7631H13.7408H13.7186H13.6964H13.6741H13.6519H13.6297H13.6074H13.5852H13.563H13.5407H13.5185H13.4963H13.474H13.4518H13.4296H13.4073H13.3851H13.3628H13.3406H13.3184H13.2961H13.2739H13.2517H13.2294H13.2072H13.185H13.1627H13.1405H13.1183H13.096H13.0738H13.0516H13.0293H13.0071H12.9849H12.9626H12.9404H12.9182H12.8959H12.8737H12.8515H12.8292H12.807H12.7848H12.7625H12.7403H12.7181H12.6958H12.6736H12.6514H12.6291H12.6069H12.5847H12.5624H12.5402H12.5179H12.4957H12.4735H12.4512H12.429H12.4068H12.3845H12.3623H12.3401H12.3178H12.2956H12.2734H12.2511H12.2289H12.2067H12.1844H12.1622H12.14H12.1177H12.0955H12.0733H12.051H12.0288H12.0066H11.9843H11.9621H11.9399H11.9176H11.8954H11.8732H11.8509H11.8287H11.8065H11.7842H11.762H11.7398H11.7175H11.6953H11.673H11.6508H11.6286H11.6063H11.5841H11.5619H11.5396H11.5174H11.4952H11.4729H11.4507H11.4285H11.4062H11.384H11.3618H11.3395H11.3173H11.2695V16.4455C11.2695 16.4455 11.286 16.45 11.3173 16.4581L11.3395 16.4637L11.3618 16.4692L11.384 16.4746L11.4062 16.48L11.4285 16.4852L11.4507 16.4904L11.4729 16.4955L11.4952 16.5005L11.5174 16.5055L11.5396 16.5104L11.5619 16.5152L11.5841 16.52L11.6063 16.5247L11.6286 16.5293L11.6508 16.5339L11.673 16.5384L11.6953 16.5428L11.7175 16.5472L11.7398 16.5516L11.762 16.5559L11.7842 16.5601L11.8065 16.5643L11.8287 16.5684L11.8509 16.5725L11.8732 16.5765L11.8954 16.5805L11.9176 16.5844L11.9399 16.5882L11.9621 16.592L11.9843 16.5958L12.0066 16.5995L12.0288 16.6032L12.051 16.6068L12.0733 16.6103L12.0955 16.6138L12.1177 16.6173L12.14 16.6207L12.1622 16.624L12.1844 16.6273L12.2067 16.6306L12.2289 16.6338L12.2511 16.637L12.2734 16.6401L12.2956 16.6431L12.3178 16.6461L12.3401 16.6491L12.3623 16.652L12.3845 16.6549L12.4068 16.6577L12.429 16.6605L12.4512 16.6632L12.4735 16.6659L12.4957 16.6685L12.5179 16.671L12.5402 16.6736L12.5624 16.6761L12.5847 16.6785L12.6069 16.6809L12.6291 16.6832L12.6514 16.6855L12.6736 16.6877L12.6958 16.6899L12.7181 16.6921L12.7403 16.6941L12.7625 16.6962L12.7848 16.6982L12.807 16.7001L12.8292 16.702L12.8515 16.7038L12.8737 16.7057L12.8959 16.7074L12.9182 16.7091L12.9404 16.7107L12.9626 16.7123L12.9849 16.7139L13.0071 16.7154L13.0293 16.7168L13.0516 16.7182L13.0738 16.7196L13.096 16.7209L13.1183 16.7221L13.1405 16.7233L13.1627 16.7245L13.185 16.7255L13.2072 16.7266L13.2294 16.7276L13.2517 16.7285L13.2739 16.7294L13.2961 16.7302L13.3184 16.731L13.3406 16.7318L13.3628 16.7324L13.3851 16.7331L13.4073 16.7337L13.4296 16.7342L13.4518 16.7347L13.474 16.7351L13.4963 16.7355L13.5185 16.7358L13.5407 16.736L13.563 16.7363L13.5852 16.7364L13.6074 16.7365L13.6297 16.7366L13.6382 16.7366L13.6519 16.7365L13.6741 16.7364L13.6964 16.7363L13.7186 16.7361L13.7408 16.736L13.7631 16.7356L13.7853 16.7352L13.8075 16.7348L13.8298 16.7343L13.852 16.7338L13.8742 16.7331L13.8965 16.7324L13.9187 16.7317L13.941 16.7309L13.9632 16.7299L13.9854 16.7289L14.0077 16.7279L14.0299 16.7269L14.0521 16.7257L14.0744 16.7244L14.0966 16.7231L14.1188 16.7218L14.1411 16.7203L14.1633 16.7186L14.1855 16.717L14.2078 16.7154L14.23 16.7136L14.2522 16.7116L14.2745 16.7097L14.2967 16.7077L14.3189 16.7056L14.3412 16.7033L14.3634 16.701L14.3856 16.6987L14.4079 16.6962L14.4301 16.6935L14.4523 16.6909L14.4746 16.6882L14.4968 16.6853L14.519 16.6823L14.5413 16.6793L14.5635 16.6762C14.571 16.6751 14.5783 16.6739 14.5857 16.6728L14.608 16.6694L14.6302 16.666L14.6524 16.6624C14.6599 16.6612 14.6672 16.6599 14.6747 16.6586L14.6969 16.6548C14.7043 16.6535 14.7118 16.6523 14.7191 16.651C14.7266 16.6497 14.7339 16.6482 14.7414 16.6468L14.7636 16.6426L14.7859 16.6384L14.8081 16.634C14.8156 16.6325 14.8229 16.6308 14.8303 16.6293L14.8526 16.6247L14.8748 16.6199C14.8823 16.6183 14.8896 16.6165 14.897 16.6149L14.9193 16.6098C14.9266 16.608 14.9342 16.6064 14.9415 16.6047C14.949 16.6029 14.9563 16.601 14.9637 16.5992L14.986 16.5936C14.9933 16.5917 15.0009 16.5899 15.0082 16.588C15.0157 16.5861 15.023 16.5841 15.0304 16.5821L15.0527 16.5761C15.0601 16.5741 15.0676 16.5721 15.0749 16.57C15.0824 16.5679 15.0897 16.5658 15.0971 16.5636L15.1194 16.5571C15.1268 16.5549 15.1343 16.5528 15.1416 16.5505L15.1638 16.5436L15.1861 16.5365C15.1935 16.5342 15.201 16.5318 15.2083 16.5294L15.2305 16.5219L15.2528 16.5143C15.2602 16.5117 15.2677 16.5092 15.275 16.5066C15.2825 16.5039 15.2898 16.5011 15.2973 16.4984L15.3195 16.4902C15.3269 16.4874 15.3344 16.4847 15.3417 16.4818C15.3492 16.4789 15.3565 16.4759 15.364 16.473C15.3714 16.4701 15.3788 16.4671 15.3862 16.4641L15.4084 16.455L15.4307 16.4455C15.438 16.4423 15.4456 16.4392 15.4529 16.436C15.4604 16.4327 15.4677 16.4292 15.4751 16.4258L15.4973 16.4157L15.5196 16.4052C15.5271 16.4016 15.5344 16.398 15.5418 16.3943C15.5492 16.3907 15.5568 16.3871 15.564 16.3834C15.5716 16.3796 15.5789 16.3756 15.5863 16.3718C15.5937 16.3679 15.6012 16.3641 15.6085 16.3602C15.616 16.3561 15.6234 16.352 15.6308 16.348C15.6382 16.3438 15.6456 16.3397 15.653 16.3356C15.6605 16.3313 15.6679 16.327 15.6752 16.3228C15.6827 16.3184 15.6901 16.3139 15.6975 16.3095C15.7049 16.305 15.7124 16.3005 15.7197 16.296C15.7272 16.2913 15.7346 16.2866 15.7419 16.2819C15.7494 16.2771 15.7569 16.2724 15.7642 16.2676C15.7717 16.2626 15.779 16.2575 15.7864 16.2525C15.7938 16.2474 15.8013 16.2424 15.8086 16.2373C15.8162 16.232 15.8235 16.2266 15.8309 16.2212C15.8383 16.2158 15.8458 16.2104 15.8531 16.205C15.8606 16.1993 15.868 16.1936 15.8753 16.1879C15.8828 16.1821 15.8903 16.1762 15.8976 16.1704C15.9051 16.1644 15.9125 16.1583 15.9198 16.1522C15.9273 16.1459 15.9347 16.1396 15.942 16.1333C15.9495 16.1268 15.957 16.1204 15.9643 16.1139C15.9718 16.1071 15.9791 16.1002 15.9865 16.0934C15.994 16.0865 16.0015 16.0795 16.0087 16.0725C16.0163 16.0652 16.0237 16.0578 16.031 16.0505C16.0385 16.0429 16.0459 16.0352 16.0532 16.0276C16.0607 16.0197 16.0682 16.0119 16.0754 16.004C16.083 15.9957 16.0903 15.9873 16.0977 15.9789C16.1052 15.9702 16.1126 15.9615 16.1199 15.9527C16.1274 15.9437 16.1349 15.9347 16.1422 15.9255C16.1497 15.916 16.1571 15.9065 16.1644 15.8969C16.172 15.8868 16.1793 15.8767 16.1866 15.8665C16.1942 15.8559 16.2016 15.8452 16.2089 15.8344C16.2164 15.8232 16.2238 15.8119 16.2311 15.8005C16.2387 15.7886 16.2461 15.7766 16.2533 15.7645C16.2609 15.7517 16.2684 15.7388 16.2756 15.7258C16.2832 15.7121 16.2906 15.6983 16.2978 15.6843C16.3055 15.6694 16.3129 15.6544 16.32 15.6392C16.3277 15.623 16.3351 15.6065 16.3423 15.59C16.35 15.5721 16.3574 15.554 16.3645 15.5357C16.3723 15.5156 16.3797 15.4953 16.3867 15.4749C16.3947 15.4517 16.402 15.4282 16.409 15.4046C16.417 15.3769 16.4244 15.349 16.4312 15.3208C16.4396 15.2859 16.447 15.2505 16.4534 15.2148C16.463 15.1615 16.4703 15.1074 16.4757 15.0527C16.4831 14.9763 16.4868 14.8985 16.4868 14.8195V12.1001H16.4757H16.4534H16.4312H16.409H16.3867H16.3645H16.3423H16.32H16.2978H16.2756H16.2533H16.2311H16.2089H16.1866H16.1644H16.1422H16.1199H16.0977H16.0754H16.0532H16.031H16.0087H15.9865H15.9643H15.942H15.9198H15.8976H15.8753H15.8531H15.8309H15.8086H15.7864H15.7642H15.7419H15.7197H15.6975H15.6752H15.653H15.6308H15.6085H15.5863H15.564H15.5418H15.5196H15.4973H15.4751H15.4529H15.4307H15.4084H15.3862H15.364H15.3417H15.3195H15.2973H15.275H15.2528H15.2305H15.2083H15.1861H15.1638H15.1416H15.1194H15.0971H15.0749H15.0527H15.0304H15.0082H14.986H14.9637H14.9415H14.9193H14.897H14.8748H14.8526H14.8303H14.8081H14.7859H14.7636H14.7414H14.7191H14.6969H14.6747H14.6524H14.6302H14.608H14.5857H14.5635H14.5413H14.519H14.5022V14.8195C14.5022 14.8621 14.5004 14.9039 14.4968 14.945C14.4923 14.9974 14.4848 15.0484 14.4746 15.098C14.4682 15.1286 14.4608 15.1587 14.4523 15.1882C14.4456 15.2117 14.4382 15.2349 14.4301 15.2576C14.4232 15.277 14.4158 15.296 14.4079 15.3148C14.4008 15.3316 14.3934 15.3481 14.3856 15.3643C14.3785 15.3791 14.3712 15.3938 14.3634 15.4082C14.3563 15.4214 14.3488 15.4344 14.3412 15.4472C14.334 15.4593 14.3266 15.4713 14.3189 15.483C14.3117 15.4941 14.3043 15.5049 14.2967 15.5157C14.2895 15.5259 14.2821 15.536 14.2745 15.546C14.2672 15.5554 14.2598 15.5647 14.2522 15.5739C14.245 15.5827 14.2376 15.5913 14.23 15.5999C14.2227 15.6082 14.2153 15.6163 14.2078 15.6243C14.2005 15.632 14.1931 15.6397 14.1855 15.6472C14.1782 15.6545 14.1708 15.6617 14.1633 15.6687C14.156 15.6755 14.1486 15.6822 14.1411 15.6889C14.1338 15.6953 14.1263 15.7017 14.1188 15.7079C14.1115 15.714 14.1041 15.72 14.0966 15.7259C14.0893 15.7316 14.0818 15.7373 14.0744 15.7429C14.067 15.7483 14.0596 15.7537 14.0521 15.7589C14.0448 15.7641 14.0374 15.7691 14.0299 15.7741C14.0226 15.779 14.0151 15.7838 14.0077 15.7885C14.0003 15.7932 13.9929 15.7977 13.9854 15.8022C13.9781 15.8065 13.9707 15.8108 13.9632 15.815C13.9559 15.8192 13.9484 15.8232 13.941 15.8272C13.9336 15.8312 13.9262 15.835 13.9187 15.8388C13.9114 15.8425 13.904 15.8462 13.8965 15.8498C13.8891 15.8533 13.8817 15.8568 13.8742 15.8602C13.8669 15.8635 13.8595 15.8668 13.852 15.87C13.8447 15.8732 13.8372 15.8762 13.8298 15.8792C13.8224 15.8822 13.815 15.8851 13.8075 15.888C13.8002 15.8908 13.7928 15.8935 13.7853 15.8962C13.7779 15.8989 13.7705 15.9015 13.7631 15.9041C13.7557 15.9066 13.7483 15.909 13.7408 15.9114C13.7335 15.9137 13.726 15.916 13.7186 15.9182C13.7112 15.9204 13.7038 15.9226 13.6964 15.9247C13.689 15.9267 13.6816 15.9288 13.6741 15.9308C13.6668 15.9327 13.6594 15.9346 13.6519 15.9364C13.6445 15.9382 13.6371 15.9399 13.6297 15.9416C13.6223 15.9433 13.6149 15.9449 13.6074 15.9465C13.6001 15.948 13.5927 15.9496 13.5852 15.951C13.5778 15.9524 13.5704 15.9538 13.563 15.9551C13.5556 15.9564 13.5482 15.9577 13.5407 15.9589L13.5185 15.9624C13.5111 15.9635 13.5037 15.9645 13.4963 15.9655C13.4889 15.9665 13.4815 15.9674 13.474 15.9683L13.4518 15.9708C13.4444 15.9716 13.437 15.9723 13.4296 15.973C13.4222 15.9736 13.4148 15.9743 13.4073 15.9749C13.4 15.9755 13.3925 15.976 13.3851 15.9765C13.3777 15.977 13.3703 15.9774 13.3628 15.9778C13.3554 15.9782 13.3481 15.9786 13.3406 15.9789C13.3333 15.9792 13.3258 15.9793 13.3184 15.9796L13.2961 15.9801C13.2888 15.9802 13.2814 15.9803 13.2739 15.9803L13.2656 15.9804L13.2517 15.9803L13.2294 15.9802L13.2072 15.9799L13.185 15.9794L13.1627 15.9788L13.1405 15.9781L13.1183 15.9771L13.096 15.9761L13.0738 15.975L13.0516 15.9736L13.0293 15.9721L13.0071 15.9705L12.9849 15.9688L12.9626 15.9669L12.9404 15.9649L12.9182 15.9627L12.8959 15.9604L12.8737 15.9579L12.8515 15.9554L12.8292 15.9526L12.807 15.9498L12.7848 15.9468L12.7625 15.9437L12.7403 15.9404L12.7181 15.937L12.6958 15.9335L12.6736 15.9298L12.6514 15.926L12.6291 15.9221L12.6069 15.918L12.5847 15.9138L12.5624 15.9095L12.5402 15.9051L12.5179 15.9005L12.4957 15.8958L12.4735 15.891L12.4512 15.886L12.429 15.8809L12.4068 15.8757L12.3845 15.8703L12.3623 15.8649L12.3401 15.8593L12.3178 15.8536L12.2956 15.8477L12.2734 15.8418L12.2511 15.8357L12.2289 15.8295L12.2067 15.8232L12.1844 15.8167L12.1622 15.8102L12.14 15.8035L12.1177 15.7967L12.0955 15.7898L12.0733 15.7827L12.051 15.7755L12.0288 15.7683L12.0066 15.7609L11.9843 15.7534L11.9621 15.7458L11.9399 15.7381L11.9176 15.7302L11.8954 15.7222L11.8732 15.7142L11.8509 15.706L11.8287 15.6977L11.8065 15.6893L11.7842 15.6808L11.762 15.6722L11.7398 15.6635L11.7175 15.6546L11.6953 15.6457L11.673 15.6366L11.6508 15.6275L11.6286 15.6182L11.6063 15.6089L11.5841 15.5994L11.5619 15.5898L11.5396 15.5801L11.5174 15.5704L11.4952 15.5604L11.4729 15.5505L11.4507 15.5404L11.4285 15.5302L11.4062 15.5199L11.384 15.5095L11.3618 15.4991L11.3395 15.4885L11.3173 15.4778V15.4778Z" fill="url(#paint1_linear_1261_8695)"/>
<path fill-rule="evenodd" clip-rule="evenodd" d="M17.7015 12.6943C17.6853 12.7076 17.6694 12.7211 17.6538 12.7346V9.6662C17.6538 9.50302 17.6703 9.34374 17.7015 9.18994C17.7083 9.15692 17.7157 9.1242 17.7238 9.09171C17.7307 9.06383 17.7381 9.03618 17.746 9.00871C17.7531 8.98424 17.7605 8.95994 17.7683 8.93581C17.7754 8.91376 17.7828 8.89182 17.7905 8.87007C17.7977 8.84992 17.805 8.82986 17.8127 8.80996C17.8199 8.79136 17.8273 8.77286 17.835 8.75448C17.8422 8.73716 17.8496 8.71995 17.8572 8.70283C17.8644 8.68657 17.8719 8.67043 17.8794 8.65438C17.8867 8.63904 17.8941 8.62386 17.9017 8.60871C17.9089 8.59416 17.9164 8.57972 17.9239 8.56534C17.9312 8.55148 17.9386 8.53772 17.9461 8.52403C17.9534 8.51078 17.9608 8.49758 17.9684 8.48449C17.9757 8.47178 17.9831 8.45912 17.9906 8.44656C17.9979 8.43443 18.0053 8.42237 18.0128 8.41039C18.0201 8.39873 18.0276 8.3872 18.0351 8.37569C18.0424 8.36442 18.0498 8.35323 18.0573 8.34211C18.0647 8.33119 18.072 8.32028 18.0796 8.30952C18.0868 8.2991 18.0943 8.28884 18.1018 8.27856C18.1091 8.26844 18.1165 8.25837 18.124 8.24838C18.1314 8.23853 18.1387 8.22867 18.1463 8.21896C18.1535 8.20953 18.1611 8.20023 18.1685 8.19091C18.1759 8.1817 18.1833 8.17254 18.1907 8.16346C18.1981 8.1545 18.2055 8.14557 18.213 8.13674C18.2203 8.12812 18.2278 8.11961 18.2352 8.11109C18.2426 8.10266 18.25 8.09418 18.2574 8.08584C18.2648 8.07768 18.2722 8.06962 18.2797 8.06158C18.287 8.05363 18.2944 8.04573 18.3019 8.03788C18.3093 8.03013 18.3167 8.02239 18.3241 8.01474C18.3315 8.00724 18.3389 7.99983 18.3464 7.99243C18.3538 7.98506 18.3611 7.97764 18.3686 7.97036C18.3759 7.96325 18.3834 7.95632 18.3908 7.94931C18.3982 7.94231 18.4056 7.9353 18.4131 7.92842C18.4204 7.92167 18.4279 7.91503 18.4353 7.90837C18.4427 7.90174 18.4501 7.89512 18.4575 7.88859C18.4649 7.88216 18.4723 7.87584 18.4798 7.86951C18.4872 7.86323 18.4946 7.85694 18.502 7.85074C18.5094 7.84463 18.5168 7.83857 18.5242 7.83255C18.5316 7.82657 18.539 7.82063 18.5465 7.81474C18.5539 7.80893 18.5613 7.80317 18.5687 7.79743C18.5761 7.79175 18.5835 7.78609 18.5909 7.7805C18.5983 7.77495 18.6058 7.76948 18.6132 7.76402C18.6206 7.75862 18.628 7.75322 18.6354 7.7479C18.6428 7.74263 18.6502 7.73744 18.6577 7.73224C18.665 7.72709 18.6725 7.72195 18.6799 7.71689C18.6873 7.71188 18.6947 7.70695 18.7021 7.70202C18.7095 7.69711 18.7169 7.69219 18.7244 7.68737C18.7317 7.68261 18.7392 7.67796 18.7466 7.67327C18.754 7.66861 18.7614 7.66388 18.7688 7.65931C18.7762 7.65477 18.7837 7.65038 18.7911 7.64594C18.7985 7.64149 18.8059 7.63696 18.8133 7.63261C18.8207 7.62831 18.8282 7.62419 18.8356 7.61997C18.843 7.61575 18.8503 7.6115 18.8578 7.60737C18.8651 7.60328 18.8726 7.59935 18.88 7.59533C18.8874 7.59134 18.8948 7.58733 18.9023 7.58341L18.9245 7.57192L18.9467 7.56068C18.9541 7.55701 18.9615 7.5533 18.969 7.5497C18.9763 7.54612 18.9838 7.54265 18.9912 7.53914C18.9986 7.53565 19.006 7.53205 19.0134 7.52864C19.0208 7.52525 19.0283 7.52206 19.0357 7.51876C19.0431 7.51546 19.0505 7.5121 19.0579 7.50888C19.0653 7.50569 19.0727 7.5026 19.0801 7.49949L19.1024 7.49026C19.1098 7.48724 19.1172 7.48422 19.1246 7.48128C19.132 7.47836 19.1394 7.47554 19.1468 7.47269C19.1543 7.46984 19.1616 7.4669 19.1691 7.46412C19.1764 7.46139 19.1839 7.45884 19.1913 7.45617C19.1987 7.45351 19.2061 7.45081 19.2135 7.44822C19.2209 7.44564 19.2284 7.44316 19.2358 7.44067L19.258 7.43334C19.2654 7.43094 19.2728 7.42848 19.2803 7.42614C19.2876 7.42383 19.2951 7.42166 19.3025 7.41943C19.3099 7.41718 19.3173 7.41487 19.3247 7.41269C19.3321 7.41054 19.3395 7.40853 19.347 7.40645L19.3692 7.40032C19.3766 7.39833 19.384 7.39631 19.3914 7.39439C19.3988 7.3925 19.4063 7.39072 19.4137 7.38888C19.4211 7.38705 19.4285 7.38513 19.4359 7.38337C19.4433 7.38163 19.4507 7.38 19.4581 7.37833L19.4804 7.37341C19.4878 7.37182 19.4952 7.37017 19.5026 7.36865C19.51 7.36713 19.5174 7.36576 19.5249 7.36432C19.5323 7.36288 19.5396 7.36136 19.5471 7.35999L19.5693 7.35609L19.5916 7.35236C19.599 7.35114 19.6064 7.34985 19.6138 7.3487C19.6212 7.34756 19.6286 7.3466 19.636 7.34553C19.6434 7.34448 19.6508 7.34338 19.6583 7.34238L19.6805 7.33955L19.7027 7.33697C19.7101 7.33612 19.7175 7.33515 19.725 7.33438C19.7324 7.33361 19.7398 7.33305 19.7472 7.33235L19.7694 7.33037C19.7768 7.32973 19.7842 7.32911 19.7917 7.32857C19.7991 7.32802 19.8065 7.32759 19.8139 7.32712C19.8213 7.32665 19.8287 7.32611 19.8361 7.3257C19.8435 7.32528 19.851 7.325 19.8584 7.32467L19.8806 7.3238C19.888 7.32354 19.8954 7.32315 19.9029 7.32296C19.9102 7.32277 19.9177 7.32279 19.9251 7.32268C19.9325 7.32257 19.9399 7.32243 19.9473 7.3224L19.9571 7.32227H19.9696H19.9918H20.014H20.0363H20.0585H20.0807H20.103H20.1252H20.1475H20.1697H20.1919H20.2142H20.2364H20.2586H20.2809H20.3031H20.3253H20.3476H20.3698H20.392H20.4143H20.4365H20.4587H20.481H20.5032H20.5255H20.5477H20.5699H20.5922H20.6144H20.6366H20.6589H20.6811H20.7033H20.7256H20.7478H20.77H20.7923H20.8145H20.8368H20.859H20.8812H20.9035H20.9257H20.9479H20.9702H20.9924H21.0146H21.0369H21.0591H21.0813H21.1036H21.1258H21.148H21.1703H21.1925H21.2148H21.237H21.2592H21.2815H21.3037H21.3259H21.3482H21.3704H21.3926H21.4149H21.4371H21.4593H21.4816H21.5038H21.526H21.5483H21.5705H21.5927H21.615H21.6372H21.6595H21.6817H21.7039H21.7262H21.7484H21.7706H21.7929H21.8151H21.8373H21.8596H21.8818H21.9041H21.9263H21.9485H21.9708H21.993H22.0152H22.0375H22.0597H22.0819H22.1042H22.1264H22.1486H22.1709H22.1931H22.2153H22.2376H22.2598H22.2821H22.3043H22.3265H22.3488H22.371H22.3932H22.4155H22.4377H22.4599H22.4822H22.5044H22.5266H22.5489H22.5711H22.5934H22.6156H22.6378H22.6601H22.6823H22.7045H22.7268H22.749H22.7712H22.7935H22.8157H22.8379H22.8602H22.8824H22.9046H22.9269H22.9491H22.9714H22.9936H23.0158H23.0381H23.0603H23.0825H23.1048H23.127H23.1492H23.1715H23.1937H23.216H23.2382H23.2604H23.2827H23.3049H23.3271H23.346V19.0411C23.346 19.143 23.3396 19.2433 23.3271 19.3418C23.3211 19.3892 23.3136 19.4361 23.3049 19.4826C23.2983 19.518 23.2909 19.5531 23.2827 19.5879C23.2757 19.6172 23.2684 19.6463 23.2604 19.6752C23.2534 19.7005 23.246 19.7257 23.2382 19.7506C23.2311 19.7732 23.2237 19.7957 23.216 19.818C23.2088 19.8386 23.2014 19.8592 23.1937 19.8795C23.1865 19.8985 23.1791 19.9174 23.1715 19.9362C23.1643 19.9539 23.1569 19.9715 23.1492 19.989C23.142 20.0056 23.1346 20.022 23.127 20.0384C23.1198 20.054 23.1124 20.0696 23.1048 20.085C23.0975 20.0998 23.0901 20.1145 23.0825 20.1291C23.0752 20.1432 23.0679 20.1572 23.0603 20.1712C23.053 20.1846 23.0456 20.198 23.0381 20.2113C23.0308 20.2241 23.0234 20.2369 23.0158 20.2495C23.0085 20.2618 23.0011 20.2739 22.9936 20.2861C22.9863 20.2979 22.9789 20.3096 22.9714 20.3213C22.964 20.3327 22.9567 20.3441 22.9491 20.3554C22.9418 20.3663 22.9344 20.3772 22.9269 20.388C22.9196 20.3985 22.9121 20.409 22.9046 20.4194C22.8973 20.4297 22.8899 20.4399 22.8824 20.4501C22.8751 20.4599 22.8677 20.4697 22.8602 20.4795C22.8529 20.4891 22.8454 20.4985 22.8379 20.508C22.8306 20.5173 22.8232 20.5266 22.8157 20.5358C22.8084 20.5448 22.8009 20.5536 22.7935 20.5625C22.7861 20.5713 22.7787 20.5799 22.7712 20.5885C22.7639 20.597 22.7565 20.6056 22.749 20.614C22.7417 20.6222 22.7342 20.6303 22.7268 20.6384C22.7194 20.6464 22.712 20.6545 22.7045 20.6625C22.6972 20.6702 22.6897 20.6779 22.6823 20.6856C22.6749 20.6931 22.6676 20.7007 22.6601 20.7082C22.6527 20.7156 22.6453 20.7229 22.6378 20.7303C22.6305 20.7374 22.623 20.7445 22.6156 20.7516C22.6082 20.7586 22.6008 20.7657 22.5934 20.7727C22.586 20.7795 22.5785 20.7861 22.5711 20.7929C22.5637 20.7996 22.5564 20.8063 22.5489 20.8129C22.5415 20.8194 22.5341 20.8257 22.5266 20.832C22.5192 20.8384 22.5119 20.8448 22.5044 20.851C22.4971 20.8572 22.4896 20.8632 22.4822 20.8692C22.4748 20.8752 22.4674 20.8813 22.4599 20.8873C22.4526 20.8931 22.4451 20.8988 22.4377 20.9046C22.4303 20.9103 22.4229 20.9161 22.4155 20.9218C22.4081 20.9273 22.4007 20.9328 22.3932 20.9382C22.3858 20.9437 22.3785 20.9492 22.371 20.9546C22.3636 20.9599 22.3562 20.965 22.3488 20.9702C22.3414 20.9755 22.334 20.9807 22.3265 20.9858C22.3192 20.9909 22.3117 20.9958 22.3043 21.0007C22.2969 21.0057 22.2895 21.0107 22.2821 21.0156C22.2747 21.0204 22.2672 21.025 22.2598 21.0297C22.2524 21.0344 22.2451 21.0392 22.2376 21.0438C22.2302 21.0483 22.2228 21.0527 22.2153 21.0572C22.2079 21.0617 22.2006 21.0662 22.1931 21.0706C22.1857 21.0749 22.1783 21.0791 22.1709 21.0834L22.1486 21.096L22.1264 21.1083L22.1042 21.1202C22.0968 21.1241 22.0894 21.128 22.0819 21.1319C22.0746 21.1357 22.0671 21.1394 22.0597 21.1431C22.0523 21.1468 22.0449 21.1506 22.0375 21.1543C22.0301 21.1579 22.0226 21.1613 22.0152 21.1648C22.0078 21.1684 22.0004 21.172 21.993 21.1754C21.9856 21.1788 21.9782 21.1821 21.9708 21.1854L21.9485 21.1953L21.9263 21.2049L21.9041 21.2141C21.8966 21.2172 21.8893 21.2203 21.8818 21.2233C21.8744 21.2262 21.867 21.229 21.8596 21.2318C21.8522 21.2347 21.8448 21.2376 21.8373 21.2404C21.83 21.2432 21.8225 21.2458 21.8151 21.2485L21.7929 21.2565L21.7706 21.2642C21.7633 21.2667 21.7558 21.2691 21.7484 21.2716C21.741 21.274 21.7336 21.2765 21.7262 21.2789C21.7188 21.2812 21.7113 21.2834 21.7039 21.2857L21.6817 21.2924L21.6595 21.2988C21.6521 21.3009 21.6446 21.3029 21.6372 21.3049C21.6298 21.3069 21.6225 21.3091 21.615 21.311C21.6076 21.313 21.6002 21.3147 21.5927 21.3165C21.5853 21.3184 21.5779 21.3203 21.5705 21.322L21.5483 21.3273L21.526 21.3322C21.5186 21.3338 21.5113 21.3355 21.5038 21.3371C21.4964 21.3386 21.489 21.34 21.4816 21.3414L21.4593 21.3457L21.4371 21.3498C21.4297 21.3511 21.4223 21.3523 21.4149 21.3536C21.4075 21.3548 21.4001 21.3561 21.3926 21.3573C21.3852 21.3585 21.3778 21.3594 21.3704 21.3605L21.3482 21.3637C21.3408 21.3647 21.3334 21.3658 21.3259 21.3667C21.3185 21.3676 21.3111 21.3684 21.3037 21.3693C21.2963 21.3701 21.2889 21.3711 21.2815 21.3719C21.2741 21.3726 21.2667 21.3733 21.2592 21.374L21.237 21.3761C21.2296 21.3767 21.2222 21.3775 21.2148 21.378C21.2074 21.3786 21.1999 21.379 21.1925 21.3795L21.1703 21.3809L21.148 21.3821C21.1407 21.3825 21.1332 21.3827 21.1258 21.3829C21.1184 21.3832 21.111 21.3836 21.1036 21.3838C21.0962 21.384 21.0888 21.3841 21.0813 21.3842L21.0591 21.3845C21.0522 21.3846 21.0453 21.3848 21.0383 21.3848H21.0369H21.0146H20.9924H20.9702H20.9479H20.9257H20.9035H20.8812H20.859H20.8368H20.8145H20.7923H20.77H20.7478H20.7256H20.7033H20.6811H20.6589H20.6366H20.6144H20.5922H20.5699H20.5477H20.5255H20.5032H20.481H20.4587H20.4365H20.4143H20.392H20.3698H20.3476H20.3253H20.3031H20.2809H20.2586H20.2364H20.2142H20.1919H20.1697H20.1475H20.1252H20.103H20.0807H20.0585H20.0363H20.014H19.9918H19.9696H19.9473H19.9251H19.9029H19.8806H19.8584H19.8361H19.8139H19.7917H19.7694H19.7472H19.725H19.7027H19.6805H19.6583H19.636H19.6138H19.5916H19.5693H19.5471H19.5249H19.5026H19.4804H19.4581H19.4359H19.4137H19.3914H19.3692H19.347H19.3247H19.3025H19.2803H19.258H19.2358H19.2135H19.1913H19.1691H19.1468H19.1246H19.1024H19.0801H19.0579H19.0357H19.0134H18.9912H18.969H18.9467H18.9245H18.9023H18.88H18.8578H18.8356H18.8133H18.7911H18.7688H18.7466H18.7244H18.7021H18.6799H18.6577H18.6354H18.6132H18.5909H18.5687H18.5465H18.5242H18.502H18.4798H18.4575H18.4353H18.4131H18.3908H18.3686H18.3464H18.3241H18.3019H18.2797H18.2574H18.2352H18.213H18.1907H18.1685H18.1463H18.124H18.1018H18.0796H18.0573H18.0351H18.0128H17.9906H17.9684H17.9461H17.9239H17.9017H17.8794H17.8572H17.835H17.8127H17.7905H17.7683H17.746H17.7238H17.7015H17.6538V15.9734C17.6694 15.9869 17.6853 16.0003 17.7015 16.0136C17.7089 16.0197 17.7163 16.0257 17.7238 16.0316C17.7311 16.0375 17.7385 16.0434 17.746 16.0492C17.7534 16.055 17.7608 16.0607 17.7683 16.0664C17.7756 16.072 17.7831 16.0775 17.7905 16.083C17.7978 16.0884 17.8053 16.0938 17.8127 16.0992C17.8201 16.1045 17.8275 16.1098 17.835 16.1151L17.8572 16.1306C17.8645 16.1356 17.872 16.1406 17.8794 16.1456L17.9017 16.1603C17.909 16.1652 17.9164 16.17 17.9239 16.1748C17.9312 16.1795 17.9387 16.1841 17.9461 16.1888L17.9684 16.2025C17.9758 16.207 17.9832 16.2115 17.9906 16.216C17.998 16.2203 18.0054 16.2247 18.0128 16.229L18.0351 16.2418L18.0573 16.2543L18.0796 16.2666C18.0869 16.2706 18.0943 16.2746 18.1018 16.2786C18.1091 16.2825 18.1166 16.2864 18.124 16.2902L18.1463 16.3017L18.1685 16.3129L18.1907 16.3238C18.1981 16.3274 18.2055 16.3311 18.213 16.3346L18.2352 16.3451L18.2574 16.3554L18.2797 16.3654L18.3019 16.3753L18.3241 16.3849L18.3464 16.3943L18.3686 16.4036L18.3908 16.4126L18.4131 16.4215L18.4353 16.4301C18.4427 16.4329 18.4501 16.4358 18.4575 16.4386L18.4798 16.4469C18.4872 16.4496 18.4945 16.4524 18.502 16.4551C18.5094 16.4578 18.5168 16.4603 18.5242 16.4629L18.5465 16.4708L18.5687 16.4784C18.5761 16.4809 18.5835 16.4835 18.5909 16.4859C18.5983 16.4884 18.6058 16.4907 18.6132 16.4932L18.6354 16.5004L18.6577 16.5073L18.6799 16.5143L18.7021 16.5209L18.7244 16.5275L18.7466 16.5339L18.7688 16.5402L18.7911 16.5464L18.8133 16.5524L18.8356 16.5583L18.8578 16.5641L18.88 16.5698L18.9023 16.5752L18.9245 16.5807L18.9467 16.5859L18.969 16.5911L18.9912 16.5961L19.0134 16.6011L19.0357 16.6059L19.0579 16.6106L19.0801 16.6152L19.1024 16.6197L19.1246 16.6241L19.1468 16.6283L19.1691 16.6325L19.1913 16.6366L19.2135 16.6405L19.2358 16.6444L19.258 16.6482L19.2803 16.6519L19.3025 16.6555L19.3247 16.659L19.347 16.6624L19.3692 16.6657L19.3914 16.6689L19.4137 16.6721L19.4359 16.6751L19.4581 16.6781L19.4804 16.6809L19.5026 16.6837L19.5249 16.6865L19.5471 16.6891L19.5693 16.6916L19.5916 16.6941L19.6138 16.6965L19.636 16.6988L19.6583 16.701L19.6805 16.7031L19.7027 16.7053L19.725 16.7073L19.7472 16.7092L19.7694 16.7111L19.7917 16.7128L19.8139 16.7145L19.8361 16.7163L19.8584 16.7178L19.8806 16.7193L19.9029 16.7208L19.9251 16.7221L19.9473 16.7234L19.9696 16.7247L19.9918 16.7258L20.014 16.7269L20.0363 16.728L20.0585 16.729L20.0807 16.7299L20.103 16.7308L20.1252 16.7315L20.1475 16.7323L20.1697 16.733L20.1919 16.7336L20.2142 16.7342L20.2364 16.7347L20.2586 16.7351L20.2809 16.7355L20.3031 16.7359L20.3253 16.7361L20.3476 16.7363L20.3698 16.7365L20.392 16.7366L20.4143 16.7367L20.4365 16.7367L20.4587 16.7366L20.481 16.7365L20.5032 16.7364L20.5255 16.7362L20.5477 16.7359L20.5699 16.7356L20.5922 16.7353L20.6144 16.7348L20.6366 16.7344L20.6589 16.7339L20.6811 16.7333L20.7033 16.7327L20.7256 16.7321L20.7478 16.7314L20.77 16.7306L20.7923 16.7298L20.8145 16.729L20.8368 16.7281L20.859 16.7272L20.8812 16.7262L20.8921 16.7258L20.9035 16.7252L20.9257 16.7241L20.9479 16.7229L20.9702 16.7217L20.9924 16.7203L21.0146 16.7189L21.0369 16.7174L21.0591 16.7159L21.0813 16.7142L21.1036 16.7125L21.1258 16.7107L21.148 16.7089L21.1703 16.7069L21.1925 16.7049L21.2148 16.7029L21.237 16.7008L21.2592 16.6986L21.2815 16.6963L21.3037 16.6941L21.3259 16.6917L21.3482 16.6893L21.3704 16.6868L21.3926 16.6842L21.4149 16.6816L21.4371 16.6789L21.4593 16.6762L21.4816 16.6734L21.5038 16.6706L21.526 16.6677L21.5483 16.6648L21.5705 16.6618L21.5927 16.6588L21.615 16.6557L21.6372 16.6525L21.6595 16.6493L21.6817 16.6461L21.7039 16.6428L21.7262 16.6394L21.7484 16.636L21.7706 16.6326L21.7929 16.6291L21.8151 16.6255L21.8373 16.6219L21.8596 16.6183L21.8818 16.6146L21.9041 16.6109L21.9263 16.6071L21.9485 16.6033L21.9708 16.5994L21.993 16.5955L22.0152 16.5916L22.0375 16.5876L22.0597 16.5835L22.0819 16.5794L22.1042 16.5753L22.1264 16.5711L22.1486 16.5669L22.1709 16.5626L22.1931 16.5583L22.2153 16.5539L22.2376 16.5495L22.2598 16.5451L22.2821 16.5406L22.3043 16.5361L22.3265 16.5315L22.3488 16.5269L22.371 16.5222L22.3932 16.5175L22.4155 16.5127L22.4377 16.5079L22.4599 16.503L22.4822 16.4981L22.5044 16.4932L22.5266 16.4882L22.5489 16.4831L22.5711 16.478L22.5934 16.4728L22.6156 16.4676L22.6378 16.4623L22.6601 16.4569L22.6823 16.4515L22.7044 16.446V15.4545L22.6823 15.4657L22.6601 15.4769L22.6378 15.4879L22.6156 15.4988L22.5934 15.5097L22.5711 15.5205L22.5489 15.5311L22.5266 15.5416L22.5044 15.552L22.4822 15.5623L22.4599 15.5725L22.4377 15.5826L22.4155 15.5925L22.3932 15.6024L22.371 15.6121L22.3488 15.6217L22.3265 15.6312L22.3043 15.6406L22.2821 15.6498L22.2598 15.6589L22.2376 15.6679L22.2153 15.6768L22.1931 15.6855L22.1709 15.6941L22.1486 15.7026L22.1264 15.711L22.1042 15.7192L22.0819 15.7273L22.0597 15.7353L22.0375 15.7432L22.0152 15.7509L21.993 15.7585L21.9708 15.7659L21.9485 15.7733L21.9263 15.7805L21.9041 15.7876L21.8818 15.7945L21.8596 15.8013L21.8373 15.808L21.8151 15.8146L21.7929 15.8211L21.7706 15.8273L21.7484 15.8335L21.7262 15.8396L21.7039 15.8455L21.6817 15.8513L21.6595 15.857L21.6372 15.8625L21.615 15.8679L21.5927 15.8732L21.5705 15.8784L21.5483 15.8834L21.526 15.8883L21.5038 15.8931L21.4816 15.8977L21.4593 15.9023L21.4371 15.9067L21.4149 15.9109L21.3926 15.9151L21.3704 15.9191L21.3482 15.923L21.3259 15.9268L21.3037 15.9304L21.2815 15.934L21.2592 15.9374L21.237 15.9407L21.2148 15.9439L21.1925 15.9469L21.1703 15.9498L21.148 15.9526L21.1258 15.9553L21.1036 15.9579L21.0813 15.9603L21.0591 15.9627L21.0369 15.9648L21.0146 15.9669L20.9924 15.9689L20.9702 15.9708L20.9567 15.9718L20.9479 15.9724L20.9257 15.974L20.9035 15.9755L20.8812 15.9767L20.859 15.9778L20.8368 15.9789L20.8145 15.9796L20.7923 15.9803L20.77 15.9808L20.7478 15.9812L20.7256 15.9814C20.7181 15.9815 20.7108 15.9814 20.7033 15.9814L20.6811 15.9813L20.6589 15.981L20.6366 15.9805L20.6144 15.9799C20.6069 15.9796 20.5996 15.9793 20.5922 15.979C20.5848 15.9787 20.5773 15.9784 20.5699 15.978L20.5477 15.9768L20.5255 15.9754L20.5032 15.9739L20.481 15.9721C20.4736 15.9715 20.4661 15.9709 20.4587 15.9702C20.4513 15.9696 20.4439 15.9687 20.4365 15.968L20.4143 15.9657L20.392 15.9631L20.3698 15.9603L20.3476 15.9574L20.3253 15.9542C20.3179 15.9531 20.3105 15.952 20.3031 15.9508C20.2956 15.9496 20.2883 15.9483 20.2809 15.9471C20.2734 15.9458 20.266 15.9447 20.2586 15.9433C20.2511 15.942 20.2438 15.9405 20.2364 15.9391C20.229 15.9377 20.2215 15.9363 20.2142 15.9349C20.2067 15.9334 20.1993 15.9317 20.1919 15.9301C20.1845 15.9286 20.177 15.927 20.1697 15.9254C20.1622 15.9237 20.1548 15.9219 20.1475 15.9202L20.1252 15.9149C20.1177 15.9131 20.1104 15.9111 20.103 15.9092C20.0955 15.9073 20.0881 15.9054 20.0807 15.9033C20.0733 15.9013 20.0659 15.8992 20.0585 15.8971C20.0511 15.895 20.0436 15.8929 20.0363 15.8907C20.0288 15.8884 20.0214 15.8861 20.014 15.8838C20.0066 15.8815 19.9992 15.8792 19.9918 15.8768C19.9843 15.8743 19.9769 15.8718 19.9696 15.8693C19.9621 15.8668 19.9547 15.8642 19.9473 15.8616C19.9399 15.859 19.9325 15.8562 19.9251 15.8535C19.9177 15.8507 19.9102 15.848 19.9029 15.8452C19.8954 15.8423 19.888 15.8393 19.8806 15.8363C19.8732 15.8333 19.8657 15.8304 19.8584 15.8273C19.8509 15.8242 19.8435 15.8209 19.8361 15.8177C19.8287 15.8145 19.8212 15.8112 19.8139 15.8079C19.8064 15.8045 19.7991 15.801 19.7917 15.7975C19.7842 15.794 19.7768 15.7905 19.7694 15.7869C19.762 15.7832 19.7546 15.7794 19.7472 15.7757C19.7397 15.7719 19.7323 15.768 19.725 15.7641C19.7175 15.7601 19.7101 15.7562 19.7027 15.7521C19.6952 15.748 19.6879 15.7437 19.6805 15.7394C19.6731 15.7351 19.6656 15.7309 19.6583 15.7265C19.6508 15.722 19.6434 15.7174 19.636 15.7128C19.6285 15.7082 19.6212 15.7034 19.6138 15.6987C19.6064 15.6938 19.5989 15.689 19.5916 15.6841C19.584 15.679 19.5767 15.6738 19.5693 15.6686C19.5618 15.6634 19.5544 15.658 19.5471 15.6527C19.5396 15.6472 19.5322 15.6418 19.5249 15.6362C19.5173 15.6304 19.51 15.6246 19.5026 15.6187C19.4951 15.6127 19.4877 15.6067 19.4804 15.6006C19.4729 15.5944 19.4654 15.5883 19.4581 15.5819C19.4506 15.5754 19.4433 15.5687 19.4359 15.562C19.4284 15.5552 19.421 15.5483 19.4137 15.5414C19.4062 15.5343 19.3987 15.5271 19.3914 15.5198C19.384 15.5124 19.3765 15.505 19.3692 15.4974C19.3617 15.4896 19.3543 15.4816 19.347 15.4735C19.3394 15.4653 19.332 15.457 19.3247 15.4485C19.3172 15.4399 19.3098 15.4311 19.3025 15.4223C19.295 15.4132 19.2876 15.404 19.2803 15.3946C19.2727 15.385 19.2653 15.3752 19.258 15.3654C19.2505 15.3552 19.243 15.3449 19.2358 15.3345C19.2282 15.3236 19.2208 15.3126 19.2135 15.3015C19.206 15.2899 19.1986 15.2782 19.1913 15.2663C19.1837 15.2538 19.1763 15.2412 19.1691 15.2285C19.1614 15.2151 19.1541 15.2015 19.1468 15.1877C19.1392 15.1732 19.1318 15.1584 19.1246 15.1435C19.1169 15.1276 19.1095 15.1114 19.1024 15.0951C19.0947 15.0776 19.0872 15.0599 19.0801 15.0419C19.0723 15.022 19.065 15.0017 19.0579 14.9813C19.0501 14.9586 19.0426 14.9356 19.0357 14.9122C19.0276 14.885 19.0202 14.8575 19.0134 14.8294C19.005 14.7945 18.9977 14.7589 18.9912 14.7226C18.9816 14.6688 18.9742 14.6135 18.969 14.5566C18.963 14.491 18.9599 14.4234 18.9599 14.3539C18.9599 14.2843 18.963 14.2167 18.969 14.151C18.9742 14.0942 18.9816 14.0389 18.9912 13.985C18.9977 13.9487 19.005 13.913 19.0134 13.8781C19.0202 13.8501 19.0276 13.8225 19.0357 13.7953C19.0426 13.7719 19.0501 13.7489 19.0579 13.7262C19.065 13.7057 19.0723 13.6854 19.0801 13.6655C19.0872 13.6475 19.0947 13.6298 19.1024 13.6123C19.1095 13.5959 19.1169 13.5798 19.1246 13.5639C19.1318 13.549 19.1392 13.5342 19.1468 13.5196C19.1541 13.5059 19.1614 13.4923 19.1691 13.4788C19.1763 13.4661 19.1837 13.4535 19.1913 13.441C19.1986 13.4291 19.206 13.4174 19.2135 13.4058C19.2208 13.3947 19.2282 13.3837 19.2358 13.3728C19.243 13.3624 19.2505 13.3521 19.258 13.3419C19.2653 13.332 19.2727 13.3223 19.2803 13.3126C19.2876 13.3033 19.295 13.2941 19.3025 13.285C19.3098 13.2761 19.3172 13.2674 19.3247 13.2587C19.332 13.2503 19.3394 13.2419 19.347 13.2337C19.3543 13.2257 19.3617 13.2177 19.3692 13.2098C19.3765 13.2022 19.384 13.1948 19.3914 13.1874C19.3987 13.1801 19.4062 13.1729 19.4137 13.1658C19.421 13.1589 19.4284 13.1519 19.4359 13.1451C19.4433 13.1385 19.4506 13.1318 19.4581 13.1253C19.4654 13.1189 19.4729 13.1127 19.4804 13.1065C19.4877 13.1004 19.4951 13.0944 19.5026 13.0885C19.51 13.0826 19.5173 13.0767 19.5249 13.071C19.5322 13.0654 19.5396 13.0599 19.5471 13.0545C19.5544 13.0491 19.5618 13.0438 19.5693 13.0385C19.5767 13.0333 19.584 13.0281 19.5916 13.023C19.5989 13.0181 19.6064 13.0133 19.6138 13.0085C19.6212 13.0037 19.6285 12.9989 19.636 12.9943C19.6434 12.9897 19.6508 12.9851 19.6583 12.9807C19.6656 12.9763 19.6731 12.972 19.6805 12.9677C19.6879 12.9634 19.6952 12.9592 19.7027 12.955C19.7101 12.9509 19.7175 12.947 19.725 12.943C19.7323 12.9391 19.7397 12.9352 19.7472 12.9314C19.7546 12.9277 19.762 12.9239 19.7694 12.9202C19.7768 12.9166 19.7842 12.9131 19.7917 12.9096C19.7991 12.9061 19.8064 12.9026 19.8139 12.8992C19.8212 12.8958 19.8287 12.8926 19.8361 12.8894C19.8435 12.8861 19.8509 12.8829 19.8584 12.8797C19.8657 12.8767 19.8732 12.8737 19.8806 12.8707C19.888 12.8678 19.8954 12.8648 19.9029 12.8619C19.9102 12.859 19.9177 12.8563 19.9251 12.8536C19.9325 12.8508 19.9399 12.8481 19.9473 12.8454C19.9547 12.8428 19.9621 12.8403 19.9696 12.8377C19.9769 12.8352 19.9843 12.8327 19.9918 12.8303C19.9992 12.8279 20.0066 12.8256 20.014 12.8232C20.0214 12.8209 20.0288 12.8186 20.0363 12.8164L20.0585 12.81C20.0659 12.8079 20.0733 12.8057 20.0807 12.8037C20.0881 12.8017 20.0955 12.7998 20.103 12.7978C20.1104 12.7959 20.1177 12.794 20.1252 12.7921L20.1475 12.7868C20.1548 12.7851 20.1622 12.7833 20.1697 12.7816C20.177 12.78 20.1845 12.7785 20.1919 12.7769C20.1993 12.7753 20.2067 12.7737 20.2142 12.7722C20.2215 12.7707 20.229 12.7694 20.2364 12.7679C20.2438 12.7665 20.2511 12.7651 20.2586 12.7637C20.266 12.7624 20.2734 12.7612 20.2809 12.76C20.2883 12.7587 20.2956 12.7574 20.3031 12.7562L20.3253 12.7529L20.3476 12.7496L20.3698 12.7467L20.392 12.7439L20.4143 12.7413L20.4365 12.739C20.4439 12.7383 20.4513 12.7375 20.4587 12.7368C20.4661 12.7361 20.4736 12.7355 20.481 12.7349L20.5032 12.7331L20.5255 12.7316L20.5477 12.7302L20.5699 12.729C20.5773 12.7286 20.5848 12.7283 20.5922 12.728C20.5996 12.7277 20.6069 12.7274 20.6144 12.7271L20.6366 12.7265L20.6589 12.7261L20.6811 12.7257L20.7033 12.7256C20.7108 12.7256 20.7181 12.7255 20.7256 12.7256L20.7478 12.7259L20.77 12.7262L20.7923 12.7267L20.8145 12.7274L20.8368 12.7281L20.859 12.7292L20.8812 12.7303L20.9035 12.7316L20.9257 12.7331L20.9479 12.7346L20.9567 12.7352L20.9702 12.7363L20.9924 12.7381L21.0146 12.74L21.0369 12.7421L21.0591 12.7442L21.0813 12.7465L21.1036 12.749L21.1258 12.7515L21.148 12.7541L21.1703 12.7569L21.1925 12.7598L21.2148 12.7628L21.237 12.7659L21.2592 12.7691L21.2815 12.7725L21.3037 12.776L21.3259 12.7796L21.3482 12.7833L21.3704 12.7872L21.3926 12.7912L21.4149 12.7953L21.4371 12.7995L21.4593 12.8039L21.4816 12.8084L21.5038 12.813L21.526 12.8177L21.5483 12.8226L21.5705 12.8276L21.5927 12.8327L21.615 12.838L21.6372 12.8434L21.6595 12.8489L21.6817 12.8545L21.7039 12.8603L21.7262 12.8662L21.7484 12.8722L21.7706 12.8784L21.7929 12.8847L21.8151 12.8911L21.8373 12.8976L21.8596 12.9043L21.8818 12.9112L21.9041 12.9181L21.9263 12.9252L21.9485 12.9324L21.9708 12.9397L21.993 12.9472L22.0152 12.9548L22.0375 12.9625L22.0597 12.9704L22.0819 12.9784L22.1042 12.9866L22.1264 12.9948L22.1486 13.0032L22.1709 13.0117L22.1931 13.0204L22.2153 13.0292L22.2376 13.0381L22.2598 13.0471L22.2821 13.0563L22.3043 13.0656L22.3265 13.075L22.3488 13.0846L22.371 13.0942L22.3932 13.104L22.4155 13.1139L22.4377 13.124L22.4599 13.1341L22.4822 13.1444L22.5044 13.1548L22.5266 13.1653L22.5489 13.1759L22.5711 13.1866L22.5934 13.1975L22.6156 13.2084L22.6378 13.2195L22.6601 13.2306L22.6823 13.2419L22.7044 13.2532V12.2611L22.6823 12.2555L22.6601 12.2501L22.6378 12.2447L22.6156 12.2394L22.5934 12.2342L22.5711 12.229L22.5489 12.2239L22.5266 12.2188L22.5044 12.2138L22.4822 12.2089L22.4599 12.204L22.4377 12.1991L22.4155 12.1943L22.3932 12.1896L22.371 12.1849L22.3488 12.1802L22.3265 12.1756L22.3043 12.171L22.2821 12.1664L22.2598 12.162L22.2376 12.1575L22.2153 12.1531L22.1931 12.1488L22.1709 12.1444L22.1486 12.1402L22.1264 12.136L22.1042 12.1318L22.0819 12.1277L22.0597 12.1236L22.0375 12.1195L22.0152 12.1155L21.993 12.1116L21.9708 12.1077L21.9485 12.1038L21.9263 12.1L21.9041 12.0962L21.8818 12.0925L21.8596 12.0888L21.8373 12.0852L21.8151 12.0816L21.7929 12.0781L21.7706 12.0746L21.7484 12.0711L21.7262 12.0677L21.7039 12.0644L21.6817 12.0611L21.6595 12.0579L21.6372 12.0547L21.615 12.0515L21.5927 12.0485L21.5705 12.0454L21.5483 12.0424L21.526 12.0395L21.5038 12.0366L21.4816 12.0338L21.4593 12.031L21.4371 12.0283L21.4149 12.0257L21.3926 12.0231L21.3704 12.0205L21.3482 12.018L21.3259 12.0156L21.3037 12.0133L21.2815 12.011L21.2592 12.0087L21.237 12.0066L21.2148 12.0044L21.1925 12.0024L21.1703 12.0004L21.148 11.9985L21.1258 11.9967L21.1036 11.9949L21.0813 11.9932L21.0591 11.9916L21.0369 11.99L21.0146 11.9885L20.9924 11.9872L20.9702 11.9858L20.9479 11.9846L20.9257 11.9834L20.9035 11.9823L20.8921 11.9818L20.8812 11.9813L20.859 11.9804L20.8368 11.9794L20.8145 11.9785L20.7923 11.9777L20.77 11.9769L20.7478 11.9761L20.7256 11.9755L20.7033 11.9748L20.6811 11.9742L20.6589 11.9736L20.6366 11.9732L20.6144 11.9727L20.5922 11.9722L20.5699 11.9719L20.5477 11.9716L20.5255 11.9713L20.5032 11.9711L20.481 11.971L20.4587 11.9709L20.4365 11.9708L20.4143 11.9709L20.392 11.9709L20.3698 11.971L20.3476 11.9712L20.3253 11.9714L20.3031 11.9717L20.2809 11.972L20.2586 11.9724L20.2364 11.9728L20.2142 11.9734L20.1919 11.9739L20.1697 11.9745L20.1475 11.9752L20.1252 11.976L20.103 11.9767L20.0807 11.9777L20.0585 11.9786L20.0363 11.9795L20.014 11.9806L19.9918 11.9817L19.9696 11.9828L19.9473 11.9841L19.9251 11.9855L19.9029 11.9868L19.8806 11.9883L19.8584 11.9898L19.8361 11.9913L19.8139 11.993L19.7917 11.9947L19.7694 11.9965L19.7472 11.9984L19.725 12.0003L19.7027 12.0023L19.6805 12.0044L19.6583 12.0065L19.636 12.0088L19.6138 12.0111L19.5916 12.0135L19.5693 12.016L19.5471 12.0185L19.5249 12.0211L19.5026 12.0239L19.4804 12.0266L19.4581 12.0296L19.4359 12.0325L19.4137 12.0355L19.3914 12.0387L19.3692 12.0419L19.347 12.0452L19.3247 12.0487L19.3025 12.0521L19.2803 12.0557L19.258 12.0594L19.2358 12.0632L19.2135 12.0671L19.1913 12.071L19.1691 12.0751L19.1468 12.0793L19.1246 12.0836L19.1024 12.088L19.0801 12.0924L19.0579 12.0971L19.0357 12.1018L19.0134 12.1066L18.9912 12.1115L18.969 12.1165L18.9467 12.1217L18.9245 12.127L18.9023 12.1324L18.88 12.1379L18.8578 12.1436L18.8356 12.1493L18.8133 12.1553L18.7911 12.1613L18.7688 12.1675L18.7466 12.1738L18.7244 12.1802L18.7021 12.1868L18.6799 12.1935L18.6577 12.2004L18.6354 12.2073L18.6132 12.2146C18.6058 12.217 18.5983 12.2194 18.5909 12.2218L18.5687 12.2294C18.5613 12.2319 18.5538 12.2344 18.5465 12.2369L18.5242 12.2448L18.502 12.2527C18.4945 12.2554 18.4872 12.2582 18.4798 12.2609C18.4724 12.2636 18.4649 12.2663 18.4575 12.2691L18.4353 12.2777C18.4279 12.2806 18.4204 12.2834 18.4131 12.2863L18.3908 12.2952L18.3686 12.3042L18.3464 12.3135L18.3241 12.3229L18.3019 12.3325L18.2797 12.3424L18.2574 12.3524L18.2352 12.3627L18.213 12.3732C18.2055 12.3767 18.1981 12.3804 18.1907 12.384L18.1685 12.3949L18.1463 12.4061L18.124 12.4176C18.1166 12.4215 18.1091 12.4253 18.1018 12.4293C18.0943 12.4332 18.0869 12.4373 18.0796 12.4413L18.0573 12.4535L18.0351 12.466C18.0276 12.4703 18.0202 12.4746 18.0128 12.4789C18.0054 12.4832 17.998 12.4875 17.9906 12.4919C17.9832 12.4964 17.9758 12.5009 17.9684 12.5054C17.9609 12.5099 17.9535 12.5145 17.9461 12.5191C17.9387 12.5238 17.9312 12.5284 17.9239 12.5331C17.9164 12.5379 17.909 12.5427 17.9017 12.5476L17.8794 12.5623C17.872 12.5673 17.8645 12.5723 17.8572 12.5774L17.835 12.5928C17.8275 12.5981 17.8201 12.6034 17.8127 12.6087C17.8053 12.6141 17.7978 12.6195 17.7905 12.625C17.7831 12.6305 17.7756 12.636 17.7683 12.6416C17.7608 12.6473 17.7534 12.653 17.746 12.6587C17.7385 12.6646 17.7311 12.6704 17.7238 12.6763C17.7163 12.6823 17.7089 12.6883 17.7015 12.6943V12.6943Z" fill="url(#paint2_linear_1261_8695)"/>
<defs>
<linearGradient id="paint0_linear_1261_8695" x1="24.0383" y1="14.3535" x2="29.7309" y2="14.3535" gradientUnits="userSpaceOnUse">
<stop stop-color="#007B40"/>
<stop offset="1" stop-color="#55B330"/>
</linearGradient>
<linearGradient id="paint1_linear_1261_8695" x1="11.2695" y1="14.3535" x2="16.9615" y2="14.3535" gradientUnits="userSpaceOnUse">
<stop stop-color="#1D2970"/>
<stop offset="1" stop-color="#006DBA"/>
</linearGradient>
<linearGradient id="paint2_linear_1261_8695" x1="17.6538" y1="14.3535" x2="23.346" y2="14.3535" gradientUnits="userSpaceOnUse">
<stop stop-color="#6E2B2F"/>
<stop offset="1" stop-color="#E30138"/>
</linearGradient>
</defs>
</svg>
