<svg width="62" height="62" viewBox="0 0 62 62" fill="none" xmlns="http://www.w3.org/2000/svg">
<g clip-path="url(#clip0_1261_10207)">
<path d="M31.4798 61.8471C48.3357 61.8471 62.0001 48.1827 62.0001 31.3269C62.0001 14.471 48.3357 0.806641 31.4798 0.806641C14.624 0.806641 0.959595 14.471 0.959595 31.3269C0.959595 48.1827 14.624 61.8471 31.4798 61.8471Z" fill="white"/>
<path d="M31.48 60.5921C47.6425 60.5921 60.7448 47.4898 60.7448 31.3273C60.7448 15.1648 47.6425 2.0625 31.48 2.0625C15.3175 2.0625 2.21515 15.1648 2.21515 31.3273C2.21515 47.4898 15.3175 60.5921 31.48 60.5921Z" fill="#EAEAEA"/>
<path d="M31.3437 54.1294C44.0146 54.1294 54.2863 43.8576 54.2863 31.1868C54.2863 18.5159 44.0146 8.24414 31.3437 8.24414C18.6729 8.24414 8.40112 18.5159 8.40112 31.1868C8.40112 43.8576 18.6729 54.1294 31.3437 54.1294Z" fill="white"/>
<mask id="mask0_1261_10207" style="mask-type:luminance" maskUnits="userSpaceOnUse" x="10" y="10" width="43" height="42">
<path d="M31.3437 51.9613C42.8171 51.9613 52.1182 42.6602 52.1182 31.1867C52.1182 19.7132 42.8171 10.4121 31.3437 10.4121C19.8702 10.4121 10.5691 19.7132 10.5691 31.1867C10.5691 42.6602 19.8702 51.9613 31.3437 51.9613Z" fill="white"/>
</mask>
<g mask="url(#mask0_1261_10207)">
<path d="M45.3874 11.2511C45.3874 11.2511 45.3404 11.1521 45.3398 11.1527C45.8991 10.8885 46.3947 11.1849 46.9083 11.329C46.3663 11.9917 45.8595 11.9589 45.3874 11.2511Z" fill="#686868"/>
<path d="M21.6274 14.753C23.1978 15.6897 24.2682 14.2474 25.1697 13.6151C26.2531 12.8553 27.2307 12.4735 28.465 12.4667C28.6308 12.4271 28.7961 12.4284 28.9625 12.4667C29.5299 12.6827 30.0403 12.9605 30.1857 13.6225C30.4827 14.5611 31.5005 14.5983 32.5505 15.4552C29.7866 15.3203 27.5122 15.6854 25.3454 16.5652C24.111 15.6984 22.6168 16.5856 21.344 15.9737C21.2085 15.863 21.1219 15.7237 21.0885 15.5517C21.0538 15.1409 21.3465 14.9503 21.6286 14.7536L21.6274 14.753Z" fill="#DCE2EA"/>
<path d="M39.1481 12.1558C39.5732 12.9094 40.3472 12.2696 40.8812 12.5895C41.4467 13.5949 39.8473 14.0516 40.2693 15.0211C40.2445 15.2872 40.182 15.5427 40.0731 15.7877C39.9432 16.0321 39.7533 16.2109 39.4965 16.3167C39.0491 16.3489 38.9112 16.0383 38.8016 15.6949C38.3883 14.5979 37.1855 14.4834 36.4381 13.8028C36.2655 13.7935 36.1201 13.7267 35.9988 13.6042C35.8775 13.3685 35.8689 13.1259 35.9555 12.8778C36.1374 12.467 36.6249 12.415 36.8823 12.0914C37.1905 12.222 37.4986 12.3525 37.8067 12.4831C38.2757 12.4033 38.0901 11.6707 38.629 11.6602C38.9056 11.7177 39.0733 11.8885 39.1481 12.1558Z" fill="#515761"/>
<path d="M30.1857 13.6235C29.6839 13.2393 29.1822 12.8551 28.6804 12.4708C28.7571 12.4052 28.8338 12.3403 28.9093 12.2735C29.7792 11.9041 30.669 12.0235 31.5599 12.1627C32.3408 12.4715 33.2089 12.3019 33.9934 12.5915C34.5645 13.05 34.718 13.6638 34.6375 14.3623C33.056 14.702 31.6769 13.8259 30.1857 13.6235Z" fill="#EAEEF4"/>
<path d="M16.0902 16.9552C16.7461 15.7004 17.8573 14.9734 19.0812 14.377C19.3874 14.7105 19.5953 15.0928 19.6689 15.5439C19.7302 16.2375 19.3899 16.7083 18.8343 17.0517C18.0646 16.9651 18.4866 18.1401 17.7453 18.0992C17.4062 18.2242 17.0622 18.2991 16.7009 18.2044C16.1842 17.9409 15.6478 17.6859 16.0902 16.9552Z" fill="#E0E5EC"/>
<path d="M17.952 45.1447C18.877 45.0748 18.8628 44.078 19.427 43.6523C19.7024 43.4543 19.9851 43.4197 20.2797 43.6115C20.8031 44.4208 21.2232 45.2412 20.5129 46.1638C20.0507 46.342 19.5879 46.5208 19.1257 46.699C18.1116 46.6507 16.8667 46.7769 17.9514 45.1447H17.952Z" fill="#333842"/>
<path d="M28.6801 12.4711L28.573 12.4272L28.4648 12.468C27.5948 10.1509 27.5942 10.167 30.2783 10.2177C30.7442 10.2264 31.2144 10.0345 31.6822 9.93555C31.9742 10.2294 32.2557 10.5283 32.145 10.9973C32.0039 11.199 31.7997 11.3011 31.5696 11.3611C31.2911 11.4261 31.0065 11.4712 30.7337 11.5628C30.6068 11.6129 30.475 11.6513 30.3432 11.6859C30.2152 11.7249 30.0846 11.7571 29.9553 11.7917C29.8322 11.8431 29.7078 11.8914 29.5859 11.947C29.4683 12.0163 29.3446 12.0714 29.2178 12.1197C29.0198 12.1729 28.8317 12.2558 28.6374 12.3195L28.6801 12.4717V12.4711Z" fill="#6A727D"/>
<path d="M21.3162 15.7613C22.4973 15.7508 23.681 15.7848 24.8584 15.7155C25.7215 15.6648 25.612 16.0391 25.3447 16.5669C24.6864 16.5224 24.4142 17.1361 23.9328 17.3935C23.3865 17.0774 22.8611 17.0464 22.3736 17.5148C22.1193 17.6268 21.8557 17.6528 21.5828 17.6076C21.1974 17.5055 20.9066 17.289 20.737 16.9214C20.6189 16.3794 20.7841 15.9785 21.3168 15.7619L21.3162 15.7613Z" fill="#B2B7C5"/>
<path d="M36.1077 13.6491C37.2907 13.9968 38.6829 14.0116 39.1228 15.5411C38.707 16.0702 38.3327 16.658 37.5401 16.6487C36.7079 16.4408 36.8489 15.7608 36.8421 15.1718C36.8353 14.6236 36.9529 14.0302 36.1393 13.9603L36.0328 13.8136L36.1071 13.6484L36.1077 13.6491Z" fill="#9AA6B3"/>
<path d="M16.0902 16.9557C16.0258 17.5348 16.6037 17.687 16.832 18.0719C17.0251 18.4902 17.2936 18.8261 17.775 18.9288C18.5466 19.266 19.3682 18.6021 20.133 19.047C20.2598 19.1689 20.3106 19.3186 20.2963 19.4925C19.8088 20.0964 19.1919 20.5215 18.4748 20.8085C18.3096 20.8556 18.1419 20.8661 17.9711 20.8512C17.6358 20.7819 17.332 20.6341 17.0368 20.4664C16.5672 20.1026 15.9411 19.9832 15.5358 19.5148C15.3947 19.2747 15.3273 19.0142 15.3124 18.7376C15.3459 18.2711 15.3984 17.8102 15.701 17.4235C15.8309 17.2675 15.9609 17.111 16.0908 16.9551L16.0902 16.9557Z" fill="#D4DCE5"/>
<path d="M24.9758 48.4999C24.3521 50.5708 23.7643 50.7867 22.048 49.5746C22.2812 48.0525 23.4104 47.638 24.9758 48.4999Z" fill="#7091A7"/>
<path d="M15.7235 42.2033C14.9934 42.7955 14.2521 42.7132 13.9372 41.8705C13.6093 40.9925 13.9236 40.1795 14.96 39.8633C15.51 40.1528 15.9741 40.534 16.2711 41.0939C16.4357 41.6353 16.0718 41.9156 15.7235 42.2033Z" fill="#5B6573"/>
<path d="M20.4717 42.8763C21.2587 42.2168 22.0191 42.593 22.7796 42.937C23.0376 43.4734 23.5146 43.875 23.712 44.4498C23.7565 44.722 23.7114 44.9664 23.4942 45.1582C22.9516 45.0431 22.4677 45.2449 21.982 45.4398C21.3379 44.998 21.3528 44.2054 20.9995 43.6102C20.8219 43.367 20.5793 43.169 20.4717 42.8763Z" fill="#7A8B9F"/>
<path d="M24.9758 48.5008C23.7699 48.2342 22.7094 48.3616 22.048 49.5756C21.2665 48.3511 22.6451 47.6297 22.7404 46.6094C23.0869 46.7622 23.4463 46.8402 23.8275 46.7962C23.9828 46.8049 24.1208 46.8587 24.2383 46.9608C24.4586 47.4861 25.0829 47.8184 24.9771 48.5002L24.9758 48.5008Z" fill="#C7D8E5"/>
<path d="M16.0954 41.0609C15.58 40.7918 14.9588 40.6223 14.96 39.8637C15.4674 39.5364 15.9747 39.2085 16.4815 38.8811C16.9932 38.8397 17.4795 38.8564 17.7245 39.425C17.7827 40.0357 18.1471 40.6965 17.4492 41.1909C16.9895 41.241 16.5254 41.3245 16.0954 41.0609Z" fill="#616E81"/>
<path d="M17.5993 37.7186H13.6747C15.0012 36.0851 16.6304 36.1736 17.569 37.7427L17.5993 37.7186Z" fill="#696C71"/>
<path d="M49.4423 29.2354C49.2109 29.2478 48.9795 29.2601 48.7481 29.2725C48.6114 29.184 48.5062 29.0665 48.4295 28.9204C48.255 28.5579 48.1912 28.1427 47.8924 27.8507C47.2811 27.6892 46.3845 27.9893 46.3375 26.9065C46.5213 26.2543 47.1276 26.0706 47.614 25.7513C48.453 25.7173 48.8719 26.3595 49.3897 26.8483C49.5784 27.0704 49.7201 27.3173 49.8061 27.5964C49.9225 28.1953 49.985 28.7837 49.4417 29.2354H49.4423Z" fill="#8691A0"/>
<path d="M17.8808 23.6095C17.7564 23.8688 17.632 24.128 17.5077 24.3873C17.2193 24.6199 16.9019 24.7053 16.5418 24.5785C16.0982 24.3285 15.6812 24.0334 15.2382 23.7784C14.9591 23.5384 14.7778 23.2494 14.7883 22.8664C14.9467 22.2291 15.4795 22.1103 16.0085 21.9835C16.6761 21.9588 17.155 22.3628 17.6599 22.7105C17.8715 22.9753 18.1468 23.2265 17.8808 23.6095Z" fill="#484649"/>
<path d="M30.0961 50.309C30.0961 50.4457 30.0961 50.5831 30.0954 50.7198C29.7422 51.1709 29.064 51.023 28.7082 51.4703C27.5073 51.9696 27.4238 51.1139 27.2982 50.309C27.6323 49.9513 27.4033 49.2788 27.993 49.0635C28.2343 49.0338 28.475 49.0282 28.7107 49.1031C29.1531 49.5263 29.6382 49.9025 30.0961 50.309Z" fill="#89AFC4"/>
<path d="M46.5741 16.4949C46.8073 16.7703 47.0406 17.0462 47.2739 17.3215C47.0406 17.7627 46.623 17.9879 46.2171 18.2268C46.0717 18.28 45.9195 18.3022 45.7648 18.2979C45.4171 18.1803 45.0582 18.1432 44.69 18.1661C44.5607 18.0925 44.4487 17.9978 44.3479 17.8914C44.1802 17.7497 43.9903 17.6464 43.783 17.5703C43.6394 17.5121 43.5367 17.4106 43.4662 17.2751C43.7459 16.7969 44.0744 16.3675 44.6133 16.1546C45.289 16.1422 45.9015 16.4912 46.5741 16.4955V16.4949Z" fill="#585D66"/>
<path d="M44.1215 21.8897C43.6785 21.8223 43.5956 21.4294 43.4236 21.1176C43.3333 20.6417 43.259 20.1684 43.6334 19.7625C43.866 19.6369 44.1141 19.6029 44.3746 19.6258C45.054 19.7966 45.7822 19.8943 46.0396 20.7098C46.0644 20.8769 46.0588 21.0445 46.0272 21.2104C45.8948 21.6187 45.6034 21.8631 45.2068 21.9931C45.0719 22.0209 44.9358 22.0098 44.8065 21.9665C44.7192 21.8749 44.6085 21.8173 44.4823 21.7914C44.3635 21.826 44.2428 21.8582 44.1222 21.8903L44.1215 21.8897Z" fill="#8D98A7"/>
<path d="M49.4424 29.2344C49.4591 28.6088 49.4765 27.9833 49.4932 27.3571C49.7654 27.0305 50.1218 27.0162 50.5011 27.0824C51.3853 27.3355 51.8196 27.9759 52.0003 28.8322C52.2137 30.2336 51.4032 29.3328 50.9738 29.2882C50.485 28.805 49.9541 29.4138 49.4542 29.2294L49.4424 29.2344Z" fill="#636874"/>
<path d="M18.3145 20.659C18.846 20.1343 19.3614 19.5849 20.146 19.4395C20.344 19.3708 20.5197 19.4086 20.6719 19.5527C20.2171 20.3651 19.9084 21.2802 19.0638 21.8154C18.8547 21.9652 18.622 21.9658 18.3832 21.9237C18.137 21.5147 18.166 21.0903 18.3152 20.659H18.3145Z" fill="#434549"/>
<path d="M12.3506 26.24C11.6106 25.4585 11.2363 24.6208 11.9478 23.6172C12.0883 23.6766 12.1984 23.7713 12.2807 23.8987C12.4286 24.1505 12.5876 24.3943 12.8536 24.5447C13.4501 24.7792 14.1808 24.5781 14.6807 25.1145C14.7637 25.6695 14.4215 25.9381 13.9896 26.1478C13.4538 26.3594 12.9025 26.292 12.3512 26.24H12.3506Z" fill="#C9D2DC"/>
<path d="M47.9945 18.4464L48.1591 18.7873C48.2389 19.3745 47.726 19.8311 47.8027 20.4183C47.807 20.5872 47.7823 20.7505 47.7334 20.912C47.5935 21.1496 47.3795 21.2789 47.1177 21.3433C46.848 21.3915 46.585 21.3693 46.3276 21.2715C46.1587 21.1793 46.056 21.0395 46.0182 20.8514C46.1327 20.1157 45.923 19.3231 46.4068 18.6518C46.8801 18.15 47.4024 18.0238 47.9951 18.4464H47.9945Z" fill="#818C9A"/>
<path d="M41.7225 17.7249C40.3081 18.7997 39.3565 17.6105 38.2823 17.0227C38.3294 16.9534 38.3764 16.8835 38.4228 16.8136C38.9394 16.4776 39.5699 16.636 40.1157 16.42C40.4696 16.3903 40.7672 16.5283 41.0438 16.73C41.3649 16.9961 41.6427 17.2937 41.7225 17.7256V17.7249Z" fill="#66707C"/>
<path d="M36.8821 12.0892C36.7447 12.4585 36.4898 12.7153 36.1303 12.8706C35.8284 13.1187 35.5233 12.9746 35.2183 12.8799C35.0667 12.8261 34.9207 12.7586 34.7765 12.6881C34.3966 12.4375 33.794 12.4183 33.7952 11.7631C33.8973 11.5236 34.0638 11.3584 34.3273 11.3077C35.584 10.246 35.9014 12.2513 36.8821 12.0892Z" fill="#3C3F45"/>
<path d="M34.3273 11.308C34.1806 11.4763 34.034 11.6452 33.8874 11.8135C32.9401 11.8945 31.754 12.7756 31.3438 11.0555C31.5529 11.0394 31.7626 11.0227 31.9718 11.0066C32.1902 10.7078 32.4154 10.4226 32.8516 10.6249C33.5607 10.3848 34.2908 10.0983 34.3273 11.3086V11.308Z" fill="#1D1E22"/>
<path d="M46.4664 26.9363C46.8235 28.3637 47.8914 26.4617 48.3653 27.3409C47.9817 27.7097 48.1049 28.2659 47.8691 28.691C47.6272 29.0357 47.4063 29.4255 46.873 29.2009C46.3111 28.566 46.1942 27.7691 46.0599 26.9777C46.1855 26.867 46.3204 26.8534 46.4658 26.9357L46.4664 26.9363Z" fill="#97A2B0"/>
<path d="M42.0225 13.6187C42.4636 13.8241 42.4203 14.2399 42.4587 14.6204C42.2557 14.9644 41.9297 15.1228 41.5547 15.1402C40.8654 15.1723 40.1038 15.1433 40.0673 14.2424C40.0252 13.1874 40.8877 13.4554 41.5139 13.4386C41.7038 13.4337 41.856 13.5482 42.0219 13.6181L42.0225 13.6187Z" fill="#E2E9F2"/>
<path d="M42.0225 13.6175C41.84 13.6292 41.655 13.6274 41.4749 13.6552C41.0362 13.7233 40.3203 13.4374 40.303 14.1446C40.2814 15.0313 41.0665 14.6712 41.5504 14.7021C41.8499 14.7213 42.1555 14.6501 42.4587 14.6192L42.4902 14.7095L42.4247 14.7794C42.3882 15.53 41.7775 15.4563 41.2949 15.5689C40.7522 15.6024 40.2548 15.4836 39.8272 15.1303C39.3953 13.959 40.3457 13.3595 40.8803 12.5879C41.2608 12.9313 41.642 13.2741 42.0225 13.6175Z" fill="#9CACBA"/>
<path d="M13.1054 22.4688C12.5628 21.2846 13.1741 20.4208 13.9048 19.5898C14.1183 19.7755 14.3732 19.9073 14.5836 20.1009C14.6925 20.2055 14.7704 20.3292 14.8224 20.4709C14.8707 20.7017 14.8422 20.9226 14.7389 21.1342C14.419 21.5605 13.9797 21.8853 13.705 22.3519C13.5311 22.5233 13.3498 22.6619 13.1061 22.4682L13.1054 22.4688Z" fill="#CAD3DD"/>
<path d="M48.7217 19.4023C49.4345 20.0365 49.8892 20.7926 49.854 21.782C49.7432 21.9064 49.6065 21.9602 49.4394 21.9348C49.1263 21.8562 48.8417 21.7139 48.5676 21.5456C48.2341 21.3161 47.8951 21.0927 47.681 20.7339C47.6321 20.6646 47.5851 20.594 47.5405 20.5216C47.6253 19.8231 48.1302 19.5669 48.7217 19.4023Z" fill="#818C9A"/>
<path d="M36.1076 13.6486C36.1163 13.7532 36.1268 13.8571 36.1392 13.9604C35.7574 14.5383 35.1609 14.3137 34.6369 14.3626C34.2347 13.9511 33.723 13.5669 34.2737 12.9166C34.45 12.6914 34.6777 12.6413 34.9431 12.7211C35.4418 12.8708 35.8205 13.1876 36.1441 13.5818L36.1076 13.6486Z" fill="#EDF2F7"/>
<path d="M19.3956 15.598C19.0479 15.2534 19.0844 14.8097 19.0813 14.3766C19.9952 14.0629 20.7265 14.9805 21.6274 14.7528C21.5086 14.9867 21.3892 15.2206 21.2698 15.4545C20.6813 15.9748 20.0539 15.9884 19.3956 15.598Z" fill="#5C6069"/>
<path d="M23.4941 45.1577L23.4972 44.4059C23.3054 44.0044 23.168 43.63 23.8628 43.6665C24.4414 44.4709 24.5558 45.3322 24.184 46.2541C23.6816 46.6278 23.4205 46.3593 23.2324 45.8964C23.3196 45.6502 23.4062 45.4039 23.4935 45.1577H23.4941Z" fill="#37414D"/>
<path d="M16.1039 30.676C16.5704 31.2062 16.7975 31.7631 15.935 32.07C15.2209 32.3236 14.9277 31.8881 14.9407 31.2019C14.927 30.1389 15.5247 30.4285 16.1039 30.676Z" fill="#9EA7B4"/>
<path d="M22.376 17.3055C22.4348 16.8867 22.4955 16.4102 23.048 16.4474C23.5758 16.4826 23.8802 16.8489 23.9328 17.3915C23.6123 17.7337 23.2998 18.0901 22.7677 18.0684C22.4274 17.9218 22.1762 17.7287 22.376 17.3055Z" fill="#9697A2"/>
<path d="M20.513 46.1623C20.3924 45.3314 20.2723 44.5004 20.1517 43.6695C20.3781 43.4511 20.6399 43.4263 20.9245 43.529C21.4529 44.1013 21.524 44.8531 21.7183 45.5572C21.3167 45.7589 20.9146 45.9606 20.513 46.1623Z" fill="#5C6877"/>
<path d="M42.4971 19.0976C42.6345 18.3916 42.8442 17.724 43.4661 17.2754C43.5279 17.315 43.588 17.3577 43.6455 17.4035C43.7866 17.581 43.8924 17.7766 43.9611 17.9931C44.06 18.2864 44.1529 18.5815 44.1318 18.8989C44.0706 19.2355 43.9078 19.5016 43.5991 19.6668C43.4469 19.7361 43.2866 19.7701 43.1196 19.7745C42.7421 19.7045 42.5485 19.4657 42.4971 19.0969V19.0976Z" fill="#62676F"/>
<path d="M44.6478 21.7739C45.0042 21.6643 45.3612 21.5548 45.7176 21.4453C45.8661 21.5375 45.9768 21.6625 46.0467 21.8234C46.1575 22.1525 46.1575 22.4854 46.0771 22.8201C45.9997 23.0522 45.8729 23.2452 45.6452 23.3529C45.1007 23.2588 45.3142 23.8837 45.0141 24.0242C44.3724 23.5168 44.365 22.8857 44.6552 22.1958C44.5568 22.1036 44.5234 22.0102 44.5537 21.9162C44.5847 21.8215 44.6156 21.7739 44.6478 21.7739Z" fill="#BCCAD8"/>
<path d="M18.2972 21.7048C18.5528 21.7419 18.8083 21.779 19.0638 21.8162C18.2316 22.1261 18.5348 23.1829 17.8814 23.6105C17.7812 23.358 17.6816 23.1056 17.5813 22.8538C17.1959 22.459 16.7201 22.1639 16.3612 21.7388C16.3761 21.3292 16.6545 21.1937 16.9973 21.1232C17.1637 21.1108 17.327 21.1275 17.4892 21.164C17.8097 21.2673 18.0955 21.4233 18.2972 21.7054V21.7048Z" fill="#C7CED8"/>
<path d="M51.3821 25.4265C51.7892 25.8739 51.637 26.4221 51.6562 26.9393C51.4625 27.1689 51.2138 27.2666 50.9168 27.2481C50.5734 27.1361 50.1638 27.1441 49.9838 26.7352C49.8414 26.38 49.8464 26.0242 49.9825 25.6691C50.0685 25.5107 50.1978 25.3993 50.3668 25.3343C50.7139 25.2539 51.0424 25.4012 51.3821 25.4259V25.4265Z" fill="#41454C"/>
<path d="M16.459 27.71C16.4602 27.8337 16.4608 27.9575 16.4621 28.0812C16.2598 28.2712 16.0314 28.4141 15.7549 28.4686C15.3088 28.5372 14.8688 28.5187 14.4456 28.3479C14.2056 27.8412 13.7793 28.2774 13.4612 28.1586C13.1048 27.8622 13.0603 27.4415 13.0071 27.0238C13.1407 26.6687 13.4024 26.4967 13.7762 26.4824C13.937 26.5301 14.088 26.6018 14.2272 26.6953C14.7074 27.0368 15.2698 27.1686 15.8279 27.3121C16.0772 27.3827 16.2777 27.5324 16.459 27.7106V27.71Z" fill="#696A77"/>
<path d="M50.5808 25.5037C50.4731 25.4907 50.3655 25.4753 50.2584 25.4561C49.5438 25.0508 49.4442 24.3622 49.4145 23.6383C49.5023 23.1618 49.446 22.5839 50.1632 22.5332C50.8326 22.9756 50.5833 23.8078 50.9477 24.3801C50.7163 24.7192 51.0263 25.2346 50.5802 25.5031L50.5808 25.5037Z" fill="#222325"/>
<path d="M47.9948 18.4471C47.4664 18.4057 46.9751 18.5047 46.5432 18.8289C45.8886 18.8598 45.8985 18.5337 46.1417 18.0821C46.3495 17.5759 46.7282 17.3247 47.2739 17.3223C47.514 17.6972 47.7547 18.0722 47.9948 18.4471Z" fill="#414246"/>
<path d="M17.9521 45.1441C17.5413 46.2677 18.2336 46.5579 19.1265 46.6984C18.0548 47.358 17.308 46.8054 16.9529 45.886C16.6051 44.9851 17.4281 45.1515 17.9521 45.1447V45.1441Z" fill="#798291"/>
<path d="M46.4664 26.9347C46.3316 26.9489 46.1961 26.9626 46.0606 26.9768C45.7895 26.7943 45.7865 26.5164 45.7945 26.2349C45.9251 25.4095 46.9707 25.6911 47.2454 25.0364C47.4125 24.9888 47.5659 25.0173 47.7101 25.1094C47.8431 25.3501 47.8505 25.5846 47.6792 25.8105C47.7033 26.6476 46.7882 26.4719 46.4658 26.9353L46.4664 26.9347Z" fill="#ACB7C5"/>
<path d="M47.2442 25.1549C47.4051 26.3782 45.9882 25.4866 45.7952 26.2346C45.6646 25.7372 45.5341 25.2403 45.4035 24.7429C45.5161 24.6148 45.6529 24.5207 45.8119 24.4582C46.0649 24.3957 46.3168 24.4013 46.5692 24.4638C46.9058 24.5845 47.1793 24.7682 47.2442 25.1549Z" fill="#C3CFDC"/>
<path d="M17.569 37.7429C18.8962 38.4687 18.8547 39.5551 18.3659 40.7604C18.124 40.6231 18.0157 40.4003 17.9681 40.1392C18.0887 39.3689 17.3555 39.0144 17.1254 38.4142C17.2831 38.1822 17.4409 37.9508 17.5987 37.7188L17.569 37.7429Z" fill="#757E8D"/>
<path d="M16.0951 41.0605C16.4608 40.972 16.8221 40.4721 17.194 41.05C17.3833 41.1867 17.6512 41.2424 17.689 41.5332C17.1569 42.1179 16.4967 42.3277 15.7227 42.2033C15.8464 41.8222 15.9708 41.4416 16.0945 41.0605H16.0951Z" fill="#737F90"/>
<path d="M13.1055 22.4696C13.2447 22.4083 13.3846 22.3477 13.5238 22.2864C13.5492 22.0779 13.663 22.0037 13.8641 22.0624C13.9946 22.1856 14.0806 22.3365 14.1271 22.5092C14.1988 23.2028 13.7645 23.6018 13.2757 23.9688C12.8587 24.0801 12.4367 24.1439 12.0085 24.0084C11.9881 23.8778 11.9677 23.7479 11.9479 23.6173C12.334 23.2349 12.7194 22.8519 13.1055 22.4696Z" fill="#544D4D"/>
<path d="M41.7227 17.7261C41.4492 17.4799 41.1757 17.233 40.9022 16.9867C41.0699 16.4385 41.0872 15.7944 41.7938 15.5884C42.063 15.563 42.2913 15.6472 42.4757 15.8464C42.4992 16.5827 42.1162 17.1563 41.7227 17.7255V17.7261Z" fill="#4C4E55"/>
<path d="M13.4806 28.0918C13.7361 28.0436 13.9947 27.6767 14.2447 28.1005C14.3783 28.2595 14.4742 28.4389 14.5343 28.6382C14.4971 29.2817 14.491 29.9616 13.5115 29.5502C13.3129 29.179 13.1137 28.8071 12.915 28.4359C13.053 28.2379 13.2306 28.1048 13.4806 28.0912V28.0918Z" fill="#5D5E6A"/>
<path d="M15.7196 28.1351C15.9671 28.1166 16.214 28.0986 16.4615 28.0801C16.4058 28.838 16.722 29.6449 16.1602 30.3354C16.0012 30.276 15.8675 30.1813 15.7561 30.0532C15.4827 29.6411 15.1467 29.273 14.8905 28.8473C14.812 28.1983 15.4276 28.3548 15.7196 28.1351Z" fill="#CFDAE8"/>
<path d="M46.574 16.495C45.7777 17.2016 45.2085 16.6051 44.6133 16.154C45.3997 15.5044 46.0357 15.7178 46.574 16.495Z" fill="#3E3F42"/>
<path d="M21.7181 45.5571C21.0697 45.0807 21.1204 44.3054 20.8996 43.6465C20.7968 43.3118 20.9379 43.175 21.2689 43.193C21.8926 43.8191 21.6476 44.7212 21.9817 45.439C21.9093 45.5132 21.8215 45.5522 21.7181 45.5571Z" fill="#373E4B"/>
<path d="M15.7006 17.4238C15.695 17.8922 15.6901 18.3612 15.6845 18.8296C15.2155 19.0938 15.4717 20.223 14.4675 19.8486C14.3771 19.4793 14.3827 19.1204 14.5931 18.7869C14.9154 18.2944 15.0447 17.6453 15.7006 17.4238Z" fill="#717B8A"/>
<path d="M28.7036 49.2149C28.4574 49.2149 28.2111 49.2149 27.9649 49.2149C27.7279 49.4141 27.4532 49.5366 27.1574 49.6195C26.7317 49.0243 26.7379 48.4687 27.5949 48.5887C28.2056 48.6741 28.9629 48.629 29.4319 49.2335C29.1844 49.4166 28.9406 49.4407 28.703 49.2149H28.7036Z" fill="#BED2DF"/>
<path d="M48.7215 19.4015C48.6331 20.0963 47.7916 19.998 47.5404 20.5214C46.8882 19.6373 47.8238 19.3192 48.1585 18.7871C48.3466 18.9919 48.5341 19.1967 48.7215 19.4009V19.4015Z" fill="#C4D1DE"/>
<path d="M17.6896 41.5332C17.5244 41.3723 17.3598 41.2108 17.1946 41.0499C17.9619 40.7251 17.1476 39.9901 17.577 39.578C18.0126 39.3478 18.1073 39.7203 18.2712 39.9709C18.3028 40.2345 18.335 40.4974 18.3665 40.761C18.304 41.1613 18.0621 41.4045 17.6902 41.5344L17.6896 41.5332Z" fill="#535B66"/>
<path d="M50.1637 22.533C49.7758 22.8294 49.8667 23.2656 49.8333 23.6653C49.6904 23.7692 49.5369 23.7872 49.373 23.7204C48.9362 23.4197 48.693 22.9977 48.6027 22.481C48.6707 21.9687 49.0246 21.8128 49.4782 21.7812C49.6031 21.7812 49.7288 21.7812 49.8537 21.7812C49.9571 22.0318 50.0604 22.283 50.1637 22.5336V22.533Z" fill="#2C2C30"/>
<path d="M13.8379 26.6305C13.6071 26.7475 13.3763 26.8638 13.1455 26.9807C13.0144 27.1546 12.8875 27.1429 12.7644 26.9715C12.6264 26.7277 12.4884 26.4839 12.3499 26.2401C12.7155 25.5676 13.372 26.0273 13.8651 25.8516C13.9907 25.9537 14.0588 26.0848 14.0693 26.2463C14.0427 26.4047 13.9654 26.5328 13.8373 26.6305H13.8379Z" fill="#4C4C53"/>
<path d="M16.931 25.9107C16.8469 26.449 17.0009 27.0473 16.5344 27.4897C16.131 27.2428 15.6472 27.2051 15.2301 26.9879C14.9579 26.7497 14.7655 26.4892 14.9882 26.1136C15.4281 25.7665 15.9305 25.6131 16.488 25.6279C16.6705 25.6669 16.8178 25.7622 16.931 25.9107Z" fill="#4A4449"/>
<path d="M16.0846 29.9476C16.1099 30.0776 16.1347 30.2069 16.1601 30.3368C16.1068 30.4445 16.0883 30.5577 16.1038 30.6765C15.6471 30.6982 15.1577 30.648 14.9405 31.2012C14.7098 30.8943 14.4796 30.5862 14.2488 30.2787C14.1677 29.9062 14.4146 29.7595 14.6924 29.6333C15.2128 29.4885 15.6663 29.6408 16.0846 29.9476Z" fill="#848A95"/>
<path d="M49.4543 29.2305C49.9735 28.9254 50.534 27.5587 50.974 29.2893C50.448 29.7719 49.9413 29.7601 49.4543 29.2305Z" fill="#7F8996"/>
<path d="M46.8737 29.2007C47.2344 29.0572 47.4868 28.8047 47.631 28.444C48.147 28.1978 48.4341 28.5343 48.7212 28.8716C48.7305 29.0052 48.7398 29.1388 48.749 29.2725C48.1062 29.7167 47.4806 29.6994 46.8737 29.2007Z" fill="#99A0AB"/>
<path d="M37.5405 16.6472C38.0683 16.2778 38.5954 15.9084 39.1232 15.5391C39.1028 15.828 39.1628 16.0805 39.4313 16.2426C39.5291 17.1032 38.7148 16.5748 38.4512 16.8848C38.3943 16.93 38.3374 16.9758 38.2817 17.0222C38.0342 16.8972 37.7873 16.7722 37.5399 16.6466L37.5405 16.6472Z" fill="#66707C"/>
<path d="M28.7038 49.2148C28.947 49.221 29.1895 49.2272 29.4327 49.2334C29.8268 49.4858 30.2779 49.703 30.0966 50.31C29.286 50.3849 28.7558 50.1046 28.7044 49.2155L28.7038 49.2148Z" fill="#7498AD"/>
<path d="M18.2706 39.9708C18.0392 39.8396 17.8078 39.7091 17.5764 39.5779C17.2113 39.3459 16.8463 39.1132 16.4812 38.8812C16.6959 38.7253 16.9106 38.57 17.1253 38.4141C17.7515 38.7531 18.312 39.1405 18.2706 39.9702V39.9708Z" fill="#656D7A"/>
<path d="M50.9557 26.9828C51.189 26.9685 51.4229 26.9537 51.6561 26.9395C51.8003 27.5656 52.1703 28.1509 52.0001 28.834C51.6196 28.2505 51.1723 27.7333 50.5616 27.3769C50.5969 27.1492 50.8276 27.117 50.9563 26.9828H50.9557Z" fill="#8892A0"/>
<path d="M22.3761 17.3066C22.5067 17.5609 22.6372 17.8152 22.7678 18.0695C22.5351 18.2088 22.3019 18.3473 22.0692 18.4866C21.9349 18.5794 21.7871 18.6066 21.6268 18.5794C21.3385 18.4055 21.1665 18.1599 21.1591 17.814C21.2178 17.5535 21.4393 17.4638 21.6429 17.3549C21.8873 17.3388 22.1317 17.3227 22.3761 17.3066Z" fill="#9B9EAB"/>
<path d="M16.9311 25.91C16.7838 25.8915 16.6359 25.8735 16.4887 25.8556C16.1558 25.5765 16.0914 25.2189 16.183 24.8149C16.2461 24.6237 16.368 24.482 16.5468 24.3898C16.8673 24.3886 17.1878 24.388 17.5077 24.3867C17.2843 24.8829 17.3833 25.5004 16.9311 25.91Z" fill="#2A2A2F"/>
<path d="M11.9188 31.6596C11.9256 31.9492 11.795 32.12 11.4968 32.1107C11.2388 32.1027 11.0185 32.0018 10.9449 31.7283C10.8756 31.4697 10.9233 31.2216 11.2258 31.1752C11.5834 31.1201 11.7623 31.3899 11.9182 31.6596H11.9188Z" fill="#A8B2C0"/>
<path d="M21.6896 18.4399C21.8159 18.4548 21.9421 18.4702 22.0683 18.4851C21.6674 18.925 21.4762 19.6403 20.6718 19.5518C20.4967 19.514 20.321 19.4763 20.1459 19.4385C20.1329 19.347 20.1292 19.2554 20.1348 19.1632C20.201 19.0104 20.2919 18.8749 20.4052 18.7524C20.7776 18.4213 21.1346 18.0204 21.6896 18.4399Z" fill="#B9C1CC"/>
<path d="M21.2696 43.1937C21.1465 43.3447 21.0233 43.4963 20.9002 43.6473C20.6509 43.6547 20.4015 43.6621 20.1522 43.6702C19.9102 43.664 19.6689 43.6578 19.427 43.6516C19.6126 43.1746 19.9962 42.9642 20.4714 42.877C20.7375 42.9828 21.0035 43.0886 21.2696 43.1937Z" fill="#75808D"/>
<path d="M43.1542 19.596C43.2792 19.5892 43.4048 19.583 43.5298 19.5762L43.6653 19.682L43.6201 19.8478C43.7358 20.2989 43.7631 20.7357 43.424 21.1168C42.9538 21.0543 42.8207 20.7227 42.7811 20.3156C42.572 19.9029 42.8473 19.7408 43.1548 19.596H43.1542Z" fill="#B7C7D6"/>
<path d="M39.1478 12.155C39.0104 12.0275 38.8724 11.9001 38.7351 11.7732C38.6157 11.6841 38.5723 11.5907 38.6051 11.4936C38.6386 11.3939 38.6744 11.3444 38.7122 11.3444C39.1181 11.0765 39.4578 11.3383 39.6081 11.6155C39.7931 11.957 39.506 12.1426 39.1484 12.155H39.1478Z" fill="#7F858D"/>
<path d="M45.7771 24.7526C45.6528 24.7496 45.5278 24.7465 45.4034 24.7434C45.2741 24.5033 45.1442 24.2638 45.0149 24.0244C45.2061 23.8017 44.6684 23.2101 45.4016 23.2609C46.0772 23.6197 46.2189 24.1129 45.7778 24.7533L45.7771 24.7526Z" fill="#A1B3C3"/>
<path d="M38.7125 11.3444C38.7199 11.4874 38.728 11.6303 38.7354 11.7732C38.426 12.0096 38.116 12.2459 37.8067 12.4823C37.871 11.9143 37.0326 10.6279 38.7125 11.3444Z" fill="#41454A"/>
<path d="M28.7075 51.4698C28.9426 50.8003 29.4611 50.6537 30.0947 50.7193C30.151 51.9271 29.2124 51.2984 28.7075 51.4698Z" fill="#6E9CB3"/>
<path d="M42.4754 15.8473C42.2112 15.8492 41.9463 15.851 41.6821 15.8529C41.4427 15.6957 41.1896 15.546 41.322 15.1884C41.6896 15.0529 42.0577 14.9168 42.4252 14.7812C43.2024 15.1011 42.7031 15.4804 42.4754 15.8479V15.8473Z" fill="#555B64"/>
<path d="M50.581 25.5039C50.6095 25.0986 50.5216 24.6556 50.9485 24.3809C51.1403 24.71 51.4621 24.9854 51.3829 25.4265C51.1465 25.7736 50.8953 25.9623 50.5816 25.5039H50.581Z" fill="#101112"/>
<path d="M15.3484 26.9649C15.9752 26.6184 16.4492 26.6159 16.5345 27.4896C16.576 27.5861 16.5506 27.6591 16.4584 27.7092C16.2332 27.7006 16.008 27.6925 15.7828 27.6839C15.552 27.5812 15.3441 27.4556 15.2599 27.1963C15.2896 27.119 15.3187 27.0416 15.3484 26.9643V26.9649Z" fill="#463D40"/>
<path d="M12.7644 26.9713C12.8913 26.9744 13.0181 26.9775 13.145 26.9806C13.2569 27.3512 13.3683 27.7218 13.4803 28.0925C13.2916 28.2076 13.1029 28.3226 12.9142 28.4371C12.6518 27.97 12.6425 27.4768 12.7644 26.9707V26.9713Z" fill="#514E56"/>
<path d="M23.8635 43.667C23.5647 43.826 23.5152 44.1081 23.4978 44.4064C22.8203 44.131 22.7424 43.5624 22.7795 42.9375C23.2893 42.9604 23.6166 43.2537 23.8635 43.667Z" fill="#5D6775"/>
<path d="M14.6574 29.8754C14.5212 30.0097 14.3851 30.1433 14.249 30.2776C13.8778 30.1631 13.5795 29.9744 13.5115 29.5518C14.2632 29.5203 14.2304 28.9442 14.2892 28.4319C14.6339 28.3793 14.7539 28.5891 14.8077 28.8768C14.9704 29.2425 14.9098 29.5735 14.6567 29.8761L14.6574 29.8754Z" fill="#929AAA"/>
<path d="M43.1544 19.5964C43.03 19.8358 42.9056 20.0759 42.7813 20.3153C41.7121 20.1365 42.3154 19.5679 42.4973 19.0977C42.7163 19.2641 42.9353 19.4299 43.1544 19.5964Z" fill="#D2DEE8"/>
<path d="M32.8518 10.625C32.5586 10.7524 32.2659 10.8799 31.9726 11.0067C31.8755 10.6491 31.779 10.2921 31.6824 9.93445C32.2572 9.85154 32.5357 10.2704 32.8518 10.625Z" fill="#25262C"/>
<path d="M23.2328 45.8965C23.5502 46.0159 23.867 46.1347 24.1844 46.2541C24.2018 46.4898 24.2197 46.7256 24.237 46.9607C24.1257 46.9892 24.0124 47.0102 23.898 47.0232C23.2854 47.1055 23.0064 46.8611 23.1196 46.2312C23.1307 46.1106 23.1685 45.9986 23.2328 45.8965Z" fill="#2F3842"/>
<path d="M23.1199 46.2324C23.2671 46.6068 23.5375 46.8598 23.8983 47.0244C23.2907 47.5058 22.8903 47.408 22.7406 46.6105C22.8668 46.4849 22.9937 46.3586 23.1199 46.233V46.2324Z" fill="#7A8896"/>
<path d="M27.1577 49.6193C27.3253 49.2827 27.6118 49.1825 27.9645 49.2147C27.5796 49.4807 28.1216 50.3111 27.2975 50.3098C27.2511 50.0797 27.2041 49.8495 27.1577 49.6193Z" fill="#6D9BB1"/>
<path d="M14.5929 18.7871C14.5997 19.1689 14.6059 19.55 14.6127 19.9318C14.5428 20.0772 14.4345 20.1817 14.2873 20.2467C13.8826 20.1892 13.9284 19.8693 13.9049 19.5902C14.1345 19.3229 14.364 19.055 14.5929 18.7877V18.7871Z" fill="#8693A2"/>
<path d="M44.648 21.7731C44.6505 21.9136 44.653 22.054 44.6555 22.1951C44.4785 22.093 44.3016 21.9903 44.1234 21.8882C44.1221 21.8882 44.2768 21.7892 44.2768 21.7892C44.408 21.6815 44.5379 21.6822 44.6678 21.7917L44.6487 21.7737L44.648 21.7731Z" fill="#8594A1"/>
<path d="M19.3956 15.5986C20.0205 15.551 20.6454 15.5027 21.2697 15.4551C21.2982 15.5559 21.313 15.658 21.3155 15.762C21.1819 16.1617 21.0482 16.5626 20.9146 16.9636C20.805 17.1003 20.6695 17.2018 20.5093 17.2723C19.8658 17.3744 19.1592 17.8298 18.6834 16.958C18.861 16.4741 19.4383 16.1988 19.395 15.5992L19.3956 15.5986Z" fill="#C1C8D2"/>
<path d="M41.3216 15.1872C41.4416 15.4087 41.5617 15.6302 41.6817 15.8517C41.4088 16.2211 41.5567 16.8788 40.9021 16.9858C40.6738 16.8627 40.4455 16.7396 40.2178 16.6164C39.8725 16.4661 39.6232 16.2675 39.8298 15.8412C39.8292 15.6042 39.8286 15.3678 39.828 15.1309C40.326 15.15 40.8241 15.1686 41.3222 15.1872H41.3216Z" fill="#484E56"/>
<path d="M39.8299 15.8418C39.9592 16.0998 40.0885 16.3584 40.2178 16.6171C39.6963 17.1479 39.0552 16.9004 38.4507 16.8868C38.7781 16.6721 39.1054 16.4581 39.4314 16.244C39.5638 16.1103 39.6969 15.9761 39.8299 15.8418Z" fill="#454B53"/>
<path d="M36.1439 13.582C35.7436 13.3549 35.3439 13.1285 34.9436 12.9014C34.8508 12.7777 34.8539 12.6601 34.9683 12.5506C35.4206 12.4237 35.756 12.7164 36.1297 12.8723C36.1346 13.1087 36.139 13.345 36.1439 13.582Z" fill="#5E646D"/>
<path d="M28.6375 12.3188C28.7217 11.8677 29.018 11.7236 29.4419 11.7644C29.8032 11.7793 30.1645 11.7805 30.5271 11.7756C30.6781 11.7644 30.8278 11.7638 30.9794 11.77C31.2152 11.7898 31.4329 11.8603 31.6322 11.989C31.7565 12.0967 31.8166 12.2328 31.8135 12.3968C31.7776 12.4667 31.7411 12.536 31.7052 12.6059C30.6898 12.4326 29.6331 12.7074 28.6381 12.3182L28.6375 12.3188Z" fill="#908E95"/>
<path d="M34.9686 12.5489C34.981 12.6671 34.9723 12.784 34.9439 12.8991C34.7205 12.9041 34.4971 12.909 34.2738 12.914C33.4261 12.7376 32.5061 13.1639 31.7042 12.6052L31.672 12.4437C32.2369 12.0545 32.8593 12.044 33.5016 12.1678C33.978 12.3843 34.5565 12.1857 35.0002 12.5359L34.9686 12.5483V12.5489Z" fill="#D1D6DE"/>
<path d="M18.6839 16.9577C19.3138 17.3741 19.9727 16.8129 20.6094 17.0146C20.7369 17.3407 20.7233 17.6723 20.6515 18.0064C20.555 18.1481 20.4263 18.249 20.2642 18.3059C19.6095 18.3888 18.9469 18.447 18.3987 18.8844C18.0404 19.0571 17.7038 19.075 17.4155 18.7489C17.254 18.3604 17.3184 18.0132 17.6048 17.707C17.7533 17.634 18.038 17.5183 18.0305 17.4954C17.9334 17.1916 17.2472 17.1019 17.5442 16.7411C17.8697 16.3458 18.2997 16.8482 18.6845 16.9577H18.6839Z" fill="#BAC0CC"/>
<path d="M17.6045 17.707C17.5958 18.0721 17.5878 18.4371 17.5791 18.8016C17.675 18.8857 17.7072 18.9699 17.6744 19.054C17.6416 19.1375 17.6094 19.1796 17.5773 19.1796C16.8546 19.1295 16.4178 18.887 16.8323 18.0727C17.0897 17.9508 17.3471 17.8289 17.6045 17.707Z" fill="#E3EAF4"/>
<path d="M35.0005 12.538C34.5043 12.5071 34.0081 12.4755 33.5112 12.4446C32.9073 12.1352 32.2044 12.522 31.6061 12.1742C31.3809 12.1631 31.1557 12.1513 30.9305 12.1402C30.7152 11.9385 30.5252 11.7238 30.5543 11.3983C30.7356 11.0958 31.0301 11.0537 31.3438 11.0568C31.8369 12.5003 33.2309 10.9207 33.8874 11.8147C34.1355 12.2454 34.8155 12.0109 35.0005 12.5387V12.538Z" fill="#4F555E"/>
<path d="M30.5599 12.1372C30.1478 12.131 29.706 12.2133 29.4418 11.7647L29.4468 11.7641C29.5668 11.6571 29.6807 11.5438 29.7877 11.4238C29.9164 11.4151 30.0451 11.4071 30.1732 11.3984C30.3761 11.6057 30.7987 11.6991 30.5599 12.1378V12.1372Z" fill="#6D7786"/>
<path d="M30.56 12.1378C30.4313 11.8916 30.3026 11.6453 30.174 11.3984C30.3008 11.3984 30.4276 11.3984 30.5545 11.3984C30.857 11.5562 30.9226 11.8334 30.9307 12.1403L30.7457 12.1496L30.5607 12.1378H30.56Z" fill="#595F69"/>
<path d="M20.5613 17.9764C20.2315 17.6385 20.3052 17.3205 20.609 17.0136C20.7111 16.9963 20.8132 16.9796 20.9152 16.9629C21.1578 17.0928 21.4003 17.2234 21.6429 17.3539C21.5167 17.474 21.391 17.594 21.2648 17.714C21.0854 17.9491 20.9635 18.3383 20.5613 17.9764Z" fill="#9397A6"/>
<path d="M17.5773 19.1795C17.5779 19.0539 17.5785 18.9283 17.5791 18.8021C17.8743 18.8058 18.162 18.7916 18.3377 18.4971C19.0826 18.1351 19.814 18.0435 20.5119 18.6078C20.6561 18.7836 20.6542 18.9574 20.5057 19.1294C20.3826 19.1412 20.2589 19.1529 20.1351 19.1647C19.2813 18.9778 18.4355 20.1089 17.5773 19.1802V19.1795Z" fill="#E7EEF6"/>
<path d="M15.8143 19.4986C16.4051 19.542 17.0189 19.5451 17.2089 20.2925C17.3388 20.4756 17.3178 20.6396 17.147 20.7856C16.2585 21.0232 15.6515 20.665 15.2432 19.8866C15.3007 19.563 15.4399 19.3576 15.8143 19.498V19.4986Z" fill="#383E46"/>
<path d="M15.8142 19.4986C15.6589 19.6539 15.5036 19.8098 15.3483 19.9651C15.3124 20.5547 14.9814 20.5356 14.5668 20.3425C14.4709 20.3184 14.3775 20.2862 14.2872 20.2466C14.3961 20.1414 14.5043 20.0369 14.6132 19.9317C15.1256 19.7151 14.8731 18.7555 15.6849 18.8303C15.7282 19.0531 15.7715 19.2758 15.8148 19.4986H15.8142Z" fill="#4E5965"/>
<path d="M18.2972 21.7032C17.9983 21.7595 17.6883 21.8486 17.5337 21.4575C17.34 21.0139 17.5813 20.7899 17.9519 20.6322C18.0744 20.6235 18.1951 20.6322 18.3151 20.6581C18.4989 21.0096 18.6152 21.3604 18.2978 21.7038L18.2972 21.7032Z" fill="#09090B"/>
<path d="M17.9513 20.6339C17.8121 20.9092 17.6722 21.1846 17.533 21.4593C17.4266 21.458 17.3276 21.4321 17.2348 21.3801C16.9854 21.1499 16.9854 20.9092 17.2069 20.6605C17.2001 20.538 17.2007 20.4155 17.2088 20.293C17.4816 20.3517 17.83 20.2453 17.9519 20.6333L17.9513 20.6339Z" fill="#434549"/>
<path d="M47.6802 25.8102C47.6561 25.5813 47.6319 25.353 47.6072 25.124C47.9704 24.5641 48.3268 23.9825 49.0958 24.6266C49.6898 25.3127 50.0809 26.0441 49.6094 26.9648C49.4473 27.1275 49.2808 27.1312 49.1113 26.9765C48.6343 26.5879 48.1572 26.1994 47.6796 25.8108L47.6802 25.8102Z" fill="#4D5460"/>
<path d="M48.7209 28.8706C48.3577 28.7283 47.9939 28.586 47.6307 28.443C47.6461 27.9227 47.872 27.5422 48.3657 27.3398C48.4839 27.8503 48.6027 28.3601 48.7209 28.8706Z" fill="#808898"/>
<path d="M49.1116 26.9765C49.226 26.9425 49.3411 26.9103 49.4562 26.88C49.6963 26.7575 49.8367 26.351 50.2129 26.6145C50.4604 26.737 50.7085 26.8596 50.956 26.9827C50.8248 27.1139 50.6931 27.245 50.5619 27.3768C50.2055 27.3706 49.8497 27.3644 49.4933 27.3583C49.3659 27.2314 49.239 27.104 49.1116 26.9765Z" fill="#A0ABBA"/>
<path d="M13.7513 22.2213C13.6814 22.2627 13.6053 22.285 13.5236 22.2869C13.4196 21.4652 14.1312 21.3526 14.6107 21.0383C15.4553 20.5711 15.915 21.1515 16.3896 21.6916C17.0609 21.7981 17.5169 22.1248 17.5812 22.8536C16.9495 22.9947 16.6142 22.4972 16.1829 22.2052C15.373 22.2999 14.5649 22.7076 13.7513 22.2213Z" fill="#E8EDF3"/>
<path d="M13.1149 24.0075C13.0357 23.3251 13.8549 23.1327 13.9223 22.5306C14.4396 22.1421 14.6927 22.4805 14.9197 22.892C15.0639 23.137 15.2087 23.3814 15.3528 23.6264C15.4828 23.8108 15.4679 23.9828 15.3077 24.1424C14.6605 24.5285 13.9984 24.5186 13.3253 24.2161C13.2547 24.1474 13.1854 24.0775 13.1155 24.0075H13.1149Z" fill="#D8DDE6"/>
<path d="M15.3396 24.0321C15.3439 23.8966 15.3482 23.7611 15.3526 23.625C15.8599 23.7085 16.535 23.5322 16.5461 24.3898C16.4867 24.49 16.4496 24.5983 16.436 24.714C16.3023 24.8656 16.1346 24.9559 15.9342 24.985C15.3618 24.9008 14.9764 24.6997 15.3396 24.0321Z" fill="#D4DCE7"/>
<path d="M14.9196 22.8919C14.5873 22.7712 14.2544 22.6512 13.9222 22.5305C13.8294 22.4476 13.7724 22.3443 13.7514 22.2212C14.5619 22.2156 15.3719 22.21 16.1824 22.2051C15.8774 22.6462 15.1386 22.2923 14.9196 22.8919Z" fill="#C7CED8"/>
<path d="M46.1415 18.081C46.1471 18.3984 46.2244 18.6781 46.5431 18.8272C46.4954 19.5747 46.6495 20.353 46.1997 21.038C46.0642 21.1469 45.9472 21.1357 45.8519 20.9848C45.7548 20.009 44.7351 20.3802 44.2884 19.915C43.8553 19.6532 44.1801 19.1323 43.9122 18.8142C43.8015 18.5612 43.6913 18.3081 43.5806 18.0557C43.893 17.7958 44.1844 17.4697 44.6584 17.703C44.6831 17.7933 44.6875 17.8843 44.6714 17.9765C44.9962 18.3793 45.352 18.4851 45.7597 18.0903C45.8866 18.0872 46.0134 18.0841 46.1409 18.0817L46.1415 18.081Z" fill="#34363B"/>
<path d="M45.7604 18.0896C45.7232 18.433 45.8952 18.9645 45.417 19.0097C44.745 19.0728 44.7048 18.4831 44.6714 17.9764C45.0507 17.8582 45.4194 17.8397 45.7604 18.089V18.0896Z" fill="#232427"/>
<path d="M44.659 17.7039C44.2995 17.8214 43.9401 17.9396 43.5806 18.0572C43.6022 17.8394 43.6239 17.6216 43.6449 17.4044C44.018 17.3852 44.539 16.8673 44.6584 17.7045L44.659 17.7039Z" fill="#222225"/>
<path d="M43.9123 18.8151C44.3541 19.0743 44.265 19.5142 44.2885 19.9158C44.0657 19.8929 43.843 19.8706 43.6202 19.8477C43.5943 19.7555 43.5646 19.6652 43.5299 19.5755C43.6574 19.3218 43.7848 19.0681 43.9123 18.8145V18.8151Z" fill="#444850"/>
<path d="M45.8519 20.985C45.9669 21.006 46.0826 21.024 46.199 21.0382C46.3357 21.0345 46.4718 21.0308 46.6073 21.0271C46.6587 21.1904 46.6537 21.35 46.5838 21.5078C46.496 21.652 46.3803 21.7689 46.2417 21.8648C46.1612 21.884 46.0795 21.9032 45.9985 21.9218C45.9329 21.871 45.8673 21.8197 45.8017 21.7683C45.7535 21.665 45.725 21.5567 45.7176 21.4435C45.7621 21.2906 45.8067 21.1372 45.8512 20.9844L45.8519 20.985Z" fill="#5B6571"/>
<path d="M44.6675 21.791C44.537 21.7904 44.407 21.7892 44.2765 21.7886C44.4083 21.4835 44.5388 21.5219 44.6675 21.791Z" fill="#B8CAD8"/>
<path d="M16.1516 24.8299C16.2426 24.7817 16.3373 24.7433 16.4363 24.7148C16.4536 25.0954 16.4709 25.4759 16.4882 25.8564C16.0149 26.1039 15.5249 26.2895 14.9761 26.2468C14.5986 26.5531 14.2292 26.5271 13.8667 26.2208C13.8599 26.0977 13.8592 25.9752 13.8667 25.8521C14.0913 25.6293 14.3159 25.406 14.5411 25.1832C14.6252 25.0502 14.7459 24.9741 14.9012 24.9531C15.3306 25.0422 15.7637 25.1634 16.1523 24.8299H16.1516Z" fill="#606270"/>
<path d="M14.9773 25.1154C14.8313 25.1377 14.6859 25.16 14.5398 25.1817C13.8339 24.8704 12.9546 25.4749 12.3242 24.7634C12.5574 24.3618 12.9645 24.2845 13.3698 24.2028C13.9081 24.5017 15.2273 23.4282 14.9767 25.1148L14.9773 25.1154Z" fill="#2F3033"/>
<path d="M13.1549 24.3004C12.9903 24.6562 12.6735 24.7397 12.3246 24.7651C12.0177 24.5968 11.8574 24.3678 12.0084 24.0084C12.3772 23.7726 12.7459 23.7689 13.1147 24.0077L13.1821 23.9712C13.2743 24.0523 13.3016 24.1284 13.2626 24.1989C13.2254 24.267 13.1896 24.301 13.1549 24.301V24.3004Z" fill="#323031"/>
<path d="M47.6805 20.733C48.2045 20.6606 48.5164 20.9799 48.8059 21.3412C48.6531 21.9661 48.2584 22.3021 47.613 22.3398C47.3111 22.2767 47.1168 22.0948 47.0221 21.8034C46.9788 21.5064 47.0524 21.2502 47.2888 21.0516L47.6805 20.7336V20.733Z" fill="#383C44"/>
<path d="M47.2888 21.0522C47.2647 21.2762 47.2399 21.5008 47.2158 21.7248C47.1607 21.8801 47.0524 21.9413 46.8903 21.9073C46.7561 21.8386 46.6472 21.7415 46.563 21.6159C46.5482 21.5435 46.5339 21.4705 46.5197 21.3974C46.5482 21.2749 46.5773 21.1518 46.607 21.0293C46.8353 21.0367 47.0623 21.0448 47.2894 21.0522H47.2888Z" fill="#838E9D"/>
<path d="M16.389 21.6905C15.6379 21.9027 15.3545 20.8428 14.6102 21.0371C14.5953 20.8057 14.5811 20.5737 14.5662 20.3423C14.8267 20.2167 15.0872 20.0904 15.3477 19.9648C16.0153 20.0676 16.4416 20.8168 17.2064 20.6603C17.2156 20.8997 17.2249 21.1398 17.2342 21.3793C16.9205 21.3966 16.5932 21.3768 16.389 21.6905Z" fill="#8693A2"/>
<path d="M47.6445 22.1573C48.0318 21.8857 48.4185 21.614 48.8064 21.3418C49.1109 21.3665 49.3893 21.4303 49.479 21.7817C49.229 22.0187 48.9791 22.255 48.7291 22.492C48.2385 22.7977 47.7769 23.0099 47.6445 22.1573Z" fill="#202126"/>
<path d="M45.7771 24.7525C45.8266 24.2111 45.649 23.7266 45.4009 23.2601C45.5351 23.1166 45.67 22.973 45.8043 22.8301C46.5134 22.8462 46.6272 23.4055 46.7992 23.9141C46.8363 24.1894 46.8011 24.4505 46.6421 24.6857C46.3537 24.7079 46.0654 24.7302 45.7777 24.7525H45.7771Z" fill="#B3C3D2"/>
<path d="M46.5399 24.0161C46.2949 23.6214 46.0493 23.226 45.8042 22.8307C45.8036 22.4767 45.8024 22.1228 45.8018 21.7695C45.8921 21.7714 45.9812 21.7788 46.0703 21.7912C46.7781 22.4167 47.877 22.9594 46.5393 24.0155L46.5399 24.0161Z" fill="#717B89"/>
<path d="M50.2127 26.6136C49.9609 26.7021 49.7085 26.7912 49.4566 26.8796C49.6565 26.0153 49.1652 25.3842 48.7327 24.7332C49.052 24.4121 49.0316 23.8627 49.4777 23.627C49.5971 23.6325 49.7153 23.6449 49.8335 23.6647C49.9751 24.2618 50.1162 24.8589 50.2579 25.4553C50.2431 25.8414 50.2276 26.2275 50.2127 26.6136Z" fill="#5C6470"/>
<path d="M13.8665 26.2207C14.2365 26.2294 14.6065 26.238 14.9759 26.2467C15.1002 26.4861 15.224 26.7262 15.3483 26.9657V26.9743C14.8503 27.2546 14.3571 27.2534 13.8689 26.949C13.872 26.8419 13.8615 26.7355 13.8386 26.6309C13.8479 26.4942 13.8572 26.3574 13.8665 26.2207Z" fill="#42383C"/>
<path d="M13.8684 26.9492C14.3615 26.9579 14.8547 26.9659 15.3478 26.9746C15.4926 27.2116 15.6367 27.4485 15.7821 27.6855C15.0873 27.5878 14.3925 27.49 13.8684 26.9492Z" fill="#6A6974"/>
<path d="M14.6512 28.7995C14.5306 28.677 14.4099 28.5545 14.2893 28.432C14.2565 28.3243 14.2416 28.2142 14.2447 28.1016C14.7366 28.1127 15.2285 28.1238 15.7198 28.1356C15.481 28.3559 15.2421 28.5761 15.0033 28.7958C14.887 28.9325 14.77 28.9338 14.6512 28.7995Z" fill="#BBC4D2"/>
<path d="M49.4784 23.6283C49.4814 24.166 49.4938 24.7105 48.7334 24.7346C48.2359 24.5131 48.0912 25.3063 47.6079 25.125C47.4867 25.1349 47.366 25.1454 47.2447 25.156C47.0436 25 46.8432 24.8435 46.6421 24.687C46.6081 24.4636 46.574 24.2402 46.54 24.0169C47.4576 23.0498 46.0011 22.5814 46.071 21.7925L46.1941 21.7678C46.2863 21.6688 46.4008 21.6187 46.5344 21.6094C46.6637 21.623 46.7918 21.6446 46.9187 21.6737C47.0139 21.7146 47.1129 21.7313 47.2163 21.7245C47.3592 21.8686 47.5015 22.0128 47.6444 22.157C47.8969 22.621 48.3244 22.5195 48.7291 22.4923C48.979 22.8704 49.2284 23.249 49.4784 23.6277V23.6283Z" fill="#464B53"/>
<path d="M14.6512 28.8C14.7687 28.8111 14.8857 28.8099 15.0032 28.7969C15.6826 28.881 15.8367 29.4589 16.0848 29.9477C15.6084 29.9242 15.1326 29.9013 14.6568 29.8772C14.6555 29.5177 14.653 29.1588 14.6512 28.8006V28.8Z" fill="#A9B4C2"/>
<path d="M20.5054 19.1279C20.5295 19.0234 20.5419 18.9176 20.5425 18.8099C20.3278 18.5643 20.321 18.3199 20.5481 18.0779C20.5481 18.0779 20.5605 17.9777 20.5605 17.9765C20.795 17.888 21.0301 17.8001 21.2646 17.7129C21.4057 17.9554 21.5473 18.1974 21.689 18.4393C21.108 18.3483 20.9472 18.9794 20.5054 19.1279Z" fill="#D2DAE4"/>
<path d="M31.6061 12.1745C32.2502 12.203 32.9376 11.9239 33.5112 12.4449C32.898 12.4449 32.2854 12.4455 31.6723 12.4461C31.6593 12.3533 31.637 12.263 31.6061 12.1745Z" fill="#575962"/>
<path d="M20.549 18.0779C20.5471 18.3217 20.5453 18.5661 20.5434 18.8098C19.8554 18.3749 19.1012 18.4052 18.3376 18.4949C18.952 17.7066 19.7589 17.9356 20.549 18.0773V18.0779Z" fill="#C1C8D2"/>
<path d="M13.1549 24.3005C13.132 24.1879 13.1413 24.0784 13.1821 23.9707C13.9017 23.9911 14.6207 24.0122 15.3396 24.0326C15.3817 24.53 15.6775 24.7701 16.1508 24.8295C15.959 25.7397 15.4887 25.5132 14.9771 25.1166C14.8626 23.7455 13.7612 24.5752 13.1549 24.3005Z" fill="#979FAD"/>
<path d="M46.632 21.7657C46.486 21.7657 46.3394 21.7663 46.1934 21.7669C46.3023 21.6432 46.4105 21.52 46.5188 21.3963L46.5423 21.3926C46.603 21.5095 46.6345 21.6333 46.632 21.7651V21.7657Z" fill="#202226"/>
<path d="M46.6321 21.7651C46.6018 21.6407 46.5721 21.5169 46.5424 21.3926C46.6674 21.4866 46.793 21.5801 46.918 21.6735C46.8239 21.7075 46.7293 21.7384 46.6321 21.7657V21.7651Z" fill="#67707C"/>
</g>
<path d="M31.2751 46.0299C39.7176 46.0299 46.5615 39.1859 46.5615 30.7434C46.5615 22.301 39.7176 15.457 31.2751 15.457C22.8327 15.457 15.9887 22.301 15.9887 30.7434C15.9887 39.1859 22.8327 46.0299 31.2751 46.0299Z" fill="white"/>
<mask id="mask1_1261_10207" style="mask-type:luminance" maskUnits="userSpaceOnUse" x="20" y="19" width="23" height="23">
<path d="M31.4798 41.9288C37.6577 41.9288 42.6658 36.9206 42.6658 30.7427C42.6658 24.5648 37.6577 19.5566 31.4798 19.5566C25.3019 19.5566 20.2937 24.5648 20.2937 30.7427C20.2937 36.9206 25.3019 41.9288 31.4798 41.9288Z" fill="white"/>
</mask>
<g mask="url(#mask1_1261_10207)">
<path d="M33.5275 25.048C32.4404 24.4299 31.2604 24.8277 30.1251 24.7349C29.9283 24.1551 30.4214 24.045 30.7463 23.8185C30.9016 23.7579 31.0631 23.7189 31.2258 23.6936C31.8167 23.6533 31.7369 23.2159 31.7325 22.8261C31.8062 22.2575 31.829 21.6895 31.7307 21.1203C31.7232 20.9532 31.7437 20.7899 31.782 20.6277C31.9342 20.1272 32.2566 19.7665 32.707 19.5128C33.809 19.4002 34.7934 19.8191 35.7877 20.1928C35.7809 20.405 35.7091 20.6005 35.6411 20.7973C35.5433 21.1524 35.6479 21.5132 35.6138 21.8714C35.5501 22.2686 35.3979 22.6275 35.1591 22.9498C34.8435 23.3743 34.1215 23.3236 33.9884 23.9609C33.9012 24.3531 33.8319 24.7516 33.5269 25.0486L33.5275 25.048Z" fill="#818F9E"/>
<path d="M21.8409 25.0633C22.0209 24.1105 22.4596 23.3328 23.3419 22.8576C23.7175 22.568 24.1358 22.4721 24.5986 22.5804C24.7601 22.6416 24.8974 22.7412 25.0131 22.8693C25.2588 23.3606 25.4196 23.9317 26.0916 24.0375C26.2568 24.0987 26.4102 24.1779 26.5581 24.272C27.0283 24.7045 27.592 25.1054 27.1218 25.8671L27.1119 25.877C26.3286 26.5774 25.3485 26.3373 24.4402 26.4388C24.2774 26.4765 24.1129 26.4963 23.9458 26.5069C23.5108 26.518 23.147 26.3317 22.8005 26.096C22.4194 25.8102 21.9374 25.6146 21.8409 25.064V25.0633Z" fill="#E8EFF6"/>
<path d="M27.1234 26.2175C26.6327 27.1246 26.1427 28.0317 25.652 28.9387C25.4218 28.8954 25.1917 28.8533 24.9844 28.7383C24.6633 28.5279 24.3248 28.3695 23.9233 28.4023C23.6714 28.4017 23.4345 28.3497 23.2154 28.2229C22.9345 27.9939 22.7631 27.7112 22.778 27.3374C22.8962 26.5795 23.7358 26.7039 24.1064 26.2534L24.0798 26.1445C25.0902 26.3345 26.1099 26.139 27.1234 26.2182V26.2175Z" fill="#525158"/>
<path d="M25.5933 29.995C25.1695 30.7084 26.4589 32.3196 24.4387 32.1964C24.2315 31.9706 23.9685 31.8122 23.734 31.6173C23.3727 31.3042 22.8486 31.1124 22.8851 30.498C23.1852 29.9665 23.7284 29.8459 24.2494 29.6831C24.7463 29.5786 25.1893 29.7023 25.5933 29.995Z" fill="#9EA9B8"/>
<path d="M42.0492 27.7561C42.5077 28.9527 41.978 29.517 40.8136 29.5795C39.883 29.6296 38.9469 29.5844 38.0132 29.5813C37.801 29.1241 38.0132 28.772 38.2941 28.4367C38.437 28.355 38.593 28.3136 38.7575 28.3092C39.3726 28.4243 39.9913 28.446 40.6094 28.3265C41.2504 28.545 41.4144 27.5531 42.0492 27.7561Z" fill="#4A4445"/>
<path d="M26.4021 24.4974C26.2635 24.4504 26.1255 24.404 25.9869 24.3569C25.2983 24.068 25.2772 23.3088 24.893 22.8058L24.8998 22.8107C24.5552 22.6499 24.2025 22.497 24.1548 22.0472C24.2656 21.9501 24.3764 21.8529 24.4871 21.7552C25.0631 21.3394 25.7339 21.6593 26.3439 21.5176C27.2033 21.7193 26.8878 22.4407 26.9924 22.9765C26.9391 23.3725 26.8018 23.7463 26.6762 24.1243C26.6149 24.2703 26.524 24.3953 26.4021 24.4974Z" fill="#30343B"/>
<path d="M27.1215 25.8679C27.1295 25.2813 26.6055 24.9738 26.4019 24.498L26.3079 24.4318L26.3369 24.3204C26.6302 24.0952 26.9482 23.9226 27.3189 23.8613C27.7755 23.7561 28.2334 23.6355 28.6912 23.857C28.9876 24.115 29.266 24.3792 28.9888 24.8154C28.531 25.4576 28.1226 26.1877 27.1215 25.8672V25.8679Z" fill="#C4D0DC"/>
<path d="M20.3576 30.3579C20.3637 29.8654 20.3693 29.3735 20.3755 28.881C20.5543 28.4955 20.8259 28.2654 21.2813 28.3402C22.3202 28.5766 22.7947 29.1607 22.4532 30.2466C22.1921 30.7038 21.7689 30.8783 21.2702 30.921C20.86 30.9061 20.6106 30.6296 20.3569 30.3585L20.3576 30.3579Z" fill="#494A51"/>
<path d="M36.8204 28.1326C35.9213 27.3938 35.9461 25.9126 34.6771 25.4714C34.7915 25.3409 34.9314 25.2468 35.0941 25.1862C35.3441 25.1163 35.5984 25.1027 35.8557 25.1311C36.1991 25.18 36.4986 25.3192 36.743 25.5692C37.0604 25.9392 37.4781 26.2127 37.7713 26.6093C37.9959 27.3183 37.5399 27.6939 37.0604 28.0577C36.9806 28.0837 36.9008 28.1085 36.8204 28.1326Z" fill="#575E68"/>
<path d="M38.0925 21.6484C38.2193 21.7573 38.3456 21.8669 38.4724 21.9757C38.7026 22.4157 38.7855 22.9137 39.0181 23.353C39.1202 23.5814 39.1672 23.8251 39.2273 24.0658C39.2662 24.1549 39.2415 24.2205 39.1536 24.2626C39.3553 24.5169 39.3918 24.7953 39.2755 25.0966C39.02 25.4475 38.6716 25.6182 38.241 25.63C36.7913 25.0942 37.6353 23.9235 37.5152 23.0171C37.5653 22.5004 37.5808 21.9689 38.0931 21.6484H38.0925Z" fill="#707F91"/>
<path d="M42.0492 27.7566C41.4998 27.8475 41.5258 29.0343 40.6447 28.4941C40.4263 28.7045 40.172 28.6816 39.9097 28.6055C39.6009 28.3586 39.5669 28.0294 39.6288 27.6731C39.682 27.5184 39.7717 27.3853 39.8973 27.2802C40.3007 27.2424 40.5581 26.9244 40.8928 26.7456C41.4949 26.589 41.855 26.9046 42.134 27.3773C42.1055 27.5035 42.0777 27.6297 42.0492 27.756V27.7566Z" fill="#433E42"/>
<path d="M21.8409 25.0625C22.2177 25.3316 22.5945 25.6008 22.9707 25.8699C23.2448 26.4194 22.8729 26.8383 22.683 27.2943C22.2239 27.6036 21.922 27.1897 21.5581 27.0548C21.3391 26.9397 21.1362 26.8055 21.0242 26.5722C21.2667 26.0531 21.2673 25.4034 21.8403 25.0625H21.8409Z" fill="#63646D"/>
<path d="M38.38 28.483C38.2581 28.8486 38.1356 29.2149 38.0137 29.5806C36.7923 29.7767 36.9062 28.8728 36.8208 28.1334C36.8895 28.1724 36.9557 28.1686 37.0194 28.121C37.6097 27.7275 38.1616 27.48 38.3806 28.4823L38.38 28.483Z" fill="#393538"/>
<path d="M32.064 20.6957C32.0807 20.8022 32.0535 20.895 31.9817 20.9754C30.8686 22.0155 30.5605 21.1437 30.2579 20.2521C30.2177 19.9576 30.2827 19.6922 30.4844 19.4663C30.8599 19.303 31.2405 19.2943 31.6253 19.4335C31.9074 19.8072 32.2403 20.163 32.0646 20.6957H32.064Z" fill="#191B1E"/>
<path d="M26.7449 21.7161C25.9926 21.7291 25.2396 21.7427 24.4872 21.7557C25.3361 21.2075 26.4746 21.1493 27.0982 20.2188C27.4614 20.5164 27.6136 20.9167 27.6588 21.3696C27.6471 21.5515 27.5808 21.7099 27.4546 21.8423C27.1904 21.9562 26.9454 21.9617 26.7443 21.7161H26.7449Z" fill="#CAD1D9"/>
<path d="M20.3578 30.3594C20.6554 30.3724 20.9604 30.3674 21.1467 30.6669C21.2376 30.7795 21.3199 30.8977 21.3948 31.022C21.4684 31.2343 21.4895 31.4459 21.3917 31.6569C20.9988 32.4024 20.6158 32.5194 20.3813 31.5857C20.2842 31.1996 20.3609 30.7696 20.3584 30.36L20.3578 30.3594Z" fill="#9298A3"/>
<path d="M25.5933 29.9952L24.1077 29.9674C23.9765 29.8498 23.8887 29.7063 23.8491 29.5343C23.8243 29.1612 23.9487 28.8636 24.2865 28.6748C24.5754 28.4991 24.9535 28.7528 25.2245 28.4824C25.3668 28.634 25.5091 28.7862 25.6514 28.9378C25.2653 29.2701 25.4658 29.6345 25.5933 29.9946V29.9952Z" fill="#2B292B"/>
<path d="M35.3965 20.6276C35.527 20.4822 35.6576 20.3368 35.7881 20.1914C36.41 20.5552 37.0318 20.9197 37.6536 21.2835C37.619 21.3559 37.5849 21.4283 37.5509 21.5019C37.3016 21.7302 37.0046 21.8447 36.6692 21.8676C35.9366 21.771 35.4485 21.4227 35.3971 20.627L35.3965 20.6276Z" fill="#5F646E"/>
<path d="M35.0896 25.4257C34.9523 25.4418 34.8149 25.4578 34.6776 25.4739C34.294 25.3322 33.911 25.1905 33.5273 25.0482C33.5372 24.5891 33.5465 24.1294 33.5564 23.6703C34.1795 23.4179 34.4592 23.8955 34.7982 24.2513C35.0129 24.6133 35.2115 24.9802 35.0903 25.4263L35.0896 25.4257Z" fill="#4F5762"/>
<path d="M42.1339 27.3768C41.6908 27.0426 41.2095 26.8515 40.6433 26.9832C40.3674 27.1732 40.1527 27.0204 39.9386 26.8576C39.8247 26.7104 39.7771 26.5458 39.8049 26.3608C39.9448 26.1016 40.1743 25.9741 40.4521 25.9141C40.8432 25.846 41.1686 25.9797 41.452 26.2414C42.0045 26.4252 42.1716 26.8397 42.1332 27.3768H42.1339Z" fill="#B3C5D3"/>
<path d="M21.3909 31.6552C21.3129 31.4702 21.2356 31.2852 21.1576 31.0995C21.798 30.6862 22.3839 31.0531 22.9841 31.2245C23.3355 31.5735 24.1281 31.4176 24.1071 32.1966C23.1586 32.2312 22.2156 32.2399 21.3902 31.6552H21.3909Z" fill="#808999"/>
<path d="M39.1592 25.0983C39.1573 24.8199 39.1549 24.5421 39.153 24.2637C39.6827 24.3602 40.2568 24.2928 40.7036 24.69C40.6107 25.1355 40.7017 25.6434 40.2636 25.9708C39.4983 26.1824 39.1951 25.8093 39.1592 25.0983Z" fill="#41454B"/>
<path d="M27.1235 26.2173C26.1007 26.5347 25.0823 26.6838 24.08 26.1436C25.0675 25.7879 26.1007 25.9586 27.1124 25.877C27.1792 25.9883 27.1829 26.1016 27.1235 26.2173Z" fill="#CAD1D9"/>
<path d="M40.2297 25.9071C40.3064 25.4697 40.2847 24.9939 40.7042 24.6895C41.2166 25.0805 41.4046 25.6275 41.4529 26.2419C41.0613 26.2388 40.6702 26.2357 40.2786 26.2326C40.1443 26.1787 40.0923 26.1125 40.1226 26.034C40.1548 25.9492 40.1907 25.9071 40.2297 25.9071Z" fill="#121216"/>
<path d="M21.844 26.6159C22.0939 26.864 22.3445 27.1127 22.5945 27.3608C22.6248 27.4375 22.6557 27.5143 22.6861 27.5916C22.5561 28.1782 22.1465 28.3922 21.5921 28.4145C21.4288 28.3904 21.2716 28.3415 21.1219 28.271C20.8874 28.1633 20.7253 27.9919 20.6572 27.7382C20.6906 27.6126 20.7247 27.4864 20.7581 27.3608C21.0272 26.9778 21.573 26.9964 21.844 26.6152V26.6159Z" fill="#504B50"/>
<path d="M30.886 24.0264C30.6323 24.2622 30.378 24.4985 30.1243 24.7343C29.8768 24.7231 29.6293 24.712 29.3818 24.7015C28.9549 24.1458 29.281 23.7802 29.6999 23.4368C30.0952 23.2555 30.4826 23.2542 30.8575 23.4925C31.0147 23.662 31.024 23.8402 30.886 24.0264Z" fill="#292E34"/>
<path d="M29.7768 23.5976C29.5911 23.9465 29.2935 24.2553 29.3826 24.7014C29.2515 24.7391 29.1203 24.7769 28.9891 24.8146C28.8567 24.5554 28.7243 24.2955 28.5925 24.0363C28.5053 23.936 28.4632 23.8277 28.4663 23.7114C28.4694 23.5914 28.4818 23.5314 28.5034 23.5307C28.7985 23.1032 29.1741 22.9064 29.6914 23.115C29.7935 23.2072 29.8399 23.3092 29.8312 23.4212C29.8219 23.5382 29.804 23.597 29.7768 23.597V23.5976Z" fill="#707D8A"/>
<path d="M27.3902 21.4342C27.0072 21.0976 27.1316 20.6391 27.0988 20.219C27.3673 20.1206 27.6353 20.0222 27.9038 19.9238C28.2645 20.0927 28.4594 20.3477 28.3425 20.7659C28.1408 21.152 27.9972 21.6247 27.3902 21.4342Z" fill="#91A0AE"/>
<path d="M28.2076 20.6224C28.1061 20.3892 28.0047 20.1559 27.9032 19.9226C28.5151 19.7778 29.1271 19.6331 29.7384 19.4883C29.9555 19.698 29.971 19.9437 29.8671 20.211C29.5664 20.5822 29.1382 20.6855 28.6995 20.7684C28.5195 20.7759 28.3555 20.7257 28.2076 20.6224Z" fill="#6A7483"/>
<path d="M39.2265 24.0669C39.0693 23.9116 38.9121 23.7556 38.755 23.6003C38.6448 23.153 38.1963 22.593 39.125 22.4922C39.2685 23.0101 39.8142 23.5026 39.2265 24.0675V24.0669Z" fill="#464D58"/>
<path d="M29.7401 20.2359C29.7401 19.9872 29.7388 19.7384 29.7388 19.4891C29.9876 19.4816 30.2357 19.4742 30.4844 19.4668C30.5048 19.7205 30.5246 19.9735 30.545 20.2272C30.6416 20.3825 30.6453 20.5403 30.5568 20.7006C30.3167 20.979 30.0556 21.1745 29.6838 20.914C29.5377 20.6746 29.5124 20.445 29.7401 20.2359Z" fill="#768090"/>
<path d="M24.1547 22.0475C24.4028 22.3024 24.6509 22.5567 24.8996 22.811C24.3805 22.8265 23.8614 22.8426 23.3423 22.858C23.5254 22.4998 23.6479 22.0809 24.1553 22.0469L24.1547 22.0475Z" fill="#CAD1D9"/>
<path d="M21.844 26.6169C21.8236 27.3619 21.3008 27.3761 20.7581 27.3625C20.708 27.0525 20.6635 26.745 21.0248 26.5742C21.2977 26.5884 21.5711 26.6033 21.844 26.6175V26.6169Z" fill="#42393B"/>
<path d="M32.064 20.6958C31.9174 20.2751 31.7713 19.8543 31.6247 19.4336C31.9854 19.4596 32.3468 19.4856 32.7075 19.5116C32.4928 19.9063 32.2787 20.3011 32.064 20.6958Z" fill="#292A2F"/>
<path d="M39.125 22.4907C38.6084 22.7296 38.8578 23.2227 38.7557 23.5995C38.205 23.1379 38.4407 22.5396 38.4723 21.9766C38.7526 22.0688 39.0663 22.1189 39.1257 22.4913L39.125 22.4907Z" fill="#8E9CAC"/>
<path d="M38.0926 21.6483C38.0517 22.1754 38.0109 22.7032 37.9707 23.2304C36.9312 22.8523 37.1874 22.2057 37.6161 21.5233C37.6656 21.449 37.678 21.3686 37.6545 21.2832C37.8005 21.4051 37.9472 21.5264 38.0932 21.6483H38.0926Z" fill="#363A40"/>
<path d="M24.1079 32.1971C23.7385 31.9669 23.3685 31.7367 22.9991 31.5059C23.3617 31.191 23.7429 31.2912 24.1265 31.4577C24.4334 31.6186 24.4476 31.9032 24.4396 32.1971L24.2737 32.2243L24.1079 32.1977V32.1971Z" fill="#545663"/>
<path d="M20.6571 27.7389C20.8013 27.8664 20.9455 27.9938 21.0896 28.1213C21.1905 28.1937 21.2239 28.2654 21.1892 28.3366C21.1546 28.4071 21.1206 28.4424 21.0859 28.4424C20.8489 28.5884 20.6126 28.7351 20.3756 28.8811C20.3001 28.4585 20.2624 28.0452 20.6571 27.7383V27.7389Z" fill="#868892"/>
<path d="M30.4257 20.6021C30.4653 20.4771 30.5049 20.3515 30.5445 20.2266C30.8365 20.8342 31.1527 21.3966 31.9812 20.9752C32.4458 21.5927 32.4916 22.1966 31.9218 22.7801C31.8314 23.2645 31.6947 23.7199 31.1849 23.9377C31.0815 23.9557 30.9819 23.9854 30.886 24.0268C30.8786 23.8851 30.8712 23.7434 30.8637 23.6017C30.3477 23.1068 30.3966 22.3457 30.008 21.7895C29.8713 21.297 30.3056 21.0049 30.4251 20.6021H30.4257Z" fill="#2D3339"/>
<path d="M35.0898 25.4245C34.7959 25.1381 34.6307 24.7978 34.6499 24.3795C34.5175 23.8251 34.7013 23.3307 34.9395 22.8463C35.0682 22.4676 35.1975 22.0883 35.3262 21.7097C35.8738 21.3656 36.1825 21.6237 36.3935 22.1304C36.4628 22.4856 36.3836 22.829 36.3007 23.1693C36.2753 23.3283 36.2413 23.4885 36.2116 23.6475C36.1646 23.9532 36.1212 24.2619 36.0025 24.5509C35.6374 24.7346 35.914 25.1634 35.6832 25.3998C35.4852 25.4078 35.2872 25.4165 35.0898 25.4245Z" fill="#1F2125"/>
<path d="M34.9385 22.8457C34.9274 23.3729 35.1173 23.9378 34.649 24.3789C34.2845 24.1419 33.9201 23.905 33.5557 23.668C33.6293 22.743 34.5456 23.2336 34.9385 22.8457Z" fill="#667180"/>
<path d="M36.1323 22.4813C36.1082 21.969 35.8192 21.7332 35.3261 21.7091C35.177 21.3366 34.8955 20.9561 35.3966 20.627C35.8471 21.0557 36.2517 21.5458 36.8834 21.7295C36.9323 21.8094 36.9812 21.8898 37.0301 21.9696C36.9849 22.5865 36.7393 22.8507 36.1323 22.4813Z" fill="#363A40"/>
<path d="M31.1855 23.9369C31.1602 23.3788 31.5394 23.0781 31.9224 22.7793C32.0524 23.2192 32.6024 23.6301 32.1699 24.1096C31.8556 24.4585 31.5128 24.0322 31.1855 23.9369Z" fill="#6D798A"/>
<path d="M22.5944 27.361C22.5362 26.8178 22.733 26.3395 22.9706 25.8711C23.3493 25.9986 23.7279 26.1254 24.1066 26.2529C24.1623 27.0677 23.2168 26.8728 22.9675 27.3802C22.8493 27.5274 22.728 27.5231 22.6043 27.3882L22.5944 27.3616V27.361Z" fill="#4F5059"/>
<path d="M24.8928 22.8047C25.8872 22.8783 25.4318 23.9735 25.9868 24.3559C24.6522 24.5223 24.8545 23.6053 24.8928 22.8047Z" fill="#CAD1D9"/>
<path d="M24.4289 28.8386C24.1115 29.023 24.0626 29.341 24.0193 29.6615C23.6796 29.9406 23.3214 29.9529 22.9464 29.7351C22.6519 29.4171 22.616 29.0465 22.728 28.6468C22.8512 28.3591 23.0603 28.179 23.3752 28.1326C23.6091 28.1314 23.843 28.1301 24.0763 28.1289C24.4196 28.2533 24.6678 28.4247 24.4283 28.838L24.4289 28.8386Z" fill="#595E6B"/>
<path d="M23.3753 28.1316C23.2398 28.2547 23.1043 28.3778 22.9682 28.5009C22.3606 28.7552 21.7486 29.0269 21.4158 28.1297C21.9652 28.1272 22.3692 27.8915 22.6037 27.3866C22.725 27.3748 22.8457 27.3718 22.9669 27.3786C23.1031 27.6298 23.2386 27.8804 23.3747 28.1309L23.3753 28.1316Z" fill="#453D42"/>
<path d="M24.429 28.8383C24.3121 28.6019 24.1945 28.3656 24.077 28.1292C24.7415 27.3348 24.8287 28.4089 25.2247 28.4831C25.0589 28.8234 24.7588 28.8649 24.4284 28.8383H24.429Z" fill="#3E393E"/>
<path d="M24.1258 31.4572C23.7502 31.4733 23.3741 31.4894 22.9985 31.5055C22.3847 31.3706 21.7703 31.2351 21.1571 31.1002C21.1534 30.9554 21.1497 30.8113 21.146 30.6658C21.4844 30.5532 21.8235 30.4413 22.162 30.3286C22.2795 30.216 22.4181 30.1845 22.5746 30.2222C22.8005 30.3274 22.8487 30.5774 23.0022 30.742C23.3765 30.9802 23.7515 31.2184 24.1258 31.4566V31.4572Z" fill="#777F8D"/>
<path d="M23.0022 30.7437C22.8648 30.615 22.7274 30.4863 22.5901 30.3582C22.384 29.9461 22.6414 29.7877 22.9687 29.6677C23.3196 29.6658 23.6698 29.664 24.0206 29.6621C24.0713 29.758 24.101 29.8601 24.1091 29.9684C23.7403 30.227 23.3715 30.485 23.0028 30.7437H23.0022Z" fill="#77808E"/>
<path d="M38.3803 28.4825C38.03 27.9721 37.4948 28.1558 37.019 28.1206C36.7295 27.4381 37.7374 27.263 37.5994 26.6399C38.2336 26.9122 38.2757 26.0484 38.762 26.0336C39.2558 26.0033 39.5911 26.2712 39.8838 26.622L39.8491 26.6993C40.1028 26.9079 40.1251 27.1287 39.8844 27.3639L39.8968 27.3552C39.6412 27.5588 39.5323 27.8632 39.3659 28.1286C39.21 28.321 39.0206 28.4572 38.7676 28.4869C38.6383 28.4856 38.5096 28.4844 38.3803 28.4832V28.4825Z" fill="#37393E"/>
<path d="M38.7673 28.4872C38.8861 28.3653 39.0049 28.2441 39.1231 28.1222C39.5555 27.8481 39.6688 28.2459 39.8624 28.4736C40.1229 28.4804 40.384 28.4872 40.6445 28.4934C40.0171 28.9977 39.391 29.0676 38.7667 28.4872H38.7673Z" fill="#373337"/>
<path d="M26.7447 21.7158C26.9872 21.701 27.2304 21.6867 27.4729 21.6719C27.7433 21.7319 27.924 21.9002 28.0459 22.1421C28.1313 22.3995 28.1214 22.6532 28.0193 22.9044C27.885 23.1395 27.6957 23.314 27.4439 23.4173C27.1735 23.4798 26.9272 23.4433 26.7249 23.236C26.6315 22.7281 26.3623 22.2176 26.7447 21.7164V21.7158Z" fill="#707D8B"/>
<path d="M26.7245 23.2355C26.9881 23.2139 27.2517 23.1916 27.5152 23.1699C27.8326 23.569 27.7726 23.9471 27.4515 24.3109C27.0815 24.499 26.7103 24.5287 26.3365 24.3195C26.3873 23.9303 26.2939 23.4892 26.7239 23.2355H26.7245Z" fill="#464D55"/>
<path d="M27.452 24.3112C27.4731 23.9313 27.4935 23.5514 27.5151 23.1709C27.6346 23.0663 27.754 22.9624 27.8728 22.8584C28.1772 22.7805 28.4915 22.6035 28.7569 22.942C28.8361 23.1913 28.8077 23.4184 28.6128 23.609C28.606 23.7519 28.5992 23.8942 28.5924 24.0377C28.2124 24.1293 27.8319 24.2203 27.452 24.3118V24.3112Z" fill="#737D8D"/>
<path d="M22.9682 29.6661C22.842 29.8962 22.7158 30.1264 22.5902 30.3566C22.4479 30.3473 22.3055 30.338 22.1626 30.3287C22.6025 29.2447 21.6528 28.9533 21.086 28.4428C21.0798 28.3352 21.0817 28.2281 21.0897 28.1211C21.1986 28.131 21.3081 28.1335 21.417 28.1298C21.8359 28.6631 22.4373 28.4354 22.9688 28.501C22.9688 28.8896 22.9688 29.2775 22.9688 29.6661H22.9682Z" fill="#6D717D"/>
<path d="M38.9022 26.2221C38.4518 26.3106 38.2216 27.0852 37.5992 26.641C37.1432 26.5463 36.7651 26.3496 36.5956 25.8781C36.6612 25.4524 36.6711 25.0255 36.6253 24.601C36.3469 24.2737 35.9991 24.0101 35.7739 23.6401C35.7758 23.4947 35.7776 23.3487 35.7795 23.2033C36.3289 22.8451 37.4853 22.9502 36.905 21.7301H36.8833C37.051 21.3917 37.3109 21.3774 37.6153 21.5241C37.6895 22.1026 37.4222 22.7516 37.9704 23.2318C38.3287 23.9495 37.0986 24.95 38.3751 25.5044C38.7457 25.6003 38.927 25.8354 38.9022 26.2215V26.2221Z" fill="#212428"/>
<path d="M37.2464 24.3703C37.2532 24.9698 36.9389 25.4301 36.5949 25.8781C36.2911 25.7191 35.9873 25.5601 35.6829 25.4011C35.686 25.1758 35.3389 24.9166 35.7485 24.7316C36.1989 24.408 36.6184 23.9582 37.2464 24.3703Z" fill="#383D45"/>
<path d="M38.9023 26.2213C38.7266 25.9824 38.5508 25.743 38.3751 25.5042C38.5477 25.1985 38.8503 25.1428 39.1591 25.0977C39.5513 25.3204 39.6701 25.9045 40.2295 25.9063C40.2598 26.0128 40.2759 26.1217 40.2783 26.2318C40.1466 26.3617 40.0148 26.4923 39.883 26.6222C39.4567 26.7311 39.1758 26.4849 38.9023 26.2213Z" fill="#8E9CAC"/>
<path d="M39.8835 27.3637C39.8718 27.1422 39.86 26.9207 39.8483 26.6992C40.1131 26.7939 40.3785 26.8886 40.6433 26.9826C40.66 27.1923 40.6761 27.4015 40.6928 27.6112C40.4231 27.5283 40.1533 27.446 39.8835 27.3631V27.3637Z" fill="#545A64"/>
<path d="M39.8626 28.4736C39.6164 28.3567 39.3701 28.2391 39.1232 28.1222C39.1257 27.6099 39.3775 27.3488 39.896 27.3556C39.8849 27.7281 39.8738 28.1012 39.8626 28.4736Z" fill="#60646E"/>
<path d="M27.8302 22.1352C27.7114 21.9811 27.592 21.8277 27.4732 21.673C27.4485 21.5919 27.4212 21.5115 27.3909 21.4336C27.6626 21.1638 27.9354 20.8934 28.2083 20.6236C28.3413 20.6125 28.4749 20.6007 28.6086 20.5896C29.1586 20.4133 29.1556 20.8179 29.2119 21.1619C29.1846 21.4329 29.0819 21.6761 28.9409 21.9063C28.8412 22.0548 28.7138 22.1742 28.5616 22.2682C28.2943 22.3586 28.048 22.3245 27.8302 22.1358V22.1352Z" fill="#9AA6B5"/>
<path d="M30.1832 21.7559C31.3229 22.0343 30.6967 22.9642 30.8644 23.6009C30.5018 23.5997 30.1393 23.5984 29.7767 23.5972C29.7297 23.4809 29.7037 23.3596 29.6981 23.234C29.6956 23.0317 29.7086 22.83 29.7408 22.6295C29.7631 22.4222 29.8033 22.2193 29.8788 22.0238C29.9431 21.892 30.0471 21.8047 30.1832 21.7559Z" fill="#17181B"/>
<path d="M30.0868 22.8645C29.9575 22.9882 29.8282 23.112 29.6982 23.2351C29.3363 23.3595 28.9743 23.4838 28.6124 23.6088C28.5926 23.3527 28.5734 23.0965 28.5536 22.841C28.3673 22.586 28.3921 22.3392 28.5808 22.0979C28.6223 21.9822 28.6662 21.8677 28.7126 21.7538C29.5077 21.7081 29.619 22.5056 30.0862 22.8651L30.0868 22.8645Z" fill="#4D5761"/>
<path d="M28.961 21.2896C28.9665 20.9938 28.909 20.7296 28.6077 20.5879C28.8855 20.1511 29.326 20.2353 29.7399 20.2346C29.7362 20.4722 29.7331 20.7098 29.7294 20.9474C29.6973 21.0297 29.6657 21.112 29.6341 21.1949C29.4318 21.383 29.2239 21.534 28.961 21.289V21.2896Z" fill="#7E8A9A"/>
<path d="M30.1832 21.7561C30.1591 21.8681 30.1318 21.9789 30.1015 22.0896C29.2576 21.9733 29.4853 21.4938 29.734 21.0068C29.734 21.0068 29.7297 20.9487 29.7297 20.9481C29.9617 20.8323 30.1937 20.7173 30.4257 20.6016C30.3447 20.9864 30.2636 21.3713 30.1826 21.7555L30.1832 21.7561Z" fill="#667181"/>
<path d="M36.905 21.7305C37.7526 23.1548 37.2112 23.5198 35.7795 23.2043C35.897 22.9636 36.0146 22.7235 36.1322 22.4828C36.6253 22.4742 36.8672 22.2063 36.905 21.7305Z" fill="#323941"/>
<path d="M37.2465 24.3694C36.7472 24.49 36.2479 24.6101 35.7486 24.7307C35.7566 24.3669 35.7653 24.0025 35.774 23.6387C36.2263 23.9598 36.8939 23.8484 37.2465 24.3694Z" fill="#2F3339"/>
<path d="M28.5813 22.0957C28.5726 22.3432 28.5633 22.5913 28.5541 22.8388C28.3276 22.8988 28.1104 23.2818 27.8722 22.8567C27.8586 22.6154 27.8444 22.3741 27.8301 22.1328C28.0801 22.1205 28.3307 22.1081 28.5807 22.0957H28.5813Z" fill="#8A96A5"/>
<path d="M29.7347 21.0078C29.7792 21.3951 29.6449 21.8431 30.1022 22.0906C30.0972 22.3486 30.0923 22.6066 30.0873 22.8646C29.3034 22.8962 29.1104 22.1983 28.7131 21.7534C28.796 21.5993 28.879 21.4453 28.9612 21.2912C29.2193 21.1965 29.4767 21.1025 29.7347 21.0078Z" fill="#444B55"/>
</g>
<path d="M31.2751 35.9158C34.53 35.9158 37.1686 33.2772 37.1686 30.0223C37.1686 26.7675 34.53 24.1289 31.2751 24.1289C28.0203 24.1289 25.3817 26.7675 25.3817 30.0223C25.3817 33.2772 28.0203 35.9158 31.2751 35.9158Z" fill="white"/>
<path d="M18.3484 35.9377C18.06 35.5343 17.7723 35.1302 17.3361 34.5195H20.2027C20.5115 34.7237 20.9291 34.6693 21.2119 34.939C21.5181 35.1661 21.9228 35.2744 22.0942 35.666C22.0929 35.8374 22.0267 35.9779 21.8968 36.0899C21.5212 36.3114 21.1172 36.3299 20.7014 36.2606C20.2336 36.1895 19.9045 35.7935 19.4367 35.7217C19.0556 35.7032 18.7171 35.8987 18.349 35.9377H18.3484Z" fill="#858994"/>
<path d="M28.1843 37.2852C28.9905 38.2281 30.6536 38.5214 30.3102 40.346C30.1692 41.0947 29.9811 41.4164 29.2262 41.2729C29.1136 41.146 29.066 40.9969 29.0709 40.8293C29.0982 40.1616 29.3463 39.4322 28.55 38.9984C28.2561 38.7887 27.9844 38.5455 27.6546 38.3853C27.5247 38.3123 27.4177 38.2139 27.328 38.0957C27.2673 37.6149 27.5983 37.4473 27.9603 37.305C28.0346 37.2975 28.1094 37.2913 28.1843 37.2852Z" fill="#41434A"/>
<path d="M20.5506 35.9284C21.0258 35.9173 21.501 35.9061 21.9762 35.895C22.2744 36.1759 22.293 36.5125 22.1723 36.8757C22.004 37.5668 20.7919 36.8107 20.8526 37.8242C20.0024 37.4511 19.203 37.0168 18.7835 36.1208C18.7742 35.9495 18.8516 35.8393 19.0162 35.7892C19.5433 35.6543 20.0092 36.2056 20.5506 35.9278V35.9284Z" fill="#4C535D"/>
<path d="M25.8676 39.2131C25.2854 38.6111 24.9463 37.7764 24.1278 37.4002C24.0201 37.0463 24.2323 36.8694 24.5015 36.7227C25.0713 36.5235 25.6325 36.5235 26.1795 36.8026C26.5804 37.1206 26.3465 37.6638 26.6157 38.0332C26.6089 38.5808 26.8291 39.2744 25.867 39.2131H25.8676Z" fill="#2E3238"/>
<path d="M20.8523 37.8252C20.7143 37.5208 20.5757 37.217 20.3851 36.7969C20.9587 36.8643 21.4735 36.925 21.9876 36.985C22.1918 36.7913 22.4257 36.7715 22.68 36.8662C22.9956 37.071 23.0772 37.3902 23.1063 37.7349C22.3911 38.6636 21.6331 38.5368 20.8523 37.8252Z" fill="#33383F"/>
<path d="M26.3227 37.0456C25.7194 37.0264 25.1168 37.0066 24.5135 36.9874C24.2413 36.7721 24.0197 36.5252 23.9993 36.154C24.0235 35.9789 24.1045 35.8353 24.24 35.7215C24.9701 35.341 25.6885 35.2049 26.361 35.8292C26.6525 35.8675 25.9044 36.5011 26.6475 36.3192C27.0571 36.219 27.437 36.399 27.7829 36.6242C27.9165 36.8451 28.0502 37.0654 28.1838 37.2863C28.1486 37.3611 28.0991 37.4255 28.0353 37.4793C27.4568 37.3636 26.801 37.5548 26.3221 37.0456H26.3227Z" fill="#4F5861"/>
<path d="M25.8678 39.2137C26.4884 38.8622 26.2737 38.2546 26.3232 37.7287C26.661 37.4354 26.9246 37.5592 27.1554 37.8747C27.3552 38.6488 28.0946 39.33 27.5706 40.2334C27.3627 40.5229 27.0688 40.6795 26.7328 40.7686C26.5639 40.7859 26.4055 40.7494 26.257 40.6683C26.012 40.3336 26.3195 39.8417 25.939 39.5441C25.8505 39.4482 25.827 39.338 25.8678 39.2143V39.2137Z" fill="#38404B"/>
<path d="M26.3819 35.9373C25.6493 35.6594 24.9111 35.8865 24.1748 35.9125C23.6372 36.1687 23.2696 35.9292 22.9664 35.4986C22.9436 35.2857 23.0209 35.1199 23.1979 34.9993C23.3798 34.9102 23.5703 34.8613 23.772 34.8514C24.7632 34.9256 25.8002 34.5748 26.7321 35.1793C26.7834 35.2622 26.8113 35.3519 26.815 35.4497C26.8812 35.7987 26.7024 35.9311 26.3819 35.9379V35.9373Z" fill="#4E5762"/>
<path d="M26.732 35.178C25.6387 35.178 24.5454 35.178 23.4521 35.178C23.1978 34.7869 23.5332 34.6873 23.7683 34.5382C24.7255 34.8921 26.0112 33.7277 26.732 35.1774V35.178Z" fill="#66717F"/>
<path d="M23.7684 34.5387C23.6626 34.7522 23.5568 34.965 23.4517 35.1785C23.3267 35.1859 23.2017 35.1933 23.0767 35.2008C22.9276 35.3264 22.7593 35.4173 22.5724 35.4742C22.015 35.3783 21.4272 35.4668 20.8975 35.2026C20.6661 34.9749 20.4347 34.7472 20.2033 34.5195C21.3919 34.5263 22.5805 34.5325 23.7691 34.5393L23.7684 34.5387Z" fill="#595D65"/>
<path d="M29.1724 41.0048C29.1934 41.0939 29.2114 41.1836 29.2256 41.2739C28.5499 41.3779 29.3221 42.8109 28.1428 42.452C27.6453 41.9465 27.5426 41.3098 27.5402 40.6397C27.6206 40.3508 27.7734 40.1256 28.0747 40.0297C28.8024 39.9474 29.1557 40.287 29.1718 41.0048H29.1724Z" fill="#636F80"/>
<path d="M24.116 36.262C24.4167 36.4117 24.5015 36.6784 24.5133 36.9865C24.3852 37.1245 24.2565 37.2618 24.1284 37.3998C23.7064 37.2625 23.4565 37.6498 23.1069 37.7345C22.7957 37.6046 22.709 37.3355 22.6744 37.0348C22.6608 36.6511 22.7882 36.3356 23.1143 36.1135C23.4781 35.9575 23.8085 36.0324 24.116 36.262Z" fill="#4C535D"/>
<path d="M27.763 40.6182C28.1008 41.1856 28.1837 41.8055 28.1423 42.4515C27.7778 42.4249 27.4128 42.3983 27.0484 42.3717C26.7229 42.0487 26.8621 41.6484 26.8609 41.2703C26.9079 40.9405 27.0576 40.677 27.3602 40.5155C27.5198 40.4486 27.6541 40.4833 27.763 40.6182Z" fill="#3D4653"/>
<path d="M26.3821 35.9374C26.5263 35.7747 26.671 35.6119 26.8152 35.4492C27.5323 35.5167 27.567 36.1453 27.7829 36.6248C27.3046 36.6248 26.8084 36.7083 26.3524 36.6087C25.3111 36.3823 26.4675 36.1719 26.3821 35.938V35.9374Z" fill="#8996A8"/>
<path d="M27.031 41.3241C27.4499 41.6662 26.9308 42.0251 27.049 42.3722C26.5954 42.2893 26.2644 42.0158 25.9724 41.6811C25.7775 41.188 25.9649 40.8409 26.3925 40.5859C26.4853 40.6002 26.5781 40.6125 26.6709 40.6231C26.9698 40.7648 26.8411 41.1261 27.031 41.3241Z" fill="#4C5967"/>
<path d="M26.3925 40.5855C26.2527 40.9506 26.1128 41.3156 25.9724 41.6807C24.3204 40.9939 26.4847 40.2471 25.939 39.543C26.3807 39.7645 26.3399 40.1951 26.3919 40.5855H26.3925Z" fill="#70829A"/>
<path d="M18.9249 35.9164C18.8642 35.9764 18.8172 36.0445 18.7832 36.1218C18.5654 36.2307 18.4385 36.1262 18.3476 35.9362C18.566 35.4821 18.9094 35.2111 19.4298 35.2012C19.6222 35.6943 19.6977 36.1045 18.9243 35.9164H18.9249Z" fill="#4E5866"/>
<path d="M23.066 36.2747C23.0586 36.5915 22.9844 36.8736 22.6744 37.0351C22.4455 37.019 22.2165 37.0023 21.9876 36.9856C21.9833 36.6224 21.9796 36.2592 21.9752 35.8966C21.9901 35.8013 22.0037 35.7061 22.0161 35.6108C22.0755 35.2754 22.4776 35.4722 22.6001 35.2346C22.7585 35.2234 22.9175 35.2123 23.0766 35.2012C23.0722 35.3033 23.0654 35.406 23.0574 35.5081C23.282 35.7611 23.2814 36.0173 23.0667 36.2753L23.066 36.2747Z" fill="#565F6B"/>
<path d="M18.925 35.9167C19.3025 35.8257 19.446 35.5695 19.4306 35.2014C20.0153 35.1185 20.1687 35.6989 20.5505 35.929C20.0054 36.4172 19.4633 36.4154 18.9257 35.9167H18.925Z" fill="#768292"/>
<path d="M22.6002 35.2333C22.5234 35.5421 22.2481 35.5415 22.0161 35.6089C21.6312 35.5056 21.1449 35.6795 20.8974 35.2012C21.4648 35.2117 22.0328 35.2222 22.6002 35.2333Z" fill="#AFBAC6"/>
<path d="M29.1723 41.004C28.7911 40.801 28.7175 40.1947 28.1551 40.2305C27.9169 40.0678 27.8884 39.8327 27.9261 39.5734C28.027 39.243 28.1885 38.959 28.5232 38.8105C29.7508 38.9343 29.8807 39.3748 29.1723 41.0046V41.004Z" fill="#393F49"/>
<path d="M28.1495 39.5555C28.1514 39.7807 28.1532 40.006 28.1551 40.2306C28.0245 40.3592 27.894 40.4886 27.7634 40.6179C27.6484 40.6216 27.5333 40.6166 27.4188 40.6043C27.3316 40.5486 27.292 40.4824 27.3006 40.4057C27.3099 40.324 27.326 40.2831 27.3495 40.2831C27.774 39.4732 26.8564 38.8427 27.0519 38.0631C27.1639 37.9307 27.2771 37.9295 27.3922 38.0594C27.5246 38.0823 27.657 38.1058 27.7894 38.1287C28.2021 38.5303 28.0982 39.0624 28.1489 39.5555H28.1495Z" fill="#596373"/>
<path d="M27.3922 38.0595L27.2221 38.0724L27.0519 38.0632C26.8842 37.7878 26.6169 37.7284 26.323 37.7272C25.9246 37.4995 26.2692 37.2712 26.323 37.0441C26.9529 36.9575 27.5593 36.9618 28.0363 37.4778C27.8216 37.6721 27.6069 37.8658 27.3928 38.0595H27.3922Z" fill="#23262C"/>
<path d="M28.1496 39.5559C27.6237 39.1822 27.7889 38.6346 27.7895 38.1291C28.2734 38.0994 28.4652 38.3828 28.5227 38.8109C28.4763 39.0986 28.4472 39.3944 28.149 39.5565L28.1496 39.5559Z" fill="#6A7788"/>
<path d="M27.3498 40.2841C27.3807 40.3893 27.4036 40.4963 27.4185 40.6052C27.2898 40.8446 27.1604 41.0847 27.0311 41.3242C26.9111 41.0903 26.7911 40.8564 26.671 40.6231C26.8152 40.3459 27.0571 40.2643 27.3498 40.2841Z" fill="#262B31"/>
<path d="M51.7408 30.7441H30.9836V52.0304H51.7408V30.7441Z" fill="#213B78"/>
<path d="M33.011 37.4629V34.1973H33.4472V37.4629H33.011Z" fill="white"/>
<path d="M35.5372 37.5277C35.2278 37.5277 34.955 37.4584 34.7186 37.3186C34.4822 37.1794 34.2979 36.9826 34.1661 36.7283C34.0337 36.474 33.9681 36.1745 33.9681 35.8293C33.9681 35.484 34.0361 35.1846 34.1723 34.9303C34.3084 34.676 34.4946 34.4792 34.731 34.34C34.9673 34.2008 35.2365 34.1309 35.5378 34.1309C35.6931 34.1309 35.8379 34.1463 35.9715 34.1773C36.1052 34.2082 36.224 34.2478 36.3285 34.2961L36.2821 34.702C36.1794 34.6506 36.0699 34.6085 35.953 34.5757C35.8367 34.5429 35.711 34.5268 35.5774 34.5268C35.3318 34.5268 35.1251 34.585 34.9568 34.7007C34.7891 34.8164 34.6623 34.973 34.5769 35.1697C34.4915 35.3665 34.4488 35.5861 34.4488 35.8287C34.4488 36.0712 34.4915 36.2884 34.5769 36.4851C34.6623 36.6819 34.7885 36.8384 34.9562 36.9554C35.1239 37.0723 35.3299 37.1305 35.5755 37.1305C35.711 37.1305 35.8367 37.1156 35.9524 37.0853C36.0681 37.055 36.1782 37.0142 36.2821 36.9628L36.3285 37.3687C36.2258 37.4139 36.1095 37.4516 35.9796 37.4819C35.8496 37.5122 35.7024 37.5277 35.5378 37.5277H35.5372Z" fill="white"/>
<path d="M36.8059 37.4629V34.1973H38.6763V34.5939H37.2421V35.5572H38.3781V35.9538H37.2421V37.0663H38.7166V37.4629H36.8065H36.8059Z" fill="white"/>
<path d="M39.2134 37.4629V34.1973H39.6496V37.0663H41.0188V37.4629H39.2134Z" fill="white"/>
<path d="M42.3248 34.6291H42.4603L41.5415 37.4629H41.08L42.1671 34.1973H42.6194L43.7065 37.4629H43.2449L42.3261 34.6291H42.3248ZM43.0339 36.5812H41.7513V36.1803H43.0339V36.5812Z" fill="white"/>
<path d="M44.0808 37.4629V34.1973H44.5634L46.0093 36.6091V34.1973H46.448V37.4629H46.0607L44.5163 34.9156V37.4629H44.0801H44.0808Z" fill="white"/>
<path d="M47.1292 37.4629V34.1973H48.2559C48.548 34.1973 48.8078 34.2616 49.0349 34.3909C49.262 34.5202 49.4402 34.7065 49.5689 34.9496C49.6982 35.1928 49.7625 35.4867 49.7625 35.8301C49.7625 36.1735 49.6982 36.4674 49.5689 36.7106C49.4396 36.9537 49.262 37.14 49.0349 37.2693C48.8078 37.3986 48.548 37.4629 48.2559 37.4629H47.1292ZM47.5654 37.0663H48.2188C48.4521 37.0663 48.6476 37.0156 48.8054 36.9147C48.9631 36.8139 49.0819 36.6703 49.1624 36.4853C49.2422 36.3003 49.2824 36.0819 49.2824 35.8301C49.2824 35.5783 49.2422 35.3599 49.1624 35.1749C49.0825 34.9899 48.9631 34.8469 48.8054 34.7455C48.6476 34.6446 48.4521 34.5939 48.2188 34.5939H47.5654V37.0663Z" fill="white"/>
<path d="M33.6106 42.6602V39.7911H32.7289V39.3945H34.9285V39.7911H34.0468V42.6602H33.6106Z" fill="white"/>
<path d="M36.5841 42.725C36.2952 42.725 36.0378 42.6557 35.812 42.5158C35.5867 42.3766 35.4092 42.1799 35.2798 41.9256C35.1505 41.6713 35.0862 41.3718 35.0862 41.0265C35.0862 40.6813 35.1505 40.3818 35.2798 40.1275C35.4092 39.8732 35.5861 39.6765 35.812 39.5373C36.0372 39.398 36.2946 39.3281 36.5841 39.3281C36.8737 39.3281 37.1305 39.3974 37.3563 39.5373C37.5815 39.6765 37.7585 39.8732 37.8872 40.1275C38.0153 40.3818 38.0796 40.6813 38.0796 41.0265C38.0796 41.3718 38.0153 41.6713 37.8872 41.9256C37.7591 42.1799 37.5821 42.3766 37.3563 42.5158C37.1311 42.6551 36.8737 42.725 36.5841 42.725ZM36.5841 42.2956C36.8124 42.2956 37.003 42.2393 37.1558 42.1267C37.3081 42.014 37.4225 41.8612 37.4986 41.6694C37.5747 41.4776 37.6131 41.2629 37.6131 41.0265C37.6131 40.7902 37.5747 40.5761 37.4986 40.3843C37.4225 40.1925 37.3074 40.0397 37.1546 39.9271C37.0012 39.8145 36.8112 39.7581 36.5841 39.7581C36.3571 39.7581 36.1671 39.8145 36.0137 39.9271C35.8602 40.0397 35.7457 40.1925 35.6684 40.3843C35.5911 40.5761 35.5527 40.7908 35.5527 41.0265C35.5527 41.2623 35.5911 41.477 35.6684 41.6694C35.7457 41.8618 35.8602 42.014 36.0137 42.1267C36.1671 42.2393 36.3571 42.2956 36.5841 42.2956Z" fill="white"/>
<path d="M39.8052 42.7252C39.5175 42.7252 39.2806 42.6682 39.0949 42.555C38.9093 42.4418 38.7713 42.2797 38.6822 42.0699C38.5925 41.8602 38.548 41.6102 38.548 41.3213V39.3945H38.9842V41.2C38.9842 41.3491 38.9941 41.4914 39.0145 41.6269C39.0349 41.7624 39.0733 41.8825 39.1302 41.987C39.1871 42.0922 39.27 42.1751 39.3789 42.2364C39.4878 42.2976 39.6301 42.3286 39.8059 42.3286C39.9816 42.3286 40.1282 42.2982 40.2371 42.2364C40.346 42.1751 40.4283 42.0916 40.4846 41.9858C40.5409 41.88 40.5787 41.7593 40.5991 41.6244C40.6195 41.4889 40.6294 41.3479 40.6294 41.2V39.3945H41.0656V41.3213C41.0656 41.6108 41.021 41.8602 40.9313 42.0699C40.8416 42.2797 40.7043 42.4418 40.5186 42.555C40.333 42.6682 40.0954 42.7252 39.8059 42.7252H39.8052Z" fill="white"/>
<path d="M41.7271 42.6602V39.3945H42.6762C42.9014 39.3945 43.0975 39.4304 43.264 39.5028C43.4304 39.5752 43.5585 39.6847 43.6488 39.832C43.7392 39.9792 43.7843 40.1649 43.7843 40.3907C43.7843 40.5961 43.7385 40.7743 43.647 40.9247C43.5554 41.0756 43.423 41.1944 43.2504 41.2817L43.9409 42.6602H43.4187L42.7956 41.3844C42.7845 41.3844 42.7715 41.385 42.756 41.3869C42.7405 41.3887 42.7251 41.3893 42.7096 41.3893H42.1756V42.6602H41.7277H41.7271ZM42.175 40.9946H42.6558C42.8859 40.9946 43.0555 40.942 43.1656 40.8362C43.2757 40.7304 43.3302 40.5819 43.3302 40.3907C43.3302 40.1995 43.2751 40.0492 43.1656 39.9452C43.0561 39.8413 42.8859 39.7887 42.6558 39.7887H42.175V40.9946Z" fill="white"/>
<path d="M44.3983 42.6602V39.3945H44.8345V42.6602H44.3983Z" fill="white"/>
<path d="M46.3874 42.725C46.2673 42.725 46.1461 42.7157 46.0223 42.6971C45.8986 42.6786 45.7835 42.6538 45.6771 42.6235C45.5707 42.5932 45.4816 42.5616 45.4098 42.5288L45.4704 42.058C45.5515 42.1013 45.6455 42.144 45.7526 42.1861C45.8596 42.2281 45.9734 42.2622 46.0941 42.2888C46.2148 42.3154 46.336 42.3284 46.4592 42.3284C46.6584 42.3284 46.8162 42.29 46.9325 42.2127C47.0488 42.1353 47.1076 42.0178 47.1076 41.8594C47.1076 41.7412 47.0791 41.6434 47.0222 41.5655C46.9653 41.4875 46.8799 41.4188 46.7654 41.3588C46.651 41.2988 46.5074 41.2375 46.3348 41.1757C46.1591 41.1101 46.0007 41.0389 45.859 40.9622C45.7173 40.8855 45.6053 40.7877 45.5218 40.6695C45.4389 40.5514 45.3968 40.3967 45.3968 40.2055C45.3968 40.0298 45.442 39.8763 45.5323 39.7445C45.6226 39.6134 45.7513 39.5107 45.9196 39.4376C46.0873 39.3646 46.2865 39.3281 46.5167 39.3281C46.7097 39.3281 46.8867 39.3485 47.0476 39.39C47.2084 39.4315 47.3402 39.4772 47.4429 39.5286L47.3965 39.9858C47.2425 39.8943 47.0927 39.8274 46.9473 39.7866C46.8019 39.7452 46.6516 39.7247 46.4963 39.7247C46.3156 39.7247 46.1677 39.7606 46.052 39.8318C45.9363 39.9035 45.8782 40.0193 45.8782 40.1795C45.8782 40.2884 45.9066 40.3781 45.9635 40.448C46.0205 40.518 46.104 40.5804 46.2141 40.6349C46.3243 40.6893 46.4616 40.7475 46.6244 40.81C46.831 40.8861 47.0061 40.9696 47.149 41.06C47.292 41.1503 47.4009 41.2561 47.4757 41.378C47.5506 41.4999 47.5877 41.6484 47.5877 41.8222C47.5877 41.9608 47.5617 42.0852 47.5098 42.1966C47.4578 42.3079 47.3804 42.4026 47.279 42.4812C47.1769 42.5598 47.0513 42.6198 46.9022 42.6619C46.7531 42.7039 46.581 42.725 46.3868 42.725H46.3874Z" fill="white"/>
<path d="M48.6781 42.6602V39.7911H47.7964V39.3945H49.996V39.7911H49.1144V42.6602H48.6781Z" fill="white"/>
<path d="M32.9924 47.8575V44.5918H33.9372C34.2249 44.5918 34.4501 44.6574 34.6135 44.7892C34.7768 44.9203 34.8585 45.1214 34.8585 45.3918C34.8585 45.5787 34.8189 45.7426 34.7397 45.8849C34.6605 46.0273 34.5404 46.1201 34.3802 46.164L34.413 46.057C34.6382 46.0972 34.8139 46.1894 34.9389 46.3335C35.0639 46.4777 35.1264 46.6745 35.1264 46.925C35.1264 47.2109 35.0391 47.438 34.864 47.6063C34.6889 47.7739 34.447 47.8581 34.1376 47.8581H32.9924V47.8575ZM33.4286 45.9518H33.8809C34.0504 45.9518 34.1797 45.919 34.2682 45.8528C34.3567 45.7866 34.4012 45.6573 34.4012 45.4642C34.4012 45.2712 34.3567 45.1493 34.2682 45.0843C34.1797 45.0193 34.0504 44.9865 33.8809 44.9865H33.4286V45.9524V45.9518ZM33.4286 47.4609H34.1005C34.2682 47.4609 34.4025 47.4157 34.5015 47.3241C34.6005 47.2326 34.6506 47.0952 34.6506 46.9102C34.6506 46.7035 34.5998 46.5581 34.499 46.474C34.3981 46.3898 34.2651 46.3478 34.0999 46.3478H33.428V47.4602L33.4286 47.4609Z" fill="white"/>
<path d="M36.9463 47.9222C36.6573 47.9222 36.3999 47.8529 36.1741 47.7131C35.9489 47.5739 35.7713 47.3771 35.642 47.1228C35.5127 46.8685 35.4483 46.5691 35.4483 46.2238C35.4483 45.8786 35.5127 45.5791 35.642 45.3248C35.7713 45.0705 35.9482 44.8737 36.1741 44.7345C36.3993 44.5953 36.6567 44.5254 36.9463 44.5254C37.2358 44.5254 37.4926 44.5947 37.7184 44.7345C37.9437 44.8737 38.1206 45.0705 38.2493 45.3248C38.3774 45.5791 38.4417 45.8786 38.4417 46.2238C38.4417 46.5691 38.3774 46.8685 38.2493 47.1228C38.1212 47.3771 37.9443 47.5739 37.7184 47.7131C37.4932 47.8523 37.2358 47.9222 36.9463 47.9222ZM36.9463 47.4928C37.1746 47.4928 37.3651 47.4365 37.518 47.3239C37.6702 47.2113 37.7846 47.0585 37.8607 46.8667C37.9368 46.6749 37.9752 46.4602 37.9752 46.2238C37.9752 45.9875 37.9368 45.7734 37.8607 45.5816C37.7846 45.3898 37.6696 45.2369 37.5167 45.1243C37.3633 45.0117 37.1733 44.9554 36.9463 44.9554C36.7192 44.9554 36.5292 45.0117 36.3758 45.1243C36.2223 45.2369 36.1079 45.3898 36.0305 45.5816C35.9532 45.7734 35.9148 45.9881 35.9148 46.2238C35.9148 46.4596 35.9532 46.6743 36.0305 46.8667C36.1079 47.0591 36.2223 47.2113 36.3758 47.3239C36.5292 47.4365 36.7192 47.4928 36.9463 47.4928Z" fill="white"/>
<path d="M39.8383 45.0237H39.9738L39.055 47.8575H38.5934L39.6806 44.5918H40.1329L41.22 47.8575H40.7584L39.8396 45.0237H39.8383ZM40.5474 46.9758H39.2648V46.5748H40.5474V46.9758Z" fill="white"/>
<path d="M41.6108 47.8575V44.5918H42.56C42.7852 44.5918 42.9813 44.6277 43.1478 44.7001C43.3142 44.7725 43.4423 44.882 43.5326 45.0292C43.623 45.1765 43.6681 45.3621 43.6681 45.588C43.6681 45.7934 43.6223 45.9716 43.5308 46.1219C43.4392 46.2729 43.3068 46.3917 43.1342 46.4789L43.8247 47.8575H43.3025L42.6794 46.5816C42.6683 46.5816 42.6553 46.5823 42.6398 46.5841C42.6243 46.586 42.6089 46.5866 42.5934 46.5866H42.0594V47.8575H41.6115H41.6108ZM42.0588 46.1918H42.5396C42.7697 46.1918 42.9393 46.1392 43.0494 46.0334C43.1595 45.9276 43.214 45.7791 43.214 45.588C43.214 45.3968 43.1589 45.2464 43.0494 45.1425C42.9399 45.0385 42.7697 44.9859 42.5396 44.9859H42.0588V46.1918Z" fill="white"/>
<path d="M44.2627 47.8575V44.5918H45.3894C45.6815 44.5918 45.9413 44.6561 46.1684 44.7855C46.3955 44.9148 46.5737 45.101 46.7024 45.3442C46.8317 45.5873 46.896 45.8812 46.896 46.2246C46.896 46.568 46.8317 46.8619 46.7024 47.1051C46.573 47.3483 46.3955 47.5345 46.1684 47.6638C45.9413 47.7931 45.6815 47.8575 45.3894 47.8575H44.2627ZM44.6989 47.4609H45.3523C45.5855 47.4609 45.7811 47.4101 45.9388 47.3093C46.0966 47.2084 46.2154 47.0649 46.2959 46.8799C46.3757 46.6949 46.4159 46.4765 46.4159 46.2246C46.4159 45.9728 46.3757 45.7544 46.2959 45.5694C46.216 45.3844 46.0966 45.2415 45.9388 45.14C45.7811 45.0391 45.5855 44.9884 45.3523 44.9884H44.6989V47.4609Z" fill="white"/>
<path d="M12.4715 11.5897L12.2481 11.3397L13.6458 10.0898L13.8692 10.3398L13.3006 10.8484L15.3585 13.1495L15.0986 13.3821L13.0407 11.0811L12.4721 11.5897H12.4715Z" fill="black"/>
<path d="M15.5781 8.53136C16.0044 8.23685 16.4598 8.13228 16.9436 8.2189C17.4275 8.30491 17.8129 8.55611 18.1006 8.9719C18.3853 9.38398 18.4836 9.83256 18.3952 10.3176C18.3067 10.8027 18.0567 11.1876 17.644 11.4728C17.2264 11.7611 16.7753 11.862 16.2909 11.7741C15.8064 11.6869 15.4234 11.44 15.1431 11.0341C14.9562 10.7638 14.8486 10.468 14.8195 10.1463C14.791 9.82513 14.8443 9.52072 14.9798 9.23362C15.1153 8.94653 15.3151 8.71265 15.5781 8.53074V8.53136ZM15.7798 8.79618C15.5713 8.94034 15.4116 9.13091 15.2996 9.36851C15.1883 9.6061 15.1431 9.85298 15.1654 10.1091C15.1877 10.3653 15.2768 10.6066 15.4327 10.8324C15.6641 11.1672 15.9747 11.3695 16.3663 11.44C16.7574 11.5106 17.1169 11.4326 17.4442 11.2061C17.6626 11.0552 17.8284 10.8627 17.941 10.6282C18.0536 10.3937 18.0988 10.1487 18.0759 9.89257C18.053 9.63642 17.9639 9.39635 17.8086 9.17175C17.6539 8.94839 17.4627 8.78195 17.2338 8.67367C17.0049 8.56477 16.758 8.52146 16.4944 8.54374C16.2302 8.56601 15.992 8.65016 15.7798 8.7968V8.79618Z" fill="black"/>
<path d="M18.1118 7.04346L18.4187 6.89249L19.332 8.74559C19.4402 8.96524 19.512 9.10013 19.5473 9.15025C19.6221 9.26347 19.7075 9.34762 19.8034 9.40145C19.8993 9.45528 20.0181 9.48127 20.1611 9.47941C20.3034 9.47755 20.4333 9.44785 20.5502 9.39031C20.6517 9.3402 20.7383 9.2709 20.8107 9.1818C20.8825 9.0927 20.9314 8.99432 20.9561 8.88728C20.9809 8.78024 20.9815 8.66454 20.9568 8.54203C20.9394 8.45417 20.8707 8.28897 20.7513 8.04704L19.8381 6.19394L20.145 6.04297L21.0582 7.89607C21.1931 8.17017 21.276 8.40467 21.3057 8.60019C21.3354 8.79571 21.3008 8.99556 21.2018 9.19974C21.1028 9.40392 20.9394 9.56232 20.7111 9.67493C20.4636 9.79682 20.2223 9.84261 19.9872 9.81105C19.7521 9.78011 19.5566 9.68174 19.4013 9.51653C19.3047 9.41568 19.1797 9.20902 19.0263 8.8978L18.1131 7.0447L18.1118 7.04346Z" fill="black"/>
<path d="M21.2599 5.58184L21.9034 5.35662C22.2617 5.23102 22.5098 5.16048 22.6478 5.14501C22.855 5.12212 23.0438 5.1611 23.2145 5.26381C23.3853 5.3659 23.5072 5.52244 23.5814 5.73405C23.6433 5.90977 23.6557 6.07868 23.6198 6.24141C23.5839 6.40352 23.501 6.54582 23.3711 6.66771C23.2411 6.7896 23.0413 6.89912 22.7709 6.99502L24.4576 8.08771L24.0585 8.22754L22.3718 7.13548L22.1893 7.19921L22.7146 8.6984L22.3916 8.81162L21.2599 5.58246V5.58184ZM21.6937 5.78478L22.0785 6.88241L22.6366 6.69184C22.8519 6.61636 23.0042 6.54026 23.0933 6.46291C23.1824 6.38557 23.2399 6.29214 23.2665 6.18139C23.2931 6.07126 23.2863 5.9605 23.2473 5.84913C23.2096 5.74085 23.1452 5.65299 23.0561 5.58493C22.9664 5.51687 22.8674 5.48037 22.7585 5.47603C22.6496 5.47109 22.485 5.50759 22.2635 5.58555L21.6937 5.7854V5.78478Z" fill="black"/>
<path d="M27.4133 3.88542C27.9263 3.81179 28.3804 3.92192 28.7752 4.21458C29.1699 4.50724 29.4032 4.90385 29.4743 5.40441C29.5455 5.90001 29.4329 6.3455 29.1377 6.74025C28.842 7.135 28.4466 7.36826 27.9504 7.4388C27.448 7.51057 26.9994 7.39982 26.6046 7.1053C26.2099 6.81079 25.9773 6.41975 25.9073 5.93157C25.8609 5.60611 25.8962 5.29303 26.0138 4.99295C26.1313 4.69224 26.3151 4.44413 26.5644 4.24799C26.8138 4.05186 27.0965 3.9312 27.4133 3.88542ZM27.4752 4.21273C27.2246 4.24861 26.9963 4.34823 26.7903 4.51096C26.5842 4.67368 26.4345 4.87477 26.3398 5.11422C26.2458 5.35367 26.2179 5.60921 26.2569 5.88083C26.3145 6.28363 26.5026 6.60351 26.8212 6.84048C27.1398 7.07808 27.4962 7.16841 27.8898 7.11211C28.1527 7.07437 28.3872 6.97599 28.5926 6.81635C28.7981 6.65672 28.9478 6.45749 29.0412 6.21804C29.1346 5.97859 29.1625 5.72429 29.1235 5.4539C29.0851 5.18537 28.9874 4.95087 28.8308 4.75164C28.6743 4.55241 28.4732 4.4033 28.227 4.30554C27.9807 4.20778 27.7301 4.17684 27.4746 4.21335L27.4752 4.21273Z" fill="black"/>
<path d="M30.3182 3.69071L31 3.68947C31.3911 3.68885 31.6547 3.70556 31.7908 3.73959C31.9863 3.78723 32.1459 3.88623 32.2703 4.03534C32.3947 4.18507 32.4572 4.37255 32.4572 4.59901C32.4572 4.8267 32.3971 5.01541 32.2765 5.16329C32.1558 5.31179 31.9894 5.4114 31.7765 5.46276C31.6212 5.49988 31.3317 5.51906 30.9066 5.51968H30.6622L30.6647 7.11106H30.3225L30.317 3.68947L30.3182 3.69071ZM30.661 4.02544L30.6628 5.18618L31.242 5.19237C31.4758 5.19237 31.6472 5.17072 31.7561 5.12802C31.8644 5.08533 31.9498 5.01603 32.0117 4.92075C32.0735 4.82546 32.1045 4.71904 32.1045 4.60148C32.1045 4.48702 32.0729 4.38245 32.011 4.28717C31.9486 4.19188 31.8669 4.12444 31.7654 4.08422C31.6639 4.044 31.4975 4.0242 31.2661 4.02482L30.661 4.02606V4.02544Z" fill="black"/>
<path d="M33.4529 3.75586L35.4025 3.96685L35.3666 4.29973L33.7567 4.12586L33.6416 5.19194L35.2373 5.36456L35.2014 5.69744L33.6057 5.52482L33.4609 6.8619L35.0566 7.03452L35.0207 7.3674L33.0847 7.15827L33.4522 3.75586H33.4529Z" fill="black"/>
<path d="M36.3185 4.12171L36.9836 4.26959C37.3542 4.35188 37.6023 4.42304 37.7273 4.48243C37.9154 4.57215 38.0553 4.70518 38.1462 4.88213C38.2372 5.05909 38.2582 5.25647 38.2099 5.47488C38.1697 5.65679 38.0911 5.80714 37.9748 5.92594C37.8585 6.04473 37.7131 6.12208 37.5386 6.15672C37.3641 6.19199 37.1364 6.179 36.8561 6.11836L37.7125 7.9362L37.2998 7.84463L36.4435 6.02679L36.2547 5.98472L35.9101 7.53588L35.576 7.46163L36.3185 4.12109V4.12171ZM36.5796 4.52265L36.3271 5.65803L36.9013 5.79043C37.1241 5.83993 37.2936 5.8554 37.4099 5.83684C37.5262 5.81828 37.6246 5.76878 37.7051 5.68896C37.7855 5.60915 37.8387 5.512 37.8641 5.39692C37.8888 5.28493 37.8814 5.17665 37.8412 5.07147C37.801 4.96628 37.736 4.88337 37.6463 4.82212C37.5566 4.76086 37.3969 4.70456 37.168 4.65382L36.579 4.52265H36.5796Z" fill="black"/>
<path d="M40.7841 5.36049L41.1139 9.12177L40.7668 8.99555L40.6455 7.75313L39.2602 7.24948L38.3742 8.12561L38.0159 7.99506L40.7049 5.33203L40.7835 5.36049H40.7841ZM40.4952 6.02872L39.5207 6.99209L40.6202 7.39179L40.4952 6.02811V6.02872Z" fill="black"/>
<path d="M42.5844 6.44266L42.7329 6.14258L44.414 6.97292L44.2655 7.273L43.5812 6.93517L42.2144 9.70277L41.9014 9.54808L43.2681 6.78049L42.5838 6.44266H42.5844Z" fill="black"/>
<path d="M46.5815 8.18642C47.014 8.47228 47.2807 8.85528 47.3815 9.33603C47.4824 9.81679 47.3933 10.2685 47.1149 10.6904C46.8389 11.1087 46.4596 11.3673 45.9764 11.4663C45.4932 11.5653 45.0427 11.4768 44.6245 11.2009C44.2013 10.9212 43.9395 10.5407 43.8393 10.0581C43.7391 9.5761 43.8251 9.12875 44.0967 8.7173C44.278 8.4432 44.5119 8.23221 44.7996 8.08557C45.0867 7.93893 45.3892 7.8752 45.706 7.89376C46.0228 7.91233 46.3149 8.01009 46.5815 8.18581V8.18642ZM46.4108 8.47228C46.1991 8.33306 45.9628 8.25572 45.7011 8.24087C45.4393 8.22602 45.1931 8.27676 44.9642 8.39308C44.7346 8.5094 44.544 8.68203 44.3931 8.91158C44.1691 9.25065 44.0973 9.61508 44.1784 10.0043C44.2594 10.3934 44.4655 10.6979 44.7977 10.9169C45.0192 11.0635 45.2599 11.1452 45.5198 11.1619C45.779 11.1786 46.0234 11.1291 46.2524 11.0122C46.4813 10.8952 46.6706 10.7232 46.8216 10.4949C46.9713 10.2685 47.0536 10.0284 47.0691 9.77533C47.0846 9.52227 47.0326 9.27725 46.9132 9.04089C46.7944 8.80392 46.6267 8.61459 46.412 8.4729L46.4108 8.47228Z" fill="black"/>
<path d="M48.9019 9.98304L49.4117 10.4353C49.6957 10.6878 49.8782 10.8703 49.958 10.9829C50.0793 11.1524 50.1362 11.3368 50.1301 11.5354C50.1239 11.7341 50.0459 11.9172 49.8974 12.0843C49.7737 12.2235 49.632 12.3169 49.473 12.3645C49.3133 12.4122 49.1494 12.4085 48.9792 12.3546C48.8097 12.3008 48.6166 12.1789 48.4013 11.9896L48.2671 13.9949L47.9509 13.714L48.0851 11.7087L47.9404 11.5806L46.8854 12.7686L46.6299 12.5415L48.9019 9.98242V9.98304ZM48.9353 10.4607L48.1631 11.3306L48.6012 11.7254C48.7719 11.877 48.9124 11.9729 49.0231 12.0131C49.1339 12.0533 49.244 12.0583 49.3529 12.0273C49.4618 11.9964 49.5559 11.9376 49.6338 11.8491C49.7099 11.7631 49.7563 11.6648 49.7718 11.5534C49.7873 11.442 49.7712 11.3374 49.7223 11.2403C49.6734 11.1432 49.5614 11.0163 49.3857 10.861L48.9347 10.4601L48.9353 10.4607Z" fill="black"/>
<path d="M20.8564 53.8108L20.8286 57.2436L20.5254 57.0994L20.5235 55.9653L19.3139 55.3892L18.4359 56.1051L18.1229 55.956L20.7877 53.7793L20.8564 53.8121V53.8108ZM20.5365 54.3906L19.5713 55.1783L20.5316 55.6355L20.5372 54.3906H20.5365Z" fill="black"/>
<path d="M22.598 54.5762L22.8932 54.6739L22.3035 56.4571C22.2336 56.6687 22.194 56.8018 22.1847 56.8568C22.1612 56.9781 22.1631 57.087 22.1903 57.1829C22.2181 57.2788 22.2788 57.3716 22.3722 57.4613C22.4656 57.551 22.5689 57.6142 22.6816 57.6513C22.7793 57.6834 22.8795 57.694 22.9835 57.6822C23.0874 57.6705 23.1809 57.6377 23.2656 57.5838C23.3504 57.53 23.424 57.4558 23.4865 57.3605C23.5311 57.2924 23.5923 57.1414 23.669 56.9088L24.2587 55.1256L24.5538 55.2234L23.9642 57.0066C23.8769 57.2701 23.781 57.4749 23.6752 57.6203C23.5701 57.7657 23.4203 57.8734 23.2254 57.9427C23.0311 58.012 22.8239 58.0108 22.6042 57.9377C22.366 57.8592 22.1804 57.7348 22.048 57.5647C21.9156 57.3945 21.8518 57.2064 21.8562 57.0004C21.858 56.8735 21.9088 56.6601 22.0078 56.36L22.5974 54.5768L22.598 54.5762Z" fill="black"/>
<path d="M24.9232 55.631L24.99 55.334L26.6532 55.7077L26.5864 56.0047L25.9095 55.8525L25.2938 58.5904L24.9845 58.5205L25.6001 55.7826L24.9232 55.6304V55.631Z" fill="black"/>
<path d="M27.0783 55.7949L27.387 55.832L27.2305 57.1277L28.8033 57.3176L28.9599 56.022L29.2686 56.0591L28.8955 59.1478L28.5868 59.1107L28.7668 57.6202L27.194 57.4302L27.0139 58.9208L26.7052 58.8836L27.0783 55.7949Z" fill="black"/>
<path d="M31.4472 56.0141C31.918 56.0048 32.3159 56.1539 32.6395 56.462C32.9631 56.7702 33.1295 57.1538 33.1388 57.6135C33.1481 58.0689 32.9971 58.4581 32.6871 58.7817C32.3765 59.1053 31.9935 59.2717 31.5381 59.2804C31.0765 59.2897 30.6843 59.1393 30.3607 58.8299C30.0371 58.5206 29.8706 58.1419 29.862 57.6933C29.8558 57.3945 29.9226 57.116 30.0624 56.858C30.2016 56.6 30.3953 56.3965 30.6416 56.2467C30.8884 56.097 31.157 56.0196 31.4478 56.0141H31.4472ZM31.467 56.316C31.2368 56.321 31.0196 56.3847 30.8161 56.5091C30.6125 56.6334 30.4547 56.798 30.3427 57.0034C30.2307 57.2089 30.1775 57.4365 30.1825 57.6865C30.1899 58.0559 30.3242 58.3659 30.5853 58.6152C30.8464 58.8646 31.1582 58.9859 31.5196 58.9784C31.7609 58.9735 31.983 58.9104 32.1865 58.7897C32.3895 58.6684 32.5466 58.5051 32.658 58.2997C32.7688 58.0943 32.822 57.8672 32.817 57.6191C32.8121 57.3722 32.7502 57.1501 32.6308 56.9527C32.512 56.7553 32.3468 56.5988 32.1352 56.4831C31.9236 56.3674 31.7008 56.3117 31.4663 56.3166L31.467 56.316Z" fill="black"/>
<path d="M33.6915 55.9602L34.304 55.8649C34.6456 55.8117 34.8788 55.7901 35.0044 55.7987C35.1931 55.8123 35.3559 55.8785 35.4914 55.9986C35.6269 56.118 35.7104 56.2782 35.7413 56.4793C35.7673 56.647 35.7506 56.7998 35.6918 56.9391C35.6331 57.0783 35.5353 57.1915 35.3992 57.2794C35.263 57.3672 35.0663 57.4316 34.8089 57.473L36.1361 58.7284L35.7562 58.7878L34.429 57.5324L34.2551 57.5596L34.4766 58.9871L34.1697 59.0347L33.6921 55.9608L33.6915 55.9602ZM34.0454 56.2133L34.2075 57.2583L34.7377 57.1804C34.9432 57.1488 35.0917 57.1055 35.1839 57.051C35.276 56.9966 35.3435 56.9223 35.3849 56.8283C35.4264 56.7343 35.4394 56.634 35.4227 56.5282C35.4066 56.4249 35.3645 56.3358 35.2952 56.2603C35.2265 56.1848 35.1436 56.1359 35.0471 56.1137C34.9506 56.0914 34.7971 56.097 34.5868 56.1298L34.0448 56.2139L34.0454 56.2133Z" fill="black"/>
<path d="M36.2357 55.5067L36.5383 55.4355L37.2535 58.463L36.951 58.5342L36.2363 55.5067H36.2357Z" fill="black"/>
<path d="M37.6989 57.7702L37.9049 57.5406C38.184 57.8129 38.4402 57.9131 38.6728 57.8413C38.7724 57.8104 38.859 57.7584 38.932 57.6848C39.0051 57.6111 39.0527 57.5282 39.0744 57.436C39.096 57.3439 39.0935 57.2541 39.0663 57.1663C39.0354 57.0667 38.9716 56.9794 38.8745 56.9045C38.7409 56.8012 38.5218 56.6948 38.218 56.5853C37.9124 56.4745 37.7162 56.3867 37.6296 56.3223C37.4811 56.2147 37.3821 56.0792 37.3314 55.9164C37.2912 55.7871 37.2862 55.6597 37.3153 55.5341C37.3444 55.4085 37.4056 55.2977 37.4991 55.2018C37.5925 55.1059 37.7051 55.0372 37.8375 54.9964C37.9773 54.9531 38.119 54.9475 38.2626 54.9791C38.4061 55.0106 38.5744 55.0985 38.7681 55.242L38.5825 55.5006C38.4247 55.3874 38.2997 55.3187 38.2063 55.2958C38.1128 55.273 38.02 55.276 37.9266 55.3051C37.8066 55.3423 37.7199 55.4091 37.6661 55.505C37.6123 55.6015 37.6024 55.7023 37.6352 55.8088C37.655 55.8731 37.6878 55.9319 37.7336 55.9839C37.7793 56.0365 37.8486 56.0872 37.9421 56.1361C37.9928 56.1615 38.1512 56.2215 38.4179 56.3143C38.734 56.4244 38.9624 56.5389 39.1041 56.6577C39.2457 56.7765 39.3392 56.9101 39.3856 57.0599C39.4524 57.2752 39.4283 57.488 39.3138 57.6971C39.1993 57.9069 39.0249 58.048 38.7904 58.1204C38.6097 58.176 38.4315 58.1785 38.2545 58.1278C38.0782 58.077 37.8926 57.9576 37.6989 57.7695V57.7702Z" fill="black"/>
<path d="M39.309 54.5886L40.9554 53.9043L41.0723 54.1852L39.713 54.7501L40.0873 55.6504L41.4349 55.0904L41.5519 55.3713L40.2043 55.9313L40.6733 57.0598L42.0209 56.4999L42.1378 56.7808L40.5031 57.4602L39.309 54.5874V54.5886Z" fill="black"/>
<path d="M42.9359 56.4117L41.4225 53.6936L41.9862 53.38C42.3927 53.1535 42.7057 53.0217 42.9254 52.9852C43.2403 52.9307 43.5355 52.9759 43.8108 53.1213C44.0861 53.2667 44.3113 53.4969 44.4871 53.8124C44.6387 54.0847 44.7135 54.3569 44.711 54.6292C44.7086 54.9014 44.6411 55.1396 44.5081 55.3426C44.3751 55.5455 44.1393 55.7417 43.8003 55.9304L42.9359 56.4117ZM43.0535 56.0096L43.3678 55.8345C43.7434 55.6253 43.9908 55.457 44.1103 55.329C44.2779 55.1483 44.372 54.9398 44.3924 54.7016C44.4128 54.4634 44.354 54.2196 44.2148 53.9696C44.0688 53.7073 43.8807 53.5185 43.6505 53.4035C43.4204 53.2884 43.1723 53.2593 42.9074 53.3168C42.7088 53.3601 42.4143 53.4901 42.0239 53.7073L41.8315 53.8143L43.0541 56.0096H43.0535Z" fill="black"/>
</g>
<defs>
<clipPath id="clip0_1261_10207">
<rect width="61.0405" height="61.0405" fill="white" transform="translate(0.959534 0.480469)"/>
</clipPath>
</defs>
</svg>
