<svg width="80" height="81" viewBox="0 0 80 81" fill="none" xmlns="http://www.w3.org/2000/svg">
<g clip-path="url(#clip0_1261_8315)">
<path d="M40 81.3535C62.0914 81.3535 80 63.4449 80 41.3535C80 19.2621 62.0914 1.35352 40 1.35352C17.9086 1.35352 0 19.2621 0 41.3535C0 63.4449 17.9086 81.3535 40 81.3535Z" fill="white"/>
<path d="M40.0002 79.7083C61.1828 79.7083 78.3548 62.5364 78.3548 41.3537C78.3548 20.171 61.1828 2.99902 40.0002 2.99902C18.8175 2.99902 1.64551 20.171 1.64551 41.3537C1.64551 62.5364 18.8175 79.7083 40.0002 79.7083Z" fill="#EAEAEA"/>
<path d="M39.8217 71.239C56.4282 71.239 69.8904 57.7768 69.8904 41.1703C69.8904 24.5638 56.4282 11.1016 39.8217 11.1016C23.2152 11.1016 9.75293 24.5638 9.75293 41.1703C9.75293 57.7768 23.2152 71.239 39.8217 71.239Z" fill="white"/>
<mask id="mask0_1261_8315" style="mask-type:luminance" maskUnits="userSpaceOnUse" x="12" y="13" width="56" height="56">
<path d="M39.8215 68.3979C54.8587 68.3979 67.0488 56.2079 67.0488 41.1706C67.0488 26.1334 54.8587 13.9434 39.8215 13.9434C24.7843 13.9434 12.5942 26.1334 12.5942 41.1706C12.5942 56.2079 24.7843 68.3979 39.8215 68.3979Z" fill="white"/>
</mask>
<g mask="url(#mask0_1261_8315)">
<path d="M58.2267 15.043C58.2267 15.043 58.1651 14.9133 58.1643 14.9141C58.8974 14.5678 59.5469 14.9562 60.22 15.1452C59.5096 16.0137 58.8455 15.9707 58.2267 15.043Z" fill="#686868"/>
<path d="M27.0869 19.6343C29.145 20.862 30.5479 18.9717 31.7294 18.143C33.1493 17.1472 34.4306 16.6468 36.0484 16.6379C36.2657 16.586 36.4822 16.5877 36.7003 16.6379C37.4439 16.9209 38.1129 17.285 38.3035 18.1527C38.6927 19.3829 40.0267 19.4315 41.4028 20.5546C37.7805 20.3779 34.7995 20.8563 31.9597 22.0094C30.3419 20.8733 28.3836 22.0362 26.7155 21.2342C26.5379 21.089 26.4244 20.9066 26.3806 20.6811C26.3352 20.1427 26.7188 19.8929 27.0886 19.6351L27.0869 19.6343Z" fill="#DCE2EA"/>
<path d="M50.0498 16.2277C50.6069 17.2154 51.6213 16.3769 52.3211 16.7961C53.0623 18.1139 50.9661 18.7123 51.5191 19.983C51.4867 20.3317 51.4048 20.6666 51.2621 20.9877C51.0918 21.308 50.8428 21.5424 50.5063 21.6811C49.92 21.7232 49.7392 21.3162 49.5956 20.8661C49.054 19.4283 47.4775 19.2783 46.498 18.3863C46.2717 18.3742 46.0811 18.2866 45.9222 18.126C45.7633 17.8171 45.7519 17.4992 45.8654 17.174C46.1038 16.6356 46.7428 16.5674 47.0802 16.1433C47.484 16.3144 47.8879 16.4855 48.2917 16.6566C48.9064 16.552 48.6631 15.5919 49.3694 15.5781C49.7319 15.6535 49.9516 15.8774 50.0498 16.2277Z" fill="#515761"/>
<path d="M38.3035 18.1525C37.6459 17.6489 36.9882 17.1454 36.3306 16.6418C36.4311 16.5558 36.5317 16.4707 36.6306 16.3831C37.7708 15.899 38.9368 16.0555 40.1046 16.238C41.1279 16.6426 42.2657 16.4204 43.2939 16.7999C44.0424 17.4008 44.2435 18.2052 44.1381 19.1208C42.0654 19.5659 40.2578 18.4177 38.3035 18.1525Z" fill="#EAEEF4"/>
<path d="M19.8301 22.5197C20.6896 20.8752 22.1461 19.9223 23.75 19.1406C24.1514 19.5777 24.4239 20.0789 24.5204 20.67C24.6007 21.579 24.1547 22.1962 23.4265 22.6462C22.4177 22.5327 22.9708 24.0726 21.9993 24.0191C21.5549 24.1829 21.104 24.281 20.6305 24.1569C19.9533 23.8115 19.2503 23.4774 19.8301 22.5197Z" fill="#E0E5EC"/>
<path d="M22.2699 59.4632C23.4823 59.3715 23.4636 58.0651 24.2032 57.5072C24.564 57.2477 24.9346 57.2023 25.3206 57.4537C26.0066 58.5144 26.5572 59.5897 25.6263 60.7987C25.0206 61.0323 24.414 61.2666 23.8082 61.5002C22.4792 61.4369 20.8476 61.6024 22.2691 59.4632H22.2699Z" fill="#333842"/>
<path d="M36.3305 16.6415L36.1902 16.5839L36.0483 16.6374C34.9081 13.6006 34.9073 13.6216 38.4251 13.6881C39.0357 13.6995 39.652 13.4481 40.265 13.3184C40.6478 13.7035 41.0168 14.0952 40.8716 14.7099C40.6867 14.9742 40.4191 15.108 40.1174 15.1867C39.7525 15.2719 39.3795 15.3311 39.0219 15.4511C38.8557 15.5168 38.6829 15.567 38.5102 15.6124C38.3424 15.6635 38.1713 15.7057 38.0018 15.7511C37.8404 15.8184 37.6774 15.8817 37.5177 15.9546C37.3636 16.0455 37.2014 16.1176 37.0352 16.1809C36.7757 16.2506 36.5291 16.3593 36.2745 16.4428L36.3305 16.6423V16.6415Z" fill="#6A727D"/>
<path d="M26.6791 20.9537C28.2271 20.9399 29.7784 20.9845 31.3215 20.8937C32.4528 20.8272 32.3092 21.3178 31.9589 22.0095C31.0961 21.9512 30.7393 22.7556 30.1084 23.0929C29.3924 22.6785 28.7039 22.638 28.0649 23.2519C27.7316 23.3986 27.3862 23.4327 27.0286 23.3735C26.5234 23.2397 26.1422 22.9559 25.92 22.4742C25.7652 21.7638 25.9817 21.2384 26.6799 20.9545L26.6791 20.9537Z" fill="#B2B7C5"/>
<path d="M46.0647 18.1844C47.6151 18.6401 49.4397 18.6596 50.0163 20.6642C49.4713 21.3575 48.9807 22.1279 47.9419 22.1157C46.8513 21.8433 47.0362 20.9521 47.0272 20.1801C47.0183 19.4616 47.1724 18.6839 46.106 18.5923L45.9666 18.4001L46.0639 18.1836L46.0647 18.1844Z" fill="#9AA6B3"/>
<path d="M19.8299 22.5203C19.7455 23.2794 20.5029 23.4788 20.8022 23.9832C21.0552 24.5314 21.4071 24.9717 22.038 25.1063C23.0492 25.5483 24.1261 24.6782 25.1284 25.2612C25.2946 25.421 25.3611 25.6172 25.3425 25.8451C24.7035 26.6365 23.895 27.1936 22.9551 27.5699C22.7386 27.6315 22.5189 27.6453 22.295 27.6259C21.8555 27.535 21.4574 27.3412 21.0706 27.1215C20.4551 26.6447 19.6344 26.4881 19.1033 25.8743C18.9184 25.5597 18.83 25.2183 18.8105 24.8558C18.8543 24.2443 18.9233 23.6402 19.3198 23.1334C19.4901 22.929 19.6604 22.7239 19.8307 22.5195L19.8299 22.5203Z" fill="#D4DCE5"/>
<path d="M31.4754 63.8631C30.658 66.5772 29.8877 66.8602 27.6382 65.2717C27.9439 63.2768 29.4238 62.7335 31.4754 63.8631Z" fill="#7091A7"/>
<path d="M19.349 55.6098C18.3921 56.3859 17.4206 56.278 17.0079 55.1736C16.5781 54.0229 16.99 52.9573 18.3483 52.543C19.0692 52.9225 19.6774 53.422 20.0666 54.1559C20.2823 54.8654 19.8055 55.2328 19.349 55.6098Z" fill="#5B6573"/>
<path d="M25.572 56.4919C26.6035 55.6275 27.6001 56.1205 28.5967 56.5714C28.9349 57.2745 29.5601 57.8007 29.8188 58.5541C29.8772 58.9109 29.818 59.2312 29.5333 59.4826C28.8222 59.3317 28.188 59.5961 27.5515 59.8515C26.7073 59.2725 26.7268 58.2338 26.2637 57.4537C26.031 57.135 25.7131 56.8755 25.572 56.4919Z" fill="#7A8B9F"/>
<path d="M31.4754 63.8628C29.8949 63.5133 28.505 63.6803 27.6382 65.2713C26.614 63.6665 28.4207 62.721 28.5456 61.3838C28.9997 61.5841 29.4708 61.6863 29.9704 61.6287C30.1739 61.64 30.3547 61.7106 30.5088 61.8444C30.7975 62.5329 31.6157 62.9683 31.477 63.8619L31.4754 63.8628Z" fill="#C7D8E5"/>
<path d="M19.8364 54.1124C19.1609 53.7597 18.3468 53.5375 18.3484 52.5433C19.0133 52.1144 19.6783 51.6846 20.3424 51.2556C21.0131 51.2013 21.6504 51.2232 21.9716 51.9684C22.0478 52.7688 22.5254 53.6348 21.6107 54.2827C21.0082 54.3484 20.4 54.4579 19.8364 54.1124Z" fill="#616E81"/>
<path d="M21.8077 49.7325H16.6641C18.4027 47.5917 20.5378 47.7076 21.768 49.7641L21.8077 49.7325Z" fill="#696C71"/>
<path d="M63.5416 38.6129C63.2383 38.6291 62.935 38.6453 62.6317 38.6615C62.4525 38.5456 62.3147 38.3915 62.2141 38.2001C61.9854 37.7249 61.9019 37.1808 61.5102 36.7981C60.7091 36.5864 59.534 36.9797 59.4724 35.5606C59.7133 34.7059 60.508 34.4651 61.1453 34.0466C62.2449 34.002 62.7939 34.8438 63.4727 35.4844C63.72 35.7755 63.9057 36.099 64.0184 36.4648C64.1709 37.2497 64.2528 38.0209 63.5408 38.6129H63.5416Z" fill="#8691A0"/>
<path d="M22.1768 31.2399C22.0138 31.5797 21.8508 31.9195 21.6878 32.2592C21.3099 32.5641 20.8939 32.6761 20.422 32.5098C19.8406 32.1822 19.294 31.7954 18.7134 31.4613C18.3477 31.1467 18.1101 30.768 18.1239 30.266C18.3315 29.4308 19.0297 29.2751 19.723 29.1088C20.598 29.0764 21.2256 29.6059 21.8873 30.0617C22.1647 30.4087 22.5255 30.738 22.1768 31.2399Z" fill="#484649"/>
<path d="M38.1858 66.2334C38.1858 66.4126 38.1858 66.5927 38.1849 66.7719C37.7219 67.363 36.8332 67.1692 36.3669 67.7555C34.7929 68.4099 34.6834 67.2884 34.5188 66.2334C34.9567 65.7647 34.6567 64.8833 35.4295 64.6011C35.7457 64.5621 36.0612 64.5548 36.3701 64.653C36.9499 65.2076 37.5857 65.7007 38.1858 66.2334Z" fill="#89AFC4"/>
<path d="M59.7822 21.9162C60.0879 22.277 60.3936 22.6387 60.6994 22.9995C60.3936 23.5777 59.8463 23.8729 59.3143 24.1859C59.1237 24.2556 58.9243 24.2848 58.7215 24.2792C58.2658 24.1251 57.7955 24.0764 57.313 24.1064C57.1435 24.0099 56.9967 23.8859 56.8645 23.7464C56.6448 23.5607 56.3958 23.4253 56.1242 23.3255C55.936 23.2493 55.8014 23.1163 55.709 22.9387C56.0755 22.3119 56.5061 21.7491 57.2124 21.4701C58.0979 21.4539 58.9007 21.9113 59.7822 21.917V21.9162Z" fill="#585D66"/>
<path d="M56.5676 28.9856C55.987 28.8972 55.8783 28.3823 55.6529 27.9736C55.5345 27.35 55.4372 26.7296 55.9278 26.1977C56.2327 26.0331 56.5579 25.9885 56.8993 26.0185C57.7897 26.2423 58.7441 26.3704 59.0815 27.4392C59.1139 27.6581 59.1066 27.8779 59.0652 28.0952C58.8917 28.6304 58.5098 28.9507 57.99 29.121C57.8132 29.1575 57.6348 29.1429 57.4653 29.0862C57.351 28.9662 57.2058 28.8907 57.0404 28.8567C56.8847 28.9021 56.7266 28.9443 56.5684 28.9864L56.5676 28.9856Z" fill="#8D98A7"/>
<path d="M63.5415 38.6138C63.5634 37.794 63.5861 36.9741 63.608 36.1535C63.9648 35.7253 64.4319 35.7067 64.929 35.7934C66.0878 36.1251 66.657 36.9644 66.8938 38.0867C67.1736 39.9234 66.1113 38.7427 65.5485 38.6843C64.9079 38.051 64.2121 38.849 63.5569 38.6073L63.5415 38.6138Z" fill="#636874"/>
<path d="M22.7451 27.3723C23.4417 26.6847 24.1172 25.9646 25.1454 25.774C25.4049 25.684 25.6352 25.7335 25.8347 25.9224C25.2386 26.9872 24.834 28.1865 23.7271 28.8879C23.453 29.0842 23.1481 29.085 22.8351 29.0299C22.5124 28.4938 22.5505 27.9376 22.7459 27.3723H22.7451Z" fill="#434549"/>
<path d="M14.9288 34.6875C13.9589 33.6633 13.4683 32.5653 14.4009 31.25C14.5849 31.3278 14.7293 31.4519 14.8371 31.619C15.0309 31.949 15.2393 32.2685 15.588 32.4656C16.3698 32.7729 17.3274 32.5093 17.9827 33.2124C18.0913 33.9398 17.6429 34.2917 17.0769 34.5666C16.3746 34.844 15.6521 34.7556 14.9296 34.6875H14.9288Z" fill="#C9D2DC"/>
<path d="M61.644 24.4738L61.8597 24.9206C61.9643 25.6902 61.2921 26.2886 61.3926 27.0582C61.3983 27.2796 61.3659 27.4937 61.3018 27.7053C61.1185 28.0167 60.838 28.1862 60.495 28.2705C60.1414 28.3338 59.7968 28.3046 59.4594 28.1764C59.238 28.0556 59.1034 27.8724 59.054 27.6258C59.204 26.6617 58.9291 25.6229 59.5632 24.743C60.1836 24.0854 60.868 23.92 61.6448 24.4738H61.644Z" fill="#818C9A"/>
<path d="M53.4237 23.529C51.57 24.9375 50.3228 23.3789 48.915 22.6086C48.9767 22.5178 49.0383 22.4261 49.0991 22.3345C49.7762 21.8942 50.6026 22.1018 51.3178 21.8187C51.7816 21.7798 52.1717 21.9607 52.5342 22.225C52.955 22.5737 53.3191 22.9638 53.4237 23.5298V23.529Z" fill="#66707C"/>
<path d="M47.0798 16.1425C46.8998 16.6267 46.5657 16.9632 46.0946 17.1667C45.6988 17.4919 45.2991 17.303 44.8993 17.1789C44.7006 17.1083 44.5092 17.02 44.3203 16.9275C43.8224 16.5991 43.0326 16.574 43.0342 15.7152C43.168 15.4014 43.3861 15.1849 43.7316 15.1184C45.3785 13.7268 45.7945 16.355 47.0798 16.1425Z" fill="#3C3F45"/>
<path d="M43.7318 15.1185C43.5396 15.339 43.3474 15.5604 43.1552 15.781C41.9137 15.8872 40.3592 17.0419 39.8215 14.7876C40.0956 14.7665 40.3705 14.7446 40.6446 14.7235C40.9309 14.3319 41.226 13.958 41.7977 14.2232C42.727 13.9086 43.6839 13.5331 43.7318 15.1193V15.1185Z" fill="#1D1E22"/>
<path d="M59.6409 35.5994C60.1088 37.4702 61.5085 34.9774 62.1296 36.1297C61.6269 36.613 61.7882 37.342 61.4793 37.8991C61.1622 38.3508 60.8727 38.8617 60.1737 38.5673C59.4374 37.7353 59.2841 36.6909 59.1082 35.6537C59.2728 35.5086 59.4495 35.4907 59.6401 35.5986L59.6409 35.5994Z" fill="#97A2B0"/>
<path d="M53.8171 18.1453C54.3953 18.4145 54.3385 18.9594 54.3888 19.4582C54.1228 19.909 53.6955 20.1166 53.2041 20.1393C52.3007 20.1815 51.3025 20.1434 51.2546 18.9627C51.1995 17.5801 52.3299 17.9312 53.1505 17.9093C53.3995 17.9028 53.599 18.0528 53.8163 18.1445L53.8171 18.1453Z" fill="#E2E9F2"/>
<path d="M53.8171 18.1453C53.5779 18.1607 53.3354 18.1582 53.0995 18.1947C52.5245 18.2839 51.5863 17.9093 51.5636 18.8362C51.5352 19.9982 52.5643 19.5262 53.1984 19.5668C53.5909 19.5919 53.9915 19.4987 54.3888 19.4581L54.4302 19.5765L54.3442 19.6682C54.2964 20.6518 53.496 20.5553 52.8635 20.7029C52.1523 20.7467 51.5003 20.591 50.94 20.1279C50.374 18.5929 51.6195 17.8071 52.3202 16.7959C52.8189 17.246 53.3184 17.6952 53.8171 18.1453Z" fill="#9CACBA"/>
<path d="M15.918 29.7449C15.2068 28.1928 16.008 27.0607 16.9657 25.9717C17.2455 26.215 17.5796 26.3877 17.8553 26.6415C17.998 26.7785 18.1002 26.9407 18.1683 27.1264C18.2315 27.4289 18.1942 27.7184 18.0588 27.9957C17.6396 28.5544 17.0638 28.9802 16.7038 29.5916C16.4759 29.8162 16.2383 29.9979 15.9188 29.7441L15.918 29.7449Z" fill="#CAD3DD"/>
<path d="M62.5969 25.7256C63.531 26.5568 64.1271 27.5477 64.0808 28.8444C63.9357 29.0074 63.7565 29.0779 63.5375 29.0447C63.1272 28.9417 62.7542 28.7552 62.3949 28.5346C61.9579 28.2337 61.5135 27.941 61.2329 27.4707C61.1688 27.3799 61.1072 27.2874 61.0488 27.1925C61.1599 26.277 61.8216 25.9413 62.5969 25.7256Z" fill="#818C9A"/>
<path d="M46.0646 18.185C46.0759 18.3221 46.0897 18.4583 46.1059 18.5937C45.6056 19.3511 44.8239 19.0567 44.137 19.1208C43.6099 18.5816 42.9393 18.078 43.661 17.2257C43.8921 16.9305 44.1906 16.8648 44.5384 16.9695C45.192 17.1657 45.6883 17.5809 46.1124 18.0974L46.0646 18.185Z" fill="#EDF2F7"/>
<path d="M24.1619 20.742C23.7062 20.2904 23.7541 19.7089 23.75 19.1413C24.9477 18.7302 25.9062 19.9327 27.0869 19.6343C26.9312 19.9409 26.7747 20.2474 26.6182 20.5539C25.847 21.2359 25.0248 21.2537 24.1619 20.742Z" fill="#5C6069"/>
<path d="M29.5334 59.482L29.5375 58.4967C29.2861 57.9704 29.1061 57.4798 30.0168 57.5276C30.775 58.5818 30.925 59.7106 30.4376 60.9189C29.7792 61.4087 29.4369 61.0568 29.1904 60.4502C29.3048 60.1274 29.4183 59.8047 29.5326 59.482H29.5334Z" fill="#37414D"/>
<path d="M19.8478 40.5002C20.4592 41.1951 20.7568 41.9249 19.6264 42.3272C18.6906 42.6596 18.3063 42.0887 18.3233 41.1894C18.3055 39.7963 19.0888 40.1758 19.8478 40.5002Z" fill="#9EA7B4"/>
<path d="M28.0681 22.979C28.1452 22.43 28.2246 21.8056 28.9488 21.8542C29.6405 21.9005 30.0395 22.3805 30.1084 23.0917C29.6883 23.5401 29.2788 24.0072 28.5814 23.9788C28.1354 23.7866 27.8062 23.5336 28.0681 22.979Z" fill="#9697A2"/>
<path d="M25.6264 60.7982C25.4683 59.7091 25.311 58.6201 25.1528 57.531C25.4496 57.2448 25.7926 57.2123 26.1657 57.3469C26.8582 58.097 26.9514 59.0823 27.2061 60.0051C26.6798 60.2695 26.1527 60.5338 25.6264 60.7982Z" fill="#5C6877"/>
<path d="M54.439 25.3266C54.619 24.4014 54.8939 23.5264 55.7089 22.9385C55.7899 22.9904 55.8686 23.0463 55.944 23.1063C56.1289 23.3391 56.2676 23.5953 56.3576 23.8791C56.4873 24.2635 56.609 24.6503 56.5814 25.0663C56.5011 25.5075 56.2879 25.8561 55.8832 26.0727C55.6837 26.1635 55.4737 26.2081 55.2547 26.2138C54.7601 26.1221 54.5063 25.8091 54.439 25.3258V25.3266Z" fill="#62676F"/>
<path d="M57.2578 28.8339C57.7249 28.6904 58.1928 28.5469 58.6599 28.4033C58.8545 28.5241 58.9997 28.688 59.0913 28.8988C59.2364 29.3302 59.2364 29.7665 59.131 30.2052C59.0297 30.5093 58.8634 30.7623 58.565 30.9034C57.8514 30.7801 58.1312 31.5991 57.7379 31.7832C56.897 31.1183 56.8872 30.2911 57.2675 29.387C57.1386 29.2661 57.0948 29.1437 57.1346 29.0204C57.1751 28.8964 57.2156 28.8339 57.2578 28.8339Z" fill="#BCCAD8"/>
<path d="M22.7224 28.7431C23.0573 28.7918 23.3922 28.8405 23.7271 28.8891C22.6365 29.2954 23.0338 30.6804 22.1775 31.2408C22.0461 30.9099 21.9156 30.5791 21.7842 30.249C21.279 29.7317 20.6554 29.3448 20.1851 28.7877C20.2045 28.2509 20.5694 28.0733 21.0187 27.9809C21.2368 27.9647 21.4509 27.9866 21.6634 28.0344C22.0834 28.1698 22.4581 28.3742 22.7224 28.744V28.7431Z" fill="#C7CED8"/>
<path d="M66.0839 33.6217C66.6174 34.208 66.4179 34.9265 66.4431 35.6044C66.1893 35.9053 65.8633 36.0334 65.474 36.0091C65.024 35.8623 64.4872 35.8728 64.2512 35.3368C64.0647 34.8714 64.0712 34.4051 64.2496 33.9396C64.3623 33.732 64.5318 33.5861 64.7531 33.5009C65.2081 33.3955 65.6387 33.5885 66.0839 33.6209V33.6217Z" fill="#41454C"/>
<path d="M20.3132 36.6137C20.3148 36.7759 20.3156 36.9381 20.3172 37.1003C20.052 37.3492 19.7528 37.5366 19.3903 37.6079C18.8057 37.6979 18.2291 37.6736 17.6744 37.4498C17.3598 36.7857 16.8011 37.3573 16.3843 37.2017C15.9172 36.8132 15.8588 36.2618 15.7891 35.7144C15.9642 35.249 16.3072 35.0235 16.797 35.0049C17.0079 35.0673 17.2057 35.1614 17.3882 35.2838C18.0175 35.7315 18.7546 35.9042 19.486 36.0923C19.8128 36.1848 20.0756 36.381 20.3132 36.6145V36.6137Z" fill="#696A77"/>
<path d="M65.0337 33.7223C64.8926 33.7053 64.7515 33.685 64.6112 33.6599C63.6746 33.1287 63.5441 32.2262 63.5051 31.2774C63.6203 30.653 63.5465 29.8956 64.4863 29.8291C65.3637 30.4089 65.0369 31.4996 65.5146 32.2497C65.2113 32.6941 65.6176 33.3696 65.0329 33.7215L65.0337 33.7223Z" fill="#222325"/>
<path d="M61.644 24.4742C60.9514 24.4199 60.3076 24.5497 59.7416 24.9746C58.8836 25.0151 58.8966 24.5878 59.2153 23.9958C59.4877 23.3325 59.984 23.0032 60.6992 23C61.0139 23.4914 61.3293 23.9828 61.644 24.4742Z" fill="#414246"/>
<path d="M22.2701 59.4638C21.7317 60.9364 22.6391 61.3167 23.8092 61.5008C22.4047 62.3653 21.426 61.6411 20.9605 60.4361C20.5048 59.2554 21.5833 59.4735 22.2701 59.4646V59.4638Z" fill="#798291"/>
<path d="M59.6411 35.5988C59.4643 35.6174 59.2867 35.6353 59.1092 35.6539C58.754 35.4147 58.7499 35.0506 58.7605 34.6816C58.9316 33.5999 60.302 33.9688 60.6621 33.1109C60.881 33.0484 61.0821 33.0857 61.2711 33.2066C61.4454 33.522 61.4551 33.8294 61.2305 34.1253C61.2621 35.2225 60.0628 34.9922 59.6403 35.5996L59.6411 35.5988Z" fill="#ACB7C5"/>
<path d="M60.6603 33.2659C60.8711 34.8691 59.0141 33.7006 58.7611 34.681C58.59 34.029 58.4189 33.3778 58.2478 32.7258C58.3954 32.558 58.5746 32.4347 58.783 32.3528C59.1147 32.2709 59.4447 32.2782 59.7756 32.3601C60.2167 32.5182 60.5751 32.7591 60.6603 33.2659Z" fill="#C3CFDC"/>
<path d="M21.768 49.764C23.5074 50.7152 23.453 52.1392 22.8124 53.7189C22.4953 53.5389 22.3534 53.2469 22.291 52.9047C22.4491 51.8951 21.4882 51.4305 21.1865 50.6439C21.3933 50.3398 21.6001 50.0365 21.8069 49.7324L21.768 49.764Z" fill="#757E8D"/>
<path d="M19.8366 54.1119C20.3158 53.996 20.7894 53.3408 21.2767 54.0982C21.5249 54.2774 21.876 54.3504 21.9255 54.7315C21.2281 55.4978 20.3628 55.7727 19.3484 55.6097C19.5106 55.1102 19.6736 54.6115 19.8357 54.1119H19.8366Z" fill="#737F90"/>
<path d="M15.9181 29.7456C16.1006 29.6653 16.2838 29.5859 16.4663 29.5056C16.4995 29.2323 16.6487 29.135 16.9123 29.212C17.0834 29.3734 17.1961 29.5713 17.2569 29.7975C17.351 30.7066 16.7817 31.2296 16.1411 31.7105C15.5945 31.8564 15.0415 31.94 14.4803 31.7624C14.4536 31.5913 14.4268 31.421 14.4009 31.2499C14.9069 30.7487 15.4121 30.2468 15.9181 29.7456Z" fill="#544D4D"/>
<path d="M53.4237 23.5292C53.0652 23.2064 52.7068 22.8829 52.3484 22.5601C52.5681 21.8416 52.5909 20.9975 53.5169 20.7274C53.8697 20.6942 54.1689 20.8045 54.4105 21.0656C54.4414 22.0306 53.9394 22.7823 53.4237 23.5283V23.5292Z" fill="#4C4E55"/>
<path d="M16.4096 37.1158C16.7445 37.0525 17.0835 36.5717 17.4111 37.1271C17.5863 37.3355 17.712 37.5707 17.7906 37.8318C17.742 38.6752 17.7339 39.5664 16.4502 39.0271C16.1899 38.5406 15.9288 38.0532 15.6685 37.5666C15.8493 37.3072 16.082 37.1328 16.4096 37.115V37.1158Z" fill="#5D5E6A"/>
<path d="M19.3442 37.1718C19.6685 37.1475 19.9921 37.1239 20.3164 37.0996C20.2435 38.093 20.6578 39.1504 19.9215 40.0554C19.7131 39.9775 19.538 39.8535 19.392 39.6856C19.0336 39.1455 18.5933 38.6631 18.2575 38.1051C18.1546 37.2545 18.9614 37.4597 19.3442 37.1718Z" fill="#CFDAE8"/>
<path d="M59.7822 21.9166C58.7385 22.8426 57.9925 22.0609 57.2124 21.4698C58.2431 20.6183 59.0767 20.8981 59.7822 21.9166Z" fill="#3E3F42"/>
<path d="M27.2061 60.0048C26.3563 59.3804 26.4228 58.3644 26.1333 57.5007C25.9987 57.062 26.1836 56.8828 26.6174 56.9063C27.4348 57.727 27.1137 58.9093 27.5516 59.85C27.4567 59.9473 27.3416 59.9984 27.2061 60.0048Z" fill="#373E4B"/>
<path d="M19.319 23.1338C19.3117 23.7477 19.3052 24.3623 19.2979 24.9762C18.6832 25.3224 19.019 26.8024 17.7028 26.3118C17.5844 25.8276 17.5917 25.3573 17.8675 24.9202C18.2899 24.2747 18.4594 23.4241 19.319 23.1338Z" fill="#717B8A"/>
<path d="M36.3614 64.7983C36.0386 64.7983 35.7159 64.7983 35.3931 64.7983C35.0825 65.0594 34.7225 65.22 34.3349 65.3286C33.777 64.5485 33.7851 63.8203 34.9082 63.9776C35.7086 64.0895 36.7011 64.0303 37.3158 64.8226C36.9914 65.0626 36.6719 65.0943 36.3605 64.7983H36.3614Z" fill="#BED2DF"/>
<path d="M62.5969 25.7252C62.481 26.6358 61.3781 26.5069 61.0489 27.1929C60.1942 26.0341 61.4203 25.6173 61.859 24.9199C62.1055 25.1883 62.3512 25.4567 62.5969 25.7244V25.7252Z" fill="#C4D1DE"/>
<path d="M21.9261 54.7322C21.7096 54.5214 21.4939 54.3097 21.2773 54.0989C22.2829 53.6732 21.2157 52.7098 21.7785 52.1697C22.3494 51.8681 22.4734 52.3562 22.6883 52.6846C22.7297 53.0301 22.7719 53.3747 22.8132 53.7202C22.7313 54.2448 22.4142 54.5635 21.9269 54.7338L21.9261 54.7322Z" fill="#535B66"/>
<path d="M64.4871 29.83C63.9787 30.2184 64.0979 30.7901 64.0541 31.314C63.8668 31.4502 63.6656 31.4737 63.4508 31.3861C62.8782 30.992 62.5596 30.439 62.4412 29.7619C62.5304 29.0904 62.9942 28.8861 63.5886 28.8447C63.7524 28.8447 63.917 28.8447 64.0808 28.8447C64.2163 29.1731 64.3517 29.5024 64.4871 29.8308V29.83Z" fill="#2C2C30"/>
<path d="M16.8782 35.1997C16.5758 35.3529 16.2733 35.5054 15.9708 35.6586C15.7989 35.8865 15.6327 35.8711 15.4713 35.6465C15.2905 35.327 15.1096 35.0075 14.928 34.688C15.4072 33.8065 16.2676 34.409 16.9139 34.1787C17.0785 34.3125 17.1677 34.4844 17.1815 34.6961C17.1466 34.9037 17.0453 35.0715 16.8774 35.1997H16.8782Z" fill="#4C4C53"/>
<path d="M20.9321 34.2557C20.8218 34.9612 21.0237 35.7453 20.4123 36.3251C19.8836 36.0016 19.2494 35.9521 18.7029 35.6675C18.3461 35.3553 18.0939 35.0139 18.3858 34.5216C18.9624 34.0667 19.6208 33.8656 20.3515 33.8851C20.5907 33.9362 20.7837 34.061 20.9321 34.2557Z" fill="#4A4449"/>
<path d="M19.8227 39.5458C19.856 39.7161 19.8884 39.8856 19.9217 40.0559C19.8519 40.197 19.8276 40.3454 19.8479 40.5011C19.2494 40.5295 18.608 40.4638 18.3233 41.1887C18.0209 40.7865 17.7192 40.3827 17.4167 39.9797C17.3105 39.4915 17.6341 39.2993 17.9982 39.1339C18.6801 38.9441 19.2745 39.1436 19.8227 39.5458Z" fill="#848A95"/>
<path d="M63.5569 38.6071C64.2372 38.2074 64.9719 36.416 65.5485 38.6842C64.8592 39.3167 64.1951 39.3013 63.5569 38.6071Z" fill="#7F8996"/>
<path d="M60.1746 38.5675C60.6473 38.3794 60.9782 38.0485 61.1671 37.5758C61.8434 37.253 62.2197 37.6942 62.596 38.1361C62.6081 38.3113 62.6203 38.4864 62.6324 38.6616C61.7899 39.2438 60.9701 39.2211 60.1746 38.5675Z" fill="#99A0AB"/>
<path d="M47.9427 22.1164C48.6344 21.6323 49.3253 21.1482 50.017 20.6641C49.9903 21.0428 50.0689 21.3736 50.4209 21.5861C50.549 22.7141 49.4818 22.0215 49.1364 22.4278C49.0618 22.487 48.9872 22.547 48.9142 22.6078C48.5898 22.444 48.2663 22.2802 47.9419 22.1156L47.9427 22.1164Z" fill="#66707C"/>
<path d="M36.3613 64.7988C36.68 64.8069 36.9979 64.815 37.3166 64.8232C37.8331 65.154 38.4243 65.4386 38.1867 66.2341C37.1244 66.3323 36.4294 65.9649 36.3621 64.7996L36.3613 64.7988Z" fill="#7498AD"/>
<path d="M22.6877 52.6838C22.3844 52.5119 22.0811 52.3408 21.7778 52.1689C21.2994 51.8648 20.821 51.5599 20.3425 51.2558C20.6239 51.0514 20.9053 50.8479 21.1867 50.6436C22.0073 51.0879 22.742 51.5956 22.6877 52.683V52.6838Z" fill="#656D7A"/>
<path d="M65.5251 35.6603C65.8308 35.6416 66.1373 35.6222 66.4431 35.6035C66.632 36.4242 67.1169 37.1913 66.8939 38.0865C66.3952 37.3218 65.8089 36.6439 65.0085 36.1768C65.0548 35.8784 65.3572 35.8362 65.5259 35.6603H65.5251Z" fill="#8892A0"/>
<path d="M28.068 22.9785C28.2391 23.3118 28.4102 23.6451 28.5813 23.9784C28.2764 24.1608 27.9707 24.3425 27.6658 24.5249C27.4898 24.6466 27.296 24.6822 27.086 24.6466C26.7081 24.4187 26.4826 24.0968 26.4729 23.6435C26.5499 23.3021 26.8402 23.1845 27.107 23.0418C27.4273 23.0207 27.7477 22.9996 28.068 22.9785Z" fill="#9B9EAB"/>
<path d="M20.9319 34.2553C20.7389 34.2309 20.5451 34.2074 20.3521 34.1839C19.9158 33.8182 19.8315 33.3495 19.9515 32.8199C20.0342 32.5694 20.1939 32.3837 20.4283 32.2628C20.8483 32.2612 21.2684 32.2604 21.6876 32.2588C21.3949 32.9091 21.5247 33.7184 20.9319 34.2553Z" fill="#2A2A2F"/>
<path d="M14.3628 41.7909C14.3717 42.1704 14.2006 42.3942 13.8097 42.382C13.4716 42.3715 13.1829 42.2393 13.0864 41.8809C12.9956 41.5419 13.058 41.2168 13.4545 41.1559C13.9233 41.0838 14.1576 41.4373 14.362 41.7909H14.3628Z" fill="#A8B2C0"/>
<path d="M27.1688 24.4656C27.3342 24.4851 27.4997 24.5053 27.6651 24.5248C27.1396 25.1014 26.889 26.0388 25.8348 25.9228C25.6054 25.8733 25.3751 25.8239 25.1456 25.7744C25.1285 25.6544 25.1237 25.5344 25.131 25.4136C25.2177 25.2133 25.3369 25.0357 25.4853 24.8751C25.9735 24.4413 26.4414 23.9158 27.1688 24.4656Z" fill="#B9C1CC"/>
<path d="M26.618 56.9064C26.4567 57.1043 26.2953 57.3029 26.1339 57.5008C25.8071 57.5105 25.4803 57.5203 25.1535 57.5308C24.8364 57.5227 24.5202 57.5146 24.2031 57.5065C24.4464 56.8813 24.9492 56.6055 25.5719 56.4912C25.9206 56.6299 26.2693 56.7685 26.618 56.9064Z" fill="#75808D"/>
<path d="M55.3002 25.9801C55.464 25.9711 55.6286 25.963 55.7924 25.9541L55.97 26.0928L55.9108 26.3101C56.0624 26.9013 56.0981 27.4738 55.6537 27.9733C55.0374 27.8914 54.8631 27.4567 54.8112 26.9231C54.5371 26.3823 54.8979 26.1698 55.301 25.9801H55.3002Z" fill="#B7C7D6"/>
<path d="M50.0495 16.2277C49.8695 16.0606 49.6887 15.8936 49.5086 15.7273C49.3521 15.6106 49.2954 15.4881 49.3384 15.3608C49.3821 15.2303 49.4292 15.1654 49.4786 15.1654C50.0106 14.8143 50.4558 15.1573 50.6528 15.5206C50.8953 15.9682 50.519 16.2115 50.0503 16.2277H50.0495Z" fill="#7F858D"/>
<path d="M58.7377 32.7394C58.5747 32.7354 58.4109 32.7313 58.2479 32.7273C58.0784 32.4126 57.9082 32.0988 57.7387 31.785C57.9893 31.493 57.2846 30.7178 58.2455 30.7843C59.131 31.2546 59.3167 31.9009 58.7385 32.7402L58.7377 32.7394Z" fill="#A1B3C3"/>
<path d="M49.4787 15.1651C49.4885 15.3524 49.499 15.5397 49.5088 15.727C49.1033 16.0368 48.697 16.3466 48.2916 16.6563C48.3759 15.9119 47.2771 14.226 49.4787 15.1651Z" fill="#41454A"/>
<path d="M36.3662 67.7552C36.6744 66.8778 37.3539 66.6856 38.1843 66.7716C38.2581 68.3545 37.0279 67.5306 36.3662 67.7552Z" fill="#6E9CB3"/>
<path d="M54.4107 21.0662C54.0644 21.0686 53.7173 21.071 53.3711 21.0734C53.0572 20.8675 52.7256 20.6712 52.8991 20.2025C53.3808 20.0249 53.8633 19.8465 54.345 19.6689C55.3635 20.0882 54.7091 20.5853 54.4107 21.067V21.0662Z" fill="#555B64"/>
<path d="M65.0337 33.7228C65.071 33.1916 64.9558 32.611 65.5154 32.251C65.7668 32.6824 66.1884 33.0432 66.0846 33.6214C65.7749 34.0763 65.4456 34.3237 65.0345 33.7228H65.0337Z" fill="#101112"/>
<path d="M18.8577 35.6368C19.6791 35.1827 20.3003 35.1794 20.4122 36.3244C20.4665 36.4509 20.4333 36.5466 20.3124 36.6123C20.0173 36.6009 19.7221 36.5904 19.4269 36.579C19.1245 36.4444 18.852 36.2798 18.7417 35.94C18.7806 35.8387 18.8187 35.7373 18.8577 35.636V35.6368Z" fill="#463D40"/>
<path d="M15.4713 35.6453C15.6375 35.6494 15.8038 35.6535 15.97 35.6575C16.1168 36.1432 16.2628 36.629 16.4095 37.1147C16.1622 37.2656 15.9149 37.4164 15.6675 37.5664C15.3237 36.9542 15.3116 36.3079 15.4713 35.6445V35.6453Z" fill="#514E56"/>
<path d="M30.0176 57.5274C29.6259 57.7358 29.561 58.1055 29.5383 58.4964C28.6504 58.1355 28.5482 57.3903 28.5969 56.5713C29.265 56.6013 29.694 56.9857 30.0176 57.5274Z" fill="#5D6775"/>
<path d="M17.9518 39.4523C17.7734 39.6283 17.595 39.8034 17.4166 39.9794C16.93 39.8294 16.5392 39.582 16.45 39.0282C17.4352 38.9868 17.3922 38.2319 17.4693 37.5604C17.921 37.4915 18.0783 37.7664 18.1488 38.1435C18.3621 38.6227 18.2826 39.0566 17.951 39.4531L17.9518 39.4523Z" fill="#929AAA"/>
<path d="M55.3001 25.9798C55.1371 26.2936 54.9741 26.6082 54.8111 26.9221C53.4098 26.6877 54.2005 25.9425 54.4389 25.3262C54.726 25.5443 55.013 25.7616 55.3001 25.9798Z" fill="#D2DEE8"/>
<path d="M41.7978 14.2226C41.4134 14.3897 41.0298 14.5567 40.6455 14.7229C40.5181 14.2542 40.3916 13.7863 40.2651 13.3176C41.0185 13.209 41.3834 13.758 41.7978 14.2226Z" fill="#25262C"/>
<path d="M29.1913 60.4502C29.6073 60.6067 30.0224 60.7624 30.4384 60.9189C30.4611 61.2279 30.4847 61.5368 30.5074 61.845C30.3614 61.8823 30.213 61.9098 30.063 61.9269C29.2602 62.0347 28.8945 61.7144 29.0429 60.8889C29.0575 60.7308 29.1069 60.584 29.1913 60.4502Z" fill="#2F3842"/>
<path d="M29.0427 60.8887C29.2357 61.3793 29.5901 61.7109 30.0629 61.9266C29.2666 62.5575 28.7419 62.4294 28.5457 61.3841C28.7111 61.2195 28.8773 61.0541 29.0427 60.8895V60.8887Z" fill="#7A8896"/>
<path d="M34.3347 65.3288C34.5545 64.8877 34.9299 64.7563 35.3922 64.7985C34.8878 65.1472 35.5981 66.2354 34.518 66.2338C34.4572 65.9321 34.3955 65.6305 34.3347 65.3288Z" fill="#6D9BB1"/>
<path d="M17.8676 24.9199C17.8765 25.4203 17.8846 25.9198 17.8935 26.4201C17.8019 26.6107 17.66 26.7477 17.467 26.8329C16.9366 26.7575 16.9966 26.3382 16.9658 25.9725C17.2667 25.6222 17.5675 25.271 17.8676 24.9207V24.9199Z" fill="#8693A2"/>
<path d="M57.2577 28.834C57.261 29.0181 57.2642 29.2022 57.2675 29.3871C57.0355 29.2533 56.8036 29.1187 56.5701 28.9849C56.5685 28.9849 56.7712 28.8551 56.7712 28.8551C56.9431 28.714 57.1134 28.7148 57.2837 28.8584L57.2585 28.8348L57.2577 28.834Z" fill="#8594A1"/>
<path d="M24.1619 20.7418C24.9809 20.6794 25.7999 20.6162 26.6181 20.5537C26.6554 20.6859 26.6749 20.8197 26.6781 20.9559C26.503 21.4798 26.3278 22.0053 26.1527 22.5307C26.0091 22.7099 25.8316 22.8429 25.6215 22.9354C24.7782 23.0692 23.8521 23.666 23.2285 22.5234C23.4612 21.8893 24.2178 21.5284 24.1611 20.7427L24.1619 20.7418Z" fill="#C1C8D2"/>
<path d="M52.8983 20.2017C53.0556 20.492 53.2129 20.7823 53.3703 21.0726C53.0126 21.5568 53.2064 22.4188 52.3485 22.5591C52.0493 22.3977 51.75 22.2363 51.4516 22.0749C50.9991 21.8779 50.6723 21.6176 50.9432 21.0589C50.9424 20.7483 50.9416 20.4385 50.9407 20.1279C51.5935 20.1531 52.2463 20.1774 52.8991 20.2017H52.8983Z" fill="#484E56"/>
<path d="M50.943 21.0586C51.1125 21.3967 51.282 21.7357 51.4515 22.0747C50.7679 22.7704 49.9278 22.4461 49.1355 22.4282C49.5645 22.1468 49.9934 21.8663 50.4208 21.5857C50.5943 21.4105 50.7687 21.2346 50.943 21.0586Z" fill="#454B53"/>
<path d="M46.1124 18.0976C45.5878 17.8 45.0639 17.5032 44.5392 17.2056C44.4176 17.0434 44.4217 16.8893 44.5717 16.7458C45.1645 16.5795 45.604 16.9631 46.0938 17.1674C46.1002 17.4772 46.1059 17.787 46.1124 18.0976Z" fill="#5E646D"/>
<path d="M36.2744 16.4432C36.3847 15.8521 36.7731 15.6631 37.3286 15.7167C37.8022 15.7361 38.2758 15.7377 38.7509 15.7313C38.9488 15.7167 39.1451 15.7159 39.3437 15.724C39.6527 15.7499 39.9381 15.8424 40.1992 16.011C40.3622 16.1521 40.4409 16.3305 40.4368 16.5454C40.3898 16.6371 40.342 16.7279 40.2949 16.8195C38.9642 16.5925 37.5792 16.9525 36.2752 16.4424L36.2744 16.4432Z" fill="#908E95"/>
<path d="M44.5718 16.7457C44.588 16.9006 44.5766 17.0539 44.5393 17.2047C44.2466 17.2112 43.9539 17.2177 43.6611 17.2242C42.5502 16.993 41.3443 17.5518 40.2934 16.8195L40.2512 16.6079C40.9916 16.0978 41.8074 16.084 42.6491 16.2462C43.2735 16.53 44.0317 16.2697 44.6131 16.7287L44.5718 16.7449V16.7457Z" fill="#D1D6DE"/>
<path d="M23.2292 22.5225C24.0547 23.0683 24.9184 22.3328 25.7528 22.5971C25.9198 23.0245 25.902 23.4591 25.8079 23.897C25.6814 24.0827 25.5128 24.2149 25.3003 24.2895C24.4424 24.3982 23.5739 24.4744 22.8554 25.0477C22.3859 25.2739 21.9447 25.2975 21.5669 24.8701C21.3552 24.3609 21.4395 23.9059 21.815 23.5045C22.0096 23.4088 22.3826 23.2572 22.3729 23.2272C22.2456 22.829 21.3463 22.7115 21.7355 22.2387C22.1621 21.7205 22.7257 22.379 23.23 22.5225H23.2292Z" fill="#BAC0CC"/>
<path d="M21.8142 23.5039C21.8029 23.9823 21.7923 24.4608 21.781 24.9384C21.9067 25.0487 21.9489 25.159 21.9059 25.2693C21.8629 25.3787 21.8207 25.4339 21.7786 25.4339C20.8314 25.3682 20.2589 25.0503 20.8022 23.9832C21.1396 23.8234 21.4769 23.6637 21.8142 23.5039Z" fill="#E3EAF4"/>
<path d="M44.6141 16.7296C43.9637 16.6891 43.3134 16.6477 42.6622 16.6072C41.8707 16.2017 40.9495 16.7085 40.1654 16.2528C39.8702 16.2382 39.575 16.2228 39.2799 16.2082C38.9977 15.9438 38.7487 15.6624 38.7868 15.2359C39.0244 14.8394 39.4104 14.7842 39.8216 14.7883C40.4679 16.6801 42.2948 14.6099 43.1552 15.7817C43.4804 16.3461 44.3716 16.0387 44.6141 16.7304V16.7296Z" fill="#4F555E"/>
<path d="M38.7939 16.2046C38.2539 16.1965 37.6749 16.3043 37.3286 15.7164L37.3351 15.7156C37.4924 15.5753 37.6416 15.4269 37.7819 15.2696C37.9506 15.2582 38.1193 15.2477 38.2871 15.2363C38.5531 15.508 39.107 15.6304 38.7939 16.2054V16.2046Z" fill="#6D7786"/>
<path d="M38.7941 16.2044C38.6254 15.8817 38.4568 15.5589 38.2881 15.2354C38.4543 15.2354 38.6206 15.2354 38.7868 15.2354C39.1833 15.4421 39.2693 15.8054 39.2798 16.2076L39.0374 16.2198L38.7949 16.2044H38.7941Z" fill="#595F69"/>
<path d="M25.6897 23.8576C25.2575 23.4148 25.354 22.998 25.7522 22.5958C25.886 22.5731 26.0198 22.5512 26.1536 22.5293C26.4715 22.6996 26.7893 22.8707 27.1072 23.0418C26.9418 23.1991 26.7772 23.3564 26.6117 23.5137C26.3766 23.8219 26.2168 24.332 25.6897 23.8576Z" fill="#9397A6"/>
<path d="M21.7786 25.4334C21.7794 25.2688 21.7802 25.1042 21.781 24.9387C22.1678 24.9436 22.5449 24.9249 22.7752 24.5389C23.7515 24.0646 24.71 23.9445 25.6247 24.6841C25.8137 24.9144 25.8112 25.1423 25.6166 25.3677C25.4553 25.3831 25.2931 25.3985 25.1309 25.4139C24.0118 25.169 22.9033 26.6514 21.7786 25.4342V25.4334Z" fill="#E7EEF6"/>
<path d="M19.4682 25.8517C20.2426 25.9084 21.0471 25.9125 21.296 26.8921C21.4663 27.1321 21.4387 27.347 21.2149 27.5384C20.0504 27.8497 19.2549 27.3802 18.7197 26.3601C18.7951 25.936 18.9776 25.6668 19.4682 25.8508V25.8517Z" fill="#383E46"/>
<path d="M19.4684 25.8519C19.2648 26.0555 19.0613 26.2598 18.8578 26.4634C18.8107 27.2362 18.3769 27.211 17.8336 26.958C17.7079 26.9264 17.5854 26.8842 17.467 26.8323C17.6098 26.6945 17.7517 26.5574 17.8944 26.4196C18.5658 26.1358 18.235 24.878 19.2989 24.9761C19.3557 25.2681 19.4124 25.56 19.4692 25.8519H19.4684Z" fill="#4E5965"/>
<path d="M22.7225 28.7429C22.3309 28.8167 21.9246 28.9335 21.7219 28.421C21.4681 27.8396 21.7843 27.546 22.2701 27.3392C22.4306 27.3279 22.5887 27.3392 22.7461 27.3733C22.9869 27.8339 23.1394 28.2937 22.7234 28.7437L22.7225 28.7429Z" fill="#09090B"/>
<path d="M22.2692 27.3394C22.0868 27.7003 21.9035 28.0611 21.721 28.4212C21.5816 28.4195 21.4518 28.3855 21.3302 28.3174C21.0034 28.0157 21.0034 27.7002 21.2937 27.3743C21.2848 27.2137 21.2856 27.0531 21.2961 26.8926C21.6537 26.9696 22.1103 26.8301 22.27 27.3386L22.2692 27.3394Z" fill="#434549"/>
<path d="M61.2319 34.1251C61.2003 33.825 61.1687 33.5258 61.1362 33.2258C61.6122 32.4919 62.0793 31.7296 63.0873 32.5738C63.8658 33.4731 64.3783 34.4316 63.7604 35.6382C63.5479 35.8515 63.3298 35.8564 63.1076 35.6536C62.4823 35.1444 61.8571 34.6351 61.2311 34.1259L61.2319 34.1251Z" fill="#4D5460"/>
<path d="M62.5961 38.1361C62.1201 37.9496 61.6432 37.7631 61.1672 37.5757C61.1875 36.8938 61.4835 36.3951 62.1306 36.1299C62.2855 36.7989 62.4412 37.4671 62.5961 38.1361Z" fill="#808898"/>
<path d="M63.1077 35.6531C63.2577 35.6085 63.4085 35.5663 63.5593 35.5266C63.874 35.366 64.0581 34.8333 64.5511 35.1787C64.8755 35.3393 65.2006 35.4999 65.525 35.6612C65.3531 35.8331 65.1804 36.0051 65.0085 36.1778C64.5414 36.1697 64.0751 36.1616 63.608 36.1534C63.441 35.9872 63.2747 35.8202 63.1077 35.6531Z" fill="#A0ABBA"/>
<path d="M16.7647 29.4202C16.6731 29.4745 16.5733 29.5037 16.4663 29.5061C16.3301 28.4292 17.2626 28.2817 17.8911 27.8697C18.998 27.2575 19.6005 28.0181 20.2224 28.726C21.1023 28.8655 21.6999 29.2937 21.7843 30.2489C20.9563 30.4338 20.5168 29.7818 19.9516 29.3991C18.8901 29.5232 17.8311 30.0576 16.7647 29.4202Z" fill="#E8EDF3"/>
<path d="M15.9302 31.7607C15.8264 30.8662 16.9 30.614 16.9884 29.825C17.6663 29.3158 17.998 29.7593 18.2956 30.2986C18.4845 30.6197 18.6743 30.94 18.8632 31.2612C19.0335 31.5028 19.0141 31.7282 18.804 31.9375C17.9558 32.4435 17.0881 32.4305 16.2059 32.034C16.1134 31.9439 16.0226 31.8523 15.931 31.7607H15.9302Z" fill="#D8DDE6"/>
<path d="M18.8464 31.7943C18.852 31.6167 18.8577 31.4391 18.8634 31.2607C19.5283 31.3702 20.413 31.1391 20.4276 32.263C20.3498 32.3944 20.3011 32.5363 20.2833 32.688C20.1081 32.8866 19.8884 33.005 19.6256 33.0431C18.8756 32.9328 18.3704 32.6693 18.8464 31.7943Z" fill="#D4DCE7"/>
<path d="M18.2957 30.2986C17.8602 30.1404 17.4239 29.9831 16.9885 29.825C16.8668 29.7163 16.7922 29.5809 16.7646 29.4195C17.8269 29.4122 18.8884 29.4049 19.9507 29.3984C19.551 29.9766 18.5827 29.5128 18.2957 30.2986Z" fill="#C7CED8"/>
<path d="M59.2153 23.9958C59.2226 24.4118 59.3239 24.7783 59.7415 24.9737C59.6791 25.9533 59.881 26.9734 59.2915 27.8711C59.1139 28.0138 58.9606 27.9992 58.8358 27.8014C58.7084 26.5226 57.3721 27.0091 56.7866 26.3993C56.2189 26.0563 56.6447 25.3735 56.2935 24.9567C56.1484 24.625 56.004 24.2934 55.8589 23.9625C56.2684 23.6219 56.6503 23.1946 57.2715 23.5003C57.3039 23.6187 57.3096 23.7379 57.2885 23.8587C57.7143 24.3866 58.1805 24.5253 58.7149 24.0079C58.8812 24.0039 59.0474 23.9998 59.2144 23.9966L59.2153 23.9958Z" fill="#34363B"/>
<path d="M58.7158 24.0073C58.6671 24.4573 58.8926 25.1539 58.2657 25.2131C57.3851 25.2958 57.3324 24.523 57.2886 23.8589C57.7857 23.704 58.269 23.6797 58.7158 24.0065V24.0073Z" fill="#232427"/>
<path d="M57.2723 23.4999C56.8012 23.654 56.33 23.8089 55.8589 23.963C55.8873 23.6775 55.9156 23.3921 55.9432 23.1075C56.4322 23.0823 57.115 22.4036 57.2715 23.5007L57.2723 23.4999Z" fill="#222225"/>
<path d="M56.2936 24.9569C56.8726 25.2966 56.7558 25.8732 56.7867 26.3995C56.4947 26.3695 56.2028 26.3403 55.9109 26.3103C55.8768 26.1895 55.8379 26.0711 55.7925 25.9535C55.9595 25.621 56.1266 25.2885 56.2936 24.9561V24.9569Z" fill="#444850"/>
<path d="M58.8359 27.8016C58.9867 27.8292 59.1383 27.8527 59.2908 27.8713C59.47 27.8665 59.6484 27.8616 59.826 27.8567C59.8933 28.0708 59.8868 28.28 59.7952 28.4868C59.68 28.6758 59.5284 28.829 59.3468 28.9547C59.2413 28.9798 59.1343 29.005 59.0281 29.0293C58.9421 28.9628 58.8562 28.8955 58.7702 28.8282C58.7069 28.6928 58.6696 28.5509 58.6599 28.4025C58.7183 28.2022 58.7767 28.0011 58.8351 27.8008L58.8359 27.8016Z" fill="#5B6571"/>
<path d="M57.2837 28.8584C57.1126 28.8576 56.9423 28.856 56.7712 28.8552C56.944 28.4554 57.1151 28.5056 57.2837 28.8584Z" fill="#B8CAD8"/>
<path d="M19.9102 32.8383C20.0294 32.7751 20.1534 32.7248 20.2832 32.6875C20.3059 33.1862 20.3286 33.6849 20.3513 34.1836C19.7309 34.508 19.0887 34.7513 18.3694 34.6953C17.8748 35.0967 17.3906 35.0627 16.9154 34.6613C16.9065 34.4999 16.9057 34.3393 16.9154 34.178C17.2098 33.886 17.5042 33.5933 17.7993 33.3014C17.9096 33.127 18.0678 33.0273 18.2713 32.9997C18.8341 33.1165 19.4017 33.2754 19.911 32.8383H19.9102Z" fill="#606270"/>
<path d="M18.371 33.2153C18.1796 33.2445 17.9891 33.2737 17.7977 33.3021C16.8724 32.8942 15.7201 33.6865 14.8938 32.7539C15.1995 32.2276 15.7331 32.1263 16.2642 32.0192C16.9697 32.4109 18.6986 31.004 18.3702 33.2145L18.371 33.2153Z" fill="#2F3033"/>
<path d="M15.9831 32.1447C15.7674 32.611 15.3522 32.7205 14.8948 32.7537C14.4926 32.5331 14.2826 32.2331 14.4804 31.762C14.9637 31.453 15.447 31.4481 15.9303 31.7612L16.0187 31.7133C16.1396 31.8195 16.1752 31.9193 16.1242 32.0117C16.0755 32.1009 16.0285 32.1455 15.9831 32.1455V32.1447Z" fill="#323031"/>
<path d="M61.232 27.4706C61.9188 27.3757 62.3275 27.7941 62.707 28.2677C62.5067 29.0867 61.9894 29.5271 61.1436 29.5765C60.7479 29.4938 60.4932 29.2554 60.3692 28.8735C60.3124 28.4842 60.4089 28.1485 60.7187 27.8882L61.232 27.4714V27.4706Z" fill="#383C44"/>
<path d="M60.7187 27.8874C60.687 28.181 60.6546 28.4753 60.623 28.7689C60.5508 28.9724 60.4089 29.0527 60.1964 29.0081C60.0205 28.9181 59.8777 28.7908 59.7675 28.6262C59.748 28.5313 59.7293 28.4356 59.7107 28.3399C59.748 28.1794 59.7861 28.018 59.825 27.8574C60.1243 27.8672 60.4219 27.8777 60.7195 27.8874H60.7187Z" fill="#838E9D"/>
<path d="M20.2217 28.7245C19.2373 29.0027 18.8659 27.6136 17.8903 27.8682C17.8709 27.5649 17.8522 27.2608 17.8328 26.9575C18.1742 26.7929 18.5156 26.6275 18.8569 26.4629C19.7319 26.5975 20.2906 27.5795 21.2929 27.3744C21.3051 27.6882 21.3173 28.0028 21.3294 28.3166C20.9183 28.3393 20.4893 28.3134 20.2217 28.7245Z" fill="#8693A2"/>
<path d="M61.1851 29.3364C61.6927 28.9804 62.1995 28.6244 62.708 28.2676C63.1069 28.3 63.4718 28.3835 63.5894 28.8441C63.2618 29.1547 62.9342 29.4645 62.6066 29.7751C61.9635 30.1757 61.3586 30.4538 61.1851 29.3364Z" fill="#202126"/>
<path d="M58.7377 32.7392C58.8025 32.0297 58.5698 31.3947 58.2446 30.7833C58.4206 30.5952 58.5974 30.407 58.7733 30.2197C59.7027 30.2408 59.8519 30.9739 60.0773 31.6405C60.1259 32.0013 60.0797 32.3435 59.8713 32.6517C59.4934 32.6809 59.1155 32.71 58.7385 32.7392H58.7377Z" fill="#B3C3D2"/>
<path d="M59.7374 31.7735C59.4163 31.2562 59.0944 30.738 58.7733 30.2198C58.7725 29.756 58.7708 29.2921 58.77 28.8291C58.8884 28.8315 59.0052 28.8413 59.122 28.8575C60.0496 29.6773 61.4898 30.3885 59.7366 31.7727L59.7374 31.7735Z" fill="#717B89"/>
<path d="M64.551 35.178C64.221 35.2939 63.8901 35.4107 63.5601 35.5267C63.822 34.3938 63.1782 33.5667 62.6113 32.7136C63.0298 32.2927 63.003 31.5726 63.5877 31.2637C63.7442 31.271 63.8991 31.2872 64.0539 31.3131C64.2396 32.0957 64.4245 32.8782 64.6102 33.6599C64.5908 34.1659 64.5705 34.6719 64.551 35.178Z" fill="#5C6470"/>
<path d="M16.9156 34.6621C17.4006 34.6735 17.8855 34.6848 18.3696 34.6962C18.5326 35.01 18.6948 35.3246 18.8578 35.6385V35.6498C18.205 36.0172 17.5587 36.0155 16.9189 35.6166C16.9229 35.4763 16.9092 35.3368 16.8792 35.1997C16.8913 35.0205 16.9035 34.8413 16.9156 34.6621Z" fill="#42383C"/>
<path d="M16.918 35.6162C17.5643 35.6276 18.2106 35.6381 18.8569 35.6495C19.0466 35.96 19.2356 36.2706 19.4261 36.5812C18.5155 36.4531 17.6048 36.325 16.918 35.6162Z" fill="#6A6974"/>
<path d="M17.9437 38.0417C17.7856 37.8811 17.6274 37.7205 17.4693 37.56C17.4263 37.4189 17.4069 37.2745 17.4109 37.127C18.0556 37.1415 18.7003 37.1561 19.3441 37.1716C19.0311 37.4602 18.7181 37.7489 18.4051 38.0368C18.2527 38.216 18.0994 38.2176 17.9437 38.0417Z" fill="#BBC4D2"/>
<path d="M63.5885 31.2642C63.5926 31.9689 63.6088 32.6825 62.6122 32.7141C61.9602 32.4238 61.7705 33.4634 61.1372 33.2258C60.9782 33.2388 60.8201 33.2525 60.6611 33.2663C60.3976 33.062 60.1349 32.8568 59.8713 32.6517C59.8267 32.3589 59.7821 32.0662 59.7375 31.7734C60.9401 30.506 59.0312 29.8921 59.1228 28.8582L59.2842 28.8258C59.405 28.696 59.5551 28.6303 59.7302 28.6182C59.8997 28.636 60.0676 28.6644 60.2338 28.7025C60.3587 28.756 60.4884 28.7779 60.6238 28.769C60.8112 28.9579 60.9977 29.1469 61.185 29.3358C61.5159 29.944 62.0762 29.811 62.6065 29.7753C62.9341 30.2708 63.2609 30.7671 63.5885 31.2634V31.2642Z" fill="#464B53"/>
<path d="M17.9438 38.0412C18.0979 38.0558 18.2512 38.0541 18.4053 38.0371C19.2956 38.1474 19.4976 38.9048 19.8227 39.5454C19.1983 39.5146 18.5747 39.4846 17.9511 39.453C17.9495 38.9818 17.9463 38.5115 17.9438 38.042V38.0412Z" fill="#A9B4C2"/>
<path d="M25.6167 25.3682C25.6483 25.2312 25.6646 25.0925 25.6654 24.9514C25.384 24.6295 25.3751 24.3092 25.6727 23.9921C25.6727 23.9921 25.6889 23.8607 25.6889 23.8591C25.9962 23.7432 26.3044 23.628 26.6117 23.5137C26.7966 23.8316 26.9823 24.1486 27.168 24.4657C26.4066 24.3465 26.1957 25.1736 25.6167 25.3682Z" fill="#D2DAE4"/>
<path d="M40.1653 16.2524C41.0094 16.2897 41.9104 15.924 42.6621 16.6068C41.8585 16.6068 41.0557 16.6076 40.2521 16.6084C40.235 16.4867 40.2058 16.3684 40.1653 16.2524Z" fill="#575962"/>
<path d="M25.6734 23.9918C25.6709 24.3113 25.6685 24.6316 25.6661 24.9511C24.7643 24.3811 23.7758 24.4208 22.7751 24.5384C23.5804 23.5053 24.6378 23.8053 25.6734 23.991V23.9918Z" fill="#C1C8D2"/>
<path d="M15.9831 32.1451C15.9531 31.9975 15.9652 31.854 16.0188 31.7129C16.9619 31.7397 17.9041 31.7672 18.8464 31.794C18.9016 32.446 19.2892 32.7606 19.9095 32.8384C19.6582 34.0313 19.0419 33.7345 18.3712 33.2147C18.2212 31.4177 16.7778 32.5052 15.9831 32.1451Z" fill="#979FAD"/>
<path d="M59.8584 28.8239C59.667 28.8239 59.4748 28.8248 59.2834 28.8256C59.4262 28.6634 59.5681 28.502 59.71 28.3398L59.7408 28.335C59.8203 28.4882 59.8616 28.6504 59.8584 28.8231V28.8239Z" fill="#202226"/>
<path d="M59.8583 28.8241C59.8186 28.6611 59.7796 28.4989 59.7407 28.3359C59.9045 28.4592 60.0691 28.5816 60.2329 28.7041C60.1097 28.7487 59.9856 28.7892 59.8583 28.8249V28.8241Z" fill="#67707C"/>
</g>
<path d="M39.7317 60.6236C50.7965 60.6236 59.7662 51.6539 59.7662 40.5892C59.7662 29.5244 50.7965 20.5547 39.7317 20.5547C28.667 20.5547 19.6973 29.5244 19.6973 40.5892C19.6973 51.6539 28.667 60.6236 39.7317 60.6236Z" fill="white"/>
<mask id="mask1_1261_8315" style="mask-type:luminance" maskUnits="userSpaceOnUse" x="25" y="25" width="30" height="31">
<path d="M39.9999 55.2498C48.0967 55.2498 54.6604 48.686 54.6604 40.5892C54.6604 32.4925 48.0967 25.9287 39.9999 25.9287C31.9031 25.9287 25.3394 32.4925 25.3394 40.5892C25.3394 48.686 31.9031 55.2498 39.9999 55.2498Z" fill="white"/>
</mask>
<g mask="url(#mask1_1261_8315)">
<path d="M42.6832 33.1246C41.2584 32.3145 39.712 32.8359 38.224 32.7143C37.9661 31.9544 38.6124 31.8101 39.0382 31.5133C39.2417 31.4338 39.4533 31.3827 39.6666 31.3495C40.441 31.2968 40.3364 30.7235 40.3307 30.2126C40.4272 29.4674 40.4573 28.7229 40.3283 27.9769C40.3186 27.758 40.3453 27.5439 40.3956 27.3314C40.5951 26.6754 41.0176 26.2026 41.6079 25.8701C43.0522 25.7226 44.3423 26.2715 45.6455 26.7613C45.6366 27.0395 45.5425 27.2957 45.4533 27.5536C45.3252 28.0191 45.4622 28.4918 45.4176 28.9613C45.3341 29.482 45.1346 29.9523 44.8216 30.3748C44.408 30.9311 43.4617 30.8646 43.2873 31.6998C43.173 32.2139 43.0822 32.7362 42.6824 33.1254L42.6832 33.1246Z" fill="#818F9E"/>
<path d="M27.3667 33.1459C27.6027 31.8971 28.1776 30.8777 29.334 30.255C29.8262 29.8754 30.3744 29.7498 30.9809 29.8917C31.1926 29.9719 31.3726 30.1025 31.5243 30.2704C31.8462 30.9142 32.057 31.6627 32.9377 31.8014C33.1542 31.8816 33.3553 31.9854 33.5491 32.1087C34.1654 32.6755 34.9042 33.201 34.2879 34.1992L34.2749 34.2122C33.2483 35.1302 31.9638 34.8155 30.7734 34.9485C30.5601 34.998 30.3444 35.0239 30.1254 35.0377C29.5554 35.0523 29.0785 34.8082 28.6244 34.4993C28.1249 34.1246 27.4932 33.8684 27.3667 33.1467V33.1459Z" fill="#E8EFF6"/>
<path d="M34.2902 34.6582C33.6472 35.847 33.0049 37.0358 32.3619 38.2246C32.0602 38.1678 31.7585 38.1127 31.4869 37.9619C31.066 37.6861 30.6225 37.4785 30.0962 37.5215C29.7661 37.5207 29.4555 37.4526 29.1685 37.2864C28.8003 36.9863 28.5757 36.6157 28.5952 36.1259C28.75 35.1326 29.8505 35.2956 30.3362 34.7052L30.3013 34.5625C31.6256 34.8115 32.9619 34.5552 34.2902 34.659V34.6582Z" fill="#525158"/>
<path d="M32.2849 39.6101C31.7294 40.5451 33.4194 42.6567 30.7717 42.4953C30.5001 42.1993 30.1554 41.9917 29.8481 41.7363C29.3745 41.326 28.6877 41.0746 28.7355 40.2693C29.1288 39.5728 29.8408 39.4146 30.5236 39.2014C31.1748 39.0643 31.7554 39.2265 32.2849 39.6101Z" fill="#9EA9B8"/>
<path d="M53.8519 36.6748C54.4528 38.2431 53.7586 38.9827 52.2325 39.0646C51.0129 39.1302 49.7859 39.071 48.5623 39.067C48.2841 38.4677 48.5623 38.0063 48.9304 37.5668C49.1178 37.4598 49.3221 37.4054 49.5378 37.3997C50.3439 37.5506 51.1548 37.579 51.9649 37.4225C52.805 37.7087 53.0199 36.4088 53.8519 36.6748Z" fill="#4A4445"/>
<path d="M33.3447 32.4044C33.163 32.3428 32.9822 32.2819 32.8005 32.2203C31.898 31.8416 31.8704 30.8466 31.3668 30.1873L31.3758 30.1938C30.9241 29.983 30.4619 29.7827 30.3994 29.1932C30.5446 29.0659 30.6897 28.9385 30.8349 28.8104C31.5898 28.2655 32.4689 28.6847 33.2684 28.499C34.3948 28.7634 33.9812 29.7089 34.1183 30.4112C34.0485 30.9301 33.8685 31.4199 33.7039 31.9154C33.6236 32.1068 33.5044 32.2706 33.3447 32.4044Z" fill="#30343B"/>
<path d="M34.2878 34.1991C34.2983 33.4304 33.6115 33.0273 33.3447 32.4037L33.2214 32.317L33.2595 32.171C33.6439 31.8758 34.0607 31.6496 34.5465 31.5693C35.1449 31.4315 35.745 31.2733 36.3451 31.5636C36.7335 31.9018 37.0984 32.248 36.7351 32.8197C36.1351 33.6615 35.5998 34.6184 34.2878 34.1983V34.1991Z" fill="#C4D0DC"/>
<path d="M25.4229 40.0857C25.431 39.4402 25.4383 38.7955 25.4464 38.15C25.6808 37.6448 26.0368 37.3432 26.6336 37.4413C27.9952 37.7511 28.6171 38.5166 28.1695 39.9397C27.8273 40.539 27.2726 40.7677 26.619 40.8236C26.0814 40.8042 25.7546 40.4417 25.4221 40.0865L25.4229 40.0857Z" fill="#494A51"/>
<path d="M46.999 37.1698C45.8207 36.2015 45.8531 34.2602 44.1899 33.682C44.34 33.5109 44.5232 33.3877 44.7365 33.3082C45.0641 33.2166 45.3974 33.1987 45.7347 33.236C46.1848 33.3001 46.5773 33.4826 46.8976 33.8102C47.3136 34.2951 47.861 34.6535 48.2453 35.1733C48.5397 36.1026 47.942 36.5948 47.3136 37.0717C47.209 37.1057 47.1044 37.1382 46.999 37.1698Z" fill="#575E68"/>
<path d="M48.666 28.6719C48.8322 28.8146 48.9976 28.9581 49.1639 29.1008C49.4655 29.6774 49.5742 30.3302 49.8791 30.9059C50.0129 31.2052 50.0745 31.5247 50.1532 31.8401C50.2043 31.9569 50.1718 32.0428 50.0567 32.098C50.321 32.4313 50.3689 32.7962 50.2164 33.1911C49.8815 33.6509 49.425 33.8747 48.8606 33.8901C46.9606 33.1879 48.0667 31.6536 47.9094 30.4656C47.9751 29.7885 47.9953 29.0919 48.6668 28.6719H48.666Z" fill="#707F91"/>
<path d="M53.8519 36.675C53.1318 36.7942 53.1659 38.3495 52.0112 37.6416C51.7249 37.9173 51.3916 37.8873 51.0478 37.7876C50.6431 37.464 50.5985 37.0326 50.6796 36.5655C50.7494 36.3628 50.867 36.1884 51.0316 36.0506C51.5603 36.0011 51.8976 35.5843 52.3363 35.35C53.1254 35.1448 53.5973 35.5584 53.963 36.1779C53.9257 36.3433 53.8892 36.5088 53.8519 36.6742V36.675Z" fill="#433E42"/>
<path d="M27.3666 33.1465C27.8604 33.4992 28.3542 33.852 28.8473 34.2047C29.2065 34.9248 28.7192 35.4738 28.4702 36.0715C27.8685 36.4769 27.4728 35.9344 26.996 35.7576C26.7089 35.6068 26.4429 35.4308 26.2961 35.1251C26.614 34.4448 26.6148 33.5933 27.3657 33.1465H27.3666Z" fill="#63646D"/>
<path d="M49.0433 37.6279C48.8835 38.1072 48.7229 38.5872 48.5632 39.0665C46.9625 39.3235 47.1117 38.1388 46.9998 37.1697C47.0898 37.2208 47.1765 37.216 47.2601 37.1535C48.0337 36.6378 48.757 36.3134 49.0441 37.6271L49.0433 37.6279Z" fill="#393538"/>
<path d="M40.7654 27.4218C40.7873 27.5613 40.7517 27.6829 40.6576 27.7884C39.1988 29.1515 38.7949 28.0089 38.3984 26.8404C38.3457 26.4544 38.4308 26.1065 38.6952 25.8105C39.1874 25.5965 39.6861 25.5851 40.1905 25.7676C40.5603 26.2574 40.9966 26.7236 40.7663 27.4218H40.7654Z" fill="#191B1E"/>
<path d="M33.794 28.7583C32.8079 28.7753 31.821 28.7932 30.835 28.8102C31.9475 28.0917 33.4396 28.0155 34.257 26.7959C34.733 27.1859 34.9325 27.7106 34.9917 28.3042C34.9763 28.5426 34.8895 28.7502 34.7241 28.9237C34.3778 29.0729 34.0567 29.0802 33.7932 28.7583H33.794Z" fill="#CAD1D9"/>
<path d="M25.4228 40.0859C25.8128 40.103 26.2126 40.0965 26.4567 40.489C26.5759 40.6365 26.6837 40.7914 26.7818 40.9544C26.8783 41.2326 26.9059 41.5099 26.7778 41.7864C26.2629 42.7636 25.7609 42.9168 25.4536 41.6932C25.3263 41.1872 25.4268 40.6236 25.4236 40.0867L25.4228 40.0859Z" fill="#9298A3"/>
<path d="M32.2848 39.6096L30.3378 39.5731C30.1659 39.4191 30.0508 39.2309 29.9989 39.0055C29.9664 38.5165 30.1294 38.1265 30.5722 37.8791C30.9509 37.6488 31.4463 37.9813 31.8015 37.627C31.988 37.8256 32.1745 38.0251 32.3611 38.2238C31.855 38.6592 32.1178 39.1369 32.2848 39.6088V39.6096Z" fill="#2B292B"/>
<path d="M45.1328 27.3324C45.3039 27.1419 45.475 26.9513 45.6461 26.7607C46.4611 27.2376 47.2761 27.7152 48.091 28.192C48.0456 28.2869 48.001 28.3818 47.9564 28.4783C47.6296 28.7775 47.2404 28.9275 46.8009 28.9575C45.8407 28.831 45.2009 28.3745 45.1336 27.3316L45.1328 27.3324Z" fill="#5F646E"/>
<path d="M44.7307 33.6198C44.5506 33.6409 44.3706 33.662 44.1906 33.6831C43.6878 33.4974 43.1859 33.3117 42.6831 33.1251C42.6961 32.5234 42.7082 31.9209 42.7212 31.3192C43.5378 30.9884 43.9043 31.6144 44.3487 32.0807C44.6301 32.5551 44.8904 33.0359 44.7315 33.6206L44.7307 33.6198Z" fill="#4F5762"/>
<path d="M53.9631 36.1783C53.3825 35.7405 52.7516 35.4899 52.0096 35.6626C51.6479 35.9116 51.3665 35.7113 51.086 35.498C50.9368 35.305 50.8743 35.0893 50.9108 34.8468C51.0941 34.507 51.3949 34.34 51.759 34.2613C52.2715 34.1721 52.6981 34.3473 53.0695 34.6903C53.7936 34.9312 54.0126 35.4745 53.9623 36.1783H53.9631Z" fill="#B3C5D3"/>
<path d="M26.7771 41.786C26.675 41.5435 26.5736 41.301 26.4714 41.0578C27.3107 40.5161 28.0787 40.997 28.8653 41.2216C29.3259 41.6789 30.3646 41.4746 30.3371 42.4955C29.0939 42.5409 27.8581 42.5523 26.7763 41.786H26.7771Z" fill="#808999"/>
<path d="M50.064 33.1916C50.0616 32.8267 50.0583 32.4626 50.0559 32.0977C50.7501 32.2242 51.5026 32.1358 52.0881 32.6564C51.9664 33.2402 52.0856 33.906 51.5115 34.335C50.5084 34.6123 50.111 34.1233 50.064 33.1916Z" fill="#41454B"/>
<path d="M34.2902 34.6589C32.9497 35.0749 31.615 35.2703 30.3013 34.5624C31.5955 34.0961 32.9497 34.3199 34.2756 34.2129C34.3631 34.3589 34.368 34.5073 34.2902 34.6589Z" fill="#CAD1D9"/>
<path d="M51.4669 34.2512C51.5675 33.6778 51.5391 33.0542 52.0889 32.6553C52.7603 33.1678 53.0069 33.8846 53.0701 34.6899C52.5568 34.6858 52.0443 34.6818 51.531 34.6777C51.355 34.6071 51.2869 34.5204 51.3267 34.4174C51.3688 34.3063 51.4159 34.2512 51.4669 34.2512Z" fill="#121216"/>
<path d="M27.3705 35.1815C27.6981 35.5067 28.0266 35.8326 28.3542 36.1578C28.3939 36.2584 28.4344 36.3589 28.4742 36.4603C28.3039 37.229 27.7671 37.5096 27.0405 37.5388C26.8264 37.5072 26.6204 37.4431 26.4242 37.3507C26.1168 37.2096 25.9044 36.9849 25.8152 36.6525C25.859 36.4879 25.9036 36.3224 25.9474 36.1578C26.3001 35.6559 27.0153 35.6802 27.3705 35.1807V35.1815Z" fill="#504B50"/>
<path d="M39.2213 31.7881C38.8888 32.097 38.5555 32.4068 38.223 32.7158C37.8987 32.7012 37.5743 32.6866 37.2499 32.6728C36.6904 31.9446 37.1177 31.4653 37.6667 31.0153C38.1849 30.7777 38.6925 30.7761 39.184 31.0883C39.3899 31.3105 39.4021 31.544 39.2213 31.7881Z" fill="#292E34"/>
<path d="M37.7673 31.2246C37.524 31.682 37.134 32.0866 37.2507 32.6713C37.0788 32.7208 36.9069 32.7702 36.735 32.8197C36.5615 32.4799 36.3879 32.1394 36.2152 31.7996C36.1009 31.6682 36.0457 31.5263 36.0498 31.3739C36.0538 31.2165 36.07 31.1379 36.0984 31.1371C36.4852 30.5767 36.9775 30.3189 37.6554 30.5921C37.7892 30.713 37.85 30.8468 37.8386 30.9935C37.8265 31.1468 37.803 31.2238 37.7673 31.2238V31.2246Z" fill="#707D8A"/>
<path d="M34.6398 28.3896C34.1378 27.9485 34.3008 27.3476 34.2578 26.797C34.6097 26.668 34.9609 26.5391 35.3128 26.4102C35.7856 26.6315 36.041 26.9656 35.8878 27.5138C35.6234 28.0198 35.4353 28.6394 34.6398 28.3896Z" fill="#91A0AE"/>
<path d="M35.711 27.3263C35.578 27.0205 35.445 26.7148 35.312 26.4091C36.114 26.2194 36.916 26.0296 37.7172 25.8398C38.0018 26.1147 38.0221 26.4367 37.8859 26.787C37.4918 27.2735 36.9306 27.409 36.3557 27.5176C36.1197 27.5274 35.9048 27.4617 35.711 27.3263Z" fill="#6A7483"/>
<path d="M50.1524 31.8392C49.9464 31.6356 49.7404 31.4313 49.5344 31.2277C49.3901 30.6414 48.8022 29.9076 50.0194 29.7754C50.2075 30.4541 50.9227 31.0996 50.1524 31.84V31.8392Z" fill="#464D58"/>
<path d="M37.7194 26.8185C37.7194 26.4925 37.7178 26.1665 37.7178 25.8397C38.0438 25.83 38.369 25.8203 38.695 25.8105C38.7217 26.143 38.7477 26.4747 38.7744 26.8072C38.9009 27.0107 38.9058 27.2175 38.7898 27.4275C38.4752 27.7924 38.133 28.0487 37.6456 27.7073C37.4543 27.3935 37.421 27.0926 37.7194 26.8185Z" fill="#768090"/>
<path d="M30.3994 29.1932C30.7246 29.5273 31.0498 29.8606 31.3758 30.1939C30.6954 30.2141 30.0151 30.2352 29.3347 30.2555C29.5747 29.786 29.7353 29.237 30.4003 29.1924L30.3994 29.1932Z" fill="#CAD1D9"/>
<path d="M27.3706 35.1819C27.3438 36.1583 26.6586 36.1769 25.9474 36.1591C25.8817 35.7528 25.8233 35.3498 26.2969 35.126C26.6545 35.1446 27.013 35.1641 27.3706 35.1827V35.1819Z" fill="#42393B"/>
<path d="M40.7654 27.4218C40.5733 26.8704 40.3819 26.319 40.1897 25.7676C40.6625 25.8016 41.136 25.8357 41.6088 25.8698C41.3274 26.3871 41.0468 26.9045 40.7654 27.4218Z" fill="#292A2F"/>
<path d="M50.0194 29.7754C49.3423 30.0884 49.6691 30.7347 49.5353 31.2286C48.8136 30.6237 49.1226 29.8395 49.1639 29.1016C49.5313 29.2224 49.9424 29.2881 50.0203 29.7762L50.0194 29.7754Z" fill="#8E9CAC"/>
<path d="M48.666 28.6718C48.6125 29.3627 48.559 30.0544 48.5063 30.7453C47.1439 30.2498 47.4797 29.4024 48.0416 28.508C48.1065 28.4107 48.1227 28.3053 48.0919 28.1934C48.2833 28.3531 48.4755 28.512 48.6668 28.6718H48.666Z" fill="#363A40"/>
<path d="M30.3377 42.495C29.8536 42.1933 29.3686 41.8917 28.8845 41.5892C29.3597 41.1764 29.8592 41.3078 30.362 41.526C30.7642 41.7368 30.7829 42.1098 30.7723 42.495L30.555 42.5307L30.3377 42.4958V42.495Z" fill="#545663"/>
<path d="M25.8153 36.6532C26.0042 36.8202 26.1932 36.9873 26.3821 37.1543C26.5143 37.2492 26.5581 37.3432 26.5127 37.4365C26.4673 37.5289 26.4227 37.5752 26.3773 37.5752C26.0667 37.7665 25.7569 37.9587 25.4463 38.1501C25.3474 37.5962 25.2979 37.0546 25.8153 36.6523V36.6532Z" fill="#868892"/>
<path d="M38.618 27.2998C38.6699 27.136 38.7218 26.9714 38.7737 26.8076C39.1565 27.6039 39.5708 28.3411 40.6567 27.7888C41.2657 28.5981 41.3257 29.3896 40.5788 30.1543C40.4604 30.7892 40.2812 31.386 39.613 31.6715C39.4776 31.695 39.347 31.7339 39.2213 31.7883C39.2116 31.6026 39.2019 31.4169 39.1921 31.2312C38.5158 30.5824 38.5799 29.585 38.0707 28.856C37.8914 28.2105 38.4607 27.8277 38.6172 27.2998H38.618Z" fill="#2D3339"/>
<path d="M44.7307 33.6193C44.3455 33.2439 44.129 32.7979 44.1541 32.2497C43.9806 31.5231 44.2214 30.8752 44.5336 30.2402C44.7023 29.744 44.8718 29.2469 45.0404 28.7506C45.7581 28.2997 46.1627 28.6379 46.4393 29.302C46.5301 29.7675 46.4263 30.2175 46.3176 30.6635C46.2844 30.8719 46.2398 31.082 46.2008 31.2904C46.1392 31.691 46.0825 32.0956 45.9268 32.4743C45.4483 32.7152 45.8108 33.2771 45.5083 33.5869C45.2488 33.5974 44.9893 33.6088 44.7307 33.6193Z" fill="#1F2125"/>
<path d="M44.5329 30.2402C44.5183 30.9311 44.7672 31.6715 44.1533 32.2497C43.6757 31.9391 43.1981 31.6285 42.7205 31.3179C42.817 30.1056 44.0179 30.7487 44.5329 30.2402Z" fill="#667180"/>
<path d="M46.0971 29.7633C46.0655 29.0919 45.6868 28.7829 45.0405 28.7513C44.8451 28.2631 44.4761 27.7644 45.133 27.333C45.7233 27.895 46.2536 28.5372 47.0816 28.7781C47.1457 28.8827 47.2097 28.9881 47.2738 29.0927C47.2146 29.9012 46.8926 30.2474 46.0971 29.7633Z" fill="#363A40"/>
<path d="M39.6139 31.6705C39.5806 30.9391 40.0777 30.545 40.5797 30.1533C40.75 30.7299 41.4709 31.2683 40.9041 31.8968C40.4921 32.3541 40.0429 31.7954 39.6139 31.6705Z" fill="#6D798A"/>
<path d="M28.3543 36.1578C28.2781 35.4458 28.536 34.8189 28.8473 34.2051C29.3436 34.3721 29.8399 34.5384 30.3362 34.7054C30.4092 35.7734 29.1701 35.518 28.8433 36.1829C28.6884 36.3759 28.5295 36.3702 28.3673 36.1934L28.3543 36.1586V36.1578Z" fill="#4F5059"/>
<path d="M31.3669 30.1875C32.67 30.284 32.0732 31.7193 32.8006 32.2205C31.0514 32.4386 31.3166 31.2368 31.3669 30.1875Z" fill="#CAD1D9"/>
<path d="M30.7586 38.0922C30.3426 38.3339 30.2786 38.7507 30.2218 39.1707C29.7766 39.5365 29.3071 39.5527 28.8157 39.2672C28.4297 38.8504 28.3827 38.3647 28.5294 37.8408C28.6908 37.4638 28.9649 37.2278 29.3777 37.167C29.6842 37.1654 29.9907 37.1637 30.2964 37.1621C30.7465 37.3251 31.0717 37.5497 30.7578 38.0914L30.7586 38.0922Z" fill="#595E6B"/>
<path d="M29.3777 37.1683C29.2001 37.3297 29.0226 37.4911 28.8442 37.6524C28.0478 37.9857 27.2458 38.3417 26.8096 37.1659C27.5297 37.1626 28.0592 36.8537 28.3665 36.192C28.5255 36.1766 28.6836 36.1725 28.8425 36.1814C29.0209 36.5107 29.1985 36.8391 29.3769 37.1675L29.3777 37.1683Z" fill="#453D42"/>
<path d="M30.7585 38.0924C30.6053 37.7826 30.4512 37.4728 30.2971 37.1631C31.168 36.1219 31.2824 37.5296 31.8014 37.6269C31.584 38.0729 31.1907 38.1272 30.7577 38.0924H30.7585Z" fill="#3E393E"/>
<path d="M30.3612 41.5262C29.869 41.5473 29.3759 41.5684 28.8837 41.5894C28.0793 41.4127 27.274 41.2351 26.4704 41.0583C26.4655 40.8685 26.4607 40.6796 26.4558 40.489C26.8994 40.3414 27.3438 40.1947 27.7873 40.0471C27.9414 39.8995 28.1231 39.8581 28.3282 39.9076C28.6242 40.0455 28.6874 40.3731 28.8886 40.5888C29.3792 40.901 29.8706 41.2132 30.3612 41.5254V41.5262Z" fill="#777F8D"/>
<path d="M28.8887 40.5894C28.7087 40.4207 28.5287 40.252 28.3487 40.0842C28.0786 39.5441 28.416 39.3365 28.8449 39.1792C29.3047 39.1767 29.7637 39.1743 30.2235 39.1719C30.29 39.2976 30.3289 39.4314 30.3395 39.5733C29.8562 39.9122 29.3728 40.2504 28.8895 40.5894H28.8887Z" fill="#77808E"/>
<path d="M49.0431 37.6277C48.5841 36.9587 47.8827 37.1995 47.2591 37.1533C46.8795 36.2589 48.2005 36.0294 48.0197 35.2128C48.8509 35.5696 48.906 34.4376 49.5434 34.4181C50.1905 34.3784 50.63 34.7295 51.0136 35.1893L50.9682 35.2907C51.3007 35.5639 51.3298 35.8534 51.0144 36.1616L51.0306 36.1502C50.6957 36.417 50.553 36.816 50.3349 37.1639C50.1305 37.4161 49.8824 37.5945 49.5507 37.6334C49.3812 37.6318 49.2126 37.6301 49.0431 37.6285V37.6277Z" fill="#37393E"/>
<path d="M49.5509 37.6324C49.7066 37.4726 49.8623 37.3137 50.0171 37.154C50.584 36.7947 50.7324 37.3161 50.9862 37.6146C51.3276 37.6235 51.6698 37.6324 52.0112 37.6405C51.1889 38.3014 50.3683 38.393 49.55 37.6324H49.5509Z" fill="#373337"/>
<path d="M33.794 28.7578C34.1119 28.7383 34.4305 28.7197 34.7484 28.7002C35.1028 28.7789 35.3396 28.9994 35.4993 29.3165C35.6112 29.6538 35.5983 29.9863 35.4645 30.3155C35.2885 30.6237 35.0404 30.8524 34.7103 30.9878C34.3559 31.0697 34.0332 31.0218 33.768 30.7502C33.6456 30.0844 33.2928 29.4154 33.794 28.7586V28.7578Z" fill="#707D8B"/>
<path d="M33.7672 30.751C34.1127 30.7226 34.4581 30.6934 34.8036 30.665C35.2196 31.1881 35.1409 31.6835 34.7201 32.1604C34.2351 32.4069 33.7486 32.4458 33.2588 32.1717C33.3253 31.6617 33.2028 31.0835 33.7664 30.751H33.7672Z" fill="#464D55"/>
<path d="M34.7207 32.1599C34.7483 31.662 34.775 31.1641 34.8034 30.6654C34.9599 30.5283 35.1164 30.3921 35.2721 30.2559C35.6711 30.1537 36.083 29.9218 36.4309 30.3654C36.5347 30.6922 36.4974 30.9898 36.242 31.2395C36.2331 31.4268 36.2241 31.6134 36.2152 31.8015C35.7173 31.9215 35.2186 32.0407 34.7207 32.1607V32.1599Z" fill="#737D8D"/>
<path d="M28.8442 39.1792C28.6788 39.4808 28.5133 39.7825 28.3487 40.0841C28.1622 40.072 27.9757 40.0598 27.7884 40.0476C28.3649 38.6269 27.1202 38.245 26.3774 37.576C26.3693 37.4349 26.3717 37.2946 26.3823 37.1543C26.525 37.1673 26.6685 37.1705 26.8112 37.1657C27.3602 37.8647 28.1484 37.5662 28.845 37.6522C28.845 38.1615 28.845 38.6699 28.845 39.1792H28.8442Z" fill="#6D717D"/>
<path d="M49.7277 34.6639C49.1373 34.7799 48.8357 35.7951 48.0199 35.2129C47.4222 35.0888 46.9268 34.831 46.7046 34.213C46.7905 33.6551 46.8035 33.0956 46.7435 32.5393C46.3786 32.1103 45.9229 31.7649 45.6277 31.28C45.6301 31.0894 45.6326 30.898 45.635 30.7075C46.3551 30.2379 47.8707 30.3758 47.11 28.7767H47.0817C47.3014 28.3331 47.642 28.3145 48.041 28.5066C48.1383 29.2648 47.788 30.1155 48.5064 30.7448C48.976 31.6854 47.3639 32.9967 49.0368 33.7233C49.5225 33.8489 49.7601 34.1571 49.7277 34.6631V34.6639Z" fill="#212428"/>
<path d="M47.5573 32.237C47.5662 33.0228 47.1543 33.6261 46.7034 34.2132C46.3053 34.0048 45.9071 33.7964 45.5081 33.588C45.5122 33.2928 45.0573 32.953 45.5941 32.7106C46.1844 32.2865 46.7342 31.6969 47.5573 32.237Z" fill="#383D45"/>
<path d="M49.7275 34.664C49.4972 34.351 49.2669 34.0372 49.0366 33.7242C49.2629 33.3236 49.6594 33.2506 50.064 33.1914C50.5782 33.4833 50.7339 34.2488 51.4669 34.2513C51.5067 34.3908 51.5277 34.5335 51.531 34.6778C51.3583 34.8481 51.1855 35.0192 51.0128 35.1895C50.4541 35.3322 50.0859 35.0095 49.7275 34.664Z" fill="#8E9CAC"/>
<path d="M51.0138 36.1619C50.9983 35.8716 50.9829 35.5813 50.9675 35.291C51.3146 35.4151 51.6625 35.5392 52.0096 35.6624C52.0314 35.9373 52.0525 36.2114 52.0744 36.4863C51.7209 36.3776 51.3673 36.2698 51.0138 36.1611V36.1619Z" fill="#545A64"/>
<path d="M50.9861 37.6159C50.6634 37.4626 50.3406 37.3085 50.0171 37.1553C50.0203 36.4838 50.3504 36.1416 51.0299 36.1506C51.0153 36.6387 51.0007 37.1277 50.9861 37.6159Z" fill="#60646E"/>
<path d="M35.2161 29.3072C35.0604 29.1053 34.9039 28.9042 34.7482 28.7015C34.7158 28.5953 34.6801 28.4898 34.6404 28.3877C34.9964 28.0341 35.354 27.6797 35.7116 27.3262C35.8859 27.3116 36.0611 27.2962 36.2363 27.2816C36.9572 27.0505 36.9531 27.5808 37.0269 28.0317C36.9912 28.3869 36.8566 28.7055 36.6717 29.0072C36.5412 29.2018 36.3741 29.3583 36.1746 29.4816C35.8243 29.6 35.5016 29.5554 35.2161 29.3081V29.3072Z" fill="#9AA6B5"/>
<path d="M38.3002 28.8115C39.7939 29.1764 38.9733 30.3952 39.193 31.2297C38.7178 31.2281 38.2426 31.2264 37.7674 31.2248C37.7058 31.0724 37.6717 30.9134 37.6644 30.7488C37.6612 30.4836 37.6782 30.2193 37.7204 29.9565C37.7496 29.6849 37.8023 29.4189 37.9012 29.1627C37.9856 28.9899 38.1218 28.8756 38.3002 28.8115Z" fill="#17181B"/>
<path d="M38.1736 30.2637C38.0041 30.4259 37.8346 30.5881 37.6643 30.7495C37.19 30.9125 36.7156 31.0755 36.2412 31.2393C36.2152 30.9035 36.1901 30.5678 36.1641 30.2329C35.9201 29.8988 35.9525 29.5753 36.1998 29.259C36.2542 29.1074 36.3117 28.9574 36.3726 28.8081C37.4146 28.7481 37.5605 29.7934 38.1728 30.2645L38.1736 30.2637Z" fill="#4D5761"/>
<path d="M36.6986 28.2002C36.7059 27.8126 36.6305 27.4663 36.2356 27.2806C36.5997 26.7081 37.1771 26.8184 37.7196 26.8176C37.7147 27.129 37.7107 27.4404 37.7058 27.7518C37.6636 27.8596 37.6223 27.9675 37.5809 28.0761C37.3157 28.3227 37.0433 28.5205 36.6986 28.1994V28.2002Z" fill="#7E8A9A"/>
<path d="M38.3002 28.812C38.2686 28.9588 38.2329 29.1039 38.1932 29.2491C37.0871 29.0966 37.3855 28.4682 37.7115 27.83C37.7115 27.83 37.7058 27.7537 37.7058 27.7529C38.0099 27.6013 38.314 27.4505 38.6181 27.2988C38.5119 27.8032 38.4057 28.3076 38.2994 28.8112L38.3002 28.812Z" fill="#667181"/>
<path d="M47.1098 28.7773C48.2208 30.6441 47.5112 31.1225 45.6348 30.7089C45.7888 30.3935 45.9429 30.0789 46.097 29.7634C46.7433 29.7521 47.0604 29.4009 47.1098 28.7773Z" fill="#323941"/>
<path d="M47.5575 32.237C46.9031 32.3951 46.2486 32.5524 45.5942 32.7106C45.6048 32.2337 45.6161 31.7561 45.6275 31.2793C46.2203 31.7002 47.0952 31.5542 47.5575 32.237Z" fill="#2F3339"/>
<path d="M36.2008 29.2578C36.1894 29.5822 36.1772 29.9074 36.1651 30.2317C35.8683 30.3104 35.5837 30.8123 35.2715 30.2552C35.2536 29.939 35.235 29.6227 35.2163 29.3065C35.5439 29.2902 35.8723 29.274 36.1999 29.2578H36.2008Z" fill="#8A96A5"/>
<path d="M37.7121 27.8301C37.7705 28.3377 37.5945 28.9248 38.1938 29.2492C38.1873 29.5873 38.1808 29.9255 38.1743 30.2636C37.1469 30.305 36.8939 29.3903 36.3733 28.8072C36.482 28.6053 36.5906 28.4034 36.6985 28.2015C37.0366 28.0774 37.374 27.9541 37.7121 27.8301Z" fill="#444B55"/>
</g>
<path d="M39.7318 47.3688C43.9976 47.3688 47.4557 43.9107 47.4557 39.6449C47.4557 35.379 43.9976 31.9209 39.7318 31.9209C35.4659 31.9209 32.0078 35.379 32.0078 39.6449C32.0078 43.9107 35.4659 47.3688 39.7318 47.3688Z" fill="white"/>
<path d="M22.79 47.3967C22.4122 46.868 22.0351 46.3385 21.4634 45.5381H25.2203C25.625 45.8057 26.1724 45.7343 26.543 46.0879C26.9444 46.3855 27.4747 46.5274 27.6993 47.0407C27.6977 47.2653 27.6109 47.4494 27.4406 47.5962C26.9484 47.8865 26.4189 47.9108 25.8739 47.82C25.2609 47.7267 24.8295 47.2078 24.2164 47.1137C23.7169 47.0894 23.2733 47.3456 22.7908 47.3967H22.79Z" fill="#858994"/>
<path d="M35.6811 49.1631C36.7377 50.3989 38.9174 50.7833 38.4674 53.1747C38.2825 54.1559 38.036 54.5776 37.0467 54.3894C36.8991 54.2232 36.8366 54.0278 36.8431 53.808C36.8788 52.933 37.204 51.977 36.1603 51.4085C35.7751 51.1336 35.4192 50.8149 34.9869 50.6049C34.8166 50.5092 34.6764 50.3803 34.5588 50.2254C34.4793 49.5953 34.9131 49.3755 35.3875 49.189C35.4848 49.1793 35.583 49.1712 35.6811 49.1631Z" fill="#41434A"/>
<path d="M25.6761 47.3856C26.2989 47.371 26.9216 47.3564 27.5444 47.3418C27.9353 47.71 27.9596 48.1511 27.8015 48.6271C27.5809 49.5329 25.9923 48.542 26.0718 49.8703C24.9576 49.3813 23.9099 48.812 23.3601 47.6378C23.3479 47.4132 23.4493 47.2688 23.665 47.2031C24.3559 47.0264 24.9665 47.7489 25.6761 47.3848V47.3856Z" fill="#4C535D"/>
<path d="M32.6451 51.6895C31.8821 50.9005 31.4377 49.8066 30.3648 49.3136C30.2238 48.8497 30.5019 48.6178 30.8546 48.4256C31.6015 48.1645 32.337 48.1645 33.0538 48.5302C33.5793 48.947 33.2728 49.659 33.6255 50.1431C33.6166 50.8608 33.9053 51.7698 32.6443 51.6895H32.6451Z" fill="#2E3238"/>
<path d="M26.0717 49.8712C25.8909 49.4722 25.7092 49.074 25.4595 48.5234C26.2112 48.6118 26.8859 48.6913 27.5597 48.77C27.8273 48.5161 28.1339 48.4902 28.4672 48.6143C28.8807 48.8827 28.9878 49.3011 29.0259 49.7528C28.0885 50.97 27.0951 50.8037 26.0717 49.8712Z" fill="#33383F"/>
<path d="M33.241 48.8482C32.4504 48.8231 31.6606 48.7971 30.8699 48.772C30.5131 48.4898 30.2228 48.1662 30.196 47.6797C30.2277 47.4502 30.3339 47.2621 30.5115 47.1128C31.4684 46.6141 32.4098 46.4357 33.2913 47.254C33.6732 47.3042 32.6929 48.1346 33.6668 47.8962C34.2036 47.7648 34.7015 48.0008 35.1548 48.296C35.3299 48.5855 35.5051 48.8742 35.6803 49.1637C35.634 49.2618 35.5692 49.3461 35.4856 49.4167C34.7274 49.265 33.8679 49.5156 33.2402 48.8482H33.241Z" fill="#4F5861"/>
<path d="M32.6451 51.6894C33.4584 51.2288 33.177 50.4325 33.2419 49.7432C33.6847 49.3589 34.0301 49.5211 34.3326 49.9346C34.5945 50.9491 35.5636 51.8419 34.8767 53.0258C34.6042 53.4053 34.2191 53.6105 33.7787 53.7273C33.5574 53.75 33.3498 53.7021 33.1551 53.5959C32.834 53.1572 33.237 52.5125 32.7383 52.1225C32.6224 51.9968 32.5916 51.8524 32.6451 51.6902V51.6894Z" fill="#38404B"/>
<path d="M33.319 47.3958C32.3589 47.0316 31.3915 47.3293 30.4265 47.3633C29.7218 47.699 29.2401 47.3852 28.8428 46.8208C28.8128 46.5419 28.9141 46.3245 29.1461 46.1664C29.3845 46.0496 29.6342 45.9856 29.8986 45.9726C31.1977 46.0699 32.5568 45.6101 33.778 46.4024C33.8453 46.511 33.8818 46.6286 33.8867 46.7567C33.9734 47.2141 33.7391 47.3876 33.319 47.3966V47.3958Z" fill="#4E5762"/>
<path d="M33.778 46.4012C32.3451 46.4012 30.9122 46.4012 29.4793 46.4012C29.146 45.8887 29.5855 45.7582 29.8937 45.5628C31.1482 46.0266 32.8333 44.5005 33.778 46.4004V46.4012Z" fill="#66717F"/>
<path d="M29.8937 45.5632C29.755 45.843 29.6164 46.1219 29.4785 46.4017C29.3147 46.4114 29.1509 46.4212 28.9871 46.4309C28.7917 46.5955 28.5711 46.7147 28.3262 46.7893C27.5956 46.6636 26.8252 46.7796 26.131 46.4333C25.8278 46.1349 25.5245 45.8365 25.2212 45.5381C26.779 45.547 28.3367 45.5551 29.8945 45.564L29.8937 45.5632Z" fill="#595D65"/>
<path d="M36.9761 54.037C37.0037 54.1538 37.0272 54.2714 37.0458 54.3897C36.1603 54.526 37.1723 56.4041 35.6267 55.9337C34.9748 55.2712 34.8402 54.4368 34.8369 53.5586C34.9423 53.1799 35.1426 52.8847 35.5375 52.759C36.4912 52.6511 36.9542 53.0963 36.9753 54.037H36.9761Z" fill="#636F80"/>
<path d="M30.3495 47.8229C30.7436 48.0191 30.8547 48.3686 30.8701 48.7725C30.7022 48.9533 30.5335 49.1333 30.3657 49.3142C29.8126 49.1341 29.485 49.6418 29.0269 49.7529C28.619 49.5826 28.5054 49.2298 28.46 48.8357C28.4422 48.3329 28.6092 47.9194 29.0366 47.6283C29.5134 47.4239 29.9464 47.522 30.3495 47.8229Z" fill="#4C535D"/>
<path d="M35.1289 53.5314C35.5717 54.2751 35.6803 55.0876 35.626 55.9342C35.1484 55.8993 34.6699 55.8644 34.1923 55.8296C33.7658 55.4063 33.9482 54.8816 33.9466 54.3861C34.0082 53.9539 34.2045 53.6085 34.601 53.3968C34.8102 53.3092 34.9862 53.3547 35.1289 53.5314Z" fill="#3D4653"/>
<path d="M33.3189 47.3957C33.5078 47.1824 33.6976 46.9691 33.8865 46.7559C34.8264 46.8442 34.8718 47.6681 35.1548 48.2966C34.528 48.2966 33.8776 48.4061 33.28 48.2755C31.9152 47.9787 33.4308 47.703 33.3189 47.3965V47.3957Z" fill="#8996A8"/>
<path d="M34.1696 54.4557C34.7186 54.9041 34.0382 55.3745 34.1931 55.8294C33.5987 55.7207 33.1649 55.3623 32.7821 54.9236C32.5267 54.2773 32.7724 53.8224 33.3327 53.4883C33.4544 53.5069 33.576 53.5232 33.6977 53.5369C34.0893 53.7226 33.9207 54.1962 34.1696 54.4557Z" fill="#4C5967"/>
<path d="M33.3327 53.4885C33.1494 53.9669 32.9662 54.4453 32.7821 54.9238C30.6169 54.0237 33.4535 53.0449 32.7383 52.1221C33.3173 52.4124 33.2638 52.9768 33.3319 53.4885H33.3327Z" fill="#70829A"/>
<path d="M23.5459 47.3691C23.4664 47.4477 23.4048 47.5369 23.3602 47.6383C23.0747 47.781 22.9085 47.644 22.7893 47.395C23.0756 46.7998 23.5256 46.4446 24.2076 46.4316C24.4598 47.0779 24.5587 47.6156 23.5451 47.3691H23.5459Z" fill="#4E5866"/>
<path d="M28.9733 47.8386C28.9636 48.2538 28.8663 48.6235 28.46 48.8352C28.16 48.8141 27.86 48.7922 27.5599 48.7703C27.5542 48.2943 27.5494 47.8183 27.5437 47.3431C27.5632 47.2182 27.581 47.0933 27.5972 46.9685C27.6751 46.529 28.2022 46.7868 28.3627 46.4754C28.5703 46.4608 28.7787 46.4462 28.9871 46.4316C28.9815 46.5654 28.9725 46.7001 28.962 46.8339C29.2564 47.1655 29.2555 47.5012 28.9742 47.8394L28.9733 47.8386Z" fill="#565F6B"/>
<path d="M23.5459 47.3698C24.0406 47.2506 24.2287 46.9149 24.2084 46.4324C24.9747 46.3237 25.1758 47.0844 25.6762 47.386C24.9618 48.0259 24.2514 48.0234 23.5467 47.3698H23.5459Z" fill="#768292"/>
<path d="M28.3627 46.4748C28.2622 46.8794 27.9013 46.8786 27.5972 46.967C27.0929 46.8316 26.4555 47.0595 26.1311 46.4326C26.8747 46.4464 27.6191 46.4602 28.3627 46.4748Z" fill="#AFBAC6"/>
<path d="M36.9762 54.0368C36.4767 53.7708 36.3802 52.9761 35.6431 53.0232C35.3309 52.8099 35.2936 52.5017 35.343 52.162C35.4752 51.7289 35.6869 51.3567 36.1256 51.1621C37.7344 51.3243 37.9047 51.9017 36.9762 54.0376V54.0368Z" fill="#393F49"/>
<path d="M35.6358 52.1381C35.6382 52.4333 35.6407 52.7284 35.6431 53.0228C35.472 53.1915 35.3009 53.3609 35.1298 53.5304C34.9789 53.5353 34.8281 53.5288 34.6781 53.5126C34.5638 53.4396 34.5119 53.3528 34.5232 53.2523C34.5354 53.1452 34.5565 53.0917 34.5873 53.0917C35.1436 52.0302 33.941 51.2039 34.1972 50.1822C34.344 50.0086 34.4924 50.007 34.6432 50.1773C34.8168 50.2073 34.9903 50.2381 35.1638 50.2681C35.7047 50.7944 35.5685 51.4918 35.635 52.1381H35.6358Z" fill="#596373"/>
<path d="M34.6433 50.1789L34.4203 50.196L34.1973 50.1838C33.9775 49.8229 33.6272 49.7451 33.242 49.7435C32.7198 49.4451 33.1714 49.1458 33.242 48.8482C34.0675 48.7347 34.8622 48.7404 35.4874 49.4167C35.206 49.6713 34.9246 49.9251 34.6441 50.1789H34.6433Z" fill="#23262C"/>
<path d="M35.6357 52.1384C34.9464 51.6486 35.1629 50.9309 35.1637 50.2684C35.7979 50.2295 36.0492 50.6009 36.1246 51.162C36.0638 51.5391 36.0257 51.9267 35.6349 52.1392L35.6357 52.1384Z" fill="#6A7788"/>
<path d="M34.5873 53.0926C34.6279 53.2304 34.6579 53.3707 34.6773 53.5134C34.5087 53.8272 34.3392 54.1419 34.1697 54.4557C34.0124 54.1492 33.8551 53.8427 33.6978 53.5369C33.8867 53.1736 34.2038 53.0666 34.5873 53.0926Z" fill="#262B31"/>
<path d="M66.5542 40.5898H39.3496V68.4878H66.5542V40.5898Z" fill="#213B78"/>
<path d="M42.0071 49.3962V45.1162H42.5788V49.3962H42.0071Z" fill="white"/>
<path d="M45.318 49.4812C44.9125 49.4812 44.5549 49.3904 44.2451 49.2071C43.9353 49.0247 43.6937 48.7668 43.521 48.4335C43.3474 48.1002 43.2615 47.7077 43.2615 47.2553C43.2615 46.8028 43.3507 46.4103 43.5291 46.077C43.7075 45.7437 43.9516 45.4858 44.2613 45.3034C44.5711 45.1209 44.9238 45.0293 45.3188 45.0293C45.5223 45.0293 45.7121 45.0496 45.8872 45.0901C46.0624 45.1307 46.2181 45.1826 46.3551 45.2458L46.2943 45.7778C46.1597 45.7105 46.0162 45.6553 45.8629 45.6123C45.7104 45.5694 45.5458 45.5483 45.3707 45.5483C45.0487 45.5483 44.7779 45.6245 44.5573 45.7762C44.3376 45.9278 44.1713 46.133 44.0594 46.3908C43.9475 46.6487 43.8916 46.9366 43.8916 47.2544C43.8916 47.5723 43.9475 47.857 44.0594 48.1148C44.1713 48.3727 44.3368 48.5779 44.5565 48.7311C44.7763 48.8844 45.0463 48.9606 45.3682 48.9606C45.5458 48.9606 45.7104 48.9412 45.8621 48.9014C46.0137 48.8617 46.1581 48.8082 46.2943 48.7409L46.3551 49.2728C46.2205 49.332 46.0681 49.3815 45.8978 49.4212C45.7275 49.4609 45.5345 49.4812 45.3188 49.4812H45.318Z" fill="white"/>
<path d="M46.9802 49.3962V45.1162H49.4316V45.636H47.5519V46.8986H49.0408V47.4184H47.5519V48.8764H49.4843V49.3962H46.981H46.9802Z" fill="white"/>
<path d="M50.1355 49.3962V45.1162H50.7072V48.8764H52.5017V49.3962H50.1355Z" fill="white"/>
<path d="M54.2136 45.6813H54.3912L53.187 49.3952H52.582L54.0068 45.1152H54.5996L56.0244 49.3952H55.4194L54.2152 45.6813H54.2136ZM55.1429 48.2397H53.4619V47.7142H55.1429V48.2397Z" fill="white"/>
<path d="M56.515 49.3962V45.1162H57.1475L59.0426 48.2772V45.1162H59.6175V49.3962H59.1099L57.0859 46.0577V49.3962H56.5142H56.515Z" fill="white"/>
<path d="M60.5105 49.3962V45.1162H61.9872C62.3699 45.1162 62.7105 45.2005 63.0081 45.37C63.3057 45.5395 63.5393 45.7836 63.7079 46.1023C63.8774 46.421 63.9618 46.8062 63.9618 47.2562C63.9618 47.7063 63.8774 48.0915 63.7079 48.4101C63.5385 48.7288 63.3057 48.9729 63.0081 49.1424C62.7105 49.3119 62.3699 49.3962 61.9872 49.3962H60.5105ZM61.0822 48.8764H61.9385C62.2442 48.8764 62.5005 48.8099 62.7073 48.6778C62.914 48.5456 63.0697 48.3574 63.1752 48.115C63.2798 47.8725 63.3325 47.5863 63.3325 47.2562C63.3325 46.9262 63.2798 46.6399 63.1752 46.3975C63.0706 46.155 62.914 45.9677 62.7073 45.8347C62.5005 45.7025 62.2442 45.636 61.9385 45.636H61.0822V48.8764Z" fill="white"/>
<path d="M42.7928 56.2077V52.4475H41.6372V51.9277H44.52V52.4475H43.3645V56.2077H42.7928Z" fill="white"/>
<path d="M46.69 56.2927C46.3113 56.2927 45.974 56.2019 45.678 56.0187C45.3828 55.8362 45.1501 55.5783 44.9806 55.245C44.8111 54.9118 44.7268 54.5193 44.7268 54.0668C44.7268 53.6143 44.8111 53.2218 44.9806 52.8885C45.1501 52.5552 45.382 52.2974 45.678 52.1149C45.9732 51.9325 46.3105 51.8408 46.69 51.8408C47.0695 51.8408 47.4061 51.9316 47.7021 52.1149C47.9972 52.2974 48.2292 52.5552 48.3978 52.8885C48.5657 53.2218 48.65 53.6143 48.65 54.0668C48.65 54.5193 48.5657 54.9118 48.3978 55.245C48.23 55.5783 47.998 55.8362 47.7021 56.0187C47.4069 56.2011 47.0695 56.2927 46.69 56.2927ZM46.69 55.73C46.9893 55.73 47.239 55.6562 47.4393 55.5086C47.6388 55.361 47.7888 55.1607 47.8886 54.9093C47.9883 54.6579 48.0386 54.3766 48.0386 54.0668C48.0386 53.757 47.9883 53.4764 47.8886 53.2251C47.7888 52.9737 47.638 52.7734 47.4377 52.6258C47.2366 52.4782 46.9876 52.4044 46.69 52.4044C46.3924 52.4044 46.1435 52.4782 45.9424 52.6258C45.7413 52.7734 45.5912 52.9737 45.4899 53.2251C45.3885 53.4764 45.3382 53.7578 45.3382 54.0668C45.3382 54.3757 45.3885 54.6571 45.4899 54.9093C45.5912 55.1615 45.7413 55.361 45.9424 55.5086C46.1435 55.6562 46.3924 55.73 46.69 55.73Z" fill="white"/>
<path d="M50.9117 56.2929C50.5346 56.2929 50.224 56.2183 49.9808 56.0699C49.7375 55.9215 49.5567 55.709 49.4399 55.4341C49.3223 55.1592 49.2639 54.8316 49.2639 54.4529V51.9277H49.8356V54.294C49.8356 54.4894 49.8486 54.6759 49.8753 54.8535C49.9021 55.0311 49.9524 55.1884 50.027 55.3255C50.1016 55.4633 50.2103 55.572 50.353 55.6523C50.4957 55.7325 50.6822 55.7731 50.9125 55.7731C51.1428 55.7731 51.335 55.7334 51.4777 55.6523C51.6204 55.572 51.7283 55.4625 51.8021 55.3238C51.8759 55.1852 51.9253 55.0271 51.9521 54.8503C51.9789 54.6727 51.9918 54.4878 51.9918 54.294V51.9277H52.5635V54.4529C52.5635 54.8324 52.5051 55.1592 52.3876 55.4341C52.27 55.709 52.09 55.9215 51.8467 56.0699C51.6034 56.2183 51.292 56.2929 50.9125 56.2929H50.9117Z" fill="white"/>
<path d="M53.4304 56.2077V51.9277H54.6744C54.9695 51.9277 55.2266 51.9748 55.4447 52.0696C55.6629 52.1645 55.8307 52.3081 55.9491 52.5011C56.0675 52.694 56.1267 52.9373 56.1267 53.2333C56.1267 53.5025 56.0667 53.7361 55.9467 53.9331C55.8267 54.131 55.6531 54.2867 55.4269 54.401L56.3319 56.2077H55.6475L54.8309 54.5356C54.8163 54.5356 54.7992 54.5364 54.779 54.5389C54.7587 54.5413 54.7384 54.5421 54.7182 54.5421H54.0183V56.2077H53.4312H53.4304ZM54.0175 54.0248H54.6476C54.9493 54.0248 55.1715 53.9558 55.3158 53.8172C55.4601 53.6785 55.5315 53.4839 55.5315 53.2333C55.5315 52.9827 55.4593 52.7857 55.3158 52.6495C55.1723 52.5132 54.9493 52.4443 54.6476 52.4443H54.0175V54.0248Z" fill="white"/>
<path d="M56.9312 56.2077V51.9277H57.5028V56.2077H56.9312Z" fill="white"/>
<path d="M59.5383 56.2927C59.3809 56.2927 59.222 56.2806 59.0598 56.2563C58.8976 56.2319 58.7468 56.1995 58.6073 56.1598C58.4679 56.12 58.3511 56.0787 58.257 56.0357L58.3365 55.4186C58.4427 55.4753 58.566 55.5313 58.7063 55.5864C58.8466 55.6416 58.9958 55.6862 59.1539 55.7211C59.312 55.7559 59.471 55.773 59.6323 55.773C59.8934 55.773 60.1002 55.7227 60.2527 55.6213C60.4051 55.5199 60.4822 55.3659 60.4822 55.1583C60.4822 55.0034 60.4449 54.8753 60.3703 54.7731C60.2957 54.6709 60.1838 54.5809 60.0337 54.5022C59.8837 54.4236 59.6956 54.3433 59.4693 54.2622C59.239 54.1763 59.0314 54.083 58.8457 53.9824C58.66 53.8819 58.5133 53.7538 58.4038 53.5989C58.2951 53.444 58.24 53.2413 58.24 52.9907C58.24 52.7604 58.2992 52.5593 58.4176 52.3866C58.536 52.2147 58.7046 52.08 58.9252 51.9844C59.145 51.8887 59.4061 51.8408 59.7077 51.8408C59.9607 51.8408 60.1927 51.8676 60.4035 51.9219C60.6143 51.9762 60.7871 52.0363 60.9217 52.1036L60.8609 52.7028C60.659 52.5828 60.4627 52.4952 60.2721 52.4417C60.0816 52.3874 59.8845 52.3606 59.681 52.3606C59.4442 52.3606 59.2504 52.4077 59.0987 52.5009C58.9471 52.595 58.8709 52.7466 58.8709 52.9566C58.8709 53.0994 58.9082 53.2169 58.9828 53.3086C59.0574 53.4002 59.1669 53.4821 59.3112 53.5535C59.4555 53.6248 59.6356 53.7011 59.8488 53.783C60.1197 53.8827 60.3492 53.9922 60.5365 54.1106C60.7238 54.229 60.8665 54.3676 60.9647 54.5274C61.0628 54.6871 61.1114 54.8818 61.1114 55.1096C61.1114 55.2913 61.0774 55.4543 61.0093 55.6002C60.9411 55.7462 60.8398 55.8703 60.7068 55.9732C60.573 56.0762 60.4084 56.1549 60.2129 56.21C60.0175 56.2652 59.7921 56.2927 59.5375 56.2927H59.5383Z" fill="white"/>
<path d="M62.5401 56.2077V52.4475H61.3845V51.9277H64.2673V52.4475H63.1118V56.2077H62.5401Z" fill="white"/>
<path d="M41.9827 63.0193V58.7393H43.2209C43.598 58.7393 43.8932 58.8252 44.1073 58.9979C44.3213 59.1699 44.4284 59.4334 44.4284 59.7878C44.4284 60.0327 44.3765 60.2476 44.2727 60.4341C44.1689 60.6206 44.0116 60.7422 43.8016 60.7998L43.8445 60.6595C44.1397 60.7122 44.37 60.833 44.5338 61.022C44.6976 61.2109 44.7795 61.4688 44.7795 61.7972C44.7795 62.1719 44.6652 62.4695 44.4357 62.69C44.2062 62.9098 43.8891 63.0201 43.4837 63.0201H41.9827V63.0193ZM42.5544 60.5217H43.1471C43.3693 60.5217 43.5388 60.4787 43.6548 60.3919C43.7707 60.3051 43.8291 60.1357 43.8291 59.8827C43.8291 59.6296 43.7707 59.4699 43.6548 59.3847C43.5388 59.2996 43.3693 59.2566 43.1471 59.2566H42.5544V60.5225V60.5217ZM42.5544 62.4995H43.435C43.6548 62.4995 43.8307 62.4403 43.9605 62.3203C44.0902 62.2002 44.1559 62.0202 44.1559 61.7778C44.1559 61.5069 44.0894 61.3163 43.9572 61.2061C43.8251 61.0958 43.6507 61.0406 43.4342 61.0406H42.5536V62.4987L42.5544 62.4995Z" fill="white"/>
<path d="M47.1644 63.1043C46.7857 63.1043 46.4484 63.0134 46.1524 62.8302C45.8572 62.6477 45.6245 62.3899 45.455 62.0566C45.2855 61.7233 45.2012 61.3308 45.2012 60.8783C45.2012 60.4258 45.2855 60.0333 45.455 59.7C45.6245 59.3668 45.8564 59.1089 46.1524 58.9264C46.4476 58.744 46.7849 58.6523 47.1644 58.6523C47.5439 58.6523 47.8804 58.7432 48.1764 58.9264C48.4716 59.1089 48.7035 59.3668 48.8722 59.7C49.04 60.0333 49.1244 60.4258 49.1244 60.8783C49.1244 61.3308 49.04 61.7233 48.8722 62.0566C48.7043 62.3899 48.4724 62.6477 48.1764 62.8302C47.8812 63.0126 47.5439 63.1043 47.1644 63.1043ZM47.1644 62.5415C47.4636 62.5415 47.7134 62.4677 47.9137 62.3201C48.1132 62.1725 48.2632 61.9722 48.3629 61.7208C48.4627 61.4695 48.513 61.1881 48.513 60.8783C48.513 60.5685 48.4627 60.288 48.3629 60.0366C48.2632 59.7852 48.1124 59.5849 47.9121 59.4373C47.711 59.2897 47.462 59.2159 47.1644 59.2159C46.8668 59.2159 46.6178 59.2897 46.4167 59.4373C46.2156 59.5849 46.0656 59.7852 45.9642 60.0366C45.8629 60.288 45.8126 60.5693 45.8126 60.8783C45.8126 61.1873 45.8629 61.4687 45.9642 61.7208C46.0656 61.973 46.2156 62.1725 46.4167 62.3201C46.6178 62.4677 46.8668 62.5415 47.1644 62.5415Z" fill="white"/>
<path d="M50.9546 59.3043H51.1321L49.9279 63.0183H49.323L50.7478 58.7383H51.3406L52.7653 63.0183H52.1604L50.9562 59.3043H50.9546ZM51.8839 61.8627H50.2028V61.3373H51.8839V61.8627Z" fill="white"/>
<path d="M53.2778 63.0193V58.7393H54.5218C54.8169 58.7393 55.074 58.7863 55.2921 58.8812C55.5103 58.976 55.6781 59.1196 55.7965 59.3126C55.9149 59.5056 55.9741 59.7488 55.9741 60.0448C55.9741 60.3141 55.9141 60.5476 55.7941 60.7447C55.6741 60.9425 55.5005 61.0982 55.2743 61.2125L56.1793 63.0193H55.4949L54.6783 61.3472C54.6637 61.3472 54.6467 61.348 54.6264 61.3504C54.6061 61.3528 54.5858 61.3536 54.5656 61.3536H53.8657V63.0193H53.2786H53.2778ZM53.8649 60.8363H54.495C54.7967 60.8363 55.0189 60.7674 55.1632 60.6287C55.3076 60.49 55.3789 60.2954 55.3789 60.0448C55.3789 59.7943 55.3067 59.5972 55.1632 59.461C55.0197 59.3247 54.7967 59.2558 54.495 59.2558H53.8649V60.8363Z" fill="white"/>
<path d="M56.7534 63.0193V58.7393H58.2301C58.6128 58.7393 58.9534 58.8236 59.251 58.9931C59.5486 59.1626 59.7822 59.4066 59.9509 59.7253C60.1203 60.044 60.2047 60.4292 60.2047 60.8793C60.2047 61.3293 60.1203 61.7145 59.9509 62.0332C59.7814 62.3519 59.5486 62.596 59.251 62.7655C58.9534 62.9349 58.6128 63.0193 58.2301 63.0193H56.7534ZM57.3251 62.4995H58.1814C58.4872 62.4995 58.7434 62.433 58.9502 62.3008C59.157 62.1686 59.3127 61.9805 59.4181 61.738C59.5227 61.4956 59.5754 61.2093 59.5754 60.8793C59.5754 60.5492 59.5227 60.263 59.4181 60.0205C59.3135 59.778 59.157 59.5907 58.9502 59.4577C58.7434 59.3256 58.4872 59.2591 58.1814 59.2591H57.3251V62.4995Z" fill="white"/>
<path d="M15.0872 15.4852L14.7944 15.1576L16.6263 13.5195L16.919 13.8471L16.1738 14.5137L18.8709 17.5295L18.5303 17.8344L15.8332 14.8186L15.088 15.4852H15.0872Z" fill="black"/>
<path d="M19.1587 11.4774C19.7174 11.0914 20.3143 10.9544 20.9484 11.0679C21.5825 11.1806 22.0877 11.5098 22.4648 12.0548C22.8378 12.5948 22.9668 13.1828 22.8508 13.8185C22.7348 14.4543 22.4072 14.9587 21.8664 15.3325C21.319 15.7104 20.7278 15.8426 20.0929 15.7274C19.4579 15.6131 18.956 15.2895 18.5886 14.7576C18.3437 14.4032 18.2026 14.0156 18.1645 13.5939C18.1272 13.173 18.197 12.7741 18.3746 12.3978C18.5521 12.0215 18.8141 11.715 19.1587 11.4766V11.4774ZM19.4231 11.8245C19.1498 12.0134 18.9406 12.2632 18.7938 12.5746C18.6478 12.886 18.5886 13.2095 18.6178 13.5452C18.647 13.881 18.7638 14.1972 18.9681 14.4932C19.2714 14.9319 19.6785 15.1971 20.1918 15.2895C20.7043 15.382 21.1755 15.2798 21.6044 14.983C21.8907 14.7851 22.108 14.5329 22.2556 14.2256C22.4032 13.9183 22.4624 13.5971 22.4324 13.2614C22.4024 12.9257 22.2856 12.6111 22.0821 12.3167C21.8793 12.024 21.6288 11.8058 21.3287 11.6639C21.0287 11.5212 20.7051 11.4644 20.3597 11.4936C20.0134 11.5228 19.7012 11.6331 19.4231 11.8253V11.8245Z" fill="black"/>
<path d="M22.4795 9.52805L22.8817 9.33018L24.0786 11.7589C24.2205 12.0467 24.3146 12.2235 24.3608 12.2892C24.4589 12.4376 24.5708 12.5479 24.6965 12.6184C24.8222 12.689 24.9779 12.7231 25.1652 12.7206C25.3518 12.7182 25.522 12.6793 25.6753 12.6038C25.8083 12.5382 25.9218 12.4473 26.0167 12.3306C26.1108 12.2138 26.1748 12.0849 26.2073 11.9446C26.2397 11.8043 26.2405 11.6526 26.2081 11.4921C26.1854 11.3769 26.0954 11.1604 25.9389 10.8434L24.7419 8.41466L25.1442 8.2168L26.3411 10.6455C26.5178 11.0047 26.6265 11.3121 26.6654 11.5683C26.7044 11.8246 26.6589 12.0865 26.5292 12.3541C26.3995 12.6217 26.1854 12.8293 25.8861 12.9769C25.5618 13.1366 25.2455 13.1966 24.9374 13.1553C24.6292 13.1147 24.373 12.9858 24.1694 12.7693C24.0429 12.6371 23.8791 12.3662 23.678 11.9584L22.4811 9.52967L22.4795 9.52805Z" fill="black"/>
<path d="M26.6055 7.61207L27.4488 7.31689C27.9183 7.15228 28.2435 7.05983 28.4244 7.03956C28.696 7.00956 28.9433 7.06064 29.1671 7.19526C29.391 7.32906 29.5507 7.53422 29.648 7.81155C29.7291 8.04185 29.7453 8.26323 29.6983 8.4765C29.6513 8.68896 29.5426 8.87547 29.3723 9.03522C29.202 9.19497 28.9401 9.3385 28.5857 9.4642L30.7963 10.8963L30.2732 11.0795L28.0627 9.64827L27.8235 9.7318L28.5119 11.6966L28.0886 11.845L26.6055 7.61288V7.61207ZM27.1739 7.87805L27.6783 9.31661L28.4098 9.06685C28.692 8.96792 28.8914 8.86817 29.0082 8.76681C29.125 8.66545 29.2004 8.543 29.2353 8.39784C29.2701 8.2535 29.2612 8.10835 29.2101 7.96238C29.1607 7.82047 29.0763 7.70532 28.9596 7.61612C28.842 7.52692 28.7122 7.47908 28.5695 7.4734C28.4268 7.46691 28.2111 7.51476 27.9208 7.61693L27.1739 7.87886V7.87805Z" fill="black"/>
<path d="M34.6701 5.38936C35.3423 5.29286 35.9375 5.43721 36.4549 5.82077C36.9723 6.20433 37.278 6.72413 37.3712 7.38016C37.4645 8.0297 37.3169 8.61356 36.9301 9.13092C36.5425 9.64829 36.0243 9.954 35.3739 10.0464C34.7155 10.1405 34.1276 9.99536 33.6102 9.60936C33.0928 9.22337 32.7879 8.71087 32.6963 8.07106C32.6355 7.64452 32.6817 7.23419 32.8358 6.8409C32.9899 6.4468 33.2307 6.12162 33.5575 5.86456C33.8843 5.6075 34.2549 5.44937 34.6701 5.38936ZM34.7512 5.81834C34.4227 5.86537 34.1235 5.99593 33.8535 6.2092C33.5834 6.42247 33.3872 6.68602 33.2631 6.99984C33.1399 7.31366 33.1034 7.64857 33.1545 8.00456C33.2299 8.53247 33.4764 8.95171 33.894 9.26229C34.3117 9.57368 34.7787 9.69208 35.2945 9.61828C35.6391 9.56882 35.9465 9.43988 36.2157 9.23067C36.4849 9.02145 36.6811 8.76034 36.8036 8.44651C36.926 8.13269 36.9625 7.7994 36.9114 7.44503C36.8612 7.0931 36.733 6.78576 36.5279 6.52464C36.3227 6.26353 36.0592 6.0681 35.7364 5.93997C35.4137 5.81185 35.0853 5.7713 34.7504 5.81915L34.7512 5.81834Z" fill="black"/>
<path d="M38.4772 5.13348L39.3708 5.13186C39.8833 5.13105 40.2288 5.15294 40.4072 5.19754C40.6634 5.25998 40.8727 5.38973 41.0356 5.58516C41.1986 5.7814 41.2805 6.02711 41.2805 6.3239C41.2805 6.62232 41.2019 6.86965 41.0438 7.06346C40.8856 7.25808 40.6675 7.38863 40.3885 7.45594C40.185 7.50459 39.8055 7.52973 39.2484 7.53054H38.9281L38.9313 9.61622H38.4829L38.4756 5.13186L38.4772 5.13348ZM38.9265 5.57218L38.9289 7.09346L39.6879 7.10157C39.9944 7.10157 40.2191 7.07319 40.3618 7.01723C40.5037 6.96128 40.6156 6.87046 40.6967 6.74558C40.7778 6.6207 40.8183 6.48122 40.8183 6.32715C40.8183 6.17713 40.777 6.04008 40.6959 5.9152C40.614 5.79032 40.5069 5.70193 40.3739 5.64922C40.2409 5.59651 40.0228 5.57056 39.7195 5.57137L38.9265 5.573V5.57218Z" fill="black"/>
<path d="M42.5853 5.21875L45.1405 5.49527L45.0934 5.93154L42.9834 5.70368L42.8326 7.10088L44.924 7.32713L44.8769 7.7634L42.7856 7.53716L42.5958 9.28954L44.6872 9.51579L44.6401 9.95206L42.1028 9.67797L42.5845 5.21875H42.5853Z" fill="black"/>
<path d="M46.3415 5.69905L47.2132 5.89286C47.699 6.00071 48.0242 6.09397 48.188 6.17182C48.4345 6.2894 48.6177 6.46375 48.737 6.69567C48.8562 6.92759 48.8837 7.18627 48.8205 7.47252C48.7678 7.71093 48.6648 7.90799 48.5123 8.06368C48.3599 8.21938 48.1693 8.32074 47.9406 8.36615C47.712 8.41237 47.4135 8.39535 47.0462 8.31588L48.1685 10.6983L47.6276 10.5783L46.5053 8.19586L46.258 8.14072L45.8063 10.1737L45.3684 10.0764L46.3415 5.69824V5.69905ZM46.6837 6.22453L46.3529 7.71255L47.1054 7.88609C47.3973 7.95096 47.6195 7.97124 47.772 7.94691C47.9244 7.92258 48.0534 7.85771 48.1588 7.7531C48.2642 7.64849 48.3339 7.52118 48.3672 7.37035C48.3996 7.22357 48.3899 7.08166 48.3372 6.94381C48.2845 6.80595 48.1993 6.69729 48.0817 6.61701C47.9641 6.53673 47.7549 6.46293 47.4549 6.39644L46.6829 6.22453H46.6837Z" fill="black"/>
<path d="M52.194 7.32246L52.6262 12.252L52.1712 12.0866L52.0123 10.4583L50.1967 9.79818L49.0354 10.9464L48.5659 10.7753L52.0902 7.28516L52.1931 7.32246H52.194ZM51.8153 8.19825L50.5381 9.46084L51.9791 9.98469L51.8153 8.19744V8.19825Z" fill="black"/>
<path d="M54.5537 8.74095L54.7483 8.34766L56.9516 9.4359L56.757 9.8292L55.8601 9.38644L54.0688 13.0137L53.6584 12.8109L55.4498 9.18371L54.5529 8.74095H54.5537Z" fill="black"/>
<path d="M59.792 11.0254C60.3589 11.4 60.7084 11.902 60.8406 12.5321C60.9727 13.1621 60.856 13.7541 60.491 14.3071C60.1294 14.8553 59.6323 15.1943 58.999 15.324C58.3656 15.4538 57.7753 15.3378 57.2271 14.9762C56.6724 14.6096 56.3294 14.1109 56.1981 13.4784C56.0667 12.8467 56.1794 12.2604 56.5354 11.7211C56.773 11.3619 57.0795 11.0854 57.4566 10.8932C57.8329 10.701 58.2294 10.6175 58.6446 10.6418C59.0598 10.6661 59.4425 10.7943 59.792 11.0246V11.0254ZM59.5682 11.4C59.2909 11.2176 58.9811 11.1162 58.6381 11.0967C58.2951 11.0773 57.9723 11.1438 57.6723 11.2962C57.3715 11.4487 57.1217 11.6749 56.9238 11.9758C56.6303 12.4201 56.5362 12.8978 56.6424 13.4078C56.7487 13.9179 57.0187 14.3169 57.4542 14.6039C57.7445 14.7961 58.0599 14.9032 58.4005 14.9251C58.7403 14.947 59.0606 14.8821 59.3606 14.7288C59.6607 14.5756 59.9088 14.3501 60.1067 14.0509C60.3029 13.7541 60.4108 13.4395 60.431 13.1078C60.4513 12.7761 60.3832 12.455 60.2267 12.1452C60.071 11.8347 59.8512 11.5865 59.5698 11.4008L59.5682 11.4Z" fill="black"/>
<path d="M62.8332 13.3797L63.5013 13.9725C63.8736 14.3033 64.1128 14.5426 64.2174 14.6902C64.3763 14.9123 64.4509 15.154 64.4428 15.4143C64.4347 15.6746 64.3325 15.9146 64.1379 16.1336C63.9757 16.316 63.79 16.4385 63.5816 16.5009C63.3724 16.5634 63.1575 16.5585 62.9345 16.488C62.7123 16.4174 62.4593 16.2577 62.1771 16.0095L62.0012 18.6377L61.5868 18.2695L61.7627 15.6414L61.573 15.4735L60.1904 17.0305L59.8555 16.7329L62.8332 13.3789V13.3797ZM62.8769 14.0057L61.8649 15.1459L62.439 15.6633C62.6629 15.8619 62.8469 15.9876 62.9921 16.0403C63.1372 16.093 63.2816 16.0995 63.4243 16.059C63.567 16.0184 63.6903 15.9414 63.7925 15.8254C63.8922 15.7127 63.953 15.5838 63.9733 15.4378C63.9936 15.2919 63.9725 15.1548 63.9084 15.0275C63.8444 14.9002 63.6976 14.7339 63.4673 14.5304L62.8761 14.0049L62.8769 14.0057Z" fill="black"/>
<path d="M26.0768 70.8206L26.0403 75.3196L25.6429 75.1307L25.6405 73.6443L24.0552 72.8893L22.9045 73.8275L22.4941 73.6321L25.9867 70.7793L26.0768 70.8223V70.8206ZM25.6575 71.5805L24.3925 72.6128L25.651 73.212L25.6583 71.5805H25.6575Z" fill="black"/>
<path d="M28.3595 71.8252L28.7463 71.9533L27.9735 74.2904C27.8819 74.5677 27.83 74.7421 27.8178 74.8142C27.787 74.9732 27.7894 75.1159 27.8251 75.2416C27.8616 75.3673 27.9411 75.4889 28.0635 75.6065C28.186 75.7241 28.3214 75.8068 28.469 75.8554C28.5971 75.8976 28.7285 75.9114 28.8647 75.896C29.001 75.8806 29.1234 75.8376 29.2345 75.7671C29.3456 75.6965 29.4421 75.5992 29.524 75.4743C29.5824 75.3851 29.6627 75.1872 29.7632 74.8823L30.536 72.5453L30.9228 72.6734L30.15 75.0105C30.0357 75.3559 29.91 75.6243 29.7713 75.8149C29.6335 76.0055 29.4372 76.1466 29.1818 76.2374C28.9272 76.3282 28.6555 76.3266 28.3676 76.2309C28.0554 76.1279 27.8122 75.9649 27.6386 75.7419C27.4651 75.5189 27.3816 75.2724 27.3872 75.0024C27.3897 74.8361 27.4562 74.5564 27.5859 74.1631L28.3587 71.826L28.3595 71.8252Z" fill="black"/>
<path d="M31.407 73.2076L31.4946 72.8184L33.6743 73.3082L33.5867 73.6974L32.6996 73.4979L31.8927 77.0862L31.4873 76.9946L32.2941 73.4063L31.407 73.2068V73.2076Z" fill="black"/>
<path d="M34.2314 73.4219L34.6361 73.4705L34.4309 75.1686L36.4922 75.4175L36.6974 73.7195L37.1021 73.7681L36.6131 77.8162L36.2084 77.7676L36.4444 75.8141L34.3831 75.5651L34.1471 77.5186L33.7424 77.47L34.2314 73.4219Z" fill="black"/>
<path d="M39.9572 73.7105C40.5743 73.6983 41.0958 73.8938 41.5199 74.2976C41.944 74.7014 42.1621 75.2042 42.1743 75.8067C42.1864 76.4035 41.9886 76.9136 41.5823 77.3377C41.1752 77.7618 40.6733 77.98 40.0764 77.9913C39.4715 78.0035 38.9574 77.8064 38.5333 77.401C38.1092 76.9955 37.891 76.4992 37.8797 75.9113C37.8716 75.5196 37.9591 75.1547 38.1424 74.8166C38.3249 74.4784 38.5787 74.2116 38.9014 74.0154C39.225 73.8192 39.5769 73.7178 39.958 73.7105H39.9572ZM39.9832 74.1062C39.6815 74.1127 39.3969 74.1962 39.1301 74.3592C38.8633 74.5222 38.6565 74.7379 38.5097 75.0072C38.363 75.2764 38.2932 75.5748 38.2997 75.9024C38.3095 76.3865 38.4854 76.7928 38.8276 77.1196C39.1698 77.4464 39.5785 77.6053 40.0521 77.5956C40.3684 77.5891 40.6595 77.5064 40.9263 77.3483C41.1923 77.1893 41.3982 76.9752 41.5442 76.706C41.6893 76.4368 41.7591 76.1392 41.7526 75.814C41.7461 75.4905 41.665 75.1993 41.5085 74.9407C41.3528 74.682 41.1363 74.4768 40.859 74.3252C40.5816 74.1735 40.2897 74.1005 39.9824 74.107L39.9832 74.1062Z" fill="black"/>
<path d="M42.8984 73.6389L43.7012 73.514C44.1489 73.4443 44.4546 73.4159 44.6192 73.4272C44.8665 73.4451 45.0798 73.5318 45.2574 73.6892C45.435 73.8457 45.5445 74.0557 45.585 74.3192C45.6191 74.539 45.5972 74.7393 45.5201 74.9217C45.4431 75.1042 45.315 75.2526 45.1366 75.3678C44.9582 75.4829 44.7003 75.5672 44.3629 75.6216L46.1024 77.2669L45.6045 77.3448L43.865 75.6994L43.6372 75.7351L43.9275 77.6059L43.5253 77.6683L42.8992 73.6397L42.8984 73.6389ZM43.3623 73.9705L43.5747 75.3402L44.2697 75.238C44.5389 75.1967 44.7335 75.1399 44.8544 75.0685C44.9752 74.9972 45.0636 74.8999 45.1179 74.7766C45.1722 74.6533 45.1893 74.522 45.1674 74.3833C45.1463 74.2479 45.0912 74.1311 45.0003 74.0322C44.9103 73.9332 44.8017 73.8692 44.6751 73.84C44.5486 73.8108 44.3475 73.8181 44.0718 73.8611L43.3615 73.9714L43.3623 73.9705Z" fill="black"/>
<path d="M46.2329 73.0435L46.6294 72.9502L47.5669 76.918L47.1703 77.0113L46.2337 73.0435H46.2329Z" fill="black"/>
<path d="M48.1506 76.0115L48.4206 75.7106C48.7864 76.0674 49.1221 76.1988 49.427 76.1047C49.5575 76.0642 49.6711 75.9961 49.7668 75.8996C49.8624 75.8031 49.9249 75.6944 49.9533 75.5736C49.9816 75.4528 49.9784 75.3352 49.9427 75.22C49.9022 75.0895 49.8187 74.9751 49.6913 74.877C49.5162 74.7416 49.2291 74.6021 48.831 74.4586C48.4304 74.3134 48.1733 74.1983 48.0598 74.1139C47.8652 73.9728 47.7354 73.7953 47.6689 73.582C47.6162 73.4125 47.6097 73.2455 47.6478 73.0808C47.6859 72.9162 47.7662 72.7711 47.8887 72.6454C48.0111 72.5197 48.1587 72.4297 48.3322 72.3762C48.5155 72.3194 48.7012 72.3121 48.8893 72.3535C49.0775 72.3948 49.298 72.51 49.5519 72.6981L49.3086 73.0371C49.1018 72.8887 48.938 72.7986 48.8156 72.7686C48.6931 72.7386 48.5715 72.7427 48.449 72.7808C48.2917 72.8295 48.1782 72.917 48.1076 73.0427C48.0371 73.1692 48.0241 73.3014 48.0671 73.4409C48.093 73.5252 48.136 73.6023 48.196 73.6704C48.256 73.7393 48.3468 73.8058 48.4693 73.8699C48.5358 73.9031 48.7434 73.9818 49.0929 74.1034C49.5073 74.2477 49.8065 74.3978 49.9922 74.5535C50.1779 74.7092 50.3003 74.8843 50.3612 75.0806C50.4487 75.3628 50.4171 75.6417 50.2671 75.9158C50.1171 76.1907 49.8884 76.3756 49.5811 76.4705C49.3443 76.5434 49.1107 76.5467 48.8788 76.4802C48.6477 76.4137 48.4044 76.2572 48.1506 76.0107V76.0115Z" fill="black"/>
<path d="M50.2607 71.8432L52.4186 70.9463L52.5718 71.3144L50.7903 72.0548L51.2809 73.2347L53.047 72.5008L53.2003 72.869L51.4341 73.6028L52.0488 75.082L53.815 74.3481L53.9682 74.7162L51.8258 75.6066L50.2607 71.8415V71.8432Z" fill="black"/>
<path d="M55.0143 74.231L53.0308 70.6687L53.7695 70.2575C54.3023 69.9607 54.7126 69.788 55.0005 69.7402C55.4132 69.6688 55.8 69.728 56.1609 69.9186C56.5217 70.1091 56.8169 70.4108 57.0472 70.8244C57.2459 71.1812 57.344 71.538 57.3408 71.8948C57.3375 72.2516 57.2491 72.5638 57.0748 72.8298C56.9004 73.0957 56.5915 73.3528 56.1471 73.6001L55.0143 74.231ZM55.1683 73.7039L55.5803 73.4744C56.0725 73.2003 56.3969 72.9798 56.5534 72.8119C56.7731 72.5751 56.8964 72.3019 56.9232 71.9897C56.9499 71.6774 56.8729 71.3579 56.6904 71.0303C56.499 70.6865 56.2525 70.4392 55.9509 70.2884C55.6492 70.1375 55.324 70.0994 54.977 70.1748C54.7167 70.2316 54.3307 70.4019 53.819 70.6865L53.5668 70.8268L55.1691 73.7039H55.1683Z" fill="black"/>
</g>
<defs>
<clipPath id="clip0_1261_8315">
<rect width="80" height="80" fill="white" transform="translate(0 0.926758)"/>
</clipPath>
</defs>
</svg>
