<svg width="80" height="81" viewBox="0 0 80 81" fill="none" xmlns="http://www.w3.org/2000/svg">
<g clip-path="url(#clip0_1261_9278)">
<path d="M40 80.9258C62.0914 80.9258 80 63.0172 80 40.9258C80 18.8344 62.0914 0.925781 40 0.925781C17.9086 0.925781 0 18.8344 0 40.9258C0 63.0172 17.9086 80.9258 40 80.9258Z" fill="white"/>
<path d="M40.0002 79.2816C61.1828 79.2816 78.3548 62.1096 78.3548 40.9269C78.3548 19.7442 61.1828 2.57227 40.0002 2.57227C18.8175 2.57227 1.64551 19.7442 1.64551 40.9269C1.64551 62.1096 18.8175 79.2816 40.0002 79.2816Z" fill="#EAEAEA"/>
<path d="M39.8217 70.8132C56.4282 70.8132 69.8904 57.351 69.8904 40.7445C69.8904 24.138 56.4282 10.6758 39.8217 10.6758C23.2152 10.6758 9.75293 24.138 9.75293 40.7445C9.75293 57.351 23.2152 70.8132 39.8217 70.8132Z" fill="white"/>
<mask id="mask0_1261_9278" style="mask-type:luminance" maskUnits="userSpaceOnUse" x="12" y="13" width="56" height="55">
<path d="M39.8215 67.9702C54.8587 67.9702 67.0488 55.7801 67.0488 40.7429C67.0488 25.7057 54.8587 13.5156 39.8215 13.5156C24.7843 13.5156 12.5942 25.7057 12.5942 40.7429C12.5942 55.7801 24.7843 67.9702 39.8215 67.9702Z" fill="white"/>
</mask>
<g mask="url(#mask0_1261_9278)">
<path d="M58.2269 14.6153C58.2269 14.6153 58.1652 14.4855 58.1644 14.4863C58.8975 14.1401 59.547 14.5285 60.2201 14.7174C59.5097 15.5859 58.8456 15.5429 58.2269 14.6153Z" fill="#686868"/>
<path d="M27.0869 19.2046C29.145 20.4323 30.5479 18.5421 31.7294 17.7133C33.1493 16.7175 34.4306 16.2172 36.0484 16.2082C36.2657 16.1563 36.4822 16.158 36.7003 16.2082C37.4439 16.4912 38.1129 16.8553 38.3035 17.723C38.6927 18.9532 40.0267 19.0018 41.4028 20.125C37.7805 19.9482 34.7995 20.4266 31.9597 21.5797C30.3419 20.4436 28.3836 21.6065 26.7155 20.8045C26.5379 20.6594 26.4244 20.4769 26.3806 20.2515C26.3352 19.713 26.7188 19.4633 27.0886 19.2054L27.0869 19.2046Z" fill="#DCE2EA"/>
<path d="M50.0499 15.7999C50.607 16.7876 51.6214 15.9491 52.3213 16.3684C53.0624 17.6861 50.9662 18.2846 51.5193 19.5553C51.4868 19.904 51.4049 20.2389 51.2622 20.56C51.0919 20.8803 50.843 21.1147 50.5064 21.2533C49.9201 21.2955 49.7393 20.8884 49.5958 20.4384C49.0541 19.0006 47.4777 18.8506 46.4981 17.9586C46.2718 17.9464 46.0813 17.8588 45.9223 17.6983C45.7634 17.3893 45.752 17.0714 45.8656 16.7463C46.104 16.2078 46.743 16.1397 47.0803 15.7156C47.4841 15.8867 47.888 16.0578 48.2918 16.2289C48.9065 16.1243 48.6632 15.1642 49.3695 15.1504C49.732 15.2258 49.9518 15.4496 50.0499 15.7999Z" fill="#515761"/>
<path d="M38.3035 17.7228C37.6459 17.2193 36.9882 16.7157 36.3306 16.2121C36.4311 16.1261 36.5317 16.041 36.6306 15.9534C37.7708 15.4693 38.9368 15.6258 40.1046 15.8083C41.1279 16.2129 42.2657 15.9907 43.2939 16.3702C44.0424 16.9711 44.2435 17.7755 44.1381 18.6911C42.0654 19.1363 40.2578 17.988 38.3035 17.7228Z" fill="#EAEEF4"/>
<path d="M19.8301 22.092C20.6896 20.4474 22.1461 19.4946 23.75 18.7129C24.1514 19.15 24.4239 19.6511 24.5204 20.2423C24.6007 21.1513 24.1547 21.7684 23.4265 22.2185C22.4177 22.1049 22.9708 23.6449 21.9993 23.5914C21.5549 23.7552 21.104 23.8533 20.6305 23.7292C19.9533 23.3838 19.2503 23.0497 19.8301 22.092Z" fill="#E0E5EC"/>
<path d="M22.2702 59.0354C23.4825 58.9438 23.4638 57.6374 24.2034 57.0795C24.5643 56.82 24.9348 56.7746 25.3208 57.026C26.0069 58.0867 26.5575 59.1619 25.6266 60.371C25.0208 60.6045 24.4142 60.8389 23.8085 61.0724C22.4794 61.0092 20.8478 61.1746 22.2694 59.0354H22.2702Z" fill="#333842"/>
<path d="M36.3306 16.2138L36.1903 16.1562L36.0484 16.2097C34.9083 13.1728 34.9074 13.1939 38.4252 13.2604C39.0358 13.2718 39.6521 13.0204 40.2652 12.8906C40.6479 13.2758 41.0169 13.6675 40.8717 14.2822C40.6868 14.5465 40.4192 14.6803 40.1176 14.759C39.7527 14.8441 39.3796 14.9033 39.022 15.0233C38.8558 15.089 38.6831 15.1393 38.5103 15.1847C38.3425 15.2358 38.1714 15.278 38.0019 15.3234C37.8405 15.3907 37.6775 15.4539 37.5178 15.5269C37.3637 15.6177 37.2015 15.6899 37.0353 15.7532C36.7758 15.8229 36.5293 15.9316 36.2746 16.0151L36.3306 16.2146V16.2138Z" fill="#6A727D"/>
<path d="M26.6791 20.525C28.2271 20.5112 29.7784 20.5558 31.3215 20.465C32.4528 20.3985 32.3092 20.8891 31.9589 21.5808C31.0961 21.5224 30.7393 22.3269 30.1084 22.6642C29.3924 22.2498 28.7039 22.2093 28.0649 22.8232C27.7316 22.9699 27.3862 23.004 27.0286 22.9448C26.5234 22.811 26.1422 22.5272 25.92 22.0455C25.7652 21.3351 25.9817 20.8097 26.6799 20.5258L26.6791 20.525Z" fill="#B2B7C5"/>
<path d="M46.0648 17.7567C47.6153 18.2124 49.4398 18.2319 50.0164 20.2364C49.4714 20.9298 48.9808 21.7002 47.9421 21.688C46.8514 21.4155 47.0363 20.5243 47.0274 19.7523C47.0184 19.0339 47.1725 18.2562 46.1062 18.1646L45.9667 17.9724L46.064 17.7559L46.0648 17.7567Z" fill="#9AA6B3"/>
<path d="M19.8301 22.0907C19.7458 22.8497 20.5032 23.0492 20.8024 23.5535C21.0554 24.1017 21.4073 24.542 22.0382 24.6767C23.0494 25.1186 24.1263 24.2485 25.1286 24.8315C25.2949 24.9913 25.3614 25.1875 25.3427 25.4154C24.7037 26.2069 23.8952 26.764 22.9554 27.1402C22.7389 27.2019 22.5191 27.2156 22.2953 27.1962C21.8558 27.1054 21.4576 26.9115 21.0708 26.6918C20.4553 26.215 19.6347 26.0585 19.1035 25.4446C18.9186 25.13 18.8303 24.7886 18.8108 24.4261C18.8546 23.8147 18.9235 23.2105 19.32 22.7037C19.4903 22.4994 19.6606 22.2942 19.8309 22.0898L19.8301 22.0907Z" fill="#D4DCE5"/>
<path d="M31.4757 63.4344C30.6583 66.1485 29.8879 66.4315 27.6384 64.8429C27.9441 62.8481 29.4241 62.3048 31.4757 63.4344Z" fill="#7091A7"/>
<path d="M19.3492 55.1821C18.3923 55.9582 17.4209 55.8503 17.0081 54.7458C16.5783 53.5952 16.9903 52.5296 18.3485 52.1152C19.0694 52.4947 19.6776 52.9943 20.0669 53.7281C20.2826 54.4377 19.8058 54.805 19.3492 55.1821Z" fill="#5B6573"/>
<path d="M25.5721 56.0632C26.6036 55.1988 27.6002 55.6918 28.5969 56.1427C28.935 56.8457 29.5602 57.372 29.8189 58.1254C29.8773 58.4822 29.8181 58.8025 29.5335 59.0539C28.8223 58.903 28.1882 59.1674 27.5516 59.4228C26.7074 58.8438 26.7269 57.8051 26.2639 57.025C26.0311 56.7063 25.7132 56.4468 25.5721 56.0632Z" fill="#7A8B9F"/>
<path d="M31.4757 63.434C29.8952 63.0845 28.5053 63.2516 27.6384 64.8426C26.6142 63.2378 28.4209 62.2923 28.5458 60.9551C28.9999 61.1554 29.4711 61.2575 29.9706 61.2C30.1741 61.2113 30.355 61.2819 30.5091 61.4157C30.7977 62.1041 31.6159 62.5396 31.4773 63.4332L31.4757 63.434Z" fill="#C7D8E5"/>
<path d="M19.8365 53.6837C19.161 53.331 18.3469 53.1088 18.3485 52.1146C19.0135 51.6856 19.6784 51.2559 20.3426 50.8269C21.0132 50.7726 21.6506 50.7944 21.9717 51.5397C22.0479 52.34 22.5255 53.2061 21.6108 53.854C21.0083 53.9197 20.4001 54.0292 19.8365 53.6837Z" fill="#616E81"/>
<path d="M21.8079 49.3048H16.6643C18.4029 47.1639 20.538 47.2799 21.7682 49.3364L21.8079 49.3048Z" fill="#696C71"/>
<path d="M63.5416 38.1852C63.2383 38.2014 62.935 38.2176 62.6317 38.2338C62.4525 38.1178 62.3147 37.9638 62.2141 37.7724C61.9854 37.2972 61.9019 36.7531 61.5102 36.3703C60.7091 36.1587 59.534 36.552 59.4724 35.1329C59.7133 34.2782 60.508 34.0373 61.1453 33.6189C62.2449 33.5743 62.7939 34.416 63.4727 35.0566C63.72 35.3478 63.9057 35.6713 64.0184 36.037C64.1709 36.822 64.2528 37.5932 63.5408 38.1852H63.5416Z" fill="#8691A0"/>
<path d="M22.1768 30.8102C22.0138 31.15 21.8508 31.4898 21.6878 31.8296C21.3099 32.1345 20.8939 32.2464 20.422 32.0801C19.8406 31.7525 19.294 31.3657 18.7134 31.0316C18.3477 30.717 18.1101 30.3383 18.1239 29.8363C18.3315 29.0011 19.0297 28.8454 19.723 28.6792C20.598 28.6467 21.2256 29.1762 21.8873 29.632C22.1647 29.9791 22.5255 30.3083 22.1768 30.8102Z" fill="#484649"/>
<path d="M38.186 65.8037C38.186 65.983 38.186 66.163 38.1852 66.3422C37.7222 66.9334 36.8334 66.7395 36.3671 67.3258C34.7931 67.9802 34.6837 66.8587 34.519 65.8037C34.9569 65.335 34.6569 64.4536 35.4297 64.1714C35.746 64.1325 36.0614 64.1252 36.3704 64.2233C36.9502 64.7779 37.5859 65.271 38.186 65.8037Z" fill="#89AFC4"/>
<path d="M59.7822 21.4874C60.0879 21.8483 60.3936 22.21 60.6994 22.5708C60.3936 23.149 59.8463 23.4442 59.3143 23.7572C59.1237 23.8269 58.9243 23.8561 58.7215 23.8504C58.2658 23.6964 57.7955 23.6477 57.313 23.6777C57.1435 23.5812 56.9967 23.4572 56.8645 23.3177C56.6448 23.132 56.3958 22.9966 56.1242 22.8968C55.936 22.8206 55.8014 22.6876 55.709 22.51C56.0755 21.8832 56.5061 21.3204 57.2124 21.0414C58.0979 21.0252 58.9007 21.4826 59.7822 21.4883V21.4874Z" fill="#585D66"/>
<path d="M56.5677 28.5559C55.9871 28.4675 55.8785 27.9526 55.653 27.5439C55.5346 26.9203 55.4373 26.3 55.9279 25.768C56.2328 25.6034 56.558 25.5588 56.8994 25.5888C57.7898 25.8126 58.7442 25.9407 59.0816 27.0095C59.114 27.2285 59.1067 27.4482 59.0654 27.6655C58.8918 28.2007 58.5099 28.5211 57.9901 28.6914C57.8133 28.7278 57.6349 28.7132 57.4654 28.6565C57.3511 28.5365 57.2059 28.4611 57.0405 28.427C56.8848 28.4724 56.7267 28.5146 56.5686 28.5567L56.5677 28.5559Z" fill="#8D98A7"/>
<path d="M63.5416 38.1841C63.5635 37.3643 63.5862 36.5444 63.6081 35.7238C63.9649 35.2956 64.432 35.277 64.9291 35.3637C66.0879 35.6954 66.6572 36.5347 66.8939 37.657C67.1737 39.4937 66.1114 38.313 65.5486 38.2547C64.908 37.6213 64.2123 38.4193 63.557 38.1776L63.5416 38.1841Z" fill="#636874"/>
<path d="M22.7453 26.9446C23.4419 26.257 24.1174 25.5369 25.1456 25.3463C25.4051 25.2563 25.6354 25.3058 25.8349 25.4947C25.2389 26.5594 24.8342 27.7588 23.7273 28.4602C23.4533 28.6565 23.1484 28.6573 22.8353 28.6021C22.5126 28.0661 22.5507 27.5098 22.7461 26.9446H22.7453Z" fill="#434549"/>
<path d="M14.9289 34.2597C13.959 33.2355 13.4684 32.1376 14.401 30.8223C14.585 30.9001 14.7294 31.0242 14.8372 31.1912C15.0311 31.5213 15.2395 31.8408 15.5882 32.0378C16.3699 32.3452 17.3276 32.0816 17.9828 32.7847C18.0914 33.5121 17.643 33.864 17.077 34.1389C16.3747 34.4162 15.6522 34.3278 14.9297 34.2597H14.9289Z" fill="#C9D2DC"/>
<path d="M61.6441 24.0451L61.8598 24.4919C61.9645 25.2615 61.2922 25.8599 61.3928 26.6295C61.3984 26.8509 61.366 27.0649 61.3019 27.2766C61.1187 27.588 60.8381 27.7575 60.4951 27.8418C60.1415 27.9051 59.7969 27.8759 59.4595 27.7477C59.2382 27.6269 59.1035 27.4436 59.0541 27.1971C59.2041 26.233 58.9292 25.1942 59.5633 24.3143C60.1837 23.6567 60.8681 23.4912 61.645 24.0451H61.6441Z" fill="#818C9A"/>
<path d="M53.4238 23.1003C51.5701 24.5088 50.3229 22.9502 48.9152 22.1799C48.9768 22.089 49.0384 21.9974 49.0992 21.9058C49.7763 21.4655 50.6027 21.673 51.3179 21.39C51.7817 21.3511 52.1718 21.5319 52.5343 21.7963C52.9551 22.145 53.3192 22.535 53.4238 23.1011V23.1003Z" fill="#66707C"/>
<path d="M47.0801 15.7138C46.9001 16.198 46.566 16.5345 46.0948 16.738C45.6991 17.0632 45.2993 16.8743 44.8995 16.7502C44.7009 16.6796 44.5095 16.5912 44.3205 16.4988C43.8226 16.1704 43.0328 16.1452 43.0344 15.2865C43.1682 14.9727 43.3864 14.7561 43.7318 14.6897C45.3788 13.2981 45.7948 15.9263 47.0801 15.7138Z" fill="#3C3F45"/>
<path d="M43.7318 14.6897C43.5396 14.9103 43.3474 15.1317 43.1552 15.3523C41.9137 15.4585 40.3592 16.6132 39.8215 14.3589C40.0956 14.3378 40.3705 14.3159 40.6446 14.2948C40.9309 13.9032 41.226 13.5293 41.7977 13.7945C42.727 13.4799 43.6839 13.1044 43.7318 14.6906V14.6897Z" fill="#1D1E22"/>
<path d="M59.6412 35.1697C60.1091 37.0405 61.5087 34.5477 62.1299 35.7C61.6271 36.1833 61.7885 36.9124 61.4795 37.4695C61.1625 37.9211 60.873 38.432 60.1739 38.1376C59.4376 37.3056 59.2844 36.2612 59.1084 35.224C59.273 35.0789 59.4498 35.061 59.6404 35.1689L59.6412 35.1697Z" fill="#97A2B0"/>
<path d="M53.8171 17.7156C54.3953 17.9848 54.3385 18.5298 54.3888 19.0285C54.1228 19.4793 53.6955 19.6869 53.2041 19.7096C52.3007 19.7518 51.3025 19.7137 51.2546 18.533C51.1995 17.1504 52.3299 17.5015 53.1505 17.4796C53.3995 17.4731 53.599 17.6232 53.8163 17.7148L53.8171 17.7156Z" fill="#E2E9F2"/>
<path d="M53.8171 17.7165C53.5779 17.732 53.3354 17.7295 53.0995 17.766C52.5245 17.8552 51.5863 17.4806 51.5636 18.4074C51.5352 19.5695 52.5643 19.0975 53.1984 19.1381C53.5909 19.1632 53.9915 19.07 54.3888 19.0294L54.4302 19.1478L54.3442 19.2394C54.2964 20.2231 53.496 20.1266 52.8635 20.2742C52.1523 20.318 51.5003 20.1623 50.94 19.6992C50.374 18.1642 51.6195 17.3784 52.3202 16.3672C52.8189 16.8172 53.3184 17.2665 53.8171 17.7165Z" fill="#9CACBA"/>
<path d="M15.9183 29.3162C15.2071 27.7641 16.0083 26.632 16.966 25.543C17.2457 25.7862 17.5798 25.959 17.8555 26.2128C17.9983 26.3498 18.1004 26.512 18.1685 26.6977C18.2318 27.0002 18.1945 27.2897 18.0591 27.567C17.6398 28.1257 17.0641 28.5515 16.704 29.1629C16.4762 29.3875 16.2386 29.5692 15.9191 29.3153L15.9183 29.3162Z" fill="#CAD3DD"/>
<path d="M62.5969 25.2969C63.531 26.1281 64.1271 27.119 64.0808 28.4157C63.9357 28.5786 63.7565 28.6492 63.5375 28.6159C63.1272 28.513 62.7542 28.3265 62.3949 28.1059C61.9579 27.805 61.5135 27.5123 61.2329 27.042C61.1688 26.9511 61.1072 26.8587 61.0488 26.7638C61.1599 25.8483 61.8216 25.5126 62.5969 25.2969Z" fill="#818C9A"/>
<path d="M46.0648 17.7563C46.0762 17.8934 46.09 18.0296 46.1062 18.165C45.6058 18.9224 44.8241 18.628 44.1373 18.6921C43.6102 18.1528 42.9396 17.6493 43.6613 16.797C43.8924 16.5018 44.1908 16.4361 44.5387 16.5407C45.1923 16.737 45.6886 17.1522 46.1127 17.6687L46.0648 17.7563Z" fill="#EDF2F7"/>
<path d="M24.1619 20.3123C23.7062 19.8607 23.7541 19.2792 23.75 18.7116C24.9477 18.3005 25.9062 19.5031 27.0869 19.2046C26.9312 19.5112 26.7747 19.8177 26.6182 20.1242C25.847 20.8062 25.0248 20.824 24.1619 20.3123Z" fill="#5C6069"/>
<path d="M29.5334 59.0532L29.5375 58.068C29.2861 57.5417 29.1061 57.0511 30.0168 57.0989C30.775 58.1531 30.925 59.2819 30.4376 60.4902C29.7792 60.98 29.4369 60.628 29.1904 60.0215C29.3048 59.6987 29.4183 59.376 29.5326 59.0532H29.5334Z" fill="#37414D"/>
<path d="M19.8479 40.0724C20.4594 40.7674 20.757 41.4972 19.6266 41.8994C18.6908 42.2319 18.3064 41.661 18.3234 40.7617C18.3056 39.3686 19.0889 39.7481 19.8479 40.0724Z" fill="#9EA7B4"/>
<path d="M28.0681 22.5493C28.1452 22.0003 28.2246 21.3759 28.9488 21.4245C29.6405 21.4708 30.0395 21.9508 30.1084 22.662C29.6883 23.1104 29.2788 23.5775 28.5814 23.5491C28.1354 23.357 27.8062 23.104 28.0681 22.5493Z" fill="#9697A2"/>
<path d="M25.6265 60.3695C25.4684 59.2804 25.3111 58.1914 25.153 57.1023C25.4497 56.816 25.7928 56.7836 26.1658 56.9182C26.8583 57.6683 26.9516 58.6536 27.2062 59.5764C26.6799 59.8408 26.1528 60.1051 25.6265 60.3695Z" fill="#5C6877"/>
<path d="M54.4391 24.8979C54.6191 23.9727 54.894 23.0977 55.709 22.5098C55.7901 22.5617 55.8687 22.6176 55.9441 22.6776C56.129 22.9104 56.2677 23.1666 56.3577 23.4504C56.4875 23.8348 56.6091 24.2216 56.5815 24.6376C56.5012 25.0787 56.288 25.4274 55.8833 25.644C55.6838 25.7348 55.4738 25.7794 55.2549 25.785C54.7602 25.6934 54.5064 25.3804 54.4391 24.8971V24.8979Z" fill="#62676F"/>
<path d="M57.2578 28.4052C57.7249 28.2617 58.1928 28.1181 58.6599 27.9746C58.8545 28.0954 58.9997 28.2592 59.0913 28.4701C59.2364 28.9015 59.2364 29.3378 59.131 29.7765C59.0297 30.0806 58.8634 30.3336 58.565 30.4747C57.8514 30.3514 58.1312 31.1704 57.7379 31.3545C56.897 30.6896 56.8872 29.8624 57.2675 28.9582C57.1386 28.8374 57.0948 28.715 57.1346 28.5917C57.1751 28.4676 57.2156 28.4052 57.2578 28.4052Z" fill="#BCCAD8"/>
<path d="M22.7227 28.3144C23.0576 28.3631 23.3925 28.4117 23.7274 28.4604C22.6367 28.8667 23.034 30.2517 22.1777 30.8121C22.0464 30.4812 21.9158 30.1503 21.7844 29.8203C21.2792 29.3029 20.6556 28.9161 20.1853 28.359C20.2048 27.8222 20.5697 27.6446 21.0189 27.5522C21.2371 27.536 21.4511 27.5579 21.6636 27.6057C22.0837 27.7411 22.4583 27.9455 22.7227 28.3152V28.3144Z" fill="#C7CED8"/>
<path d="M66.0839 33.193C66.6174 33.7793 66.4179 34.4978 66.4431 35.1757C66.1893 35.4766 65.8633 35.6047 65.474 35.5804C65.024 35.4336 64.4872 35.4441 64.2512 34.9081C64.0647 34.4426 64.0712 33.9764 64.2496 33.5109C64.3623 33.3033 64.5318 33.1573 64.7531 33.0722C65.2081 32.9668 65.6387 33.1598 66.0839 33.1922V33.193Z" fill="#41454C"/>
<path d="M20.3134 36.185C20.315 36.3472 20.3158 36.5094 20.3175 36.6716C20.0523 36.9205 19.7531 37.1078 19.3906 37.1792C18.8059 37.2692 18.2293 37.2449 17.6747 37.0211C17.36 36.3569 16.8013 36.9286 16.3845 36.7729C15.9174 36.3845 15.859 35.8331 15.7893 35.2857C15.9645 34.8203 16.3075 34.5948 16.7973 34.5762C17.0081 34.6386 17.206 34.7327 17.3884 34.8551C18.0177 35.3028 18.7548 35.4755 19.4863 35.6636C19.8131 35.7561 20.0758 35.9523 20.3134 36.1858V36.185Z" fill="#696A77"/>
<path d="M65.0337 33.2936C64.8926 33.2766 64.7515 33.2563 64.6112 33.2312C63.6746 32.7 63.5441 31.7975 63.5051 30.8487C63.6203 30.2243 63.5465 29.4669 64.4863 29.4004C65.3637 29.9802 65.0369 31.0709 65.5146 31.821C65.2113 32.2654 65.6176 32.9408 65.0329 33.2928L65.0337 33.2936Z" fill="#222325"/>
<path d="M61.6441 24.0446C60.9516 23.9902 60.3077 24.12 59.7417 24.5449C58.8837 24.5854 58.8967 24.1581 59.2154 23.5661C59.4879 22.9028 59.9841 22.5736 60.6994 22.5703C61.014 23.0617 61.3294 23.5531 61.6441 24.0446Z" fill="#414246"/>
<path d="M22.2701 59.0351C21.7317 60.5077 22.6391 60.888 23.8092 61.0721C22.4047 61.9366 21.426 61.2124 20.9605 60.0074C20.5048 58.8267 21.5833 59.0448 22.2701 59.0359V59.0351Z" fill="#798291"/>
<path d="M59.6411 35.1701C59.4643 35.1887 59.2867 35.2066 59.1092 35.2252C58.754 34.986 58.7499 34.6219 58.7605 34.2529C58.9316 33.1712 60.302 33.5401 60.6621 32.6822C60.881 32.6197 61.0821 32.657 61.2711 32.7779C61.4454 33.0933 61.4551 33.4006 61.2305 33.6966C61.2621 34.7938 60.0628 34.5635 59.6403 35.1709L59.6411 35.1701Z" fill="#ACB7C5"/>
<path d="M60.6605 32.8382C60.8714 34.4414 59.0144 33.2728 58.7614 34.2532C58.5903 33.6012 58.4191 32.9501 58.248 32.2981C58.3956 32.1302 58.5748 32.007 58.7833 31.9251C59.1149 31.8432 59.445 31.8505 59.7758 31.9324C60.217 32.0905 60.5754 32.3314 60.6605 32.8382Z" fill="#C3CFDC"/>
<path d="M21.7682 49.3363C23.5076 50.2875 23.4533 51.7115 22.8127 53.2911C22.4956 53.1111 22.3537 52.8192 22.2912 52.477C22.4494 51.4674 21.4884 51.0027 21.1868 50.2162C21.3936 49.9121 21.6003 49.6088 21.8071 49.3047L21.7682 49.3363Z" fill="#757E8D"/>
<path d="M19.8366 53.6842C20.3158 53.5682 20.7894 52.913 21.2767 53.6704C21.5249 53.8496 21.876 53.9226 21.9255 54.3037C21.2281 55.0701 20.3628 55.345 19.3484 55.182C19.5106 54.6824 19.6736 54.1837 19.8357 53.6842H19.8366Z" fill="#737F90"/>
<path d="M15.9182 29.3169C16.1007 29.2366 16.2839 29.1572 16.4664 29.0769C16.4996 28.8036 16.6489 28.7063 16.9124 28.7833C17.0835 28.9447 17.1962 29.1426 17.257 29.3688C17.3511 30.2778 16.7818 30.8009 16.1412 31.2818C15.5947 31.4277 15.0416 31.5112 14.4805 31.3337C14.4537 31.1626 14.427 30.9923 14.401 30.8212C14.907 30.32 15.4122 29.8181 15.9182 29.3169Z" fill="#544D4D"/>
<path d="M53.4239 23.1004C53.0655 22.7777 52.7071 22.4541 52.3486 22.1314C52.5684 21.4129 52.5911 20.5688 53.5172 20.2987C53.8699 20.2655 54.1691 20.3758 54.4108 20.6369C54.4416 21.6019 53.9396 22.3536 53.4239 23.0996V23.1004Z" fill="#4C4E55"/>
<path d="M16.4096 36.6871C16.7445 36.6238 17.0835 36.1429 17.4111 36.6984C17.5863 36.9068 17.712 37.142 17.7906 37.4031C17.742 38.2465 17.7339 39.1377 16.4502 38.5984C16.1899 38.1118 15.9288 37.6245 15.6685 37.1379C15.8493 36.8784 16.082 36.7041 16.4096 36.6863V36.6871Z" fill="#5D5E6A"/>
<path d="M19.3443 36.7421C19.6687 36.7178 19.9922 36.6942 20.3166 36.6699C20.2436 37.6633 20.658 38.7207 19.9217 39.6257C19.7133 39.5479 19.5381 39.4238 19.3921 39.2559C19.0337 38.7159 18.5934 38.2334 18.2577 37.6755C18.1547 36.8248 18.9615 37.03 19.3443 36.7421Z" fill="#CFDAE8"/>
<path d="M59.7822 21.4879C58.7385 22.4139 57.9925 21.6322 57.2124 21.0411C58.2431 20.1896 59.0767 20.4694 59.7822 21.4879Z" fill="#3E3F42"/>
<path d="M27.2061 59.5771C26.3563 58.9527 26.4228 57.9366 26.1333 57.073C25.9987 56.6343 26.1836 56.4551 26.6174 56.4786C27.4348 57.2992 27.1137 58.4816 27.5516 59.4222C27.4567 59.5195 27.3416 59.5706 27.2061 59.5771Z" fill="#373E4B"/>
<path d="M19.3192 22.7051C19.3119 23.3189 19.3054 23.9336 19.2981 24.5475C18.6835 24.8937 19.0192 26.3737 17.7031 25.8831C17.5847 25.3989 17.592 24.9286 17.8677 24.4915C18.2902 23.846 18.4597 22.9954 19.3192 22.7051Z" fill="#717B8A"/>
<path d="M36.3614 64.3696C36.0386 64.3696 35.7159 64.3696 35.3931 64.3696C35.0825 64.6307 34.7225 64.7912 34.3349 64.8999C33.777 64.1198 33.7851 63.3916 34.9082 63.5489C35.7086 63.6608 36.7011 63.6016 37.3158 64.3939C36.9914 64.6339 36.6719 64.6656 36.3605 64.3696H36.3614Z" fill="#BED2DF"/>
<path d="M62.5969 25.2974C62.481 26.2081 61.3781 26.0792 61.0489 26.7652C60.1942 25.6064 61.4203 25.1896 61.859 24.4922C62.1055 24.7606 62.3512 25.029 62.5969 25.2966V25.2974Z" fill="#C4D1DE"/>
<path d="M21.9263 54.3035C21.7098 54.0927 21.4941 53.881 21.2776 53.6702C22.2831 53.2444 21.216 52.2811 21.7787 51.741C22.3496 51.4393 22.4737 51.9275 22.6886 52.2559C22.7299 52.6014 22.7721 52.946 22.8135 53.2915C22.7316 53.8161 22.4145 54.1348 21.9271 54.3051L21.9263 54.3035Z" fill="#535B66"/>
<path d="M64.4872 29.4013C63.9788 29.7897 64.098 30.3614 64.0542 30.8853C63.8669 31.0215 63.6658 31.045 63.4509 30.9574C62.8784 30.5633 62.5597 30.0103 62.4413 29.3332C62.5305 28.6617 62.9943 28.4574 63.5887 28.416C63.7525 28.416 63.9171 28.416 64.081 28.416C64.2164 28.7444 64.3518 29.0737 64.4872 29.4021V29.4013Z" fill="#2C2C30"/>
<path d="M16.8784 34.7709C16.5759 34.9242 16.2734 35.0767 15.9709 35.2299C15.799 35.4578 15.6328 35.4424 15.4714 35.2178C15.2906 34.8983 15.1097 34.5788 14.9281 34.2593C15.4074 33.3778 16.2677 33.9803 16.914 33.75C17.0786 33.8838 17.1678 34.0557 17.1816 34.2674C17.1468 34.475 17.0454 34.6428 16.8775 34.7709H16.8784Z" fill="#4C4C53"/>
<path d="M20.9321 33.827C20.8218 34.5324 21.0237 35.3166 20.4123 35.8964C19.8836 35.5729 19.2494 35.5234 18.7029 35.2388C18.3461 34.9266 18.0939 34.5852 18.3858 34.0929C18.9624 33.638 19.6208 33.4369 20.3515 33.4564C20.5907 33.5075 20.7837 33.6323 20.9321 33.827Z" fill="#4A4449"/>
<path d="M19.8228 39.1171C19.8561 39.2874 19.8885 39.4569 19.9218 39.6272C19.852 39.7683 19.8277 39.9167 19.848 40.0724C19.2495 40.1007 18.6081 40.0351 18.3235 40.76C18.021 40.3578 17.7193 39.954 17.4169 39.5509C17.3106 39.0628 17.6342 38.8706 17.9983 38.7052C18.6803 38.5154 19.2747 38.7149 19.8228 39.1171Z" fill="#848A95"/>
<path d="M63.557 38.1784C64.2374 37.7786 64.9721 35.9873 65.5486 38.2555C64.8593 38.888 64.1952 38.8726 63.557 38.1784Z" fill="#7F8996"/>
<path d="M60.1747 38.1378C60.6474 37.9497 60.9783 37.6188 61.1672 37.1461C61.8435 36.8233 62.2198 37.2645 62.5961 37.7064C62.6082 37.8816 62.6204 38.0567 62.6326 38.2319C61.79 38.8141 60.9702 38.7914 60.1747 38.1378Z" fill="#99A0AB"/>
<path d="M47.9428 21.6867C48.6345 21.2026 49.3254 20.7185 50.0171 20.2344C49.9904 20.6131 50.069 20.9439 50.421 21.1564C50.5491 22.2844 49.4819 21.5918 49.1365 21.9981C49.0619 22.0573 48.9873 22.1173 48.9143 22.1781C48.5899 22.0143 48.2664 21.8505 47.942 21.6859L47.9428 21.6867Z" fill="#66707C"/>
<path d="M36.3615 64.3691C36.6801 64.3772 36.998 64.3854 37.3167 64.3935C37.8333 64.7243 38.4244 65.009 38.1868 65.8045C37.1245 65.9026 36.4296 65.5352 36.3623 64.37L36.3615 64.3691Z" fill="#7498AD"/>
<path d="M22.6877 52.2551C22.3844 52.0832 22.0811 51.9121 21.7778 51.7402C21.2994 51.4361 20.821 51.1312 20.3425 50.8271C20.6239 50.6227 20.9053 50.4192 21.1867 50.2148C22.0073 50.6592 22.742 51.1669 22.6877 52.2543V52.2551Z" fill="#656D7A"/>
<path d="M65.5251 35.2325C65.8308 35.2139 66.1373 35.1944 66.4431 35.1758C66.632 35.9964 67.1169 36.7636 66.8939 37.6588C66.3952 36.8941 65.8089 36.2162 65.0085 35.7491C65.0548 35.4507 65.3572 35.4085 65.5259 35.2325H65.5251Z" fill="#8892A0"/>
<path d="M28.0682 22.5508C28.2393 22.8841 28.4104 23.2174 28.5815 23.5506C28.2766 23.7331 27.9709 23.9147 27.666 24.0972C27.49 24.2188 27.2962 24.2545 27.0862 24.2188C26.7083 23.991 26.4829 23.669 26.4731 23.2157C26.5502 22.8743 26.8405 22.7568 27.1073 22.614C27.4276 22.5929 27.7479 22.5719 28.0682 22.5508Z" fill="#9B9EAB"/>
<path d="M20.9321 33.8266C20.7391 33.8022 20.5453 33.7787 20.3523 33.7552C19.916 33.3895 19.8317 32.9208 19.9517 32.3912C20.0344 32.1407 20.1942 31.955 20.4285 31.8341C20.8486 31.8325 21.2686 31.8317 21.6879 31.8301C21.3951 32.4804 21.5249 33.2897 20.9321 33.8266Z" fill="#2A2A2F"/>
<path d="M14.3629 41.3612C14.3718 41.7407 14.2007 41.9645 13.8098 41.9524C13.4717 41.9418 13.183 41.8096 13.0865 41.4512C12.9957 41.1122 13.0581 40.7871 13.4547 40.7263C13.9234 40.6541 14.1577 41.0076 14.3621 41.3612H14.3629Z" fill="#A8B2C0"/>
<path d="M27.1689 24.0369C27.3343 24.0563 27.4998 24.0766 27.6652 24.0961C27.1397 24.6726 26.8892 25.6101 25.835 25.4941C25.6055 25.4446 25.3752 25.3952 25.1457 25.3457C25.1287 25.2257 25.1238 25.1057 25.1311 24.9848C25.2179 24.7845 25.3371 24.607 25.4855 24.4464C25.9736 24.0126 26.4415 23.4871 27.1689 24.0369Z" fill="#B9C1CC"/>
<path d="M26.6183 56.4777C26.4569 56.6756 26.2955 56.8742 26.1342 57.0721C25.8074 57.0818 25.4806 57.0916 25.1538 57.1021C24.8367 57.094 24.5204 57.0859 24.2034 57.0778C24.4466 56.4526 24.9494 56.1768 25.5722 56.0625C25.9209 56.2012 26.2696 56.3398 26.6183 56.4777Z" fill="#75808D"/>
<path d="M55.3003 25.5513C55.4641 25.5424 55.6287 25.5343 55.7925 25.5254L55.9701 25.6641L55.9109 25.8814C56.0625 26.4725 56.0982 27.045 55.6538 27.5446C55.0375 27.4627 54.8632 27.028 54.8113 26.4944C54.5372 25.9536 54.8981 25.7411 55.3011 25.5513H55.3003Z" fill="#B7C7D6"/>
<path d="M50.0496 15.799C49.8696 15.6319 49.6888 15.4649 49.5088 15.2986C49.3523 15.1819 49.2955 15.0594 49.3385 14.9321C49.3823 14.8015 49.4293 14.7367 49.4788 14.7367C50.0107 14.3855 50.4559 14.7286 50.653 15.0918C50.8954 15.5395 50.5192 15.7827 50.0505 15.799H50.0496Z" fill="#7F858D"/>
<path d="M58.7377 32.3107C58.5747 32.3066 58.4109 32.3026 58.2479 32.2985C58.0784 31.9839 57.9082 31.6701 57.7387 31.3563C57.9893 31.0643 57.2846 30.2891 58.2455 30.3556C59.131 30.8259 59.3167 31.4722 58.7385 32.3115L58.7377 32.3107Z" fill="#A1B3C3"/>
<path d="M49.4787 14.7363C49.4885 14.9237 49.499 15.111 49.5088 15.2983C49.1033 15.6081 48.697 15.9178 48.2916 16.2276C48.3759 15.4832 47.2771 13.7973 49.4787 14.7363Z" fill="#41454A"/>
<path d="M36.3662 67.3265C36.6744 66.4491 37.3539 66.2569 38.1843 66.3428C38.2581 67.9258 37.0279 67.1019 36.3662 67.3265Z" fill="#6E9CB3"/>
<path d="M54.4108 20.6374C54.0645 20.6399 53.7174 20.6423 53.3712 20.6447C53.0574 20.4388 52.7257 20.2425 52.8992 19.7738C53.3809 19.5962 53.8634 19.4178 54.3451 19.2402C55.3636 19.6595 54.7092 20.1566 54.4108 20.6383V20.6374Z" fill="#555B64"/>
<path d="M65.0337 33.2941C65.071 32.7629 64.9558 32.1823 65.5154 31.8223C65.7668 32.2537 66.1884 32.6145 66.0846 33.1927C65.7749 33.6476 65.4456 33.895 65.0345 33.2941H65.0337Z" fill="#101112"/>
<path d="M18.8578 35.2081C19.6792 34.7539 20.3004 34.7507 20.4123 35.8957C20.4666 36.0222 20.4334 36.1179 20.3126 36.1836C20.0174 36.1722 19.7222 36.1617 19.427 36.1503C19.1246 36.0157 18.8521 35.8511 18.7418 35.5113C18.7807 35.41 18.8189 35.3086 18.8578 35.2072V35.2081Z" fill="#463D40"/>
<path d="M15.4714 35.2176C15.6377 35.2217 15.8039 35.2257 15.9701 35.2298C16.1169 35.7155 16.2629 36.2012 16.4097 36.687C16.1623 36.8378 15.915 36.9886 15.6677 37.1387C15.3238 36.5264 15.3117 35.8801 15.4714 35.2168V35.2176Z" fill="#514E56"/>
<path d="M30.0176 57.0986C29.6259 57.3071 29.561 57.6768 29.5383 58.0677C28.6504 57.7068 28.5482 56.9616 28.5969 56.1426C29.265 56.1726 29.694 56.557 30.0176 57.0986Z" fill="#5D6775"/>
<path d="M17.952 39.0236C17.7736 39.1995 17.5952 39.3747 17.4168 39.5507C16.9303 39.4007 16.5394 39.1533 16.4502 38.5995C17.4355 38.5581 17.3925 37.8032 17.4695 37.1317C17.9212 37.0628 18.0785 37.3377 18.1491 37.7148C18.3623 38.194 18.2829 38.6279 17.9512 39.0244L17.952 39.0236Z" fill="#929AAA"/>
<path d="M55.3003 25.552C55.1373 25.8659 54.9743 26.1805 54.8113 26.4943C53.4101 26.26 54.2007 25.5147 54.4391 24.8984C54.7262 25.1166 55.0133 25.3339 55.3003 25.552Z" fill="#D2DEE8"/>
<path d="M41.7978 13.7939C41.4134 13.9609 41.0298 14.128 40.6455 14.2942C40.5181 13.8255 40.3916 13.3576 40.2651 12.8889C41.0185 12.7803 41.3834 13.3292 41.7978 13.7939Z" fill="#25262C"/>
<path d="M29.1913 60.0215C29.6073 60.178 30.0224 60.3337 30.4384 60.4902C30.4611 60.7991 30.4847 61.1081 30.5074 61.4163C30.3614 61.4536 30.213 61.4811 30.063 61.4982C29.2602 61.606 28.8945 61.2857 29.0429 60.4602C29.0575 60.3021 29.1069 60.1553 29.1913 60.0215Z" fill="#2F3842"/>
<path d="M29.0429 60.4609C29.2359 60.9515 29.5902 61.2832 30.063 61.4989C29.2667 62.1298 28.742 62.0017 28.5458 60.9564C28.7112 60.7918 28.8774 60.6264 29.0429 60.4617V60.4609Z" fill="#7A8896"/>
<path d="M34.335 64.9011C34.5547 64.4599 34.9302 64.3286 35.3924 64.3707C34.888 64.7194 35.5984 65.8077 34.5182 65.8061C34.4574 65.5044 34.3958 65.2027 34.335 64.9011Z" fill="#6D9BB1"/>
<path d="M17.8677 24.4922C17.8766 24.9925 17.8847 25.492 17.8936 25.9924C17.802 26.1829 17.6601 26.32 17.4671 26.4051C16.9367 26.3297 16.9968 25.9105 16.9659 25.5448C17.2668 25.1944 17.5676 24.8433 17.8677 24.493V24.4922Z" fill="#8693A2"/>
<path d="M57.2579 28.4043C57.2611 28.5884 57.2643 28.7725 57.2676 28.9574C57.0357 28.8236 56.8037 28.689 56.5702 28.5552C56.5686 28.5552 56.7713 28.4254 56.7713 28.4254C56.9432 28.2843 57.1135 28.2851 57.2838 28.4287L57.2587 28.4052L57.2579 28.4043Z" fill="#8594A1"/>
<path d="M24.162 20.3131C24.981 20.2507 25.8 20.1874 26.6183 20.125C26.6556 20.2572 26.675 20.391 26.6783 20.5272C26.5031 21.0511 26.328 21.5765 26.1528 22.102C26.0093 22.2812 25.8317 22.4142 25.6216 22.5067C24.7783 22.6405 23.8522 23.2373 23.2286 22.0947C23.4614 21.4606 24.218 21.0997 24.1612 20.3139L24.162 20.3131Z" fill="#C1C8D2"/>
<path d="M52.8984 19.773C53.0557 20.0633 53.2131 20.3536 53.3704 20.6439C53.0128 21.1281 53.2066 21.9901 52.3486 22.1303C52.0494 21.969 51.7502 21.8076 51.4517 21.6462C50.9993 21.4492 50.6725 21.1889 50.9433 20.6301C50.9425 20.3196 50.9417 20.0098 50.9409 19.6992C51.5937 19.7244 52.2464 19.7487 52.8992 19.773H52.8984Z" fill="#484E56"/>
<path d="M50.9433 20.6309C51.1128 20.969 51.2822 21.308 51.4517 21.6469C50.7681 22.3427 49.928 22.0183 49.1357 22.0005C49.5647 21.7191 49.9937 21.4385 50.421 21.158C50.5946 20.9828 50.7689 20.8068 50.9433 20.6309Z" fill="#454B53"/>
<path d="M46.1127 17.6679C45.588 17.3703 45.0641 17.0735 44.5395 16.7759C44.4178 16.6137 44.4219 16.4596 44.5719 16.3161C45.1647 16.1498 45.6042 16.5334 46.094 16.7378C46.1005 17.0475 46.1062 17.3573 46.1127 17.6679Z" fill="#5E646D"/>
<path d="M36.2747 16.0145C36.3849 15.4234 36.7734 15.2344 37.3288 15.288C37.8024 15.3074 38.276 15.309 38.7512 15.3025C38.9491 15.288 39.1453 15.2871 39.344 15.2953C39.6529 15.3212 39.9384 15.4136 40.1995 15.5823C40.3625 15.7234 40.4411 15.9018 40.4371 16.1167C40.3901 16.2083 40.3422 16.2992 40.2952 16.3908C38.9645 16.1637 37.5794 16.5238 36.2755 16.0137L36.2747 16.0145Z" fill="#908E95"/>
<path d="M44.5719 16.316C44.5881 16.4709 44.5768 16.6242 44.5395 16.775C44.2467 16.7815 43.954 16.788 43.6612 16.7945C42.5503 16.5634 41.3445 17.1221 40.2935 16.3898L40.2513 16.1782C40.9917 15.6681 41.8075 15.6543 42.6492 15.8165C43.2736 16.1003 44.0318 15.84 44.6133 16.299L44.5719 16.3152V16.316Z" fill="#D1D6DE"/>
<path d="M23.2295 22.0928C24.055 22.6386 24.9186 21.9031 25.753 22.1674C25.9201 22.5948 25.9023 23.0294 25.8082 23.4673C25.6817 23.653 25.513 23.7852 25.3006 23.8598C24.4426 23.9685 23.5741 24.0447 22.8556 24.618C22.3861 24.8443 21.945 24.8678 21.5671 24.4404C21.3555 23.9312 21.4398 23.4762 21.8152 23.0748C22.0099 22.9792 22.3829 22.8275 22.3731 22.7975C22.2458 22.3994 21.3465 22.2818 21.7358 21.809C22.1623 21.2908 22.7259 21.9493 23.2303 22.0928H23.2295Z" fill="#BAC0CC"/>
<path d="M21.8144 23.0762C21.803 23.5546 21.7925 24.0331 21.7811 24.5107C21.9068 24.621 21.949 24.7313 21.906 24.8415C21.863 24.951 21.8208 25.0062 21.7787 25.0062C20.8315 24.9405 20.259 24.6226 20.8023 23.5554C21.1397 23.3957 21.477 23.2359 21.8144 23.0762Z" fill="#E3EAF4"/>
<path d="M44.6141 16.3009C43.9637 16.2604 43.3134 16.219 42.6622 16.1785C41.8707 15.773 40.9495 16.2798 40.1654 15.8241C39.8702 15.8095 39.575 15.7941 39.2799 15.7795C38.9977 15.5151 38.7487 15.2337 38.7868 14.8072C39.0244 14.4107 39.4104 14.3555 39.8216 14.3596C40.4679 16.2514 42.2948 14.1812 43.1552 15.3529C43.4804 15.9173 44.3716 15.61 44.6141 16.3017V16.3009Z" fill="#4F555E"/>
<path d="M38.7942 15.7749C38.2541 15.7668 37.6751 15.8746 37.3289 15.2867L37.3353 15.2859C37.4927 15.1456 37.6419 14.9972 37.7822 14.8399C37.9508 14.8285 38.1195 14.818 38.2874 14.8066C38.5533 15.0783 39.1072 15.2007 38.7942 15.7757V15.7749Z" fill="#6D7786"/>
<path d="M38.7941 15.7757C38.6254 15.4529 38.4568 15.1302 38.2881 14.8066C38.4543 14.8066 38.6206 14.8066 38.7868 14.8066C39.1833 15.0134 39.2693 15.3767 39.2798 15.7789L39.0374 15.7911L38.7949 15.7757H38.7941Z" fill="#595F69"/>
<path d="M25.6897 23.4298C25.2575 22.9871 25.354 22.5703 25.7522 22.1681C25.886 22.1454 26.0198 22.1235 26.1536 22.1016C26.4715 22.2719 26.7893 22.443 27.1072 22.6141C26.9418 22.7714 26.7772 22.9287 26.6117 23.086C26.3766 23.3942 26.2168 23.9042 25.6897 23.4298Z" fill="#9397A6"/>
<path d="M21.7787 25.0057C21.7795 24.841 21.7803 24.6764 21.7811 24.511C22.1679 24.5159 22.545 24.4972 22.7753 24.1112C23.7516 23.6368 24.7101 23.5168 25.6249 24.2564C25.8138 24.4867 25.8114 24.7145 25.6167 24.94C25.4554 24.9554 25.2932 24.9708 25.131 24.9862C24.0119 24.7413 22.9034 26.2236 21.7787 25.0065V25.0057Z" fill="#E7EEF6"/>
<path d="M19.4684 25.4229C20.2429 25.4797 21.0473 25.4838 21.2962 26.4633C21.4665 26.7034 21.439 26.9183 21.2152 27.1096C20.0507 27.421 19.2552 26.9515 18.72 25.9314C18.7954 25.5073 18.9778 25.2381 19.4684 25.4221V25.4229Z" fill="#383E46"/>
<path d="M19.4684 25.4242C19.2648 25.6277 19.0613 25.8321 18.8578 26.0356C18.8107 26.8084 18.3769 26.7833 17.8336 26.5303C17.7079 26.4987 17.5854 26.4565 17.467 26.4046C17.6098 26.2667 17.7517 26.1297 17.8944 25.9918C18.5658 25.708 18.235 24.4503 19.2989 24.5484C19.3557 24.8403 19.4124 25.1323 19.4692 25.4242H19.4684Z" fill="#4E5965"/>
<path d="M22.7227 28.3142C22.331 28.388 21.9247 28.5048 21.722 27.9923C21.4682 27.4108 21.7844 27.1173 22.2702 26.9105C22.4307 26.8992 22.5889 26.9105 22.7462 26.9446C22.987 27.4052 23.1395 27.865 22.7235 28.315L22.7227 28.3142Z" fill="#09090B"/>
<path d="M22.2693 26.9097C22.0869 27.2706 21.9036 27.6314 21.7212 27.9915C21.5817 27.9898 21.4519 27.9558 21.3303 27.8877C21.0035 27.586 21.0035 27.2706 21.2938 26.9446C21.2849 26.784 21.2857 26.6235 21.2962 26.4629C21.6539 26.5399 22.1104 26.4005 22.2702 26.9089L22.2693 26.9097Z" fill="#434549"/>
<path d="M61.2322 33.6954C61.2005 33.3953 61.1689 33.0961 61.1365 32.7961C61.6125 32.0622 62.0796 31.2999 63.0875 32.1441C63.866 33.0434 64.3785 34.0019 63.7606 35.2085C63.5481 35.4218 63.33 35.4267 63.1078 35.224C62.4826 34.7147 61.8574 34.2054 61.2314 33.6962L61.2322 33.6954Z" fill="#4D5460"/>
<path d="M62.5961 37.7074C62.1201 37.5209 61.6432 37.3344 61.1672 37.147C61.1875 36.4651 61.4835 35.9663 62.1306 35.7012C62.2855 36.3702 62.4412 37.0384 62.5961 37.7074Z" fill="#808898"/>
<path d="M63.1078 35.2234C63.2578 35.1788 63.4086 35.1367 63.5595 35.0969C63.8741 34.9364 64.0582 34.4036 64.5512 34.749C64.8756 34.9096 65.2008 35.0702 65.5251 35.2315C65.3532 35.4034 65.1805 35.5754 65.0086 35.7481C64.5415 35.74 64.0752 35.7319 63.6081 35.7238C63.4411 35.5575 63.2748 35.3905 63.1078 35.2234Z" fill="#A0ABBA"/>
<path d="M16.7648 28.9915C16.6732 29.0458 16.5734 29.075 16.4664 29.0774C16.3302 28.0005 17.2627 27.8529 17.8912 27.441C18.9981 26.8288 19.6006 27.5894 20.2226 28.2973C21.1024 28.4368 21.7001 28.865 21.7844 29.8202C20.9564 30.0051 20.5169 29.3531 19.9517 28.9704C18.8902 29.0945 17.8312 29.6288 16.7648 28.9915Z" fill="#E8EDF3"/>
<path d="M15.9304 31.332C15.8266 30.4375 16.9003 30.1853 16.9886 29.3963C17.6666 28.8871 17.9982 29.3306 18.2958 29.8699C18.4848 30.191 18.6745 30.5113 18.8635 30.8324C19.0338 31.0741 19.0143 31.2995 18.8043 31.5088C17.9561 32.0148 17.0884 32.0018 16.2061 31.6052C16.1137 31.5152 16.0228 31.4236 15.9312 31.332H15.9304Z" fill="#D8DDE6"/>
<path d="M18.8465 31.3656C18.8522 31.188 18.8578 31.0104 18.8635 30.832C19.5285 30.9415 20.4132 30.7104 20.4278 31.8343C20.3499 31.9657 20.3013 32.1076 20.2834 32.2592C20.1083 32.4579 19.8885 32.5763 19.6258 32.6144C18.8757 32.5041 18.3705 32.2406 18.8465 31.3656Z" fill="#D4DCE7"/>
<path d="M18.2958 29.8708C17.8603 29.7127 17.424 29.5554 16.9886 29.3972C16.8669 29.2886 16.7923 29.1532 16.7648 28.9918C17.8271 28.9845 18.8886 28.9772 19.9509 28.9707C19.5511 29.5489 18.5828 29.085 18.2958 29.8708Z" fill="#C7CED8"/>
<path d="M59.2154 23.567C59.2227 23.983 59.324 24.3496 59.7417 24.545C59.6792 25.5246 59.8811 26.5447 59.2916 27.4424C59.114 27.5851 58.9608 27.5705 58.8359 27.3727C58.7086 26.0939 57.3722 26.5804 56.7867 25.9706C56.2191 25.6276 56.6448 24.9448 56.2937 24.528C56.1485 24.1963 56.0042 23.8646 55.859 23.5338C56.2685 23.1932 56.6505 22.7659 57.2716 23.0716C57.3041 23.19 57.3097 23.3092 57.2886 23.43C57.7144 23.9579 58.1807 24.0966 58.715 23.5792C58.8813 23.5751 59.0475 23.5711 59.2146 23.5679L59.2154 23.567Z" fill="#34363B"/>
<path d="M58.7159 23.5786C58.6673 24.0286 58.8927 24.7252 58.2659 24.7844C57.3852 24.8671 57.3325 24.0943 57.2887 23.4302C57.7858 23.2753 58.2691 23.251 58.7159 23.5778V23.5786Z" fill="#232427"/>
<path d="M57.2724 23.0702C56.8013 23.2243 56.3302 23.3792 55.859 23.5333C55.8874 23.2478 55.9158 22.9624 55.9433 22.6778C56.4323 22.6526 57.1151 21.9739 57.2716 23.0711L57.2724 23.0702Z" fill="#222225"/>
<path d="M56.2936 24.5282C56.8726 24.8679 56.7558 25.4445 56.7867 25.9708C56.4947 25.9408 56.2028 25.9116 55.9109 25.8816C55.8768 25.7607 55.8379 25.6424 55.7925 25.5248C55.9595 25.1923 56.1266 24.8598 56.2936 24.5273V24.5282Z" fill="#444850"/>
<path d="M58.8359 27.3719C58.9867 27.3995 59.1383 27.423 59.2908 27.4416C59.47 27.4368 59.6484 27.4319 59.826 27.427C59.8933 27.6411 59.8868 27.8503 59.7952 28.0571C59.68 28.2461 59.5284 28.3993 59.3468 28.525C59.2413 28.5502 59.1343 28.5753 59.0281 28.5996C58.9421 28.5331 58.8562 28.4658 58.7702 28.3985C58.7069 28.2631 58.6696 28.1212 58.6599 27.9728C58.7183 27.7725 58.7767 27.5714 58.8351 27.3711L58.8359 27.3719Z" fill="#5B6571"/>
<path d="M57.2839 28.4287C57.1128 28.4279 56.9425 28.4263 56.7714 28.4255C56.9441 28.0257 57.1152 28.076 57.2839 28.4287Z" fill="#B8CAD8"/>
<path d="M19.9104 32.4106C20.0296 32.3473 20.1537 32.2971 20.2834 32.2598C20.3061 32.7585 20.3288 33.2572 20.3515 33.7559C19.7312 34.0803 19.0889 34.3235 18.3697 34.2676C17.875 34.669 17.3909 34.6349 16.9157 34.2335C16.9068 34.0722 16.906 33.9116 16.9157 33.7502C17.2101 33.4583 17.5044 33.1656 17.7996 32.8736C17.9099 32.6993 18.068 32.5995 18.2715 32.572C18.8343 32.6887 19.402 32.8477 19.9112 32.4106H19.9104Z" fill="#606270"/>
<path d="M18.3712 32.7866C18.1799 32.8158 17.9893 32.845 17.7979 32.8734C16.8727 32.4655 15.7204 33.2578 14.894 32.3252C15.1998 31.7989 15.7333 31.6976 16.2645 31.5905C16.97 31.9822 18.6989 30.5753 18.3704 32.7858L18.3712 32.7866Z" fill="#2F3033"/>
<path d="M15.9831 31.716C15.7674 32.1823 15.3522 32.2918 14.8948 32.325C14.4926 32.1044 14.2826 31.8044 14.4804 31.3333C14.9637 31.0243 15.447 31.0194 15.9303 31.3324L16.0187 31.2846C16.1396 31.3908 16.1752 31.4906 16.1242 31.583C16.0755 31.6722 16.0285 31.7168 15.9831 31.7168V31.716Z" fill="#323031"/>
<path d="M61.2321 27.0409C61.9189 26.946 62.3276 27.3644 62.7072 27.838C62.5069 28.657 61.9895 29.0974 61.1437 29.1468C60.748 29.0641 60.4934 28.8257 60.3693 28.4438C60.3125 28.0545 60.409 27.7188 60.7188 27.4585L61.2321 27.0417V27.0409Z" fill="#383C44"/>
<path d="M60.7189 27.4577C60.6873 27.7513 60.6548 28.0457 60.6232 28.3392C60.551 28.5427 60.4091 28.623 60.1967 28.5784C60.0207 28.4884 59.878 28.3611 59.7677 28.1965C59.7482 28.1016 59.7296 28.0059 59.7109 27.9102C59.7482 27.7497 59.7864 27.5883 59.8253 27.4277C60.1245 27.4375 60.4221 27.448 60.7197 27.4577H60.7189Z" fill="#838E9D"/>
<path d="M20.2217 28.2968C19.2373 28.5749 18.8659 27.1858 17.8903 27.4405C17.8709 27.1372 17.8522 26.8331 17.8328 26.5298C18.1742 26.3652 18.5156 26.1998 18.8569 26.0352C19.7319 26.1698 20.2906 27.1518 21.2929 26.9466C21.3051 27.2604 21.3173 27.5751 21.3294 27.8889C20.9183 27.9116 20.4893 27.8857 20.2217 28.2968Z" fill="#8693A2"/>
<path d="M61.1851 28.9086C61.6927 28.5526 62.1995 28.1966 62.708 27.8398C63.1069 27.8723 63.4718 27.9558 63.5894 28.4164C63.2618 28.727 62.9342 29.0368 62.6066 29.3473C61.9635 29.7479 61.3586 30.0261 61.1851 28.9086Z" fill="#202126"/>
<path d="M58.7378 32.3105C58.8027 31.601 58.5699 30.966 58.2448 30.3546C58.4207 30.1665 58.5975 29.9783 58.7735 29.791C59.7028 29.8121 59.852 30.5452 60.0774 31.2117C60.1261 31.5726 60.0799 31.9148 59.8714 32.223C59.4936 32.2521 59.1157 32.2813 58.7386 32.3105H58.7378Z" fill="#B3C3D2"/>
<path d="M59.7377 31.3448C59.4166 30.8275 59.0946 30.3093 58.7735 29.7911C58.7727 29.3273 58.7711 28.8634 58.7703 28.4004C58.8887 28.4028 59.0054 28.4126 59.1222 28.4288C60.0499 29.2486 61.4901 29.9598 59.7369 31.344L59.7377 31.3448Z" fill="#717B89"/>
<path d="M64.5513 34.7502C64.2212 34.8662 63.8904 34.983 63.5603 35.0989C63.8223 33.9661 63.1784 33.1389 62.6116 32.2859C63.03 31.865 63.0032 31.1449 63.5879 30.8359C63.7444 30.8432 63.8993 30.8595 64.0542 30.8854C64.2399 31.6679 64.4248 32.4505 64.6105 33.2322C64.591 33.7382 64.5707 34.2442 64.5513 34.7502Z" fill="#5C6470"/>
<path d="M16.9156 34.2324C17.4006 34.2438 17.8855 34.2551 18.3696 34.2665C18.5326 34.5803 18.6948 34.8949 18.8578 35.2088V35.2201C18.205 35.5875 17.5587 35.5858 16.9189 35.1869C16.9229 35.0466 16.9092 34.9071 16.8792 34.7701C16.8913 34.5908 16.9035 34.4116 16.9156 34.2324Z" fill="#42383C"/>
<path d="M16.9181 35.1875C17.5644 35.1989 18.2107 35.2094 18.857 35.2207C19.0467 35.5313 19.2357 35.8419 19.4263 36.1525C18.5156 36.0244 17.6049 35.8962 16.9181 35.1875Z" fill="#6A6974"/>
<path d="M17.9439 37.612C17.7858 37.4514 17.6277 37.2909 17.4696 37.1303C17.4266 36.9892 17.4071 36.8449 17.4112 36.6973C18.0558 36.7119 18.7005 36.7265 19.3444 36.7419C19.0314 37.0306 18.7184 37.3192 18.4054 37.6071C18.2529 37.7863 18.0996 37.7879 17.9439 37.612Z" fill="#BBC4D2"/>
<path d="M63.5887 30.8355C63.5927 31.5402 63.6089 32.2538 62.6123 32.2854C61.9604 31.9951 61.7706 33.0347 61.1373 32.7971C60.9783 32.81 60.8202 32.8238 60.6613 32.8376C60.3977 32.6333 60.135 32.4281 59.8714 32.2229C59.8268 31.9302 59.7822 31.6375 59.7376 31.3447C60.9402 30.0773 59.0313 29.4634 59.123 28.4295L59.2843 28.397C59.4052 28.2673 59.5552 28.2016 59.7303 28.1895C59.8998 28.2073 60.0677 28.2357 60.2339 28.2738C60.3588 28.3273 60.4885 28.3492 60.624 28.3403C60.8113 28.5292 60.9978 28.7182 61.1851 28.9071C61.516 29.5153 62.0763 29.3823 62.6067 29.3466C62.9343 29.8421 63.2611 30.3384 63.5887 30.8347V30.8355Z" fill="#464B53"/>
<path d="M17.9438 37.6134C18.0979 37.628 18.2512 37.6264 18.4053 37.6094C19.2956 37.7197 19.4976 38.4771 19.8227 39.1177C19.1983 39.0869 18.5747 39.0569 17.9511 39.0252C17.9495 38.5541 17.9463 38.0838 17.9438 37.6142V37.6134Z" fill="#A9B4C2"/>
<path d="M25.6167 24.9385C25.6483 24.8015 25.6646 24.6628 25.6654 24.5217C25.384 24.1998 25.3751 23.8795 25.6727 23.5624C25.6727 23.5624 25.6889 23.4311 25.6889 23.4294C25.9962 23.3135 26.3044 23.1983 26.6117 23.084C26.7966 23.4019 26.9823 23.7189 27.168 24.036C26.4066 23.9168 26.1957 24.7439 25.6167 24.9385Z" fill="#D2DAE4"/>
<path d="M40.1654 15.8227C41.0096 15.86 41.9105 15.4943 42.6622 16.1771C41.8586 16.1771 41.0558 16.1779 40.2522 16.1787C40.2351 16.0571 40.206 15.9387 40.1654 15.8227Z" fill="#575962"/>
<path d="M25.6735 23.5621C25.671 23.8816 25.6686 24.202 25.6662 24.5215C24.7644 23.9514 23.7759 23.9911 22.7753 24.1087C23.5805 23.0756 24.6379 23.3756 25.6735 23.5613V23.5621Z" fill="#C1C8D2"/>
<path d="M15.9831 31.7154C15.9531 31.5678 15.9652 31.4243 16.0188 31.2832C16.9619 31.31 17.9041 31.3375 18.8464 31.3643C18.9016 32.0163 19.2892 32.3309 19.9095 32.4088C19.6582 33.6016 19.0419 33.3048 18.3712 32.785C18.2212 30.988 16.7778 32.0755 15.9831 31.7154Z" fill="#979FAD"/>
<path d="M59.8585 28.3952C59.6671 28.3952 59.4749 28.396 59.2836 28.3969C59.4263 28.2347 59.5682 28.0733 59.7101 27.9111L59.7409 27.9062C59.8204 28.0595 59.8617 28.2217 59.8585 28.3944V28.3952Z" fill="#202226"/>
<path d="M59.8584 28.3944C59.8187 28.2314 59.7798 28.0692 59.7408 27.9062C59.9046 28.0295 60.0693 28.152 60.2331 28.2744C60.1098 28.319 59.9857 28.3596 59.8584 28.3952V28.3944Z" fill="#67707C"/>
</g>
<path d="M39.7317 60.1978C50.7965 60.1978 59.7662 51.2281 59.7662 40.1634C59.7662 29.0986 50.7965 20.1289 39.7317 20.1289C28.667 20.1289 19.6973 29.0986 19.6973 40.1634C19.6973 51.2281 28.667 60.1978 39.7317 60.1978Z" fill="white"/>
<mask id="mask1_1261_9278" style="mask-type:luminance" maskUnits="userSpaceOnUse" x="25" y="25" width="30" height="30">
<path d="M39.9999 54.823C48.0967 54.823 54.6604 48.2593 54.6604 40.1625C54.6604 32.0657 48.0967 25.502 39.9999 25.502C31.9031 25.502 25.3394 32.0657 25.3394 40.1625C25.3394 48.2593 31.9031 54.823 39.9999 54.823Z" fill="white"/>
</mask>
<g mask="url(#mask1_1261_9278)">
<path d="M42.6832 32.6988C41.2584 31.8887 39.712 32.4101 38.224 32.2885C37.9661 31.5287 38.6124 31.3843 39.0382 31.0875C39.2417 31.008 39.4533 30.957 39.6666 30.9237C40.441 30.871 40.3364 30.2977 40.3307 29.7868C40.4272 29.0416 40.4573 28.2972 40.3283 27.5511C40.3186 27.3322 40.3453 27.1181 40.3956 26.9056C40.5951 26.2496 41.0176 25.7768 41.6079 25.4444C43.0522 25.2968 44.3423 25.8458 45.6455 26.3356C45.6366 26.6137 45.5425 26.8699 45.4533 27.1278C45.3252 27.5933 45.4622 28.066 45.4176 28.5356C45.3341 29.0562 45.1346 29.5265 44.8216 29.949C44.408 30.5053 43.4617 30.4388 43.2873 31.274C43.173 31.7881 43.0822 32.3104 42.6824 32.6996L42.6832 32.6988Z" fill="#818F9E"/>
<path d="M27.3667 32.7191C27.6027 31.4703 28.1776 30.451 29.334 29.8282C29.8262 29.4487 30.3744 29.323 30.9809 29.4649C31.1926 29.5452 31.3726 29.6757 31.5243 29.8436C31.8462 30.4875 32.057 31.2359 32.9377 31.3746C33.1542 31.4549 33.3553 31.5587 33.5491 31.6819C34.1654 32.2488 34.9042 32.7742 34.2879 33.7725L34.2749 33.7855C33.2483 34.7034 31.9638 34.3888 30.7734 34.5218C30.5601 34.5712 30.3444 34.5972 30.1254 34.611C29.5554 34.6256 29.0785 34.3815 28.6244 34.0725C28.1249 33.6979 27.4932 33.4416 27.3667 32.7199V32.7191Z" fill="#E8EFF6"/>
<path d="M34.2903 34.2324C33.6473 35.4212 33.005 36.61 32.362 37.7988C32.0603 37.742 31.7587 37.6869 31.487 37.5361C31.0661 37.2604 30.6226 37.0528 30.0963 37.0957C29.7662 37.0949 29.4557 37.0268 29.1686 36.8606C28.8004 36.5605 28.5758 36.19 28.5953 35.7002C28.7502 34.7068 29.8506 34.8698 30.3363 34.2794L30.3015 34.1367C31.6257 34.3857 32.9621 34.1294 34.2903 34.2332V34.2324Z" fill="#525158"/>
<path d="M32.2849 39.1833C31.7294 40.1183 33.4194 42.2299 30.7717 42.0686C30.5001 41.7726 30.1554 41.565 29.8481 41.3095C29.3745 40.8992 28.6877 40.6478 28.7355 39.8426C29.1288 39.146 29.8408 38.9879 30.5236 38.7746C31.1748 38.6376 31.7554 38.7998 32.2849 39.1833Z" fill="#9EA9B8"/>
<path d="M53.852 36.249C54.4529 37.8173 53.7587 38.5569 52.2326 38.6388C51.013 38.7045 49.7861 38.6453 48.5624 38.6412C48.2843 38.0419 48.5624 37.5805 48.9306 37.141C49.1179 37.034 49.3222 36.9796 49.5379 36.974C50.344 37.1248 51.1549 37.1532 51.965 36.9967C52.8051 37.2829 53.02 35.983 53.852 36.249Z" fill="#4A4445"/>
<path d="M33.3448 31.9776C33.1631 31.916 32.9823 31.8552 32.8007 31.7936C31.8981 31.4149 31.8705 30.4199 31.367 29.7606L31.3759 29.7671C30.9242 29.5562 30.462 29.3559 30.3995 28.7664C30.5447 28.6391 30.6898 28.5118 30.835 28.3837C31.59 27.8387 32.469 28.258 33.2686 28.0723C34.3949 28.3366 33.9813 29.2821 34.1184 29.9844C34.0487 30.5034 33.8686 30.9932 33.704 31.4887C33.6237 31.68 33.5045 31.8438 33.3448 31.9776Z" fill="#30343B"/>
<path d="M34.2879 33.7733C34.2985 33.0046 33.6116 32.6016 33.3448 31.978L33.2216 31.8912L33.2597 31.7452C33.644 31.4501 34.0609 31.2238 34.5466 31.1435C35.145 31.0057 35.7451 30.8475 36.3452 31.1379C36.7336 31.476 37.0985 31.8223 36.7353 32.394C36.1352 33.2357 35.6 34.1926 34.2879 33.7725V33.7733Z" fill="#C4D0DC"/>
<path d="M25.4229 39.6589C25.431 39.0134 25.4383 38.3688 25.4464 37.7233C25.6808 37.2181 26.0368 36.9164 26.6336 37.0145C27.9952 37.3243 28.6171 38.0898 28.1695 39.513C27.8273 40.1122 27.2726 40.3409 26.619 40.3969C26.0814 40.3774 25.7546 40.0149 25.4221 39.6597L25.4229 39.6589Z" fill="#494A51"/>
<path d="M46.999 36.743C45.8207 35.7748 45.8531 33.8335 44.1899 33.2553C44.34 33.0842 44.5232 32.9609 44.7365 32.8814C45.0641 32.7898 45.3974 32.772 45.7347 32.8093C46.1848 32.8733 46.5773 33.0558 46.8976 33.3834C47.3136 33.8683 47.861 34.2268 48.2453 34.7465C48.5397 35.6759 47.942 36.1681 47.3136 36.6449C47.209 36.679 47.1044 36.7114 46.999 36.743Z" fill="#575E68"/>
<path d="M48.6662 28.2441C48.8324 28.3869 48.9979 28.5304 49.1641 28.6731C49.4658 29.2497 49.5744 29.9025 49.8793 30.4782C50.0131 30.7774 50.0748 31.0969 50.1534 31.4124C50.2045 31.5292 50.1721 31.6151 50.0569 31.6703C50.3213 32.0035 50.3691 32.3685 50.2167 32.7634C49.8818 33.2232 49.4252 33.447 48.8608 33.4624C46.9608 32.7601 48.0669 31.2259 47.9096 30.0379C47.9753 29.3608 47.9956 28.6642 48.667 28.2441H48.6662Z" fill="#707F91"/>
<path d="M53.8519 36.2492C53.1318 36.3684 53.1659 37.9237 52.0112 37.2158C51.7249 37.4915 51.3916 37.4615 51.0478 37.3618C50.6431 37.0382 50.5985 36.6068 50.6796 36.1397C50.7494 35.937 50.867 35.7627 51.0316 35.6248C51.5603 35.5753 51.8976 35.1585 52.3363 34.9242C53.1254 34.719 53.5973 35.1326 53.963 35.7521C53.9257 35.9175 53.8892 36.083 53.8519 36.2484V36.2492Z" fill="#433E42"/>
<path d="M27.3667 32.7188C27.8605 33.0715 28.3544 33.4242 28.8474 33.777C29.2066 34.4971 28.7193 35.0461 28.4703 35.6437C27.8686 36.0492 27.4729 35.5067 26.9961 35.3299C26.709 35.1791 26.443 35.0031 26.2963 34.6974C26.6141 34.017 26.615 33.1656 27.3659 32.7188H27.3667Z" fill="#63646D"/>
<path d="M49.0433 37.2021C48.8835 37.6814 48.7229 38.1614 48.5632 38.6407C46.9625 38.8978 47.1117 37.713 46.9998 36.744C47.0898 36.795 47.1765 36.7902 47.2601 36.7277C48.0337 36.212 48.757 35.8876 49.0441 37.2013L49.0433 37.2021Z" fill="#393538"/>
<path d="M40.7654 26.9951C40.7873 27.1345 40.7517 27.2562 40.6576 27.3616C39.1988 28.7247 38.7949 27.5822 38.3984 26.4136C38.3457 26.0276 38.4308 25.6798 38.6952 25.3838C39.1874 25.1697 39.6861 25.1583 40.1905 25.3408C40.5603 25.8306 40.9966 26.2969 40.7663 26.9951H40.7654Z" fill="#191B1E"/>
<path d="M33.794 28.3316C32.8079 28.3486 31.821 28.3664 30.835 28.3835C31.9475 27.665 33.4396 27.5888 34.257 26.3691C34.733 26.7592 34.9325 27.2839 34.9917 27.8774C34.9763 28.1159 34.8895 28.3234 34.7241 28.497C34.3778 28.6462 34.0567 28.6535 33.7932 28.3316H33.794Z" fill="#CAD1D9"/>
<path d="M25.4229 39.6582C25.8129 39.6752 26.2127 39.6687 26.4568 40.0612C26.576 40.2088 26.6838 40.3637 26.782 40.5267C26.8785 40.8048 26.906 41.0822 26.7779 41.3587C26.263 42.3358 25.761 42.4891 25.4537 41.2654C25.3264 40.7594 25.4269 40.1958 25.4237 39.659L25.4229 39.6582Z" fill="#9298A3"/>
<path d="M32.285 39.1839L30.3379 39.1474C30.166 38.9933 30.0509 38.8052 29.999 38.5797C29.9665 38.0907 30.1295 37.7007 30.5723 37.4534C30.951 37.2231 31.4465 37.5555 31.8017 37.2012C31.9882 37.3998 32.1747 37.5993 32.3612 37.798C31.8552 38.2335 32.1179 38.7111 32.285 39.183V39.1839Z" fill="#2B292B"/>
<path d="M45.1331 26.9057C45.3042 26.7151 45.4753 26.5245 45.6464 26.334C46.4613 26.8108 47.2763 27.2884 48.0913 27.7652C48.0459 27.8601 48.0013 27.955 47.9567 28.0515C47.6299 28.3507 47.2406 28.5007 46.8011 28.5308C45.841 28.4042 45.2012 27.9477 45.1339 26.9049L45.1331 26.9057Z" fill="#5F646E"/>
<path d="M44.7308 33.1921C44.5508 33.2131 44.3707 33.2342 44.1907 33.2553C43.688 33.0696 43.186 32.8839 42.6832 32.6974C42.6962 32.0957 42.7084 31.4932 42.7213 30.8915C43.5379 30.5606 43.9045 31.1867 44.3489 31.653C44.6302 32.1273 44.8905 32.6082 44.7316 33.1929L44.7308 33.1921Z" fill="#4F5762"/>
<path d="M53.9631 35.7506C53.3825 35.3127 52.7516 35.0621 52.0096 35.2349C51.6479 35.4838 51.3665 35.2835 51.086 35.0703C50.9368 34.8773 50.8743 34.6616 50.9108 34.4191C51.0941 34.0793 51.3949 33.9123 51.759 33.8336C52.2715 33.7444 52.6981 33.9196 53.0695 34.2626C53.7936 34.5034 54.0126 35.0467 53.9623 35.7506H53.9631Z" fill="#B3C5D3"/>
<path d="M26.7771 41.3592C26.675 41.1168 26.5736 40.8743 26.4714 40.631C27.3107 40.0893 28.0787 40.5702 28.8653 40.7948C29.3259 41.2522 30.3646 41.0478 30.3371 42.0688C29.0939 42.1142 27.8581 42.1255 26.7763 41.3592H26.7771Z" fill="#808999"/>
<path d="M50.0643 32.7638C50.0618 32.3989 50.0586 32.0348 50.0562 31.6699C50.7503 31.7964 51.5028 31.708 52.0883 32.2286C51.9667 32.8125 52.0859 33.4783 51.5117 33.9072C50.5086 34.1846 50.1113 33.6956 50.0643 32.7638Z" fill="#41454B"/>
<path d="M34.2903 34.2312C32.9498 34.6472 31.6151 34.8426 30.3014 34.1347C31.5956 33.6684 32.9498 33.8922 34.2757 33.7852C34.3633 33.9311 34.3681 34.0795 34.2903 34.2312Z" fill="#CAD1D9"/>
<path d="M51.4671 33.8244C51.5676 33.2511 51.5392 32.6275 52.089 32.2285C52.7605 32.741 53.007 33.4579 53.0702 34.2631C52.5569 34.259 52.0444 34.255 51.5311 34.2509C51.3552 34.1804 51.287 34.0936 51.3268 33.9906C51.3689 33.8795 51.416 33.8244 51.4671 33.8244Z" fill="#121216"/>
<path d="M27.3708 34.7547C27.6984 35.0799 28.0268 35.4059 28.3544 35.7311C28.3941 35.8316 28.4347 35.9322 28.4744 36.0335C28.3041 36.8023 27.7673 37.0829 27.0407 37.112C26.8266 37.0804 26.6207 37.0164 26.4244 36.9239C26.1171 36.7828 25.9046 36.5582 25.8154 36.2257C25.8592 36.0611 25.9038 35.8957 25.9476 35.7311C26.3004 35.2291 27.0156 35.2534 27.3708 34.7539V34.7547Z" fill="#504B50"/>
<path d="M39.2215 31.3613C38.889 31.6703 38.5557 31.9801 38.2233 32.289C37.8989 32.2744 37.5745 32.2598 37.2502 32.246C36.6906 31.5178 37.118 31.0386 37.667 30.5885C38.1852 30.3509 38.6928 30.3493 39.1842 30.6615C39.3902 30.8837 39.4023 31.1172 39.2215 31.3613Z" fill="#292E34"/>
<path d="M37.7675 30.7989C37.5243 31.2562 37.1342 31.6609 37.251 32.2455C37.0791 32.295 36.9072 32.3445 36.7352 32.3939C36.5617 32.0542 36.3882 31.7136 36.2154 31.3738C36.1011 31.2424 36.046 31.1005 36.05 30.9481C36.0541 30.7908 36.0703 30.7121 36.0987 30.7113C36.4855 30.1509 36.9777 29.8931 37.6556 30.1664C37.7894 30.2872 37.8502 30.421 37.8389 30.5678C37.8267 30.721 37.8032 30.7981 37.7675 30.7981V30.7989Z" fill="#707D8A"/>
<path d="M34.6398 27.9619C34.1378 27.5207 34.3008 26.9198 34.2578 26.3692C34.6097 26.2403 34.9609 26.1114 35.3128 25.9824C35.7856 26.2038 36.041 26.5379 35.8878 27.0861C35.6234 27.5921 35.4353 28.2116 34.6398 27.9619Z" fill="#91A0AE"/>
<path d="M35.711 26.8985C35.578 26.5928 35.445 26.2871 35.312 25.9814C36.114 25.7916 36.916 25.6019 37.7172 25.4121C38.0018 25.687 38.0221 26.0089 37.8859 26.3593C37.4918 26.8458 36.9306 26.9812 36.3557 27.0899C36.1197 27.0996 35.9048 27.0339 35.711 26.8985Z" fill="#6A7483"/>
<path d="M50.1526 31.4114C49.9466 31.2079 49.7407 31.0035 49.5347 30.8C49.3903 30.2137 48.8024 29.4798 50.0196 29.3477C50.2078 30.0264 50.923 30.6719 50.1526 31.4122V31.4114Z" fill="#464D58"/>
<path d="M37.7197 26.3908C37.7197 26.0648 37.718 25.7388 37.718 25.412C38.044 25.4023 38.3692 25.3925 38.6952 25.3828C38.722 25.7153 38.7479 26.047 38.7747 26.3794C38.9012 26.583 38.906 26.7897 38.7901 26.9998C38.4754 27.3647 38.1332 27.6209 37.6459 27.2795C37.4545 26.9657 37.4212 26.6649 37.7197 26.3908Z" fill="#768090"/>
<path d="M30.3996 28.7664C30.7247 29.1005 31.0499 29.4338 31.3759 29.7671C30.6956 29.7874 30.0152 29.8085 29.3348 29.8287C29.5749 29.3592 29.7354 28.8102 30.4004 28.7656L30.3996 28.7664Z" fill="#CAD1D9"/>
<path d="M27.3708 34.7552C27.344 35.7315 26.6588 35.7502 25.9477 35.7323C25.882 35.3261 25.8236 34.923 26.2972 34.6992C26.6548 34.7179 27.0132 34.7373 27.3708 34.756V34.7552Z" fill="#42393B"/>
<path d="M40.7654 26.9941C40.5733 26.4427 40.3819 25.8913 40.1897 25.3398C40.6625 25.3739 41.136 25.408 41.6088 25.442C41.3274 25.9594 41.0468 26.4767 40.7654 26.9941Z" fill="#292A2F"/>
<path d="M50.0196 29.3477C49.3425 29.6607 49.6693 30.307 49.5355 30.8009C48.8137 30.1959 49.1227 29.4118 49.1641 28.6738C49.5314 28.7947 49.9425 28.8603 50.0204 29.3485L50.0196 29.3477Z" fill="#8E9CAC"/>
<path d="M48.6661 28.2441C48.6126 28.935 48.5591 29.6267 48.5064 30.3176C47.1441 29.8221 47.4798 28.9747 48.0417 28.0803C48.1066 27.9829 48.1228 27.8775 48.092 27.7656C48.2834 27.9254 48.4756 28.0843 48.667 28.2441H48.6661Z" fill="#363A40"/>
<path d="M30.3379 42.0692C29.8538 41.7676 29.3689 41.4659 28.8848 41.1634C29.36 40.7507 29.8595 40.882 30.3623 41.1002C30.7645 41.311 30.7831 41.684 30.7726 42.0692L30.5552 42.1049L30.3379 42.07V42.0692Z" fill="#545663"/>
<path d="M25.8154 36.2274C26.0044 36.3944 26.1933 36.5615 26.3823 36.7285C26.5144 36.8234 26.5582 36.9175 26.5128 37.0107C26.4674 37.1032 26.4228 37.1494 26.3774 37.1494C26.0668 37.3408 25.757 37.5329 25.4465 37.7243C25.3475 37.1705 25.2981 36.6288 25.8154 36.2266V36.2274Z" fill="#868892"/>
<path d="M38.6181 26.8731C38.67 26.7093 38.7219 26.5447 38.7738 26.3809C39.1566 27.1772 39.571 27.9143 40.6568 27.3621C41.2658 28.1714 41.3258 28.9628 40.5789 29.7275C40.4605 30.3625 40.2813 30.9593 39.6131 31.2447C39.4777 31.2682 39.3472 31.3072 39.2215 31.3615C39.2117 31.1758 39.202 30.9901 39.1923 30.8044C38.516 30.1557 38.58 29.1582 38.0708 28.4292C37.8916 27.7837 38.4608 27.401 38.6173 26.8731H38.6181Z" fill="#2D3339"/>
<path d="M44.7308 33.1935C44.3456 32.8181 44.1291 32.3721 44.1542 31.8239C43.9807 31.0973 44.2215 30.4494 44.5337 29.8145C44.7024 29.3182 44.8719 28.8211 45.0406 28.3248C45.7582 27.8739 46.1629 28.2121 46.4394 28.8762C46.5302 29.3417 46.4264 29.7918 46.3177 30.2378C46.2845 30.4462 46.2399 30.6562 46.201 30.8646C46.1393 31.2652 46.0826 31.6698 45.9269 32.0485C45.4484 32.2894 45.8109 32.8513 45.5085 33.1611C45.249 33.1717 44.9895 33.183 44.7308 33.1935Z" fill="#1F2125"/>
<path d="M44.533 29.8145C44.5184 30.5054 44.7673 31.2457 44.1535 31.8239C43.6758 31.5133 43.1982 31.2027 42.7206 30.8922C42.8171 29.6798 44.018 30.3229 44.533 29.8145Z" fill="#667180"/>
<path d="M46.0973 29.3366C46.0656 28.6651 45.6869 28.3562 45.0406 28.3245C44.8452 27.8364 44.4762 27.3377 45.1331 26.9062C45.7234 27.4682 46.2538 28.1105 47.0817 28.3513C47.1458 28.4559 47.2098 28.5613 47.2739 28.6659C47.2147 29.4744 46.8928 29.8207 46.0973 29.3366Z" fill="#363A40"/>
<path d="M39.614 31.2438C39.5808 30.5123 40.0779 30.1182 40.5798 29.7266C40.7501 30.3031 41.471 30.8416 40.9042 31.47C40.4922 31.9274 40.043 31.3687 39.614 31.2438Z" fill="#6D798A"/>
<path d="M28.3544 35.732C28.2782 35.02 28.5361 34.3932 28.8475 33.7793C29.3438 33.9463 29.84 34.1126 30.3363 34.2796C30.4093 35.3476 29.1702 35.0922 28.8434 35.7571C28.6885 35.9501 28.5296 35.9444 28.3674 35.7677L28.3544 35.7328V35.732Z" fill="#4F5059"/>
<path d="M31.367 29.7598C32.6701 29.8563 32.0733 31.2916 32.8007 31.7927C31.0515 32.0109 31.3167 30.8091 31.367 29.7598Z" fill="#CAD1D9"/>
<path d="M30.7588 37.6664C30.3428 37.9081 30.2787 38.3249 30.2219 38.745C29.7767 39.1107 29.3072 39.1269 28.8158 38.8415C28.4298 38.4247 28.3828 37.9389 28.5296 37.4151C28.6909 37.038 28.965 36.802 29.3778 36.7412C29.6843 36.7396 29.9908 36.7379 30.2965 36.7363C30.7466 36.8993 31.0718 37.1239 30.758 37.6656L30.7588 37.6664Z" fill="#595E6B"/>
<path d="M29.3777 36.7416C29.2001 36.9029 29.0226 37.0643 28.8442 37.2257C28.0478 37.559 27.2458 37.9149 26.8096 36.7391C27.5297 36.7359 28.0592 36.4269 28.3665 35.7652C28.5255 35.7498 28.6836 35.7457 28.8425 35.7547C29.0209 36.0839 29.1985 36.4123 29.3769 36.7407L29.3777 36.7416Z" fill="#453D42"/>
<path d="M30.7588 37.6666C30.6055 37.3568 30.4514 37.0471 30.2974 36.7373C31.1683 35.6961 31.2826 37.1038 31.8016 37.2011C31.5843 37.6471 31.191 37.7015 30.758 37.6666H30.7588Z" fill="#3E393E"/>
<path d="M30.3614 41.0994C29.8692 41.1205 29.3762 41.1416 28.8839 41.1627C28.0795 40.9859 27.2743 40.8083 26.4707 40.6315C26.4658 40.4418 26.4609 40.2528 26.4561 40.0623C26.8996 39.9147 27.344 39.7679 27.7876 39.6203C27.9417 39.4727 28.1233 39.4314 28.3285 39.4808C28.6244 39.6187 28.6877 39.9463 28.8888 40.162C29.3794 40.4742 29.8708 40.7864 30.3614 41.0986V41.0994Z" fill="#777F8D"/>
<path d="M28.8888 40.1636C28.7088 39.9949 28.5288 39.8262 28.3488 39.6584C28.0787 39.1183 28.4161 38.9107 28.8451 38.7534C29.3048 38.751 29.7638 38.7485 30.2236 38.7461C30.2901 38.8718 30.329 39.0056 30.3396 39.1475C29.8563 39.4865 29.373 39.8246 28.8897 40.1636H28.8888Z" fill="#77808E"/>
<path d="M49.0433 37.2009C48.5843 36.5319 47.8829 36.7728 47.2593 36.7266C46.8798 35.8321 48.2008 35.6026 48.0199 34.786C48.8511 35.1428 48.9063 34.0108 49.5437 33.9913C50.1908 33.9516 50.6303 34.3027 51.0138 34.7625L50.9684 34.8639C51.3009 35.1372 51.3301 35.4267 51.0146 35.7348L51.0309 35.7235C50.696 35.9903 50.5532 36.3892 50.3351 36.7371C50.1307 36.9893 49.8826 37.1677 49.5509 37.2066C49.3815 37.205 49.2128 37.2034 49.0433 37.2018V37.2009Z" fill="#37393E"/>
<path d="M49.5509 37.2056C49.7066 37.0459 49.8623 36.8869 50.0171 36.7272C50.584 36.368 50.7324 36.8894 50.9862 37.1878C51.3276 37.1967 51.6698 37.2056 52.0112 37.2137C51.1889 37.8746 50.3683 37.9663 49.55 37.2056H49.5509Z" fill="#373337"/>
<path d="M33.794 28.331C34.1119 28.3116 34.4305 28.2929 34.7484 28.2734C35.1028 28.3521 35.3396 28.5727 35.4993 28.8897C35.6112 29.2271 35.5983 29.5595 35.4645 29.8888C35.2885 30.1969 35.0404 30.4256 34.7103 30.561C34.3559 30.6429 34.0332 30.5951 33.768 30.3234C33.6456 29.6577 33.2928 28.9887 33.794 28.3318V28.331Z" fill="#707D8B"/>
<path d="M33.7672 30.3242C34.1127 30.2959 34.4581 30.2667 34.8036 30.2383C35.2196 30.7613 35.1409 31.2568 34.7201 31.7336C34.2351 31.9801 33.7486 32.0191 33.2588 31.745C33.3253 31.2349 33.2028 30.6567 33.7664 30.3242H33.7672Z" fill="#464D55"/>
<path d="M34.7209 31.7341C34.7485 31.2362 34.7753 30.7383 34.8037 30.2396C34.9602 30.1026 35.1167 29.9663 35.2724 29.8301C35.6713 29.7279 36.0833 29.496 36.4312 29.9396C36.535 30.2664 36.4977 30.564 36.2422 30.8137C36.2333 31.0011 36.2244 31.1876 36.2155 31.3757C35.7176 31.4957 35.2188 31.6149 34.7209 31.7349V31.7341Z" fill="#737D8D"/>
<path d="M28.8442 38.7534C28.6788 39.055 28.5133 39.3567 28.3487 39.6584C28.1622 39.6462 27.9757 39.634 27.7884 39.6219C28.3649 38.2011 27.1202 37.8192 26.3774 37.1502C26.3693 37.0091 26.3717 36.8688 26.3823 36.7285C26.525 36.7415 26.6685 36.7447 26.8112 36.7399C27.3602 37.4389 28.1484 37.1405 28.845 37.2264C28.845 37.7357 28.845 38.2441 28.845 38.7534H28.8442Z" fill="#6D717D"/>
<path d="M49.7277 34.2381C49.1373 34.3541 48.8357 35.3694 48.0199 34.7871C47.4222 34.6631 46.9268 34.4052 46.7046 33.7873C46.7905 33.2294 46.8035 32.6698 46.7435 32.1135C46.3786 31.6846 45.9229 31.3391 45.6277 30.8542C45.6301 30.6636 45.6326 30.4722 45.635 30.2817C46.3551 29.8122 47.8707 29.95 47.11 28.3509H47.0817C47.3014 27.9073 47.642 27.8887 48.041 28.0809C48.1383 28.8391 47.788 29.6897 48.5064 30.319C48.976 31.2596 47.3639 32.5709 49.0368 33.2975C49.5225 33.4232 49.7601 33.7313 49.7277 34.2373V34.2381Z" fill="#212428"/>
<path d="M47.5574 31.8102C47.5663 32.596 47.1544 33.1993 46.7035 33.7864C46.3054 33.578 45.9072 33.3696 45.5082 33.1612C45.5123 32.866 45.0574 32.5263 45.5942 32.2838C46.1846 31.8597 46.7343 31.2702 47.5574 31.8102Z" fill="#383D45"/>
<path d="M49.7276 34.2382C49.4973 33.9252 49.267 33.6114 49.0367 33.2984C49.263 32.8978 49.6595 32.8248 50.0642 32.7656C50.5783 33.0576 50.734 33.8231 51.4671 33.8255C51.5068 33.965 51.5279 34.1077 51.5311 34.252C51.3584 34.4223 51.1857 34.5934 51.0129 34.7637C50.4542 34.9064 50.0861 34.5837 49.7276 34.2382Z" fill="#8E9CAC"/>
<path d="M51.0138 35.7342C50.9983 35.4439 50.9829 35.1536 50.9675 34.8633C51.3146 34.9874 51.6625 35.1114 52.0096 35.2347C52.0314 35.5096 52.0525 35.7837 52.0744 36.0586C51.7209 35.9499 51.3673 35.8421 51.0138 35.7334V35.7342Z" fill="#545A64"/>
<path d="M50.9863 37.1882C50.6635 37.0349 50.3408 36.8808 50.0172 36.7276C50.0205 36.0561 50.3505 35.7139 51.03 35.7228C51.0154 36.211 51.0009 36.7 50.9863 37.1882Z" fill="#60646E"/>
<path d="M35.2164 28.8805C35.0607 28.6786 34.9042 28.4775 34.7485 28.2747C34.716 28.1685 34.6804 28.0631 34.6406 27.9609C34.9966 27.6074 35.3542 27.253 35.7118 26.8994C35.8862 26.8848 36.0613 26.8694 36.2365 26.8548C36.9574 26.6237 36.9534 27.1541 37.0271 27.6049C36.9915 27.9601 36.8569 28.2788 36.672 28.5804C36.5414 28.7751 36.3744 28.9316 36.1749 29.0548C35.8246 29.1732 35.5018 29.1286 35.2164 28.8813V28.8805Z" fill="#9AA6B5"/>
<path d="M38.3003 28.3848C39.794 28.7497 38.9734 29.9685 39.1931 30.8029C38.718 30.8013 38.2428 30.7997 37.7676 30.798C37.7059 30.6456 37.6719 30.4867 37.6646 30.322C37.6613 30.0569 37.6784 29.7925 37.7205 29.5298C37.7497 29.2581 37.8024 28.9921 37.9014 28.7359C37.9857 28.5632 38.1219 28.4488 38.3003 28.3848Z" fill="#17181B"/>
<path d="M38.1737 29.837C38.0042 29.9992 37.8348 30.1613 37.6645 30.3227C37.1901 30.4857 36.7157 30.6487 36.2413 30.8125C36.2154 30.4768 36.1902 30.1411 36.1643 29.8062C35.9202 29.4721 35.9526 29.1485 36.2 28.8323C36.2543 28.6806 36.3119 28.5306 36.3727 28.3814C37.4147 28.3214 37.5607 29.3666 38.1729 29.8378L38.1737 29.837Z" fill="#4D5761"/>
<path d="M36.6987 27.7734C36.706 27.3858 36.6306 27.0396 36.2357 26.8539C36.5998 26.2814 37.1772 26.3916 37.7197 26.3908C37.7148 26.7022 37.7108 27.0136 37.7059 27.325C37.6637 27.4329 37.6224 27.5407 37.581 27.6494C37.3159 27.8959 37.0434 28.0938 36.6987 27.7726V27.7734Z" fill="#7E8A9A"/>
<path d="M38.3002 28.3843C38.2686 28.531 38.2329 28.6762 38.1932 28.8213C37.0871 28.6689 37.3855 28.0404 37.7115 27.4022C37.7115 27.4022 37.7058 27.326 37.7058 27.3252C38.0099 27.1736 38.314 27.0227 38.6181 26.8711C38.5119 27.3755 38.4057 27.8799 38.2994 28.3834L38.3002 28.3843Z" fill="#667181"/>
<path d="M47.1101 28.3496C48.221 30.2163 47.5115 30.6948 45.635 30.2812C45.7891 29.9658 45.9432 29.6511 46.0972 29.3357C46.7435 29.3243 47.0606 28.9732 47.1101 28.3496Z" fill="#323941"/>
<path d="M47.5577 31.8112C46.9033 31.9693 46.2489 32.1267 45.5945 32.2848C45.605 31.808 45.6164 31.3303 45.6277 30.8535C46.2205 31.2744 47.0955 31.1284 47.5577 31.8112Z" fill="#2F3339"/>
<path d="M36.2008 28.8301C36.1894 29.1544 36.1772 29.4796 36.1651 29.804C35.8683 29.8826 35.5837 30.3846 35.2715 29.8275C35.2536 29.5112 35.235 29.195 35.2163 28.8787C35.5439 28.8625 35.8723 28.8463 36.1999 28.8301H36.2008Z" fill="#8A96A5"/>
<path d="M37.7124 27.4023C37.7707 27.91 37.5948 28.4971 38.194 28.8214C38.1876 29.1596 38.1811 29.4977 38.1746 29.8359C37.1471 29.8773 36.8941 28.9625 36.3735 28.3795C36.4822 28.1776 36.5909 27.9757 36.6987 27.7737C37.0369 27.6497 37.3742 27.5264 37.7124 27.4023Z" fill="#444B55"/>
</g>
<path d="M39.7318 46.9421C43.9976 46.9421 47.4557 43.4839 47.4557 39.2181C47.4557 34.9523 43.9976 31.4941 39.7318 31.4941C35.4659 31.4941 32.0078 34.9523 32.0078 39.2181C32.0078 43.4839 35.4659 46.9421 39.7318 46.9421Z" fill="white"/>
<path d="M22.79 46.9699C22.4122 46.4412 22.0351 45.9117 21.4634 45.1113H25.2203C25.625 45.3789 26.1724 45.3076 26.543 45.6611C26.9444 45.9587 27.4747 46.1006 27.6993 46.614C27.6977 46.8386 27.6109 47.0227 27.4406 47.1694C26.9484 47.4597 26.4189 47.4841 25.8739 47.3932C25.2609 47.3 24.8295 46.781 24.2164 46.6869C23.7169 46.6626 23.2733 46.9189 22.7908 46.9699H22.79Z" fill="#858994"/>
<path d="M35.6812 48.7383C36.7378 49.9741 38.9176 50.3585 38.4675 52.7499C38.2826 53.7311 38.0361 54.1528 37.0468 53.9646C36.8992 53.7984 36.8368 53.603 36.8432 53.3832C36.8789 52.5082 37.2041 51.5522 36.1605 50.9837C35.7753 50.7088 35.4193 50.3901 34.9871 50.1801C34.8168 50.0844 34.6765 49.9555 34.5589 49.8006C34.4794 49.1705 34.9133 48.9507 35.3877 48.7642C35.485 48.7545 35.5831 48.7464 35.6812 48.7383Z" fill="#41434A"/>
<path d="M25.6761 46.9608C26.2989 46.9462 26.9216 46.9316 27.5444 46.917C27.9353 47.2852 27.9596 47.7263 27.8015 48.2023C27.5809 49.1081 25.9923 48.1172 26.0718 49.4454C24.9576 48.9565 23.9099 48.3872 23.3601 47.213C23.3479 46.9884 23.4493 46.844 23.665 46.7783C24.3559 46.6016 24.9665 47.3241 25.6761 46.96V46.9608Z" fill="#4C535D"/>
<path d="M32.6451 51.2628C31.8821 50.4738 31.4377 49.3798 30.3648 48.8868C30.2238 48.423 30.5019 48.191 30.8546 47.9989C31.6015 47.7377 32.337 47.7377 33.0538 48.1035C33.5793 48.5203 33.2728 49.2323 33.6255 49.7164C33.6166 50.434 33.9053 51.3431 32.6443 51.2628H32.6451Z" fill="#2E3238"/>
<path d="M26.0718 49.4454C25.891 49.0464 25.7094 48.6483 25.4596 48.0977C26.2113 48.186 26.886 48.2655 27.5599 48.3442C27.8275 48.0904 28.134 48.0644 28.4673 48.1885C28.8808 48.4569 28.9879 48.8753 29.026 49.327C28.0886 50.5442 27.0952 50.3779 26.0718 49.4454Z" fill="#33383F"/>
<path d="M33.2412 48.4224C32.4505 48.3973 31.6607 48.3713 30.87 48.3462C30.5132 48.064 30.2229 47.7404 30.1962 47.2539C30.2278 47.0244 30.334 46.8363 30.5116 46.6871C31.4685 46.1884 32.41 46.01 33.2914 46.8282C33.6734 46.8784 32.693 47.7088 33.6669 47.4704C34.2037 47.339 34.7016 47.575 35.1549 47.8702C35.3301 48.1597 35.5052 48.4484 35.6804 48.7379C35.6342 48.836 35.5693 48.9203 35.4858 48.9909C34.7276 48.8392 33.868 49.0898 33.2403 48.4224H33.2412Z" fill="#4F5861"/>
<path d="M32.6451 51.2637C33.4584 50.8031 33.177 50.0067 33.2419 49.3175C33.6847 48.9331 34.0301 49.0953 34.3326 49.5088C34.5945 50.5233 35.5636 51.4161 34.8767 52.6C34.6042 52.9796 34.2191 53.1847 33.7787 53.3015C33.5574 53.3242 33.3498 53.2763 33.1551 53.1701C32.834 52.7314 33.237 52.0867 32.7383 51.6967C32.6224 51.571 32.5916 51.4266 32.6451 51.2645V51.2637Z" fill="#38404B"/>
<path d="M33.3189 46.969C32.3588 46.6049 31.3914 46.9025 30.4264 46.9366C29.7217 47.2723 29.24 46.9584 28.8427 46.3941C28.8127 46.1151 28.914 45.8978 29.1459 45.7396C29.3844 45.6229 29.6341 45.5588 29.8985 45.5458C31.1976 45.6431 32.5567 45.1834 33.7779 45.9756C33.8452 46.0843 33.8817 46.2019 33.8866 46.33C33.9733 46.7873 33.739 46.9609 33.3189 46.9698V46.969Z" fill="#4E5762"/>
<path d="M33.778 45.9755C32.3451 45.9755 30.9122 45.9755 29.4793 45.9755C29.146 45.463 29.5855 45.3324 29.8937 45.137C31.1482 45.6008 32.8333 44.0747 33.778 45.9746V45.9755Z" fill="#66717F"/>
<path d="M29.8937 45.1384C29.755 45.4182 29.6164 45.6971 29.4785 45.9769C29.3147 45.9866 29.1509 45.9964 28.9871 46.0061C28.7917 46.1707 28.5711 46.2899 28.3262 46.3645C27.5956 46.2388 26.8252 46.3548 26.131 46.0085C25.8278 45.7101 25.5245 45.4117 25.2212 45.1133C26.779 45.1222 28.3367 45.1303 29.8945 45.1392L29.8937 45.1384Z" fill="#595D65"/>
<path d="M36.9762 53.6102C37.0038 53.727 37.0273 53.8446 37.046 53.963C36.1604 54.0992 37.1725 55.9773 35.6269 55.507C34.9749 54.8445 34.8403 54.01 34.837 53.1318C34.9425 52.7531 35.1427 52.4579 35.5377 52.3322C36.4913 52.2244 36.9543 52.6696 36.9754 53.6102H36.9762Z" fill="#636F80"/>
<path d="M30.3493 47.3961C30.7434 47.5924 30.8545 47.9419 30.8699 48.3457C30.7021 48.5265 30.5334 48.7066 30.3656 48.8874C29.8125 48.7074 29.4849 49.215 29.0267 49.3261C28.6188 49.1558 28.5053 48.8031 28.4599 48.409C28.4421 47.9062 28.6091 47.4926 29.0365 47.2015C29.5133 46.9972 29.9463 47.0953 30.3493 47.3961Z" fill="#4C535D"/>
<path d="M35.1289 53.1057C35.5717 53.8493 35.6803 54.6618 35.626 55.5084C35.1484 55.4735 34.6699 55.4387 34.1923 55.4038C33.7658 54.9805 33.9482 54.4558 33.9466 53.9604C34.0082 53.5281 34.2045 53.1827 34.601 52.971C34.8102 52.8835 34.9862 52.9289 35.1289 53.1057Z" fill="#3D4653"/>
<path d="M33.3189 46.9699C33.5078 46.7566 33.6976 46.5433 33.8865 46.3301C34.8264 46.4185 34.8718 47.2424 35.1548 47.8708C34.528 47.8708 33.8776 47.9803 33.28 47.8497C31.9152 47.5529 33.4308 47.2772 33.3189 46.9707V46.9699Z" fill="#8996A8"/>
<path d="M34.1696 54.0299C34.7186 54.4784 34.0382 54.9487 34.1931 55.4036C33.5987 55.295 33.1649 54.9365 32.7821 54.4978C32.5267 53.8515 32.7724 53.3966 33.3327 53.0625C33.4544 53.0812 33.576 53.0974 33.6977 53.1112C34.0893 53.2969 33.9207 53.7704 34.1696 54.0299Z" fill="#4C5967"/>
<path d="M33.3327 53.0637C33.1494 53.5421 32.9662 54.0205 32.7821 54.499C30.6169 53.5989 33.4535 52.6201 32.7383 51.6973C33.3173 51.9876 33.2638 52.552 33.3319 53.0637H33.3327Z" fill="#70829A"/>
<path d="M23.5458 46.9433C23.4663 47.0219 23.4047 47.1111 23.3601 47.2125C23.0746 47.3552 22.9084 47.2182 22.7892 46.9692C23.0754 46.374 23.5255 46.0188 24.2075 46.0059C24.4597 46.6522 24.5586 47.1898 23.545 46.9433H23.5458Z" fill="#4E5866"/>
<path d="M28.9732 47.4128C28.9635 47.828 28.8662 48.1978 28.4599 48.4094C28.1599 48.3883 27.8598 48.3664 27.5598 48.3445C27.5541 47.8685 27.5493 47.3925 27.5436 46.9173C27.563 46.7924 27.5809 46.6676 27.5971 46.5427C27.6749 46.1032 28.202 46.361 28.3626 46.0496C28.5702 46.0351 28.7786 46.0205 28.987 46.0059C28.9813 46.1397 28.9724 46.2743 28.9619 46.4081C29.2562 46.7397 29.2554 47.0755 28.974 47.4136L28.9732 47.4128Z" fill="#565F6B"/>
<path d="M23.5458 46.944C24.0404 46.8248 24.2286 46.4891 24.2083 46.0066C24.9746 45.898 25.1757 46.6586 25.6761 46.9603C24.9616 47.6001 24.2513 47.5976 23.5466 46.944H23.5458Z" fill="#768292"/>
<path d="M28.3626 46.05C28.2621 46.4546 27.9012 46.4538 27.5971 46.5422C27.0927 46.4068 26.4553 46.6346 26.131 46.0078C26.8746 46.0216 27.619 46.0354 28.3626 46.05Z" fill="#AFBAC6"/>
<path d="M36.9762 53.611C36.4767 53.345 36.3802 52.5503 35.6431 52.5974C35.3309 52.3841 35.2936 52.076 35.343 51.7362C35.4752 51.3032 35.6869 50.9309 36.1256 50.7363C37.7344 50.8985 37.9047 51.4759 36.9762 53.6118V53.611Z" fill="#393F49"/>
<path d="M35.6358 51.7123C35.6382 52.0075 35.6407 52.3026 35.6431 52.597C35.472 52.7657 35.3009 52.9352 35.1298 53.1046C34.9789 53.1095 34.8281 53.103 34.6781 53.0868C34.5638 53.0138 34.5119 52.9271 34.5232 52.8265C34.5354 52.7195 34.5565 52.6659 34.5873 52.6659C35.1436 51.6045 33.941 50.7781 34.1972 49.7564C34.344 49.5828 34.4924 49.5812 34.6432 49.7515C34.8168 49.7815 34.9903 49.8123 35.1638 49.8423C35.7047 50.3686 35.5685 51.066 35.635 51.7123H35.6358Z" fill="#596373"/>
<path d="M34.6431 49.7532L34.4201 49.7702L34.1971 49.758C33.9774 49.3972 33.6271 49.3193 33.2419 49.3177C32.7196 49.0193 33.1713 48.72 33.2419 48.4224C34.0674 48.3089 34.8621 48.3146 35.4873 48.9909C35.2059 49.2455 34.9245 49.4993 34.6439 49.7532H34.6431Z" fill="#23262C"/>
<path d="M35.6358 51.7126C34.9465 51.2228 35.163 50.5052 35.1638 49.8426C35.798 49.8037 36.0494 50.1751 36.1248 50.7363C36.064 51.1133 36.0258 51.501 35.635 51.7134L35.6358 51.7126Z" fill="#6A7788"/>
<path d="M34.5872 52.6658C34.6278 52.8037 34.6578 52.9439 34.6772 53.0867C34.5085 53.4005 34.3391 53.7151 34.1696 54.0289C34.0123 53.7224 33.8549 53.4159 33.6976 53.1102C33.8866 52.7469 34.2036 52.6399 34.5872 52.6658Z" fill="#262B31"/>
<path d="M66.5542 40.1621H39.3496V68.06H66.5542V40.1621Z" fill="#213B78"/>
<path d="M42.007 48.9695V44.6895H42.5787V48.9695H42.007Z" fill="white"/>
<path d="M45.318 49.0554C44.9125 49.0554 44.5549 48.9646 44.2451 48.7814C43.9353 48.5989 43.6937 48.341 43.521 48.0077C43.3474 47.6745 43.2615 47.282 43.2615 46.8295C43.2615 46.377 43.3507 45.9845 43.5291 45.6512C43.7075 45.3179 43.9516 45.0601 44.2613 44.8776C44.5711 44.6951 44.9238 44.6035 45.3188 44.6035C45.5223 44.6035 45.7121 44.6238 45.8872 44.6643C46.0624 44.7049 46.2181 44.7568 46.3551 44.82L46.2943 45.352C46.1597 45.2847 46.0162 45.2295 45.8629 45.1866C45.7104 45.1436 45.5458 45.1225 45.3707 45.1225C45.0487 45.1225 44.7779 45.1987 44.5573 45.3504C44.3376 45.502 44.1713 45.7072 44.0594 45.965C43.9475 46.2229 43.8916 46.5108 43.8916 46.8287C43.8916 47.1465 43.9475 47.4312 44.0594 47.6891C44.1713 47.9469 44.3368 48.1521 44.5565 48.3053C44.7763 48.4586 45.0463 48.5348 45.3682 48.5348C45.5458 48.5348 45.7104 48.5154 45.8621 48.4756C46.0137 48.4359 46.1581 48.3824 46.2943 48.3151L46.3551 48.847C46.2205 48.9062 46.0681 48.9557 45.8978 48.9954C45.7275 49.0352 45.5345 49.0554 45.3188 49.0554H45.318Z" fill="white"/>
<path d="M46.9803 48.9695V44.6895H49.4317V45.2093H47.552V46.4718H49.0409V46.9916H47.552V48.4497H49.4845V48.9695H46.9812H46.9803Z" fill="white"/>
<path d="M50.1356 48.9695V44.6895H50.7073V48.4497H52.5019V48.9695H50.1356Z" fill="white"/>
<path d="M54.2137 45.2555H54.3913L53.1871 48.9695H52.5822L54.0069 44.6895H54.5997L56.0245 48.9695H55.4195L54.2153 45.2555H54.2137ZM55.143 47.8139H53.462V47.2884H55.143V47.8139Z" fill="white"/>
<path d="M56.5151 48.9695V44.6895H57.1476L59.0427 47.8504V44.6895H59.6177V48.9695H59.11L57.086 45.6309V48.9695H56.5143H56.5151Z" fill="white"/>
<path d="M60.5105 48.9695V44.6895H61.9872C62.3699 44.6895 62.7105 44.7738 63.0081 44.9433C63.3057 45.1128 63.5393 45.3568 63.7079 45.6755C63.8774 45.9942 63.9618 46.3794 63.9618 46.8295C63.9618 47.2795 63.8774 47.6647 63.7079 47.9834C63.5385 48.3021 63.3057 48.5462 63.0081 48.7156C62.7105 48.8851 62.3699 48.9695 61.9872 48.9695H60.5105ZM61.0822 48.4497H61.9385C62.2442 48.4497 62.5005 48.3832 62.7073 48.251C62.914 48.1188 63.0697 47.9307 63.1752 47.6882C63.2798 47.4458 63.3325 47.1595 63.3325 46.8295C63.3325 46.4994 63.2798 46.2132 63.1752 45.9707C63.0706 45.7282 62.914 45.5409 62.7073 45.4079C62.5005 45.2757 62.2442 45.2093 61.9385 45.2093H61.0822V48.4497Z" fill="white"/>
<path d="M42.7928 55.782V52.0218H41.6372V51.502H44.52V52.0218H43.3645V55.782H42.7928Z" fill="white"/>
<path d="M46.69 55.8679C46.3113 55.8679 45.974 55.7771 45.678 55.5939C45.3828 55.4114 45.1501 55.1535 44.9806 54.8202C44.8111 54.487 44.7268 54.0945 44.7268 53.642C44.7268 53.1895 44.8111 52.797 44.9806 52.4637C45.1501 52.1304 45.382 51.8726 45.678 51.6901C45.9732 51.5076 46.3105 51.416 46.69 51.416C47.0695 51.416 47.4061 51.5068 47.7021 51.6901C47.9972 51.8726 48.2292 52.1304 48.3978 52.4637C48.5657 52.797 48.65 53.1895 48.65 53.642C48.65 54.0945 48.5657 54.487 48.3978 54.8202C48.23 55.1535 47.998 55.4114 47.7021 55.5939C47.4069 55.7763 47.0695 55.8679 46.69 55.8679ZM46.69 55.3052C46.9893 55.3052 47.239 55.2314 47.4393 55.0838C47.6388 54.9362 47.7888 54.7359 47.8886 54.4845C47.9883 54.2331 48.0386 53.9517 48.0386 53.642C48.0386 53.3322 47.9883 53.0516 47.8886 52.8002C47.7888 52.5489 47.638 52.3486 47.4377 52.201C47.2366 52.0534 46.9876 51.9796 46.69 51.9796C46.3924 51.9796 46.1435 52.0534 45.9424 52.201C45.7413 52.3486 45.5912 52.5489 45.4899 52.8002C45.3885 53.0516 45.3382 53.333 45.3382 53.642C45.3382 53.9509 45.3885 54.2323 45.4899 54.4845C45.5912 54.7367 45.7413 54.9362 45.9424 55.0838C46.1435 55.2314 46.3924 55.3052 46.69 55.3052Z" fill="white"/>
<path d="M50.9117 55.8671C50.5346 55.8671 50.224 55.7925 49.9808 55.6441C49.7375 55.4957 49.5567 55.2832 49.4399 55.0083C49.3223 54.7334 49.2639 54.4058 49.2639 54.0271V51.502H49.8356V53.8682C49.8356 54.0636 49.8486 54.2501 49.8753 54.4277C49.9021 54.6053 49.9524 54.7626 50.027 54.8997C50.1016 55.0375 50.2103 55.1462 50.353 55.2265C50.4957 55.3068 50.6822 55.3473 50.9125 55.3473C51.1428 55.3473 51.335 55.3076 51.4777 55.2265C51.6204 55.1462 51.7283 55.0367 51.8021 54.8981C51.8759 54.7594 51.9253 54.6013 51.9521 54.4245C51.9789 54.2469 51.9918 54.062 51.9918 53.8682V51.502H52.5635V54.0271C52.5635 54.4067 52.5051 54.7334 52.3876 55.0083C52.27 55.2832 52.09 55.4957 51.8467 55.6441C51.6034 55.7925 51.292 55.8671 50.9125 55.8671H50.9117Z" fill="white"/>
<path d="M53.4303 55.782V51.502H54.6742C54.9694 51.502 55.2265 51.549 55.4446 51.6439C55.6627 51.7387 55.8306 51.8823 55.949 52.0753C56.0674 52.2683 56.1266 52.5115 56.1266 52.8075C56.1266 53.0768 56.0666 53.3103 55.9466 53.5073C55.8265 53.7052 55.653 53.8609 55.4268 53.9752L56.3317 55.782H55.6473L54.8307 54.1099C54.8161 54.1099 54.7991 54.1107 54.7788 54.1131C54.7586 54.1155 54.7383 54.1163 54.718 54.1163H54.0182V55.782H53.4311H53.4303ZM54.0174 53.599H54.6475C54.9491 53.599 55.1713 53.5301 55.3157 53.3914C55.46 53.2527 55.5314 53.0581 55.5314 52.8075C55.5314 52.557 55.4592 52.3599 55.3157 52.2237C55.1721 52.0874 54.9491 52.0185 54.6475 52.0185H54.0174V53.599Z" fill="white"/>
<path d="M56.931 55.782V51.502H57.5027V55.782H56.931Z" fill="white"/>
<path d="M59.5381 55.8679C59.3808 55.8679 59.2219 55.8558 59.0597 55.8314C58.8975 55.8071 58.7467 55.7747 58.6072 55.7349C58.4677 55.6952 58.351 55.6539 58.2569 55.6109L58.3364 54.9938C58.4426 55.0505 58.5659 55.1065 58.7061 55.1616C58.8464 55.2168 58.9956 55.2614 59.1538 55.2962C59.3119 55.3311 59.4708 55.3481 59.6322 55.3481C59.8933 55.3481 60.1001 55.2979 60.2526 55.1965C60.405 55.0951 60.482 54.9411 60.482 54.7335C60.482 54.5786 60.4447 54.4505 60.3701 54.3483C60.2955 54.2461 60.1836 54.1561 60.0336 54.0774C59.8836 53.9988 59.6955 53.9185 59.4692 53.8374C59.2389 53.7515 59.0313 53.6582 58.8456 53.5576C58.6599 53.4571 58.5131 53.329 58.4037 53.1741C58.295 53.0192 58.2399 52.8165 58.2399 52.5659C58.2399 52.3356 58.2991 52.1345 58.4175 51.9618C58.5359 51.7899 58.7045 51.6552 58.9251 51.5595C59.1449 51.4639 59.406 51.416 59.7076 51.416C59.9606 51.416 60.1926 51.4428 60.4034 51.4971C60.6142 51.5514 60.787 51.6115 60.9216 51.6788L60.8607 52.278C60.6588 52.158 60.4626 52.0704 60.272 52.0169C60.0815 51.9626 59.8844 51.9358 59.6809 51.9358C59.4441 51.9358 59.2503 51.9828 59.0986 52.0761C58.947 52.1702 58.8708 52.3218 58.8708 52.5318C58.8708 52.6746 58.9081 52.7921 58.9827 52.8838C59.0573 52.9754 59.1667 53.0573 59.3111 53.1287C59.4554 53.2 59.6355 53.2763 59.8487 53.3582C60.1196 53.4579 60.3491 53.5674 60.5364 53.6858C60.7237 53.8042 60.8664 53.9428 60.9645 54.1026C61.0627 54.2623 61.1113 54.4569 61.1113 54.6848C61.1113 54.8665 61.0773 55.0295 61.0091 55.1754C60.941 55.3214 60.8397 55.4455 60.7067 55.5484C60.5729 55.6514 60.4083 55.7301 60.2128 55.7852C60.0174 55.8404 59.792 55.8679 59.5373 55.8679H59.5381Z" fill="white"/>
<path d="M62.5402 55.782V52.0218H61.3846V51.502H64.2675V52.0218H63.1119V55.782H62.5402Z" fill="white"/>
<path d="M41.9827 62.5945V58.3145H43.2209C43.598 58.3145 43.8932 58.4004 44.1073 58.5731C44.3213 58.745 44.4284 59.0086 44.4284 59.363C44.4284 59.6079 44.3765 59.8228 44.2727 60.0093C44.1689 60.1958 44.0116 60.3174 43.8016 60.375L43.8445 60.2347C44.1397 60.2874 44.37 60.4082 44.5338 60.5972C44.6976 60.7861 44.7795 61.044 44.7795 61.3724C44.7795 61.7471 44.6652 62.0447 44.4357 62.2652C44.2062 62.485 43.8891 62.5953 43.4837 62.5953H41.9827V62.5945ZM42.5544 60.0968H43.1471C43.3693 60.0968 43.5388 60.0539 43.6548 59.9671C43.7707 59.8803 43.8291 59.7109 43.8291 59.4578C43.8291 59.2048 43.7707 59.0451 43.6548 58.9599C43.5388 58.8748 43.3693 58.8318 43.1471 58.8318H42.5544V60.0977V60.0968ZM42.5544 62.0747H43.435C43.6548 62.0747 43.8307 62.0155 43.9605 61.8955C44.0902 61.7754 44.1559 61.5954 44.1559 61.353C44.1559 61.0821 44.0894 60.8915 43.9572 60.7813C43.8251 60.671 43.6507 60.6158 43.4342 60.6158H42.5536V62.0739L42.5544 62.0747Z" fill="white"/>
<path d="M47.1644 62.6785C46.7857 62.6785 46.4484 62.5877 46.1524 62.4044C45.8572 62.2219 45.6245 61.9641 45.455 61.6308C45.2855 61.2975 45.2012 60.905 45.2012 60.4525C45.2012 60 45.2855 59.6076 45.455 59.2743C45.6245 58.941 45.8564 58.6831 46.1524 58.5007C46.4476 58.3182 46.7849 58.2266 47.1644 58.2266C47.5439 58.2266 47.8804 58.3174 48.1764 58.5007C48.4716 58.6831 48.7035 58.941 48.8722 59.2743C49.04 59.6076 49.1244 60 49.1244 60.4525C49.1244 60.905 49.04 61.2975 48.8722 61.6308C48.7043 61.9641 48.4724 62.2219 48.1764 62.4044C47.8812 62.5869 47.5439 62.6785 47.1644 62.6785ZM47.1644 62.1157C47.4636 62.1157 47.7134 62.0419 47.9137 61.8943C48.1132 61.7467 48.2632 61.5465 48.3629 61.2951C48.4627 61.0437 48.513 60.7623 48.513 60.4525C48.513 60.1428 48.4627 59.8622 48.3629 59.6108C48.2632 59.3594 48.1124 59.1591 47.9121 59.0115C47.711 58.8639 47.462 58.7901 47.1644 58.7901C46.8668 58.7901 46.6178 58.8639 46.4167 59.0115C46.2156 59.1591 46.0656 59.3594 45.9642 59.6108C45.8629 59.8622 45.8126 60.1436 45.8126 60.4525C45.8126 60.7615 45.8629 61.0429 45.9642 61.2951C46.0656 61.5473 46.2156 61.7467 46.4167 61.8943C46.6178 62.0419 46.8668 62.1157 47.1644 62.1157Z" fill="white"/>
<path d="M50.9546 58.8785H51.1321L49.9279 62.5925H49.323L50.7478 58.3125H51.3406L52.7653 62.5925H52.1604L50.9562 58.8785H50.9546ZM51.8839 61.437H50.2028V60.9115H51.8839V61.437Z" fill="white"/>
<path d="M53.2778 62.5945V58.3145H54.5218C54.8169 58.3145 55.074 58.3615 55.2921 58.4564C55.5103 58.5512 55.6781 58.6948 55.7965 58.8878C55.9149 59.0808 55.9741 59.324 55.9741 59.62C55.9741 59.8893 55.9141 60.1228 55.7941 60.3198C55.6741 60.5177 55.5005 60.6734 55.2743 60.7877L56.1793 62.5945H55.4949L54.6783 60.9224C54.6637 60.9224 54.6467 60.9232 54.6264 60.9256C54.6061 60.928 54.5858 60.9288 54.5656 60.9288H53.8657V62.5945H53.2786H53.2778ZM53.8649 60.4115H54.495C54.7967 60.4115 55.0189 60.3426 55.1632 60.2039C55.3076 60.0652 55.3789 59.8706 55.3789 59.62C55.3789 59.3695 55.3067 59.1724 55.1632 59.0362C55.0197 58.8999 54.7967 58.831 54.495 58.831H53.8649V60.4115Z" fill="white"/>
<path d="M56.7534 62.5945V58.3145H58.2301C58.6128 58.3145 58.9534 58.3988 59.251 58.5683C59.5486 58.7378 59.7822 58.9818 59.9509 59.3005C60.1203 59.6192 60.2047 60.0044 60.2047 60.4545C60.2047 60.9045 60.1203 61.2897 59.9509 61.6084C59.7814 61.9271 59.5486 62.1712 59.251 62.3406C58.9534 62.5101 58.6128 62.5945 58.2301 62.5945H56.7534ZM57.3251 62.0747H58.1814C58.4872 62.0747 58.7434 62.0082 58.9502 61.876C59.157 61.7438 59.3127 61.5557 59.4181 61.3132C59.5227 61.0708 59.5754 60.7845 59.5754 60.4545C59.5754 60.1244 59.5227 59.8382 59.4181 59.5957C59.3135 59.3532 59.157 59.1659 58.9502 59.0329C58.7434 58.9007 58.4872 58.8343 58.1814 58.8343H57.3251V62.0747Z" fill="white"/>
<path d="M15.0872 15.0575L14.7944 14.7298L16.6263 13.0918L16.919 13.4194L16.1738 14.086L18.8709 17.1018L18.5303 17.4067L15.8332 14.3909L15.088 15.0575H15.0872Z" fill="black"/>
<path d="M19.1588 11.0497C19.7176 10.6637 20.3144 10.5266 20.9485 10.6402C21.5827 10.7529 22.0879 11.0821 22.4649 11.627C22.838 12.1671 22.9669 12.755 22.8509 13.3908C22.735 14.0265 22.4074 14.5309 21.8665 14.9048C21.3191 15.2826 20.728 15.4148 20.093 15.2997C19.4581 15.1853 18.9561 14.8618 18.5888 14.3298C18.3439 13.9755 18.2028 13.5878 18.1647 13.1662C18.1274 12.7453 18.1971 12.3463 18.3747 11.9701C18.5523 11.5938 18.8142 11.2873 19.1588 11.0489V11.0497ZM19.4232 11.3967C19.1499 11.5857 18.9407 11.8354 18.7939 12.1468C18.648 12.4582 18.5888 12.7818 18.618 13.1175C18.6471 13.4532 18.7639 13.7695 18.9683 14.0655C19.2716 14.5042 19.6786 14.7693 20.1919 14.8618C20.7044 14.9542 21.1756 14.8521 21.6046 14.5553C21.8908 14.3574 22.1081 14.1052 22.2557 13.7979C22.4033 13.4905 22.4625 13.1694 22.4325 12.8337C22.4025 12.498 22.2857 12.1833 22.0822 11.889C21.8795 11.5962 21.6289 11.3781 21.3288 11.2362C21.0288 11.0935 20.7052 11.0367 20.3598 11.0659C20.0135 11.0951 19.7013 11.2054 19.4232 11.3976V11.3967Z" fill="black"/>
<path d="M22.4795 9.10031L22.8817 8.90245L24.0786 11.3311C24.2205 11.619 24.3146 11.7958 24.3608 11.8615C24.4589 12.0099 24.5708 12.1202 24.6965 12.1907C24.8222 12.2613 24.9779 12.2953 25.1652 12.2929C25.3518 12.2905 25.522 12.2515 25.6753 12.1761C25.8083 12.1104 25.9218 12.0196 26.0167 11.9028C26.1108 11.7861 26.1748 11.6571 26.2073 11.5168C26.2397 11.3766 26.2405 11.2249 26.2081 11.0643C26.1854 10.9492 26.0954 10.7327 25.9389 10.4156L24.7419 7.98693L25.1442 7.78906L26.3411 10.2178C26.5178 10.577 26.6265 10.8843 26.6654 11.1406C26.7044 11.3968 26.6589 11.6587 26.5292 11.9264C26.3995 12.194 26.1854 12.4015 25.8861 12.5491C25.5618 12.7089 25.2455 12.7689 24.9374 12.7275C24.6292 12.687 24.373 12.5581 24.1694 12.3415C24.0429 12.2094 23.8791 11.9385 23.678 11.5306L22.4811 9.10193L22.4795 9.10031Z" fill="black"/>
<path d="M26.6055 7.18433L27.4488 6.88916C27.9183 6.72454 28.2435 6.6321 28.4244 6.61183C28.696 6.58182 28.9433 6.63291 29.1671 6.76752C29.391 6.90132 29.5507 7.10648 29.648 7.38382C29.7291 7.61412 29.7453 7.8355 29.6983 8.04877C29.6513 8.26123 29.5426 8.44774 29.3723 8.60749C29.202 8.76724 28.9401 8.91077 28.5857 9.03646L30.7963 10.4685L30.2732 10.6518L28.0627 9.22054L27.8235 9.30406L28.5119 11.2689L28.0886 11.4173L26.6055 7.18514V7.18433ZM27.1739 7.45031L27.6783 8.88888L28.4098 8.63911C28.692 8.54018 28.8914 8.44044 29.0082 8.33908C29.125 8.23771 29.2004 8.11526 29.2353 7.97011C29.2701 7.82577 29.2612 7.68061 29.2101 7.53465C29.1607 7.39274 29.0763 7.27759 28.9596 7.18839C28.842 7.09919 28.7122 7.05134 28.5695 7.04567C28.4268 7.03918 28.2111 7.08702 27.9208 7.1892L27.1739 7.45112V7.45031Z" fill="black"/>
<path d="M34.67 4.96261C35.3422 4.86611 35.9374 5.01045 36.4548 5.39401C36.9721 5.77758 37.2779 6.29737 37.3711 6.9534C37.4644 7.60294 37.3168 8.1868 36.93 8.70417C36.5424 9.22153 36.0242 9.52725 35.3738 9.61969C34.7154 9.71376 34.1275 9.5686 33.6101 9.18261C33.0927 8.79661 32.7878 8.28411 32.6962 7.6443C32.6354 7.21776 32.6816 6.80744 32.8357 6.41414C32.9897 6.02004 33.2306 5.69486 33.5574 5.4378C33.8842 5.18074 34.2548 5.02261 34.67 4.96261ZM34.751 5.39158C34.4226 5.43861 34.1234 5.56917 33.8534 5.78244C33.5833 5.99571 33.3871 6.25926 33.263 6.57308C33.1398 6.88691 33.1033 7.22181 33.1544 7.57781C33.2298 8.10571 33.4763 8.52495 33.8939 8.83553C34.3115 9.14693 34.7786 9.26532 35.2944 9.19153C35.639 9.14206 35.9463 9.01312 36.2156 8.80391C36.4848 8.59469 36.681 8.33358 36.8035 8.01975C36.9259 7.70593 36.9624 7.37264 36.9113 7.01827C36.861 6.66634 36.7329 6.359 36.5278 6.09789C36.3226 5.83677 36.0591 5.64134 35.7363 5.51322C35.4136 5.38509 35.0851 5.34455 34.7502 5.39239L34.751 5.39158Z" fill="black"/>
<path d="M38.4772 4.70672L39.3708 4.7051C39.8833 4.70429 40.2288 4.72618 40.4072 4.77078C40.6634 4.83322 40.8727 4.96297 41.0356 5.1584C41.1986 5.35464 41.2805 5.60035 41.2805 5.89714C41.2805 6.19556 41.2019 6.44289 41.0438 6.6367C40.8856 6.83132 40.6675 6.96188 40.3885 7.02918C40.185 7.07784 39.8055 7.10298 39.2484 7.10379H38.9281L38.9313 9.18946H38.4829L38.4756 4.7051L38.4772 4.70672ZM38.9265 5.14543L38.9289 6.6667L39.6879 6.67481C39.9944 6.67481 40.2191 6.64643 40.3618 6.59048C40.5037 6.53452 40.6156 6.4437 40.6967 6.31882C40.7778 6.19394 40.8183 6.05446 40.8183 5.90039C40.8183 5.75037 40.777 5.61332 40.6959 5.48844C40.614 5.36356 40.5069 5.27517 40.3739 5.22246C40.2409 5.16975 40.0228 5.1438 39.7195 5.14462L38.9265 5.14624V5.14543Z" fill="black"/>
<path d="M42.5853 4.79102L45.1405 5.06754L45.0934 5.50381L42.9834 5.27594L42.8326 6.67315L44.924 6.89939L44.8769 7.33567L42.7856 7.10942L42.5958 8.86181L44.6872 9.08805L44.6401 9.52433L42.1028 9.25024L42.5845 4.79102H42.5853Z" fill="black"/>
<path d="M46.3415 5.2723L47.2132 5.4661C47.699 5.57396 48.0242 5.66721 48.188 5.74506C48.4345 5.86264 48.6177 6.03699 48.737 6.26891C48.8562 6.50083 48.8837 6.75951 48.8205 7.04577C48.7678 7.28417 48.6648 7.48123 48.5123 7.63692C48.3599 7.79262 48.1693 7.89398 47.9406 7.93939C47.712 7.98562 47.4135 7.96859 47.0462 7.88912L48.1685 10.2716L47.6276 10.1516L46.5053 7.7691L46.258 7.71396L45.8063 9.74692L45.3684 9.64961L46.3415 5.27148V5.2723ZM46.6837 5.79777L46.3529 7.2858L47.1054 7.45933C47.3973 7.52421 47.6195 7.54448 47.772 7.52015C47.9244 7.49582 48.0534 7.43095 48.1588 7.32634C48.2642 7.22173 48.3339 7.09442 48.3672 6.94359C48.3996 6.79681 48.3899 6.65491 48.3372 6.51705C48.2845 6.37919 48.1993 6.27053 48.0817 6.19025C47.9641 6.10997 47.7549 6.03618 47.4549 5.96968L46.6829 5.79777H46.6837Z" fill="black"/>
<path d="M52.1938 6.89472L52.626 11.8243L52.1711 11.6588L52.0122 10.0305L50.1965 9.37045L49.0353 10.5187L48.5658 10.3476L52.09 6.85742L52.193 6.89472H52.1938ZM51.8151 7.77051L50.5379 9.03311L51.9789 9.55696L51.8151 7.7697V7.77051Z" fill="black"/>
<path d="M54.5536 8.31517L54.7482 7.92188L56.9514 9.01012L56.7568 9.40342L55.86 8.96066L54.0686 12.5879L53.6583 12.3852L55.4496 8.75793L54.5528 8.31517H54.5536Z" fill="black"/>
<path d="M59.7922 10.5986C60.359 10.9733 60.7085 11.4752 60.8407 12.1053C60.9729 12.7354 60.8561 13.3273 60.4912 13.8804C60.1295 14.4286 59.6324 14.7675 58.9991 14.8973C58.3658 15.027 57.7754 14.9111 57.2272 14.5494C56.6726 14.1829 56.3296 13.6841 56.1982 13.0516C56.0668 12.4199 56.1795 11.8336 56.5355 11.2944C56.7731 10.9351 57.0796 10.6586 57.4567 10.4664C57.833 10.2742 58.2295 10.1907 58.6447 10.2151C59.0599 10.2394 59.4427 10.3675 59.7922 10.5978V10.5986ZM59.5683 10.9733C59.291 10.7908 58.9812 10.6894 58.6382 10.67C58.2952 10.6505 57.9725 10.717 57.6724 10.8695C57.3716 11.0219 57.1218 11.2482 56.924 11.549C56.6304 11.9934 56.5363 12.471 56.6426 12.9811C56.7488 13.4911 57.0188 13.8901 57.4543 14.1772C57.7446 14.3694 58.06 14.4764 58.4006 14.4983C58.7404 14.5202 59.0607 14.4553 59.3608 14.3021C59.6608 14.1488 59.9089 13.9234 60.1068 13.6241C60.303 13.3273 60.4109 13.0127 60.4312 12.681C60.4514 12.3494 60.3833 12.0283 60.2268 11.7185C60.0711 11.4079 59.8514 11.1598 59.57 10.9741L59.5683 10.9733Z" fill="black"/>
<path d="M62.833 12.952L63.5012 13.5448C63.8734 13.8756 64.1126 14.1148 64.2173 14.2624C64.3762 14.4846 64.4508 14.7263 64.4427 14.9866C64.4346 15.2469 64.3324 15.4869 64.1378 15.7058C63.9756 15.8883 63.7899 16.0108 63.5815 16.0732C63.3723 16.1356 63.1574 16.1308 62.9344 16.0602C62.7122 15.9897 62.4592 15.8299 62.177 15.5818L62.001 18.21L61.5866 17.8418L61.7626 15.2136L61.5729 15.0458L60.1903 16.6027L59.8553 16.3051L62.833 12.9512V12.952ZM62.8768 13.578L61.8648 14.7182L62.4389 15.2355C62.6627 15.4342 62.8468 15.5599 62.992 15.6126C63.1371 15.6653 63.2815 15.6718 63.4242 15.6312C63.5669 15.5907 63.6902 15.5137 63.7923 15.3977C63.8921 15.285 63.9529 15.156 63.9732 15.0101C63.9934 14.8641 63.9724 14.7271 63.9083 14.5998C63.8442 14.4724 63.6975 14.3062 63.4672 14.1027L62.876 13.5772L62.8768 13.578Z" fill="black"/>
<path d="M26.0768 70.3949L26.0403 74.8938L25.6429 74.7049L25.6405 73.2185L24.0552 72.4635L22.9045 73.4017L22.4941 73.2063L25.9867 70.3535L26.0768 70.3965V70.3949ZM25.6575 71.1547L24.3925 72.187L25.651 72.7863L25.6583 71.1547H25.6575Z" fill="black"/>
<path d="M28.3595 71.3984L28.7463 71.5266L27.9735 73.8636C27.8819 74.141 27.83 74.3153 27.8178 74.3875C27.787 74.5464 27.7894 74.6891 27.8251 74.8148C27.8616 74.9405 27.9411 75.0622 28.0635 75.1797C28.186 75.2973 28.3214 75.38 28.469 75.4287C28.5971 75.4709 28.7285 75.4846 28.8647 75.4692C29.001 75.4538 29.1234 75.4108 29.2345 75.3403C29.3456 75.2697 29.4421 75.1724 29.524 75.0476C29.5824 74.9584 29.6627 74.7605 29.7632 74.4556L30.536 72.1185L30.9228 72.2467L30.15 74.5837C30.0357 74.9292 29.91 75.1976 29.7713 75.3881C29.6335 75.5787 29.4372 75.7198 29.1818 75.8106C28.9272 75.9015 28.6555 75.8998 28.3676 75.8041C28.0554 75.7012 27.8122 75.5382 27.6386 75.3152C27.4651 75.0922 27.3816 74.8456 27.3872 74.5756C27.3897 74.4094 27.4562 74.1296 27.5859 73.7363L28.3587 71.3992L28.3595 71.3984Z" fill="black"/>
<path d="M31.4069 72.7818L31.4944 72.3926L33.6742 72.8824L33.5866 73.2716L32.6995 73.0721L31.8926 76.6604L31.4871 76.5688L32.294 72.9805L31.4069 72.781V72.7818Z" fill="black"/>
<path d="M34.2313 72.9961L34.6359 73.0448L34.4308 74.7428L36.4921 74.9918L36.6973 73.2937L37.1019 73.3424L36.6129 77.3904L36.2083 77.3418L36.4443 75.3883L34.3829 75.1393L34.147 77.0928L33.7423 77.0442L34.2313 72.9961Z" fill="black"/>
<path d="M39.9572 73.2837C40.5743 73.2716 41.0958 73.467 41.5199 73.8708C41.944 74.2747 42.1621 74.7774 42.1743 75.38C42.1864 75.9768 41.9886 76.4869 41.5823 76.911C41.1752 77.3351 40.6733 77.5532 40.0764 77.5646C39.4715 77.5767 38.9574 77.3797 38.5333 76.9742C38.1092 76.5688 37.891 76.0725 37.8797 75.4846C37.8716 75.0929 37.9591 74.728 38.1424 74.3898C38.3249 74.0517 38.5787 73.7849 38.9014 73.5886C39.225 73.3924 39.5769 73.291 39.958 73.2837H39.9572ZM39.9832 73.6795C39.6815 73.686 39.3969 73.7695 39.1301 73.9325C38.8633 74.0955 38.6565 74.3112 38.5097 74.5804C38.363 74.8496 38.2932 75.148 38.2997 75.4756C38.3095 75.9598 38.4854 76.366 38.8276 76.6928C39.1698 77.0196 39.5785 77.1786 40.0521 77.1688C40.3684 77.1623 40.6595 77.0796 40.9263 76.9215C41.1923 76.7626 41.3982 76.5485 41.5442 76.2793C41.6893 76.01 41.7591 75.7124 41.7526 75.3873C41.7461 75.0637 41.665 74.7726 41.5085 74.5139C41.3528 74.2552 41.1363 74.0501 40.859 73.8984C40.5816 73.7468 40.2897 73.6738 39.9824 73.6803L39.9832 73.6795Z" fill="black"/>
<path d="M42.8984 73.2141L43.7012 73.0892C44.1489 73.0195 44.4546 72.9911 44.6192 73.0024C44.8665 73.0203 45.0798 73.107 45.2574 73.2644C45.435 73.4209 45.5445 73.6309 45.585 73.8944C45.6191 74.1142 45.5972 74.3145 45.5201 74.4969C45.4431 74.6794 45.315 74.8278 45.1366 74.9429C44.9582 75.0581 44.7003 75.1424 44.3629 75.1968L46.1024 76.8421L45.6045 76.92L43.865 75.2746L43.6372 75.3103L43.9275 77.1811L43.5253 77.2435L42.8992 73.2149L42.8984 73.2141ZM43.3623 73.5457L43.5747 74.9154L44.2697 74.8132C44.5389 74.7718 44.7335 74.7151 44.8544 74.6437C44.9752 74.5724 45.0636 74.4751 45.1179 74.3518C45.1722 74.2285 45.1893 74.0972 45.1674 73.9585C45.1463 73.8231 45.0912 73.7063 45.0003 73.6074C44.9103 73.5084 44.8017 73.4444 44.6751 73.4152C44.5486 73.386 44.3475 73.3933 44.0718 73.4363L43.3615 73.5466L43.3623 73.5457Z" fill="black"/>
<path d="M46.2329 72.6186L46.6294 72.5254L47.5669 76.4932L47.1703 76.5865L46.2337 72.6186H46.2329Z" fill="black"/>
<path d="M48.1507 75.5867L48.4208 75.2858C48.7865 75.6426 49.1222 75.774 49.4271 75.6799C49.5577 75.6394 49.6712 75.5713 49.7669 75.4748C49.8626 75.3783 49.925 75.2696 49.9534 75.1488C49.9818 75.028 49.9785 74.9104 49.9428 74.7952C49.9023 74.6647 49.8188 74.5503 49.6915 74.4522C49.5163 74.3168 49.2292 74.1773 48.8311 74.0338C48.4305 73.8886 48.1734 73.7735 48.0599 73.6891C47.8653 73.548 47.7355 73.3705 47.669 73.1572C47.6163 72.9877 47.6098 72.8207 47.648 72.656C47.6861 72.4914 47.7664 72.3463 47.8888 72.2206C48.0112 72.0949 48.1588 72.0049 48.3324 71.9514C48.5156 71.8946 48.7013 71.8873 48.8895 71.9286C49.0776 71.97 49.2982 72.0852 49.552 72.2733L49.3087 72.6122C49.1019 72.4638 48.9381 72.3738 48.8157 72.3438C48.6932 72.3138 48.5716 72.3179 48.4491 72.356C48.2918 72.4047 48.1783 72.4922 48.1077 72.6179C48.0372 72.7444 48.0242 72.8766 48.0672 73.0161C48.0931 73.1004 48.1361 73.1775 48.1961 73.2456C48.2561 73.3145 48.347 73.381 48.4694 73.4451C48.5359 73.4783 48.7435 73.557 49.093 73.6786C49.5074 73.8229 49.8066 73.973 49.9923 74.1287C50.178 74.2844 50.3005 74.4595 50.3613 74.6558C50.4489 74.938 50.4172 75.2169 50.2672 75.491C50.1172 75.7659 49.8885 75.9508 49.5812 76.0457C49.3444 76.1186 49.1108 76.1219 48.8789 76.0554C48.6478 75.9889 48.4045 75.8324 48.1507 75.5859V75.5867Z" fill="black"/>
<path d="M50.2606 71.4164L52.4185 70.5195L52.5717 70.8877L50.7901 71.6281L51.2808 72.8079L53.0469 72.0741L53.2002 72.4422L51.434 73.1761L52.0487 74.6552L53.8149 73.9213L53.9681 74.2895L51.8257 75.1799L50.2606 71.4148V71.4164Z" fill="black"/>
<path d="M55.0143 73.8052L53.0308 70.2429L53.7695 69.8318C54.3023 69.535 54.7126 69.3622 55.0005 69.3144C55.4132 69.243 55.8 69.3022 56.1609 69.4928C56.5217 69.6834 56.8169 69.985 57.0472 70.3986C57.2459 70.7554 57.344 71.1122 57.3408 71.469C57.3375 71.8258 57.2491 72.138 57.0748 72.404C56.9004 72.67 56.5915 72.927 56.1471 73.1743L55.0143 73.8052ZM55.1683 73.2781L55.5803 73.0487C56.0725 72.7746 56.3969 72.554 56.5534 72.3861C56.7731 72.1494 56.8964 71.8761 56.9232 71.5639C56.9499 71.2517 56.8729 70.9322 56.6904 70.6046C56.499 70.2607 56.2525 70.0134 55.9509 69.8626C55.6492 69.7117 55.324 69.6736 54.977 69.749C54.7167 69.8058 54.3307 69.9761 53.819 70.2607L53.5668 70.401L55.1691 73.2781H55.1683Z" fill="black"/>
</g>
<defs>
<clipPath id="clip0_1261_9278">
<rect width="80" height="80" fill="white" transform="translate(0 0.5)"/>
</clipPath>
</defs>
</svg>
