<svg width="120" height="57" viewBox="0 0 120 57" fill="none" xmlns="http://www.w3.org/2000/svg">
<g clip-path="url(#clip0_1261_8822)">
<path d="M59.5271 24.4102C45.8602 24.5912 39.9528 25.8475 35.7842 27.0585C35.8578 27.2735 35.9031 27.4886 35.9031 27.6979V27.8621C35.8352 28.8354 35.7785 29.7578 35.7275 30.6349C36.0957 30.5104 36.4808 30.3746 36.8943 30.2331C40.9043 28.8354 47.2761 26.6171 58.4679 25.9833C58.7624 25.2929 59.1136 24.7723 59.5271 24.4102Z" fill="white"/>
<path d="M32.6295 12.6015C31.7799 10.5529 30.1997 9.51172 27.9455 9.51172C26.9203 9.51172 25.9348 9.74939 25.0173 10.2191C23.4257 11.0283 22.5025 12.2053 22.2646 13.7728V13.8917C22.2646 14.0218 22.2873 14.1576 22.3383 14.3161C22.5648 14.9329 22.9896 15.08 23.3295 15.0631C23.3408 15.0631 23.3521 15.0631 23.3634 15.0631C22.9273 15.4818 22.6894 16.342 22.6441 17.6605V17.6718C22.6441 19.2336 23.0066 20.5578 23.7259 21.6047C24.5812 22.8383 25.7309 23.4665 27.1469 23.4665C28.7837 23.4438 30.2054 22.7082 31.3778 21.2652C32.5899 19.709 33.2072 17.8189 33.2072 15.6403C33.2072 14.5255 33.009 13.5069 32.6238 12.6128L32.6295 12.6015ZM24.3263 14.0218C24.3999 13.7502 24.5019 13.4786 24.6265 13.2352C25.1249 12.3411 25.8442 11.9054 26.8241 11.9054C27.5207 11.9054 28.1267 12.1487 28.6648 12.6524C29.5823 13.5352 30.0524 14.8933 30.0524 16.6928C30.0524 17.5926 29.8995 18.4414 29.5993 19.211C29.0499 20.637 28.2117 21.3274 27.0336 21.3274C26.8807 21.3274 26.7278 21.2878 26.5635 21.2086C25.9008 20.903 25.578 20.3032 25.578 19.3751C25.578 18.8715 25.663 18.2716 25.8272 17.6095C25.8782 17.4624 25.9008 17.2474 25.9008 16.9588C25.9008 16.6306 25.8215 16.2854 25.663 15.9175C25.2778 15.1536 24.7284 14.7631 23.9978 14.7631C23.9978 14.7631 23.9525 14.7688 23.9298 14.7745C24.0941 14.6047 24.2243 14.3557 24.3376 14.0275L24.3263 14.0218Z" fill="white"/>
<path d="M40.6325 22.6047C40.6098 22.5141 40.5872 22.3614 40.5532 22.169C40.2983 20.6524 40.1227 20.0243 39.6753 20.0243C39.5847 20.0243 39.4997 20.0412 39.4147 20.0639C39.1032 20.1601 38.922 20.5675 38.6614 21.2352C38.5652 21.4729 38.4292 21.8238 38.3386 21.9426C38.231 21.9426 38.146 21.9313 38.0837 21.92C37.8798 21.8747 37.2172 21.3541 37.2172 16.5101C37.2172 15.7292 37.2512 14.6031 37.3248 13.1544C38.0101 13.0299 39.3354 12.696 39.3694 11.6435C39.3694 11.5133 39.3468 11.3775 39.3015 11.253C39.1089 10.4891 38.6784 10.3306 38.3499 10.3306C38.248 10.3306 38.1347 10.3589 38.0101 10.4212C37.8005 10.5343 37.6136 10.6306 37.4607 10.7098C37.6306 8.36135 37.8345 6.35811 38.0894 4.75666L38.1234 4.68875C38.1574 4.59255 38.1687 4.53596 38.1687 4.48503C38.1687 4.3379 38.1234 4.19077 38.0441 4.0493C37.7552 3.54566 37.2172 3.29102 36.4242 3.29102C35.6426 3.35892 35.1442 3.65884 34.946 4.17946L34.929 4.24736C34.6288 6.64106 34.0737 14.7445 34.0737 15.3048C34.0737 20.8561 35.0536 23.7421 37.0812 24.1269C37.5513 24.2061 37.9818 24.2514 38.3669 24.2514C38.6728 24.2514 39.1485 24.2118 39.8339 24.1326C39.8792 24.1326 39.9358 24.1156 40.0434 24.0816C40.3379 23.9515 40.6834 23.6516 40.6834 22.9386C40.6834 22.8424 40.6721 22.7405 40.6495 22.6103L40.6325 22.6047Z" fill="white"/>
<path d="M46.2168 43.4361C45.9903 42.7627 45.5598 42.6212 45.2426 42.6212C45.0331 42.6212 44.7839 42.7457 44.4497 43.0287C44.3987 43.0796 44.3421 43.1305 44.2571 43.1928C44.0419 43.3852 43.8323 43.5833 43.6171 43.787C42.7732 44.5792 41.901 45.3997 41.193 45.3997C39.8676 45.3828 39.3805 43.2437 39.3635 41.2518C39.3635 39.8654 39.6241 38.5412 40.1338 37.3302L40.3547 36.8153C40.8531 35.6439 41.2779 34.6366 41.8783 34.6366C42.6203 34.6989 42.8412 34.8233 42.9035 34.8969C43.2546 35.2874 43.4698 36.0287 43.6624 36.6851C43.7304 36.9115 43.7927 37.1265 43.855 37.3132L43.8776 37.3642C44.1212 37.7829 44.427 38.0093 44.8008 38.0319C44.8858 38.0319 44.9764 38.0206 45.1237 37.981C45.4409 37.8395 45.8203 37.5226 45.8203 36.8096C45.8203 36.6172 45.792 36.4588 45.7524 36.3456C45.5655 35.7231 45.2596 35.1459 44.8462 34.6253C43.8493 33.4256 42.558 32.8145 40.9947 32.8145C39.7997 32.8371 38.7179 33.5614 37.7833 34.9761C36.6789 36.7021 36.1182 38.8185 36.1182 41.2575C36.1182 42.4515 36.3051 43.4984 36.6732 44.3755C37.4265 46.1524 38.8142 47.0521 40.7965 47.0521C41.227 47.0521 41.6801 47.0012 42.1558 46.8993C43.7644 46.5542 45.067 45.7845 46.0526 44.5905C46.1772 44.3981 46.2508 44.1548 46.2734 43.8492C46.2734 43.736 46.2621 43.6115 46.2281 43.4361H46.2168Z" fill="white"/>
<path d="M57.0692 43.407C56.8426 42.7336 56.4121 42.5921 56.095 42.5921C55.8854 42.5921 55.6362 42.7166 55.302 42.9995C55.2511 43.0505 55.1944 43.1014 55.1095 43.1637C54.8206 43.4183 54.5374 43.7069 54.2486 43.9955C53.4783 44.7651 52.6853 45.563 52.0453 45.563C50.8956 45.546 50.3178 43.6786 50.2272 41.732C51.4223 41.9074 52.4928 41.8451 53.4669 41.5509C55.5966 40.8831 56.6727 39.276 56.6727 36.7748C56.6727 35.9316 56.4235 35.179 55.9364 34.5452C55.1548 33.4927 53.9993 32.9551 52.4928 32.9551C51.0938 32.9777 49.8931 33.5662 48.9189 34.7093C47.6219 36.2881 46.9648 38.4894 46.9648 41.251C46.9648 42.3827 47.1291 43.3843 47.4576 44.2445C48.2109 46.0836 49.6155 47.0117 51.6432 47.0117C52.0736 47.0117 52.5324 46.9607 53.0025 46.8589C54.611 46.5137 55.9137 45.7497 56.8992 44.5501C57.0238 44.3577 57.0975 44.1143 57.1201 43.8088C57.1201 43.6956 57.1088 43.5711 57.0748 43.3957L57.0692 43.407ZM50.4028 39.2251C50.5104 38.6932 50.6577 38.1782 50.8389 37.7085C50.9295 37.4878 51.0088 37.2728 51.0938 37.0577C51.6205 35.6883 52.0793 34.5113 53.0252 34.5113C53.6822 34.5282 54.6394 35.7619 54.6564 36.8936C54.6394 38.5743 53.8181 40.289 52.034 40.3229C51.932 40.3229 51.6432 40.0796 51.4506 39.9211C51.1391 39.6608 50.7936 39.3666 50.4028 39.2251Z" fill="white"/>
<path d="M61.4471 38.3374V37.7263C61.6341 37.3414 61.838 36.9001 62.0418 36.4191C63.5258 32.9615 64.2791 30.1321 64.2791 27.9987C64.2564 25.854 63.1916 24.6996 61.1923 24.6543C61.079 24.6543 60.9544 24.6656 60.7958 24.6939C58.9777 25.1523 58.1338 28.7853 58.1338 36.1361C58.1338 44.1887 59.057 47.9461 61.0393 47.9688C61.147 47.9688 61.2772 47.9461 61.4528 47.8839C61.9852 47.6406 62.2684 47.2048 62.2684 46.622C62.2684 46.4579 62.2118 46.2655 62.0985 46.0335C61.6624 45.0545 61.4471 42.4684 61.4471 38.3374ZM61.5944 32.7295C61.6001 32.5993 61.6114 32.4692 61.6227 32.3447C61.821 28.6042 62.0135 27.4215 62.1211 27.0537C62.2231 27.1781 62.2854 27.4554 62.2967 27.8515C62.2967 29.4077 62.0645 31.0431 61.6001 32.7295H61.5944Z" fill="white"/>
<path d="M75.8276 35.6484C75.8502 35.6031 75.8672 35.5466 75.8672 35.4843C75.8672 35.3711 75.8389 35.2466 75.7879 35.1165C75.567 34.5506 75.029 34.262 74.1851 34.262C73.4941 34.3016 73.007 34.5563 72.7464 34.9976C71.7553 34.0187 70.5942 33.515 69.2745 33.498C67.8925 33.5207 66.6465 34.228 65.576 35.6145C64.3639 37.1876 63.7466 39.072 63.7466 41.2054C63.7466 42.3994 63.9505 43.4859 64.3583 44.4423C65.1342 46.1965 66.352 47.085 67.9775 47.085H68.357C69.8409 46.9548 71.1549 46.2361 72.2763 44.9459C72.3273 45.2571 72.3953 45.6646 72.4802 46.1512C72.5709 46.5587 72.8937 47.051 73.9358 47.0793C74.1567 47.0793 74.3833 47.0453 74.5985 46.9831C75.5274 46.7454 75.7256 46.2361 75.7256 45.857C75.7256 45.7551 75.7143 45.6533 75.6803 45.5288C75.3405 44.5611 75.1649 43.4463 75.1649 42.207C75.1649 41.1262 75.3235 39.4455 75.635 37.2046C75.7313 36.5086 75.7936 35.9879 75.8389 35.6541L75.8276 35.6484ZM72.0555 41.1375C71.3135 44.7988 69.7219 45.2515 69.1046 45.2515C68.9007 45.2515 68.6911 45.2175 68.4816 45.1496C67.5753 44.861 67.0146 43.3445 67.0146 41.1997V40.7357C67.0033 39.5983 66.9863 38.1779 67.4847 37.2725C68.1304 36.1011 69.3481 35.241 70.1751 35.3372C72.0158 35.5466 72.4802 39.0211 72.0498 41.1375H72.0555Z" fill="white"/>
<path d="M119.626 33.464C118.521 30.0347 115.282 27.9353 109.148 26.8205C108.593 27.3751 107.721 27.6863 106.661 27.6863C105.851 27.6863 105.025 27.5052 104.266 27.16C103.631 26.8714 103.104 26.4923 102.668 26.0509C92.8586 25.3775 84.5554 24.9361 77.4869 24.6758L78.58 24.8569C79.0048 24.9417 79.4692 25.2756 79.5655 25.7453C79.5939 25.8924 79.6165 26.2207 79.3333 26.5319C84.7536 27.0412 90.8196 27.8504 97.6049 29.0331C97.6445 28.6823 97.6785 28.3371 97.7238 27.9975L97.7521 27.8617C97.9277 27.2506 98.4601 26.2942 100.142 26.2489C101.796 26.2489 102.397 27.1034 102.606 27.6184C102.702 27.8617 102.753 28.0937 102.753 28.3201V28.5068C102.725 28.9256 102.685 29.4801 102.629 30.1422C107.313 31.5117 109.204 33.3451 110.671 35.9312C112.773 39.6491 112.931 43.4009 111.119 46.7793C109.233 50.2991 105.268 52.0986 102.278 52.987C97.0158 54.5545 91.1764 54.3508 89.0242 53.1738C87.3703 52.274 87.6818 50.2878 88.1519 47.2829C88.2709 46.502 88.4125 45.6249 88.5257 44.6912L88.5371 44.6119C88.741 43.2538 88.8429 41.8957 88.8429 40.5432C88.8429 39.6944 88.8033 38.8739 88.724 38.0986C88.3898 35.0145 87.5516 33.5149 86.1639 33.5149C85.5239 33.5375 84.7253 33.9563 83.7228 34.7882C82.3748 35.9143 81.2534 37.312 80.3698 38.9474C80.4378 38.3928 80.5171 37.7591 80.619 37.0404C80.6983 36.3953 80.7549 35.9143 80.8003 35.5634V35.4446C80.8003 35.3144 80.7719 35.1786 80.721 35.0428C80.4944 34.4996 79.9733 34.2223 79.1464 34.2223C78.3648 34.2675 77.8437 34.5844 77.5889 35.2126C77.232 36.9329 77.0508 39.1228 77.0508 41.7203C77.0508 43.2255 77.1924 44.7081 77.4699 46.1455C77.5605 46.5359 77.8834 47.0113 78.9255 47.0452C79.1238 47.0452 79.322 47.0226 79.5259 46.9773C80.4831 46.7397 80.6813 46.2304 80.6813 45.8456C80.6813 45.7607 80.67 45.6701 80.653 45.5796C80.653 45.3419 80.6756 45.076 80.7096 44.7874C80.9192 42.8747 81.6442 40.8375 82.8562 38.738C83.8078 37.0857 85.3653 35.8181 85.6938 35.8181C86.3282 35.835 86.4698 38.0024 86.5207 38.8173C86.6114 40.198 86.2942 41.0921 85.9317 42.1277C85.6825 42.8407 85.2577 44.8949 85.0651 45.8286C83.8361 51.8779 86.753 54.4357 89.296 55.8221C90.6327 56.5521 92.2469 56.9199 94.0876 56.9199C99.1851 56.9199 106.078 53.9434 111.657 49.3314C118.131 43.9838 121.11 38.0477 119.632 33.4583L119.626 33.464Z" fill="white"/>
<path d="M103.971 47.2215C103.886 47.0178 103.671 46.899 103.45 46.9386C103.156 46.9895 102.929 47.0065 102.765 46.9895H102.736C101.927 46.9895 101.734 46.2822 101.536 45.207C101.496 44.975 101.451 44.7543 101.405 44.5902C101.247 43.2773 101.168 41.789 101.168 40.1706C101.168 38.2579 101.326 35.3323 101.638 31.473C101.757 30.1148 101.836 29.1189 101.876 28.4738V28.3266C101.876 28.2135 101.847 28.089 101.796 27.9531C101.57 27.4042 101.026 27.127 100.171 27.127C99.1002 27.1552 98.7321 27.6532 98.6018 28.1116C98.33 30.2846 98.1544 32.6557 98.0807 35.1738C97.1575 34.5061 96.1097 34.1609 94.9543 34.1439C93.6006 34.1666 92.4112 34.9305 91.4201 36.4245C90.3553 38.0542 89.8115 39.9895 89.8115 42.1795C89.8115 43.1472 89.9475 44.0413 90.208 44.8335C90.8763 46.7802 92.1507 47.7648 93.9858 47.7648C94.235 47.7648 94.4955 47.7422 94.7731 47.7025C96.0984 47.4819 97.2651 46.8084 98.2563 45.6993C98.2507 46.8198 98.7038 47.7252 99.5477 48.2401C100.035 48.5344 100.601 48.6815 101.196 48.6815C102.057 48.6815 102.986 48.376 103.818 47.7874C103.999 47.6629 104.062 47.4309 103.977 47.2272L103.971 47.2215ZM98.0921 41.7042C97.9165 42.4681 97.571 43.5546 97.2595 44.1092C96.6081 45.2466 95.8662 45.8238 95.0562 45.8238C94.8297 45.8238 94.6145 45.7899 94.4049 45.7163C93.544 45.4447 93.0229 44.1262 93.0229 42.1965C93.0229 40.9685 93.2891 39.7802 93.8215 38.6654C94.4219 37.3978 95.0846 36.2207 95.8775 36.0906C95.8832 36.1019 95.8888 36.1132 95.8945 36.1245C96.0871 36.4584 96.2796 36.764 96.5288 36.9055C97.3218 37.3242 97.8259 37.7486 98.0298 38.1617V38.1844C98.0298 39.7122 98.0468 40.8949 98.0864 41.6928L98.0921 41.7042Z" fill="white"/>
<path d="M37.9817 47.6294C37.9194 47.5218 37.8288 47.4483 37.7098 47.42C37.4096 47.3408 37.0415 47.5615 36.6167 47.8104C36.4128 47.9349 36.0673 48.1387 35.9314 48.1387C34.9515 48.1387 34.7929 46.8032 34.7136 45.4394L34.7023 45.2243C34.7023 45.1225 34.691 45.0206 34.6683 44.9414C34.4701 43.7417 34.4814 42.6156 34.4927 40.9066C34.4927 40.4426 34.4984 39.9333 34.4984 39.3674C34.4984 37.0473 34.674 33.171 35.0308 27.7894V27.6989C35.0308 27.5687 35.0025 27.4329 34.9515 27.2971C34.725 26.7482 34.1812 26.4822 33.3543 26.4766C32.6293 26.5671 32.1196 26.884 31.8421 27.4216L31.8194 27.4895C31.304 29.7191 31.0435 32.5655 31.0435 35.9495C31.0435 38.7053 31.2247 41.8969 31.5872 45.4167C31.6325 47.5388 32.7766 49.1969 34.64 49.8533C35.1328 50.0287 35.6368 50.1079 36.1013 50.1079C36.8886 50.1079 37.5795 49.8703 37.959 49.4232C38.1912 49.1459 38.5028 48.5518 37.9817 47.6294Z" fill="white"/>
<path d="M28.3248 30.2841C25.3796 30.6237 24.4394 30.1823 23.1311 29.1693C21.0128 27.5339 20.8825 24.5121 20.8825 22.8258C20.8825 22.6051 20.8995 22.175 20.9165 21.943C21.0751 17.1556 21.1544 14.4563 21.1544 13.6867C21.1544 6.05858 20.2029 2.4935 18.1639 2.47087H18.1525C17.0594 2.4935 16.0229 3.65923 14.9751 6.04161C14.7033 6.76028 14.4484 7.5695 14.2162 8.4636C13.6554 4.36093 12.7549 2.41994 11.4069 2.38033C10.4271 2.3973 9.53783 3.30272 8.71657 5.14185C8.73923 4.76836 8.75055 4.46844 8.75055 4.25907V4.16852C8.75055 4.04969 8.7279 3.93085 8.68825 3.81202C8.67126 3.61396 8.56365 2.93489 7.9123 2.41994C7.1137 1.78615 5.83367 1.65033 4.1062 2.01816C2.26544 2.40296 0.928775 3.57435 0.322743 5.31161C-0.25497 6.96966 -0.0454071 8.93328 0.821162 9.97451C0.821162 9.97451 3.31326 11.2704 4.12319 9.94056C4.42904 9.44824 4.2931 8.45794 4.15717 7.40539C4.06655 6.69803 3.95894 5.90013 4.06655 5.59456C4.20248 5.21541 4.72922 4.75139 4.96144 4.80232C5.05772 4.81929 5.21065 5.05131 5.17666 5.753C4.88781 7.6374 4.74621 9.87831 4.74621 12.4078C4.74621 15.3674 4.63293 20.1944 5.36923 22.6503C5.65809 23.601 6.76821 23.9349 7.24397 23.9349C7.37424 23.9349 7.50451 23.9179 7.63477 23.884C8.78454 23.5784 9.33393 22.0166 9.35659 21.9486L9.57181 21.3205L8.97144 21.5978C8.80719 21.6714 8.67692 21.694 8.60329 21.66C8.54099 21.6261 8.50701 21.5299 8.49568 21.4676C8.33143 20.1887 8.13886 18.5024 8.20116 16.4879C8.26913 14.3205 8.64294 12.2946 8.9941 10.4499C9.75306 6.36982 10.4327 5.5889 10.7329 5.45874C10.9481 5.88316 11.3616 8.03918 11.5258 18.0836C11.5258 19.4135 11.6051 20.7037 11.9789 21.3884C12.2791 21.943 13.31 22.4976 13.9613 22.3448C15.145 22.0731 15.7114 20.466 15.7341 20.3981L15.9493 19.77L15.3489 20.0473C15.1564 20.1378 14.9978 20.1661 14.9185 20.1208C14.8618 20.0925 14.8449 20.0077 14.8392 20.0077L14.8335 18.6099C14.8505 17.9252 14.8845 17.2122 14.9185 16.4709C15.2073 12.2381 15.7794 8.98421 16.595 6.83385C17.1104 5.86618 17.4219 5.5606 17.5522 5.4644C17.6598 5.76432 17.858 6.88478 17.858 11.0044C17.858 13.3981 17.7787 16.8161 17.6201 21.1621C17.5975 21.9713 17.5918 22.4183 17.5918 22.4976C17.5918 22.5089 17.5918 22.5259 17.5918 22.5372C17.5862 22.9559 17.6145 27.3189 20.1859 30.0069C22.1909 32.095 24.7169 32.7967 28.625 32.344C29.2084 32.2761 29.7521 32.1912 30.2675 32.1006C30.3355 31.1556 30.4261 30.2672 30.5451 29.4353C29.8541 29.8371 29.1234 30.171 28.3022 30.2672L28.3248 30.2841Z" fill="white"/>
<path d="M45.9623 9.50977C44.9371 9.50977 43.9516 9.74744 43.0341 10.2171C41.4425 11.0263 40.5193 12.2034 40.2871 13.7709V13.8897C40.2871 14.0199 40.3098 14.1613 40.3607 14.3141C40.5873 14.9309 41.0347 15.0781 41.3519 15.0611C41.3632 15.0611 41.3746 15.0611 41.3859 15.0611C40.9498 15.4799 40.7119 16.34 40.6666 17.6585V17.6698C40.6666 19.2317 41.0291 20.5559 41.7484 21.6027C42.6036 22.8364 43.7534 23.4645 45.1694 23.4645C46.8062 23.4419 48.2278 22.7062 49.4003 21.2632C50.6123 19.707 51.2297 17.817 51.2297 15.6383C51.2297 14.5235 51.0314 13.5049 50.6463 12.6108C49.7967 10.5623 48.2222 9.52108 45.9623 9.52108V9.50977ZM42.3431 14.0199C42.4167 13.7482 42.5187 13.4766 42.6433 13.2333C43.1417 12.3392 43.861 11.9035 44.8408 11.9035C45.5375 11.9035 46.1435 12.1468 46.6816 12.6504C47.5991 13.5332 48.0692 14.8913 48.0692 16.6909C48.0692 17.5906 47.9163 18.4394 47.6161 19.209C47.0667 20.6351 46.2285 21.3255 45.0504 21.3255C44.8975 21.3255 44.7446 21.2858 44.5803 21.2066C43.9176 20.901 43.5948 20.3012 43.5948 19.3732C43.5948 18.8695 43.6798 18.264 43.844 17.6076C43.895 17.4605 43.9176 17.2454 43.9176 16.9568C43.9176 16.6229 43.8383 16.2778 43.6798 15.9156C43.2946 15.1516 42.7452 14.7612 42.0146 14.7612C42.0146 14.7612 41.9693 14.7668 41.9466 14.7725C42.1109 14.6027 42.2411 14.3537 42.3544 14.0255L42.3431 14.0199Z" fill="white"/>
<path d="M61.2264 10.0977C60.5184 10.1203 59.7085 10.5673 58.74 11.4728C57.5675 12.6158 56.5424 14.0475 55.6871 15.7395C55.7551 15.1171 55.8401 14.404 55.942 13.5892C56.0213 12.8818 56.0779 12.3612 56.1232 11.999V11.9085C56.1232 11.7783 56.0949 11.6425 56.044 11.5067C55.8401 11.0087 55.3926 11.1049 55.0698 11.1785C54.8999 11.2125 54.7016 11.2577 54.4694 11.2577C53.6878 11.303 53.1667 11.6199 52.9118 12.248C52.521 14.1381 52.3738 15.7452 52.3738 18.1842C52.3738 19.6668 52.5154 21.1437 52.7929 22.5754C52.8835 22.9829 53.2064 23.4752 54.2485 23.5035C54.4524 23.5035 54.6676 23.4695 54.8772 23.4073C55.8061 23.1696 56.0043 22.6603 56.0043 22.2812C56.0043 22.1963 55.993 22.1057 55.976 22.0152C55.9873 21.6304 56.1459 17.4598 57.4656 15.4396C58.7343 13.4873 59.3233 13.0742 59.5725 13.0742C59.7991 13.0855 59.8331 13.6797 59.8387 13.8551C59.8387 14.1041 59.7821 14.4097 59.6745 14.7719C59.2497 16.0791 59.2497 16.2488 59.2497 16.3337C59.2497 16.4356 59.261 16.5374 59.2837 16.6167C59.4253 17.4315 61.4416 17.5277 61.4813 17.5277C61.7078 17.4994 61.923 17.3749 62.1779 17.1203C62.7103 16.396 62.9709 15.1567 62.9709 13.3232C62.9482 11.2294 62.3705 10.1429 61.232 10.0977H61.2264Z" fill="white"/>
<path d="M82.7377 9.50977C81.7126 9.50977 80.7271 9.74744 79.8095 10.2171C78.218 11.0263 77.2948 12.2034 77.0569 13.7709V13.8897C77.0569 14.0199 77.0795 14.1613 77.1362 14.3141C77.3627 14.9309 77.7819 15.0781 78.1274 15.0611C78.1387 15.0611 78.15 15.0611 78.1613 15.0611C77.7252 15.4799 77.4873 16.34 77.442 17.6585V17.6698C77.442 19.2317 77.8045 20.5559 78.5238 21.6027C79.3791 22.8364 80.5288 23.4645 81.9448 23.4645C83.5816 23.4419 85.0033 22.7062 86.1757 21.2632C87.3877 19.707 88.0051 17.817 88.0051 15.6383C88.0051 14.5235 87.8069 13.5049 87.4217 12.6108C86.5722 10.5623 84.9976 9.52108 82.7377 9.52108V9.50977ZM79.1185 14.0199C79.1922 13.7482 79.2941 13.4766 79.413 13.2333C79.9115 12.3392 80.6364 11.9035 81.6163 11.9035C82.3129 11.9035 82.919 12.1468 83.457 12.6504C84.3746 13.5332 84.8447 14.8913 84.8447 16.6909C84.8447 17.5906 84.6918 18.4394 84.3916 19.209C83.8422 20.6351 83.0039 21.3255 81.8258 21.3255C81.6729 21.3255 81.52 21.2858 81.3557 21.2066C80.6931 20.901 80.3702 20.3012 80.3702 19.3732C80.3702 18.8695 80.4552 18.264 80.6194 17.6076C80.6704 17.4605 80.6931 17.2454 80.6931 16.9568C80.6931 16.6286 80.6138 16.2834 80.4552 15.9156C80.0701 15.1516 79.5207 14.7612 78.79 14.7612C78.79 14.7612 78.7447 14.7668 78.7221 14.7725C78.8863 14.6027 79.0166 14.3537 79.1299 14.0255L79.1185 14.0199Z" fill="white"/>
<path d="M117.066 19.872C116.84 19.1986 116.409 19.0572 116.092 19.0572C115.883 19.0572 115.633 19.1816 115.305 19.4646C115.254 19.5155 115.197 19.5664 115.112 19.6287C114.857 19.8551 114.603 20.104 114.348 20.353C113.549 21.1283 112.716 21.9375 112.048 21.9375C110.825 21.9205 110.315 19.9852 110.23 18.2027C111.425 18.3781 112.496 18.3102 113.47 18.0216C115.599 17.3538 116.675 15.7467 116.675 13.2455C116.675 12.4023 116.426 11.6497 115.939 11.0159C115.158 9.96337 114.002 9.42578 112.496 9.42578C111.102 9.44842 109.896 10.0369 108.922 11.18C107.625 12.7588 106.968 14.9601 106.968 17.7217C106.968 18.8534 107.132 19.8551 107.46 20.7152C108.214 22.5543 109.618 23.4824 111.646 23.4824C112.076 23.4824 112.535 23.4314 113.005 23.3296C114.614 22.9844 115.917 22.2205 116.902 21.0208C117.027 20.8284 117.1 20.585 117.123 20.2795C117.123 20.1663 117.112 20.0418 117.078 19.8664L117.066 19.872ZM110.406 15.6845C110.519 15.1525 110.66 14.6432 110.842 14.1736C111.425 12.7306 112.246 11.0668 113.447 11.0668C114.144 11.0838 114.642 12.2892 114.659 13.353C114.642 14.8413 113.946 16.5842 112.037 16.6238C111.918 16.6238 111.646 16.4258 111.425 16.2673C111.119 16.0466 110.779 15.8033 110.406 15.6788V15.6845Z" fill="white"/>
<path d="M77.4647 25.6943C77.2778 25.717 77.1192 25.7226 77.0002 25.7113H76.9719C76.5868 25.7113 76.2753 25.5642 76.0317 25.2756C75.5843 24.7437 75.4993 23.8609 75.6069 23.2724L75.6636 22.9385C75.9468 21.2239 76.0884 19.4074 76.0884 17.5399C76.0884 16.7986 76.0657 16.0686 76.0261 15.3669C75.7542 11.7226 74.9103 9.95141 73.432 9.95141C72.8486 9.97405 72.118 10.3645 71.1891 11.1398C69.7958 12.3677 68.6177 13.9296 67.6775 15.8083L67.6662 13.5391C70.1979 10.7097 71.495 7.69353 71.512 4.5755C71.512 4.19636 71.5006 3.90209 71.478 3.68706C71.4157 3.12117 71.1721 2.5949 70.753 2.1139C70.1073 1.42917 69.354 1.08398 68.5101 1.08398C68.3402 1.08398 68.1703 1.0953 67.989 1.11794C65.4686 1.55933 64.2452 5.30549 64.2452 12.5658C64.2452 15.9611 64.4038 19.3508 64.7153 22.6329C64.738 22.9215 64.806 23.1931 64.9136 23.4308C65.2307 24.1778 65.7915 24.5739 66.5334 24.5739C66.6297 24.5739 66.7373 24.5626 66.8619 24.5343C67.366 24.4154 67.9664 24.0363 67.9664 22.8762C67.9664 22.8762 67.9437 22.3443 67.9664 22.1689C68.1533 20.4033 68.9292 17.738 70.147 15.4009C71.2741 13.177 71.8518 12.9336 72.0387 12.9336C72.2936 12.9393 72.8883 13.2788 72.9109 16.2441C72.9109 17.4664 72.7637 19.3621 72.4692 21.869C72.3899 22.5424 72.3389 22.9951 72.3219 23.2554V23.3572C72.2313 24.8399 72.8203 26.0735 73.9304 26.7526C74.4685 27.0808 75.0802 27.2392 75.7145 27.2392C76.4112 27.2392 77.1305 27.0412 77.7875 26.6507C77.9971 26.5262 78.0877 26.2716 78.0084 26.0395C77.9291 25.8019 77.6969 25.6604 77.4477 25.6943H77.4647ZM69.3031 3.42109C69.337 3.47768 69.4333 3.6814 69.4503 4.34349C69.4503 6.39199 68.8839 8.45182 67.7625 10.4664C67.7738 10.24 67.7908 10.0137 67.8021 9.7873C68.1193 4.28124 68.9236 3.48334 69.3031 3.42675V3.42109Z" fill="white"/>
<path d="M108.633 24.4317C108.412 24.0356 107.744 24.0922 106.747 24.2224C106.469 24.2563 106.18 24.2959 106.039 24.2846C105.75 24.2846 105.557 24.2167 105.444 24.0866C105.206 23.8036 105.291 23.1811 105.399 22.6096C105.399 22.6096 105.869 17.6751 105.869 16.515C105.869 12.2482 105.048 10.1488 103.343 10.1035C102.946 10.1035 102.516 10.2224 102.063 10.46C100.964 11.0372 99.9389 12.1124 99.0043 13.6573C98.5795 12.2595 97.8489 11.5465 96.8294 11.5465C96.28 11.5465 95.6853 11.7729 95.0736 12.2143C94.0824 12.916 93.2045 13.9572 92.4569 15.3153C92.5475 14.4665 92.6721 13.4536 92.7967 12.4916C92.8534 11.9823 92.5928 11.2692 92.1681 10.7939C91.8849 10.477 91.579 10.3016 91.2222 10.3129C90.231 10.4374 89.1436 15.6549 89.1436 17.8109C89.1436 19.2935 89.2852 20.7705 89.5627 22.2022C89.6533 22.6096 89.9761 23.1019 91.0183 23.1302C91.2165 23.1302 91.4148 23.1076 91.6187 23.0623C92.5758 22.8246 92.7741 22.3153 92.7741 21.9305C92.7741 21.84 92.7628 21.7551 92.7458 21.6646C92.7514 20.4196 93.1932 18.8351 94.0485 16.9507C95.5267 13.6969 96.0308 13.363 96.1327 13.3404C96.1497 13.3404 96.5745 13.3857 96.5972 15.4738C96.5972 16.1755 96.1894 18.1674 95.8949 19.6161L95.7816 20.1763C95.7419 20.4026 95.7136 20.5498 95.6966 20.629V20.7874C95.691 20.9232 95.7136 21.0591 95.7703 21.1892C95.9968 21.7381 96.5179 22.0154 97.3448 22.0154C98.1264 21.9701 98.6475 21.6532 98.8967 21.0477C99.1346 20.2725 99.1742 19.3048 99.3498 18.2127C99.5141 17.1997 99.9785 16.2321 100.415 15.2814C101.287 13.346 102.703 11.6993 103.037 11.6767C103.037 11.6767 103.479 11.7729 103.501 14.5174C103.501 15.4568 103.207 16.8772 102.901 18.3824C102.663 19.5481 102.414 20.7478 102.267 21.9079L102.227 22.1625C102.023 24.0583 102.895 25.5918 104.623 26.3727C105.28 26.6726 106.005 26.8141 106.662 26.8141C107.466 26.8141 108.174 26.5991 108.565 26.1747C108.803 25.9144 109.131 25.3428 108.627 24.4431L108.633 24.4317Z" fill="white"/>
</g>
<defs>
<clipPath id="clip0_1261_8822">
<rect width="120" height="55.8416" fill="white" transform="translate(0 0.658203)"/>
</clipPath>
</defs>
</svg>
