<svg width="120" height="56" viewBox="0 0 120 56" fill="none" xmlns="http://www.w3.org/2000/svg">
<g clip-path="url(#clip0_1261_7859)">
<path d="M59.5271 23.8379C45.8602 24.019 39.9528 25.2752 35.7842 26.4862C35.8578 26.7013 35.9031 26.9163 35.9031 27.1257V27.2898C35.8352 28.2631 35.7785 29.1855 35.7275 30.0626C36.0957 29.9381 36.4808 29.8023 36.8943 29.6609C40.9043 28.2631 47.2761 26.0448 58.4679 25.4111C58.7624 24.7207 59.1136 24.2001 59.5271 23.8379Z" fill="white"/>
<path d="M32.6295 12.0272C31.7799 9.97873 30.1997 8.9375 27.9455 8.9375C26.9203 8.9375 25.9348 9.17517 25.0173 9.64486C23.4257 10.4541 22.5025 11.6311 22.2646 13.1986V13.3175C22.2646 13.4476 22.2873 13.5834 22.3383 13.7419C22.5648 14.3587 22.9896 14.5058 23.3295 14.4888C23.3408 14.4888 23.3521 14.4888 23.3634 14.4888C22.9273 14.9076 22.6894 15.7677 22.6441 17.0863V17.0976C22.6441 18.6594 23.0066 19.9836 23.7259 21.0305C24.5812 22.2641 25.7309 22.8922 27.1469 22.8922C28.7837 22.8696 30.2054 22.134 31.3778 20.6909C32.5899 19.1348 33.2072 17.2447 33.2072 15.066C33.2072 13.9512 33.009 12.9327 32.6238 12.0386L32.6295 12.0272ZM24.3263 13.4476C24.3999 13.176 24.5019 12.9044 24.6265 12.661C25.1249 11.7669 25.8442 11.3312 26.8241 11.3312C27.5207 11.3312 28.1267 11.5745 28.6648 12.0782C29.5823 12.9609 30.0524 14.3191 30.0524 16.1186C30.0524 17.0183 29.8995 17.8672 29.5993 18.6368C29.0499 20.0628 28.2117 20.7532 27.0336 20.7532C26.8807 20.7532 26.7278 20.7136 26.5635 20.6344C25.9008 20.3288 25.578 19.7289 25.578 18.8009C25.578 18.2972 25.663 17.6974 25.8272 17.0353C25.8782 16.8882 25.9008 16.6732 25.9008 16.3846C25.9008 16.0563 25.8215 15.7111 25.663 15.3433C25.2778 14.5794 24.7284 14.1889 23.9978 14.1889C23.9978 14.1889 23.9525 14.1946 23.9298 14.2002C24.0941 14.0305 24.2243 13.7815 24.3376 13.4533L24.3263 13.4476Z" fill="white"/>
<path d="M40.6325 22.0324C40.6098 21.9419 40.5872 21.7891 40.5532 21.5967C40.2983 20.0801 40.1227 19.452 39.6753 19.452C39.5847 19.452 39.4997 19.469 39.4147 19.4916C39.1032 19.5878 38.922 19.9952 38.6614 20.663C38.5652 20.9007 38.4292 21.2515 38.3386 21.3703C38.231 21.3703 38.146 21.359 38.0837 21.3477C37.8798 21.3024 37.2172 20.7818 37.2172 15.9378C37.2172 15.1569 37.2512 14.0308 37.3248 12.5821C38.0101 12.4576 39.3354 12.1238 39.3694 11.0712C39.3694 10.9411 39.3468 10.8053 39.3015 10.6808C39.1089 9.91681 38.6784 9.75837 38.3499 9.75837C38.248 9.75837 38.1347 9.78666 38.0101 9.84891C37.8005 9.96208 37.6136 10.0583 37.4607 10.1375C37.6306 7.78908 37.8345 5.78585 38.0894 4.18439L38.1234 4.11649C38.1574 4.02029 38.1687 3.9637 38.1687 3.91277C38.1687 3.76564 38.1234 3.61851 38.0441 3.47704C37.7552 2.9734 37.2172 2.71875 36.4242 2.71875C35.6426 2.78666 35.1442 3.08658 34.946 3.60719L34.929 3.6751C34.6288 6.06879 34.0737 14.1723 34.0737 14.7325C34.0737 20.2838 35.0536 23.1699 37.0812 23.5547C37.5513 23.6339 37.9818 23.6791 38.3669 23.6791C38.6728 23.6791 39.1485 23.6395 39.8339 23.5603C39.8792 23.5603 39.9358 23.5433 40.0434 23.5094C40.3379 23.3792 40.6834 23.0793 40.6834 22.3663C40.6834 22.2701 40.6721 22.1682 40.6495 22.0381L40.6325 22.0324Z" fill="white"/>
<path d="M46.2168 42.8619C45.9903 42.1885 45.5598 42.047 45.2426 42.047C45.0331 42.047 44.7839 42.1715 44.4497 42.4545C44.3987 42.5054 44.3421 42.5563 44.2571 42.6186C44.0419 42.811 43.8323 43.009 43.6171 43.2128C42.7732 44.005 41.901 44.8255 41.193 44.8255C39.8676 44.8085 39.3805 42.6695 39.3635 40.6776C39.3635 39.2912 39.6241 37.967 40.1338 36.756L40.3547 36.241C40.8531 35.0697 41.2779 34.0624 41.8783 34.0624C42.6203 34.1246 42.8412 34.2491 42.9035 34.3227C43.2546 34.7132 43.4698 35.4545 43.6624 36.1109C43.7304 36.3372 43.7927 36.5523 43.855 36.739L43.8776 36.79C44.1212 37.2087 44.427 37.4351 44.8008 37.4577C44.8858 37.4577 44.9764 37.4464 45.1237 37.4068C45.4409 37.2653 45.8203 36.9484 45.8203 36.2354C45.8203 36.043 45.792 35.8845 45.7524 35.7714C45.5655 35.1489 45.2596 34.5717 44.8462 34.0511C43.8493 32.8514 42.558 32.2402 40.9947 32.2402C39.7997 32.2629 38.7179 32.9872 37.7833 34.4019C36.6789 36.1279 36.1182 38.2443 36.1182 40.6832C36.1182 41.8773 36.3051 42.9242 36.6732 43.8013C37.4265 45.5782 38.8142 46.4779 40.7965 46.4779C41.227 46.4779 41.6801 46.427 42.1558 46.3251C43.7644 45.9799 45.067 45.2103 46.0526 44.0163C46.1772 43.8239 46.2508 43.5806 46.2734 43.275C46.2734 43.1618 46.2621 43.0373 46.2281 42.8619H46.2168Z" fill="white"/>
<path d="M57.0692 42.8337C56.8426 42.1603 56.4121 42.0189 56.095 42.0189C55.8854 42.0189 55.6362 42.1434 55.302 42.4263C55.2511 42.4772 55.1944 42.5282 55.1095 42.5904C54.8206 42.8451 54.5374 43.1337 54.2486 43.4223C53.4783 44.1919 52.6853 44.9898 52.0453 44.9898C50.8956 44.9728 50.3178 43.1054 50.2272 41.1587C51.4223 41.3341 52.4928 41.2719 53.4669 40.9776C55.5966 40.3099 56.6727 38.7028 56.6727 36.2016C56.6727 35.3584 56.4235 34.6058 55.9364 33.972C55.1548 32.9194 53.9993 32.3818 52.4928 32.3818C51.0938 32.4045 49.8931 32.993 48.9189 34.1361C47.6219 35.7149 46.9648 37.9162 46.9648 40.6777C46.9648 41.8095 47.1291 42.8111 47.4576 43.6712C48.2109 45.5104 49.6155 46.4384 51.6432 46.4384C52.0736 46.4384 52.5324 46.3875 53.0025 46.2856C54.611 45.9405 55.9137 45.1765 56.8992 43.9768C57.0238 43.7844 57.0975 43.5411 57.1201 43.2355C57.1201 43.1223 57.1088 42.9978 57.0748 42.8224L57.0692 42.8337ZM50.4028 38.6518C50.5104 38.1199 50.6577 37.605 50.8389 37.1353C50.9295 36.9146 51.0088 36.6995 51.0938 36.4845C51.6205 35.1151 52.0793 33.938 53.0252 33.938C53.6822 33.955 54.6394 35.1886 54.6564 36.3204C54.6394 38.0011 53.8181 39.7157 52.034 39.7497C51.932 39.7497 51.6432 39.5063 51.4506 39.3479C51.1391 39.0876 50.7936 38.7933 50.4028 38.6518Z" fill="white"/>
<path d="M61.4471 37.7642V37.153C61.6341 36.7682 61.838 36.3268 62.0418 35.8458C63.5258 32.3883 64.2791 29.5588 64.2791 27.4254C64.2564 25.2807 63.1916 24.1263 61.1923 24.0811C61.079 24.0811 60.9544 24.0924 60.7958 24.1207C58.9777 24.579 58.1338 28.212 58.1338 35.5629C58.1338 43.6154 59.057 47.3729 61.0393 47.3955C61.147 47.3955 61.2772 47.3729 61.4528 47.3107C61.9852 47.0673 62.2684 46.6316 62.2684 46.0487C62.2684 45.8846 62.2118 45.6922 62.0985 45.4602C61.6624 44.4812 61.4471 41.8951 61.4471 37.7642ZM61.5944 32.1562C61.6001 32.0261 61.6114 31.8959 61.6227 31.7714C61.821 28.0309 62.0135 26.8482 62.1211 26.4804C62.2231 26.6049 62.2854 26.8822 62.2967 27.2783C62.2967 28.8345 62.0645 30.4699 61.6001 32.1562H61.5944Z" fill="white"/>
<path d="M75.8276 35.0761C75.8502 35.0309 75.8672 34.9743 75.8672 34.912C75.8672 34.7989 75.8389 34.6744 75.7879 34.5442C75.567 33.9783 75.029 33.6897 74.1851 33.6897C73.4941 33.7293 73.007 33.984 72.7464 34.4254C71.7553 33.4464 70.5942 32.9428 69.2745 32.9258C67.8925 32.9484 66.6465 33.6558 65.576 35.0422C64.3639 36.6154 63.7466 38.4998 63.7466 40.6331C63.7466 41.8272 63.9505 42.9137 64.3583 43.87C65.1342 45.6243 66.352 46.5127 67.9775 46.5127H68.357C69.8409 46.3825 71.1549 45.6639 72.2763 44.3736C72.3273 44.6849 72.3953 45.0923 72.4802 45.579C72.5709 45.9864 72.8937 46.4787 73.9358 46.507C74.1567 46.507 74.3833 46.4731 74.5985 46.4108C75.5274 46.1732 75.7256 45.6639 75.7256 45.2847C75.7256 45.1829 75.7143 45.081 75.6803 44.9565C75.3405 43.9888 75.1649 42.874 75.1649 41.6348C75.1649 40.5539 75.3235 38.8732 75.635 36.6323C75.7313 35.9363 75.7936 35.4157 75.8389 35.0818L75.8276 35.0761ZM72.0555 40.5652C71.3135 44.2265 69.7219 44.6792 69.1046 44.6792C68.9007 44.6792 68.6911 44.6453 68.4816 44.5774C67.5753 44.2888 67.0146 42.7722 67.0146 40.6275V40.1635C67.0033 39.026 66.9863 37.6057 67.4847 36.7002C68.1304 35.5289 69.3481 34.6687 70.1751 34.7649C72.0158 34.9743 72.4802 38.4488 72.0498 40.5652H72.0555Z" fill="white"/>
<path d="M119.626 32.8917C118.521 29.4625 115.282 27.363 109.148 26.2482C108.593 26.8028 107.721 27.114 106.661 27.114C105.851 27.114 105.025 26.9329 104.266 26.5878C103.631 26.2992 103.104 25.92 102.668 25.4786C92.8586 24.8052 84.5554 24.3638 77.4869 24.1035L78.58 24.2846C79.0048 24.3695 79.4692 24.7034 79.5655 25.173C79.5939 25.3202 79.6165 25.6484 79.3333 25.9596C84.7536 26.4689 90.8196 27.2781 97.6049 28.4608C97.6445 28.11 97.6785 27.7648 97.7238 27.4253L97.7521 27.2895C97.9277 26.6783 98.4601 25.7219 100.142 25.6767C101.796 25.6767 102.397 26.5312 102.606 27.0461C102.702 27.2895 102.753 27.5215 102.753 27.7478V27.9346C102.725 28.3533 102.685 28.9079 102.629 29.57C107.313 30.9394 109.204 32.7729 110.671 35.359C112.773 39.0768 112.931 42.8287 111.119 46.207C109.233 49.7268 105.268 51.5263 102.278 52.4148C97.0158 53.9823 91.1764 53.7786 89.0242 52.6015C87.3703 51.7018 87.6818 49.7155 88.1519 46.7106C88.2709 45.9297 88.4125 45.0526 88.5257 44.1189L88.5371 44.0397C88.741 42.6815 88.8429 41.3234 88.8429 39.9709C88.8429 39.1221 88.8033 38.3016 88.724 37.5263C88.3898 34.4422 87.5516 32.9426 86.1639 32.9426C85.5239 32.9653 84.7253 33.384 83.7228 34.2159C82.3748 35.342 81.2534 36.7397 80.3698 38.3752C80.4378 37.8206 80.5171 37.1868 80.619 36.4681C80.6983 35.823 80.7549 35.342 80.8003 34.9912V34.8723C80.8003 34.7422 80.7719 34.6063 80.721 34.4705C80.4944 33.9273 79.9733 33.65 79.1464 33.65C78.3648 33.6953 77.8437 34.0122 77.5889 34.6403C77.232 36.3606 77.0508 38.5506 77.0508 41.148C77.0508 42.6532 77.1924 44.1359 77.4699 45.5732C77.5605 45.9637 77.8834 46.439 78.9255 46.473C79.1238 46.473 79.322 46.4503 79.5259 46.4051C80.4831 46.1674 80.6813 45.6581 80.6813 45.2733C80.6813 45.1884 80.67 45.0979 80.653 45.0073C80.653 44.7697 80.6756 44.5037 80.7096 44.2151C80.9192 42.3024 81.6442 40.2652 82.8562 38.1658C83.8078 36.5134 85.3653 35.2458 85.6938 35.2458C86.3282 35.2628 86.4698 37.4301 86.5207 38.245C86.6114 39.6258 86.2942 40.5199 85.9317 41.5554C85.6825 42.2684 85.2577 44.3226 85.0651 45.2563C83.8361 51.3056 86.753 53.8634 89.296 55.2499C90.6327 55.9798 92.2469 56.3477 94.0876 56.3477C99.1851 56.3477 106.078 53.3711 111.657 48.7591C118.131 43.4115 121.11 37.4754 119.632 32.8861L119.626 32.8917Z" fill="white"/>
<path d="M103.971 46.6483C103.886 46.4446 103.671 46.3257 103.45 46.3654C103.156 46.4163 102.929 46.4333 102.765 46.4163H102.736C101.927 46.4163 101.734 45.7089 101.536 44.6338C101.496 44.4017 101.451 44.181 101.405 44.0169C101.247 42.7041 101.168 41.2158 101.168 39.5974C101.168 37.6847 101.326 34.7591 101.638 30.8997C101.757 29.5416 101.836 28.5456 101.876 27.9005V27.7534C101.876 27.6402 101.847 27.5157 101.796 27.3799C101.57 26.831 101.026 26.5537 100.171 26.5537C99.1002 26.582 98.7321 27.08 98.6018 27.5384C98.33 29.7114 98.1544 32.0824 98.0807 34.6006C97.1575 33.9329 96.1097 33.5877 94.9543 33.5707C93.6006 33.5933 92.4112 34.3573 91.4201 35.8512C90.3553 37.481 89.8115 39.4163 89.8115 41.6063C89.8115 42.5739 89.9475 43.468 90.208 44.2603C90.8763 46.2069 92.1507 47.1916 93.9858 47.1916C94.235 47.1916 94.4955 47.1689 94.7731 47.1293C96.0984 46.9086 97.2651 46.2352 98.2563 45.1261C98.2507 46.2465 98.7038 47.1519 99.5477 47.6669C100.035 47.9612 100.601 48.1083 101.196 48.1083C102.057 48.1083 102.986 47.8027 103.818 47.2142C103.999 47.0897 104.062 46.8577 103.977 46.654L103.971 46.6483ZM98.0921 41.1309C97.9165 41.8949 97.571 42.9814 97.2595 43.5359C96.6081 44.6734 95.8662 45.2506 95.0562 45.2506C94.8297 45.2506 94.6145 45.2166 94.4049 45.1431C93.544 44.8714 93.0229 43.5529 93.0229 41.6232C93.0229 40.3953 93.2891 39.2069 93.8215 38.0921C94.4219 36.8245 95.0846 35.6475 95.8775 35.5173C95.8832 35.5287 95.8888 35.54 95.8945 35.5513C96.0871 35.8852 96.2796 36.1907 96.5288 36.3322C97.3218 36.751 97.8259 37.1754 98.0298 37.5885V37.6111C98.0298 39.139 98.0468 40.3217 98.0864 41.1196L98.0921 41.1309Z" fill="white"/>
<path d="M37.9817 47.0551C37.9194 46.9476 37.8288 46.8741 37.7098 46.8458C37.4096 46.7665 37.0415 46.9872 36.6167 47.2362C36.4128 47.3607 36.0673 47.5644 35.9314 47.5644C34.9515 47.5644 34.7929 46.2289 34.7136 44.8652L34.7023 44.6501C34.7023 44.5483 34.691 44.4464 34.6683 44.3672C34.4701 43.1675 34.4814 42.0414 34.4927 40.3324C34.4927 39.8684 34.4984 39.3591 34.4984 38.7932C34.4984 36.4731 34.674 32.5968 35.0308 27.2152V27.1247C35.0308 26.9945 35.0025 26.8587 34.9515 26.7229C34.725 26.174 34.1812 25.908 33.3543 25.9023C32.6293 25.9929 32.1196 26.3098 31.8421 26.8474L31.8194 26.9153C31.304 29.1449 31.0435 31.9913 31.0435 35.3753C31.0435 38.1311 31.2247 41.3227 31.5872 44.8425C31.6325 46.9646 32.7766 48.6226 34.64 49.2791C35.1328 49.4545 35.6368 49.5337 36.1013 49.5337C36.8886 49.5337 37.5795 49.296 37.959 48.849C38.1912 48.5717 38.5028 47.9775 37.9817 47.0551Z" fill="white"/>
<path d="M28.3248 29.7109C25.3796 30.0504 24.4394 29.609 23.1311 28.5961C21.0128 26.9607 20.8825 23.9389 20.8825 22.2525C20.8825 22.0318 20.8995 21.6018 20.9165 21.3697C21.0751 16.5824 21.1544 13.8831 21.1544 13.1135C21.1544 5.48534 20.2029 1.92026 18.1639 1.89763H18.1525C17.0594 1.92026 16.0229 3.08599 14.9751 5.46836C14.7033 6.18704 14.4484 6.99625 14.2162 7.89035C13.6554 3.78768 12.7549 1.8467 11.4069 1.80708C10.4271 1.82406 9.53783 2.72948 8.71657 4.56861C8.73923 4.19512 8.75055 3.8952 8.75055 3.68582V3.59528C8.75055 3.47645 8.7279 3.35761 8.68825 3.23878C8.67126 3.04072 8.56365 2.36165 7.9123 1.8467C7.1137 1.2129 5.83367 1.07709 4.1062 1.44492C2.26544 1.82972 0.928775 3.0011 0.322743 4.73837C-0.25497 6.39642 -0.0454071 8.36004 0.821162 9.40127C0.821162 9.40127 3.31326 10.6971 4.12319 9.36731C4.42904 8.87499 4.2931 7.88469 4.15717 6.83215C4.06655 6.12479 3.95894 5.32689 4.06655 5.02131C4.20248 4.64217 4.72922 4.17814 4.96144 4.22907C5.05772 4.24605 5.21065 4.47806 5.17666 5.17976C4.88781 7.06416 4.74621 9.30507 4.74621 11.8346C4.74621 14.7942 4.63293 19.6212 5.36923 22.0771C5.65809 23.0278 6.76821 23.3617 7.24397 23.3617C7.37424 23.3617 7.50451 23.3447 7.63477 23.3107C8.78454 23.0052 9.33393 21.4433 9.35659 21.3754L9.57181 20.7473L8.97144 21.0246C8.80719 21.0981 8.67692 21.1208 8.60329 21.0868C8.54099 21.0529 8.50701 20.9566 8.49568 20.8944C8.33143 19.6155 8.13886 17.9292 8.20116 15.9146C8.26913 13.7473 8.64294 11.7214 8.9941 9.87661C9.75306 5.79658 10.4327 5.01566 10.7329 4.8855C10.9481 5.30992 11.3616 7.46594 11.5258 17.5104C11.5258 18.8402 11.6051 20.1305 11.9789 20.8152C12.2791 21.3697 13.31 21.9243 13.9613 21.7715C15.145 21.4999 15.7114 19.8928 15.7341 19.8249L15.9493 19.1967L15.3489 19.474C15.1564 19.5646 14.9978 19.5929 14.9185 19.5476C14.8618 19.5193 14.8449 19.4344 14.8392 19.4344L14.8335 18.0367C14.8505 17.352 14.8845 16.6389 14.9185 15.8976C15.2073 11.6648 15.7794 8.41097 16.595 6.2606C17.1104 5.29294 17.4219 4.98736 17.5522 4.89116C17.6598 5.19108 17.858 6.31153 17.858 10.4312C17.858 12.8249 17.7787 16.2428 17.6201 20.5888C17.5975 21.398 17.5918 21.8451 17.5918 21.9243C17.5918 21.9356 17.5918 21.9526 17.5918 21.9639C17.5862 22.3827 17.6145 26.7457 20.1859 29.4336C22.1909 31.5217 24.7169 32.2234 28.625 31.7707C29.2084 31.7028 29.7521 31.6179 30.2675 31.5274C30.3355 30.5824 30.4261 29.6939 30.5451 28.8621C29.8541 29.2638 29.1234 29.5977 28.3022 29.6939L28.3248 29.7109Z" fill="white"/>
<path d="M45.9623 8.9375C44.9371 8.9375 43.9516 9.17517 43.0341 9.64486C41.4425 10.4541 40.5193 11.6311 40.2871 13.1986V13.3175C40.2871 13.4476 40.3098 13.5891 40.3607 13.7419C40.5873 14.3587 41.0347 14.5058 41.3519 14.4888C41.3632 14.4888 41.3746 14.4888 41.3859 14.4888C40.9498 14.9076 40.7119 15.7677 40.6666 17.0863V17.0976C40.6666 18.6594 41.0291 19.9836 41.7484 21.0305C42.6036 22.2641 43.7534 22.8922 45.1694 22.8922C46.8062 22.8696 48.2278 22.134 49.4003 20.6909C50.6123 19.1348 51.2297 17.2447 51.2297 15.066C51.2297 13.9512 51.0314 12.9327 50.6463 12.0386C49.7967 9.99005 48.2222 8.94882 45.9623 8.94882V8.9375ZM42.3431 13.4476C42.4167 13.176 42.5187 12.9044 42.6433 12.661C43.1417 11.7669 43.861 11.3312 44.8408 11.3312C45.5375 11.3312 46.1435 11.5745 46.6816 12.0782C47.5991 12.9609 48.0692 14.3191 48.0692 16.1186C48.0692 17.0183 47.9163 17.8672 47.6161 18.6368C47.0667 20.0628 46.2285 20.7532 45.0504 20.7532C44.8975 20.7532 44.7446 20.7136 44.5803 20.6344C43.9176 20.3288 43.5948 19.7289 43.5948 18.8009C43.5948 18.2972 43.6798 17.6917 43.844 17.0353C43.895 16.8882 43.9176 16.6732 43.9176 16.3846C43.9176 16.0507 43.8383 15.7055 43.6798 15.3433C43.2946 14.5794 42.7452 14.1889 42.0146 14.1889C42.0146 14.1889 41.9693 14.1946 41.9466 14.2002C42.1109 14.0305 42.2411 13.7815 42.3544 13.4533L42.3431 13.4476Z" fill="white"/>
<path d="M61.2264 9.52637C60.5184 9.549 59.7085 9.99605 58.74 10.9015C57.5675 12.0446 56.5424 13.4762 55.6871 15.1682C55.7551 14.5458 55.8401 13.8328 55.942 13.0179C56.0213 12.3105 56.0779 11.7899 56.1232 11.4277V11.3372C56.1232 11.207 56.0949 11.0712 56.044 10.9354C55.8401 10.4374 55.3926 10.5336 55.0698 10.6072C54.8999 10.6412 54.7016 10.6864 54.4694 10.6864C53.6878 10.7317 53.1667 11.0486 52.9118 11.6767C52.521 13.5668 52.3738 15.1739 52.3738 17.6129C52.3738 19.0955 52.5154 20.5725 52.7929 22.0041C52.8835 22.4116 53.2064 22.9039 54.2485 22.9322C54.4524 22.9322 54.6676 22.8982 54.8772 22.836C55.8061 22.5983 56.0043 22.089 56.0043 21.7099C56.0043 21.625 55.993 21.5345 55.976 21.4439C55.9873 21.0591 56.1459 16.8885 57.4656 14.8683C58.7343 12.916 59.3233 12.5029 59.5725 12.5029C59.7991 12.5142 59.8331 13.1084 59.8387 13.2838C59.8387 13.5328 59.7821 13.8384 59.6745 14.2006C59.2497 15.5078 59.2497 15.6775 59.2497 15.7624C59.2497 15.8643 59.261 15.9661 59.2837 16.0454C59.4253 16.8602 61.4416 16.9564 61.4813 16.9564C61.7078 16.9282 61.923 16.8037 62.1779 16.549C62.7103 15.8247 62.9709 14.5854 62.9709 12.7519C62.9482 10.6581 62.3705 9.57164 61.232 9.52637H61.2264Z" fill="white"/>
<path d="M82.7377 8.9375C81.7126 8.9375 80.7271 9.17517 79.8095 9.64486C78.218 10.4541 77.2948 11.6311 77.0569 13.1986V13.3175C77.0569 13.4476 77.0795 13.5891 77.1362 13.7419C77.3627 14.3587 77.7819 14.5058 78.1274 14.4888C78.1387 14.4888 78.15 14.4888 78.1613 14.4888C77.7252 14.9076 77.4873 15.7677 77.442 17.0863V17.0976C77.442 18.6594 77.8045 19.9836 78.5238 21.0305C79.3791 22.2641 80.5288 22.8922 81.9448 22.8922C83.5816 22.8696 85.0033 22.134 86.1757 20.6909C87.3877 19.1348 88.0051 17.2447 88.0051 15.066C88.0051 13.9512 87.8069 12.9327 87.4217 12.0386C86.5722 9.99005 84.9976 8.94882 82.7377 8.94882V8.9375ZM79.1185 13.4476C79.1922 13.176 79.2941 12.9044 79.413 12.661C79.9115 11.7669 80.6364 11.3312 81.6163 11.3312C82.3129 11.3312 82.919 11.5745 83.457 12.0782C84.3746 12.9609 84.8447 14.3191 84.8447 16.1186C84.8447 17.0183 84.6918 17.8672 84.3916 18.6368C83.8422 20.0628 83.0039 20.7532 81.8258 20.7532C81.6729 20.7532 81.52 20.7136 81.3557 20.6344C80.6931 20.3288 80.3702 19.7289 80.3702 18.8009C80.3702 18.2972 80.4552 17.6917 80.6194 17.0353C80.6704 16.8882 80.6931 16.6732 80.6931 16.3846C80.6931 16.0563 80.6138 15.7111 80.4552 15.3433C80.0701 14.5794 79.5207 14.1889 78.79 14.1889C78.79 14.1889 78.7447 14.1946 78.7221 14.2002C78.8863 14.0305 79.0166 13.7815 79.1299 13.4533L79.1185 13.4476Z" fill="white"/>
<path d="M117.066 19.2988C116.84 18.6254 116.409 18.4839 116.092 18.4839C115.882 18.4839 115.633 18.6084 115.305 18.8913C115.254 18.9423 115.197 18.9932 115.112 19.0555C114.857 19.2818 114.602 19.5308 114.348 19.7798C113.549 20.5551 112.716 21.3643 112.048 21.3643C110.825 21.3473 110.315 19.412 110.23 17.6294C111.425 17.8048 112.495 17.7369 113.47 17.4483C115.599 16.7806 116.675 15.1735 116.675 12.6723C116.675 11.8291 116.426 11.0765 115.939 10.4427C115.157 9.39013 114.002 8.85254 112.495 8.85254C111.102 8.87517 109.896 9.4637 108.922 10.6068C107.625 12.1856 106.968 14.3869 106.968 17.1484C106.968 18.2802 107.132 19.2818 107.46 20.142C108.214 21.9811 109.618 22.9091 111.646 22.9091C112.076 22.9091 112.535 22.8582 113.005 22.7563C114.614 22.4112 115.916 21.6472 116.902 20.4475C117.027 20.2551 117.1 20.0118 117.123 19.7062C117.123 19.593 117.111 19.4685 117.078 19.2931L117.066 19.2988ZM110.405 15.1112C110.519 14.5793 110.66 14.07 110.842 13.6003C111.425 12.1573 112.246 10.4936 113.447 10.4936C114.144 10.5106 114.642 11.7159 114.659 12.7798C114.642 14.2681 113.945 16.011 112.037 16.0506C111.918 16.0506 111.646 15.8525 111.425 15.6941C111.119 15.4734 110.779 15.2301 110.405 15.1056V15.1112Z" fill="white"/>
<path d="M77.4646 25.1221C77.2776 25.1447 77.1191 25.1504 77.0001 25.1391H76.9718C76.5866 25.1391 76.2751 24.9919 76.0316 24.7033C75.5842 24.1714 75.4992 23.2886 75.6068 22.7001L75.6634 22.3662C75.9466 20.6516 76.0882 18.8351 76.0882 16.9677C76.0882 16.2264 76.0656 15.4964 76.0259 14.7947C75.7541 11.1504 74.9101 9.37915 73.4319 9.37915C72.8485 9.40178 72.1179 9.79224 71.189 10.5675C69.7957 11.7955 68.6176 13.3573 67.6774 15.2361L67.6661 12.9669C70.1978 10.1374 71.4948 7.12126 71.5118 4.00323C71.5118 3.62409 71.5005 3.32983 71.4779 3.11479C71.4156 2.54891 71.172 2.02263 70.7529 1.54163C70.1072 0.856909 69.3539 0.511719 68.51 0.511719C68.3401 0.511719 68.1702 0.523036 67.9889 0.545672C65.4685 0.987063 64.2451 4.73323 64.2451 11.9935C64.2451 15.3889 64.4037 18.7785 64.7152 22.0606C64.7379 22.3492 64.8058 22.6209 64.9135 22.8585C65.2306 23.6055 65.7913 24.0016 66.5333 24.0016C66.6296 24.0016 66.7372 23.9903 66.8618 23.962C67.3659 23.8432 67.9663 23.464 67.9663 22.304C67.9663 22.304 67.9436 21.772 67.9663 21.5966C68.1532 19.8311 68.9291 17.1657 70.1469 14.8286C71.274 12.6047 71.8517 12.3614 72.0386 12.3614C72.2935 12.367 72.8882 12.7066 72.9108 15.6718C72.9108 16.8941 72.7635 18.7898 72.469 21.2967C72.3897 21.9701 72.3388 22.4228 72.3218 22.6831V22.785C72.2312 24.2676 72.8202 25.5012 73.9303 26.1803C74.4684 26.5085 75.0801 26.667 75.7144 26.667C76.4111 26.667 77.1304 26.4689 77.7874 26.0784C77.9969 25.9539 78.0876 25.6993 78.0083 25.4673C77.929 25.2296 77.6968 25.0881 77.4476 25.1221H77.4646ZM69.3029 2.84883C69.3369 2.90541 69.4332 3.10913 69.4502 3.77122C69.4502 5.81973 68.8838 7.87955 67.7624 9.8941C67.7737 9.66775 67.7907 9.44139 67.802 9.21504C68.1192 3.70897 68.9235 2.91107 69.3029 2.85449V2.84883Z" fill="white"/>
<path d="M108.633 23.8604C108.412 23.4643 107.744 23.5209 106.747 23.6511C106.469 23.685 106.18 23.7246 106.039 23.7133C105.75 23.7133 105.557 23.6454 105.444 23.5153C105.206 23.2323 105.291 22.6098 105.399 22.0383C105.399 22.0383 105.869 17.1038 105.869 15.9437C105.869 11.6769 105.048 9.5775 103.343 9.53223C102.946 9.53223 102.516 9.65106 102.063 9.88873C100.964 10.4659 99.9389 11.5411 99.0043 13.086C98.5795 11.6883 97.8489 10.9752 96.8294 10.9752C96.28 10.9752 95.6853 11.2016 95.0736 11.643C94.0824 12.3447 93.2045 13.3859 92.4569 14.744C92.5475 13.8952 92.6721 12.8823 92.7967 11.9203C92.8534 11.411 92.5928 10.698 92.1681 10.2226C91.8849 9.90571 91.579 9.73029 91.2222 9.7416C90.231 9.8661 89.1436 15.0836 89.1436 17.2396C89.1436 18.7222 89.2852 20.1992 89.5627 21.6309C89.6533 22.0383 89.9761 22.5306 91.0183 22.5589C91.2165 22.5589 91.4148 22.5363 91.6187 22.491C92.5758 22.2533 92.7741 21.744 92.7741 21.3592C92.7741 21.2687 92.7628 21.1838 92.7458 21.0933C92.7514 19.8483 93.1932 18.2638 94.0485 16.3794C95.5267 13.1256 96.0308 12.7917 96.1327 12.7691C96.1497 12.7691 96.5745 12.8144 96.5972 14.9025C96.5972 15.6042 96.1894 17.5961 95.8949 19.0448L95.7816 19.605C95.7419 19.8313 95.7136 19.9785 95.6966 20.0577V20.2161C95.691 20.352 95.7136 20.4878 95.7703 20.6179C95.9968 21.1668 96.5179 21.4441 97.3448 21.4441C98.1264 21.3988 98.6475 21.082 98.8967 20.4765C99.1346 19.7012 99.1742 18.7335 99.3498 17.6414C99.5141 16.6284 99.9785 15.6608 100.415 14.7101C101.287 12.7748 102.703 11.128 103.037 11.1054C103.037 11.1054 103.479 11.2016 103.501 13.9461C103.501 14.8855 103.207 16.3059 102.901 17.8111C102.663 18.9769 102.414 20.1765 102.267 21.3366L102.227 21.5912C102.023 23.487 102.895 25.0205 104.623 25.8014C105.28 26.1014 106.005 26.2428 106.662 26.2428C107.466 26.2428 108.174 26.0278 108.565 25.6034C108.803 25.3431 109.131 24.7715 108.627 23.8718L108.633 23.8604Z" fill="white"/>
</g>
<defs>
<clipPath id="clip0_1261_7859">
<rect width="120" height="55.8416" fill="white" transform="translate(0 0.0849609)"/>
</clipPath>
</defs>
</svg>
