<svg width="120" height="56" viewBox="0 0 120 56" fill="none" xmlns="http://www.w3.org/2000/svg">
<g clip-path="url(#clip0_1261_8705)">
<path d="M59.5271 23.3916C45.8602 23.5732 39.9528 24.833 35.7842 26.0475C35.8578 26.2631 35.9031 26.4788 35.9031 26.6887V26.8533C35.8352 27.8294 35.7785 28.7544 35.7275 29.634C36.0957 29.5092 36.4808 29.373 36.8943 29.2311C40.9043 27.8294 47.2761 25.6048 58.4679 24.9692C58.7624 24.2769 59.1136 23.7548 59.5271 23.3916Z" fill="#0B284C"/>
<path d="M32.6295 11.5487C31.7799 9.49438 30.1997 8.4502 27.9455 8.4502C26.9203 8.4502 25.9348 8.68854 25.0173 9.15956C23.4257 9.97107 22.5025 11.1515 22.2646 12.7234V12.8426C22.2646 12.9731 22.2873 13.1093 22.3383 13.2682C22.5648 13.8868 22.9896 14.0343 23.3295 14.0173C23.3408 14.0173 23.3521 14.0173 23.3634 14.0173C22.9273 14.4372 22.6894 15.2998 22.6441 16.6221V16.6334C22.6441 18.1997 23.0066 19.5276 23.7259 20.5775C24.5812 21.8146 25.7309 22.4445 27.1469 22.4445C28.7837 22.4218 30.2054 21.6841 31.3778 20.237C32.5899 18.6764 33.2072 16.781 33.2072 14.5961C33.2072 13.4782 33.009 12.4567 32.6238 11.56L32.6295 11.5487ZM24.3263 12.9731C24.3999 12.7007 24.5019 12.4283 24.6265 12.1843C25.1249 11.2876 25.8442 10.8507 26.8241 10.8507C27.5207 10.8507 28.1267 11.0947 28.6648 11.5998C29.5823 12.4851 30.0524 13.847 30.0524 15.6517C30.0524 16.554 29.8995 17.4052 29.5993 18.177C29.0499 19.6071 28.2117 20.2994 27.0336 20.2994C26.8807 20.2994 26.7278 20.2597 26.5635 20.1802C25.9008 19.8738 25.578 19.2722 25.578 18.3416C25.578 17.8365 25.663 17.235 25.8272 16.571C25.8782 16.4234 25.9008 16.2078 25.9008 15.9184C25.9008 15.5892 25.8215 15.2431 25.663 14.8742C25.2778 14.1081 24.7284 13.7165 23.9978 13.7165C23.9978 13.7165 23.9525 13.7222 23.9298 13.7279C24.0941 13.5576 24.2243 13.3079 24.3376 12.9788L24.3263 12.9731Z" fill="#0B284C"/>
<path d="M40.632 21.5814C40.6093 21.4906 40.5867 21.3373 40.5527 21.1444C40.2978 19.6235 40.1222 18.9936 39.6748 18.9936C39.5842 18.9936 39.4992 19.0106 39.4143 19.0333C39.1027 19.1298 38.9215 19.5384 38.661 20.208C38.5647 20.4464 38.4287 20.7982 38.3381 20.9174C38.2305 20.9174 38.1455 20.906 38.0832 20.8947C37.8793 20.8493 37.2167 20.3272 37.2167 15.4695C37.2167 14.6863 37.2507 13.557 37.3243 12.1043C38.0096 11.9794 39.335 11.6446 39.3689 10.5891C39.3689 10.4585 39.3463 10.3223 39.301 10.1975C39.1084 9.43137 38.678 9.27248 38.3494 9.27248C38.2475 9.27248 38.1342 9.30085 38.0096 9.36328C37.8001 9.47677 37.6131 9.57325 37.4602 9.6527C37.6301 7.29761 37.834 5.28869 38.0889 3.68269L38.1229 3.61459C38.1569 3.51812 38.1682 3.46137 38.1682 3.4103C38.1682 3.26275 38.1229 3.1152 38.0436 2.97333C37.7547 2.46826 37.2167 2.21289 36.4237 2.21289C35.6421 2.28099 35.1437 2.58176 34.9455 3.10385L34.9285 3.17195C34.6283 5.57244 34.0732 13.6989 34.0732 14.2607C34.0732 19.8278 35.0531 22.722 37.0807 23.1079C37.5508 23.1874 37.9813 23.2328 38.3664 23.2328C38.6723 23.2328 39.1481 23.193 39.8334 23.1136C39.8787 23.1136 39.9353 23.0966 40.0429 23.0625C40.3375 22.932 40.683 22.6312 40.683 21.9162C40.683 21.8197 40.6716 21.7176 40.649 21.587L40.632 21.5814Z" fill="#0B284C"/>
<path d="M46.217 42.4711C45.9905 41.7958 45.56 41.654 45.2429 41.654C45.0333 41.654 44.7841 41.7788 44.4499 42.0625C44.399 42.1136 44.3423 42.1647 44.2574 42.2271C44.0421 42.4201 43.8326 42.6187 43.6173 42.823C42.7734 43.6175 41.9012 44.4403 41.1932 44.4403C39.8679 44.4233 39.3808 42.2782 39.3638 40.2806C39.3638 38.8903 39.6243 37.5623 40.1341 36.3479L40.355 35.8315C40.8534 34.6568 41.2782 33.6467 41.8785 33.6467C42.6205 33.7091 42.8414 33.8339 42.9037 33.9077C43.2549 34.2993 43.4701 35.0427 43.6627 35.701C43.7306 35.928 43.7929 36.1436 43.8552 36.3309L43.8779 36.382C44.1214 36.8019 44.4273 37.0289 44.8011 37.0516C44.886 37.0516 44.9767 37.0403 45.1239 37.0005C45.4411 36.8587 45.8206 36.5409 45.8206 35.8258C45.8206 35.6329 45.7923 35.474 45.7526 35.3605C45.5657 34.7362 45.2599 34.1574 44.8464 33.6353C43.8496 32.4322 42.5582 31.8193 40.995 31.8193C39.7999 31.842 38.7181 32.5684 37.7836 33.9872C36.6791 35.718 36.1184 37.8404 36.1184 40.2863C36.1184 41.4837 36.3053 42.5336 36.6735 43.4132C37.4268 45.1951 38.8144 46.0974 40.7967 46.0974C41.2272 46.0974 41.6803 46.0463 42.1561 45.9442C43.7646 45.598 45.0673 44.8262 46.0528 43.6288C46.1774 43.4359 46.251 43.1919 46.2737 42.8854C46.2737 42.7719 46.2624 42.6471 46.2284 42.4711H46.217Z" fill="#0B284C"/>
<path d="M57.0689 42.4425C56.8424 41.7672 56.4119 41.6253 56.0947 41.6253C55.8852 41.6253 55.636 41.7502 55.3018 42.0339C55.2508 42.085 55.1942 42.136 55.1092 42.1985C54.8204 42.4538 54.5372 42.7433 54.2483 43.0327C53.478 43.8045 52.6851 44.6046 52.0451 44.6046C50.8953 44.5876 50.3176 42.7149 50.227 40.7627C51.422 40.9386 52.4925 40.8762 53.4667 40.5811C55.5963 39.9115 56.6724 38.2998 56.6724 35.7915C56.6724 34.9459 56.4232 34.1912 55.9361 33.5556C55.1545 32.5001 53.9991 31.9609 52.4925 31.9609C51.0935 31.9836 49.8928 32.5738 48.9186 33.7202C47.6216 35.3035 46.9646 37.511 46.9646 40.2804C46.9646 41.4153 47.1289 42.4198 47.4574 43.2824C48.2106 45.1267 49.6153 46.0574 51.6429 46.0574C52.0734 46.0574 52.5322 46.0063 53.0023 45.9042C54.6108 45.558 55.9135 44.7919 56.899 43.5888C57.0236 43.3959 57.0972 43.1519 57.1199 42.8454C57.1199 42.7319 57.1086 42.6071 57.0746 42.4311L57.0689 42.4425ZM50.4026 38.2487C50.5102 37.7153 50.6574 37.1989 50.8387 36.7279C50.9293 36.5065 51.0086 36.2909 51.0935 36.0752C51.6203 34.7019 52.0791 33.5215 53.0249 33.5215C53.6819 33.5386 54.6391 34.7757 54.6561 35.9107C54.6391 37.5961 53.8179 39.3156 52.0337 39.3497C51.9318 39.3497 51.6429 39.1056 51.4504 38.9467C51.1389 38.6857 50.7934 38.3906 50.4026 38.2487Z" fill="#0B284C"/>
<path d="M61.4471 37.3577V36.7448C61.6341 36.3589 61.838 35.9162 62.0418 35.4339C63.5258 31.9665 64.2791 29.1291 64.2791 26.9896C64.2564 24.8388 63.1916 23.6811 61.1923 23.6357C61.079 23.6357 60.9544 23.6471 60.7958 23.6755C58.9777 24.1351 58.1338 27.7784 58.1338 35.1501C58.1338 43.2255 59.057 46.9937 61.0393 47.0164C61.147 47.0164 61.2772 46.9937 61.4528 46.9312C61.9852 46.6872 62.2684 46.2503 62.2684 45.6657C62.2684 45.5012 62.2118 45.3082 62.0985 45.0755C61.6624 44.0938 61.4471 41.5004 61.4471 37.3577ZM61.5944 31.7338C61.6001 31.6033 61.6114 31.4728 61.6227 31.3479C61.821 27.5968 62.0135 26.4108 62.1211 26.0419C62.2231 26.1668 62.2854 26.4448 62.2967 26.8421C62.2967 28.4027 62.0645 30.0427 61.6001 31.7338H61.5944Z" fill="#0B284C"/>
<path d="M75.8281 34.6623C75.8507 34.6169 75.8677 34.5602 75.8677 34.4978C75.8677 34.3843 75.8394 34.2594 75.7884 34.1289C75.5675 33.5614 75.0295 33.272 74.1855 33.272C73.4946 33.3117 73.0075 33.5671 72.7469 34.0097C71.7558 33.028 70.5947 32.5229 69.275 32.5059C67.893 32.5286 66.647 33.2379 65.5765 34.6283C64.3644 36.2059 63.7471 38.0956 63.7471 40.2351C63.7471 41.4325 63.951 42.5221 64.3588 43.4811C65.1347 45.2404 66.3524 46.1313 67.978 46.1313H68.3574C69.8414 46.0008 71.1554 45.2801 72.2768 43.9862C72.3278 44.2983 72.3958 44.7069 72.4807 45.195C72.5714 45.6035 72.8942 46.0973 73.9363 46.1256C74.1572 46.1256 74.3838 46.0916 74.599 46.0292C75.5279 45.7908 75.7261 45.2801 75.7261 44.8999C75.7261 44.7977 75.7148 44.6956 75.6808 44.5707C75.341 43.6003 75.1654 42.4823 75.1654 41.2395C75.1654 40.1556 75.324 38.4702 75.6355 36.2229C75.7318 35.5249 75.7941 35.0028 75.8394 34.668L75.8281 34.6623ZM72.0559 40.167C71.314 43.8387 69.7224 44.2926 69.1051 44.2926C68.9012 44.2926 68.6916 44.2586 68.4821 44.1905C67.5758 43.9011 67.0151 42.3802 67.0151 40.2294V39.7641C67.0038 38.6234 66.9868 37.199 67.4852 36.291C68.1309 35.1163 69.3486 34.2537 70.1755 34.3502C72.0163 34.5602 72.4807 38.0446 72.0503 40.167H72.0559Z" fill="#0B284C"/>
<path d="M119.626 32.4713C118.522 29.0323 115.282 26.927 109.148 25.809C108.593 26.3651 107.721 26.6773 106.662 26.6773C105.852 26.6773 105.025 26.4957 104.266 26.1495C103.631 25.8601 103.105 25.4798 102.669 25.0372C92.8588 24.3619 84.5556 23.9192 77.4871 23.6582L78.5803 23.8398C79.0051 23.9249 79.4695 24.2597 79.5658 24.7308C79.5941 24.8783 79.6168 25.2075 79.3336 25.5196C84.7539 26.0303 90.8198 26.8418 97.6051 28.0279C97.6448 27.676 97.6788 27.3299 97.7241 26.9894L97.7524 26.8532C97.928 26.2403 98.4604 25.2812 100.143 25.2358C101.796 25.2358 102.397 26.0927 102.606 26.6092C102.703 26.8532 102.754 27.0858 102.754 27.3128V27.5001C102.725 27.9201 102.686 28.4762 102.629 29.1402C107.313 30.5135 109.205 32.3522 110.672 34.9456C112.773 38.674 112.932 42.4365 111.119 45.8244C109.233 49.3542 105.268 51.1588 102.278 52.0498C97.0161 53.6217 91.1767 53.4174 89.0244 52.237C87.3706 51.3347 87.6821 49.3428 88.1522 46.3295C88.2711 45.5463 88.4127 44.6667 88.526 43.7304L88.5373 43.6509C88.7412 42.2889 88.8432 40.927 88.8432 39.5707C88.8432 38.7194 88.8035 37.8966 88.7242 37.1191C88.39 34.0263 87.5518 32.5224 86.1642 32.5224C85.5241 32.5451 84.7255 32.9651 83.723 33.7993C82.375 34.9286 81.2536 36.3303 80.37 37.9703C80.438 37.4142 80.5173 36.7786 80.6193 36.0579C80.6985 35.4109 80.7552 34.9286 80.8005 34.5767V34.4576C80.8005 34.327 80.7722 34.1908 80.7212 34.0546C80.4947 33.5098 79.9736 33.2318 79.1467 33.2318C78.365 33.2772 77.844 33.595 77.5891 34.2249C77.2323 35.9501 77.051 38.1462 77.051 40.751C77.051 42.2606 77.1926 43.7474 77.4702 45.1888C77.5608 45.5804 77.8836 46.0571 78.9258 46.0911C79.124 46.0911 79.3222 46.0684 79.5261 46.023C80.4833 45.7847 80.6816 45.2739 80.6816 44.888C80.6816 44.8029 80.6702 44.7121 80.6532 44.6213C80.6532 44.383 80.6759 44.1163 80.7099 43.8268C80.9194 41.9087 81.6444 39.8657 82.8565 37.7604C83.808 36.1033 85.3656 34.8321 85.6941 34.8321C86.3284 34.8491 86.47 37.0226 86.521 37.8398C86.6116 39.2245 86.2944 40.1211 85.9319 41.1596C85.6827 41.8747 85.2579 43.9347 85.0654 44.871C83.8363 50.9375 86.7532 53.5026 89.2963 54.8929C90.6329 55.625 92.2471 55.9938 94.0879 55.9938C99.1853 55.9938 106.078 53.0088 111.657 48.3838C118.131 43.021 121.11 37.068 119.632 32.4657L119.626 32.4713Z" fill="#0B284C"/>
<path d="M103.971 46.2678C103.886 46.0635 103.671 45.9443 103.45 45.9841C103.156 46.0351 102.929 46.0522 102.765 46.0351H102.737C101.927 46.0351 101.734 45.3258 101.536 44.2475C101.496 44.0149 101.451 43.7936 101.406 43.629C101.247 42.3124 101.168 40.8199 101.168 39.1969C101.168 37.2788 101.326 34.3448 101.638 30.4745C101.757 29.1126 101.836 28.1138 101.876 27.4668V27.3193C101.876 27.2058 101.847 27.0809 101.796 26.9447C101.57 26.3943 101.026 26.1162 100.171 26.1162C99.1004 26.1446 98.7322 26.644 98.6019 27.1036C98.3301 29.2828 98.1545 31.6606 98.0809 34.1859C97.1577 33.5163 96.1098 33.1701 94.9544 33.1531C93.6008 33.1758 92.4114 33.9419 91.4202 35.4401C90.3554 37.0745 89.8116 39.0153 89.8116 41.2115C89.8116 42.1819 89.9476 43.0785 90.2081 43.873C90.8764 45.8252 92.1508 46.8126 93.9859 46.8126C94.2351 46.8126 94.4956 46.7899 94.7732 46.7502C96.0985 46.5289 97.2653 45.8535 98.2564 44.7413C98.2508 45.8649 98.7039 46.7729 99.5478 47.2893C100.035 47.5844 100.601 47.7319 101.196 47.7319C102.057 47.7319 102.986 47.4255 103.818 46.8353C104 46.7105 104.062 46.4778 103.977 46.2735L103.971 46.2678ZM98.0922 40.7348C97.9166 41.5009 97.5711 42.5905 97.2596 43.1466C96.6083 44.2873 95.8663 44.8661 95.0564 44.8661C94.8298 44.8661 94.6146 44.8321 94.405 44.7583C93.5441 44.4859 93.023 43.1636 93.023 41.2285C93.023 39.997 93.2892 38.8053 93.8216 37.6874C94.422 36.4162 95.0847 35.2358 95.8776 35.1053C95.8833 35.1166 95.889 35.128 95.8946 35.1393C96.0872 35.4741 96.2798 35.7806 96.529 35.9225C97.3219 36.3424 97.826 36.768 98.0299 37.1823V37.205C98.0299 38.7372 98.0469 39.9233 98.0865 40.7234L98.0922 40.7348Z" fill="#0B284C"/>
<path d="M37.9822 46.6757C37.9199 46.5679 37.8292 46.4941 37.7103 46.4657C37.4101 46.3863 37.042 46.6076 36.6172 46.8573C36.4133 46.9821 36.0678 47.1864 35.9318 47.1864C34.952 47.1864 34.7934 45.8472 34.7141 44.4795L34.7028 44.2639C34.7028 44.1617 34.6915 44.0596 34.6688 43.9801C34.4706 42.777 34.4819 41.6477 34.4932 39.9339C34.4932 39.4686 34.4989 38.9578 34.4989 38.3903C34.4989 36.0636 34.6745 32.1763 35.0313 26.7795V26.6887C35.0313 26.5581 35.003 26.422 34.952 26.2858C34.7254 25.7353 34.1817 25.4686 33.3548 25.4629C32.6298 25.5537 32.1201 25.8715 31.8425 26.4106L31.8199 26.4787C31.3045 28.7146 31.0439 31.5691 31.0439 34.9627C31.0439 37.7264 31.2252 40.927 31.5877 44.4568C31.633 46.5849 32.7771 48.2476 34.6405 48.9059C35.1332 49.0819 35.6373 49.1613 36.1018 49.1613C36.889 49.1613 37.58 48.923 37.9595 48.4746C38.1917 48.1966 38.5032 47.6007 37.9822 46.6757Z" fill="#0B284C"/>
<path d="M28.3253 29.2819C25.3801 29.6224 24.4399 29.1797 23.1316 28.1639C21.0133 26.5239 20.883 23.4935 20.883 21.8024C20.883 21.581 20.9 21.1497 20.917 20.9171C21.0756 16.1161 21.1549 13.4092 21.1549 12.6374C21.1549 4.98761 20.2033 1.41242 18.1644 1.38972H18.153C17.0599 1.41242 16.0234 2.58145 14.9756 4.97058C14.7037 5.6913 14.4489 6.50281 14.2167 7.39945C13.6559 3.28514 12.7554 1.33864 11.4074 1.29892C10.4275 1.31594 9.53832 2.22393 8.71706 4.06827C8.73971 3.69373 8.75104 3.39296 8.75104 3.18299V3.09219C8.75104 2.97302 8.72839 2.85384 8.68874 2.73467C8.67175 2.53605 8.56413 1.85506 7.91279 1.33864C7.11419 0.703053 5.83416 0.566856 4.10668 0.935725C2.26593 1.32162 0.929264 2.49632 0.323231 4.23852C-0.254481 5.90127 -0.0449188 7.87046 0.82165 8.91465C0.82165 8.91465 3.31374 10.2142 4.12368 8.8806C4.42952 8.38688 4.29359 7.39377 4.15766 6.33824C4.06704 5.62887 3.95942 4.82871 4.06704 4.52227C4.20297 4.14205 4.72971 3.67671 4.96193 3.72778C5.05821 3.7448 5.21114 3.97748 5.17715 4.68116C4.8883 6.57091 4.7467 8.81817 4.7467 11.3549C4.7467 14.3228 4.63342 19.1635 5.36972 21.6264C5.65858 22.5798 6.76869 22.9146 7.24446 22.9146C7.37473 22.9146 7.50499 22.8976 7.63526 22.8636C8.78502 22.5571 9.33442 20.9909 9.35707 20.9228L9.5723 20.2928L8.97193 20.5709C8.80768 20.6447 8.67741 20.6674 8.60378 20.6333C8.54148 20.5993 8.5075 20.5028 8.49617 20.4404C8.33192 19.1579 8.13935 17.4667 8.20165 15.4465C8.26961 13.273 8.64343 11.2414 8.99459 9.39134C9.75354 5.29973 10.4332 4.51659 10.7334 4.38607C10.9486 4.81169 11.3621 6.97383 11.5263 17.0468C11.5263 18.3804 11.6056 19.6743 11.9794 20.3609C12.2796 20.9171 13.3104 21.4732 13.9618 21.32C15.1455 21.0476 15.7119 19.4359 15.7346 19.3678L15.9498 18.7379L15.3494 19.016C15.1569 19.1068 14.9983 19.1352 14.919 19.0898C14.8623 19.0614 14.8453 18.9763 14.8397 18.9763L14.834 17.5746C14.851 16.8879 14.885 16.1729 14.919 15.4294C15.2078 11.1846 15.7799 7.92154 16.5955 5.76507C17.1109 4.79466 17.4224 4.48822 17.5527 4.39174C17.6603 4.69251 17.8585 5.81615 17.8585 9.94748C17.8585 12.348 17.7792 15.7756 17.6206 20.1339C17.598 20.9455 17.5923 21.3938 17.5923 21.4732C17.5923 21.4846 17.5923 21.5016 17.5923 21.5129C17.5866 21.9329 17.615 26.3082 20.1864 29.0038C22.1914 31.0979 24.7174 31.8016 28.6255 31.3476C29.2089 31.2795 29.7526 31.1943 30.268 31.1035C30.336 30.1558 30.4266 29.2649 30.5455 28.4307C29.8545 28.8336 29.1239 29.1684 28.3027 29.2649L28.3253 29.2819Z" fill="#0B284C"/>
<path d="M45.9622 8.4502C44.937 8.4502 43.9515 8.68854 43.034 9.15956C41.4424 9.97107 40.5192 11.1515 40.287 12.7234V12.8426C40.287 12.9731 40.3096 13.115 40.3606 13.2682C40.5872 13.8868 41.0346 14.0343 41.3518 14.0173C41.3631 14.0173 41.3744 14.0173 41.3858 14.0173C40.9497 14.4372 40.7118 15.2998 40.6665 16.6221V16.6334C40.6665 18.1997 41.029 19.5276 41.7483 20.5775C42.6035 21.8146 43.7533 22.4445 45.1692 22.4445C46.8061 22.4218 48.2277 21.6841 49.4001 20.237C50.6122 18.6764 51.2296 16.781 51.2296 14.5961C51.2296 13.4782 51.0313 12.4567 50.6462 11.56C49.7966 9.50573 48.222 8.46154 45.9622 8.46154V8.4502ZM42.343 12.9731C42.4166 12.7007 42.5185 12.4283 42.6432 12.1843C43.1416 11.2876 43.8609 10.8507 44.8407 10.8507C45.5374 10.8507 46.1434 11.0947 46.6815 11.5998C47.599 12.4851 48.0691 13.847 48.0691 15.6517C48.0691 16.554 47.9162 17.4052 47.616 18.177C47.0666 19.6071 46.2284 20.2994 45.0503 20.2994C44.8974 20.2994 44.7444 20.2597 44.5802 20.1802C43.9175 19.8738 43.5947 19.2722 43.5947 18.3416C43.5947 17.8365 43.6796 17.2293 43.8439 16.571C43.8949 16.4234 43.9175 16.2078 43.9175 15.9184C43.9175 15.5836 43.8382 15.2374 43.6796 14.8742C43.2945 14.1081 42.7451 13.7165 42.0145 13.7165C42.0145 13.7165 41.9692 13.7222 41.9465 13.7279C42.1107 13.5576 42.241 13.3079 42.3543 12.9788L42.343 12.9731Z" fill="#0B284C"/>
<path d="M61.2263 9.04004C60.5183 9.06274 59.7083 9.51106 58.7398 10.419C57.5674 11.5654 56.5423 13.0011 55.687 14.6979C55.755 14.0737 55.8399 13.3586 55.9419 12.5415C56.0212 11.8321 56.0778 11.31 56.1231 10.9468V10.856C56.1231 10.7255 56.0948 10.5893 56.0438 10.4531C55.8399 9.9537 55.3925 10.0502 55.0697 10.1239C54.8997 10.158 54.7015 10.2034 54.4693 10.2034C53.6877 10.2488 53.1666 10.5666 52.9117 11.1965C52.5209 13.0919 52.3737 14.7036 52.3737 17.1495C52.3737 18.6363 52.5153 20.1175 52.7928 21.5532C52.8834 21.9618 53.2062 22.4555 54.2484 22.4839C54.4523 22.4839 54.6675 22.4499 54.8771 22.3874C55.806 22.1491 56.0042 21.6383 56.0042 21.2581C56.0042 21.173 55.9929 21.0822 55.9759 20.9914C55.9872 20.6055 56.1458 16.4231 57.4655 14.3972C58.7342 12.4393 59.3232 12.025 59.5724 12.025C59.799 12.0364 59.833 12.6323 59.8386 12.8082C59.8386 13.0579 59.782 13.3643 59.6744 13.7275C59.2496 15.0384 59.2496 15.2087 59.2496 15.2938C59.2496 15.3959 59.2609 15.4981 59.2836 15.5775C59.4252 16.3947 61.4415 16.4912 61.4811 16.4912C61.7077 16.4628 61.9229 16.338 62.1778 16.0826C62.7102 15.3562 62.9707 14.1134 62.9707 12.2747C62.9481 10.175 62.3704 9.08544 61.2319 9.04004H61.2263Z" fill="#0B284C"/>
<path d="M82.7375 8.4502C81.7123 8.4502 80.7268 8.68854 79.8093 9.15956C78.2177 9.97107 77.2945 11.1515 77.0566 12.7234V12.8426C77.0566 12.9731 77.0793 13.115 77.1359 13.2682C77.3625 13.8868 77.7816 14.0343 78.1271 14.0173C78.1384 14.0173 78.1498 14.0173 78.1611 14.0173C77.725 14.4372 77.4871 15.2998 77.4418 16.6221V16.6334C77.4418 18.1997 77.8043 19.5276 78.5236 20.5775C79.3788 21.8146 80.5286 22.4445 81.9445 22.4445C83.5814 22.4218 85.003 21.6841 86.1754 20.237C87.3875 18.6764 88.0049 16.781 88.0049 14.5961C88.0049 13.4782 87.8066 12.4567 87.4215 11.56C86.5719 9.50573 84.9974 8.46154 82.7375 8.46154V8.4502ZM79.1183 12.9731C79.1919 12.7007 79.2939 12.4283 79.4128 12.1843C79.9112 11.2876 80.6362 10.8507 81.616 10.8507C82.3127 10.8507 82.9187 11.0947 83.4568 11.5998C84.3743 12.4851 84.8444 13.847 84.8444 15.6517C84.8444 16.554 84.6915 17.4052 84.3913 18.177C83.8419 19.6071 83.0037 20.2994 81.8256 20.2994C81.6727 20.2994 81.5198 20.2597 81.3555 20.1802C80.6928 19.8738 80.37 19.2722 80.37 18.3416C80.37 17.8365 80.4549 17.2293 80.6192 16.571C80.6702 16.4234 80.6928 16.2078 80.6928 15.9184C80.6928 15.5892 80.6135 15.2431 80.455 14.8742C80.0698 14.1081 79.5204 13.7165 78.7898 13.7165C78.7898 13.7165 78.7445 13.7222 78.7218 13.7279C78.8861 13.5576 79.0163 13.3079 79.1296 12.9788L79.1183 12.9731Z" fill="#0B284C"/>
<path d="M117.066 18.8401C116.84 18.1648 116.409 18.023 116.092 18.023C115.882 18.023 115.633 18.1478 115.305 18.4315C115.254 18.4826 115.197 18.5337 115.112 18.5961C114.857 18.8231 114.602 19.0728 114.348 19.3225C113.549 20.1 112.716 20.9115 112.048 20.9115C110.825 20.8945 110.315 18.9536 110.23 17.166C111.425 17.342 112.495 17.2739 113.47 16.9844C115.599 16.3148 116.675 14.7031 116.675 12.1948C116.675 11.3493 116.426 10.5945 115.939 9.95891C115.157 8.90337 114.002 8.36426 112.495 8.36426C111.102 8.38696 109.896 8.97715 108.922 10.1235C107.625 11.7068 106.968 13.9143 106.968 16.6837C106.968 17.8187 107.132 18.8231 107.46 19.6857C108.214 21.53 109.618 22.4607 111.646 22.4607C112.076 22.4607 112.535 22.4097 113.005 22.3075C114.614 21.9613 115.916 21.1952 116.902 19.9921C117.027 19.7992 117.1 19.5552 117.123 19.2487C117.123 19.1352 117.111 19.0104 117.078 18.8345L117.066 18.8401ZM110.405 14.6407C110.519 14.1073 110.66 13.5965 110.842 13.1255C111.425 11.6784 112.246 10.01 113.447 10.01C114.144 10.027 114.642 11.2358 114.659 12.3026C114.642 13.7951 113.945 15.543 112.037 15.5827C111.918 15.5827 111.646 15.3841 111.425 15.2252C111.119 15.0039 110.779 14.7599 110.405 14.635V14.6407Z" fill="#0B284C"/>
<path d="M77.4646 24.6802C77.2776 24.7029 77.1191 24.7086 77.0001 24.6972H76.9718C76.5866 24.6972 76.2751 24.5497 76.0316 24.2602C75.5842 23.7268 75.4992 22.8415 75.6068 22.2513L75.6634 21.9165C75.9466 20.197 76.0882 18.3754 76.0882 16.5026C76.0882 15.7592 76.0656 15.0272 76.0259 14.3235C75.7541 10.6688 74.9101 8.89258 73.4319 8.89258C72.8485 8.91528 72.1179 9.30685 71.189 10.0843C69.7957 11.3158 68.6176 12.882 67.6774 14.7661L67.6661 12.4905C70.1978 9.65302 71.4948 6.62829 71.5118 3.50142C71.5118 3.1212 71.5005 2.8261 71.4779 2.61046C71.4156 2.04297 71.172 1.5152 70.7529 1.03283C70.1072 0.346169 69.3539 0 68.51 0C68.3401 0 68.1702 0.0113498 67.9889 0.0340495C65.4685 0.476692 64.2451 4.23348 64.2451 11.5144C64.2451 14.9193 64.4037 18.3186 64.7152 21.6101C64.7379 21.8995 64.8058 22.1719 64.9135 22.4102C65.2306 23.1593 65.7913 23.5565 66.5333 23.5565C66.6296 23.5565 66.7372 23.5452 66.8618 23.5168C67.3659 23.3976 67.9663 23.0174 67.9663 21.8541C67.9663 21.8541 67.9436 21.3206 67.9663 21.1447C68.1532 19.3741 68.9291 16.7013 70.1469 14.3575C71.274 12.1273 71.8517 11.8833 72.0386 11.8833C72.2935 11.8889 72.8882 12.2294 72.9108 15.2031C72.9108 16.4289 72.7635 18.33 72.469 20.8439C72.3897 21.5193 72.3388 21.9732 72.3218 22.2343V22.3364C72.2312 23.8233 72.8202 25.0604 73.9303 25.7414C74.4684 26.0705 75.0801 26.2294 75.7144 26.2294C76.4111 26.2294 77.1304 26.0308 77.7874 25.6392C77.9969 25.5144 78.0876 25.259 78.0083 25.0264C77.929 24.788 77.6968 24.6461 77.4476 24.6802H77.4646ZM69.3029 2.34374C69.3369 2.40049 69.4332 2.60478 69.4502 3.26875C69.4502 5.32306 68.8838 7.38873 67.7624 9.409C67.7737 9.182 67.7907 8.95501 67.802 8.72801C68.1192 3.20632 68.9235 2.40616 69.3029 2.34941V2.34374Z" fill="#0B284C"/>
<path d="M108.633 23.4148C108.412 23.0175 107.743 23.0743 106.747 23.2048C106.469 23.2388 106.18 23.2786 106.039 23.2672C105.75 23.2672 105.557 23.1991 105.444 23.0686C105.206 22.7849 105.291 22.1606 105.399 21.5875C105.399 21.5875 105.869 16.6389 105.869 15.4756C105.869 11.1967 105.047 9.0913 103.343 9.0459C102.946 9.0459 102.516 9.16507 102.063 9.40342C100.964 9.98226 99.9386 11.0605 99.0041 12.6097C98.5793 11.208 97.8487 10.493 96.8292 10.493C96.2798 10.493 95.6851 10.72 95.0734 11.1626C94.0822 11.8663 93.2043 12.9105 92.4567 14.2725C92.5473 13.4213 92.6719 12.4054 92.7965 11.4407C92.8531 10.93 92.5926 10.2149 92.1678 9.73824C91.8846 9.42044 91.5788 9.24452 91.2219 9.25587C90.2308 9.38072 89.1433 14.613 89.1433 16.7751C89.1433 18.262 89.2849 19.7431 89.5624 21.1789C89.6531 21.5875 89.9759 22.0812 91.018 22.1095C91.2163 22.1095 91.4145 22.0868 91.6184 22.0414C92.5756 21.8031 92.7738 21.2924 92.7738 20.9065C92.7738 20.8157 92.7625 20.7305 92.7455 20.6397C92.7512 19.3913 93.193 17.8023 94.0482 15.9125C95.5265 12.6495 96.0306 12.3146 96.1325 12.2919C96.1495 12.2919 96.5743 12.3373 96.5969 14.4314C96.5969 15.1351 96.1891 17.1326 95.8946 18.5854L95.7813 19.1472C95.7417 19.3742 95.7134 19.5218 95.6964 19.6012V19.7601C95.6907 19.8963 95.7134 20.0325 95.77 20.163C95.9966 20.7135 96.5176 20.9916 97.3446 20.9916C98.1262 20.9462 98.6473 20.6284 98.8965 20.0212C99.1343 19.2437 99.174 18.2733 99.3496 17.178C99.5138 16.1622 99.9783 15.1918 100.414 14.2384C101.287 12.2976 102.703 10.6462 103.037 10.6235C103.037 10.6235 103.479 10.72 103.501 13.4723C103.501 14.4144 103.207 15.8388 102.901 17.3483C102.663 18.5173 102.414 19.7204 102.266 20.8838L102.227 21.1391C102.023 23.0402 102.895 24.5781 104.623 25.3613C105.28 25.662 106.005 25.8039 106.662 25.8039C107.466 25.8039 108.174 25.5883 108.565 25.1626C108.803 24.9016 109.131 24.3284 108.627 23.4261L108.633 23.4148Z" fill="#0B284C"/>
</g>
<defs>
<clipPath id="clip0_1261_8705">
<rect width="120" height="56" fill="white"/>
</clipPath>
</defs>
</svg>
