<svg width="120" height="57" viewBox="0 0 120 57" fill="none" xmlns="http://www.w3.org/2000/svg">
<g clip-path="url(#clip0_1261_9732)">
<path d="M59.5271 24.1504C45.8602 24.3315 39.9528 25.5877 35.7842 26.7987C35.8578 27.0138 35.9031 27.2288 35.9031 27.4382V27.6023C35.8352 28.5756 35.7785 29.498 35.7275 30.3751C36.0957 30.2506 36.4808 30.1148 36.8943 29.9734C40.9043 28.5756 47.2761 26.3573 58.4679 25.7236C58.7624 25.0332 59.1136 24.5126 59.5271 24.1504Z" fill="white"/>
<path d="M32.6295 12.3417C31.7799 10.2932 30.1997 9.25195 27.9455 9.25195C26.9203 9.25195 25.9348 9.48962 25.0173 9.95931C23.4257 10.7685 22.5025 11.9456 22.2646 13.5131V13.6319C22.2646 13.7621 22.2873 13.8979 22.3383 14.0563C22.5648 14.6731 22.9896 14.8203 23.3295 14.8033C23.3408 14.8033 23.3521 14.8033 23.3634 14.8033C22.9273 15.222 22.6894 16.0822 22.6441 17.4007V17.412C22.6441 18.9739 23.0066 20.298 23.7259 21.3449C24.5812 22.5786 25.7309 23.2067 27.1469 23.2067C28.7837 23.1841 30.2054 22.4484 31.3778 21.0054C32.5899 19.4492 33.2072 17.5592 33.2072 15.3805C33.2072 14.2657 33.009 13.2471 32.6238 12.353L32.6295 12.3417ZM24.3263 13.7621C24.3999 13.4904 24.5019 13.2188 24.6265 12.9755C25.1249 12.0814 25.8442 11.6456 26.8241 11.6456C27.5207 11.6456 28.1267 11.889 28.6648 12.3926C29.5823 13.2754 30.0524 14.6335 30.0524 16.433C30.0524 17.3328 29.8995 18.1816 29.5993 18.9512C29.0499 20.3773 28.2117 21.0676 27.0336 21.0676C26.8807 21.0676 26.7278 21.028 26.5635 20.9488C25.9008 20.6432 25.578 20.0434 25.578 19.1153C25.578 18.6117 25.663 18.0119 25.8272 17.3498C25.8782 17.2026 25.9008 16.9876 25.9008 16.699C25.9008 16.3708 25.8215 16.0256 25.663 15.6578C25.2778 14.8938 24.7284 14.5034 23.9978 14.5034C23.9978 14.5034 23.9525 14.509 23.9298 14.5147C24.0941 14.3449 24.2243 14.0959 24.3376 13.7677L24.3263 13.7621Z" fill="white"/>
<path d="M40.6325 22.3449C40.6098 22.2544 40.5872 22.1016 40.5532 21.9092C40.2983 20.3926 40.1227 19.7645 39.6753 19.7645C39.5847 19.7645 39.4997 19.7815 39.4147 19.8041C39.1032 19.9003 38.922 20.3077 38.6614 20.9755C38.5652 21.2132 38.4292 21.564 38.3386 21.6828C38.231 21.6828 38.146 21.6715 38.0837 21.6602C37.8798 21.6149 37.2172 21.0943 37.2172 16.2503C37.2172 15.4694 37.2512 14.3433 37.3248 12.8946C38.0101 12.7701 39.3354 12.4363 39.3694 11.3837C39.3694 11.2536 39.3468 11.1178 39.3015 10.9933C39.1089 10.2293 38.6784 10.0709 38.3499 10.0709C38.248 10.0709 38.1347 10.0992 38.0101 10.1614C37.8005 10.2746 37.6136 10.3708 37.4607 10.45C37.6306 8.10158 37.8345 6.09835 38.0894 4.49689L38.1234 4.42899C38.1574 4.33279 38.1687 4.2762 38.1687 4.22527C38.1687 4.07814 38.1234 3.93101 38.0441 3.78954C37.7552 3.2859 37.2172 3.03125 36.4242 3.03125C35.6426 3.09916 35.1442 3.39908 34.946 3.91969L34.929 3.9876C34.6288 6.38129 34.0737 14.4848 34.0737 15.045C34.0737 20.5963 35.0536 23.4824 37.0812 23.8672C37.5513 23.9464 37.9818 23.9916 38.3669 23.9916C38.6728 23.9916 39.1485 23.952 39.8339 23.8728C39.8792 23.8728 39.9358 23.8558 40.0434 23.8219C40.3379 23.6917 40.6834 23.3918 40.6834 22.6788C40.6834 22.5826 40.6721 22.4807 40.6495 22.3506L40.6325 22.3449Z" fill="white"/>
<path d="M46.2168 43.1764C45.9903 42.503 45.5598 42.3615 45.2426 42.3615C45.0331 42.3615 44.7839 42.486 44.4497 42.7689C44.3987 42.8199 44.3421 42.8708 44.2571 42.933C44.0419 43.1254 43.8323 43.3235 43.6171 43.5272C42.7732 44.3194 41.901 45.14 41.193 45.14C39.8676 45.123 39.3805 42.984 39.3635 40.992C39.3635 39.6056 39.6241 38.2815 40.1338 37.0705L40.3547 36.5555C40.8531 35.3841 41.2779 34.3768 41.8783 34.3768C42.6203 34.4391 42.8412 34.5636 42.9035 34.6371C43.2546 35.0276 43.4698 35.7689 43.6624 36.4253C43.7304 36.6517 43.7927 36.8667 43.855 37.0535L43.8776 37.1044C44.1212 37.5232 44.427 37.7495 44.8008 37.7722C44.8858 37.7722 44.9764 37.7608 45.1237 37.7212C45.4409 37.5797 45.8203 37.2629 45.8203 36.5498C45.8203 36.3574 45.792 36.199 45.7524 36.0858C45.5655 35.4633 45.2596 34.8861 44.8462 34.3655C43.8493 33.1658 42.558 32.5547 40.9947 32.5547C39.7997 32.5773 38.7179 33.3017 37.7833 34.7164C36.6789 36.4423 36.1182 38.5587 36.1182 40.9977C36.1182 42.1917 36.3051 43.2386 36.6732 44.1157C37.4265 45.8926 38.8142 46.7924 40.7965 46.7924C41.227 46.7924 41.6801 46.7414 42.1558 46.6396C43.7644 46.2944 45.067 45.5248 46.0526 44.3308C46.1772 44.1384 46.2508 43.895 46.2734 43.5895C46.2734 43.4763 46.2621 43.3518 46.2281 43.1764H46.2168Z" fill="white"/>
<path d="M57.0692 43.1472C56.8426 42.4738 56.4121 42.3323 56.095 42.3323C55.8854 42.3323 55.6362 42.4568 55.302 42.7398C55.2511 42.7907 55.1944 42.8416 55.1095 42.9039C54.8206 43.1585 54.5374 43.4471 54.2486 43.7357C53.4783 44.5053 52.6853 45.3032 52.0453 45.3032C50.8956 45.2863 50.3178 43.4188 50.2272 41.4722C51.4223 41.6476 52.4928 41.5854 53.4669 41.2911C55.5966 40.6234 56.6727 39.0163 56.6727 36.515C56.6727 35.6719 56.4235 34.9192 55.9364 34.2855C55.1548 33.2329 53.9993 32.6953 52.4928 32.6953C51.0938 32.7179 49.8931 33.3065 48.9189 34.4496C47.6219 36.0284 46.9648 38.2297 46.9648 40.9912C46.9648 42.123 47.1291 43.1246 47.4576 43.9847C48.2109 45.8239 49.6155 46.7519 51.6432 46.7519C52.0736 46.7519 52.5324 46.701 53.0025 46.5991C54.611 46.2539 55.9137 45.49 56.8992 44.2903C57.0238 44.0979 57.0975 43.8546 57.1201 43.549C57.1201 43.4358 57.1088 43.3113 57.0748 43.1359L57.0692 43.1472ZM50.4028 38.9653C50.5104 38.4334 50.6577 37.9184 50.8389 37.4488C50.9295 37.2281 51.0088 37.013 51.0938 36.798C51.6205 35.4285 52.0793 34.2515 53.0252 34.2515C53.6822 34.2685 54.6394 35.5021 54.6564 36.6339C54.6394 38.3146 53.8181 40.0292 52.034 40.0631C51.932 40.0631 51.6432 39.8198 51.4506 39.6614C51.1391 39.4011 50.7936 39.1068 50.4028 38.9653Z" fill="white"/>
<path d="M61.4471 38.0776V37.4665C61.6341 37.0817 61.838 36.6403 62.0418 36.1593C63.5258 32.7017 64.2791 29.8723 64.2791 27.7389C64.2564 25.5942 63.1916 24.4398 61.1923 24.3945C61.079 24.3945 60.9544 24.4058 60.7958 24.4341C58.9777 24.8925 58.1338 28.5255 58.1338 35.8763C58.1338 43.9289 59.057 47.6864 61.0393 47.709C61.147 47.709 61.2772 47.6864 61.4528 47.6241C61.9852 47.3808 62.2684 46.9451 62.2684 46.3622C62.2684 46.1981 62.2118 46.0057 62.0985 45.7737C61.6624 44.7947 61.4471 42.2086 61.4471 38.0776ZM61.5944 32.4697C61.6001 32.3396 61.6114 32.2094 61.6227 32.0849C61.821 28.3444 62.0135 27.1617 62.1211 26.7939C62.2231 26.9184 62.2854 27.1957 62.2967 27.5918C62.2967 29.148 62.0645 30.7834 61.6001 32.4697H61.5944Z" fill="white"/>
<path d="M75.8276 35.3886C75.8502 35.3434 75.8672 35.2868 75.8672 35.2245C75.8672 35.1114 75.8389 34.9869 75.7879 34.8567C75.567 34.2908 75.029 34.0022 74.1851 34.0022C73.4941 34.0418 73.007 34.2965 72.7464 34.7379C71.7553 33.7589 70.5942 33.2553 69.2745 33.2383C67.8925 33.2609 66.6465 33.9683 65.576 35.3547C64.3639 36.9279 63.7466 38.8123 63.7466 40.9456C63.7466 42.1397 63.9505 43.2262 64.3583 44.1825C65.1342 45.9368 66.352 46.8252 67.9775 46.8252H68.357C69.8409 46.695 71.1549 45.9764 72.2763 44.6861C72.3273 44.9974 72.3953 45.4048 72.4802 45.8915C72.5709 46.2989 72.8937 46.7912 73.9358 46.8195C74.1567 46.8195 74.3833 46.7856 74.5985 46.7233C75.5274 46.4857 75.7256 45.9764 75.7256 45.5972C75.7256 45.4954 75.7143 45.3935 75.6803 45.269C75.3405 44.3013 75.1649 43.1865 75.1649 41.9473C75.1649 40.8664 75.3235 39.1857 75.635 36.9448C75.7313 36.2488 75.7936 35.7282 75.8389 35.3943L75.8276 35.3886ZM72.0555 40.8777C71.3135 44.539 69.7219 44.9917 69.1046 44.9917C68.9007 44.9917 68.6911 44.9578 68.4816 44.8899C67.5753 44.6013 67.0146 43.0847 67.0146 40.94V40.476C67.0033 39.3385 66.9863 37.9182 67.4847 37.0127C68.1304 35.8414 69.3481 34.9812 70.1751 35.0774C72.0158 35.2868 72.4802 38.7613 72.0498 40.8777H72.0555Z" fill="white"/>
<path d="M119.626 33.2042C118.521 29.775 115.282 27.6755 109.148 26.5607C108.593 27.1153 107.721 27.4265 106.661 27.4265C105.851 27.4265 105.025 27.2454 104.266 26.9003C103.631 26.6117 103.104 26.2325 102.668 25.7911C92.8586 25.1177 84.5554 24.6763 77.4869 24.416L78.58 24.5971C79.0048 24.682 79.4692 25.0159 79.5655 25.4855C79.5939 25.6327 79.6165 25.9609 79.3333 26.2721C84.7536 26.7814 90.8196 27.5906 97.6049 28.7733C97.6445 28.4225 97.6785 28.0773 97.7238 27.7378L97.7521 27.602C97.9277 26.9908 98.4601 26.0344 100.142 25.9892C101.796 25.9892 102.397 26.8437 102.606 27.3586C102.702 27.602 102.753 27.834 102.753 28.0603V28.2471C102.725 28.6658 102.685 29.2204 102.629 29.8825C107.313 31.2519 109.204 33.0854 110.671 35.6715C112.773 39.3893 112.931 43.1412 111.119 46.5195C109.233 50.0393 105.268 51.8388 102.278 52.7273C97.0158 54.2948 91.1764 54.0911 89.0242 52.914C87.3703 52.0143 87.6818 50.028 88.1519 47.0231C88.2709 46.2422 88.4125 45.3651 88.5257 44.4314L88.5371 44.3522C88.741 42.994 88.8429 41.6359 88.8429 40.2834C88.8429 39.4346 88.8033 38.6141 88.724 37.8388C88.3898 34.7547 87.5516 33.2551 86.1639 33.2551C85.5239 33.2778 84.7253 33.6965 83.7228 34.5284C82.3748 35.6545 81.2534 37.0522 80.3698 38.6877C80.4378 38.1331 80.5171 37.4993 80.619 36.7806C80.6983 36.1355 80.7549 35.6545 80.8003 35.3037V35.1848C80.8003 35.0547 80.7719 34.9188 80.721 34.783C80.4944 34.2398 79.9733 33.9625 79.1464 33.9625C78.3648 34.0078 77.8437 34.3247 77.5889 34.9528C77.232 36.6731 77.0508 38.8631 77.0508 41.4605C77.0508 42.9657 77.1924 44.4484 77.4699 45.8857C77.5605 46.2762 77.8834 46.7515 78.9255 46.7855C79.1238 46.7855 79.322 46.7628 79.5259 46.7176C80.4831 46.4799 80.6813 45.9706 80.6813 45.5858C80.6813 45.5009 80.67 45.4104 80.653 45.3198C80.653 45.0822 80.6756 44.8162 80.7096 44.5276C80.9192 42.6149 81.6442 40.5777 82.8562 38.4783C83.8078 36.8259 85.3653 35.5583 85.6938 35.5583C86.3282 35.5753 86.4698 37.7426 86.5207 38.5575C86.6114 39.9383 86.2942 40.8324 85.9317 41.8679C85.6825 42.5809 85.2577 44.6351 85.0651 45.5688C83.8361 51.6181 86.753 54.1759 89.296 55.5624C90.6327 56.2923 92.2469 56.6602 94.0876 56.6602C99.1851 56.6602 106.078 53.6836 111.657 49.0716C118.131 43.724 121.11 37.7879 119.632 33.1986L119.626 33.2042Z" fill="white"/>
<path d="M103.971 46.9618C103.886 46.7581 103.671 46.6392 103.45 46.6788C103.156 46.7298 102.929 46.7467 102.765 46.7298H102.736C101.927 46.7298 101.734 46.0224 101.536 44.9472C101.496 44.7152 101.451 44.4945 101.405 44.3304C101.247 43.0176 101.168 41.5293 101.168 39.9108C101.168 37.9982 101.326 35.0725 101.638 31.2132C101.757 29.8551 101.836 28.8591 101.876 28.214V28.0669C101.876 27.9537 101.847 27.8292 101.796 27.6934C101.57 27.1445 101.026 26.8672 100.171 26.8672C99.1002 26.8955 98.7321 27.3935 98.6018 27.8518C98.33 30.0248 98.1544 32.3959 98.0807 34.9141C97.1575 34.2463 96.1097 33.9011 94.9543 33.8842C93.6006 33.9068 92.4112 34.6707 91.4201 36.1647C90.3553 37.7944 89.8115 39.7298 89.8115 41.9197C89.8115 42.8874 89.9475 43.7815 90.208 44.5737C90.8763 46.5204 92.1507 47.505 93.9858 47.505C94.235 47.505 94.4955 47.4824 94.7731 47.4428C96.0984 47.2221 97.2651 46.5487 98.2563 45.4395C98.2507 46.56 98.7038 47.4654 99.5477 47.9804C100.035 48.2746 100.601 48.4218 101.196 48.4218C102.057 48.4218 102.986 48.1162 103.818 47.5277C103.999 47.4032 104.062 47.1712 103.977 46.9674L103.971 46.9618ZM98.0921 41.4444C97.9165 42.2083 97.571 43.2948 97.2595 43.8494C96.6081 44.9868 95.8662 45.564 95.0562 45.564C94.8297 45.564 94.6145 45.5301 94.4049 45.4565C93.544 45.1849 93.0229 43.8664 93.0229 41.9367C93.0229 40.7087 93.2891 39.5204 93.8215 38.4056C94.4219 37.138 95.0846 35.961 95.8775 35.8308C95.8832 35.8421 95.8888 35.8534 95.8945 35.8648C96.0871 36.1986 96.2796 36.5042 96.5288 36.6457C97.3218 37.0644 97.8259 37.4889 98.0298 37.902V37.9246C98.0298 39.4525 98.0468 40.6352 98.0864 41.4331L98.0921 41.4444Z" fill="white"/>
<path d="M37.9817 47.3696C37.9194 47.2621 37.8288 47.1885 37.7098 47.1602C37.4096 47.081 37.0415 47.3017 36.6167 47.5507C36.4128 47.6752 36.0673 47.8789 35.9314 47.8789C34.9515 47.8789 34.7929 46.5434 34.7136 45.1796L34.7023 44.9646C34.7023 44.8627 34.691 44.7609 34.6683 44.6816C34.4701 43.482 34.4814 42.3559 34.4927 40.6469C34.4927 40.1829 34.4984 39.6736 34.4984 39.1077C34.4984 36.7875 34.674 32.9112 35.0308 27.5297V27.4391C35.0308 27.309 35.0025 27.1731 34.9515 27.0373C34.725 26.4884 34.1812 26.2225 33.3543 26.2168C32.6293 26.3073 32.1196 26.6242 31.8421 27.1618L31.8194 27.2297C31.304 29.4593 31.0435 32.3057 31.0435 35.6897C31.0435 38.4456 31.2247 41.6372 31.5872 45.157C31.6325 47.2791 32.7766 48.9371 34.64 49.5935C35.1328 49.769 35.6368 49.8482 36.1013 49.8482C36.8886 49.8482 37.5795 49.6105 37.959 49.1635C38.1912 48.8862 38.5028 48.292 37.9817 47.3696Z" fill="white"/>
<path d="M28.3248 30.0244C25.3796 30.3639 24.4394 29.9225 23.1311 28.9096C21.0128 27.2742 20.8825 24.2523 20.8825 22.566C20.8825 22.3453 20.8995 21.9152 20.9165 21.6832C21.0751 16.8958 21.1544 14.1966 21.1544 13.427C21.1544 5.79882 20.2029 2.23374 18.1639 2.2111H18.1525C17.0594 2.23374 16.0229 3.39946 14.9751 5.78184C14.7033 6.50051 14.4484 7.30973 14.2162 8.20383C13.6554 4.10116 12.7549 2.16017 11.4069 2.12056C10.4271 2.13754 9.53783 3.04295 8.71657 4.88208C8.73923 4.5086 8.75055 4.20868 8.75055 3.9993V3.90876C8.75055 3.78992 8.7279 3.67109 8.68825 3.55225C8.67126 3.35419 8.56365 2.67513 7.9123 2.16017C7.1137 1.52638 5.83367 1.39057 4.1062 1.75839C2.26544 2.1432 0.928775 3.31458 0.322743 5.05185C-0.25497 6.70989 -0.0454071 8.67352 0.821162 9.71474C0.821162 9.71474 3.31326 11.0106 4.12319 9.68079C4.42904 9.18847 4.2931 8.19817 4.15717 7.14562C4.06655 6.43827 3.95894 5.64037 4.06655 5.33479C4.20248 4.95565 4.72922 4.49162 4.96144 4.54255C5.05772 4.55953 5.21065 4.79154 5.17666 5.49324C4.88781 7.37764 4.74621 9.61854 4.74621 12.1481C4.74621 15.1076 4.63293 19.9346 5.36923 22.3906C5.65809 23.3413 6.76821 23.6751 7.24397 23.6751C7.37424 23.6751 7.50451 23.6582 7.63477 23.6242C8.78454 23.3186 9.33393 21.7568 9.35659 21.6889L9.57181 21.0607L8.97144 21.338C8.80719 21.4116 8.67692 21.4342 8.60329 21.4003C8.54099 21.3663 8.50701 21.2701 8.49568 21.2079C8.33143 19.929 8.13886 18.2426 8.20116 16.2281C8.26913 14.0607 8.64294 12.0349 8.9941 10.1901C9.75306 6.11005 10.4327 5.32913 10.7329 5.19898C10.9481 5.62339 11.3616 7.77942 11.5258 17.8239C11.5258 19.1537 11.6051 20.4439 11.9789 21.1287C12.2791 21.6832 13.31 22.2378 13.9613 22.085C15.145 21.8134 15.7114 20.2063 15.7341 20.1384L15.9493 19.5102L15.3489 19.7875C15.1564 19.878 14.9978 19.9063 14.9185 19.8611C14.8618 19.8328 14.8449 19.7479 14.8392 19.7479L14.8335 18.3502C14.8505 17.6654 14.8845 16.9524 14.9185 16.2111C15.2073 11.9783 15.7794 8.72444 16.595 6.57408C17.1104 5.60642 17.4219 5.30084 17.5522 5.20464C17.6598 5.50456 17.858 6.62501 17.858 10.7447C17.858 13.1384 17.7787 16.5563 17.6201 20.9023C17.5975 21.7115 17.5918 22.1586 17.5918 22.2378C17.5918 22.2491 17.5918 22.2661 17.5918 22.2774C17.5862 22.6962 17.6145 27.0591 20.1859 29.7471C22.1909 31.8352 24.7169 32.5369 28.625 32.0842C29.2084 32.0163 29.7521 31.9314 30.2675 31.8409C30.3355 30.8958 30.4261 30.0074 30.5451 29.1755C29.8541 29.5773 29.1234 29.9112 28.3022 30.0074L28.3248 30.0244Z" fill="white"/>
<path d="M45.9623 9.25C44.9371 9.25 43.9516 9.48767 43.0341 9.95736C41.4425 10.7666 40.5193 11.9436 40.2871 13.5111V13.63C40.2871 13.7601 40.3098 13.9016 40.3607 14.0544C40.5873 14.6712 41.0347 14.8183 41.3519 14.8013C41.3632 14.8013 41.3746 14.8013 41.3859 14.8013C40.9498 15.2201 40.7119 16.0802 40.6666 17.3988V17.4101C40.6666 18.9719 41.0291 20.2961 41.7484 21.343C42.6036 22.5766 43.7534 23.2047 45.1694 23.2047C46.8062 23.1821 48.2278 22.4465 49.4003 21.0034C50.6123 19.4473 51.2297 17.5572 51.2297 15.3785C51.2297 14.2637 51.0314 13.2452 50.6463 12.3511C49.7967 10.3025 48.2222 9.26132 45.9623 9.26132V9.25ZM42.3431 13.7601C42.4167 13.4885 42.5187 13.2169 42.6433 12.9735C43.1417 12.0794 43.861 11.6437 44.8408 11.6437C45.5375 11.6437 46.1435 11.887 46.6816 12.3907C47.5991 13.2734 48.0692 14.6316 48.0692 16.4311C48.0692 17.3308 47.9163 18.1797 47.6161 18.9493C47.0667 20.3753 46.2285 21.0657 45.0504 21.0657C44.8975 21.0657 44.7446 21.0261 44.5803 20.9469C43.9176 20.6413 43.5948 20.0414 43.5948 19.1134C43.5948 18.6097 43.6798 18.0042 43.844 17.3478C43.895 17.2007 43.9176 16.9857 43.9176 16.6971C43.9176 16.3632 43.8383 16.018 43.6798 15.6558C43.2946 14.8919 42.7452 14.5014 42.0146 14.5014C42.0146 14.5014 41.9693 14.5071 41.9466 14.5127C42.1109 14.343 42.2411 14.094 42.3544 13.7658L42.3431 13.7601Z" fill="white"/>
<path d="M61.2264 9.83789C60.5184 9.86053 59.7085 10.3076 58.74 11.213C57.5675 12.3561 56.5424 13.7878 55.6871 15.4798C55.7551 14.8573 55.8401 14.1443 55.942 13.3294C56.0213 12.622 56.0779 12.1014 56.1232 11.7393V11.6487C56.1232 11.5186 56.0949 11.3828 56.044 11.2469C55.8401 10.749 55.3926 10.8452 55.0698 10.9187C54.8999 10.9527 54.7016 10.998 54.4694 10.998C53.6878 11.0432 53.1667 11.3601 52.9118 11.9883C52.521 13.8783 52.3738 15.4854 52.3738 17.9244C52.3738 19.407 52.5154 20.884 52.7929 22.3157C52.8835 22.7231 53.2064 23.2154 54.2485 23.2437C54.4524 23.2437 54.6676 23.2098 54.8772 23.1475C55.8061 22.9098 56.0043 22.4005 56.0043 22.0214C56.0043 21.9365 55.993 21.846 55.976 21.7554C55.9873 21.3706 56.1459 17.2001 57.4656 15.1799C58.7343 13.2275 59.3233 12.8144 59.5725 12.8144C59.7991 12.8258 59.8331 13.4199 59.8387 13.5954C59.8387 13.8444 59.7821 14.1499 59.6745 14.5121C59.2497 15.8193 59.2497 15.9891 59.2497 16.074C59.2497 16.1758 59.261 16.2777 59.2837 16.3569C59.4253 17.1718 61.4416 17.268 61.4813 17.268C61.7078 17.2397 61.923 17.1152 62.1779 16.8605C62.7103 16.1362 62.9709 14.8969 62.9709 13.0634C62.9482 10.9697 62.3705 9.88316 61.232 9.83789H61.2264Z" fill="white"/>
<path d="M82.7377 9.25C81.7126 9.25 80.7271 9.48767 79.8095 9.95736C78.218 10.7666 77.2948 11.9436 77.0569 13.5111V13.63C77.0569 13.7601 77.0795 13.9016 77.1362 14.0544C77.3627 14.6712 77.7819 14.8183 78.1274 14.8013C78.1387 14.8013 78.15 14.8013 78.1613 14.8013C77.7252 15.2201 77.4873 16.0802 77.442 17.3988V17.4101C77.442 18.9719 77.8045 20.2961 78.5238 21.343C79.3791 22.5766 80.5288 23.2047 81.9448 23.2047C83.5816 23.1821 85.0033 22.4465 86.1757 21.0034C87.3877 19.4473 88.0051 17.5572 88.0051 15.3785C88.0051 14.2637 87.8069 13.2452 87.4217 12.3511C86.5722 10.3025 84.9976 9.26132 82.7377 9.26132V9.25ZM79.1185 13.7601C79.1922 13.4885 79.2941 13.2169 79.413 12.9735C79.9115 12.0794 80.6364 11.6437 81.6163 11.6437C82.3129 11.6437 82.919 11.887 83.457 12.3907C84.3746 13.2734 84.8447 14.6316 84.8447 16.4311C84.8447 17.3308 84.6918 18.1797 84.3916 18.9493C83.8422 20.3753 83.0039 21.0657 81.8258 21.0657C81.6729 21.0657 81.52 21.0261 81.3557 20.9469C80.6931 20.6413 80.3702 20.0414 80.3702 19.1134C80.3702 18.6097 80.4552 18.0042 80.6194 17.3478C80.6704 17.2007 80.6931 16.9857 80.6931 16.6971C80.6931 16.3688 80.6138 16.0236 80.4552 15.6558C80.0701 14.8919 79.5207 14.5014 78.79 14.5014C78.79 14.5014 78.7447 14.5071 78.7221 14.5127C78.8863 14.343 79.0166 14.094 79.1299 13.7658L79.1185 13.7601Z" fill="white"/>
<path d="M117.066 19.6123C116.84 18.9389 116.409 18.7974 116.092 18.7974C115.883 18.7974 115.633 18.9219 115.305 19.2048C115.254 19.2558 115.197 19.3067 115.112 19.3689C114.857 19.5953 114.603 19.8443 114.348 20.0933C113.549 20.8685 112.716 21.6777 112.048 21.6777C110.825 21.6608 110.315 19.7254 110.23 17.9429C111.425 18.1183 112.496 18.0504 113.47 17.7618C115.599 17.0941 116.675 15.487 116.675 12.9857C116.675 12.1426 116.426 11.3899 115.939 10.7562C115.158 9.70361 114.002 9.16602 112.496 9.16602C111.102 9.18865 109.896 9.77717 108.922 10.9203C107.625 12.4991 106.968 14.7004 106.968 17.4619C106.968 18.5937 107.132 19.5953 107.46 20.4554C108.214 22.2946 109.618 23.2226 111.646 23.2226C112.076 23.2226 112.535 23.1717 113.005 23.0698C114.614 22.7246 115.917 21.9607 116.902 20.761C117.027 20.5686 117.1 20.3253 117.123 20.0197C117.123 19.9065 117.112 19.782 117.078 19.6066L117.066 19.6123ZM110.406 15.4247C110.519 14.8928 110.66 14.3835 110.842 13.9138C111.425 12.4708 112.246 10.8071 113.447 10.8071C114.144 10.8241 114.642 12.0294 114.659 13.0933C114.642 14.5815 113.946 16.3245 112.037 16.3641C111.918 16.3641 111.646 16.166 111.425 16.0076C111.119 15.7869 110.779 15.5435 110.406 15.4191V15.4247Z" fill="white"/>
<path d="M77.4647 25.4346C77.2778 25.4572 77.1192 25.4629 77.0002 25.4516H76.9719C76.5868 25.4516 76.2753 25.3044 76.0317 25.0158C75.5843 24.4839 75.4993 23.6011 75.6069 23.0126L75.6636 22.6787C75.9468 20.9641 76.0884 19.1476 76.0884 17.2802C76.0884 16.5389 76.0657 15.8089 76.0261 15.1072C75.7542 11.4629 74.9103 9.69165 73.432 9.69165C72.8486 9.71428 72.118 10.1047 71.1891 10.88C69.7958 12.108 68.6177 13.6698 67.6775 15.5486L67.6662 13.2794C70.1979 10.4499 71.495 7.43376 71.512 4.31573C71.512 3.93659 71.5006 3.64233 71.478 3.42729C71.4157 2.86141 71.1721 2.33513 70.753 1.85413C70.1073 1.16941 69.354 0.824219 68.5101 0.824219C68.3402 0.824219 68.1703 0.835536 67.989 0.858172C65.4686 1.29956 64.2452 5.04573 64.2452 12.306C64.2452 15.7014 64.4038 19.091 64.7153 22.3731C64.738 22.6617 64.806 22.9334 64.9136 23.171C65.2307 23.918 65.7915 24.3141 66.5334 24.3141C66.6297 24.3141 66.7373 24.3028 66.8619 24.2745C67.366 24.1557 67.9664 23.7765 67.9664 22.6165C67.9664 22.6165 67.9437 22.0845 67.9664 21.9091C68.1533 20.1436 68.9292 17.4782 70.147 15.1411C71.2741 12.9172 71.8518 12.6739 72.0387 12.6739C72.2936 12.6795 72.8883 13.0191 72.9109 15.9843C72.9109 17.2066 72.7637 19.1023 72.4692 21.6092C72.3899 22.2826 72.3389 22.7353 72.3219 22.9956V23.0975C72.2313 24.5801 72.8203 25.8137 73.9304 26.4928C74.4685 26.821 75.0802 26.9795 75.7145 26.9795C76.4112 26.9795 77.1305 26.7814 77.7875 26.3909C77.9971 26.2664 78.0877 26.0118 78.0084 25.7798C77.9291 25.5421 77.6969 25.4006 77.4477 25.4346H77.4647ZM69.3031 3.16133C69.337 3.21791 69.4333 3.42163 69.4503 4.08372C69.4503 6.13223 68.8839 8.19205 67.7625 10.2066C67.7738 9.98025 67.7908 9.75389 67.8021 9.52754C68.1193 4.02147 68.9236 3.22357 69.3031 3.16699V3.16133Z" fill="white"/>
<path d="M108.633 24.172C108.412 23.7759 107.744 23.8324 106.747 23.9626C106.469 23.9965 106.18 24.0362 106.039 24.0248C105.75 24.0248 105.557 23.9569 105.444 23.8268C105.206 23.5438 105.291 22.9214 105.399 22.3498C105.399 22.3498 105.869 17.4153 105.869 16.2552C105.869 11.9885 105.048 9.88902 103.343 9.84375C102.946 9.84375 102.516 9.96259 102.063 10.2003C100.964 10.7775 99.9389 11.8526 99.0043 13.3975C98.5795 11.9998 97.8489 11.2868 96.8294 11.2868C96.28 11.2868 95.6853 11.5131 95.0736 11.9545C94.0824 12.6562 93.2045 13.6974 92.4569 15.0556C92.5475 14.2067 92.6721 13.1938 92.7967 12.2318C92.8534 11.7225 92.5928 11.0095 92.1681 10.5341C91.8849 10.2172 91.579 10.0418 91.2222 10.0531C90.231 10.1776 89.1436 15.3951 89.1436 17.5511C89.1436 19.0337 89.2852 20.5107 89.5627 21.9424C89.6533 22.3498 89.9761 22.8421 91.0183 22.8704C91.2165 22.8704 91.4148 22.8478 91.6187 22.8025C92.5758 22.5649 92.7741 22.0556 92.7741 21.6708C92.7741 21.5802 92.7628 21.4953 92.7458 21.4048C92.7514 20.1598 93.1932 18.5754 94.0485 16.691C95.5267 13.4371 96.0308 13.1033 96.1327 13.0806C96.1497 13.0806 96.5745 13.1259 96.5972 15.214C96.5972 15.9157 96.1894 17.9076 95.8949 19.3563L95.7816 19.9165C95.7419 20.1429 95.7136 20.29 95.6966 20.3692V20.5277C95.691 20.6635 95.7136 20.7993 95.7703 20.9294C95.9968 21.4784 96.5179 21.7556 97.3448 21.7556C98.1264 21.7104 98.6475 21.3935 98.8967 20.788C99.1346 20.0127 99.1742 19.0451 99.3498 17.9529C99.5141 16.94 99.9785 15.9723 100.415 15.0216C101.287 13.0863 102.703 11.4395 103.037 11.4169C103.037 11.4169 103.479 11.5131 103.501 14.2577C103.501 15.197 103.207 16.6174 102.901 18.1227C102.663 19.2884 102.414 20.4881 102.267 21.6481L102.227 21.9028C102.023 23.7985 102.895 25.332 104.623 26.113C105.28 26.4129 106.005 26.5544 106.662 26.5544C107.466 26.5544 108.174 26.3393 108.565 25.9149C108.803 25.6546 109.131 25.083 108.627 24.1833L108.633 24.172Z" fill="white"/>
</g>
<defs>
<clipPath id="clip0_1261_9732">
<rect width="120" height="55.8416" fill="white" transform="translate(0 0.398438)"/>
</clipPath>
</defs>
</svg>
