<svg width="120" height="56" viewBox="0 0 120 56" fill="none" xmlns="http://www.w3.org/2000/svg">
<g clip-path="url(#clip0_1261_7739)">
<path d="M59.5271 23.3252C45.8602 23.5063 39.9528 24.7625 35.7842 25.9735C35.8578 26.1886 35.9031 26.4036 35.9031 26.613V26.7771C35.8352 27.7504 35.7785 28.6728 35.7275 29.5499C36.0957 29.4254 36.4808 29.2896 36.8943 29.1482C40.9043 27.7504 47.2761 25.5321 58.4679 24.8984C58.7624 24.208 59.1136 23.6874 59.5271 23.3252Z" fill="#0B284C"/>
<path d="M32.6295 11.5155C31.7799 9.46701 30.1997 8.42578 27.9455 8.42578C26.9203 8.42578 25.9348 8.66345 25.0173 9.13314C23.4257 9.94235 22.5025 11.1194 22.2646 12.6869V12.8057C22.2646 12.9359 22.2873 13.0717 22.3383 13.2301C22.5648 13.847 22.9896 13.9941 23.3295 13.9771C23.3408 13.9771 23.3521 13.9771 23.3634 13.9771C22.9273 14.3959 22.6894 15.256 22.6441 16.5745V16.5859C22.6441 18.1477 23.0066 19.4719 23.7259 20.5188C24.5812 21.7524 25.7309 22.3805 27.1469 22.3805C28.7837 22.3579 30.2054 21.6222 31.3778 20.1792C32.5899 18.623 33.2072 16.733 33.2072 14.5543C33.2072 13.4395 33.009 12.4209 32.6238 11.5268L32.6295 11.5155ZM24.3263 12.9359C24.3999 12.6643 24.5019 12.3926 24.6265 12.1493C25.1249 11.2552 25.8442 10.8195 26.8241 10.8195C27.5207 10.8195 28.1267 11.0628 28.6648 11.5664C29.5823 12.4492 30.0524 13.8074 30.0524 15.6069C30.0524 16.5066 29.8995 17.3555 29.5993 18.1251C29.0499 19.5511 28.2117 20.2415 27.0336 20.2415C26.8807 20.2415 26.7278 20.2019 26.5635 20.1226C25.9008 19.8171 25.578 19.2172 25.578 18.2892C25.578 17.7855 25.663 17.1857 25.8272 16.5236C25.8782 16.3765 25.9008 16.1614 25.9008 15.8728C25.9008 15.5446 25.8215 15.1994 25.663 14.8316C25.2778 14.0677 24.7284 13.6772 23.9978 13.6772C23.9978 13.6772 23.9525 13.6829 23.9298 13.6885C24.0941 13.5188 24.2243 13.2698 24.3376 12.9415L24.3263 12.9359Z" fill="#0B284C"/>
<path d="M40.6325 21.5207C40.6098 21.4302 40.5872 21.2774 40.5532 21.085C40.2983 19.5684 40.1227 18.9403 39.6753 18.9403C39.5847 18.9403 39.4997 18.9572 39.4147 18.9799C39.1032 19.0761 38.922 19.4835 38.6614 20.1513C38.5652 20.3889 38.4292 20.7398 38.3386 20.8586C38.231 20.8586 38.146 20.8473 38.0837 20.836C37.8798 20.7907 37.2172 20.2701 37.2172 15.4261C37.2172 14.6452 37.2512 13.5191 37.3248 12.0704C38.0101 11.9459 39.3354 11.612 39.3694 10.5595C39.3694 10.4293 39.3468 10.2935 39.3015 10.169C39.1089 9.40509 38.6784 9.24665 38.3499 9.24665C38.248 9.24665 38.1347 9.27494 38.0101 9.33719C37.8005 9.45037 37.6136 9.54657 37.4607 9.62579C37.6306 7.27737 37.8345 5.27413 38.0894 3.67267L38.1234 3.60477C38.1574 3.50857 38.1687 3.45198 38.1687 3.40105C38.1687 3.25392 38.1234 3.10679 38.0441 2.96532C37.7552 2.46168 37.2172 2.20703 36.4242 2.20703C35.6426 2.27494 35.1442 2.57486 34.946 3.09547L34.929 3.16338C34.6288 5.55707 34.0737 13.6606 34.0737 14.2208C34.0737 19.7721 35.0536 22.6581 37.0812 23.0429C37.5513 23.1222 37.9818 23.1674 38.3669 23.1674C38.6728 23.1674 39.1485 23.1278 39.8339 23.0486C39.8792 23.0486 39.9358 23.0316 40.0434 22.9977C40.3379 22.8675 40.6834 22.5676 40.6834 21.8546C40.6834 21.7584 40.6721 21.6565 40.6495 21.5264L40.6325 21.5207Z" fill="#0B284C"/>
<path d="M46.217 42.3512C45.9905 41.6778 45.56 41.5363 45.2429 41.5363C45.0333 41.5363 44.7841 41.6608 44.4499 41.9437C44.399 41.9947 44.3423 42.0456 44.2574 42.1078C44.0421 42.3002 43.8326 42.4983 43.6173 42.702C42.7734 43.4943 41.9012 44.3148 41.1932 44.3148C39.8679 44.2978 39.3808 42.1588 39.3638 40.1668C39.3638 38.7804 39.6243 37.4563 40.1341 36.2453L40.355 35.7303C40.8534 34.5589 41.2782 33.5516 41.8785 33.5516C42.6205 33.6139 42.8414 33.7384 42.9037 33.812C43.2549 34.2024 43.4701 34.9437 43.6627 35.6001C43.7306 35.8265 43.7929 36.0415 43.8552 36.2283L43.8779 36.2792C44.1214 36.698 44.4273 36.9243 44.8011 36.947C44.886 36.947 44.9767 36.9356 45.1239 36.896C45.4411 36.7546 45.8206 36.4377 45.8206 35.7246C45.8206 35.5322 45.7923 35.3738 45.7526 35.2606C45.5657 34.6381 45.2599 34.0609 44.8464 33.5403C43.8496 32.3406 42.5582 31.7295 40.995 31.7295C39.7999 31.7521 38.7181 32.4765 37.7836 33.8912C36.6791 35.6171 36.1184 37.7335 36.1184 40.1725C36.1184 41.3665 36.3053 42.4134 36.6735 43.2905C37.4268 45.0674 38.8144 45.9672 40.7967 45.9672C41.2272 45.9672 41.6803 45.9162 42.1561 45.8144C43.7646 45.4692 45.0673 44.6996 46.0528 43.5056C46.1774 43.3132 46.251 43.0698 46.2737 42.7643C46.2737 42.6511 46.2624 42.5266 46.2284 42.3512H46.217Z" fill="#0B284C"/>
<path d="M57.0689 42.322C56.8424 41.6486 56.4119 41.5071 56.0947 41.5071C55.8852 41.5071 55.636 41.6316 55.3018 41.9146C55.2508 41.9655 55.1942 42.0164 55.1092 42.0787C54.8204 42.3333 54.5372 42.6219 54.2483 42.9105C53.478 43.6801 52.6851 44.478 52.0451 44.478C50.8953 44.4611 50.3176 42.5936 50.227 40.647C51.422 40.8224 52.4925 40.7602 53.4667 40.4659C55.5963 39.7982 56.6724 38.1911 56.6724 35.6898C56.6724 34.8467 56.4232 34.094 55.9361 33.4603C55.1545 32.4077 53.9991 31.8701 52.4925 31.8701C51.0935 31.8928 49.8928 32.4813 48.9186 33.6244C47.6216 35.2032 46.9646 37.4045 46.9646 40.166C46.9646 41.2978 47.1289 42.2994 47.4574 43.1595C48.2106 44.9987 49.6153 45.9267 51.6429 45.9267C52.0734 45.9267 52.5322 45.8758 53.0023 45.7739C54.6108 45.4287 55.9135 44.6648 56.899 43.4651C57.0236 43.2727 57.0972 43.0294 57.1199 42.7238C57.1199 42.6106 57.1086 42.4861 57.0746 42.3107L57.0689 42.322ZM50.4026 38.1401C50.5102 37.6082 50.6574 37.0932 50.8387 36.6236C50.9293 36.4029 51.0086 36.1878 51.0935 35.9728C51.6203 34.6033 52.0791 33.4263 53.0249 33.4263C53.6819 33.4433 54.6391 34.6769 54.6561 35.8087C54.6391 37.4894 53.8179 39.204 52.0337 39.2379C51.9318 39.2379 51.6429 38.9946 51.4504 38.8362C51.1389 38.5759 50.7934 38.2816 50.4026 38.1401Z" fill="#0B284C"/>
<path d="M61.4471 37.2524V36.6413C61.6341 36.2565 61.838 35.8151 62.0418 35.3341C63.5258 31.8765 64.2791 29.0471 64.2791 26.9137C64.2564 24.769 63.1916 23.6146 61.1923 23.5693C61.079 23.5693 60.9544 23.5807 60.7958 23.6089C58.9777 24.0673 58.1338 27.7003 58.1338 35.0512C58.1338 43.1037 59.057 46.8612 61.0393 46.8838C61.147 46.8838 61.2772 46.8612 61.4528 46.7989C61.9852 46.5556 62.2684 46.1199 62.2684 45.537C62.2684 45.3729 62.2118 45.1805 62.0985 44.9485C61.6624 43.9695 61.4471 41.3834 61.4471 37.2524ZM61.5944 31.6445C61.6001 31.5144 61.6114 31.3842 61.6227 31.2597C61.821 27.5192 62.0135 26.3365 62.1211 25.9687C62.2231 26.0932 62.2854 26.3705 62.2967 26.7666C62.2967 28.3228 62.0645 29.9582 61.6001 31.6445H61.5944Z" fill="#0B284C"/>
<path d="M75.8276 34.5644C75.8502 34.5192 75.8672 34.4626 75.8672 34.4003C75.8672 34.2871 75.8389 34.1626 75.7879 34.0325C75.567 33.4666 75.029 33.178 74.1851 33.178C73.4941 33.2176 73.007 33.4723 72.7464 33.9137C71.7553 32.9347 70.5942 32.431 69.2745 32.4141C67.8925 32.4367 66.6465 33.1441 65.576 34.5305C64.3639 36.1036 63.7466 37.988 63.7466 40.1214C63.7466 41.3154 63.9505 42.4019 64.3583 43.3583C65.1342 45.1125 66.352 46.001 67.9775 46.001H68.357C69.8409 45.8708 71.1549 45.1521 72.2763 43.8619C72.3273 44.1732 72.3953 44.5806 72.4802 45.0673C72.5709 45.4747 72.8937 45.967 73.9358 45.9953C74.1567 45.9953 74.3833 45.9614 74.5985 45.8991C75.5274 45.6614 75.7256 45.1521 75.7256 44.773C75.7256 44.6711 75.7143 44.5693 75.6803 44.4448C75.3405 43.4771 75.1649 42.3623 75.1649 41.123C75.1649 40.0422 75.3235 38.3615 75.635 36.1206C75.7313 35.4246 75.7936 34.904 75.8389 34.5701L75.8276 34.5644ZM72.0555 40.0535C71.3135 43.7148 69.7219 44.1675 69.1046 44.1675C68.9007 44.1675 68.6911 44.1336 68.4816 44.0656C67.5753 43.777 67.0146 42.2605 67.0146 40.1158V39.6517C67.0033 38.5143 66.9863 37.0939 67.4847 36.1885C68.1304 35.0171 69.3481 34.157 70.1751 34.2532C72.0158 34.4626 72.4802 37.9371 72.0498 40.0535H72.0555Z" fill="#0B284C"/>
<path d="M119.626 32.38C118.522 28.9507 115.282 26.8513 109.148 25.7365C108.593 26.2911 107.721 26.6023 106.662 26.6023C105.852 26.6023 105.025 26.4212 104.266 26.076C103.631 25.7874 103.105 25.4083 102.669 24.9669C92.8588 24.2935 84.5556 23.8521 77.4871 23.5918L78.5803 23.7729C79.0051 23.8578 79.4695 24.1916 79.5658 24.6613C79.5941 24.8085 79.6168 25.1367 79.3336 25.4479C84.7539 25.9572 90.8198 26.7664 97.6051 27.9491C97.6448 27.5983 97.6788 27.2531 97.7241 26.9135L97.7524 26.7777C97.928 26.1666 98.4604 25.2102 100.143 25.165C101.796 25.165 102.397 26.0194 102.606 26.5344C102.703 26.7777 102.754 27.0097 102.754 27.2361V27.4228C102.725 27.8416 102.686 28.3962 102.629 29.0583C107.313 30.4277 109.205 32.2612 110.672 34.8473C112.773 38.5651 112.932 42.3169 111.119 45.6953C109.233 49.2151 105.268 51.0146 102.278 51.903C97.0161 53.4706 91.1767 53.2668 89.0244 52.0898C87.3706 51.19 87.6821 49.2038 88.1522 46.1989C88.2711 45.418 88.4127 44.5409 88.526 43.6072L88.5373 43.5279C88.7412 42.1698 88.8432 40.8117 88.8432 39.4592C88.8432 38.6104 88.8035 37.7899 88.7242 37.0146C88.39 33.9305 87.5518 32.4309 86.1642 32.4309C85.5241 32.4536 84.7255 32.8723 83.723 33.7042C82.375 34.8303 81.2536 36.228 80.37 37.8634C80.438 37.3089 80.5173 36.6751 80.6193 35.9564C80.6985 35.3113 80.7552 34.8303 80.8005 34.4794V34.3606C80.8005 34.2304 80.7722 34.0946 80.7212 33.9588C80.4947 33.4156 79.9736 33.1383 79.1467 33.1383C78.365 33.1836 77.844 33.5005 77.5891 34.1286C77.2323 35.8489 77.051 38.0389 77.051 40.6363C77.051 42.1415 77.1926 43.6241 77.4702 45.0615C77.5608 45.452 77.8836 45.9273 78.9258 45.9613C79.124 45.9613 79.3222 45.9386 79.5261 45.8933C80.4833 45.6557 80.6816 45.1464 80.6816 44.7616C80.6816 44.6767 80.6702 44.5861 80.6532 44.4956C80.6532 44.2579 80.6759 43.992 80.7099 43.7034C80.9194 41.7907 81.6444 39.7535 82.8565 37.6541C83.808 36.0017 85.3656 34.7341 85.6941 34.7341C86.3284 34.7511 86.47 36.9184 86.521 37.7333C86.6116 39.114 86.2944 40.0081 85.9319 41.0437C85.6827 41.7567 85.2579 43.8109 85.0654 44.7446C83.8363 50.7939 86.7532 53.3517 89.2963 54.7381C90.6329 55.4681 92.2471 55.836 94.0879 55.836C99.1853 55.836 106.078 52.8594 111.657 48.2474C118.131 42.8998 121.11 36.9637 119.632 32.3743L119.626 32.38Z" fill="#0B284C"/>
<path d="M103.971 46.1366C103.886 45.9329 103.671 45.814 103.45 45.8536C103.156 45.9046 102.929 45.9216 102.765 45.9046H102.736C101.927 45.9046 101.734 45.1972 101.536 44.122C101.496 43.89 101.451 43.6693 101.405 43.5052C101.247 42.1924 101.168 40.7041 101.168 39.0857C101.168 37.173 101.326 34.2473 101.638 30.388C101.757 29.0299 101.836 28.0339 101.876 27.3888V27.2417C101.876 27.1285 101.847 27.004 101.796 26.8682C101.57 26.3193 101.026 26.042 100.171 26.042C99.1002 26.0703 98.7321 26.5683 98.6018 27.0266C98.33 29.1996 98.1544 31.5707 98.0807 34.0889C97.1575 33.4211 96.1097 33.0759 94.9543 33.059C93.6006 33.0816 92.4112 33.8456 91.4201 35.3395C90.3553 36.9692 89.8115 38.9046 89.8115 41.0945C89.8115 42.0622 89.9475 42.9563 90.208 43.7485C90.8763 45.6952 92.1507 46.6798 93.9858 46.6798C94.235 46.6798 94.4955 46.6572 94.7731 46.6176C96.0984 46.3969 97.2651 45.7235 98.2563 44.6144C98.2507 45.7348 98.7038 46.6402 99.5477 47.1552C100.035 47.4494 100.601 47.5966 101.196 47.5966C102.057 47.5966 102.986 47.291 103.818 46.7025C103.999 46.578 104.062 46.346 103.977 46.1422L103.971 46.1366ZM98.0921 40.6192C97.9165 41.3831 97.571 42.4696 97.2595 43.0242C96.6081 44.1616 95.8662 44.7388 95.0562 44.7388C94.8297 44.7388 94.6145 44.7049 94.4049 44.6313C93.544 44.3597 93.0229 43.0412 93.0229 41.1115C93.0229 39.8836 93.2891 38.6952 93.8215 37.5804C94.4219 36.3128 95.0846 35.1358 95.8775 35.0056C95.8832 35.0169 95.8888 35.0283 95.8945 35.0396C96.0871 35.3734 96.2796 35.679 96.5288 35.8205C97.3218 36.2392 97.8259 36.6637 98.0298 37.0768V37.0994C98.0298 38.6273 98.0468 39.81 98.0864 40.6079L98.0921 40.6192Z" fill="#0B284C"/>
<path d="M37.9817 46.5444C37.9194 46.4369 37.8288 46.3633 37.7098 46.335C37.4096 46.2558 37.0415 46.4765 36.6167 46.7255C36.4128 46.85 36.0673 47.0537 35.9314 47.0537C34.9515 47.0537 34.7929 45.7182 34.7136 44.3544L34.7023 44.1394C34.7023 44.0375 34.691 43.9357 34.6683 43.8564C34.4701 42.6568 34.4814 41.5307 34.4927 39.8217C34.4927 39.3577 34.4984 38.8484 34.4984 38.2825C34.4984 35.9623 34.674 32.086 35.0308 26.7045V26.6139C35.0308 26.4838 35.0025 26.3479 34.9515 26.2121C34.725 25.6632 34.1812 25.3973 33.3543 25.3916C32.6293 25.4821 32.1196 25.799 31.8421 26.3366L31.8194 26.4045C31.304 28.6341 31.0435 31.4805 31.0435 34.8645C31.0435 37.6204 31.2247 40.812 31.5872 44.3318C31.6325 46.4539 32.7766 48.1119 34.64 48.7683C35.1328 48.9438 35.6368 49.023 36.1013 49.023C36.8886 49.023 37.5795 48.7853 37.959 48.3383C38.1912 48.061 38.5028 47.4668 37.9817 46.5444Z" fill="#0B284C"/>
<path d="M28.3248 29.1992C25.3796 29.5387 24.4394 29.0973 23.1311 28.0844C21.0128 26.449 20.8825 23.4271 20.8825 21.7408C20.8825 21.5201 20.8995 21.09 20.9165 20.858C21.0751 16.0706 21.1544 13.3714 21.1544 12.6018C21.1544 4.97362 20.2029 1.40854 18.1639 1.38591H18.1525C17.0594 1.40854 16.0229 2.57427 14.9751 4.95665C14.7033 5.67532 14.4484 6.48454 14.2162 7.37863C13.6554 3.27596 12.7549 1.33498 11.4069 1.29537C10.4271 1.31234 9.53783 2.21776 8.71657 4.05689C8.73923 3.6834 8.75055 3.38348 8.75055 3.17411V3.08356C8.75055 2.96473 8.7279 2.84589 8.68825 2.72706C8.67126 2.529 8.56365 1.84993 7.9123 1.33498C7.1137 0.701186 5.83367 0.565374 4.1062 0.933199C2.26544 1.318 0.928775 2.48938 0.322743 4.22665C-0.25497 5.8847 -0.0454071 7.84832 0.821162 8.88955C0.821162 8.88955 3.31326 10.1854 4.12319 8.8556C4.42904 8.36328 4.2931 7.37298 4.15717 6.32043C4.06655 5.61307 3.95894 4.81517 4.06655 4.5096C4.20248 4.13045 4.72922 3.66643 4.96144 3.71736C5.05772 3.73433 5.21065 3.96635 5.17666 4.66804C4.88781 6.55244 4.74621 8.79335 4.74621 11.3229C4.74621 14.2824 4.63293 19.1094 5.36923 21.5654C5.65809 22.5161 6.76821 22.8499 7.24397 22.8499C7.37424 22.8499 7.50451 22.833 7.63477 22.799C8.78454 22.4934 9.33393 20.9316 9.35659 20.8637L9.57181 20.2356L8.97144 20.5128C8.80719 20.5864 8.67692 20.609 8.60329 20.5751C8.54099 20.5411 8.50701 20.4449 8.49568 20.3827C8.33143 19.1038 8.13886 17.4174 8.20116 15.4029C8.26913 13.2355 8.64294 11.2097 8.9941 9.36489C9.75306 5.28486 10.4327 4.50394 10.7329 4.37378C10.9481 4.7982 11.3616 6.95422 11.5258 16.9987C11.5258 18.3285 11.6051 19.6187 11.9789 20.3035C12.2791 20.858 13.31 21.4126 13.9613 21.2598C15.145 20.9882 15.7114 19.3811 15.7341 19.3132L15.9493 18.685L15.3489 18.9623C15.1564 19.0529 14.9978 19.0811 14.9185 19.0359C14.8618 19.0076 14.8449 18.9227 14.8392 18.9227L14.8335 17.525C14.8505 16.8402 14.8845 16.1272 14.9185 15.3859C15.2073 11.1531 15.7794 7.89925 16.595 5.74888C17.1104 4.78122 17.4219 4.47564 17.5522 4.37944C17.6598 4.67936 17.858 5.79981 17.858 9.91946C17.858 12.3132 17.7787 15.7311 17.6201 20.0771C17.5975 20.8863 17.5918 21.3334 17.5918 21.4126C17.5918 21.4239 17.5918 21.4409 17.5918 21.4522C17.5862 21.871 17.6145 26.2339 20.1859 28.9219C22.1909 31.01 24.7169 31.7117 28.625 31.259C29.2084 31.1911 29.7521 31.1062 30.2675 31.0157C30.3355 30.0706 30.4261 29.1822 30.5451 28.3503C29.8541 28.7521 29.1234 29.086 28.3022 29.1822L28.3248 29.1992Z" fill="#0B284C"/>
<path d="M45.962 8.42578C44.9369 8.42578 43.9514 8.66345 43.0338 9.13314C41.4423 9.94235 40.5191 11.1194 40.2869 12.6869V12.8057C40.2869 12.9359 40.3095 13.0774 40.3605 13.2301C40.5871 13.847 41.0345 13.9941 41.3517 13.9771C41.363 13.9771 41.3743 13.9771 41.3857 13.9771C40.9495 14.3959 40.7117 15.256 40.6663 16.5745V16.5859C40.6663 18.1477 41.0288 19.4719 41.7481 20.5188C42.6034 21.7524 43.7531 22.3805 45.1691 22.3805C46.806 22.3579 48.2276 21.6222 49.4 20.1792C50.6121 18.623 51.2294 16.733 51.2294 14.5543C51.2294 13.4395 51.0312 12.4209 50.6461 11.5268C49.7965 9.47833 48.2219 8.4371 45.962 8.4371V8.42578ZM42.3428 12.9359C42.4165 12.6643 42.5184 12.3926 42.643 12.1493C43.1414 11.2552 43.8608 10.8195 44.8406 10.8195C45.5373 10.8195 46.1433 11.0628 46.6814 11.5664C47.5989 12.4492 48.069 13.8074 48.069 15.6069C48.069 16.5066 47.9161 17.3555 47.6159 18.1251C47.0665 19.5511 46.2283 20.2415 45.0502 20.2415C44.8972 20.2415 44.7443 20.2019 44.5801 20.1226C43.9174 19.8171 43.5946 19.2172 43.5946 18.2892C43.5946 17.7855 43.6795 17.18 43.8438 16.5236C43.8947 16.3765 43.9174 16.1614 43.9174 15.8728C43.9174 15.539 43.8381 15.1938 43.6795 14.8316C43.2944 14.0677 42.745 13.6772 42.0143 13.6772C42.0143 13.6772 41.969 13.6829 41.9464 13.6885C42.1106 13.5188 42.2409 13.2698 42.3542 12.9415L42.3428 12.9359Z" fill="#0B284C"/>
<path d="M61.2261 9.01465C60.5182 9.03728 59.7082 9.48433 58.7397 10.3898C57.5673 11.5328 56.5421 12.9645 55.6869 14.6565C55.7549 14.0341 55.8398 13.321 55.9418 12.5062C56.0211 11.7988 56.0777 11.2782 56.123 10.916V10.8255C56.123 10.6953 56.0947 10.5595 56.0437 10.4237C55.8398 9.92572 55.3924 10.0219 55.0695 10.0955C54.8996 10.1294 54.7014 10.1747 54.4692 10.1747C53.6875 10.22 53.1665 10.5369 52.9116 11.165C52.5208 13.0551 52.3735 14.6622 52.3735 17.1012C52.3735 18.5838 52.5151 20.0607 52.7927 21.4924C52.8833 21.8999 53.2061 22.3922 54.2483 22.4205C54.4522 22.4205 54.6674 22.3865 54.877 22.3243C55.8058 22.0866 56.0041 21.5773 56.0041 21.1982C56.0041 21.1133 55.9927 21.0227 55.9757 20.9322C55.9871 20.5474 56.1457 16.3768 57.4653 14.3566C58.734 12.4043 59.3231 11.9912 59.5723 11.9912C59.7988 12.0025 59.8328 12.5967 59.8385 12.7721C59.8385 13.0211 59.7819 13.3267 59.6742 13.6889C59.2495 14.9961 59.2495 15.1658 59.2495 15.2507C59.2495 15.3526 59.2608 15.4544 59.2834 15.5337C59.425 16.3485 61.4414 16.4447 61.481 16.4447C61.7076 16.4164 61.9228 16.2919 62.1777 16.0373C62.7101 15.313 62.9706 14.0737 62.9706 12.2402C62.948 10.1464 62.3702 9.05992 61.2318 9.01465H61.2261Z" fill="#0B284C"/>
<path d="M82.7375 8.42578C81.7123 8.42578 80.7268 8.66345 79.8093 9.13314C78.2177 9.94235 77.2945 11.1194 77.0566 12.6869V12.8057C77.0566 12.9359 77.0793 13.0774 77.1359 13.2301C77.3625 13.847 77.7816 13.9941 78.1271 13.9771C78.1384 13.9771 78.1498 13.9771 78.1611 13.9771C77.725 14.3959 77.4871 15.256 77.4418 16.5745V16.5859C77.4418 18.1477 77.8043 19.4719 78.5236 20.5188C79.3788 21.7524 80.5286 22.3805 81.9445 22.3805C83.5814 22.3579 85.003 21.6222 86.1754 20.1792C87.3875 18.623 88.0049 16.733 88.0049 14.5543C88.0049 13.4395 87.8066 12.4209 87.4215 11.5268C86.5719 9.47833 84.9974 8.4371 82.7375 8.4371V8.42578ZM79.1183 12.9359C79.1919 12.6643 79.2939 12.3926 79.4128 12.1493C79.9112 11.2552 80.6362 10.8195 81.616 10.8195C82.3127 10.8195 82.9187 11.0628 83.4568 11.5664C84.3743 12.4492 84.8444 13.8074 84.8444 15.6069C84.8444 16.5066 84.6915 17.3555 84.3913 18.1251C83.8419 19.5511 83.0037 20.2415 81.8256 20.2415C81.6727 20.2415 81.5198 20.2019 81.3555 20.1226C80.6928 19.8171 80.37 19.2172 80.37 18.2892C80.37 17.7855 80.4549 17.18 80.6192 16.5236C80.6702 16.3765 80.6928 16.1614 80.6928 15.8728C80.6928 15.5446 80.6135 15.1994 80.455 14.8316C80.0698 14.0677 79.5204 13.6772 78.7898 13.6772C78.7898 13.6772 78.7445 13.6829 78.7218 13.6885C78.8861 13.5188 79.0163 13.2698 79.1296 12.9415L79.1183 12.9359Z" fill="#0B284C"/>
<path d="M117.066 18.7871C116.839 18.1137 116.409 17.9722 116.092 17.9722C115.882 17.9722 115.633 18.0967 115.304 18.3796C115.253 18.4306 115.197 18.4815 115.112 18.5437C114.857 18.7701 114.602 19.0191 114.347 19.2681C113.549 20.0433 112.716 20.8525 112.048 20.8525C110.824 20.8356 110.315 18.9002 110.23 17.1177C111.425 17.2931 112.495 17.2252 113.469 16.9366C115.599 16.2689 116.675 14.6618 116.675 12.1605C116.675 11.3174 116.426 10.5647 115.939 9.93096C115.157 8.87841 114.002 8.34082 112.495 8.34082C111.102 8.36346 109.895 8.95198 108.921 10.0951C107.624 11.6739 106.967 13.8752 106.967 16.6367C106.967 17.7685 107.132 18.7701 107.46 19.6302C108.213 21.4694 109.618 22.3974 111.646 22.3974C112.076 22.3974 112.535 22.3465 113.005 22.2446C114.613 21.8994 115.916 21.1355 116.902 19.9358C117.026 19.7434 117.1 19.5001 117.123 19.1945C117.123 19.0813 117.111 18.9568 117.077 18.7814L117.066 18.7871ZM110.405 14.5995C110.519 14.0676 110.66 13.5583 110.841 13.0886C111.425 11.6456 112.246 9.98189 113.447 9.98189C114.143 9.99886 114.642 11.2042 114.659 12.2681C114.642 13.7563 113.945 15.4993 112.036 15.5389C111.917 15.5389 111.646 15.3408 111.425 15.1824C111.119 14.9617 110.779 14.7184 110.405 14.5939V14.5995Z" fill="#0B284C"/>
<path d="M77.4643 24.6104C77.2774 24.633 77.1188 24.6387 76.9999 24.6273H76.9715C76.5864 24.6273 76.2749 24.4802 76.0314 24.1916C75.5839 23.6597 75.499 22.7769 75.6066 22.1884L75.6632 21.8545C75.9464 20.1399 76.088 18.3234 76.088 16.456C76.088 15.7146 76.0653 14.9847 76.0257 14.283C75.7538 10.6386 74.9099 8.86743 73.4316 8.86743C72.8483 8.89006 72.1176 9.28052 71.1888 10.0558C69.7954 11.2838 68.6174 12.8456 67.6772 14.7243L67.6658 12.4551C70.1976 9.62571 71.4946 6.60954 71.5116 3.49151C71.5116 3.11237 71.5003 2.81811 71.4776 2.60307C71.4153 2.03719 71.1718 1.51091 70.7526 1.02991C70.107 0.34519 69.3537 0 68.5098 0C68.3398 0 68.1699 0.0113177 67.9887 0.0339531C65.4683 0.475344 64.2449 4.22151 64.2449 11.4818C64.2449 14.8771 64.4035 18.2668 64.715 21.5489C64.7376 21.8375 64.8056 22.1092 64.9132 22.3468C65.2304 23.0938 65.7911 23.4899 66.5331 23.4899C66.6294 23.4899 66.737 23.4786 66.8616 23.4503C67.3657 23.3315 67.966 22.9523 67.966 21.7923C67.966 21.7923 67.9434 21.2603 67.966 21.0849C68.1529 19.3193 68.9289 16.654 70.1466 14.3169C71.2737 12.093 71.8514 11.8496 72.0383 11.8496C72.2932 11.8553 72.8879 12.1948 72.9106 15.1601C72.9106 16.3824 72.7633 18.2781 72.4688 20.785C72.3895 21.4584 72.3385 21.9111 72.3215 22.1714V22.2733C72.2309 23.7559 72.8199 24.9895 73.9301 25.6686C74.4681 25.9968 75.0798 26.1552 75.7142 26.1552C76.4108 26.1552 77.1301 25.9572 77.7871 25.5667C77.9967 25.4422 78.0873 25.1876 78.008 24.9556C77.9287 24.7179 77.6965 24.5764 77.4473 24.6104H77.4643ZM69.3027 2.33711C69.3367 2.3937 69.433 2.59741 69.45 3.2595C69.45 5.30801 68.8836 7.36783 67.7621 9.38238C67.7735 9.15603 67.7904 8.92968 67.8018 8.70332C68.1189 3.19725 68.9232 2.39935 69.3027 2.34277V2.33711Z" fill="#0B284C"/>
<path d="M108.633 23.3487C108.412 22.9526 107.743 23.0092 106.747 23.1394C106.469 23.1733 106.18 23.2129 106.039 23.2016C105.75 23.2016 105.557 23.1337 105.444 23.0035C105.206 22.7206 105.291 22.0981 105.399 21.5266C105.399 21.5266 105.869 16.5921 105.869 15.432C105.869 11.1652 105.047 9.06578 103.343 9.02051C102.946 9.02051 102.516 9.13934 102.063 9.37702C100.964 9.95422 99.9386 11.0294 99.0041 12.5743C98.5793 11.1765 97.8487 10.4635 96.8292 10.4635C96.2798 10.4635 95.6851 10.6899 95.0734 11.1313C94.0822 11.833 93.2043 12.8742 92.4567 14.2323C92.5473 13.3835 92.6719 12.3706 92.7965 11.4085C92.8531 10.8992 92.5926 10.1862 92.1678 9.71089C91.8846 9.39399 91.5788 9.21857 91.2219 9.22989C90.2308 9.35438 89.1433 14.5718 89.1433 16.7279C89.1433 18.2105 89.2849 19.6875 89.5624 21.1191C89.6531 21.5266 89.9759 22.0189 91.018 22.0472C91.2163 22.0472 91.4145 22.0246 91.6184 21.9793C92.5756 21.7416 92.7738 21.2323 92.7738 20.8475C92.7738 20.757 92.7625 20.6721 92.7455 20.5816C92.7512 19.3366 93.193 17.7521 94.0482 15.8677C95.5265 12.6139 96.0306 12.28 96.1325 12.2574C96.1495 12.2574 96.5743 12.3026 96.5969 14.3908C96.5969 15.0925 96.1891 17.0844 95.8946 18.533L95.7813 19.0933C95.7417 19.3196 95.7134 19.4668 95.6964 19.546V19.7044C95.6907 19.8402 95.7134 19.9761 95.77 20.1062C95.9966 20.6551 96.5176 20.9324 97.3446 20.9324C98.1262 20.8871 98.6473 20.5702 98.8965 19.9647C99.1343 19.1895 99.174 18.2218 99.3496 17.1296C99.5138 16.1167 99.9783 15.149 100.414 14.1984C101.287 12.263 102.703 10.6163 103.037 10.5937C103.037 10.5937 103.479 10.6899 103.501 13.4344C103.501 14.3738 103.207 15.7942 102.901 17.2994C102.663 18.4651 102.414 19.6648 102.266 20.8249L102.227 21.0795C102.023 22.9752 102.895 24.5088 104.623 25.2897C105.28 25.5896 106.005 25.7311 106.662 25.7311C107.466 25.7311 108.174 25.5161 108.565 25.0917C108.803 24.8314 109.131 24.2598 108.627 23.36L108.633 23.3487Z" fill="#0B284C"/>
</g>
<defs>
<clipPath id="clip0_1261_7739">
<rect width="120" height="55.8416" fill="white"/>
</clipPath>
</defs>
</svg>
