<svg width="40" height="27" viewBox="0 0 40 27" fill="none" xmlns="http://www.w3.org/2000/svg">
<rect y="1.35352" width="40" height="26" rx="2.51813" fill="#F4F5FF"/>
<path d="M23.4991 20.7424H16.4998V7.9668H23.4991V20.7424Z" fill="#6C6BBD"/>
<path d="M16.9483 14.3535C16.9483 11.7619 18.143 9.45341 20.0035 7.96571C18.643 6.87783 16.9259 6.22852 15.0598 6.22852C10.6419 6.22852 7.06079 9.86614 7.06079 14.3535C7.06079 18.8409 10.6419 22.4785 15.0598 22.4785C16.9259 22.4785 18.643 21.8292 20.0035 20.7413C18.143 19.2536 16.9483 16.9451 16.9483 14.3535Z" fill="#EB001B"/>
<path d="M32.9391 14.3535C32.9391 18.8409 29.3579 22.4785 24.9401 22.4785C23.074 22.4785 21.3569 21.8292 19.9958 20.7413C21.8569 19.2536 23.0516 16.9451 23.0516 14.3535C23.0516 11.7619 21.8569 9.45341 19.9958 7.96571C21.3569 6.87783 23.074 6.22852 24.9401 6.22852C29.3579 6.22852 32.9391 9.86614 32.9391 14.3535Z" fill="#0099DF"/>
<path d="M27.2124 12.9646C27.327 12.9646 27.4916 12.9869 27.6174 13.0371L27.4422 13.5812C27.322 13.531 27.2018 13.5145 27.0866 13.5145C26.7149 13.5145 26.529 13.7586 26.529 14.1972V15.686H25.96V13.0314H26.5233V13.3537C26.671 13.1204 26.8845 12.9646 27.2124 12.9646ZM25.1107 13.559H24.1812V14.7585C24.1812 15.0249 24.2739 15.2028 24.5586 15.2028C24.7064 15.2028 24.8922 15.1526 25.0612 15.0528L25.2252 15.5467C25.045 15.6745 24.7608 15.7527 24.5148 15.7527C23.842 15.7527 23.6073 15.3859 23.6073 14.7693V13.559H23.0765V13.0314H23.6073V12.226H24.1812V13.0314H25.1107V13.559ZM17.8321 14.1254C17.8928 13.7421 18.1219 13.4808 18.5269 13.4808C18.893 13.4808 19.1283 13.7141 19.1884 14.1254H17.8321ZM19.7793 14.3587C19.7736 13.531 19.2704 12.9646 18.5375 12.9646C17.772 12.9646 17.2363 13.531 17.2363 14.3587C17.2363 15.2022 17.7939 15.7521 18.5763 15.7521C18.97 15.7521 19.3305 15.6523 19.6478 15.3802L19.3687 14.9524C19.1503 15.1304 18.8711 15.2302 18.6089 15.2302C18.2427 15.2302 17.9091 15.0579 17.8271 14.5805H19.768C19.7737 14.5081 19.7793 14.4362 19.7793 14.3587ZM22.2779 13.709C22.1195 13.6086 21.7972 13.4808 21.4636 13.4808C21.1519 13.4808 20.966 13.5978 20.966 13.7923C20.966 13.9696 21.1625 14.0199 21.4085 14.0529L21.6764 14.0917C22.2453 14.1756 22.5896 14.4197 22.5896 14.8863C22.5896 15.3916 22.1521 15.7527 21.3979 15.7527C20.971 15.7527 20.5773 15.6415 20.2656 15.4082L20.5335 14.9581C20.725 15.1081 21.0098 15.2359 21.4035 15.2359C21.7915 15.2359 21.9993 15.1196 21.9993 14.9136C21.9993 14.7642 21.8516 14.6803 21.5399 14.6365L21.2721 14.5977C20.6868 14.5138 20.3695 14.2474 20.3695 13.8145C20.3695 13.2869 20.7964 12.9646 21.4579 12.9646C21.8735 12.9646 22.251 13.0593 22.5238 13.2424L22.2779 13.709ZM29.2911 13.5132C29.174 13.5132 29.0657 13.5342 28.965 13.5755C28.8648 13.6175 28.7778 13.676 28.7046 13.751C28.6314 13.826 28.5738 13.9162 28.5318 14.0211C28.4899 14.126 28.4692 14.2417 28.4692 14.3676C28.4692 14.4941 28.4899 14.6091 28.5318 14.714C28.5738 14.8189 28.6314 14.9092 28.7046 14.9842C28.7778 15.0592 28.8648 15.1177 28.965 15.1596C29.0657 15.2016 29.174 15.2219 29.2911 15.2219C29.4081 15.2219 29.517 15.2016 29.6171 15.1596C29.7179 15.1177 29.8055 15.0592 29.8788 14.9842C29.9533 14.9092 30.0108 14.8189 30.0534 14.714C30.0953 14.6091 30.116 14.4941 30.116 14.3676C30.116 14.2417 30.0953 14.126 30.0534 14.0211C30.0108 13.9162 29.9533 13.826 29.8788 13.751C29.8055 13.676 29.7179 13.6175 29.6171 13.5755C29.517 13.5342 29.4081 13.5132 29.2911 13.5132ZM29.2911 12.9646C29.4938 12.9646 29.6816 13.0002 29.8544 13.0721C30.0271 13.1433 30.1767 13.2418 30.3025 13.367C30.4289 13.4922 30.5272 13.6404 30.5986 13.8107C30.6699 13.9817 30.7056 14.1673 30.7056 14.3676C30.7056 14.5678 30.6699 14.7534 30.5986 14.9244C30.5272 15.0948 30.4289 15.2435 30.3025 15.3688C30.1767 15.494 30.0271 15.5919 29.8544 15.6637C29.6816 15.7349 29.4938 15.7705 29.2911 15.7705C29.0883 15.7705 28.9005 15.7349 28.7277 15.6637C28.555 15.5919 28.4067 15.494 28.2815 15.3688C28.1563 15.2435 28.058 15.0948 27.9867 14.9244C27.9153 14.7534 27.8797 14.5678 27.8797 14.3676C27.8797 14.1673 27.9153 13.9817 27.9867 13.8107C28.058 13.6404 28.1563 13.4922 28.2815 13.367C28.4067 13.2418 28.555 13.1433 28.7277 13.0721C28.9005 13.0002 29.0883 12.9646 29.2911 12.9646ZM14.5098 14.3587C14.5098 13.8921 14.8109 13.5088 15.3029 13.5088C15.7729 13.5088 16.0902 13.8756 16.0902 14.3587C16.0902 14.8418 15.7729 15.2079 15.3029 15.2079C14.8109 15.2079 14.5098 14.8253 14.5098 14.3587ZM16.626 14.3587V13.0314H16.0577V13.3537C15.8768 13.1146 15.6039 12.9646 15.2321 12.9646C14.4992 12.9646 13.9253 13.5475 13.9253 14.3587C13.9253 15.1692 14.4992 15.7527 15.2321 15.7527C15.6039 15.7527 15.8768 15.6027 16.0577 15.3637V15.686H16.626V14.3587ZM13.422 15.686V14.0199C13.422 13.3924 13.0284 12.9703 12.3943 12.9646C12.0607 12.9589 11.7158 13.0644 11.4755 13.4369C11.2952 13.1426 11.0105 12.9646 10.6111 12.9646C10.3326 12.9646 10.0591 13.0479 9.84566 13.3587V13.0314H9.27734V15.686H9.85129V14.2144C9.85129 13.7535 10.1029 13.5088 10.491 13.5088C10.8684 13.5088 11.0599 13.7586 11.0599 14.2086V15.686H11.6338V14.2144C11.6338 13.7535 11.8967 13.5088 12.2735 13.5088C12.6622 13.5088 12.8481 13.7586 12.8481 14.2086V15.686H13.422Z" fill="white"/>
</svg>
