<svg width="41" height="27" viewBox="0 0 41 27" fill="none" xmlns="http://www.w3.org/2000/svg">
<rect x="0.5" y="1.35352" width="40" height="26" rx="2.51813" fill="#F4F5FF"/>
<path d="M23.9991 20.7424H16.9998V7.9668H23.9991V20.7424Z" fill="#6C6BBD"/>
<path d="M17.4483 14.3535C17.4483 11.7619 18.643 9.45341 20.5035 7.96571C19.143 6.87783 17.4259 6.22852 15.5598 6.22852C11.1419 6.22852 7.56079 9.86614 7.56079 14.3535C7.56079 18.8409 11.1419 22.4785 15.5598 22.4785C17.4259 22.4785 19.143 21.8292 20.5035 20.7413C18.643 19.2536 17.4483 16.9451 17.4483 14.3535Z" fill="#EB001B"/>
<path d="M33.4391 14.3535C33.4391 18.8409 29.8579 22.4785 25.4401 22.4785C23.574 22.4785 21.8569 21.8292 20.4958 20.7413C22.3569 19.2536 23.5516 16.9451 23.5516 14.3535C23.5516 11.7619 22.3569 9.45341 20.4958 7.96571C21.8569 6.87783 23.574 6.22852 25.4401 6.22852C29.8579 6.22852 33.4391 9.86614 33.4391 14.3535Z" fill="#0099DF"/>
<path d="M27.7124 12.9646C27.827 12.9646 27.9916 12.9869 28.1174 13.0371L27.9422 13.5812C27.822 13.531 27.7018 13.5145 27.5866 13.5145C27.2149 13.5145 27.029 13.7586 27.029 14.1972V15.686H26.46V13.0314H27.0233V13.3537C27.171 13.1204 27.3845 12.9646 27.7124 12.9646ZM25.6107 13.559H24.6812V14.7585C24.6812 15.0249 24.7739 15.2028 25.0586 15.2028C25.2064 15.2028 25.3922 15.1526 25.5612 15.0528L25.7252 15.5467C25.545 15.6745 25.2608 15.7527 25.0148 15.7527C24.342 15.7527 24.1073 15.3859 24.1073 14.7693V13.559H23.5765V13.0314H24.1073V12.226H24.6812V13.0314H25.6107V13.559ZM18.3321 14.1254C18.3928 13.7421 18.6219 13.4808 19.0269 13.4808C19.393 13.4808 19.6283 13.7141 19.6884 14.1254H18.3321ZM20.2793 14.3587C20.2736 13.531 19.7704 12.9646 19.0375 12.9646C18.272 12.9646 17.7363 13.531 17.7363 14.3587C17.7363 15.2022 18.2939 15.7521 19.0763 15.7521C19.47 15.7521 19.8305 15.6523 20.1478 15.3802L19.8687 14.9524C19.6503 15.1304 19.3711 15.2302 19.1089 15.2302C18.7427 15.2302 18.4091 15.0579 18.3271 14.5805H20.268C20.2737 14.5081 20.2793 14.4362 20.2793 14.3587ZM22.7779 13.709C22.6195 13.6086 22.2972 13.4808 21.9636 13.4808C21.6519 13.4808 21.466 13.5978 21.466 13.7923C21.466 13.9696 21.6625 14.0199 21.9085 14.0529L22.1764 14.0917C22.7453 14.1756 23.0896 14.4197 23.0896 14.8863C23.0896 15.3916 22.6521 15.7527 21.8979 15.7527C21.471 15.7527 21.0773 15.6415 20.7656 15.4082L21.0335 14.9581C21.225 15.1081 21.5098 15.2359 21.9035 15.2359C22.2915 15.2359 22.4993 15.1196 22.4993 14.9136C22.4993 14.7642 22.3516 14.6803 22.0399 14.6365L21.7721 14.5977C21.1868 14.5138 20.8695 14.2474 20.8695 13.8145C20.8695 13.2869 21.2964 12.9646 21.9579 12.9646C22.3735 12.9646 22.751 13.0593 23.0238 13.2424L22.7779 13.709ZM29.7911 13.5132C29.674 13.5132 29.5657 13.5342 29.465 13.5755C29.3648 13.6175 29.2778 13.676 29.2046 13.751C29.1314 13.826 29.0738 13.9162 29.0318 14.0211C28.9899 14.126 28.9692 14.2417 28.9692 14.3676C28.9692 14.4941 28.9899 14.6091 29.0318 14.714C29.0738 14.8189 29.1314 14.9092 29.2046 14.9842C29.2778 15.0592 29.3648 15.1177 29.465 15.1596C29.5657 15.2016 29.674 15.2219 29.7911 15.2219C29.9081 15.2219 30.017 15.2016 30.1171 15.1596C30.2179 15.1177 30.3055 15.0592 30.3788 14.9842C30.4533 14.9092 30.5108 14.8189 30.5534 14.714C30.5953 14.6091 30.616 14.4941 30.616 14.3676C30.616 14.2417 30.5953 14.126 30.5534 14.0211C30.5108 13.9162 30.4533 13.826 30.3788 13.751C30.3055 13.676 30.2179 13.6175 30.1171 13.5755C30.017 13.5342 29.9081 13.5132 29.7911 13.5132ZM29.7911 12.9646C29.9938 12.9646 30.1816 13.0002 30.3544 13.0721C30.5271 13.1433 30.6767 13.2418 30.8025 13.367C30.9289 13.4922 31.0272 13.6404 31.0986 13.8107C31.1699 13.9817 31.2056 14.1673 31.2056 14.3676C31.2056 14.5678 31.1699 14.7534 31.0986 14.9244C31.0272 15.0948 30.9289 15.2435 30.8025 15.3688C30.6767 15.494 30.5271 15.5919 30.3544 15.6637C30.1816 15.7349 29.9938 15.7705 29.7911 15.7705C29.5883 15.7705 29.4005 15.7349 29.2277 15.6637C29.055 15.5919 28.9067 15.494 28.7815 15.3688C28.6563 15.2435 28.558 15.0948 28.4867 14.9244C28.4153 14.7534 28.3797 14.5678 28.3797 14.3676C28.3797 14.1673 28.4153 13.9817 28.4867 13.8107C28.558 13.6404 28.6563 13.4922 28.7815 13.367C28.9067 13.2418 29.055 13.1433 29.2277 13.0721C29.4005 13.0002 29.5883 12.9646 29.7911 12.9646ZM15.0098 14.3587C15.0098 13.8921 15.3109 13.5088 15.8029 13.5088C16.2729 13.5088 16.5902 13.8756 16.5902 14.3587C16.5902 14.8418 16.2729 15.2079 15.8029 15.2079C15.3109 15.2079 15.0098 14.8253 15.0098 14.3587ZM17.126 14.3587V13.0314H16.5577V13.3537C16.3768 13.1146 16.1039 12.9646 15.7321 12.9646C14.9992 12.9646 14.4253 13.5475 14.4253 14.3587C14.4253 15.1692 14.9992 15.7527 15.7321 15.7527C16.1039 15.7527 16.3768 15.6027 16.5577 15.3637V15.686H17.126V14.3587ZM13.922 15.686V14.0199C13.922 13.3924 13.5284 12.9703 12.8943 12.9646C12.5607 12.9589 12.2158 13.0644 11.9755 13.4369C11.7952 13.1426 11.5105 12.9646 11.1111 12.9646C10.8326 12.9646 10.5591 13.0479 10.3457 13.3587V13.0314H9.77734V15.686H10.3513V14.2144C10.3513 13.7535 10.6029 13.5088 10.991 13.5088C11.3684 13.5088 11.5599 13.7586 11.5599 14.2086V15.686H12.1338V14.2144C12.1338 13.7535 12.3967 13.5088 12.7735 13.5088C13.1622 13.5088 13.3481 13.7586 13.3481 14.2086V15.686H13.922Z" fill="white"/>
</svg>
