<svg width="40" height="27" viewBox="0 0 40 27" fill="none" xmlns="http://www.w3.org/2000/svg">
<rect y="0.925781" width="40" height="26" rx="2.51813" fill="#F4F5FF"/>
<path d="M23.4991 20.3147H16.4998V7.53906H23.4991V20.3147Z" fill="#6C6BBD"/>
<path d="M16.9481 13.9258C16.9481 11.3342 18.1429 9.02568 20.0034 7.53798C18.6428 6.4501 16.9258 5.80078 15.0597 5.80078C10.6418 5.80078 7.06067 9.43841 7.06067 13.9258C7.06067 18.4132 10.6418 22.0508 15.0597 22.0508C16.9258 22.0508 18.6428 21.4015 20.0034 20.3136C18.1429 18.8259 16.9481 16.5174 16.9481 13.9258Z" fill="#EB001B"/>
<path d="M32.9391 13.9258C32.9391 18.4132 29.3579 22.0508 24.9401 22.0508C23.074 22.0508 21.3569 21.4015 19.9958 20.3136C21.8569 18.8259 23.0516 16.5174 23.0516 13.9258C23.0516 11.3342 21.8569 9.02568 19.9958 7.53798C21.3569 6.4501 23.074 5.80078 24.9401 5.80078C29.3579 5.80078 32.9391 9.43841 32.9391 13.9258Z" fill="#0099DF"/>
<path d="M27.2122 12.5359C27.3267 12.5359 27.4914 12.5582 27.6172 12.6084L27.4419 13.1525C27.3217 13.1023 27.2016 13.0858 27.0864 13.0858C26.7146 13.0858 26.5287 13.3299 26.5287 13.7685V15.2573H25.9598V12.6027H26.5231V12.925C26.6708 12.6917 26.8842 12.5359 27.2122 12.5359ZM25.1104 13.1303H24.181V14.3298C24.181 14.5961 24.2736 14.7741 24.5584 14.7741C24.7061 14.7741 24.892 14.7239 25.061 14.6241L25.225 15.118C25.0447 15.2458 24.7606 15.324 24.5146 15.324C23.8417 15.324 23.607 14.9572 23.607 14.3406V13.1303H23.0763V12.6027H23.607V11.7973H24.181V12.6027H25.1104V13.1303ZM17.8319 13.6967C17.8926 13.3134 18.1217 13.0521 18.5266 13.0521C18.8928 13.0521 19.1281 13.2854 19.1882 13.6967H17.8319ZM19.779 13.93C19.7734 13.1023 19.2702 12.5359 18.5373 12.5359C17.7718 12.5359 17.236 13.1023 17.236 13.93C17.236 14.7735 17.7937 15.3234 18.5761 15.3234C18.9698 15.3234 19.3303 15.2236 19.6476 14.9515L19.3685 14.5237C19.15 14.7017 18.8709 14.8015 18.6086 14.8015C18.2425 14.8015 17.9089 14.6292 17.8269 14.1518H19.7678C19.7734 14.0793 19.779 14.0075 19.779 13.93ZM22.2776 13.2803C22.1193 13.1799 21.7969 13.0521 21.4633 13.0521C21.1516 13.0521 20.9657 13.1691 20.9657 13.3636C20.9657 13.5409 21.1623 13.5911 21.4083 13.6242L21.6761 13.663C22.2451 13.7469 22.5893 13.991 22.5893 14.4576C22.5893 14.9629 22.1518 15.324 21.3976 15.324C20.9707 15.324 20.5771 15.2128 20.2654 14.9795L20.5332 14.5294C20.7248 14.6794 21.0096 14.8072 21.4032 14.8072C21.7913 14.8072 21.9991 14.6909 21.9991 14.4849C21.9991 14.3355 21.8514 14.2516 21.5397 14.2077L21.2718 14.169C20.6866 14.0851 20.3693 13.8187 20.3693 13.3858C20.3693 12.8582 20.7961 12.5359 21.4577 12.5359C21.8733 12.5359 22.2507 12.6306 22.5236 12.8137L22.2776 13.2803ZM29.2908 13.0845C29.1738 13.0845 29.0655 13.1055 28.9647 13.1468C28.8646 13.1888 28.7776 13.2472 28.7043 13.3222C28.6311 13.3973 28.5735 13.4875 28.5316 13.5924C28.4897 13.6973 28.469 13.813 28.469 13.9389C28.469 14.0654 28.4897 14.1804 28.5316 14.2853C28.5735 14.3902 28.6311 14.4805 28.7043 14.5555C28.7776 14.6305 28.8646 14.689 28.9647 14.7309C29.0655 14.7729 29.1738 14.7932 29.2908 14.7932C29.4079 14.7932 29.5168 14.7729 29.6169 14.7309C29.7177 14.689 29.8053 14.6305 29.8785 14.5555C29.953 14.4805 30.0106 14.3902 30.0532 14.2853C30.0951 14.1804 30.1157 14.0654 30.1157 13.9389C30.1157 13.813 30.0951 13.6973 30.0532 13.5924C30.0106 13.4875 29.953 13.3973 29.8785 13.3222C29.8053 13.2472 29.7177 13.1888 29.6169 13.1468C29.5168 13.1055 29.4079 13.0845 29.2908 13.0845ZM29.2908 12.5359C29.4936 12.5359 29.6814 12.5715 29.8541 12.6433C30.0269 12.7145 30.1765 12.8131 30.3023 12.9383C30.4287 13.0635 30.527 13.2116 30.5983 13.382C30.6697 13.553 30.7053 13.7386 30.7053 13.9389C30.7053 14.1391 30.6697 14.3247 30.5983 14.4957C30.527 14.6661 30.4287 14.8148 30.3023 14.94C30.1765 15.0653 30.0269 15.1632 29.8541 15.235C29.6814 15.3062 29.4936 15.3418 29.2908 15.3418C29.088 15.3418 28.9002 15.3062 28.7275 15.235C28.5548 15.1632 28.4064 15.0653 28.2812 14.94C28.1561 14.8148 28.0578 14.6661 27.9864 14.4957C27.9151 14.3247 27.8794 14.1391 27.8794 13.9389C27.8794 13.7386 27.9151 13.553 27.9864 13.382C28.0578 13.2116 28.1561 13.0635 28.2812 12.9383C28.4064 12.8131 28.5548 12.7145 28.7275 12.6433C28.9002 12.5715 29.088 12.5359 29.2908 12.5359ZM14.5096 13.93C14.5096 13.4634 14.8107 13.0801 15.3026 13.0801C15.7727 13.0801 16.09 13.4468 16.09 13.93C16.09 14.4131 15.7727 14.7792 15.3026 14.7792C14.8107 14.7792 14.5096 14.3965 14.5096 13.93ZM16.6258 13.93V12.6027H16.0575V12.925C15.8766 12.6859 15.6037 12.5359 15.2319 12.5359C14.499 12.5359 13.925 13.1188 13.925 13.93C13.925 14.7404 14.499 15.324 15.2319 15.324C15.6037 15.324 15.8766 15.174 16.0575 14.935V15.2573H16.6258V13.93ZM13.4218 15.2573V13.5911C13.4218 12.9637 13.0281 12.5416 12.3941 12.5359C12.0605 12.5302 11.7156 12.6357 11.4753 13.0082C11.295 12.7139 11.0102 12.5359 10.6109 12.5359C10.3324 12.5359 10.0588 12.6192 9.84542 12.93V12.6027H9.2771V15.2573H9.85105V13.7857C9.85105 13.3248 10.1027 13.0801 10.4907 13.0801C10.8681 13.0801 11.0597 13.3299 11.0597 13.7799V15.2573H11.6336V13.7857C11.6336 13.3248 11.8965 13.0801 12.2733 13.0801C12.662 13.0801 12.8478 13.3299 12.8478 13.7799V15.2573H13.4218Z" fill="white"/>
</svg>
