<svg width="40" height="27" viewBox="0 0 40 27" fill="none" xmlns="http://www.w3.org/2000/svg">
<rect y="1.35352" width="40" height="26" rx="2.51813" fill="#F4F5FF"/>
<path d="M23.4906 20.7434H16.4912V7.96777H23.4906V20.7434Z" fill="#FF5F00"/>
<path d="M16.9397 14.3545C16.9397 11.7629 18.1345 9.45439 19.995 7.96669C18.6344 6.87881 16.9173 6.22949 15.0512 6.22949C10.6334 6.22949 7.05225 9.86712 7.05225 14.3545C7.05225 18.8419 10.6334 22.4795 15.0512 22.4795C16.9173 22.4795 18.6344 21.8302 19.995 20.7423C18.1345 19.2546 16.9397 16.9461 16.9397 14.3545Z" fill="#EB001B"/>
<path d="M32.9305 14.3545C32.9305 18.8419 29.3494 22.4795 24.9315 22.4795C23.0654 22.4795 21.3484 21.8302 19.9873 20.7423C21.8483 19.2546 23.0431 16.9461 23.0431 14.3545C23.0431 11.7629 21.8483 9.45439 19.9873 7.96669C21.3484 6.87881 23.0654 6.22949 24.9315 6.22949C29.3494 6.22949 32.9305 9.86712 32.9305 14.3545Z" fill="#F79E1B"/>
<path d="M13.0715 14.4055C13.0715 14.0506 13.3005 13.759 13.6747 13.759C14.0322 13.759 14.2736 14.038 14.2736 14.4055C14.2736 14.7729 14.0322 15.0519 13.6747 15.0519C13.3005 15.0519 13.0715 14.7604 13.0715 14.4055ZM14.6811 14.4055V13.3959H14.2488V13.641C14.1117 13.4592 13.9037 13.3451 13.6209 13.3451C13.0634 13.3451 12.6264 13.789 12.6264 14.4055C12.6264 15.0224 13.0634 15.4658 13.6209 15.4658C13.9037 15.4658 14.1117 15.3517 14.2488 15.1699V15.4151H14.6811V14.4055ZM29.289 14.4055C29.289 14.0506 29.5179 13.759 29.8921 13.759C30.2501 13.759 30.491 14.038 30.491 14.4055C30.491 14.7729 30.2501 15.0519 29.8921 15.0519C29.5179 15.0519 29.289 14.7604 29.289 14.4055ZM30.899 14.4055V12.5851H30.4663V13.641C30.3292 13.4592 30.1211 13.3451 29.8383 13.3451C29.2809 13.3451 28.8438 13.789 28.8438 14.4055C28.8438 15.0224 29.2809 15.4658 29.8383 15.4658C30.1211 15.4658 30.3292 15.3517 30.4663 15.1699V15.4151H30.899V14.4055ZM20.0469 13.7382C20.3254 13.7382 20.5044 13.9157 20.5501 14.228H19.5185C19.5647 13.9365 19.7389 13.7382 20.0469 13.7382ZM20.0555 13.3451C19.4728 13.3451 19.0653 13.7759 19.0653 14.4055C19.0653 15.0476 19.4895 15.4658 20.0845 15.4658C20.384 15.4658 20.6582 15.3899 20.8996 15.183L20.6877 14.8576C20.5211 14.9925 20.3088 15.0689 20.1093 15.0689C19.8308 15.0689 19.5771 14.9378 19.5147 14.5742H20.991C20.9953 14.5196 20.9996 14.4645 20.9996 14.4055C20.9953 13.7759 20.6125 13.3451 20.0555 13.3451ZM25.2752 14.4055C25.2752 14.0506 25.5042 13.759 25.8784 13.759C26.2359 13.759 26.4773 14.038 26.4773 14.4055C26.4773 14.7729 26.2359 15.0519 25.8784 15.0519C25.5042 15.0519 25.2752 14.7604 25.2752 14.4055ZM26.8848 14.4055V13.3959H26.4525V13.641C26.3149 13.4592 26.1074 13.3451 25.8246 13.3451C25.2671 13.3451 24.83 13.789 24.83 14.4055C24.83 15.0224 25.2671 15.4658 25.8246 15.4658C26.1074 15.4658 26.3149 15.3517 26.4525 15.1699V15.4151H26.8848V14.4055ZM22.8339 14.4055C22.8339 15.0181 23.2538 15.4658 23.8946 15.4658C24.194 15.4658 24.3935 15.3981 24.6096 15.225L24.4021 14.8701C24.2397 14.9886 24.0693 15.0519 23.8817 15.0519C23.5366 15.0476 23.2828 14.7942 23.2828 14.4055C23.2828 14.0167 23.5366 13.7634 23.8817 13.759C24.0693 13.759 24.2397 13.8224 24.4021 13.9408L24.6096 13.5859C24.3935 13.4128 24.194 13.3451 23.8946 13.3451C23.2538 13.3451 22.8339 13.7929 22.8339 14.4055ZM28.4073 13.3451C28.1578 13.3451 27.9955 13.4636 27.8831 13.641V13.3959H27.4546V15.4151H27.8874V14.2831C27.8874 13.949 28.0288 13.7634 28.3116 13.7634C28.3992 13.7634 28.4906 13.7759 28.582 13.8141L28.7153 13.4003C28.6196 13.3621 28.4949 13.3451 28.4073 13.3451ZM16.8192 13.5564C16.6111 13.4172 16.3245 13.3451 16.0084 13.3451C15.5047 13.3451 15.1805 13.5903 15.1805 13.9916C15.1805 14.3209 15.4219 14.5239 15.8665 14.5873L16.0708 14.6168C16.3079 14.6506 16.4197 14.714 16.4197 14.8281C16.4197 14.9842 16.2617 15.0732 15.9665 15.0732C15.6671 15.0732 15.4509 14.976 15.3052 14.8619L15.1015 15.2038C15.3386 15.3812 15.638 15.4658 15.9622 15.4658C16.5364 15.4658 16.8691 15.1912 16.8691 14.8068C16.8691 14.4519 16.6073 14.2662 16.1746 14.2029L15.9708 14.1729C15.7837 14.1478 15.6337 14.1101 15.6337 13.9747C15.6337 13.8267 15.7751 13.7382 16.0122 13.7382C16.266 13.7382 16.5116 13.8354 16.6321 13.9113L16.8192 13.5564ZM22.3968 13.3451C22.1474 13.3451 21.985 13.4636 21.8732 13.641V13.3959H21.4447V15.4151H21.877V14.2831C21.877 13.949 22.0184 13.7634 22.3011 13.7634C22.3887 13.7634 22.4802 13.7759 22.5716 13.8141L22.7049 13.4003C22.6092 13.3621 22.4844 13.3451 22.3968 13.3451ZM18.7077 13.3959H18.0008V12.7833H17.5637V13.3959H17.1605V13.7972H17.5637V14.7183C17.5637 15.1868 17.7427 15.4658 18.254 15.4658C18.4416 15.4658 18.6578 15.4068 18.7949 15.3096L18.6701 14.9335C18.5411 15.0094 18.3997 15.0476 18.2874 15.0476C18.0712 15.0476 18.0008 14.9122 18.0008 14.7096V13.7972H18.7077V13.3959ZM12.2441 15.4151V14.1478C12.2441 13.6705 11.9446 13.3495 11.4619 13.3451C11.2082 13.3408 10.9463 13.421 10.763 13.7044C10.6259 13.4805 10.4098 13.3451 10.1061 13.3451C9.89372 13.3451 9.68616 13.4085 9.52382 13.6449V13.3959H9.09106V15.4151H9.52762V14.2957C9.52762 13.9452 9.719 13.759 10.0146 13.759C10.3017 13.759 10.4469 13.949 10.4469 14.2914V15.4151H10.884V14.2957C10.884 13.9452 11.0834 13.759 11.3705 13.759C11.6657 13.759 11.8071 13.949 11.8071 14.2914V15.4151H12.2441Z" fill="white"/>
</svg>
