<svg width="40" height="27" viewBox="0 0 40 27" fill="none" xmlns="http://www.w3.org/2000/svg">
<rect y="0.925781" width="40" height="26" rx="2.51813" fill="#F4F5FF"/>
<path d="M23.4909 20.3166H16.4916V7.54102H23.4909V20.3166Z" fill="#FF5F00"/>
<path d="M16.94 13.9277C16.94 11.3361 18.1347 9.02763 19.9952 7.53993C18.6347 6.45205 16.9176 5.80273 15.0515 5.80273C10.6336 5.80273 7.05249 9.44036 7.05249 13.9277C7.05249 18.4151 10.6336 22.0527 15.0515 22.0527C16.9176 22.0527 18.6347 21.4034 19.9952 20.3155C18.1347 18.8278 16.94 16.5193 16.94 13.9277Z" fill="#EB001B"/>
<path d="M32.9309 13.9277C32.9309 18.4151 29.3497 22.0527 24.9319 22.0527C23.0658 22.0527 21.3487 21.4034 19.9877 20.3155C21.8487 18.8278 23.0434 16.5193 23.0434 13.9277C23.0434 11.3361 21.8487 9.02763 19.9877 7.53993C21.3487 6.45205 23.0658 5.80273 24.9319 5.80273C29.3497 5.80273 32.9309 9.44036 32.9309 13.9277Z" fill="#F79E1B"/>
<path d="M13.0715 13.9787C13.0715 13.6238 13.3005 13.3323 13.6747 13.3323C14.0322 13.3323 14.2736 13.6113 14.2736 13.9787C14.2736 14.3462 14.0322 14.6252 13.6747 14.6252C13.3005 14.6252 13.0715 14.3336 13.0715 13.9787ZM14.6811 13.9787V12.9691H14.2488V13.2143C14.1117 13.0325 13.9037 12.9184 13.6209 12.9184C13.0634 12.9184 12.6264 13.3622 12.6264 13.9787C12.6264 14.5957 13.0634 15.0391 13.6209 15.0391C13.9037 15.0391 14.1117 14.925 14.2488 14.7432V14.9883H14.6811V13.9787ZM29.289 13.9787C29.289 13.6238 29.5179 13.3323 29.8921 13.3323C30.2501 13.3323 30.491 13.6113 30.491 13.9787C30.491 14.3462 30.2501 14.6252 29.8921 14.6252C29.5179 14.6252 29.289 14.3336 29.289 13.9787ZM30.899 13.9787V12.1583H30.4663V13.2143C30.3292 13.0325 30.1211 12.9184 29.8383 12.9184C29.2809 12.9184 28.8438 13.3622 28.8438 13.9787C28.8438 14.5957 29.2809 15.0391 29.8383 15.0391C30.1211 15.0391 30.3292 14.925 30.4663 14.7432V14.9883H30.899V13.9787ZM20.0469 13.3115C20.3254 13.3115 20.5044 13.4889 20.5501 13.8013H19.5185C19.5647 13.5097 19.7389 13.3115 20.0469 13.3115ZM20.0555 12.9184C19.4728 12.9184 19.0653 13.3492 19.0653 13.9787C19.0653 14.6208 19.4895 15.0391 20.0845 15.0391C20.384 15.0391 20.6582 14.9632 20.8996 14.7562L20.6877 14.4308C20.5211 14.5657 20.3088 14.6421 20.1093 14.6421C19.8308 14.6421 19.5771 14.5111 19.5147 14.1475H20.991C20.9953 14.0928 20.9996 14.0377 20.9996 13.9787C20.9953 13.3492 20.6125 12.9184 20.0555 12.9184ZM25.2752 13.9787C25.2752 13.6238 25.5042 13.3323 25.8784 13.3323C26.2359 13.3323 26.4773 13.6113 26.4773 13.9787C26.4773 14.3462 26.2359 14.6252 25.8784 14.6252C25.5042 14.6252 25.2752 14.3336 25.2752 13.9787ZM26.8848 13.9787V12.9691H26.4525V13.2143C26.3149 13.0325 26.1074 12.9184 25.8246 12.9184C25.2671 12.9184 24.83 13.3622 24.83 13.9787C24.83 14.5957 25.2671 15.0391 25.8246 15.0391C26.1074 15.0391 26.3149 14.925 26.4525 14.7432V14.9883H26.8848V13.9787ZM22.8339 13.9787C22.8339 14.5913 23.2538 15.0391 23.8946 15.0391C24.194 15.0391 24.3935 14.9714 24.6096 14.7983L24.4021 14.4434C24.2397 14.5618 24.0693 14.6252 23.8817 14.6252C23.5366 14.6208 23.2828 14.3675 23.2828 13.9787C23.2828 13.59 23.5366 13.3366 23.8817 13.3323C24.0693 13.3323 24.2397 13.3956 24.4021 13.5141L24.6096 13.1592C24.3935 12.9861 24.194 12.9184 23.8946 12.9184C23.2538 12.9184 22.8339 13.3661 22.8339 13.9787ZM28.4073 12.9184C28.1578 12.9184 27.9955 13.0368 27.8831 13.2143V12.9691H27.4546V14.9883H27.8874V13.8564C27.8874 13.5223 28.0288 13.3366 28.3116 13.3366C28.3992 13.3366 28.4906 13.3492 28.582 13.3874L28.7153 12.9735C28.6196 12.9353 28.4949 12.9184 28.4073 12.9184ZM16.8192 13.1297C16.6111 12.9904 16.3245 12.9184 16.0084 12.9184C15.5047 12.9184 15.1805 13.1635 15.1805 13.5648C15.1805 13.8941 15.4219 14.0972 15.8665 14.1605L16.0708 14.19C16.3079 14.2239 16.4197 14.2872 16.4197 14.4013C16.4197 14.5575 16.2617 14.6465 15.9665 14.6465C15.6671 14.6465 15.4509 14.5493 15.3052 14.4352L15.1015 14.777C15.3386 14.9544 15.638 15.0391 15.9622 15.0391C16.5364 15.0391 16.8691 14.7644 16.8691 14.38C16.8691 14.0251 16.6073 13.8395 16.1746 13.7761L15.9708 13.7462C15.7837 13.721 15.6337 13.6833 15.6337 13.5479C15.6337 13.4 15.7751 13.3115 16.0122 13.3115C16.266 13.3115 16.5116 13.4087 16.6321 13.4846L16.8192 13.1297ZM22.3968 12.9184C22.1474 12.9184 21.985 13.0368 21.8732 13.2143V12.9691H21.4447V14.9883H21.877V13.8564C21.877 13.5223 22.0184 13.3366 22.3011 13.3366C22.3887 13.3366 22.4802 13.3492 22.5716 13.3874L22.7049 12.9735C22.6092 12.9353 22.4844 12.9184 22.3968 12.9184ZM18.7077 12.9691H18.0008V12.3565H17.5637V12.9691H17.1605V13.3705H17.5637V14.2916C17.5637 14.7601 17.7427 15.0391 18.254 15.0391C18.4416 15.0391 18.6578 14.9801 18.7949 14.8829L18.6701 14.5067C18.5411 14.5826 18.3997 14.6208 18.2874 14.6208C18.0712 14.6208 18.0008 14.4854 18.0008 14.2828V13.3705H18.7077V12.9691ZM12.2441 14.9883V13.721C12.2441 13.2438 11.9446 12.9227 11.4619 12.9184C11.2082 12.914 10.9463 12.9943 10.763 13.2776C10.6259 13.0538 10.4098 12.9184 10.1061 12.9184C9.89372 12.9184 9.68616 12.9817 9.52382 13.2182V12.9691H9.09106V14.9883H9.52762V13.869C9.52762 13.5184 9.719 13.3323 10.0146 13.3323C10.3017 13.3323 10.4469 13.5223 10.4469 13.8646V14.9883H10.884V13.869C10.884 13.5184 11.0834 13.3323 11.3705 13.3323C11.6657 13.3323 11.8071 13.5223 11.8071 13.8646V14.9883H12.2441Z" fill="white"/>
</svg>
