<svg width="41" height="27" viewBox="0 0 41 27" fill="none" xmlns="http://www.w3.org/2000/svg">
<rect x="0.5" y="1.35352" width="40" height="26" rx="2.51813" fill="#F4F5FF"/>
<path d="M23.9906 20.7434H16.9912V7.96777H23.9906V20.7434Z" fill="#FF5F00"/>
<path d="M17.4397 14.3545C17.4397 11.7629 18.6345 9.45439 20.495 7.96669C19.1344 6.87881 17.4173 6.22949 15.5512 6.22949C11.1334 6.22949 7.55225 9.86712 7.55225 14.3545C7.55225 18.8419 11.1334 22.4795 15.5512 22.4795C17.4173 22.4795 19.1344 21.8302 20.495 20.7423C18.6345 19.2546 17.4397 16.9461 17.4397 14.3545Z" fill="#EB001B"/>
<path d="M33.4305 14.3545C33.4305 18.8419 29.8494 22.4795 25.4315 22.4795C23.5654 22.4795 21.8484 21.8302 20.4873 20.7423C22.3483 19.2546 23.5431 16.9461 23.5431 14.3545C23.5431 11.7629 22.3483 9.45439 20.4873 7.96669C21.8484 6.87881 23.5654 6.22949 25.4315 6.22949C29.8494 6.22949 33.4305 9.86712 33.4305 14.3545Z" fill="#F79E1B"/>
<path d="M13.5715 14.4055C13.5715 14.0506 13.8005 13.759 14.1747 13.759C14.5322 13.759 14.7736 14.038 14.7736 14.4055C14.7736 14.7729 14.5322 15.0519 14.1747 15.0519C13.8005 15.0519 13.5715 14.7604 13.5715 14.4055ZM15.1811 14.4055V13.3959H14.7488V13.641C14.6117 13.4592 14.4037 13.3451 14.1209 13.3451C13.5634 13.3451 13.1264 13.789 13.1264 14.4055C13.1264 15.0224 13.5634 15.4658 14.1209 15.4658C14.4037 15.4658 14.6117 15.3517 14.7488 15.1699V15.4151H15.1811V14.4055ZM29.789 14.4055C29.789 14.0506 30.0179 13.759 30.3921 13.759C30.7501 13.759 30.991 14.038 30.991 14.4055C30.991 14.7729 30.7501 15.0519 30.3921 15.0519C30.0179 15.0519 29.789 14.7604 29.789 14.4055ZM31.399 14.4055V12.5851H30.9663V13.641C30.8292 13.4592 30.6211 13.3451 30.3383 13.3451C29.7809 13.3451 29.3438 13.789 29.3438 14.4055C29.3438 15.0224 29.7809 15.4658 30.3383 15.4658C30.6211 15.4658 30.8292 15.3517 30.9663 15.1699V15.4151H31.399V14.4055ZM20.5469 13.7382C20.8254 13.7382 21.0044 13.9157 21.0501 14.228H20.0185C20.0647 13.9365 20.2389 13.7382 20.5469 13.7382ZM20.5555 13.3451C19.9728 13.3451 19.5653 13.7759 19.5653 14.4055C19.5653 15.0476 19.9895 15.4658 20.5845 15.4658C20.884 15.4658 21.1582 15.3899 21.3996 15.183L21.1877 14.8576C21.0211 14.9925 20.8088 15.0689 20.6093 15.0689C20.3308 15.0689 20.0771 14.9378 20.0147 14.5742H21.491C21.4953 14.5196 21.4996 14.4645 21.4996 14.4055C21.4953 13.7759 21.1125 13.3451 20.5555 13.3451ZM25.7752 14.4055C25.7752 14.0506 26.0042 13.759 26.3784 13.759C26.7359 13.759 26.9773 14.038 26.9773 14.4055C26.9773 14.7729 26.7359 15.0519 26.3784 15.0519C26.0042 15.0519 25.7752 14.7604 25.7752 14.4055ZM27.3848 14.4055V13.3959H26.9525V13.641C26.8149 13.4592 26.6074 13.3451 26.3246 13.3451C25.7671 13.3451 25.33 13.789 25.33 14.4055C25.33 15.0224 25.7671 15.4658 26.3246 15.4658C26.6074 15.4658 26.8149 15.3517 26.9525 15.1699V15.4151H27.3848V14.4055ZM23.3339 14.4055C23.3339 15.0181 23.7538 15.4658 24.3946 15.4658C24.694 15.4658 24.8935 15.3981 25.1096 15.225L24.9021 14.8701C24.7397 14.9886 24.5693 15.0519 24.3817 15.0519C24.0366 15.0476 23.7828 14.7942 23.7828 14.4055C23.7828 14.0167 24.0366 13.7634 24.3817 13.759C24.5693 13.759 24.7397 13.8224 24.9021 13.9408L25.1096 13.5859C24.8935 13.4128 24.694 13.3451 24.3946 13.3451C23.7538 13.3451 23.3339 13.7929 23.3339 14.4055ZM28.9073 13.3451C28.6578 13.3451 28.4955 13.4636 28.3831 13.641V13.3959H27.9546V15.4151H28.3874V14.2831C28.3874 13.949 28.5288 13.7634 28.8116 13.7634C28.8992 13.7634 28.9906 13.7759 29.082 13.8141L29.2153 13.4003C29.1196 13.3621 28.9949 13.3451 28.9073 13.3451ZM17.3192 13.5564C17.1111 13.4172 16.8245 13.3451 16.5084 13.3451C16.0047 13.3451 15.6805 13.5903 15.6805 13.9916C15.6805 14.3209 15.9219 14.5239 16.3665 14.5873L16.5708 14.6168C16.8079 14.6506 16.9197 14.714 16.9197 14.8281C16.9197 14.9842 16.7617 15.0732 16.4665 15.0732C16.1671 15.0732 15.9509 14.976 15.8052 14.8619L15.6015 15.2038C15.8386 15.3812 16.138 15.4658 16.4622 15.4658C17.0364 15.4658 17.3691 15.1912 17.3691 14.8068C17.3691 14.4519 17.1073 14.2662 16.6746 14.2029L16.4708 14.1729C16.2837 14.1478 16.1337 14.1101 16.1337 13.9747C16.1337 13.8267 16.2751 13.7382 16.5122 13.7382C16.766 13.7382 17.0116 13.8354 17.1321 13.9113L17.3192 13.5564ZM22.8968 13.3451C22.6474 13.3451 22.485 13.4636 22.3732 13.641V13.3959H21.9447V15.4151H22.377V14.2831C22.377 13.949 22.5184 13.7634 22.8011 13.7634C22.8887 13.7634 22.9802 13.7759 23.0716 13.8141L23.2049 13.4003C23.1092 13.3621 22.9844 13.3451 22.8968 13.3451ZM19.2077 13.3959H18.5008V12.7833H18.0637V13.3959H17.6605V13.7972H18.0637V14.7183C18.0637 15.1868 18.2427 15.4658 18.754 15.4658C18.9416 15.4658 19.1578 15.4068 19.2949 15.3096L19.1701 14.9335C19.0411 15.0094 18.8997 15.0476 18.7874 15.0476C18.5712 15.0476 18.5008 14.9122 18.5008 14.7096V13.7972H19.2077V13.3959ZM12.7441 15.4151V14.1478C12.7441 13.6705 12.4446 13.3495 11.9619 13.3451C11.7082 13.3408 11.4463 13.421 11.263 13.7044C11.1259 13.4805 10.9098 13.3451 10.6061 13.3451C10.3937 13.3451 10.1862 13.4085 10.0238 13.6449V13.3959H9.59106V15.4151H10.0276V14.2957C10.0276 13.9452 10.219 13.759 10.5146 13.759C10.8017 13.759 10.9469 13.949 10.9469 14.2914V15.4151H11.384V14.2957C11.384 13.9452 11.5834 13.759 11.8705 13.759C12.1657 13.759 12.3071 13.949 12.3071 14.2914V15.4151H12.7441Z" fill="white"/>
</svg>
