<svg width="41" height="27" viewBox="0 0 41 27" fill="none" xmlns="http://www.w3.org/2000/svg">
<rect x="0.5" y="1.35352" width="40" height="26" rx="2.51813" fill="#F4F5FF"/>
<path d="M12.7201 6.22852H19.1044C19.9956 6.22852 20.5499 6.96626 20.342 7.87438L17.3696 20.8352C17.1599 21.7401 16.2676 22.4785 15.3758 22.4785H8.99213C8.10219 22.4785 7.54665 21.7401 7.75455 20.8352L10.7281 7.87438C10.936 6.96626 11.8278 6.22852 12.7201 6.22852Z" fill="#E21836"/>
<path d="M18.5732 6.22852H25.915C26.806 6.22852 26.4042 6.96626 26.1946 7.87438L23.2228 20.8352C23.0142 21.7401 23.0793 22.4785 22.1864 22.4785H14.8446C13.9517 22.4785 13.3991 21.7401 13.6089 20.8352L16.5806 7.87438C16.7916 6.96626 17.6816 6.22852 18.5732 6.22852Z" fill="#00447C"/>
<path d="M25.6237 6.22852H32.008C32.9004 6.22852 33.4547 6.96626 33.2451 7.87438L30.2732 20.8352C30.0635 21.7401 29.1706 22.4785 28.2783 22.4785H21.897C21.0041 22.4785 20.4502 21.7401 20.6594 20.8352L23.6317 7.87438C23.8396 6.96626 24.7308 6.22852 25.6237 6.22852Z" fill="#007B84"/>
<path d="M14.3874 10.3823C13.7309 10.3891 13.537 10.3823 13.475 10.3674C13.4512 10.4823 13.0082 12.5579 13.007 12.5596C12.9116 12.9795 12.8422 13.2789 12.6064 13.4722C12.4726 13.5845 12.3164 13.6387 12.1352 13.6387C11.8441 13.6387 11.6745 13.4919 11.646 13.2134L11.6405 13.1178C11.6405 13.1178 11.7292 12.5554 11.7292 12.5522C11.7292 12.5522 12.1942 10.6607 12.2775 10.4107C12.2818 10.3965 12.2831 10.3891 12.2842 10.3823C11.3791 10.3903 11.2187 10.3823 11.2076 10.3674C11.2016 10.3878 11.1792 10.5051 11.1792 10.5051L10.7044 12.6369L10.6636 12.8177L10.5847 13.4091C10.5847 13.5845 10.6186 13.7277 10.6862 13.8488C10.9025 14.2327 11.5195 14.2902 11.8685 14.2902C12.3182 14.2902 12.7401 14.1932 13.0252 14.016C13.52 13.719 13.6495 13.2549 13.765 12.8424L13.8185 12.6307C13.8185 12.6307 14.2975 10.6663 14.3788 10.4107C14.382 10.3965 14.3832 10.3891 14.3874 10.3823ZM16.0171 11.967C15.9016 11.967 15.6906 11.9955 15.5011 12.0898C15.4323 12.1257 15.3672 12.1671 15.2986 12.2084L15.3606 11.9812L15.3266 11.943C14.9247 12.0257 14.8347 12.0367 14.4634 12.0898L14.4323 12.1108C14.3892 12.4739 14.3509 12.7468 14.1911 13.4604C14.1303 13.7234 14.0671 13.9889 14.0038 14.2512L14.0209 14.2846C14.4014 14.2642 14.5168 14.2642 14.8475 14.2697L14.8743 14.2402C14.9163 14.0216 14.9217 13.9704 15.0148 13.5277C15.0585 13.3178 15.1497 12.8566 15.1947 12.6924C15.2773 12.6536 15.3588 12.6153 15.4366 12.6153C15.622 12.6153 15.5994 12.7795 15.5923 12.845C15.5843 12.9548 15.5168 13.3135 15.4475 13.6216L15.4013 13.8204C15.3691 13.9672 15.3338 14.1099 15.3016 14.2555L15.3156 14.2846C15.6906 14.2642 15.805 14.2642 16.1252 14.2697L16.1629 14.2402C16.2208 13.8988 16.2377 13.8074 16.3404 13.3104L16.3921 13.082C16.4925 12.6351 16.5429 12.4084 16.4669 12.2238C16.3867 12.017 16.194 11.967 16.0171 11.967ZM17.8376 12.435C17.6383 12.4739 17.5111 12.4998 17.3848 12.5165C17.2595 12.5369 17.1374 12.5554 16.9447 12.5826L16.9295 12.5966L16.9155 12.6079C16.8954 12.7536 16.8814 12.8795 16.8548 13.0276C16.8322 13.1808 16.7975 13.3548 16.741 13.6048C16.6973 13.7962 16.6747 13.8629 16.6498 13.9302C16.6255 13.9975 16.5988 14.063 16.5496 14.2512L16.5611 14.2686L16.5708 14.2846C16.7508 14.2759 16.8686 14.2697 16.9897 14.2686C17.1106 14.2642 17.2359 14.2686 17.4298 14.2697L17.4467 14.2556L17.4649 14.2401C17.4929 14.0704 17.4971 14.0247 17.5142 13.9419C17.5312 13.8531 17.5605 13.7301 17.6322 13.4017C17.6661 13.2475 17.7039 13.0937 17.7391 12.9363C17.7757 12.7795 17.814 12.6251 17.8504 12.4708L17.8449 12.4522L17.8376 12.435ZM17.8419 11.804C17.6607 11.6955 17.3428 11.7299 17.1288 11.8799C16.9155 12.0269 16.8912 12.2355 17.0717 12.3455C17.2498 12.4511 17.5689 12.4196 17.781 12.2684C17.9939 12.1182 18.0205 11.9115 17.8419 11.804ZM18.9373 14.3186C19.3038 14.3186 19.6794 14.216 19.9621 13.9116C20.1797 13.6648 20.2794 13.2975 20.314 13.1462C20.4265 12.6449 20.3389 12.4108 20.2289 12.2683C20.0617 12.051 19.7664 11.9813 19.46 11.9813C19.2757 11.9813 18.8369 11.9998 18.4941 12.3208C18.2479 12.5523 18.1342 12.8665 18.0655 13.1677C17.9963 13.4746 17.9166 14.0271 18.4169 14.2328C18.5713 14.3001 18.7938 14.3186 18.9373 14.3186ZM18.9087 13.1906C18.9932 12.811 19.0929 12.4924 19.3475 12.4924C19.547 12.4924 19.5614 12.7295 19.4727 13.1103C19.4569 13.1949 19.384 13.5092 19.2855 13.6431C19.2168 13.7419 19.1354 13.8018 19.0454 13.8018C19.0187 13.8018 18.8595 13.8018 18.857 13.5617C18.8557 13.4432 18.8796 13.3221 18.9087 13.1906ZM21.2301 14.2698L21.2587 14.2402C21.2993 14.0216 21.306 13.9703 21.396 13.5277C21.4409 13.3179 21.534 12.8567 21.5777 12.6925C21.6605 12.6535 21.7406 12.6152 21.8209 12.6152C22.005 12.6152 21.9826 12.7794 21.9753 12.8448C21.9686 12.9548 21.9011 13.3134 21.8306 13.6215L21.7868 13.8203C21.7534 13.9673 21.717 14.1098 21.6848 14.2555L21.6988 14.2846C22.075 14.2642 22.1851 14.2642 22.5072 14.2698L22.5461 14.2402C22.6026 13.8987 22.6178 13.8073 22.7236 13.3104L22.7741 13.0819C22.8749 12.635 22.9259 12.4085 22.8512 12.2239C22.7686 12.017 22.5747 11.9671 22.4003 11.9671C22.2847 11.9671 22.0726 11.9954 21.8841 12.0899C21.8167 12.1257 21.7492 12.167 21.6829 12.2084L21.7406 11.9813L21.7097 11.9429C21.3079 12.0257 21.2161 12.0368 20.8452 12.0899L20.8168 12.1109C20.7718 12.4739 20.7352 12.7467 20.5754 13.4604C20.5146 13.7234 20.4514 13.9889 20.3882 14.2513L20.4052 14.2846C20.7863 14.2642 20.9 14.2642 21.2301 14.2698ZM23.9946 14.2845C24.0182 14.1673 24.1588 13.4722 24.16 13.4722C24.16 13.4722 24.2797 12.9622 24.287 12.9437C24.287 12.9437 24.3246 12.8906 24.3623 12.8696H24.4177C24.9404 12.8696 25.5306 12.8696 25.9933 12.5239C26.3081 12.2869 26.5233 11.9368 26.6193 11.5114C26.6442 11.407 26.6626 11.283 26.6626 11.1589C26.6626 10.996 26.6303 10.8348 26.5373 10.7088C26.3014 10.3736 25.8316 10.3674 25.2893 10.3649C25.2876 10.3649 25.0219 10.3674 25.0219 10.3674C24.3278 10.3761 24.0494 10.3736 23.935 10.3594C23.9253 10.4107 23.9071 10.5021 23.9071 10.5021C23.9071 10.5021 23.6585 11.6726 23.6585 11.6745C23.6585 11.6745 23.0634 14.163 23.0354 14.2803C23.6415 14.2728 23.89 14.2728 23.9946 14.2845ZM24.4554 12.2053C24.4554 12.2053 24.7197 11.0372 24.7185 11.0416L24.7271 10.9817L24.7308 10.9361L24.8365 10.9471C24.8365 10.9471 25.3817 10.9947 25.3945 10.996C25.6097 11.0805 25.6984 11.2985 25.6365 11.5829C25.58 11.8429 25.4139 12.0615 25.2006 12.1671C25.0249 12.2565 24.8097 12.264 24.5879 12.264H24.4445L24.4554 12.2053ZM26.1015 13.2123C26.0316 13.5148 25.9513 14.0673 26.4491 14.2642C26.6078 14.3328 26.7501 14.3532 26.8946 14.3457C27.0473 14.3374 27.1887 14.2596 27.3198 14.1477C27.3079 14.1937 27.2961 14.2397 27.2843 14.2858L27.3069 14.3154C27.6649 14.3001 27.776 14.3001 28.164 14.3031L28.1991 14.2759C28.2558 13.9377 28.3091 13.6093 28.4564 12.9622C28.5281 12.6523 28.5997 12.3454 28.6733 12.0367L28.6618 12.0028C28.2612 12.0781 28.1542 12.0943 27.7689 12.1497L27.7396 12.1739C27.7357 12.2054 27.7317 12.2356 27.7279 12.2657C27.668 12.1674 27.5812 12.0835 27.4472 12.0312C27.2759 11.9628 26.8735 12.051 26.5275 12.3708C26.2845 12.5992 26.1678 12.9121 26.1015 13.2123ZM26.9427 13.2308C27.0285 12.8579 27.127 12.5425 27.3822 12.5425C27.5435 12.5425 27.6285 12.6937 27.6112 12.9516C27.5975 13.016 27.5827 13.0838 27.5652 13.1604C27.5396 13.2712 27.5119 13.381 27.485 13.491C27.4576 13.5663 27.4257 13.6372 27.3907 13.6845C27.3251 13.779 27.1688 13.8376 27.0789 13.8376C27.0534 13.8376 26.8959 13.8376 26.8904 13.6018C26.8892 13.4844 26.913 13.3635 26.9427 13.2308ZM31.3357 11.9997L31.3048 11.9639C30.9084 12.0454 30.8367 12.0584 30.4725 12.1083L30.4458 12.1355C30.4445 12.1399 30.4434 12.1467 30.4416 12.1529L30.4403 12.1467C30.1693 12.7819 30.1772 12.6449 29.9565 13.1449C29.9553 13.1222 29.9553 13.1079 29.954 13.0838L29.8988 11.9997L29.8641 11.9639C29.4489 12.0454 29.4391 12.0584 29.0557 12.1083L29.0258 12.1355C29.0216 12.1485 29.0216 12.1627 29.0191 12.1782L29.0216 12.1837C29.0695 12.4325 29.058 12.377 29.1061 12.7696C29.1285 12.9622 29.1584 13.156 29.1808 13.3463C29.2186 13.6647 29.2398 13.8215 29.286 14.3075C29.0271 14.7415 28.9657 14.9057 28.7165 15.2866L28.7182 15.2904L28.5426 15.5723C28.5226 15.602 28.5044 15.6224 28.4788 15.6311C28.4508 15.6452 28.4144 15.6477 28.3638 15.6477H28.2666L28.122 16.136L28.618 16.1447C28.9091 16.1435 29.0921 16.0052 29.1906 15.8193L29.5025 15.2766H29.4975L29.5303 15.2384C29.7401 14.7797 31.3357 11.9997 31.3357 11.9997ZM26.1015 18.4135H25.8911L26.6698 15.7978H26.9281L27.0101 15.5283L27.018 15.8279C27.0084 16.0132 27.1518 16.1774 27.5287 16.1502H27.9646L28.1146 15.6465H27.9506C27.8563 15.6465 27.8126 15.6223 27.818 15.5705L27.8101 15.2656H27.0029V15.2672C26.742 15.2727 25.9627 15.2926 25.8049 15.3353C25.6139 15.3853 25.4127 15.5322 25.4127 15.5322L25.4918 15.2625H24.7368L24.5794 15.7978L23.7903 18.4535H23.6372L23.487 18.9536H24.9909L24.9404 19.1203H25.6815L25.7306 18.9536H25.9385L26.1015 18.4135ZM25.4845 16.3293C25.3636 16.3632 25.1385 16.4663 25.1385 16.4663L25.3387 15.7978H25.9385L25.7938 16.2848C25.7938 16.2848 25.6085 16.2959 25.4845 16.3293ZM25.496 17.2843C25.496 17.2843 25.3075 17.3083 25.1835 17.3368C25.0614 17.3744 24.8323 17.4929 24.8323 17.4929L25.0389 16.7972H25.6419L25.496 17.2843ZM25.1599 18.4197H24.5581L24.7325 17.8326H25.3324L25.1599 18.4197ZM26.609 16.7972H27.4764L27.3517 17.2072H26.4728L26.3409 17.6554H27.1099L26.5276 18.4881C26.4869 18.5493 26.4503 18.5709 26.4097 18.5882C26.3689 18.6092 26.3154 18.6338 26.2534 18.6338H26.0401L25.8935 19.1247H26.4515C26.7416 19.1247 26.9129 18.9907 27.0394 18.8148L27.4387 18.2597L27.5245 18.8233C27.5427 18.9289 27.6174 18.9907 27.6679 19.0147C27.7238 19.0432 27.7815 19.092 27.8631 19.0993C27.9505 19.1031 28.0137 19.1061 28.0557 19.1061H28.3299L28.4946 18.5567H28.3864C28.3243 18.5567 28.2174 18.5461 28.1992 18.5264C28.181 18.5023 28.181 18.4654 28.1712 18.4091L28.0842 17.8443H27.728L27.8842 17.6554H28.7614L28.8963 17.2072H28.0842L28.2107 16.7972H29.0204L29.1705 16.2916H26.7567L26.609 16.7972ZM19.2831 18.5338L19.4855 17.8498H20.3176L20.4696 17.3411H19.6368L19.7639 16.9201H20.5778L20.7286 16.4274H18.6922L18.5446 16.9201H19.0072L18.8838 17.3411H18.4199L18.2662 17.8585H18.7286L18.4588 18.7635C18.4224 18.8833 18.4759 18.929 18.5099 18.9846C18.5446 19.0388 18.5797 19.0747 18.6588 19.0951C18.7403 19.1135 18.7962 19.1246 18.8721 19.1246H19.8101L19.9773 18.561L19.5615 18.619C19.4812 18.619 19.2588 18.6092 19.2831 18.5338ZM19.3785 15.2594L19.1677 15.6464C19.1225 15.731 19.0819 15.7834 19.0454 15.8076C19.0131 15.828 18.9493 15.8366 18.8569 15.8366H18.7469L18.5998 16.3317H18.9652C19.1409 16.3317 19.2758 16.2663 19.3402 16.2336C19.4095 16.1959 19.4277 16.2174 19.4812 16.165L19.6046 16.0564H20.7456L20.897 15.5409H20.0618L20.2076 15.2594H19.3785ZM21.0629 18.5438C21.0435 18.5153 21.0575 18.4652 21.0872 18.3609L21.399 17.3126H22.5084C22.6701 17.3103 22.7868 17.3084 22.8627 17.3028C22.9443 17.2941 23.033 17.2646 23.1296 17.2115C23.2294 17.1558 23.2804 17.0972 23.3235 17.0299C23.3716 16.9627 23.4488 16.8157 23.5151 16.5891L23.907 15.2625L22.7558 15.2693C22.7558 15.2693 22.4013 15.3224 22.2453 15.381C22.0878 15.4465 21.8628 15.6292 21.8628 15.6292L21.9667 15.2655H21.2556L20.26 18.619C20.2246 18.7492 20.201 18.8438 20.1955 18.9005C20.1937 18.9616 20.2715 19.0222 20.3219 19.0679C20.3815 19.1135 20.4696 19.1061 20.5541 19.1135C20.6429 19.1203 20.7693 19.1246 20.9437 19.1246H21.4902L21.658 18.5493L21.1687 18.5963C21.1165 18.5963 21.0786 18.5678 21.0629 18.5438ZM21.6003 16.6046H22.7655L22.6914 16.8404C22.681 16.8459 22.6561 16.8287 22.5375 16.8429H21.5285L21.6003 16.6046ZM21.8337 15.8137H23.0087L22.9242 16.0977C22.9242 16.0977 22.3704 16.0922 22.2817 16.1088C21.8914 16.1774 21.6634 16.3892 21.6634 16.3892L21.8337 15.8137ZM22.7175 17.63C22.7078 17.6653 22.6926 17.6868 22.6713 17.7029C22.6476 17.7184 22.6093 17.7239 22.5522 17.7239H22.3862L22.396 17.4367H21.7054L21.6774 18.8406C21.6763 18.9419 21.6859 19.0006 21.7589 19.0475C21.8319 19.1061 22.0568 19.1136 22.3594 19.1136H22.7922L22.9484 18.5881L22.5717 18.6091L22.4464 18.6165C22.4293 18.6091 22.413 18.6023 22.3947 18.5838C22.3789 18.5679 22.3521 18.5777 22.3565 18.4763L22.3594 18.1165L22.7545 18.0999C22.9679 18.0999 23.0591 18.0294 23.1369 17.9622C23.2111 17.8979 23.2354 17.8239 23.2634 17.7239L23.3297 17.4053H22.7867L22.7175 17.63Z" fill="#FEFEFE"/>
</svg>
