<svg width="20" height="21" viewBox="0 0 20 21" fill="none" xmlns="http://www.w3.org/2000/svg">
<path d="M10.0059 2.30289C12.678 2.30289 12.9944 2.31461 14.0453 2.36149C15.0219 2.40446 15.5493 2.56854 15.9009 2.70527C16.3658 2.88497 16.7018 3.10374 17.0494 3.45143C17.401 3.80302 17.6159 4.13508 17.7956 4.59996C17.9323 4.95155 18.0964 5.48285 18.1394 6.45559C18.1863 7.51037 18.198 7.8268 18.198 10.495C18.198 13.1671 18.1863 13.4835 18.1394 14.5344C18.0964 15.5111 17.9323 16.0384 17.7956 16.39C17.6159 16.8549 17.3971 17.1909 17.0494 17.5386C16.6978 17.8902 16.3658 18.105 15.9009 18.2847C15.5493 18.4215 15.018 18.5855 14.0453 18.6285C12.9905 18.6754 12.6741 18.6871 10.0059 18.6871C7.33376 18.6871 7.01733 18.6754 5.96645 18.6285C4.98981 18.5855 4.46242 18.4215 4.11083 18.2847C3.64594 18.105 3.30998 17.8863 2.96229 17.5386C2.6107 17.187 2.39584 16.8549 2.21613 16.39C2.0794 16.0384 1.91533 15.5072 1.87235 14.5344C1.82547 13.4796 1.81375 13.1632 1.81375 10.495C1.81375 7.8229 1.82547 7.50646 1.87235 6.45559C1.91533 5.47894 2.0794 4.95155 2.21613 4.59996C2.39584 4.13508 2.6146 3.79911 2.96229 3.45143C3.31388 3.09983 3.64594 2.88497 4.11083 2.70527C4.46242 2.56854 4.99371 2.40446 5.96645 2.36149C7.01733 2.31461 7.33376 2.30289 10.0059 2.30289ZM10.0059 0.501953C7.29079 0.501953 6.95091 0.513673 5.88442 0.560552C4.82183 0.607431 4.09129 0.779321 3.45843 1.02544C2.79821 1.28327 2.23957 1.62314 1.68484 2.18179C1.12619 2.73652 0.786322 3.29516 0.528487 3.95147C0.282372 4.58824 0.110483 5.31487 0.0636037 6.37746C0.0167246 7.44786 0.00500488 7.78774 0.00500488 10.5028C0.00500488 13.2179 0.0167246 13.5578 0.0636037 14.6243C0.110483 15.6869 0.282372 16.4174 0.528487 17.0503C0.786322 17.7105 1.12619 18.2691 1.68484 18.8238C2.23957 19.3786 2.79821 19.7224 3.45452 19.9763C4.09129 20.2224 4.81792 20.3943 5.88051 20.4412C6.94701 20.488 7.28688 20.4998 10.002 20.4998C12.717 20.4998 13.0569 20.488 14.1234 20.4412C15.186 20.3943 15.9165 20.2224 16.5494 19.9763C17.2057 19.7224 17.7643 19.3786 18.3191 18.8238C18.8738 18.2691 19.2176 17.7105 19.4715 17.0542C19.7176 16.4174 19.8895 15.6908 19.9364 14.6282C19.9833 13.5617 19.995 13.2218 19.995 10.5067C19.995 7.79164 19.9833 7.45177 19.9364 6.38527C19.8895 5.32268 19.7176 4.59215 19.4715 3.95928C19.2254 3.29516 18.8855 2.73652 18.3269 2.18179C17.7722 1.62705 17.2135 1.28327 16.5572 1.02934C15.9204 0.783227 15.1938 0.611338 14.1312 0.564458C13.0608 0.513673 12.7209 0.501953 10.0059 0.501953Z" fill="white"/>
<path d="M10.0059 5.36565C7.16968 5.36565 4.8687 7.66663 4.8687 10.5028C4.8687 13.339 7.16968 15.64 10.0059 15.64C12.842 15.64 15.143 13.339 15.143 10.5028C15.143 7.66663 12.842 5.36565 10.0059 5.36565ZM10.0059 13.8351C8.16586 13.8351 6.67355 12.3428 6.67355 10.5028C6.67355 8.66281 8.16586 7.1705 10.0059 7.1705C11.8459 7.1705 13.3382 8.66281 13.3382 10.5028C13.3382 12.3428 11.8459 13.8351 10.0059 13.8351Z" fill="white"/>
<path d="M16.5455 5.16243C16.5455 5.82655 16.0064 6.36175 15.3462 6.36175C14.682 6.36175 14.1468 5.82264 14.1468 5.16243C14.1468 4.49831 14.686 3.9631 15.3462 3.9631C16.0064 3.9631 16.5455 4.50221 16.5455 5.16243Z" fill="white"/>
</svg>
