<svg width="20" height="21" viewBox="0 0 20 21" fill="none" xmlns="http://www.w3.org/2000/svg">
<path d="M10.0009 2.28336C12.673 2.28336 12.9894 2.29508 14.0403 2.34196C15.0169 2.38493 15.5443 2.54901 15.8959 2.68574C16.3608 2.86544 16.6967 3.08421 17.0444 3.43189C17.396 3.78349 17.6109 4.11555 17.7906 4.58043C17.9273 4.93202 18.0914 5.46332 18.1344 6.43606C18.1812 7.49084 18.193 7.80727 18.193 10.4755C18.193 13.1476 18.1812 13.464 18.1344 14.5149C18.0914 15.4915 17.9273 16.0189 17.7906 16.3705C17.6109 16.8354 17.3921 17.1714 17.0444 17.519C16.6928 17.8706 16.3608 18.0855 15.8959 18.2652C15.5443 18.4019 15.013 18.566 14.0403 18.609C12.9855 18.6559 12.6691 18.6676 10.0009 18.6676C7.32875 18.6676 7.01232 18.6559 5.96145 18.609C4.9848 18.566 4.45741 18.4019 4.10582 18.2652C3.64094 18.0855 3.30497 17.8667 2.95729 17.519C2.60569 17.1674 2.39083 16.8354 2.21113 16.3705C2.0744 16.0189 1.91032 15.4876 1.86735 14.5149C1.82047 13.4601 1.80875 13.1437 1.80875 10.4755C1.80875 7.80336 1.82047 7.48693 1.86735 6.43606C1.91032 5.45941 2.0744 4.93202 2.21113 4.58043C2.39083 4.11555 2.6096 3.77958 2.95729 3.43189C3.30888 3.0803 3.64094 2.86544 4.10582 2.68574C4.45741 2.54901 4.98871 2.38493 5.96145 2.34196C7.01232 2.29508 7.32875 2.28336 10.0009 2.28336ZM10.0009 0.482422C7.28578 0.482422 6.94591 0.494142 5.87941 0.541021C4.81682 0.5879 4.08629 0.759789 3.45342 1.0059C2.79321 1.26374 2.23457 1.60361 1.67983 2.16225C1.12119 2.71699 0.781317 3.27563 0.523482 3.93194C0.277368 4.56871 0.105478 5.29534 0.0585988 6.35793C0.0117198 7.42833 0 7.7682 0 10.4833C0 13.1984 0.0117198 13.5382 0.0585988 14.6047C0.105478 15.6673 0.277368 16.3979 0.523482 17.0307C0.781317 17.6909 1.12119 18.2496 1.67983 18.8043C2.23457 19.359 2.79321 19.7028 3.44952 19.9568C4.08629 20.2029 4.81291 20.3748 5.8755 20.4216C6.942 20.4685 7.28188 20.4802 9.99695 20.4802C12.712 20.4802 13.0519 20.4685 14.1184 20.4216C15.181 20.3748 15.9115 20.2029 16.5444 19.9568C17.2007 19.7028 17.7593 19.359 18.3141 18.8043C18.8688 18.2496 19.2126 17.6909 19.4665 17.0346C19.7126 16.3979 19.8845 15.6712 19.9314 14.6086C19.9783 13.5421 19.99 13.2023 19.99 10.4872C19.99 7.77211 19.9783 7.43224 19.9314 6.36574C19.8845 5.30315 19.7126 4.57262 19.4665 3.93975C19.2204 3.27563 18.8805 2.71699 18.3219 2.16225C17.7672 1.60752 17.2085 1.26374 16.5522 1.00981C15.9154 0.763696 15.1888 0.591806 14.1262 0.544927C13.0558 0.494142 12.7159 0.482422 10.0009 0.482422Z" fill="white"/>
<path d="M10.0009 5.34612C7.16468 5.34612 4.8637 7.6471 4.8637 10.4833C4.8637 13.3195 7.16468 15.6204 10.0009 15.6204C12.837 15.6204 15.138 13.3195 15.138 10.4833C15.138 7.6471 12.837 5.34612 10.0009 5.34612ZM10.0009 13.8156C8.16086 13.8156 6.66854 12.3233 6.66854 10.4833C6.66854 8.64328 8.16086 7.15096 10.0009 7.15096C11.8409 7.15096 13.3332 8.64328 13.3332 10.4833C13.3332 12.3233 11.8409 13.8156 10.0009 13.8156Z" fill="white"/>
<path d="M16.5405 5.1429C16.5405 5.80702 16.0014 6.34222 15.3412 6.34222C14.677 6.34222 14.1418 5.80311 14.1418 5.1429C14.1418 4.47878 14.6809 3.94357 15.3412 3.94357C16.0014 3.94357 16.5405 4.48268 16.5405 5.1429Z" fill="white"/>
</svg>
