<svg width="21" height="21" viewBox="0 0 21 21" fill="none" xmlns="http://www.w3.org/2000/svg">
<path d="M10.5057 2.72965C13.1778 2.72965 13.4943 2.74137 14.5452 2.78825C15.5218 2.83122 16.0492 2.9953 16.4008 3.13203C16.8657 3.31173 17.2016 3.5305 17.5493 3.87818C17.9009 4.22978 18.1158 4.56184 18.2955 5.02672C18.4322 5.37831 18.5963 5.90961 18.6393 6.88235C18.6861 7.93713 18.6979 8.25356 18.6979 10.9218C18.6979 13.5939 18.6861 13.9103 18.6393 14.9612C18.5963 15.9378 18.4322 16.4652 18.2955 16.8168C18.1158 17.2817 17.897 17.6176 17.5493 17.9653C17.1977 18.3169 16.8657 18.5318 16.4008 18.7115C16.0492 18.8482 15.5179 19.0123 14.5452 19.0553C13.4904 19.1021 13.1739 19.1139 10.5057 19.1139C7.83364 19.1139 7.5172 19.1021 6.46633 19.0553C5.48969 19.0123 4.9623 18.8482 4.6107 18.7115C4.14582 18.5318 3.80985 18.313 3.46217 17.9653C3.11058 17.6137 2.89571 17.2817 2.71601 16.8168C2.57928 16.4652 2.4152 15.9339 2.37223 14.9612C2.32535 13.9064 2.31363 13.59 2.31363 10.9218C2.31363 8.24965 2.32535 7.93322 2.37223 6.88235C2.4152 5.9057 2.57928 5.37831 2.71601 5.02672C2.89571 4.56184 3.11448 4.22587 3.46217 3.87818C3.81376 3.52659 4.14582 3.31173 4.6107 3.13203C4.9623 2.9953 5.49359 2.83122 6.46633 2.78825C7.5172 2.74137 7.83364 2.72965 10.5057 2.72965ZM10.5057 0.928711C7.79067 0.928711 7.45079 0.940431 6.38429 0.98731C5.3217 1.03419 4.59117 1.20608 3.9583 1.45219C3.29809 1.71003 2.73945 2.0499 2.18471 2.60854C1.62607 3.16328 1.2862 3.72192 1.02837 4.37823C0.78225 5.015 0.610361 5.74162 0.563482 6.80422C0.516603 7.87462 0.504883 8.21449 0.504883 10.9296C0.504883 13.6446 0.516603 13.9845 0.563482 15.051C0.610361 16.1136 0.78225 16.8441 1.02837 17.477C1.2862 18.1372 1.62607 18.6959 2.18471 19.2506C2.73945 19.8053 3.29809 20.1491 3.9544 20.403C4.59117 20.6492 5.3178 20.821 6.38039 20.8679C7.44689 20.9148 7.78676 20.9265 10.5018 20.9265C13.2169 20.9265 13.5568 20.9148 14.6233 20.8679C15.6859 20.821 16.4164 20.6492 17.0493 20.403C17.7056 20.1491 18.2642 19.8053 18.819 19.2506C19.3737 18.6959 19.7175 18.1372 19.9714 17.4809C20.2175 16.8441 20.3894 16.1175 20.4363 15.0549C20.4832 13.9884 20.4949 13.6486 20.4949 10.9335C20.4949 8.2184 20.4832 7.87853 20.4363 6.81203C20.3894 5.74944 20.2175 5.01891 19.9714 4.38604C19.7253 3.72192 19.3854 3.16328 18.8268 2.60854C18.272 2.05381 17.7134 1.71003 17.0571 1.4561C16.4203 1.20999 15.6937 1.0381 14.6311 0.991216C13.5607 0.940431 13.2208 0.928711 10.5057 0.928711Z" fill="white"/>
<path d="M10.5057 5.79241C7.66956 5.79241 5.36858 8.09339 5.36858 10.9296C5.36858 13.7658 7.66956 16.0667 10.5057 16.0667C13.3419 16.0667 15.6429 13.7658 15.6429 10.9296C15.6429 8.09339 13.3419 5.79241 10.5057 5.79241ZM10.5057 14.2619C8.66574 14.2619 7.17342 12.7696 7.17342 10.9296C7.17342 9.08957 8.66574 7.59725 10.5057 7.59725C12.3457 7.59725 13.8381 9.08957 13.8381 10.9296C13.8381 12.7696 12.3457 14.2619 10.5057 14.2619Z" fill="white"/>
<path d="M17.0454 5.58918C17.0454 6.2533 16.5063 6.78851 15.846 6.78851C15.1819 6.78851 14.6467 6.2494 14.6467 5.58918C14.6467 4.92506 15.1858 4.38986 15.846 4.38986C16.5063 4.38986 17.0454 4.92897 17.0454 5.58918Z" fill="white"/>
</svg>
