<svg width="41" height="27" viewBox="0 0 41 27" fill="none" xmlns="http://www.w3.org/2000/svg">
<rect x="0.5" y="1.35352" width="40" height="26" rx="2.51813" fill="#F4F5FF"/>
<path d="M18.4731 18.8511H16.0105L17.5508 9.88477H20.0133L18.4731 18.8511Z" fill="#00579F"/>
<path d="M27.4006 10.1044C26.9149 9.92297 26.1444 9.72266 25.1918 9.72266C22.7599 9.72266 21.0474 10.9435 21.0369 12.689C21.0167 13.9769 22.263 14.6922 23.1951 15.1216C24.1479 15.5603 24.4718 15.8467 24.4718 16.2378C24.4621 16.8385 23.7019 17.1154 22.9929 17.1154C22.0097 17.1154 21.4829 16.9727 20.6823 16.6385L20.358 16.4952L20.0134 18.508C20.591 18.7557 21.6551 18.9755 22.7599 18.9852C25.3439 18.9852 27.0261 17.7832 27.046 15.9231C27.0558 14.9024 26.3977 14.1203 24.9789 13.4812C24.1176 13.0709 23.5901 12.7943 23.5901 12.3745C23.6002 11.9929 24.0363 11.602 25.0085 11.602C25.8091 11.5829 26.3973 11.7641 26.8429 11.9454L27.0657 12.0406L27.4006 10.1044Z" fill="#00579F"/>
<path d="M30.6733 15.6747C30.8762 15.1595 31.6565 13.1659 31.6565 13.1659C31.6463 13.1851 31.8589 12.6413 31.9805 12.3075L32.1526 13.0801C32.1526 13.0801 32.619 15.2264 32.7202 15.6747C32.3354 15.6747 31.1598 15.6747 30.6733 15.6747ZM33.7131 9.88477H31.8083C31.2209 9.88477 30.7746 10.0468 30.5212 10.6287L26.8633 18.851H29.4472C29.4472 18.851 29.8726 17.7443 29.9641 17.506C30.2475 17.506 32.7612 17.506 33.1259 17.506C33.1966 17.8208 33.4197 18.851 33.4197 18.851H35.6998L33.7131 9.88477Z" fill="#00579F"/>
<path d="M13.9538 9.88477L11.542 15.999L11.2785 14.7589C10.8326 13.3281 9.43427 11.7735 7.87378 11.0006L10.0828 18.8416H12.687L16.5578 9.88477H13.9538Z" fill="#00579F"/>
<path d="M9.30269 9.88477H5.34058L5.30005 10.0659C8.39074 10.81 10.4376 12.6035 11.2786 14.7593L10.4173 10.6385C10.2755 10.0658 9.83973 9.90366 9.30269 9.88477Z" fill="#FAA61A"/>
</svg>
