<svg width="40" height="27" viewBox="0 0 40 27" fill="none" xmlns="http://www.w3.org/2000/svg">
<rect y="1.35352" width="40" height="26" rx="2.51813" fill="#F4F5FF"/>
<path d="M17.9731 18.8511H15.5105L17.0508 9.88477H19.5133L17.9731 18.8511Z" fill="#00579F"/>
<path d="M26.9006 10.1044C26.4149 9.92297 25.6444 9.72266 24.6918 9.72266C22.2599 9.72266 20.5474 10.9435 20.5369 12.689C20.5167 13.9769 21.763 14.6922 22.6951 15.1216C23.6479 15.5603 23.9718 15.8467 23.9718 16.2378C23.9621 16.8385 23.2019 17.1154 22.4929 17.1154C21.5097 17.1154 20.9829 16.9727 20.1823 16.6385L19.858 16.4952L19.5134 18.508C20.091 18.7557 21.1551 18.9755 22.2599 18.9852C24.8439 18.9852 26.5261 17.7832 26.546 15.9231C26.5558 14.9024 25.8977 14.1203 24.4789 13.4812C23.6176 13.0709 23.0901 12.7943 23.0901 12.3745C23.1002 11.9929 23.5363 11.602 24.5085 11.602C25.3091 11.5829 25.8973 11.7641 26.3429 11.9454L26.5657 12.0406L26.9006 10.1044Z" fill="#00579F"/>
<path d="M30.1733 15.6747C30.3762 15.1595 31.1565 13.1659 31.1565 13.1659C31.1463 13.1851 31.3589 12.6413 31.4805 12.3075L31.6526 13.0801C31.6526 13.0801 32.119 15.2264 32.2202 15.6747C31.8354 15.6747 30.6598 15.6747 30.1733 15.6747ZM33.2131 9.88477H31.3083C30.7209 9.88477 30.2746 10.0468 30.0212 10.6287L26.3633 18.851H28.9472C28.9472 18.851 29.3726 17.7443 29.4641 17.506C29.7475 17.506 32.2612 17.506 32.6259 17.506C32.6966 17.8208 32.9197 18.851 32.9197 18.851H35.1998L33.2131 9.88477Z" fill="#00579F"/>
<path d="M13.4538 9.88477L11.042 15.999L10.7785 14.7589C10.3326 13.3281 8.93427 11.7735 7.37378 11.0006L9.58282 18.8416H12.187L16.0578 9.88477H13.4538Z" fill="#00579F"/>
<path d="M8.80269 9.88477H4.84058L4.80005 10.0659C7.89074 10.81 9.93764 12.6035 10.7786 14.7593L9.91731 10.6385C9.7755 10.0658 9.33973 9.90366 8.80269 9.88477Z" fill="#FAA61A"/>
</svg>
