<svg width="40" height="27" viewBox="0 0 40 27" fill="none" xmlns="http://www.w3.org/2000/svg">
<rect y="0.925781" width="40" height="26" rx="2.51813" fill="#F4F5FF"/>
<path d="M17.9734 18.4234H15.5107L17.051 9.45703H19.5135L17.9734 18.4234Z" fill="#00579F"/>
<path d="M26.9006 9.67665C26.4149 9.49523 25.6444 9.29492 24.6918 9.29492C22.2599 9.29492 20.5474 10.5158 20.5369 12.2613C20.5167 13.5491 21.763 14.2644 22.6951 14.6938C23.6479 15.1326 23.9718 15.419 23.9718 15.8101C23.9621 16.4108 23.2019 16.6877 22.4929 16.6877C21.5097 16.6877 20.9829 16.5449 20.1823 16.2107L19.858 16.0675L19.5134 18.0802C20.091 18.328 21.1551 18.5478 22.2599 18.5574C24.8439 18.5574 26.5261 17.3554 26.546 15.4953C26.5558 14.4746 25.8977 13.6925 24.4789 13.0534C23.6176 12.6432 23.0901 12.3665 23.0901 11.9468C23.1002 11.5652 23.5363 11.1743 24.5085 11.1743C25.3091 11.1552 25.8973 11.3363 26.3429 11.5176L26.5657 11.6128L26.9006 9.67665Z" fill="#00579F"/>
<path d="M30.1735 15.2469C30.3763 14.7318 31.1567 12.7382 31.1567 12.7382C31.1464 12.7574 31.3591 12.2136 31.4807 11.8798L31.6528 12.6524C31.6528 12.6524 32.1191 14.7986 32.2204 15.2469C31.8355 15.2469 30.6599 15.2469 30.1735 15.2469ZM33.2133 9.45703H31.3084C30.721 9.45703 30.2747 9.61906 30.0213 10.201L26.3634 18.4232H28.9473C28.9473 18.4232 29.3728 17.3166 29.4642 17.0782C29.7477 17.0782 32.2613 17.0782 32.626 17.0782C32.6967 17.393 32.9198 18.4232 32.9198 18.4232H35.2L33.2133 9.45703Z" fill="#00579F"/>
<path d="M13.454 9.45703L11.0423 15.5712L10.7787 14.3312C10.3329 12.9004 8.93452 11.3458 7.37402 10.5728L9.58306 18.4139H12.1872L16.058 9.45703H13.454Z" fill="#00579F"/>
<path d="M8.80281 9.45703H4.8407L4.80017 9.6382C7.89086 10.3823 9.93776 12.1758 10.7787 14.3316L9.91743 10.2107C9.77563 9.63807 9.33985 9.47592 8.80281 9.45703Z" fill="#FAA61A"/>
</svg>
